<svg xmlns="http://www.w3.org/2000/svg" width="28.7" height="136.28" viewBox="0 0 28.7 136.28">
  <g id="グループ_709" data-name="グループ 709" transform="translate(-422.695 -10739.731)">
    <path id="パス_541" data-name="パス 541" d="M427.026,10809.652a8.354,8.354,0,0,1-3.779-.887,1,1,0,1,1,.9-1.787,7.035,7.035,0,0,0,5.444.229,11.28,11.28,0,0,0,6.281-5.58,30.017,30.017,0,0,0,2.663-15.135l-1.457-19.694c-.381-5.157-.814-11,.979-16.364a17.622,17.622,0,0,1,4.592-7.216,12.371,12.371,0,0,1,7.691-3.485,1,1,0,1,1,.118,2,10.4,10.4,0,0,0-6.447,2.953,15.588,15.588,0,0,0-4.057,6.387c-1.665,4.979-1.249,10.612-.881,15.581l1.457,19.7a34.409,34.409,0,0,1-.373,8.26,29.082,29.082,0,0,1-2.486,7.9,13.2,13.2,0,0,1-3.092,4.033,12.8,12.8,0,0,1-4.346,2.564A9.985,9.985,0,0,1,427.026,10809.652Z" fill="#fbd83b"/>
    <path id="パス_542" data-name="パス 542" d="M450.4,10876.012l-.06,0a12.365,12.365,0,0,1-7.691-3.484,17.625,17.625,0,0,1-4.592-7.216c-1.792-5.361-1.36-11.207-.979-16.365l1.457-19.694a30.024,30.024,0,0,0-2.663-15.136,11.283,11.283,0,0,0-6.281-5.578,7.035,7.035,0,0,0-5.444.229,1,1,0,1,1-.9-1.787,8.891,8.891,0,0,1,6.982-.337,12.814,12.814,0,0,1,4.346,2.563,13.2,13.2,0,0,1,3.092,4.033,29.084,29.084,0,0,1,2.486,7.9,34.4,34.4,0,0,1,.373,8.259l-1.457,19.7c-.367,4.97-.784,10.6.881,15.582a15.587,15.587,0,0,0,4.057,6.386,10.4,10.4,0,0,0,6.446,2.953,1,1,0,0,1-.058,2Z" fill="#fbd83b"/>
  </g>
</svg>
