<svg xmlns="http://www.w3.org/2000/svg" width="222.128" height="222.128" viewBox="0 0 222.128 222.128">
  <g id="グループ_702" data-name="グループ 702" transform="translate(-224.628 -9955.591)">
    <g id="グループ_701" data-name="グループ 701">
      <circle id="楕円形_313" data-name="楕円形 313" cx="111.064" cy="111.064" r="111.064" transform="translate(224.628 9955.591)" fill="#e61400"/>
      <path id="パス_539" data-name="パス 539" d="M420.3,10159.371l-22.509-7.217,18.377-18.377,7.217,22.509A2.453,2.453,0,0,1,420.3,10159.371Z" fill="#e61400"/>
    </g>
    <path id="パス_786" data-name="パス 786" d="M-79.891,0V-5.446h7.261V-26.638h-6.126v-4.175a27.422,27.422,0,0,0,4.379-1.112,16.086,16.086,0,0,0,3.426-1.7H-66V-5.446H-59.7V0Zm26.865,9.711-1.407-3.63a10.092,10.092,0,0,0,4.061-2.723A5.55,5.55,0,0,0-48.942-.318l-.227-4.765,2.36,3.948a3.418,3.418,0,0,1-1.2.726A4.216,4.216,0,0,1-49.4-.182,4.508,4.508,0,0,1-52.3-1.2,3.537,3.537,0,0,1-53.57-4.13,3.583,3.583,0,0,1-52.3-6.988a4.58,4.58,0,0,1,3.086-1.089A4.07,4.07,0,0,1-45.7-6.33,8.191,8.191,0,0,1-44.449-1.5a11.017,11.017,0,0,1-2.224,6.9A13.023,13.023,0,0,1-53.026,9.711ZM-40.138,0V-3.857q4.583-4.084,7.828-7.578a36.372,36.372,0,0,0,4.969-6.512,11.423,11.423,0,0,0,1.724-5.6,6.521,6.521,0,0,0-.59-2.859,4.292,4.292,0,0,0-1.7-1.883,5.309,5.309,0,0,0-2.745-.658,5.858,5.858,0,0,0-3.335,1.021A15.1,15.1,0,0,0-36.78-25.5L-40.5-29.088a18.232,18.232,0,0,1,4.833-3.835,12.524,12.524,0,0,1,5.877-1.293,11.474,11.474,0,0,1,5.559,1.293,9.23,9.23,0,0,1,3.7,3.608,10.832,10.832,0,0,1,1.316,5.446,14.2,14.2,0,0,1-1.52,6.194A32.255,32.255,0,0,1-24.8-11.39a75.271,75.271,0,0,1-5.627,6.172q1.316-.182,2.836-.295t2.7-.113h7.261V0ZM-1.929.635A9.506,9.506,0,0,1-7.9-1.339a12.677,12.677,0,0,1-3.993-5.9,28.683,28.683,0,0,1-1.429-9.734,27.731,27.731,0,0,1,1.429-9.6A12.231,12.231,0,0,1-7.9-32.31a9.73,9.73,0,0,1,5.967-1.906,9.627,9.627,0,0,1,5.99,1.929,12.465,12.465,0,0,1,3.971,5.74,27.535,27.535,0,0,1,1.429,9.575A28.683,28.683,0,0,1,8.032-7.238a12.759,12.759,0,0,1-3.971,5.9A9.479,9.479,0,0,1-1.929.635Zm0-5.219A3.611,3.611,0,0,0,.7-5.718a8.018,8.018,0,0,0,1.77-3.835,33.94,33.94,0,0,0,.635-7.42A33.026,33.026,0,0,0,2.473-24.3,7.477,7.477,0,0,0,.7-28.022a3.725,3.725,0,0,0-2.632-1.066,3.7,3.7,0,0,0-2.564,1.066A7.6,7.6,0,0,0-6.33-24.3a30.9,30.9,0,0,0-.681,7.329,31.749,31.749,0,0,0,.681,7.42A8.151,8.151,0,0,0-4.493-5.718,3.589,3.589,0,0,0-1.929-4.583ZM24.845.635a9.506,9.506,0,0,1-5.967-1.974,12.677,12.677,0,0,1-3.993-5.9,28.683,28.683,0,0,1-1.429-9.734,27.731,27.731,0,0,1,1.429-9.6,12.231,12.231,0,0,1,3.993-5.74,9.73,9.73,0,0,1,5.967-1.906,9.627,9.627,0,0,1,5.99,1.929,12.465,12.465,0,0,1,3.971,5.74,27.534,27.534,0,0,1,1.429,9.575,28.683,28.683,0,0,1-1.429,9.734,12.759,12.759,0,0,1-3.971,5.9A9.479,9.479,0,0,1,24.845.635Zm0-5.219a3.611,3.611,0,0,0,2.632-1.134,8.018,8.018,0,0,0,1.77-3.835,33.94,33.94,0,0,0,.635-7.42,33.026,33.026,0,0,0-.635-7.329,7.477,7.477,0,0,0-1.77-3.721,3.725,3.725,0,0,0-2.632-1.066,3.7,3.7,0,0,0-2.564,1.066A7.6,7.6,0,0,0,20.443-24.3a30.9,30.9,0,0,0-.681,7.329,31.749,31.749,0,0,0,.681,7.42,8.151,8.151,0,0,0,1.838,3.835A3.589,3.589,0,0,0,24.845-4.583ZM41.863-35.668H77.44v5.4H47.308V4.039H41.863Zm32.991,0h5.491V-2.314A8.761,8.761,0,0,1,79.8,1.112,3.849,3.849,0,0,1,77.848,3.04a9.769,9.769,0,0,1-3.517.84q-2.11.159-5.151.159a13.912,13.912,0,0,0-.454-1.77q-.318-1-.726-1.974a16.452,16.452,0,0,0-.817-1.7q1.316.091,2.655.113t2.382.023h1.452a1.494,1.494,0,0,0,.908-.295,1.1,1.1,0,0,0,.272-.84ZM44.812-18.787H77.531v5.355H44.812ZM58.063-32.719h5.446V-16.11H58.063ZM-48.284,21.164q-.045.363-.136,1.112t-.159,1.5q-.068.749-.113,1.339-.091,1.316-.159,2.882t-.113,3.222q-.045,1.656-.068,3.335t-.023,3.267q0,1.861.045,4.107t.113,4.447q.068,2.2.091,4.016t.023,2.814a12.231,12.231,0,0,1-.613,4.356,3.989,3.989,0,0,1-1.747,2.156,5.454,5.454,0,0,1-2.632.613,10.506,10.506,0,0,1-3.494-.658,13.419,13.419,0,0,1-3.472-1.838,10.523,10.523,0,0,1-2.632-2.745A6.072,6.072,0,0,1-64.393,51.7a7.09,7.09,0,0,1,1.656-4.334,17.97,17.97,0,0,1,4.4-3.971,25.948,25.948,0,0,1,5.922-2.9,32.93,32.93,0,0,1,6.262-1.656,36.67,36.67,0,0,1,5.809-.522,16.444,16.444,0,0,1,6.308,1.157,10.489,10.489,0,0,1,4.493,3.381,8.63,8.63,0,0,1,1.679,5.355,11.718,11.718,0,0,1-1,4.856,9.633,9.633,0,0,1-3.2,3.835,16.681,16.681,0,0,1-5.831,2.519q-1.543.318-3.063.476t-2.882.25l-2.087-5.854q1.543,0,2.972-.068a25.1,25.1,0,0,0,2.609-.25,13.668,13.668,0,0,0,3.358-1.089,6.2,6.2,0,0,0,2.36-1.906,4.638,4.638,0,0,0,.862-2.814,4.183,4.183,0,0,0-.84-2.632,5.335,5.335,0,0,0-2.337-1.679,9.5,9.5,0,0,0-3.494-.59,29.229,29.229,0,0,0-5.786.59,33.766,33.766,0,0,0-5.6,1.634,19.821,19.821,0,0,0-3.585,1.792,10.872,10.872,0,0,0-2.5,2.11,3.324,3.324,0,0,0-.908,2.087,1.724,1.724,0,0,0,.34,1.021,3.363,3.363,0,0,0,.885.84,5.148,5.148,0,0,0,1.112.567,2.961,2.961,0,0,0,.976.2,1.459,1.459,0,0,0,1.044-.386,2.1,2.1,0,0,0,.408-1.52q0-1.225-.068-3.517t-.136-5.105q-.068-2.814-.068-5.582,0-1.906.023-3.857t.023-3.721q0-1.77.023-3.131t.023-2.133q0-.5-.045-1.271t-.113-1.566a8.145,8.145,0,0,0-.159-1.157Zm12.933,4.9q1.724.817,3.88,2t4.13,2.337a31.091,31.091,0,0,1,3.154,2.065l-2.723,4.629a23.889,23.889,0,0,0-2.246-1.634q-1.384-.908-3-1.861t-3.108-1.792q-1.5-.84-2.587-1.339Zm-27.818,2.5q2,.227,3.517.295t2.745.068q1.77,0,3.9-.159t4.356-.454q2.224-.295,4.334-.7t3.835-.908l.136,5.627q-1.906.454-4.13.794t-4.47.613q-2.246.272-4.266.408t-3.517.136q-2.269,0-3.721-.045t-2.632-.182ZM.908,30.467v2.269H12.8V30.467Zm0-5.854v2.224H12.8V24.613Zm-5.219-3.857h22.6V36.593h-22.6ZM-6.625,38.59H19.74v4.447H-6.625ZM-7.76,45.578H20.693v4.629H-7.76Zm16.7-3.086h5.491V56.7A8.021,8.021,0,0,1,14,59.623a2.984,2.984,0,0,1-1.747,1.611,8.434,8.434,0,0,1-3.018.7q-1.747.113-4.061.113a11.3,11.3,0,0,0-.635-2.45A20.414,20.414,0,0,0,3.494,57.2q1.407.045,2.791.068t1.838.023a1.112,1.112,0,0,0,.658-.2.718.718,0,0,0,.159-.522Zm-13.7,9.983,3.812-2.541q1.452,1.316,3.04,3a22.385,22.385,0,0,1,2.45,3L.5,58.784A15.517,15.517,0,0,0-.885,56.832q-.885-1.089-1.906-2.246T-4.765,52.476Zm-6.217-23.007,4.765,2a47.858,47.858,0,0,1-3.857,5.627,68.907,68.907,0,0,1-4.674,5.332,49.7,49.7,0,0,1-4.81,4.379q-.227-.635-.658-1.7t-.953-2.156a11.833,11.833,0,0,0-.976-1.724,41.65,41.65,0,0,0,4.084-3.335,49.364,49.364,0,0,0,3.9-4.039A30.48,30.48,0,0,0-10.982,29.468Zm-1.18-9.938,5.173,2.087a42.068,42.068,0,0,1-3.472,4.2,51.37,51.37,0,0,1-4.152,3.971,40.862,40.862,0,0,1-4.356,3.267q-.272-.635-.749-1.5t-1-1.724q-.522-.862-.93-1.407a32.081,32.081,0,0,0,3.585-2.587,37.353,37.353,0,0,0,3.381-3.154A21.42,21.42,0,0,0-12.162,19.53Zm-3.313,20.1,5.037-5.037.272.091V62.051h-5.309ZM43.065,46.35,41.84,30.83l-.227-6.762h7.533l-.227,6.762L47.694,46.35Zm2.314,12.071a3.879,3.879,0,0,1-3.993-3.993,3.932,3.932,0,0,1,1.134-2.9,4.169,4.169,0,0,1,5.718,0,3.933,3.933,0,0,1,1.134,2.9,3.879,3.879,0,0,1-3.993,3.993Z" transform="translate(335.692 10054.894)" fill="#fff"/>
  </g>
</svg>
