<svg xmlns="http://www.w3.org/2000/svg" width="468.348" height="569.27" viewBox="0 0 468.348 569.27">
  <g id="グループ_516" data-name="グループ 516" transform="translate(225.177 -5787.366)" opacity="0.5">
    <circle id="楕円形_148" data-name="楕円形 148" cx="15.363" cy="15.363" r="15.363" transform="translate(148.981 6213.29)" fill="#fff766"/>
    <circle id="楕円形_149" data-name="楕円形 149" cx="15.363" cy="15.363" r="15.363" transform="translate(-49.642 6233.312)" fill="#fff766"/>
    <circle id="楕円形_150" data-name="楕円形 150" cx="15.363" cy="15.363" r="15.363" transform="translate(72.372 6193.963)" fill="#fff766"/>
    <circle id="楕円形_151" data-name="楕円形 151" cx="15.363" cy="15.363" r="15.363" transform="translate(128.495 6133.919)" fill="#fff766"/>
    <circle id="楕円形_152" data-name="楕円形 152" cx="15.363" cy="15.363" r="15.363" transform="translate(97.331 6280.684)" fill="#fff766"/>
    <circle id="楕円形_153" data-name="楕円形 153" cx="15.363" cy="15.363" r="15.363" transform="translate(-2.44 6325.909)" fill="#fff766"/>
    <circle id="楕円形_154" data-name="楕円形 154" cx="15.363" cy="15.363" r="15.363" transform="translate(-87.27 6126.366)" fill="#fff766"/>
    <circle id="楕円形_155" data-name="楕円形 155" cx="15.363" cy="15.363" r="15.363" transform="translate(201.024 6154.381)" fill="#fff766"/>
    <circle id="楕円形_156" data-name="楕円形 156" cx="15.363" cy="15.363" r="15.363" transform="translate(-131.858 5787.366)" fill="#fff766"/>
    <circle id="楕円形_157" data-name="楕円形 157" cx="15.363" cy="15.363" r="15.363" transform="translate(53.068 6095.018)" fill="#fff766"/>
    <circle id="楕円形_158" data-name="楕円形 158" cx="15.363" cy="15.363" r="15.363" transform="translate(53.604 6001.532)" fill="#fff766"/>
    <circle id="楕円形_159" data-name="楕円形 159" cx="15.363" cy="15.363" r="15.363" transform="translate(212.444 6068.87)" fill="#fff766"/>
    <circle id="楕円形_160" data-name="楕円形 160" cx="15.363" cy="15.363" r="15.363" transform="translate(122.09 6039.713)" fill="#fff766"/>
    <circle id="楕円形_161" data-name="楕円形 161" cx="15.363" cy="15.363" r="15.363" transform="translate(-3.378 5965.951)" fill="#fff766"/>
    <circle id="楕円形_162" data-name="楕円形 162" cx="15.363" cy="15.363" r="15.363" transform="translate(-33.541 5816.244)" fill="#fff766"/>
    <circle id="楕円形_163" data-name="楕円形 163" cx="15.363" cy="15.363" r="15.363" transform="translate(-41.046 5892.719)" fill="#fff766"/>
    <circle id="楕円形_164" data-name="楕円形 164" cx="15.363" cy="15.363" r="15.363" transform="translate(-90.995 5967.147)" fill="#fff766"/>
    <circle id="楕円形_165" data-name="楕円形 165" cx="15.363" cy="15.363" r="15.363" transform="translate(46.58 5882.589)" fill="#fff766"/>
    <circle id="楕円形_166" data-name="楕円形 166" cx="15.363" cy="15.363" r="15.363" transform="translate(132.635 5948.699)" fill="#fff766"/>
    <circle id="楕円形_167" data-name="楕円形 167" cx="15.363" cy="15.363" r="15.363" transform="translate(-104.749 5873.656)" fill="#fff766"/>
    <circle id="楕円形_168" data-name="楕円形 168" cx="15.363" cy="15.363" r="15.363" transform="translate(-213.693 6031.585)" fill="#fff766"/>
    <circle id="楕円形_169" data-name="楕円形 169" cx="15.363" cy="15.363" r="15.363" transform="translate(-225.177 5858.259)" fill="#fff766"/>
    <circle id="楕円形_170" data-name="楕円形 170" cx="15.363" cy="15.363" r="15.363" transform="translate(-176.273 5940.63)" fill="#fff766"/>
    <circle id="楕円形_171" data-name="楕円形 171" cx="15.363" cy="15.363" r="15.363" transform="translate(-127.011 6052.197)" fill="#fff766"/>
    <circle id="楕円形_172" data-name="楕円形 172" cx="15.363" cy="15.363" r="15.363" transform="translate(-49.237 6037.944)" fill="#fff766"/>
    <circle id="楕円形_173" data-name="楕円形 173" cx="15.363" cy="15.363" r="15.363" transform="translate(-6.013 6136.416)" fill="#fff766"/>
    <circle id="楕円形_174" data-name="楕円形 174" cx="15.363" cy="15.363" r="15.363" transform="translate(22.469 6240.413)" fill="#fff766"/>
  </g>
</svg>
