<svg xmlns="http://www.w3.org/2000/svg" xmlns:xlink="http://www.w3.org/1999/xlink" width="859.279" height="859.279" viewBox="0 0 859.279 859.279">
  <defs>
    <clipPath id="clip-path">
      <circle id="楕円形_112" data-name="楕円形 112" cx="429.639" cy="429.639" r="429.639" transform="translate(-295.289 5338.455)" fill="#fffdd1"/>
    </clipPath>
  </defs>
  <g id="グループ_429" data-name="グループ 429" transform="translate(295.289 -5338.455)">
    <g id="グループ_428" data-name="グループ 428">
      <circle id="楕円形_110" data-name="楕円形 110" cx="429.639" cy="429.639" r="429.639" transform="translate(-295.289 5338.455)" fill="#fffdd1"/>
      <g id="グループ_427" data-name="グループ 427" clip-path="url(#clip-path)">
        <circle id="楕円形_111" data-name="楕円形 111" cx="429.639" cy="429.639" r="429.639" transform="translate(-295.289 5338.455)" fill="#fff766" opacity="0.3"/>
        <g id="グループ_426" data-name="グループ 426" opacity="0.4">
          <path id="パス_278" data-name="パス 278" d="M707.694,6459.139c-9-68.391-103.653-113.389-104.388-136.771-1.789-57.6-71.419-324.156-91.785-394.135-3.549-12.218-22.463-356.642-81.854-407.029-32.394-28.8-120.2-62.089-221.314-103.778l-3.6-85.2H60.508l-3.6,85.2c-101.111,41.689-188.92,74.981-221.315,103.778-59.384,50.387-78.3,394.811-81.853,407.029-20.36,69.979-89.984,336.54-91.785,394.135-.735,23.382-95.388,68.38-104.382,136.771-4.711,35.861,39.593-19.791,50.39-27,1.8,35.992,7.2,156.574,12.6,161.978,12.657,12.633,12.882,60.191,19.98-91.157-8.176,174.2,26.25,131.225,32.318-2.263.983,32.779.178,108.376,7.092,104.216,9-5.4,33.224-114.882,35.026-129.281-14.4,154.784,13.569,69.885,22.564,39.3,10.8-46.8,10.8-102.581,5.4-151.182-3.6-26.984,80.977-188.961,97.176-244.755,17.741-61.1,59.385-401.326,62.993-458.918,10.791,53.992,41.929,428.141,34.955,437.148-131.971,170.368-72.735,378.788-40.086,530.171q13.343,56.35,23.726,100.839H124c-1.493-42.023-3.021-103.2-3.472-208.195l12.906-1.92,11.293,1.92c-.45,105-1.978,166.172-3.478,208.195H343.559q10.32-44.494,23.725-100.839c32.65-151.383,110.687-331.018-26.089-533.785-14.233-21.095,10.156-379.542,20.964-433.534,3.591,57.592,45.235,397.815,62.981,458.918,16.194,55.794,100.786,217.771,97.183,244.755-5.4,48.6-5.4,104.383,5.392,151.182,9,30.587,36.969,115.486,22.57-39.3,1.808,14.4,26.03,123.877,35.026,129.281,10.535,6.328,11.927-72.574,11.05-107.618,5.3,128.215,20.094,159.335,28.36,5.665-4.392,105.615,7.329,103.79,19.986,91.157,5.392-5.4,10.8-125.986,12.591-161.978C668.1,6439.348,712.4,6495,707.694,6459.139Z" fill="#f9d3b1"/>
        </g>
      </g>
    </g>
  </g>
</svg>
