<svg xmlns="http://www.w3.org/2000/svg" width="219.205" height="219.058" viewBox="0 0 219.205 219.058">
  <g id="グループ_659" data-name="グループ 659" transform="translate(-449.932 -6974.522)">
    <path id="パス_462" data-name="パス 462" d="M662.071,7193.58H457a7.037,7.037,0,0,1-7.066-6.919V6981.442a7.038,7.038,0,0,1,7.066-6.92H662.071a7.039,7.039,0,0,1,7.066,6.92v205.219A7.038,7.038,0,0,1,662.071,7193.58Z" fill="#fff"/>
    <path id="パス_463" data-name="パス 463" d="M575.36,7152.8l-16.488,6.772a3.138,3.138,0,0,1-3.386-.736l-42.693-50.642a3.912,3.912,0,0,1-.883-2.356,35.584,35.584,0,0,0,0-3.974l13.4-3.681c2.945-1.178,6.625-.589,8.245,1.472l40.484,47.551,2.5-.294v4.269C576.685,7151.771,576.243,7152.36,575.36,7152.8Z" fill="#fff"/>
    <path id="パス_464" data-name="パス 464" d="M557.723,7160.145a3.277,3.277,0,0,1-2.52-1.072l-42.7-50.647a4.31,4.31,0,0,1-.964-2.586v-.06l.019-.057a32.634,32.634,0,0,0-.019-3.842l-.012-.292,13.659-3.753a9.017,9.017,0,0,1,3.3-.619,6.771,6.771,0,0,1,5.351,2.208l40.352,47.4,2.719-.319v4.641c.159.748-.342,1.47-1.382,1.989l-.025.011-16.5,6.777A3.625,3.625,0,0,1,557.723,7160.145Zm-44.646-52.183,42.69,50.638a2.538,2.538,0,0,0,1.956.809,2.936,2.936,0,0,0,1.014-.178l16.47-6.765c.708-.356,1.071-.8.974-1.194l-.011-.044v-3.9l-2.288.269-40.621-47.712a6.038,6.038,0,0,0-4.777-1.932,8.266,8.266,0,0,0-3.042.574l-.019.008-.02.005-13.114,3.6a29.775,29.775,0,0,1-.011,3.737A3.573,3.573,0,0,0,513.077,7107.961Z" fill="#3e3a39"/>
    <path id="パス_465" data-name="パス 465" d="M554.6,7161.34l-16.488,6.772a3.409,3.409,0,0,1-3.386-.589l-42.693-50.789a3.616,3.616,0,0,1-.883-2.356,35.609,35.609,0,0,0,0-3.975l13.4-3.68c2.944-1.178,6.625-.589,8.244,1.472l40.485,47.551,2.5-.147v4.122A1.5,1.5,0,0,1,554.6,7161.34Z" fill="#fff"/>
    <path id="パス_466" data-name="パス 466" d="M536.925,7168.688a3.518,3.518,0,0,1-2.457-.9l-.022-.023-42.7-50.8a3.983,3.983,0,0,1-.963-2.585v-.06l.019-.057a32.63,32.63,0,0,0-.018-3.844l-.012-.292.282-.078,13.377-3.674a9.015,9.015,0,0,1,3.3-.619,6.768,6.768,0,0,1,5.35,2.207l40.362,47.407,2.709-.159v4.471a1.858,1.858,0,0,1-1.418,2.005l-16.487,6.771A3.741,3.741,0,0,1,536.925,7168.688ZM535,7167.273a2.828,2.828,0,0,0,1.926.678,3.043,3.043,0,0,0,1.055-.183l16.506-6.778c.7-.234,1.033-.794.937-1.18l-.011-.044v-3.777l-2.3.135-.119-.139L512.5,7108.422a6.035,6.035,0,0,0-4.776-1.932,8.255,8.255,0,0,0-3.042.574l-.019.008-.02.005-13.115,3.6a29.763,29.763,0,0,1-.011,3.739,3.246,3.246,0,0,0,.8,2.081Z" fill="#3e3a39"/>
    <path id="パス_467" data-name="パス 467" d="M575.36,7148.532l-16.488,6.772a3.1,3.1,0,0,1-3.386-.589l-42.693-50.789c-1.619-1.914-.736-4.564,2.061-5.742l10.452-4.269c2.945-1.178,6.625-.442,8.245,1.472l42.692,50.79C576.979,7146.913,576.538,7148.091,575.36,7148.532Z" fill="#fff"/>
    <path id="パス_468" data-name="パス 468" d="M557.537,7155.914a2.991,2.991,0,0,1-2.334-.963l-42.692-50.788a3.516,3.516,0,0,1-.8-3.147,4.829,4.829,0,0,1,3-3.171l10.456-4.271a8.641,8.641,0,0,1,3.18-.595,7.285,7.285,0,0,1,5.485,2.17l42.683,50.779a1.541,1.541,0,0,1,.419,1.427,2.194,2.194,0,0,1-1.44,1.519L559,7155.649A4.21,4.21,0,0,1,557.537,7155.914Zm-29.191-62.2a7.89,7.89,0,0,0-2.9.541l-10.45,4.268a4.105,4.105,0,0,0-2.563,2.663,2.8,2.8,0,0,0,.644,2.5l42.694,50.79a2.268,2.268,0,0,0,1.77.7,3.463,3.463,0,0,0,1.2-.216l16.493-6.774a1.49,1.49,0,0,0,.984-.988.8.8,0,0,0-.232-.763l-.021-.023-42.692-50.79A6.542,6.542,0,0,0,528.347,7093.716Z" fill="#3e3a39"/>
    <path id="パス_469" data-name="パス 469" d="M542.089,7118.942l-4.269,1.767-2.65-3.239,4.269-1.767Z" fill="#3e3a39"/>
    <path id="パス_470" data-name="パス 470" d="M544.739,7122.181l-4.269,1.767-2.65-3.239,4.269-1.767Z" fill="#898989"/>
    <path id="パス_471" data-name="パス 471" d="M548.125,7126.155l-4.269,1.767-2.5-2.944,4.269-1.767Z" fill="#ebd784"/>
    <path id="パス_472" data-name="パス 472" d="M542.275,7130.723l-11.39-13.7,10.136-4.118.172.205,11.215,13.337-.46.194Zm-10.181-13.4,10.4,12.505,8.711-3.674-10.4-12.368Z" fill="#3e3a39"/>
    <path id="パス_473" data-name="パス 473" d="M543.746,7128.366l-9.178-11.045,4.982-2.062,9.178,11.045Zm-7.974-10.747,8.193,9.859,3.557-1.472-8.193-9.859Z" fill="#3e3a39"/>
    <path id="線_244" data-name="線 244" d="M3.651.661-.029.367.029-.367l3.68.294Z" transform="translate(531.49 7117.175)" fill="#3e3a39"/>
    <path id="線_245" data-name="線 245" d="M.312,2.551l-.624-.39L1.16-.2,1.784.2Z" transform="translate(542.383 7127.922)" fill="#3e3a39"/>
    <path id="線_246" data-name="線 246" d="M3.666.515-.015.368.015-.368,3.7-.221Z" transform="translate(548.125 7126.155)" fill="#3e3a39"/>
    <path id="線_247" data-name="線 247" d="M.312,2.551l-.624-.39L1.16-.2,1.784.2Z" transform="translate(539.439 7113.348)" fill="#3e3a39"/>
    <path id="パス_474" data-name="パス 474" d="M557.746,7138.641a2.516,2.516,0,0,1,2,.828,1.622,1.622,0,0,1,.306,1.524,1.734,1.734,0,0,1-1.206,1.114,3.537,3.537,0,0,1-1.362.27,2.987,2.987,0,0,1-2.114-.8l-.027-.03a1.44,1.44,0,0,1-.3-1.269,2.156,2.156,0,0,1,1.328-1.361A3.518,3.518,0,0,1,557.746,7138.641Zm-.26,3a2.792,2.792,0,0,0,1.093-.219l.022-.009.023-.006a1.018,1.018,0,0,0,.73-.637.9.9,0,0,0-.18-.84,1.822,1.822,0,0,0-1.427-.552,2.771,2.771,0,0,0-1.085.219,1.467,1.467,0,0,0-.9.863.7.7,0,0,0,.151.614A2.261,2.261,0,0,0,557.487,7141.641Z" fill="#3e3a39"/>
    <path id="パス_475" data-name="パス 475" d="M557.565,7133.077c3.747,0,7.094,1.342,8.951,3.59a5.8,5.8,0,0,1,1.287,5.2,7.876,7.876,0,0,1-4.966,5.093,14.62,14.62,0,0,1-5.311.982c-3.747,0-7.092-1.342-8.949-3.59a5.752,5.752,0,0,1-1.309-5.062c.516-2.163,2.33-4.068,4.978-5.227l.013,0A14.61,14.61,0,0,1,557.565,7133.077Zm-.039,14.127a13.878,13.878,0,0,0,5.038-.929,7.155,7.155,0,0,0,4.526-4.59,5.083,5.083,0,0,0-1.141-4.549,8.693,8.693,0,0,0-3.581-2.462,13.4,13.4,0,0,0-4.8-.861,13.881,13.881,0,0,0-5.03.926c-2.431,1.065-4.089,2.786-4.551,4.72a4.969,4.969,0,0,0,1.16,4.423,8.69,8.69,0,0,0,3.58,2.462A13.4,13.4,0,0,0,557.527,7147.2Z" fill="#3e3a39"/>
    <path id="パス_476" data-name="パス 476" d="M557.5,7134.048a11.964,11.964,0,0,1,4.406.828,8.742,8.742,0,0,1,3.432,2.377,4.891,4.891,0,0,1,1.1,4.436,6.751,6.751,0,0,1-4.333,4.386,11.652,11.652,0,0,1-4.552.9,10.634,10.634,0,0,1-7.786-3.057l-.013-.015a5.1,5.1,0,0,1-1.1-4.488,7.048,7.048,0,0,1,4.331-4.471A11.54,11.54,0,0,1,557.5,7134.048Zm.053,12.192a10.911,10.911,0,0,0,4.267-.843l.01,0a6.035,6.035,0,0,0,3.894-3.884,4.173,4.173,0,0,0-.949-3.78,9.683,9.683,0,0,0-7.276-2.944,10.8,10.8,0,0,0-4.223.837,6.331,6.331,0,0,0-3.907,3.973,4.328,4.328,0,0,0,.952,3.842A9.893,9.893,0,0,0,557.551,7146.24Z" fill="#3e3a39"/>
    <path id="パス_477" data-name="パス 477" d="M554.6,7157.071l-16.488,6.772a2.862,2.862,0,0,1-3.386-.589l-42.693-50.643c-1.619-2.061-.736-4.563,2.061-5.741l10.453-4.417c2.944-1.177,6.625-.441,8.244,1.473l42.693,50.789C556.222,7155.6,555.78,7156.629,554.6,7157.071Z" fill="#fff"/>
    <path id="パス_478" data-name="パス 478" d="M536.8,7164.518a3.065,3.065,0,0,1-2.352-1.028l-42.7-50.651a3.7,3.7,0,0,1-.776-3.25,4.777,4.777,0,0,1,2.984-3.058l10.459-4.419a8.629,8.629,0,0,1,3.176-.593,7.284,7.284,0,0,1,5.486,2.17l42.694,50.79a1.7,1.7,0,0,1,.394,1.54,2.177,2.177,0,0,1-1.425,1.4l-16.471,6.765A3.331,3.331,0,0,1,536.8,7164.518Zm-44.477-52.139,42.689,50.638a2.325,2.325,0,0,0,1.788.765,2.584,2.584,0,0,0,1.152-.268l.025-.011,16.5-6.776a1.469,1.469,0,0,0,.977-.9.969.969,0,0,0-.247-.879l-42.692-50.788a6.542,6.542,0,0,0-4.923-1.908,7.894,7.894,0,0,0-2.9.539l-10.45,4.416a4.122,4.122,0,0,0-2.557,2.564A2.94,2.94,0,0,0,492.321,7112.378Z" fill="#3e3a39"/>
    <path id="パス_479" data-name="パス 479" d="M521.517,7139.258l-.172-.205-11.215-13.337.46-.194,9.673-4.081,11.39,13.7Zm-10.182-13.252,10.4,12.368,8.708-3.537-10.4-12.505Z" fill="#3e3a39"/>
    <path id="線_248" data-name="線 248" d="M3.666.515-.015.368.015-.368,3.7-.221Z" transform="translate(510.732 7125.861)" fill="#3e3a39"/>
    <path id="線_249" data-name="線 249" d="M.312,2.551l-.624-.39L1.16-.2,1.784.2Z" transform="translate(521.626 7136.46)" fill="#3e3a39"/>
    <path id="線_250" data-name="線 250" d="M3.651.661-.029.367.029-.367l3.68.294Z" transform="translate(527.367 7134.694)" fill="#3e3a39"/>
    <path id="線_251" data-name="線 251" d="M.312,2.551l-.624-.39L1.16-.2,1.784.2Z" transform="translate(518.682 7121.886)" fill="#3e3a39"/>
    <path id="パス_480" data-name="パス 480" d="M536.806,7147.22a2.823,2.823,0,0,1,2.184.935,1.554,1.554,0,0,1,.338,1.364,1.958,1.958,0,0,1-1.216,1.265,3.017,3.017,0,0,1-1.2.237,3.3,3.3,0,0,1-2.3-.9l-.015-.014-.013-.016a1.441,1.441,0,0,1-.3-1.269,2.158,2.158,0,0,1,1.328-1.36A3.047,3.047,0,0,1,536.806,7147.22Zm.108,3.065a2.286,2.286,0,0,0,.907-.178,1.254,1.254,0,0,0,.792-.767.826.826,0,0,0-.2-.726,2.108,2.108,0,0,0-1.609-.658,2.308,2.308,0,0,0-.9.178,1.468,1.468,0,0,0-.9.863.7.7,0,0,0,.15.614A2.6,2.6,0,0,0,536.914,7150.286Z" fill="#3e3a39"/>
    <path id="パス_481" data-name="パス 481" d="M536.625,7141.653a14.24,14.24,0,0,1,5.174.951,9.733,9.733,0,0,1,3.957,2.746,5.537,5.537,0,0,1,1.309,5,7.839,7.839,0,0,1-4.982,5.143,14.04,14.04,0,0,1-10.383.1,9.628,9.628,0,0,1-3.88-2.712,5.749,5.749,0,0,1-1.309-5.061c.515-2.163,2.33-4.068,4.979-5.227l.013,0A14.1,14.1,0,0,1,536.625,7141.653Zm.148,14.155a12.968,12.968,0,0,0,5.025-.99l.005,0a7.125,7.125,0,0,0,4.546-4.635,4.82,4.82,0,0,0-1.153-4.353l-.005-.006c-1.749-2.118-5.032-3.433-8.566-3.433a13.373,13.373,0,0,0-4.847.889c-2.432,1.066-4.091,2.786-4.551,4.72a4.967,4.967,0,0,0,1.161,4.421C530.115,7154.51,533.328,7155.809,536.773,7155.809Z" fill="#3e3a39"/>
    <path id="パス_482" data-name="パス 482" d="M536.74,7142.652a10.282,10.282,0,0,1,7.838,3.14l.007.008a5.106,5.106,0,0,1,1.1,4.488,7.051,7.051,0,0,1-4.331,4.472l-.01,0a12.049,12.049,0,0,1-4.363.795,10.892,10.892,0,0,1-7.971-3.1l-.013-.016a5.108,5.108,0,0,1-1.1-4.489,7.053,7.053,0,0,1,4.331-4.472l.01,0A12.437,12.437,0,0,1,536.74,7142.652Zm7.273,3.612a9.553,9.553,0,0,0-7.273-2.876,11.7,11.7,0,0,0-4.227.773,6.333,6.333,0,0,0-3.9,3.972,4.331,4.331,0,0,0,.951,3.842,10.152,10.152,0,0,0,7.416,2.847,11.308,11.308,0,0,0,4.088-.742,6.333,6.333,0,0,0,3.9-3.972A4.33,4.33,0,0,0,544.013,7146.264Z" fill="#3e3a39"/>
    <path id="パス_483" data-name="パス 483" d="M526.926,7134.1l-4.269,1.767.442.589,4.269-1.767Z" fill="#a7436a"/>
    <path id="パス_484" data-name="パス 484" d="M522.988,7136.9l-9.178-11.045,4.982-2.062,9.178,11.045Zm-7.974-10.747,8.193,9.859,3.557-1.472-8.193-9.859Z" fill="#3e3a39"/>
    <path id="パス_485" data-name="パス 485" d="M569.766,7061.675h2.5v8.1c0,.884-.147,1.62-.147,2.209h2.8a10.444,10.444,0,0,1-.147-2.209v-7.949a14.3,14.3,0,0,1,.147-2.5,6.074,6.074,0,0,1-1.766.147h-1.62c-.883,0-1.177-.147-1.766-.147Z" fill="#454649"/>
    <path id="パス_486" data-name="パス 486" d="M584.635,7061.527c1.766,0,2.5,1.472,2.5,4.27a5.38,5.38,0,0,1-.883,3.533,2.682,2.682,0,0,1-1.619.589c-1.62,0-2.5-1.473-2.5-4.27C582.132,7063,583.162,7061.527,584.635,7061.527Zm0,10.6a4.766,4.766,0,0,0,4.269-2.356,8.159,8.159,0,0,0,.883-4.122,8.633,8.633,0,0,0-.589-3.386,3.809,3.809,0,0,0-1.03-1.619,4.777,4.777,0,0,0-3.533-1.325,4.572,4.572,0,0,0-4.122,2.208,8.8,8.8,0,0,0-.295,7.656,4.972,4.972,0,0,0,1.031,1.619A4.663,4.663,0,0,0,584.635,7072.127Z" fill="#454649"/>
    <path id="パス_487" data-name="パス 487" d="M569.913,7084.051a3.653,3.653,0,0,1-.147-1.324v-2.356a3.514,3.514,0,0,1,.441-1.03,1.576,1.576,0,0,1,1.325-.884c.884,0,1.178.589,1.178,1.472v4.122h1.472a3.653,3.653,0,0,1-.147-1.324v-2.356c.147-.589.147-.883.442-1.178a1.629,1.629,0,0,1,1.472-.736,1.333,1.333,0,0,1,1.03.442c.148.147.148.442.148,1.03v4.122H578.6a4.1,4.1,0,0,1-.147-1.472v-2.944a2.644,2.644,0,0,0-.442-1.619,2.5,2.5,0,0,0-1.914-.589,2.969,2.969,0,0,0-1.619.441,2.591,2.591,0,0,0-.736.589c-.148-.294-.148-.441-.3-.589a2.679,2.679,0,0,0-1.619-.588,2.349,2.349,0,0,0-2.061,1.177v-.883h-1.325v6.477Z" fill="#454649"/>
    <path id="パス_488" data-name="パス 488" d="M580.218,7077.574v6.477h1.472a4.1,4.1,0,0,1-.147-1.472v-3.68a3.27,3.27,0,0,1,.147-1.325Zm0-2.8v1.325h1.472v-1.325Z" fill="#454649"/>
    <path id="パス_489" data-name="パス 489" d="M584.782,7084.051a4.075,4.075,0,0,1-.147-1.324v-2.356a2.321,2.321,0,0,1,.736-1.178,2.045,2.045,0,0,1,1.472-.736c.883,0,1.178.442,1.178,1.472v4.122h1.472a3.267,3.267,0,0,1-.147-1.324v-2.945a3.167,3.167,0,0,0-.295-1.472,2.577,2.577,0,0,0-2.061-1.03,2.653,2.653,0,0,0-2.355,1.324v-1.03H583.31v6.477Z" fill="#454649"/>
    <path id="線_252" data-name="線 252" d="M4.122.368H0V-.368H4.122Z" transform="translate(602.595 7071.096)" fill="#454649"/>
    <path id="線_253" data-name="線 253" d="M3.5,2.382-.18.321.18-.321,3.86,1.74Z" transform="translate(599.356 7082.874)" fill="#454649"/>
    <path id="線_254" data-name="線 254" d="M1.743,3.719-.318.185.318-.185,2.379,3.348Z" transform="translate(590.818 7091.412)" fill="#454649"/>
    <path id="線_255" data-name="線 255" d="M.368,4.122H-.368V0H.368Z" transform="translate(579.04 7094.651)" fill="#454649"/>
    <path id="線_256" data-name="線 256" d="M.318,3.719l-.636-.371L1.743-.185l.636.371Z" transform="translate(565.202 7091.412)" fill="#454649"/>
    <path id="線_257" data-name="線 257" d="M.18,2.382-.18,1.74,3.5-.321l.36.642Z" transform="translate(555.044 7082.874)" fill="#454649"/>
    <path id="線_258" data-name="線 258" d="M4.122.368H0V-.368H4.122Z" transform="translate(551.364 7071.096)" fill="#454649"/>
    <path id="線_259" data-name="線 259" d="M3.5,2.382-.18.321.18-.321,3.86,1.74Z" transform="translate(555.044 7057.258)" fill="#454649"/>
    <path id="線_260" data-name="線 260" d="M1.743,3.719-.318.185.318-.185,2.379,3.348Z" transform="translate(565.202 7047.1)" fill="#454649"/>
    <path id="パス_490" data-name="パス 490" d="M581.69,7041.506a29.5,29.5,0,0,1,17.666,7.8l-2.944,3.092a24.461,24.461,0,0,0-15.163-6.772Z" fill="#0eae71"/>
    <path id="パス_491" data-name="パス 491" d="M593.909,7052.841l7.95,2.5-1.767-8.1Z" fill="#0eae71"/>
    <path id="パス_492" data-name="パス 492" d="M603.773,7056.964A29,29,0,0,1,607.6,7071.1a28.56,28.56,0,1,1-28.56-28.56v1.767a26.64,26.64,0,0,0-26.793,26.793,26.471,26.471,0,0,0,7.8,18.844,26.754,26.754,0,0,0,42.251-32.093Z" fill="#454649"/>
    <g id="グループ_658" data-name="グループ 658">
      <path id="パス_493" data-name="パス 493" d="M485.411,6984.975H463.917a3.487,3.487,0,0,0-3.533,3.533V7010a3.583,3.583,0,0,0,3.533,3.533h21.494a3.583,3.583,0,0,0,3.533-3.533v-21.494A3.487,3.487,0,0,0,485.411,6984.975Z" fill="#68be8d"/>
      <path id="パス_721" data-name="パス 721" d="M.871,0V-1.069Q3.01-3.188,4.495-4.8A18.264,18.264,0,0,0,6.752-7.712a4.816,4.816,0,0,0,.772-2.445,3.4,3.4,0,0,0-.287-1.435,2.128,2.128,0,0,0-.881-.97,2.952,2.952,0,0,0-1.5-.346,2.977,2.977,0,0,0-1.653.495,6.288,6.288,0,0,0-1.356,1.188L.792-12.236A7.372,7.372,0,0,1,2.673-13.8a4.768,4.768,0,0,1,2.4-.574,4.615,4.615,0,0,1,2.247.515,3.675,3.675,0,0,1,1.465,1.445,4.361,4.361,0,0,1,.525,2.178,5.554,5.554,0,0,1-.752,2.693A16.563,16.563,0,0,1,6.494-4.683Q5.188-3.188,3.524-1.426q.554-.04,1.188-.089T5.9-1.564H10V0Z" transform="translate(469.169 7006.779)" fill="#fff"/>
    </g>
    <path id="パス_720" data-name="パス 720" d="M5.594,9.884h4.549v.693H5.594Zm-1.638-4.3h7.988v.819H3.956Zm3.4-1.159h.932v1.6H7.358Zm.1,4.284h.756v3.251H7.459ZM4.145,7.982H11.1v.794H5.027v7.207H4.145Zm6.615,0h.895v6.993a1.368,1.368,0,0,1-.095.567.66.66,0,0,1-.347.315,2.542,2.542,0,0,1-.668.113Q10.13,16,9.5,16q-.038-.164-.113-.4a2.352,2.352,0,0,0-.164-.4q.441.013.819.013t.5-.013a.189.189,0,0,0,.214-.214Zm-4.234,3.7H9.752V14.37H6.527V13.7H9V12.367H6.527Zm-.491,0h.743V14.8H6.035Zm-.68-5.191.832-.239a5.8,5.8,0,0,1,.435.838,5.871,5.871,0,0,1,.283.8l-.882.29a5.417,5.417,0,0,0-.265-.832A6.818,6.818,0,0,0,5.355,6.495Zm4.07-.214.97.214q-.214.441-.428.876a5.45,5.45,0,0,1-.428.737l-.819-.2q.113-.227.252-.517T9.23,6.8Q9.349,6.508,9.425,6.281ZM1.071,5.21l.542-.68q.391.176.813.4t.788.473a4.648,4.648,0,0,1,.592.46l-.554.769a4.593,4.593,0,0,0-.592-.485q-.365-.258-.775-.51A6.6,6.6,0,0,0,1.071,5.21ZM.479,8.624,1,7.931a6.682,6.682,0,0,1,.819.359q.428.221.8.447a4.209,4.209,0,0,1,.611.441l-.554.769a5.61,5.61,0,0,0-.6-.46q-.365-.246-.781-.472A8.78,8.78,0,0,0,.479,8.624ZM.806,15.3q.3-.5.661-1.191t.724-1.449q.365-.762.68-1.481l.743.529q-.277.668-.617,1.4t-.687,1.436q-.346.706-.674,1.3ZM13.8,5.348H25.024v.945H13.8Zm4.864.743h1V16h-1ZM19.2,9.078l.63-.718q.567.265,1.2.6t1.247.7q.617.359,1.153.7t.913.63l-.668.857q-.365-.29-.888-.649t-1.134-.731q-.611-.372-1.241-.731T19.2,9.078Zm14.074.466.869.265a8.043,8.043,0,0,1-1.008,1.411,12.474,12.474,0,0,1-1.26,1.235,11.226,11.226,0,0,1-1.361,1,2,2,0,0,0-.176-.233q-.113-.132-.239-.271a1.694,1.694,0,0,0-.227-.214,9.948,9.948,0,0,0,1.934-1.373A6.959,6.959,0,0,0,33.277,9.544Zm.076-5.128.844.428q-.479.567-1.027,1.165T32.155,7.037l-.68-.391q.315-.3.661-.693t.674-.794A7.733,7.733,0,0,0,33.352,4.416Zm2.444.958.857.466q-.63.68-1.392,1.418T33.724,8.681q-.775.687-1.468,1.191l-.643-.416q.517-.391,1.084-.895t1.128-1.052q.561-.548,1.071-1.1T35.8,5.374ZM30.442,6.457l.58-.617q.466.315.989.693t.977.762a5.482,5.482,0,0,1,.718.712l-.592.68a9.581,9.581,0,0,0-.718-.718q-.441-.4-.951-.8T30.442,6.457Zm5.191,1.487.743-.391q.4.4.806.895t.75.97a5.91,5.91,0,0,1,.535.869l-.794.466a5.778,5.778,0,0,0-.51-.876q-.334-.485-.731-1T35.633,7.944ZM30.013,9.2q.907-.013,2.11-.038l2.57-.057q1.367-.031,2.728-.069l-.038.781q-1.31.038-2.633.088T32.231,10q-1.2.038-2.129.063Zm2.444,2.306a6.717,6.717,0,0,0,1.455,1.657,8.91,8.91,0,0,0,2.066,1.273,11.126,11.126,0,0,0,2.5.775,2.718,2.718,0,0,0-.214.246q-.113.145-.208.29a2.764,2.764,0,0,0-.158.271,11.434,11.434,0,0,1-2.545-.907,9.39,9.39,0,0,1-2.117-1.436,7.981,7.981,0,0,1-1.55-1.9Zm.29-.554H36.5v.756h-4.41Zm3.452,0h.189l.164-.038.6.29A6.466,6.466,0,0,1,36,13.016a8.329,8.329,0,0,1-1.632,1.38,10.757,10.757,0,0,1-1.947,1,15.427,15.427,0,0,1-2.117.655,2.828,2.828,0,0,0-.2-.422,2.7,2.7,0,0,0-.265-.4,13.8,13.8,0,0,0,1.985-.554,10.634,10.634,0,0,0,1.833-.863,7.349,7.349,0,0,0,1.518-1.191A5.1,5.1,0,0,0,36.2,11.107ZM29.585,6.986l.844.3a13.3,13.3,0,0,1-.989,1.493,16.545,16.545,0,0,1-1.184,1.392,13.578,13.578,0,0,1-1.241,1.159q-.05-.1-.145-.258t-.2-.321a1.6,1.6,0,0,0-.2-.252,12.347,12.347,0,0,0,1.153-1A11.9,11.9,0,0,0,28.7,8.29,11.494,11.494,0,0,0,29.585,6.986Zm-.3-2.57.857.34a11.92,11.92,0,0,1-.863,1.071A13.65,13.65,0,0,1,28.23,6.873a13.214,13.214,0,0,1-1.09.882A1.527,1.527,0,0,0,27,7.528l-.2-.258a2.1,2.1,0,0,0-.176-.208,11.192,11.192,0,0,0,1-.787,12.436,12.436,0,0,0,.951-.926A5.449,5.449,0,0,0,29.282,4.416ZM28.438,9.33l.769-.781.126.063v7.434h-.895Zm14.314,6.376q-.4-.5-.882-1.008t-.964-.97q-.485-.466-.939-.832l.819-.718q.454.365.958.844t.989.983q.485.5.876.97ZM1.109,32.1v-.958H3.175V24.25H1.525v-.731A7.009,7.009,0,0,0,2.6,23.242a5.312,5.312,0,0,0,.838-.378h.882v8.278H6.174V32.1ZM11,32.264a2.33,2.33,0,0,1-1.518-.529,3.356,3.356,0,0,1-1-1.6,8.7,8.7,0,0,1-.353-2.684,8.512,8.512,0,0,1,.353-2.665,3.269,3.269,0,0,1,1-1.569A2.366,2.366,0,0,1,11,22.7a2.341,2.341,0,0,1,1.525.523,3.335,3.335,0,0,1,1,1.569,8.451,8.451,0,0,1,.353,2.659,8.7,8.7,0,0,1-.353,2.684,3.382,3.382,0,0,1-1,1.6A2.323,2.323,0,0,1,11,32.264Zm0-.932a1.26,1.26,0,0,0,.926-.4,2.763,2.763,0,0,0,.617-1.266,9.164,9.164,0,0,0,.22-2.211,9,9,0,0,0-.22-2.2A2.7,2.7,0,0,0,11.926,24a1.272,1.272,0,0,0-1.846,0,2.666,2.666,0,0,0-.624,1.247,9,9,0,0,0-.221,2.2,9.164,9.164,0,0,0,.221,2.211,2.723,2.723,0,0,0,.624,1.266A1.267,1.267,0,0,0,11,31.331Zm6.35-5.053h7.22v.92H17.35Zm6.892,0h.983v.284a.907.907,0,0,1-.013.17q-.076,1.474-.145,2.5T24.9,30.941a7.942,7.942,0,0,1-.208,1.071,1.319,1.319,0,0,1-.29.567,1.054,1.054,0,0,1-.416.334,1.808,1.808,0,0,1-.554.12q-.315.025-.863.019t-1.14-.044a2.044,2.044,0,0,0-.094-.479,1.709,1.709,0,0,0-.221-.466q.617.05,1.147.069t.756.019a1.114,1.114,0,0,0,.315-.038.5.5,0,0,0,.214-.126,1.51,1.51,0,0,0,.309-.762,15.866,15.866,0,0,0,.214-1.739q.095-1.153.17-3.018Zm-5.166-4.511,1.008.29a14.714,14.714,0,0,1-1.09,2.029,13.226,13.226,0,0,1-1.361,1.777A11.63,11.63,0,0,1,16.1,27.274a3.183,3.183,0,0,0-.239-.239q-.151-.139-.309-.277t-.271-.227a8.949,8.949,0,0,0,1.525-1.273,10.964,10.964,0,0,0,1.3-1.632A10.723,10.723,0,0,0,19.076,21.768Zm4.4-.025a10.636,10.636,0,0,0,.743,1.292,13.992,13.992,0,0,0,.958,1.273,14.525,14.525,0,0,0,1.065,1.134,9.534,9.534,0,0,0,1.065.888q-.126.1-.283.246a3.831,3.831,0,0,0-.29.3,2.411,2.411,0,0,0-.22.29,11.057,11.057,0,0,1-1.071-1q-.542-.573-1.065-1.241t-.983-1.386q-.46-.718-.825-1.424Zm-3.465,4.8h1.021a15.763,15.763,0,0,1-.328,2.016,7.441,7.441,0,0,1-.693,1.852,5.481,5.481,0,0,1-1.292,1.575,6.881,6.881,0,0,1-2.148,1.184,3.145,3.145,0,0,0-.164-.284,3.088,3.088,0,0,0-.221-.3,2.221,2.221,0,0,0-.233-.246,6.139,6.139,0,0,0,2-1.027,4.685,4.685,0,0,0,1.178-1.392,6.211,6.211,0,0,0,.6-1.625A14.918,14.918,0,0,0,20.009,26.543Zm13.268-4.511a2,2,0,0,0-.038.258q-.013.145-.025.309t-.025.3q-.013.29-.031.756t-.032,1.027q-.013.561-.025,1.134t-.013,1.065q0,.491.006,1.077t.025,1.159q.019.573.025,1.058t.006.775a2.493,2.493,0,0,1-.139.92.954.954,0,0,1-.384.485,1.133,1.133,0,0,1-.586.145,2.361,2.361,0,0,1-.819-.17,3.8,3.8,0,0,1-.863-.46,2.754,2.754,0,0,1-.674-.668,1.363,1.363,0,0,1-.265-.794,1.76,1.76,0,0,1,.435-1.109,4.972,4.972,0,0,1,1.134-1.008,7.134,7.134,0,0,1,1.48-.756,9.591,9.591,0,0,1,1.751-.51,8.826,8.826,0,0,1,1.638-.17,4,4,0,0,1,1.632.315,2.71,2.71,0,0,1,1.121.876,2.172,2.172,0,0,1,.41,1.317,2.8,2.8,0,0,1-.309,1.336,2.63,2.63,0,0,1-.907.97,4.75,4.75,0,0,1-1.468.6,6.3,6.3,0,0,1-.825.12l-.737.057-.353-1.021q.353.013.737,0a4.164,4.164,0,0,0,.737-.088A3.786,3.786,0,0,0,36.937,31a2.161,2.161,0,0,0,.781-.649,1.594,1.594,0,0,0,.3-.97,1.414,1.414,0,0,0-.29-.907,1.792,1.792,0,0,0-.781-.554,3.032,3.032,0,0,0-1.1-.189,7.47,7.47,0,0,0-1.625.176,10.448,10.448,0,0,0-1.613.5,5.488,5.488,0,0,0-1.109.561,3.523,3.523,0,0,0-.8.7,1.125,1.125,0,0,0-.3.693.677.677,0,0,0,.145.41,1.569,1.569,0,0,0,.359.347,1.787,1.787,0,0,0,.454.233,1.315,1.315,0,0,0,.416.082.4.4,0,0,0,.334-.151.746.746,0,0,0,.12-.466q0-.365-.013-1.014t-.025-1.411q-.013-.762-.013-1.455,0-.542.006-1.159t.013-1.2q.006-.58.013-1.021t.006-.63q0-.126-.006-.3t-.019-.334a1.652,1.652,0,0,0-.038-.265Zm3.906,1.4q.454.239,1.008.573t1.065.674a9.773,9.773,0,0,1,.813.592l-.517.806a5.014,5.014,0,0,0-.58-.485q-.353-.258-.756-.517t-.794-.491q-.391-.233-.693-.4Zm-7.56.869q.517.063.888.082t.724.019q.466,0,1.046-.05t1.2-.132q.617-.082,1.2-.2t1.052-.258l.025.983q-.491.113-1.1.22t-1.229.183q-.624.076-1.191.126t-.983.05q-.542,0-.913-.013t-.7-.05Zm16.443-1.147h6.6v.857h-6.6Zm-.592,4.738h7.762v.869H45.473Zm-.151-2.281h8v.869h-8Zm3.515-4.032h.945v4.5h-.945Zm1.777,4.712h.932v5.67a1.492,1.492,0,0,1-.107.643.706.706,0,0,1-.41.328,2.592,2.592,0,0,1-.794.132q-.491.019-1.235.019a2.174,2.174,0,0,0-.12-.447,4.457,4.457,0,0,0-.2-.46q.391.013.724.019t.586,0q.252-.006.353-.006a.319.319,0,0,0,.208-.05.228.228,0,0,0,.057-.176ZM46.431,29.53l.781-.4a7.286,7.286,0,0,1,.592.706q.29.391.542.775a5.346,5.346,0,0,1,.391.687l-.806.479a4.483,4.483,0,0,0-.372-.706q-.246-.391-.535-.794A9.2,9.2,0,0,0,46.431,29.53Zm-1.8-5.2.832.328a12.105,12.105,0,0,1-.977,1.493,16.5,16.5,0,0,1-1.178,1.386,13.474,13.474,0,0,1-1.235,1.153,2.333,2.333,0,0,0-.126-.29q-.088-.176-.2-.353t-.183-.29a11.046,11.046,0,0,0,1.14-.97A12.372,12.372,0,0,0,43.779,25.6,8.555,8.555,0,0,0,44.629,24.326Zm-.214-2.785.882.353A9.107,9.107,0,0,1,44.428,23a13.163,13.163,0,0,1-1.065,1.046,11.686,11.686,0,0,1-1.115.869,2.321,2.321,0,0,0-.139-.258q-.088-.145-.183-.29a2.273,2.273,0,0,0-.17-.233,10.736,10.736,0,0,0,1-.762,11.5,11.5,0,0,0,.951-.907A5.262,5.262,0,0,0,44.415,21.541Zm-.882,5,.869-.882.038.025V33.1h-.907Zm16.1-4.309a4.877,4.877,0,0,0-.126.529q-.05.277-.1.529-.063.3-.145.75t-.2.97q-.12.523-.246,1.052t-.258,1a8.678,8.678,0,0,1-.271.825,5.692,5.692,0,0,1,1.695-.825,6.763,6.763,0,0,1,1.859-.246,4.191,4.191,0,0,1,1.714.315,2.491,2.491,0,0,1,1.084.876,2.277,2.277,0,0,1,.378,1.3,2.817,2.817,0,0,1-.479,1.663,3.209,3.209,0,0,1-1.348,1.071,6.421,6.421,0,0,1-2.06.5,13.721,13.721,0,0,1-2.64-.044l-.252-1a12.684,12.684,0,0,0,2.123.12,7.114,7.114,0,0,0,1.84-.277,3,3,0,0,0,1.3-.737,1.734,1.734,0,0,0,.485-1.273,1.5,1.5,0,0,0-.573-1.191,2.543,2.543,0,0,0-1.682-.485,5.726,5.726,0,0,0-2.1.384,3.908,3.908,0,0,0-1.613,1.14q-.113.139-.208.271a2.305,2.305,0,0,0-.183.309l-.945-.34a11.859,11.859,0,0,0,.668-1.581q.3-.876.529-1.77t.378-1.644q.151-.75.214-1.216.038-.3.05-.542t0-.5Zm-3.919,1.6q.5.088,1.165.151t1.229.063q.6,0,1.348-.038t1.55-.113q.806-.076,1.619-.2t1.556-.284l.013.97q-.668.113-1.455.214t-1.606.176q-.819.076-1.594.12t-1.417.044q-.643,0-1.241-.038t-1.153-.088ZM76.28,22.8q-.2.151-.454.372t-.416.347q-.328.29-.794.674T73.634,25q-.517.422-1,.806t-.832.687a2.6,2.6,0,0,0-.5.535.377.377,0,0,0,.006.422,2.9,2.9,0,0,0,.535.567q.353.277.806.649t.964.8q.51.428,1.04.882t1.021.895q.491.441.882.844l-.895.832q-.391-.454-.869-.92-.328-.34-.819-.794t-1.052-.945q-.561-.491-1.109-.951t-.989-.825a2.667,2.667,0,0,1-.769-.888.8.8,0,0,1,.063-.762,3.548,3.548,0,0,1,.794-.844q.353-.3.851-.706t1.039-.851q.542-.447,1.027-.869t.8-.75q.189-.189.4-.428a3.772,3.772,0,0,0,.321-.416Zm9.437-.428q-.063.2-.126.5t-.1.491q-.088.454-.208,1.052t-.265,1.254q-.145.655-.321,1.285-.164.668-.4,1.455T83.79,30q-.265.794-.542,1.5t-.517,1.235l-1.109-.378a10.842,10.842,0,0,0,.586-1.172q.3-.68.58-1.462t.529-1.556q.246-.775.422-1.443.113-.441.227-.932t.22-.964q.107-.473.176-.869t.107-.649q.038-.265.05-.554a2.811,2.811,0,0,0-.013-.479Zm-2.8,2.092q.706,0,1.518-.069t1.657-.208q.844-.139,1.625-.328v.983q-.781.176-1.638.3t-1.682.2q-.825.069-1.493.069-.416,0-.769-.019t-.693-.031l-.038-.983q.454.05.813.069T82.921,24.464ZM86.9,26.2q.5-.05,1.1-.082t1.2-.031q.554,0,1.115.025t1.065.088l-.025.958q-.479-.063-1.021-.107t-1.1-.044q-.6,0-1.184.032t-1.159.107Zm.265,3.062q-.076.315-.126.6a3.065,3.065,0,0,0-.05.535,1.175,1.175,0,0,0,.082.435.85.85,0,0,0,.309.372,1.853,1.853,0,0,0,.649.265,4.83,4.83,0,0,0,1.09.1q.6,0,1.241-.063a10.674,10.674,0,0,0,1.216-.189l-.038,1.021q-.5.076-1.121.132t-1.31.057a4.554,4.554,0,0,1-2.281-.466,1.52,1.52,0,0,1-.794-1.4,5.206,5.206,0,0,1,.05-.725q.05-.359.139-.762Zm2.86-6.514a5.758,5.758,0,0,1,.353.529q.189.315.372.63t.309.58l-.68.3a5.446,5.446,0,0,0-.3-.58l-.365-.63a4.848,4.848,0,0,0-.359-.542Zm1.386-.517q.176.239.378.554t.384.63q.183.315.309.554l-.68.3q-.2-.428-.491-.913a9.678,9.678,0,0,0-.554-.838Zm8.807.932-.145-.466q-.082-.265-.17-.517l1.071-.139q.063.365.176.825t.265.932q.151.473.3.876a11.385,11.385,0,0,0,.731,1.632,13.969,13.969,0,0,0,.832,1.367q.139.176.277.34l.277.328-.517.706q-.227-.05-.6-.1t-.806-.094q-.435-.044-.863-.082t-.769-.063l.076-.844q.353.025.75.063l.756.069q.359.031.586.057-.265-.4-.567-.926T101.3,26.02q-.284-.586-.5-1.153t-.34-.983Q100.321,23.456,100.22,23.167Zm-4.612.983q1.058.126,2.048.176t1.877.025q.888-.025,1.606-.1.5-.063,1.065-.151t1.115-.227q.554-.139,1.046-.29l.113.983a8.628,8.628,0,0,1-.97.239q-.529.1-1.058.189t-1,.139a25.313,25.313,0,0,1-2.677.151q-1.48.013-3.144-.126Zm1.94,4.019a5.13,5.13,0,0,0-.435.876,2.485,2.485,0,0,0-.158.876,1.385,1.385,0,0,0,.781,1.31,4.793,4.793,0,0,0,2.18.428,14.814,14.814,0,0,0,1.783-.076,12.617,12.617,0,0,0,1.468-.239l-.05,1.008q-.58.1-1.386.189a17.361,17.361,0,0,1-1.865.088,6.851,6.851,0,0,1-2.073-.3,2.9,2.9,0,0,1-1.354-.863,2.155,2.155,0,0,1-.479-1.43,3.229,3.229,0,0,1,.17-1.027,9.335,9.335,0,0,1,.435-1.065Zm11.983-4.864q-.025.151-.044.378l-.038.454q-.019.227-.019.391-.013.391-.006.888t.025,1.033q.019.536.069,1.065a9.466,9.466,0,0,0,.34,1.833,3.763,3.763,0,0,0,.586,1.228.994.994,0,0,0,.788.441.671.671,0,0,0,.466-.221,2.576,2.576,0,0,0,.435-.592,5.885,5.885,0,0,0,.378-.832,8.374,8.374,0,0,0,.283-.926l.794.895a9.04,9.04,0,0,1-.762,1.695,3,3,0,0,1-.781.9,1.422,1.422,0,0,1-.825.277,1.839,1.839,0,0,1-1.147-.435,3.4,3.4,0,0,1-.958-1.411,9.731,9.731,0,0,1-.58-2.6q-.063-.554-.094-1.2t-.038-1.222q-.006-.58-.006-.945,0-.214-.013-.554a2.506,2.506,0,0,0-.076-.567Zm6.565.353a6.77,6.77,0,0,1,.649,1,11.712,11.712,0,0,1,.567,1.222q.258.649.466,1.342a14.05,14.05,0,0,1,.34,1.38q.132.687.2,1.317l-1.008.416a14.515,14.515,0,0,0-.265-1.745,16.275,16.275,0,0,0-.466-1.726,12.432,12.432,0,0,0-.643-1.581A6.368,6.368,0,0,0,115.114,24Zm6.174,5.368a1.842,1.842,0,0,1,.97.258,2.026,2.026,0,0,1,.693.693,1.888,1.888,0,0,1,0,1.928,2.082,2.082,0,0,1-.693.7,1.9,1.9,0,0,1-1.934,0,2.009,2.009,0,0,1-.693-.7,1.928,1.928,0,0,1,0-1.928,1.941,1.941,0,0,1,.7-.693A1.862,1.862,0,0,1,122.27,29.026Zm0,3.2a1.269,1.269,0,0,0,1.285-1.285,1.223,1.223,0,0,0-.17-.63,1.321,1.321,0,0,0-.46-.466,1.235,1.235,0,0,0-.655-.176,1.189,1.189,0,0,0-.63.176,1.375,1.375,0,0,0-.466.466,1.189,1.189,0,0,0-.176.63,1.245,1.245,0,0,0,.176.649,1.3,1.3,0,0,0,.466.466A1.223,1.223,0,0,0,122.27,32.226Z" transform="translate(495.863 6981.063)" fill="#333"/>
  </g>
</svg>
