<svg xmlns="http://www.w3.org/2000/svg" width="349.632" height="307.305" viewBox="0 0 349.632 307.305">
  <g id="グループ_766" data-name="グループ 766" transform="translate(-3303.864 -2791.559)">
    <g id="グループ_763" data-name="グループ 763" transform="translate(1204.432 -2170.847)">
      <rect id="長方形_148" data-name="長方形 148" width="349.632" height="307.305" rx="10" transform="translate(2099.432 4962.406)" fill="#fff"/>
      <path id="長方形_149" data-name="長方形 149" d="M10-1h5a1,1,0,0,1,1,1,1,1,0,0,1-1,1H9.976a1,1,0,0,1-1-1,1,1,0,0,1,1-1Zm9.994,0h5a1,1,0,0,1,1,1,1,1,0,0,1-1,1h-5a1,1,0,0,1-1-1A1,1,0,0,1,19.994-1Zm9.994,0h5a1,1,0,0,1,1,1,1,1,0,0,1-1,1h-5a1,1,0,0,1-1-1A1,1,0,0,1,29.987-1Zm9.994,0h5a1,1,0,0,1,1,1,1,1,0,0,1-1,1h-5a1,1,0,0,1-1-1A1,1,0,0,1,39.981-1Zm9.994,0h5a1,1,0,0,1,1,1,1,1,0,0,1-1,1h-5a1,1,0,0,1-1-1A1,1,0,0,1,49.975-1Zm9.994,0h5a1,1,0,0,1,1,1,1,1,0,0,1-1,1h-5a1,1,0,0,1-1-1A1,1,0,0,1,59.969-1Zm9.994,0h5a1,1,0,0,1,1,1,1,1,0,0,1-1,1h-5a1,1,0,0,1-1-1A1,1,0,0,1,69.962-1Zm9.994,0h5a1,1,0,0,1,1,1,1,1,0,0,1-1,1h-5a1,1,0,0,1-1-1A1,1,0,0,1,79.956-1ZM89.95-1h5a1,1,0,0,1,1,1,1,1,0,0,1-1,1h-5a1,1,0,0,1-1-1A1,1,0,0,1,89.95-1Zm9.994,0h5a1,1,0,0,1,1,1,1,1,0,0,1-1,1h-5a1,1,0,0,1-1-1A1,1,0,0,1,99.943-1Zm9.994,0h5a1,1,0,0,1,1,1,1,1,0,0,1-1,1h-5a1,1,0,0,1-1-1A1,1,0,0,1,109.937-1Zm9.994,0h5a1,1,0,0,1,1,1,1,1,0,0,1-1,1h-5a1,1,0,0,1-1-1A1,1,0,0,1,119.931-1Zm9.994,0h5a1,1,0,0,1,1,1,1,1,0,0,1-1,1h-5a1,1,0,0,1-1-1A1,1,0,0,1,129.925-1Zm9.994,0h5a1,1,0,0,1,1,1,1,1,0,0,1-1,1h-5a1,1,0,0,1-1-1A1,1,0,0,1,139.918-1Zm9.994,0h5a1,1,0,0,1,1,1,1,1,0,0,1-1,1h-5a1,1,0,0,1-1-1A1,1,0,0,1,149.912-1Zm9.994,0h5a1,1,0,0,1,1,1,1,1,0,0,1-1,1h-5a1,1,0,0,1-1-1A1,1,0,0,1,159.906-1ZM169.9-1h5a1,1,0,0,1,1,1,1,1,0,0,1-1,1h-5a1,1,0,0,1-1-1A1,1,0,0,1,169.9-1Zm9.994,0h5a1,1,0,0,1,1,1,1,1,0,0,1-1,1h-5a1,1,0,0,1-1-1A1,1,0,0,1,179.893-1Zm9.994,0h5a1,1,0,0,1,1,1,1,1,0,0,1-1,1h-5a1,1,0,0,1-1-1A1,1,0,0,1,189.887-1Zm9.994,0h5a1,1,0,0,1,1,1,1,1,0,0,1-1,1h-5a1,1,0,0,1-1-1A1,1,0,0,1,199.881-1Zm9.994,0h5a1,1,0,0,1,1,1,1,1,0,0,1-1,1h-5a1,1,0,0,1-1-1A1,1,0,0,1,209.874-1Zm9.994,0h5a1,1,0,0,1,1,1,1,1,0,0,1-1,1h-5a1,1,0,0,1-1-1A1,1,0,0,1,219.868-1Zm9.994,0h5a1,1,0,0,1,1,1,1,1,0,0,1-1,1h-5a1,1,0,0,1-1-1A1,1,0,0,1,229.862-1Zm9.994,0h5a1,1,0,0,1,1,1,1,1,0,0,1-1,1h-5a1,1,0,0,1-1-1A1,1,0,0,1,239.856-1Zm9.994,0h5a1,1,0,0,1,1,1,1,1,0,0,1-1,1h-5a1,1,0,0,1-1-1A1,1,0,0,1,249.849-1Zm9.994,0h5a1,1,0,0,1,1,1,1,1,0,0,1-1,1h-5a1,1,0,0,1-1-1A1,1,0,0,1,259.843-1Zm9.994,0h5a1,1,0,0,1,1,1,1,1,0,0,1-1,1h-5a1,1,0,0,1-1-1A1,1,0,0,1,269.837-1Zm9.994,0h5a1,1,0,0,1,1,1,1,1,0,0,1-1,1h-5a1,1,0,0,1-1-1A1,1,0,0,1,279.83-1Zm9.994,0h5a1,1,0,0,1,1,1,1,1,0,0,1-1,1h-5a1,1,0,0,1-1-1A1,1,0,0,1,289.824-1Zm9.994,0h5a1,1,0,0,1,1,1,1,1,0,0,1-1,1h-5a1,1,0,0,1-1-1A1,1,0,0,1,299.818-1Zm9.994,0h2.747a11.06,11.06,0,0,1,2.454.275,1,1,0,0,1-.444,1.95A9.054,9.054,0,0,0,312.558,1h-2.747a1,1,0,0,1-1-1A1,1,0,0,1,309.812-1ZM5.187.232a1,1,0,0,1,.483,1.876A9.065,9.065,0,0,0,2.417,5.15,1,1,0,1,1,.734,4.07,11.071,11.071,0,0,1,4.706.356,1,1,0,0,1,5.187.232Zm314,1.28a1,1,0,0,1,.663.251,11.042,11.042,0,0,1,3.057,4.5,1,1,0,0,1-1.881.679,9.036,9.036,0,0,0-2.5-3.681,1,1,0,0,1,.664-1.749ZM.023,8.3l.07,0a1,1,0,0,1,.929,1.066C1.007,9.58,1,9.791,1,10v4.3a1,1,0,0,1-1,1,1,1,0,0,1-1-1V10c0-.254.009-.511.026-.764A1,1,0,0,1,.023,8.3Zm322.536,2.226a1,1,0,0,1,1,1v5a1,1,0,1,1-2,0v-5A1,1,0,0,1,322.558,10.531ZM0,18.3a1,1,0,0,1,1,1v5a1,1,0,0,1-1,1,1,1,0,0,1-1-1v-5A1,1,0,0,1,0,18.3Zm322.558,2.227a1,1,0,0,1,1,1v5a1,1,0,0,1-2,0v-5A1,1,0,0,1,322.558,20.525ZM0,28.292a1,1,0,0,1,1,1v5a1,1,0,0,1-1,1,1,1,0,0,1-1-1v-5A1,1,0,0,1,0,28.292Zm322.558,2.227a1,1,0,0,1,1,1v5a1,1,0,1,1-2,0v-5A1,1,0,0,1,322.558,30.518ZM0,38.286a1,1,0,0,1,1,1v5a1,1,0,0,1-1,1,1,1,0,0,1-1-1v-5A1,1,0,0,1,0,38.286Zm322.558,2.227a1,1,0,0,1,1,1v5a1,1,0,0,1-2,0v-5A1,1,0,0,1,322.558,40.512ZM0,48.279a1,1,0,0,1,1,1v5a1,1,0,0,1-1,1,1,1,0,0,1-1-1v-5A1,1,0,0,1,0,48.279Zm322.558,2.226a1,1,0,0,1,1,1v5a1,1,0,0,1-2,0v-5A1,1,0,0,1,322.558,50.506ZM0,58.273a1,1,0,0,1,1,1v5a1,1,0,0,1-1,1,1,1,0,0,1-1-1v-5A1,1,0,0,1,0,58.273ZM322.558,60.5a1,1,0,0,1,1,1v5a1,1,0,0,1-2,0v-5A1,1,0,0,1,322.558,60.5ZM0,68.267a1,1,0,0,1,1,1v5a1,1,0,0,1-1,1,1,1,0,0,1-1-1v-5A1,1,0,0,1,0,68.267Zm322.558,2.227a1,1,0,0,1,1,1v5a1,1,0,0,1-2,0v-5A1,1,0,0,1,322.558,70.493ZM0,78.26a1,1,0,0,1,1,1v5a1,1,0,0,1-1,1,1,1,0,0,1-1-1v-5A1,1,0,0,1,0,78.26Zm322.558,2.227a1,1,0,0,1,1,1v5a1,1,0,0,1-2,0v-5A1,1,0,0,1,322.558,80.487ZM0,88.254a1,1,0,0,1,1,1v5a1,1,0,0,1-1,1,1,1,0,0,1-1-1v-5A1,1,0,0,1,0,88.254Zm322.558,2.227a1,1,0,0,1,1,1v5a1,1,0,0,1-2,0v-5A1,1,0,0,1,322.558,90.481ZM0,98.248a1,1,0,0,1,1,1v5a1,1,0,0,1-1,1,1,1,0,0,1-1-1v-5A1,1,0,0,1,0,98.248Zm322.558,2.227a1,1,0,0,1,1,1v5a1,1,0,1,1-2,0v-5A1,1,0,0,1,322.558,100.474ZM0,108.242a1,1,0,0,1,1,1v5a1,1,0,0,1-1,1,1,1,0,0,1-1-1v-5A1,1,0,0,1,0,108.242Zm322.558,2.227a1,1,0,0,1,1,1v5a1,1,0,0,1-2,0v-5A1,1,0,0,1,322.558,110.468ZM0,118.235a1,1,0,0,1,1,1v5a1,1,0,0,1-1,1,1,1,0,0,1-1-1v-5A1,1,0,0,1,0,118.235Zm322.558,2.227a1,1,0,0,1,1,1v5a1,1,0,0,1-2,0v-5A1,1,0,0,1,322.558,120.462ZM0,128.229a1,1,0,0,1,1,1v5a1,1,0,0,1-1,1,1,1,0,0,1-1-1v-5A1,1,0,0,1,0,128.229Zm322.558,2.227a1,1,0,0,1,1,1v5a1,1,0,1,1-2,0v-5A1,1,0,0,1,322.558,130.455ZM0,138.223a1,1,0,0,1,1,1v5a1,1,0,0,1-1,1,1,1,0,0,1-1-1v-5A1,1,0,0,1,0,138.223Zm322.558,2.227a1,1,0,0,1,1,1v5a1,1,0,1,1-2,0v-5A1,1,0,0,1,322.558,140.449ZM0,148.216a1,1,0,0,1,1,1v5a1,1,0,0,1-1,1,1,1,0,0,1-1-1v-5A1,1,0,0,1,0,148.216Zm322.558,2.227a1,1,0,0,1,1,1v5a1,1,0,0,1-2,0v-5A1,1,0,0,1,322.558,150.443ZM0,158.21a1,1,0,0,1,1,1v5a1,1,0,0,1-1,1,1,1,0,0,1-1-1v-5A1,1,0,0,1,0,158.21Zm322.558,2.227a1,1,0,0,1,1,1v5a1,1,0,0,1-2,0v-5A1,1,0,0,1,322.558,160.437ZM0,168.2a1,1,0,0,1,1,1v5a1,1,0,0,1-1,1,1,1,0,0,1-1-1v-5A1,1,0,0,1,0,168.2Zm322.558,2.226a1,1,0,0,1,1,1v5a1,1,0,0,1-2,0v-5A1,1,0,0,1,322.558,170.43ZM0,178.2a1,1,0,0,1,1,1v5a1,1,0,0,1-1,1,1,1,0,0,1-1-1v-5A1,1,0,0,1,0,178.2Zm322.558,2.227a1,1,0,0,1,1,1v5a1,1,0,0,1-2,0v-5A1,1,0,0,1,322.558,180.424ZM0,188.191a1,1,0,0,1,1,1v5a1,1,0,0,1-1,1,1,1,0,0,1-1-1v-5A1,1,0,0,1,0,188.191Zm322.558,2.227a1,1,0,0,1,1,1v5a1,1,0,1,1-2,0v-5A1,1,0,0,1,322.558,190.418ZM0,198.185a1,1,0,0,1,1,1v5a1,1,0,0,1-1,1,1,1,0,0,1-1-1v-5A1,1,0,0,1,0,198.185Zm322.558,2.227a1,1,0,0,1,1,1v5a1,1,0,0,1-2,0v-5A1,1,0,0,1,322.558,200.412ZM0,208.179a1,1,0,0,1,1,1v5a1,1,0,0,1-1,1,1,1,0,0,1-1-1v-5A1,1,0,0,1,0,208.179Zm322.558,2.227a1,1,0,0,1,1,1v5a1,1,0,0,1-2,0v-5A1,1,0,0,1,322.558,210.405ZM0,218.172a1,1,0,0,1,1,1v5a1,1,0,0,1-1,1,1,1,0,0,1-1-1v-5A1,1,0,0,1,0,218.172ZM322.558,220.4a1,1,0,0,1,1,1v5a1,1,0,0,1-2,0v-5A1,1,0,0,1,322.558,220.4ZM0,228.166a1,1,0,0,1,1,1v5a1,1,0,0,1-1,1,1,1,0,0,1-1-1v-5A1,1,0,0,1,0,228.166Zm322.558,2.227a1,1,0,0,1,1,1v5a1,1,0,0,1-2,0v-5A1,1,0,0,1,322.558,230.393ZM0,238.16a1,1,0,0,1,1,1v5a1,1,0,0,1-1,1,1,1,0,0,1-1-1v-5A1,1,0,0,1,0,238.16Zm322.558,2.227a1,1,0,0,1,1,1v5a1,1,0,1,1-2,0v-5A1,1,0,0,1,322.558,240.386ZM0,248.154a1,1,0,0,1,1,1v5a1,1,0,0,1-1,1,1,1,0,0,1-1-1v-5A1,1,0,0,1,0,248.154Zm322.558,2.227a1,1,0,0,1,1,1v5a1,1,0,0,1-2,0v-5A1,1,0,0,1,322.558,250.38ZM0,258.147a1,1,0,0,1,1,1v5a1,1,0,0,1-1,1,1,1,0,0,1-1-1v-5A1,1,0,0,1,0,258.147Zm322.558,2.227a1,1,0,0,1,1,1v5a1,1,0,0,1-2,0v-5A1,1,0,0,1,322.558,260.374ZM0,268.141a1,1,0,0,1,1,1v1.519a8.974,8.974,0,0,0,.536,3.068,1,1,0,0,1-1.88.682A10.968,10.968,0,0,1-1,270.66v-1.519A1,1,0,0,1,0,268.141Zm322.533,2.226.071,0a1,1,0,0,1,.928,1.067,10.993,10.993,0,0,1-1.714,5.164,1,1,0,1,1-1.682-1.081,8.988,8.988,0,0,0,1.4-4.222A1,1,0,0,1,322.533,270.367ZM3.381,277.156a1,1,0,0,1,.662.251A9,9,0,0,0,8,279.438a1,1,0,0,1-.442,1.951A11.007,11.007,0,0,1,2.718,278.9a1,1,0,0,1,.663-1.749Zm313.979,1.278a1,1,0,0,1,.482,1.877,11.013,11.013,0,0,1-5.27,1.35,1,1,0,0,1,0-2,9.009,9.009,0,0,0,4.311-1.1A1,1,0,0,1,317.36,278.434Zm-304.6,1.227h5a1,1,0,0,1,0,2h-5a1,1,0,0,1,0-2Zm9.994,0h5a1,1,0,0,1,0,2h-5a1,1,0,1,1,0-2Zm9.994,0h5a1,1,0,1,1,0,2h-5a1,1,0,1,1,0-2Zm9.994,0h5a1,1,0,1,1,0,2h-5a1,1,0,1,1,0-2Zm9.994,0h5a1,1,0,0,1,0,2h-5a1,1,0,0,1,0-2Zm9.994,0h5a1,1,0,0,1,0,2h-5a1,1,0,0,1,0-2Zm9.994,0h5a1,1,0,0,1,0,2h-5a1,1,0,0,1,0-2Zm9.994,0h5a1,1,0,0,1,0,2h-5a1,1,0,0,1,0-2Zm9.994,0h5a1,1,0,0,1,0,2h-5a1,1,0,0,1,0-2Zm9.994,0h5a1,1,0,1,1,0,2h-5a1,1,0,0,1,0-2Zm9.994,0h5a1,1,0,0,1,0,2h-5a1,1,0,0,1,0-2Zm9.994,0h5a1,1,0,0,1,0,2h-5a1,1,0,0,1,0-2Zm9.994,0h5a1,1,0,0,1,0,2h-5a1,1,0,0,1,0-2Zm9.994,0h5a1,1,0,0,1,0,2h-5a1,1,0,0,1,0-2Zm9.994,0h5a1,1,0,1,1,0,2h-5a1,1,0,0,1,0-2Zm9.994,0h5a1,1,0,0,1,0,2h-5a1,1,0,0,1,0-2Zm9.994,0h5a1,1,0,0,1,0,2h-5a1,1,0,1,1,0-2Zm9.994,0h5a1,1,0,0,1,0,2h-5a1,1,0,0,1,0-2Zm9.994,0h5a1,1,0,0,1,0,2h-5a1,1,0,0,1,0-2Zm9.994,0h5a1,1,0,1,1,0,2h-5a1,1,0,0,1,0-2Zm9.994,0h5a1,1,0,1,1,0,2h-5a1,1,0,0,1,0-2Zm9.994,0h5a1,1,0,0,1,0,2h-5a1,1,0,1,1,0-2Zm9.994,0h5a1,1,0,1,1,0,2h-5a1,1,0,0,1,0-2Zm9.994,0h5a1,1,0,0,1,0,2h-5a1,1,0,0,1,0-2Zm9.994,0h5a1,1,0,0,1,0,2h-5a1,1,0,1,1,0-2Zm9.994,0h5a1,1,0,0,1,0,2h-5a1,1,0,0,1,0-2Zm9.994,0h5a1,1,0,0,1,0,2h-5a1,1,0,0,1,0-2Zm9.994,0h5a1,1,0,0,1,0,2h-5a1,1,0,0,1,0-2Zm9.994,0h5a1,1,0,0,1,0,2h-5a1,1,0,1,1,0-2Zm9.994,0h5a1,1,0,1,1,0,2h-5a1,1,0,0,1,0-2Z" transform="translate(2112.969 4975.729)" fill="#82c195"/>
    </g>
    <g id="グループ_764" data-name="グループ 764" transform="translate(1204.432 -2170.847)">
      <path id="パス_780" data-name="パス 780" d="M-95.056-17.628q-.156.234-.455.728a5.551,5.551,0,0,0-.455.91q-.546,1.222-1.339,2.73T-99.1-10.231a29.971,29.971,0,0,1-2.119,2.847,43.368,43.368,0,0,1-3.211,3.237,35.179,35.179,0,0,1-3.692,2.938,28.309,28.309,0,0,1-3.965,2.3l-2.678-2.808a24.188,24.188,0,0,0,4.082-2.028A30.489,30.489,0,0,0-107.016-6.4,30.347,30.347,0,0,0-104.1-9.178a23.377,23.377,0,0,0,1.625-2.106,24.806,24.806,0,0,0,1.365-2.223,11.271,11.271,0,0,0,.884-2.041h-8.814q-.546,0-1.144.039t-1.131.078q-.533.039-.819.065v-3.692q.39.026.962.078t1.157.078q.585.026.975.026h9.178a10.97,10.97,0,0,0,1.573-.1,6.757,6.757,0,0,0,1.105-.234Zm-5.824,8.086q1.014.806,2.158,1.872t2.262,2.21q1.118,1.144,2.067,2.2t1.6,1.833l-2.964,2.574q-.962-1.326-2.2-2.756t-2.6-2.847q-1.365-1.417-2.769-2.691Zm15.366-10.4a13.236,13.236,0,0,0,1.4.143q.754.039,1.378.039H-72.28q.676,0,1.4-.039t1.4-.143v3.354q-.676-.052-1.4-.078t-1.4-.026H-82.706q-.676,0-1.443.026t-1.365.078Zm-3.016,6.656q.572.052,1.235.1t1.261.052H-69q.416,0,1.131-.039t1.235-.117v3.38q-.468-.052-1.144-.065T-69-9.984h-17.03q-.572,0-1.261.026t-1.235.078Zm13.312,1.794a21.388,21.388,0,0,1-.442,4.563A14.781,14.781,0,0,1-76.934-3.3a10.687,10.687,0,0,1-1.248,1.82A13.335,13.335,0,0,1-79.976.286a11.159,11.159,0,0,1-2.184,1.4L-85.2-.52A10.429,10.429,0,0,0-82.55-2.08,9.957,9.957,0,0,0-80.5-4.238,9.01,9.01,0,0,0-79.17-7.566a21.358,21.358,0,0,0,.338-3.9Zm12.87-.546,1.2.065q.728.039,1.521.065t1.469.026H-44.2q.91,0,1.716-.065t1.326-.091v4.082l-1.326-.078q-.884-.052-1.716-.052H-58.162q-1.118,0-2.288.039t-1.9.091Zm42.068-7.93q.364.546.793,1.261t.845,1.43q.416.715.728,1.339l-2.262.962q-.39-.832-.728-1.495t-.715-1.3q-.377-.637-.845-1.287Zm3.562-1.248a10.79,10.79,0,0,1,.858,1.2q.442.7.858,1.4t.728,1.274l-2.21.988q-.416-.806-.793-1.456t-.767-1.248q-.39-.6-.884-1.248Zm-14.872.754q.65.338,1.456.832T-28.5-18.6l1.586,1.014q.754.481,1.248.845l-1.924,2.86-1.287-.858q-.741-.494-1.56-1.014t-1.612-1q-.793-.481-1.417-.845ZM-36.4-2q1.456-.26,2.964-.65a29.144,29.144,0,0,0,2.99-.949A21.722,21.722,0,0,0-27.56-4.94a29.225,29.225,0,0,0,4.121-2.808,28.48,28.48,0,0,0,3.445-3.315,19.987,19.987,0,0,0,2.548-3.627l2,3.536A27.049,27.049,0,0,1-19.9-6.045a34.353,34.353,0,0,1-5.863,4.251A30.492,30.492,0,0,1-28.678-.4Q-30.264.26-31.785.728A23.6,23.6,0,0,1-34.45,1.4Zm.806-12.532q.65.338,1.482.832t1.664,1q.832.507,1.573.988t1.235.845l-1.9,2.912q-.572-.39-1.313-.884t-1.56-1.014q-.819-.52-1.612-1t-1.443-.819ZM1.638-18.928H4.654V-4.212H1.638Zm6.136-2.626h3.094v20.1A5.352,5.352,0,0,1,10.543.65,2.256,2.256,0,0,1,9.412,1.768a6.631,6.631,0,0,1-2.106.481q-1.3.117-3.094.117a5.718,5.718,0,0,0-.234-1.053Q3.8.728,3.575.143a7.369,7.369,0,0,0-.455-1q1.274.026,2.418.039t1.534.013a.816.816,0,0,0,.533-.143.637.637,0,0,0,.169-.507ZM-7.592-9.672h5.98v2.73h-5.98Zm4.6,0H-.1l-.013.221q-.013.221-.013.494v.429Q-.26-5.382-.416-3.393A25.587,25.587,0,0,1-.793-.351,3.822,3.822,0,0,1-1.378,1.17a2.3,2.3,0,0,1-.858.7,3.865,3.865,0,0,1-1.092.286,12.185,12.185,0,0,1-1.378.1q-.858.026-1.768-.026A5.619,5.619,0,0,0-6.734.845,5.591,5.591,0,0,0-7.306-.468q.806.078,1.521.1t1.053.026A1.537,1.537,0,0,0-4.251-.4a.888.888,0,0,0,.377-.273,2.575,2.575,0,0,0,.39-1.157q.156-.9.286-2.678T-2.99-9.2Zm-5.252-8.45v3.562h4.888v-3.562Zm-2.834-2.756H-.338V-11.8H-11.076Zm2.652,8.242h3.042q-.1,2.054-.338,4.147a26.834,26.834,0,0,1-.767,4.056A16.041,16.041,0,0,1-7.995-.741,11.377,11.377,0,0,1-10.556,2.34a7.434,7.434,0,0,0-.936-1.222,6.916,6.916,0,0,0-1.17-1.04,8.505,8.505,0,0,0,2.21-2.6A13.223,13.223,0,0,0-9.23-5.694a22.847,22.847,0,0,0,.572-3.458Q-8.5-10.92-8.424-12.636Zm36.53-5.174q-.26,1.976-.676,4.212a40.974,40.974,0,0,1-1.118,4.524A23.24,23.24,0,0,1,24.544-4.55a9.917,9.917,0,0,1-2.223,2.925A3.992,3.992,0,0,1,19.682-.6a4.115,4.115,0,0,1-2.639-.975,6.66,6.66,0,0,1-1.924-2.691,10.061,10.061,0,0,1-.715-3.9,10.184,10.184,0,0,1,.91-4.264,11.344,11.344,0,0,1,2.535-3.549,12.019,12.019,0,0,1,3.8-2.431,12.325,12.325,0,0,1,4.693-.884,11.57,11.57,0,0,1,4.355.78,9.8,9.8,0,0,1,3.315,2.158,9.367,9.367,0,0,1,2.106,3.224,10.745,10.745,0,0,1,.728,3.978,10.469,10.469,0,0,1-1.118,4.888A9.242,9.242,0,0,1,32.409-.7a14.214,14.214,0,0,1-5.473,1.924l-1.95-3.094q.754-.078,1.326-.182T27.4-2.288a9.894,9.894,0,0,0,2.327-.9,7.262,7.262,0,0,0,1.885-1.456,6.37,6.37,0,0,0,1.261-2.041,7.045,7.045,0,0,0,.455-2.574,8.089,8.089,0,0,0-.468-2.808,6.322,6.322,0,0,0-1.378-2.223,6.072,6.072,0,0,0-2.21-1.456,8.189,8.189,0,0,0-2.99-.507,8.573,8.573,0,0,0-3.666.741A8.582,8.582,0,0,0,19.942-13.6a8.39,8.39,0,0,0-1.651,2.522A6.739,6.739,0,0,0,17.732-8.5a6.5,6.5,0,0,0,.312,2.171,3.286,3.286,0,0,0,.767,1.3,1.4,1.4,0,0,0,.975.429,1.519,1.519,0,0,0,1.079-.559,6.236,6.236,0,0,0,1.053-1.7,23.04,23.04,0,0,0,1.04-2.886,35.512,35.512,0,0,0,1.014-4,40.748,40.748,0,0,0,.6-4.16Zm16.042.442h18.1v3.042h-18.1ZM43.056-9.724H61.23v3.016H43.056Zm-2.99,8.268h23.5V1.586h-23.5ZM50.154-22.1H53.43V.026H50.154Zm-6.006.338,3.224.728a33.221,33.221,0,0,1-1.352,3.952,34.4,34.4,0,0,1-1.742,3.627,20.4,20.4,0,0,1-1.95,2.925,7.808,7.808,0,0,0-.819-.637q-.507-.351-1.053-.689T39.52-12.4A13.639,13.639,0,0,0,41.431-15a24.515,24.515,0,0,0,1.56-3.25A31.35,31.35,0,0,0,44.148-21.762ZM73.814-7.15H89.752v2.912H73.814Zm2-6.552h9.932v2.808H75.816Zm4.628,4.394H83.59v8.32A4.949,4.949,0,0,1,83.317.845a1.874,1.874,0,0,1-1.105,1,5.76,5.76,0,0,1-1.989.429q-1.157.065-2.743.065A8.877,8.877,0,0,0,77.155.806a12.6,12.6,0,0,0-.533-1.482l1.326.052q.676.026,1.209.013t.715-.013a1.052,1.052,0,0,0,.455-.1q.117-.078.117-.338Zm4.55-4.394h.78l.624-.156,1.95,1.534q-.754.884-1.716,1.833t-1.989,1.82A20.841,20.841,0,0,1,82.628-7.15a8.776,8.776,0,0,0-.793-.962,8.029,8.029,0,0,0-.871-.832A15.106,15.106,0,0,0,82.5-10.231a19.683,19.683,0,0,0,1.443-1.521A16.621,16.621,0,0,0,84.994-13.1ZM66.17-18.694H89.362v2.99H66.17ZM74.308-22.1l3.328.78a44.431,44.431,0,0,1-2.418,6.227,30.833,30.833,0,0,1-3.523,5.707A21.665,21.665,0,0,1,66.82-4.81a9.609,9.609,0,0,0-.429-1q-.273-.559-.572-1.131a8.064,8.064,0,0,0-.559-.936,16.674,16.674,0,0,0,3.224-2.795,22.274,22.274,0,0,0,2.574-3.51A28.8,28.8,0,0,0,72.995-18.1,30.368,30.368,0,0,0,74.308-22.1ZM69.134-11.258H72.28V2.288H69.134ZM102.05-22.074h3.224v3.64H102.05Zm0,15.21h3.224v9.2H102.05ZM92.014-5.2h23.5v2.886h-23.5Zm.858-14.352h21.84v2.834H92.872Zm19.214,3.146,2.782,1.326q-.988.91-2.054,1.755t-1.95,1.469l-2.288-1.222q.6-.442,1.235-1.014t1.248-1.183A13.98,13.98,0,0,0,112.086-16.406Zm-10.27-1.118,2.626.988q-.78,1.014-1.6,2.028t-1.495,1.716L99.4-13.65q.416-.546.858-1.222t.858-1.378Q101.53-16.952,101.816-17.524Zm3.9,1.9,2.418,1.118q-1.066,1.248-2.34,2.587t-2.548,2.548q-1.274,1.209-2.418,2.119l-1.82-1.014q1.144-.962,2.379-2.223t2.379-2.613Q104.91-14.456,105.716-15.626ZM98.1-13.364l1.456-1.768q.754.442,1.612,1.014t1.638,1.131a12.247,12.247,0,0,1,1.274,1.027l-1.534,2.028a12.834,12.834,0,0,0-1.222-1.1q-.754-.611-1.612-1.222T98.1-13.364ZM97.864-9.2l2.964-.117q1.664-.065,3.536-.156t3.77-.169l-.026,2.21-5.174.416q-2.574.208-4.628.338Zm7.15-1.742,2.21-.936q.572.728,1.131,1.573t1.027,1.677a7.85,7.85,0,0,1,.676,1.508l-2.34,1.066a9.778,9.778,0,0,0-.637-1.521q-.429-.845-.962-1.742A15.172,15.172,0,0,0,105.014-10.946ZM91.728-8.736q1.248-.39,3-1.066t3.575-1.352l.546,2.288q-1.4.7-2.9,1.4T93.21-6.214Zm.78-5.746,2.08-1.664q.676.364,1.443.845t1.456.975a11.136,11.136,0,0,1,1.131.91L96.434-11.57a9.5,9.5,0,0,0-1.053-.936q-.663-.52-1.417-1.04T92.508-14.482ZM108-9.646l2.132-1.716q.884.442,1.924,1.04t1.976,1.209q.936.611,1.56,1.1l-2.262,1.9a11.891,11.891,0,0,0-1.456-1.144q-.91-.624-1.924-1.274A21.2,21.2,0,0,0,108-9.646Z" transform="translate(2275.025 5052.592)" fill="#82c195"/>
    </g>
    <g id="グループ_765" data-name="グループ 765" transform="translate(1204.432 -2170.847)">
      <g id="グループ_262" data-name="グループ 262">
        <rect id="長方形_150" data-name="長方形 150" width="141.729" height="12.257" transform="translate(2277.335 5187.451)" fill="#ff8e66"/>
        <path id="パス_779" data-name="パス 779" d="M-25.266-4.3V-3.6h.8V-4.3Zm0,1.479v.7h.8v-.7Zm0-2.95v.686h.8v-.686Zm-.825-.85h2.484v5.352h-2.484ZM-24.71-.85l.744-.417q.155.188.323.417t.311.449q.143.221.233.392l-.784.466a3.3,3.3,0,0,0-.212-.4q-.139-.229-.3-.47T-24.71-.85Zm-1.16-.343.891.245a5.967,5.967,0,0,1-.5.932,5.426,5.426,0,0,1-.6.776q-.09-.074-.233-.172T-26.6.4q-.147-.09-.253-.147a3.726,3.726,0,0,0,.56-.662A4.085,4.085,0,0,0-25.871-1.193Zm4.02-5.753h.891V-.368a1.743,1.743,0,0,1-.078.58.591.591,0,0,1-.3.327,1.5,1.5,0,0,1-.543.151,7.544,7.544,0,0,1-.813.037A2.98,2.98,0,0,0-22.8.257a3.633,3.633,0,0,0-.172-.47q.311.008.58.012l.368,0a.217.217,0,0,0,.135-.045.176.176,0,0,0,.037-.127ZM-23.2-6.1h.842v4.739H-23.2Zm-4.862-.057.556-.711q.221.09.47.221t.474.274A2.465,2.465,0,0,1-26.2-6.1l-.588.784a1.915,1.915,0,0,0-.339-.29q-.217-.151-.462-.3A5.1,5.1,0,0,0-28.06-6.161Zm-.311,2.19.539-.727q.229.09.478.208t.474.253a2.494,2.494,0,0,1,.364.257l-.572.793a2.885,2.885,0,0,0-.347-.27q-.217-.147-.462-.282T-28.371-3.971Zm.139,4.11q.155-.319.339-.752t.376-.919q.192-.486.347-.96l.793.507q-.131.441-.294.895t-.335.891q-.172.437-.343.846Zm9.626-4.617h4.519v.94h-4.519Zm2.263,1.961h2.754v.923h-2.754Zm-.515-1.414h1.021V.016l-1.021-.123Zm-1.953.842,1.021.106a8.826,8.826,0,0,1-.556,2.206A4.039,4.039,0,0,1-19.44.784a3.121,3.121,0,0,0-.229-.221q-.147-.131-.306-.253t-.274-.2a3,3,0,0,0,1-1.32A6.85,6.85,0,0,0-18.81-3.089Zm.793,1.03a2.613,2.613,0,0,0,.494.9,2.008,2.008,0,0,0,.711.523,3.342,3.342,0,0,0,.887.241A7.607,7.607,0,0,0-14.9-.327h.854q.274,0,.56,0l.531-.008q.245,0,.409-.012a2.046,2.046,0,0,0-.143.3q-.069.176-.127.364A2.564,2.564,0,0,0-12.9.654h-2.051a8.082,8.082,0,0,1-1.307-.1A3.419,3.419,0,0,1-17.336.2a2.68,2.68,0,0,1-.85-.74A4.3,4.3,0,0,1-18.819-1.8Zm1.144-4.87h1.046v1.487h-1.046Zm-2.974.825h7.019v2.051h-1.005V-5.181h-5.05v1.128h-.964Zm8.155.5q.245-.008.466-.02l.335-.02q.253-.016.625-.053t.833-.078q.462-.041.985-.082t1.087-.09q.425-.041.846-.069t.8-.049q.38-.02.666-.029l.008,1.046q-.221,0-.507.008t-.568.029a2.827,2.827,0,0,0-.5.078,2.052,2.052,0,0,0-.686.331,2.564,2.564,0,0,0-.552.547,2.63,2.63,0,0,0-.364.678,2.148,2.148,0,0,0-.131.731,1.654,1.654,0,0,0,.143.707,1.555,1.555,0,0,0,.392.523,2.2,2.2,0,0,0,.584.36,3.493,3.493,0,0,0,.723.217,6.312,6.312,0,0,0,.8.1L-6.088.376a5.086,5.086,0,0,1-1-.163A4.232,4.232,0,0,1-8-.147a2.924,2.924,0,0,1-.74-.56,2.552,2.552,0,0,1-.5-.76,2.414,2.414,0,0,1-.184-.96A3.023,3.023,0,0,1-9.234-3.51a3.456,3.456,0,0,1,.47-.866,2.832,2.832,0,0,1,.56-.576q-.229.033-.552.065t-.695.078l-.756.094q-.384.049-.74.11t-.641.118ZM-6.21-4.249q.106.147.225.347t.233.4q.114.2.2.364l-.621.278q-.155-.343-.3-.6A4.919,4.919,0,0,0-6.815-4Zm.915-.376q.106.147.233.339t.249.392q.123.2.2.355l-.613.294q-.163-.327-.315-.58a5.752,5.752,0,0,0-.355-.523Zm3.081.458H2.231v.923H-2.214ZM-3.1-6.627H-.776v.842H-3.1Zm-.18,4.306H3.244v.9H-3.277Zm2.149-4.306h.18l.172-.033.654.294a5.8,5.8,0,0,1-.535,1.16,5.651,5.651,0,0,1-.74.968,6.239,6.239,0,0,1-.9.78,6.971,6.971,0,0,1-1.005.6,3.193,3.193,0,0,0-.274-.392A2.846,2.846,0,0,0-3.9-3.6a4.656,4.656,0,0,0,.883-.482,5.77,5.77,0,0,0,.8-.666,4.972,4.972,0,0,0,.654-.8,3.861,3.861,0,0,0,.437-.907ZM-1.52-3.7h.972v1.414a4.662,4.662,0,0,1-.082.866,2.6,2.6,0,0,1-.319.838,2.626,2.626,0,0,1-.695.752,4.224,4.224,0,0,1-1.218.6A1.769,1.769,0,0,0-3.027.507Q-3.138.36-3.26.217a2.729,2.729,0,0,0-.221-.233A4.116,4.116,0,0,0-2.435-.482a2.021,2.021,0,0,0,.588-.564,1.8,1.8,0,0,0,.261-.625,3.225,3.225,0,0,0,.065-.641ZM.9-6.929a5.873,5.873,0,0,0,.7,1.316,5.551,5.551,0,0,0,1.026,1.1,4.956,4.956,0,0,0,1.3.768,2.132,2.132,0,0,0-.241.249q-.127.151-.245.311a2.779,2.779,0,0,0-.192.29,5.4,5.4,0,0,1-1.369-.923A6.492,6.492,0,0,1,.8-5.107,8.882,8.882,0,0,1,.016-6.684ZM-3.342-5.148l.613-.507q.163.106.339.245l.339.27a3.311,3.311,0,0,1,.27.237l-.646.572a2.994,2.994,0,0,0-.249-.253q-.159-.147-.335-.294T-3.342-5.148ZM2.035-6.815l.744.515q-.327.294-.674.58t-.641.482L.874-5.7q.188-.139.4-.331t.417-.4A4.456,4.456,0,0,0,2.035-6.815Zm.981.94.719.5q-.327.3-.707.6t-.7.5l-.588-.449q.2-.147.437-.347t.458-.413Q2.86-5.7,3.015-5.875ZM.474-3.661H1.5V-.539a.58.58,0,0,0,.045.29q.045.061.208.061h.629a.193.193,0,0,0,.168-.074.634.634,0,0,0,.078-.274q.025-.2.041-.584a2.063,2.063,0,0,0,.417.225,3.057,3.057,0,0,0,.466.159,3.448,3.448,0,0,1-.163.85.8.8,0,0,1-.331.437,1.136,1.136,0,0,1-.576.127h-.9A1.68,1.68,0,0,1,.891.568.609.609,0,0,1,.564.192a2.331,2.331,0,0,1-.09-.723Zm5.99-.874v.507H9.887v-.507Zm0,1.307v.515H9.887v-.515Zm0-2.607v.507H9.887v-.507Zm-.948-.85h5.369v4.821H5.516ZM8.547-2.517H9.552V-.564q0,.2.061.249a.5.5,0,0,0,.29.053h.858a.288.288,0,0,0,.212-.074.573.573,0,0,0,.106-.311q.033-.237.049-.719a1.741,1.741,0,0,0,.266.163,2.279,2.279,0,0,0,.335.139l.3.1a4.183,4.183,0,0,1-.172,1,.871.871,0,0,1-.36.494,1.276,1.276,0,0,1-.646.139H9.765A1.947,1.947,0,0,1,9.017.556.655.655,0,0,1,8.649.172a2.106,2.106,0,0,1-.1-.727Zm-1.994.335H7.6a5.765,5.765,0,0,1-.176,1.017,2.386,2.386,0,0,1-.409.829,2.4,2.4,0,0,1-.8.641,5.486,5.486,0,0,1-1.34.462,1.34,1.34,0,0,0-.135-.3Q4.65.311,4.539.151a1.553,1.553,0,0,0-.217-.257A5.041,5.041,0,0,0,5.458-.429a1.9,1.9,0,0,0,.65-.445,1.44,1.44,0,0,0,.315-.576A4.352,4.352,0,0,0,6.553-2.182ZM18.075-6.12H19.1V-.507a1.632,1.632,0,0,1-.114.682.743.743,0,0,1-.417.364,2.36,2.36,0,0,1-.752.151q-.458.029-1.087.029a3.279,3.279,0,0,0-.1-.339A4.083,4.083,0,0,0,16.486,0a2.806,2.806,0,0,0-.168-.319l.609.016q.306.008.552.008h.343a.3.3,0,0,0,.2-.049.229.229,0,0,0,.057-.18ZM13.409-4.486h.948V-.678h-.948Zm.4,0H16.89v3.179H13.81v-.94h2.116V-3.555H13.81ZM12.649-6.4h7.4v1h-7.4Zm9.266-.58,1.021.212q-.147.376-.315.756t-.335.719q-.168.339-.323.6l-.858-.221a6.386,6.386,0,0,0,.306-.637q.151-.36.286-.735T21.916-6.978ZM20.674-5.3l1.013-.037q.572-.02,1.2-.053t1.267-.057l-.008.858-1.209.082q-.6.041-1.16.074t-1.021.065Zm.49,1.316h2.59v.8H22.071V.727h-.907Zm2.125,0h.972V-.261a1.459,1.459,0,0,1-.074.511.554.554,0,0,1-.286.3,1.2,1.2,0,0,1-.49.139q-.286.025-.654.025a2.406,2.406,0,0,0-.127-.445,2.965,2.965,0,0,0-.192-.421q.221.008.433.008t.286-.008a.158.158,0,0,0,.106-.025.142.142,0,0,0,.025-.1ZM21.572-2.754h2.272v.727H21.572Zm0,1.2h2.272v.727H21.572Zm3.334-5.36h.972v2.46a.376.376,0,0,0,.065.27.494.494,0,0,0,.294.057h.9a.291.291,0,0,0,.2-.061.453.453,0,0,0,.1-.245,4.529,4.529,0,0,0,.049-.543,1.091,1.091,0,0,0,.253.151q.155.069.319.127t.294.09a3.041,3.041,0,0,1-.168.825.759.759,0,0,1-.347.413,1.34,1.34,0,0,1-.613.118H26.108a1.979,1.979,0,0,1-.744-.11A.629.629,0,0,1,25-3.73a2.076,2.076,0,0,1-.1-.715Zm2.451.482.621.719q-.368.172-.789.331t-.854.3q-.433.139-.842.245a2.02,2.02,0,0,0-.118-.335q-.086-.2-.159-.335.376-.123.768-.274t.748-.323Q27.088-6.276,27.358-6.431ZM24.906-3.089h.972V-.515q0,.221.069.278a.537.537,0,0,0,.306.057h.923A.3.3,0,0,0,27.4-.253a.549.549,0,0,0,.11-.286,5.179,5.179,0,0,0,.053-.629,1.877,1.877,0,0,0,.409.217A3.486,3.486,0,0,0,28.42-.8a3.586,3.586,0,0,1-.168.895A.813.813,0,0,1,27.9.547a1.277,1.277,0,0,1-.625.131H26.108a1.951,1.951,0,0,1-.735-.11A.644.644,0,0,1,25.008.2a1.97,1.97,0,0,1-.1-.707Zm2.509.335.646.719a6.989,6.989,0,0,1-.809.38q-.441.176-.891.331t-.883.278a2.259,2.259,0,0,0-.118-.343,2.9,2.9,0,0,0-.168-.343q.4-.131.809-.3t.776-.355A5.962,5.962,0,0,0,27.415-2.754ZM23.027-6.088l.825-.311q.2.294.4.637t.351.674a4.243,4.243,0,0,1,.241.6l-.9.351a4.054,4.054,0,0,0-.208-.6q-.143-.335-.327-.69T23.027-6.088Z" transform="translate(2348.199 5196.685)" fill="#fff"/>
      </g>
      <g id="グループ_263" data-name="グループ 263">
        <rect id="長方形_151" data-name="長方形 151" width="138.232" height="12.257" transform="translate(2129.064 5187.451)" fill="#82c195"/>
        <path id="パス_778" data-name="パス 778" d="M-33.437-4.3V-3.6h.8V-4.3Zm0,1.479v.7h.8v-.7Zm0-2.95v.686h.8v-.686Zm-.825-.85h2.484v5.352h-2.484ZM-32.882-.85l.744-.417q.155.188.323.417T-31.5-.4q.143.221.233.392l-.784.466a3.3,3.3,0,0,0-.212-.4q-.139-.229-.3-.47T-32.882-.85Zm-1.16-.343.891.245a5.967,5.967,0,0,1-.5.932,5.426,5.426,0,0,1-.6.776q-.09-.074-.233-.172T-34.769.4q-.147-.09-.253-.147a3.726,3.726,0,0,0,.56-.662A4.085,4.085,0,0,0-34.042-1.193Zm4.02-5.753h.891V-.368a1.743,1.743,0,0,1-.078.58.591.591,0,0,1-.3.327A1.5,1.5,0,0,1-30.05.69a7.544,7.544,0,0,1-.813.037,2.98,2.98,0,0,0-.106-.47,3.633,3.633,0,0,0-.172-.47q.311.008.58.012l.368,0a.217.217,0,0,0,.135-.045.176.176,0,0,0,.037-.127ZM-31.37-6.1h.842v4.739h-.842Zm-4.862-.057.556-.711q.221.09.47.221t.474.274a2.465,2.465,0,0,1,.364.274l-.588.784a1.915,1.915,0,0,0-.339-.29q-.217-.151-.462-.3A5.1,5.1,0,0,0-36.232-6.161Zm-.311,2.19L-36-4.7q.229.09.478.208t.474.253a2.494,2.494,0,0,1,.364.257l-.572.793a2.885,2.885,0,0,0-.347-.27q-.217-.147-.462-.282T-36.542-3.971ZM-36.4.139q.155-.319.339-.752t.376-.919q.192-.486.347-.96l.793.507q-.131.441-.294.895t-.335.891q-.172.437-.343.846Zm9.626-4.617h4.519v.94h-4.519Zm2.263,1.961h2.754v.923h-2.754Zm-.515-1.414h1.021V.016l-1.021-.123Zm-1.953.842,1.021.106a8.826,8.826,0,0,1-.556,2.206A4.039,4.039,0,0,1-27.611.784,3.121,3.121,0,0,0-27.84.564q-.147-.131-.306-.253t-.274-.2a3,3,0,0,0,1-1.32A6.85,6.85,0,0,0-26.982-3.089Zm.793,1.03a2.613,2.613,0,0,0,.494.9,2.008,2.008,0,0,0,.711.523,3.342,3.342,0,0,0,.887.241,7.607,7.607,0,0,0,1.021.065h.854q.274,0,.56,0l.531-.008q.245,0,.409-.012a2.046,2.046,0,0,0-.143.3q-.069.176-.127.364a2.564,2.564,0,0,0-.082.343h-2.051a8.082,8.082,0,0,1-1.307-.1A3.419,3.419,0,0,1-25.507.2a2.68,2.68,0,0,1-.85-.74A4.3,4.3,0,0,1-26.99-1.8Zm1.144-4.87H-24v1.487h-1.046ZM-28.02-6.1H-21v2.051h-1.005V-5.181h-5.05v1.128h-.964Zm8.155.5q.245-.008.466-.02l.335-.02q.253-.016.625-.053t.833-.078q.462-.041.985-.082t1.087-.09q.425-.041.846-.069t.8-.049q.38-.02.666-.029l.008,1.046q-.221,0-.507.008t-.568.029a2.827,2.827,0,0,0-.5.078,2.052,2.052,0,0,0-.686.331,2.564,2.564,0,0,0-.552.547,2.63,2.63,0,0,0-.364.678,2.148,2.148,0,0,0-.131.731,1.654,1.654,0,0,0,.143.707,1.555,1.555,0,0,0,.392.523,2.2,2.2,0,0,0,.584.36,3.493,3.493,0,0,0,.723.217,6.311,6.311,0,0,0,.8.1L-14.259.376a5.086,5.086,0,0,1-1-.163,4.232,4.232,0,0,1-.911-.36,2.924,2.924,0,0,1-.74-.56,2.552,2.552,0,0,1-.5-.76,2.414,2.414,0,0,1-.184-.96,3.023,3.023,0,0,1,.188-1.083,3.456,3.456,0,0,1,.47-.866,2.832,2.832,0,0,1,.56-.576q-.229.033-.552.065t-.695.078l-.756.094q-.384.049-.74.11t-.641.118Zm5.483,1.356q.106.147.225.347t.233.4q.114.2.2.364l-.621.278q-.155-.343-.3-.6A4.919,4.919,0,0,0-14.986-4Zm.915-.376q.106.147.233.339t.249.392q.123.2.2.355l-.613.294q-.163-.327-.315-.58a5.752,5.752,0,0,0-.355-.523Zm3.081.458h4.445v.923h-4.445Zm-.883-2.46h2.321v.842h-2.321Zm-.18,4.306h6.521v.9h-6.521ZM-9.3-6.627h.18l.172-.033.654.294a5.8,5.8,0,0,1-.535,1.16,5.651,5.651,0,0,1-.74.968,6.239,6.239,0,0,1-.9.78,6.971,6.971,0,0,1-1.005.6,3.193,3.193,0,0,0-.274-.392,2.846,2.846,0,0,0-.323-.351,4.656,4.656,0,0,0,.883-.482,5.77,5.77,0,0,0,.8-.666,4.972,4.972,0,0,0,.654-.8A3.861,3.861,0,0,0-9.3-6.464ZM-9.691-3.7h.972v1.414a4.662,4.662,0,0,1-.082.866,2.6,2.6,0,0,1-.319.838,2.626,2.626,0,0,1-.695.752,4.224,4.224,0,0,1-1.218.6A1.769,1.769,0,0,0-11.2.507q-.11-.147-.233-.29a2.729,2.729,0,0,0-.221-.233,4.116,4.116,0,0,0,1.046-.466,2.021,2.021,0,0,0,.588-.564,1.8,1.8,0,0,0,.261-.625,3.225,3.225,0,0,0,.065-.641Zm2.419-3.228a5.873,5.873,0,0,0,.7,1.316,5.551,5.551,0,0,0,1.026,1.1,4.956,4.956,0,0,0,1.3.768,2.132,2.132,0,0,0-.241.249q-.127.151-.245.311a2.779,2.779,0,0,0-.192.29A5.4,5.4,0,0,1-6.3-3.816a6.492,6.492,0,0,1-1.07-1.291,8.882,8.882,0,0,1-.789-1.577Zm-4.241,1.781.613-.507q.163.106.339.245l.339.27a3.311,3.311,0,0,1,.27.237l-.646.572a2.994,2.994,0,0,0-.249-.253q-.159-.147-.335-.294T-11.513-5.148Zm5.377-1.667.744.515q-.327.294-.674.58t-.641.482L-7.3-5.7q.188-.139.4-.331t.417-.4A4.456,4.456,0,0,0-6.137-6.815Zm.981.94.719.5q-.327.3-.707.6t-.7.5l-.588-.449q.2-.147.437-.347t.458-.413Q-5.311-5.7-5.156-5.875ZM-7.7-3.661h1.021V-.539a.58.58,0,0,0,.045.29q.045.061.208.061h.629a.193.193,0,0,0,.168-.074.634.634,0,0,0,.078-.274q.025-.2.041-.584a2.063,2.063,0,0,0,.417.225,3.057,3.057,0,0,0,.466.159,3.448,3.448,0,0,1-.163.85.8.8,0,0,1-.331.437A1.136,1.136,0,0,1-5.7.678h-.9a1.68,1.68,0,0,1-.686-.11A.609.609,0,0,1-7.608.192,2.331,2.331,0,0,1-7.7-.531Zm5.99-.874v.507H1.716v-.507Zm0,1.307v.515H1.716v-.515Zm0-2.607v.507H1.716v-.507Zm-.948-.85H2.713v4.821H-2.656ZM.376-2.517H1.381V-.564q0,.2.061.249a.5.5,0,0,0,.29.053H2.59A.288.288,0,0,0,2.8-.335a.573.573,0,0,0,.106-.311q.033-.237.049-.719a1.741,1.741,0,0,0,.266.163,2.279,2.279,0,0,0,.335.139l.3.1a4.183,4.183,0,0,1-.172,1,.871.871,0,0,1-.36.494A1.276,1.276,0,0,1,2.68.67H1.593A1.947,1.947,0,0,1,.846.556.655.655,0,0,1,.478.172a2.106,2.106,0,0,1-.1-.727Zm-1.994.335H-.572A5.765,5.765,0,0,1-.748-1.164a2.386,2.386,0,0,1-.409.829,2.4,2.4,0,0,1-.8.641,5.486,5.486,0,0,1-1.34.462,1.34,1.34,0,0,0-.135-.3q-.094-.159-.2-.319a1.553,1.553,0,0,0-.217-.257A5.041,5.041,0,0,0-2.713-.429a1.9,1.9,0,0,0,.65-.445,1.44,1.44,0,0,0,.315-.576A4.352,4.352,0,0,0-1.618-2.182ZM4.65-5.606q.245-.008.466-.02l.335-.02q.253-.016.625-.053t.833-.078q.462-.041.985-.082t1.087-.09q.425-.041.846-.069t.8-.049q.38-.02.666-.029L11.3-5.05q-.221,0-.507.008t-.568.029a2.827,2.827,0,0,0-.5.078,2.052,2.052,0,0,0-.686.331,2.564,2.564,0,0,0-.552.547,2.63,2.63,0,0,0-.364.678,2.148,2.148,0,0,0-.131.731,1.654,1.654,0,0,0,.143.707,1.555,1.555,0,0,0,.392.523,2.2,2.2,0,0,0,.584.36,3.493,3.493,0,0,0,.723.217,6.311,6.311,0,0,0,.8.1L10.255.376a5.086,5.086,0,0,1-1-.163,4.232,4.232,0,0,1-.911-.36,2.924,2.924,0,0,1-.74-.56,2.552,2.552,0,0,1-.5-.76,2.414,2.414,0,0,1-.184-.96A3.023,3.023,0,0,1,7.109-3.51a3.456,3.456,0,0,1,.47-.866,2.832,2.832,0,0,1,.56-.576q-.229.033-.552.065t-.695.078l-.756.094q-.384.049-.74.11t-.641.118Zm5.483,1.356q.106.147.225.347t.233.4q.114.2.2.364l-.621.278q-.155-.343-.3-.6A4.919,4.919,0,0,0,9.528-4Zm.915-.376q.106.147.233.339t.249.392q.123.2.2.355l-.613.294q-.163-.327-.315-.58a5.752,5.752,0,0,0-.355-.523ZM13.6-5.867q.9.106,1.655.127a13.691,13.691,0,0,0,1.4-.029,10.737,10.737,0,0,0,1.079-.147,9.181,9.181,0,0,0,1.013-.253l.131.94q-.441.123-.956.212t-1.054.139q-.629.049-1.45.045t-1.761-.094ZM13.45-4.151q.744.065,1.422.09t1.275,0q.6-.025,1.087-.065a8.2,8.2,0,0,0,1.136-.168q.474-.11.825-.208l.163.964q-.368.09-.809.172t-.94.139q-.523.049-1.2.078t-1.418.016q-.744-.012-1.487-.053Zm2.729-1.487q-.057-.229-.131-.454t-.163-.462l1.1-.123q.049.384.127.756t.18.715q.1.343.2.662.1.278.257.633T18.1-3.2q.188.355.376.641.082.114.168.217a1.735,1.735,0,0,0,.2.2l-.5.752q-.229-.049-.568-.1t-.7-.09l-.666-.074.082-.776q.253.025.552.049t.478.049a10.147,10.147,0,0,1-.56-1.07q-.233-.523-.388-.972-.1-.286-.163-.494t-.118-.392Zm-1.16,3.383a2.924,2.924,0,0,0-.253.421,1.089,1.089,0,0,0-.106.486.674.674,0,0,0,.421.65,2.961,2.961,0,0,0,1.23.2q.58,0,1.1-.049t.952-.131L18.3.36q-.425.074-.956.114t-1.03.041a5.1,5.1,0,0,1-1.41-.172,1.919,1.919,0,0,1-.919-.535,1.389,1.389,0,0,1-.335-.944,2,2,0,0,1,.1-.707,6.329,6.329,0,0,1,.249-.609Zm6.088-3.1q.261.033.56.045t.527.012a9.354,9.354,0,0,0,1.026-.057q.519-.057,1-.151a8.207,8.207,0,0,0,.874-.217l.033.948q-.351.09-.838.184t-1.026.155a9.4,9.4,0,0,1-1.062.061q-.245,0-.5-.008T21.18-4.4Zm3.179-1.226q-.049.2-.131.531t-.184.686q-.1.36-.217.711A11.04,11.04,0,0,1,23.28-3.4q-.294.662-.637,1.291a10.813,10.813,0,0,1-.695,1.119L20.96-1.5a8.839,8.839,0,0,0,.547-.76q.27-.417.507-.858t.429-.854a7.676,7.676,0,0,0,.306-.748,8.007,8.007,0,0,0,.274-.968,5.57,5.57,0,0,0,.135-1.009ZM26.2-4.037q-.016.261-.012.519t.012.527q.008.188.02.478t.029.613q.016.323.029.613t.012.462a1.488,1.488,0,0,1-.155.682,1.123,1.123,0,0,1-.494.486,2,2,0,0,1-.927.18A2.622,2.622,0,0,1,23.8.372a1.5,1.5,0,0,1-.654-.449A1.139,1.139,0,0,1,22.9-.825a1.287,1.287,0,0,1,.212-.723,1.417,1.417,0,0,1,.617-.507,2.349,2.349,0,0,1,.976-.184,4.19,4.19,0,0,1,1.324.2,4.76,4.76,0,0,1,1.087.511,6.379,6.379,0,0,1,.825.621l-.547.874q-.221-.2-.5-.441a4.67,4.67,0,0,0-.629-.458,3.8,3.8,0,0,0-.752-.351,2.662,2.662,0,0,0-.87-.139,1.017,1.017,0,0,0-.564.139.416.416,0,0,0-.212.36.439.439,0,0,0,.184.368.846.846,0,0,0,.519.139A.885.885,0,0,0,25-.511a.506.506,0,0,0,.229-.27,1.13,1.13,0,0,0,.065-.4q0-.188-.016-.531t-.037-.76q-.02-.417-.037-.833t-.033-.735ZM27.6-3.6a5.61,5.61,0,0,0-.588-.417q-.351-.221-.723-.421t-.65-.323l.523-.809q.221.1.5.241t.572.3q.29.155.539.306t.4.266Zm3.121-2.239a3.1,3.1,0,0,0-.053.335q-.02.188-.033.368t-.012.294q-.008.27,0,.556t.016.584q.012.3.037.592a7.858,7.858,0,0,0,.163,1.038,2.091,2.091,0,0,0,.278.7.51.51,0,0,0,.433.249.374.374,0,0,0,.274-.155,1.606,1.606,0,0,0,.245-.4,4.8,4.8,0,0,0,.2-.527q.086-.278.151-.523l.817,1A6.456,6.456,0,0,1,32.7-.609a1.92,1.92,0,0,1-.552.6,1.126,1.126,0,0,1-.621.184,1.383,1.383,0,0,1-.838-.294,2.235,2.235,0,0,1-.674-.952,6.284,6.284,0,0,1-.392-1.753q-.041-.376-.061-.793T29.535-4.4q0-.376,0-.621,0-.172-.016-.409a4.175,4.175,0,0,0-.049-.425Zm4.086.188a4.061,4.061,0,0,1,.441.678,8.32,8.32,0,0,1,.392.858q.18.458.319.936t.225.932a6.917,6.917,0,0,1,.11.829l-1.079.417q-.041-.5-.147-1.087a10.685,10.685,0,0,0-.286-1.185A8.264,8.264,0,0,0,34.357-4.4a3.906,3.906,0,0,0-.584-.915Z" transform="translate(2198.18 5196.685)" fill="#fff"/>
      </g>
      <g id="グループ_264" data-name="グループ 264">
        <path id="パス_244" data-name="パス 244" d="M2143.134,5151.314l252.083-9.819v19.1Z" fill="#dbc5ed"/>
        <path id="パス_245" data-name="パス 245" d="M2149.634,5151.314l-1.386,1.662.144,2.16-2.1.528-1.151,1.834-2.009-.808-2.01.807-1.151-1.833-2.1-.529.145-2.159-1.386-1.662,1.386-1.662-.145-2.16,2.1-.528,1.151-1.834,2.009.808,2.01-.807,1.151,1.833,2.1.529-.145,2.159Z" fill="#a07bbd"/>
        <path id="パス_246" data-name="パス 246" d="M2229.283,5151.314l-1.792,2.149.187,2.792-2.714.684-1.488,2.371-2.6-1.044-2.6,1.044-1.488-2.372-2.714-.684.187-2.792-1.792-2.149,1.792-2.149-.187-2.792,2.714-.684,1.488-2.371,2.6,1.044,2.6-1.044,1.488,2.371,2.714.684-.187,2.792Z" fill="#a07bbd"/>
        <path id="パス_247" data-name="パス 247" d="M2305.238,5151.314l-3.408,4.087.355,5.311-5.162,1.3-2.83,4.51-4.941-1.986-4.941,1.986-2.83-4.51-5.162-1.3.355-5.311-3.408-4.087,3.408-4.087-.355-5.311,5.162-1.3,2.83-4.51,4.941,1.986,4.941-1.986,2.83,4.509,5.162,1.3-.355,5.311Z" fill="#a07bbd"/>
        <path id="パス_248" data-name="パス 248" d="M2358.069,5151.314l-3.912,4.692.408,6.1-5.927,1.493-3.249,5.177-5.673-2.28-5.673,2.28-3.249-5.177-5.927-1.493.408-6.1-3.913-4.692,3.913-4.692-.408-6.1,5.927-1.493,3.249-5.177,5.672,2.28,5.673-2.28,3.249,5.177,5.926,1.493-.408,6.1Z" fill="#a07bbd"/>
        <path id="パス_249" data-name="パス 249" d="M2419.45,5151.314l-5.167,6.2.538,8.05-7.825,1.971-4.29,6.835-7.49-3.01-7.49,3.01-4.29-6.836-7.825-1.971.539-8.05-5.166-6.2,5.166-6.2-.538-8.05,7.826-1.971,4.29-6.835,7.49,3.01,7.491-3.01,4.29,6.836,7.826,1.971-.539,8.05Z" fill="#a07bbd"/>
        <path id="パス_777" data-name="パス 777" d="M-7.744.076a1.149,1.149,0,0,1-.722-.237,1.507,1.507,0,0,1-.477-.695,3.26,3.26,0,0,1-.169-1.122A3.208,3.208,0,0,1-8.942-3.1a1.454,1.454,0,0,1,.477-.678A1.177,1.177,0,0,1-7.744-4a1.177,1.177,0,0,1,.722.229,1.454,1.454,0,0,1,.477.678,3.208,3.208,0,0,1,.169,1.119A3.26,3.26,0,0,1-6.545-.855a1.507,1.507,0,0,1-.477.695A1.149,1.149,0,0,1-7.744.076Zm0-.626a.447.447,0,0,0,.316-.128.892.892,0,0,0,.212-.441,3.793,3.793,0,0,0,.076-.858,3.712,3.712,0,0,0-.076-.855.827.827,0,0,0-.212-.425.464.464,0,0,0-.316-.12.46.46,0,0,0-.308.12.842.842,0,0,0-.221.425,3.473,3.473,0,0,0-.082.855,3.549,3.549,0,0,0,.082.858.907.907,0,0,0,.221.441A.444.444,0,0,0-7.744-.55Zm2.495.626a.469.469,0,0,1-.36-.153.525.525,0,0,1-.142-.37.52.52,0,0,1,.142-.376.478.478,0,0,1,.36-.147.471.471,0,0,1,.354.147.52.52,0,0,1,.142.376.525.525,0,0,1-.142.37A.463.463,0,0,1-5.249.076ZM-3.92,0V-.654h.872V-3.089h-.735v-.5a3.435,3.435,0,0,0,.526-.142,2.453,2.453,0,0,0,.411-.2h.594V-.654H-1.5V0Zm3.2,0V-3.051h.654l.06.409H.008a2.373,2.373,0,0,1,.414-.34.942.942,0,0,1,.523-.144.9.9,0,0,1,.526.139.894.894,0,0,1,.308.395,2.843,2.843,0,0,1,.449-.379.922.922,0,0,1,.526-.155A.812.812,0,0,1,3.47-2.8a1.557,1.557,0,0,1,.226.9V0H2.9V-1.8a.875.875,0,0,0-.1-.5.372.372,0,0,0-.321-.142.547.547,0,0,0-.275.084,1.531,1.531,0,0,0-.313.259V0h-.8V-1.8a.875.875,0,0,0-.1-.5.372.372,0,0,0-.321-.142.568.568,0,0,0-.275.084A1.272,1.272,0,0,0,.079-2.1V0ZM4.53,0V-3.051h.654l.06.409H5.26a2.373,2.373,0,0,1,.414-.34A.942.942,0,0,1,6.2-3.127a.9.9,0,0,1,.526.139.894.894,0,0,1,.308.395,2.843,2.843,0,0,1,.449-.379.922.922,0,0,1,.526-.155.812.812,0,0,1,.716.324,1.557,1.557,0,0,1,.226.9V0h-.8V-1.8a.875.875,0,0,0-.1-.5.372.372,0,0,0-.321-.142.547.547,0,0,0-.275.084,1.531,1.531,0,0,0-.313.259V0h-.8V-1.8a.875.875,0,0,0-.1-.5.372.372,0,0,0-.321-.142.568.568,0,0,0-.275.084A1.272,1.272,0,0,0,5.33-2.1V0Z" transform="translate(2143.133 5165.918)" fill="#333"/>
        <path id="パス_776" data-name="パス 776" d="M-7.744.076a1.149,1.149,0,0,1-.722-.237,1.507,1.507,0,0,1-.477-.695,3.26,3.26,0,0,1-.169-1.122A3.208,3.208,0,0,1-8.942-3.1a1.454,1.454,0,0,1,.477-.678A1.177,1.177,0,0,1-7.744-4a1.177,1.177,0,0,1,.722.229,1.454,1.454,0,0,1,.477.678,3.208,3.208,0,0,1,.169,1.119A3.26,3.26,0,0,1-6.545-.855a1.507,1.507,0,0,1-.477.695A1.149,1.149,0,0,1-7.744.076Zm0-.626a.447.447,0,0,0,.316-.128.892.892,0,0,0,.212-.441,3.793,3.793,0,0,0,.076-.858,3.712,3.712,0,0,0-.076-.855.827.827,0,0,0-.212-.425.464.464,0,0,0-.316-.12.46.46,0,0,0-.308.12.842.842,0,0,0-.221.425,3.473,3.473,0,0,0-.082.855,3.549,3.549,0,0,0,.082.858.907.907,0,0,0,.221.441A.444.444,0,0,0-7.744-.55Zm2.495.626a.469.469,0,0,1-.36-.153.525.525,0,0,1-.142-.37.52.52,0,0,1,.142-.376.478.478,0,0,1,.36-.147.471.471,0,0,1,.354.147.52.52,0,0,1,.142.376.525.525,0,0,1-.142.37A.463.463,0,0,1-5.249.076ZM-4.132,0V-.463q.523-.5.915-.907a5.117,5.117,0,0,0,.61-.741,1.162,1.162,0,0,0,.218-.624.761.761,0,0,0-.071-.343.5.5,0,0,0-.2-.218.656.656,0,0,0-.33-.076.692.692,0,0,0-.4.125,2.025,2.025,0,0,0-.335.289l-.447-.436a2.236,2.236,0,0,1,.58-.455A1.5,1.5,0,0,1-2.89-4a1.4,1.4,0,0,1,.667.153,1.1,1.1,0,0,1,.444.428,1.274,1.274,0,0,1,.158.646,1.47,1.47,0,0,1-.188.692,4.045,4.045,0,0,1-.5.716q-.308.362-.673.744.153-.022.338-.035t.327-.014h.883V0Zm3.41,0V-3.051h.654l.06.409H.008a2.373,2.373,0,0,1,.414-.34.942.942,0,0,1,.523-.144.9.9,0,0,1,.526.139.894.894,0,0,1,.308.395,2.843,2.843,0,0,1,.449-.379.922.922,0,0,1,.526-.155A.812.812,0,0,1,3.47-2.8a1.557,1.557,0,0,1,.226.9V0H2.9V-1.8a.875.875,0,0,0-.1-.5.372.372,0,0,0-.321-.142.547.547,0,0,0-.275.084,1.531,1.531,0,0,0-.313.259V0h-.8V-1.8a.875.875,0,0,0-.1-.5.372.372,0,0,0-.321-.142.568.568,0,0,0-.275.084A1.272,1.272,0,0,0,.079-2.1V0ZM4.53,0V-3.051h.654l.06.409H5.26a2.373,2.373,0,0,1,.414-.34A.942.942,0,0,1,6.2-3.127a.9.9,0,0,1,.526.139.894.894,0,0,1,.308.395,2.843,2.843,0,0,1,.449-.379.922.922,0,0,1,.526-.155.812.812,0,0,1,.716.324,1.557,1.557,0,0,1,.226.9V0h-.8V-1.8a.875.875,0,0,0-.1-.5.372.372,0,0,0-.321-.142.547.547,0,0,0-.275.084,1.531,1.531,0,0,0-.313.259V0h-.8V-1.8a.875.875,0,0,0-.1-.5.372.372,0,0,0-.321-.142.568.568,0,0,0-.275.084A1.272,1.272,0,0,0,5.33-2.1V0Z" transform="translate(2220.877 5168.08)" fill="#333"/>
        <path id="パス_775" data-name="パス 775" d="M-5.222,0V-.654h.872V-3.089h-.735v-.5a3.435,3.435,0,0,0,.526-.142,2.453,2.453,0,0,0,.411-.2h.594V-.654H-2.8V0ZM-.727.076a1.513,1.513,0,0,1-.757-.191,1.372,1.372,0,0,1-.534-.547,1.769,1.769,0,0,1-.2-.863A1.642,1.642,0,0,1-2-2.389a1.465,1.465,0,0,1,.572-.547,1.61,1.61,0,0,1,.771-.191,1.24,1.24,0,0,1,.5.1,1.423,1.423,0,0,1,.387.248l-.381.507a.818.818,0,0,0-.223-.147.6.6,0,0,0-.24-.049.728.728,0,0,0-.411.117.754.754,0,0,0-.272.33,1.216,1.216,0,0,0-.1.5,1.216,1.216,0,0,0,.1.5.768.768,0,0,0,.267.33.675.675,0,0,0,.39.117A.742.742,0,0,0-.324-.648,1.281,1.281,0,0,0-.046-.823L.27-.294a1.423,1.423,0,0,1-.482.281A1.594,1.594,0,0,1-.727.076ZM.847,0V-3.051H1.5l.06.409h.016a2.373,2.373,0,0,1,.414-.34.942.942,0,0,1,.523-.144.9.9,0,0,1,.526.139.894.894,0,0,1,.308.395A2.843,2.843,0,0,1,3.8-2.972a.922.922,0,0,1,.526-.155.812.812,0,0,1,.716.324,1.557,1.557,0,0,1,.226.9V0h-.8V-1.8a.875.875,0,0,0-.1-.5.372.372,0,0,0-.321-.142.547.547,0,0,0-.275.084,1.531,1.531,0,0,0-.313.259V0h-.8V-1.8a.875.875,0,0,0-.1-.5.372.372,0,0,0-.321-.142.568.568,0,0,0-.275.084,1.272,1.272,0,0,0-.308.259V0Z" transform="translate(2289.251 5175.702)" fill="#333"/>
        <path id="パス_774" data-name="パス 774" d="M-5.434,0V-.463q.523-.5.915-.907a5.117,5.117,0,0,0,.61-.741,1.162,1.162,0,0,0,.218-.624.761.761,0,0,0-.071-.343.5.5,0,0,0-.2-.218.656.656,0,0,0-.33-.076.692.692,0,0,0-.4.125,2.025,2.025,0,0,0-.335.289l-.447-.436a2.236,2.236,0,0,1,.58-.455A1.5,1.5,0,0,1-4.192-4a1.4,1.4,0,0,1,.667.153,1.1,1.1,0,0,1,.444.428,1.274,1.274,0,0,1,.158.646,1.47,1.47,0,0,1-.188.692,4.045,4.045,0,0,1-.5.716q-.308.362-.673.744.153-.022.338-.035t.327-.014h.883V0ZM-.727.076a1.513,1.513,0,0,1-.757-.191,1.372,1.372,0,0,1-.534-.547,1.769,1.769,0,0,1-.2-.863A1.642,1.642,0,0,1-2-2.389a1.465,1.465,0,0,1,.572-.547,1.61,1.61,0,0,1,.771-.191,1.24,1.24,0,0,1,.5.1,1.423,1.423,0,0,1,.387.248l-.381.507a.818.818,0,0,0-.223-.147.6.6,0,0,0-.24-.049.728.728,0,0,0-.411.117.754.754,0,0,0-.272.33,1.216,1.216,0,0,0-.1.5,1.216,1.216,0,0,0,.1.5.768.768,0,0,0,.267.33.675.675,0,0,0,.39.117A.742.742,0,0,0-.324-.648,1.281,1.281,0,0,0-.046-.823L.27-.294a1.423,1.423,0,0,1-.482.281A1.594,1.594,0,0,1-.727.076ZM.847,0V-3.051H1.5l.06.409h.016a2.373,2.373,0,0,1,.414-.34.942.942,0,0,1,.523-.144.9.9,0,0,1,.526.139.894.894,0,0,1,.308.395A2.843,2.843,0,0,1,3.8-2.972a.922.922,0,0,1,.526-.155.812.812,0,0,1,.716.324,1.557,1.557,0,0,1,.226.9V0h-.8V-1.8a.875.875,0,0,0-.1-.5.372.372,0,0,0-.321-.142.547.547,0,0,0-.275.084,1.531,1.531,0,0,0-.313.259V0h-.8V-1.8a.875.875,0,0,0-.1-.5.372.372,0,0,0-.321-.142.568.568,0,0,0-.275.084,1.272,1.272,0,0,0-.308.259V0Z" transform="translate(2339.717 5177.064)" fill="#333"/>
      </g>
      <g id="グループ_268" data-name="グループ 268">
        <g id="グループ_265" data-name="グループ 265">
          <rect id="長方形_152" data-name="長方形 152" width="138.232" height="10.214" transform="translate(2129.064 5091.455)" fill="#fff766"/>
          <path id="パス_773" data-name="パス 773" d="M-21.089-2.7l.661-.327q.177.232.354.507t.32.545a2.9,2.9,0,0,1,.211.487l-.708.368a3.218,3.218,0,0,0-.194-.487q-.133-.276-.3-.562T-21.089-2.7Zm.232-1.927h2.445v.776h-2.445Zm2.091,0h.79v.238a1.2,1.2,0,0,1-.007.143q-.034,1.124-.071,1.91t-.092,1.3a6.436,6.436,0,0,1-.126.8,1.127,1.127,0,0,1-.18.429.839.839,0,0,1-.3.272,1.3,1.3,0,0,1-.371.109A3.342,3.342,0,0,1-19.594.6q-.289,0-.6-.007A1.584,1.584,0,0,0-20.272.18a1.684,1.684,0,0,0-.191-.412q.327.027.6.034t.4.007a.456.456,0,0,0,.174-.027.4.4,0,0,0,.126-.089.842.842,0,0,0,.143-.361,6.233,6.233,0,0,0,.106-.766q.044-.494.082-1.243t.065-1.791Zm-2.05-1.164.844.191a9.134,9.134,0,0,1-.344.991,8.242,8.242,0,0,1-.439.909,5.055,5.055,0,0,1-.5.735,2.6,2.6,0,0,0-.211-.17q-.129-.1-.272-.184t-.245-.143A3.334,3.334,0,0,0-21.5-4.11a6,6,0,0,0,.392-.8A7.149,7.149,0,0,0-20.817-5.795Zm-2.4.014.722.252q-.136.266-.286.541t-.293.531a4.838,4.838,0,0,1-.279.446l-.552-.225q.123-.211.252-.48t.245-.548Q-23.3-5.543-23.22-5.781Zm.817.81.695.286q-.252.388-.545.814t-.592.814q-.3.388-.558.681l-.5-.252q.2-.232.4-.524t.405-.606q.2-.313.381-.63T-22.4-4.971Zm-1.866.8.388-.558q.177.15.368.337t.351.371a1.807,1.807,0,0,1,.242.34l-.415.633a2.565,2.565,0,0,0-.235-.357q-.153-.2-.337-.4T-24.269-4.167Zm1.7.838.579-.252q.136.225.266.483t.225.507a3.668,3.668,0,0,1,.143.446l-.626.286a3.863,3.863,0,0,0-.129-.446q-.089-.255-.208-.524T-22.567-3.33Zm-1.7.545q.47-.014,1.134-.041t1.352-.061l-.007.647-1.273.092q-.633.044-1.137.071Zm1.818,1.158.6-.2a6.591,6.591,0,0,1,.266.667,5.318,5.318,0,0,1,.177.626l-.633.232a5.254,5.254,0,0,0-.163-.643Q-22.321-1.314-22.451-1.627Zm-1.525-.157.674.123a8.6,8.6,0,0,1-.163.967,4.567,4.567,0,0,1-.252.8A1.5,1.5,0,0,0-23.9,0q-.116-.058-.235-.112a1.752,1.752,0,0,0-.208-.082,3.114,3.114,0,0,0,.238-.732A7.8,7.8,0,0,0-23.976-1.784Zm.79-.64h.722V.613h-.722ZM-16.125,0V-.81h1.5v-3.2h-1.185v-.626q.477-.089.824-.16a1.71,1.71,0,0,0,.626-.262h.735V-.81h1.362V0Zm8.7.089a1.79,1.79,0,0,1-1.028-.3A1.932,1.932,0,0,1-9.138-1.1a3.792,3.792,0,0,1-.245-1.454,3.642,3.642,0,0,1,.245-1.43,1.875,1.875,0,0,1,.688-.861,1.836,1.836,0,0,1,1.028-.289,1.836,1.836,0,0,1,1.028.289,1.875,1.875,0,0,1,.688.861,3.642,3.642,0,0,1,.245,1.43A3.792,3.792,0,0,1-5.706-1.1a1.932,1.932,0,0,1-.688.889A1.79,1.79,0,0,1-7.422.089Zm0-.783a.828.828,0,0,0,.507-.17,1.154,1.154,0,0,0,.364-.579,3.627,3.627,0,0,0,.136-1.11,3.458,3.458,0,0,0-.136-1.093,1.062,1.062,0,0,0-.364-.548.876.876,0,0,0-.507-.157.876.876,0,0,0-.507.157,1.062,1.062,0,0,0-.364.548A3.458,3.458,0,0,0-8.43-2.554a3.627,3.627,0,0,0,.136,1.11,1.154,1.154,0,0,0,.364.579A.828.828,0,0,0-7.422-.695Zm5.093-5.121.838.218a8.621,8.621,0,0,1-.432.987,7.6,7.6,0,0,1-.538.9,5.414,5.414,0,0,1-.6.718l-.211-.174q-.129-.106-.262-.2t-.235-.157a3.816,3.816,0,0,0,.586-.63,5.507,5.507,0,0,0,.49-.79A5.848,5.848,0,0,0-2.329-5.815Zm.15.776H2.152v.79H-2.574Zm-.483,1.614H1.988v.763H-1.845v1.43h-.817ZM-3.745-1.634H2.52v.783H-3.745Zm3.085-3H.184V.613H-.661ZM5.89-2.295a2.18,2.18,0,0,0-.443-.361,1.112,1.112,0,0,0-.572-.129.952.952,0,0,0-.609.228,1.861,1.861,0,0,0-.473.589l-.749-.409a2.557,2.557,0,0,1,.824-.943A1.851,1.851,0,0,1,4.9-3.629a2.005,2.005,0,0,1,.875.184A2.4,2.4,0,0,1,6.5-2.88a2.133,2.133,0,0,0,.446.361,1.116,1.116,0,0,0,.569.129.952.952,0,0,0,.609-.228A1.861,1.861,0,0,0,8.6-3.207l.749.409a2.557,2.557,0,0,1-.824.943,1.851,1.851,0,0,1-1.028.31,2.011,2.011,0,0,1-.872-.184A2.388,2.388,0,0,1,5.89-2.295ZM9.894,0V-.579q.688-.613,1.175-1.137a5.458,5.458,0,0,0,.746-.977,1.714,1.714,0,0,0,.259-.841.978.978,0,0,0-.089-.429.644.644,0,0,0-.255-.283.8.8,0,0,0-.412-.1.879.879,0,0,0-.5.153,2.265,2.265,0,0,0-.419.364L9.84-4.365a2.736,2.736,0,0,1,.725-.575,1.879,1.879,0,0,1,.882-.194,1.722,1.722,0,0,1,.834.194,1.385,1.385,0,0,1,.555.541,1.625,1.625,0,0,1,.2.817,2.13,2.13,0,0,1-.228.929,4.84,4.84,0,0,1-.609.943,11.3,11.3,0,0,1-.844.926q.2-.027.426-.044t.405-.017h1.09V0Zm5.734.1a1.426,1.426,0,0,1-.9-.3,1.9,1.9,0,0,1-.6-.885,4.3,4.3,0,0,1-.214-1.461,4.161,4.161,0,0,1,.214-1.44,1.835,1.835,0,0,1,.6-.861,1.46,1.46,0,0,1,.9-.286,1.445,1.445,0,0,1,.9.289,1.87,1.87,0,0,1,.6.861,4.132,4.132,0,0,1,.214,1.437,4.3,4.3,0,0,1-.214,1.461,1.915,1.915,0,0,1-.6.885A1.422,1.422,0,0,1,15.628.1Zm0-.783a.542.542,0,0,0,.395-.17,1.2,1.2,0,0,0,.266-.575,5.093,5.093,0,0,0,.1-1.113,4.956,4.956,0,0,0-.1-1.1,1.122,1.122,0,0,0-.266-.558.559.559,0,0,0-.395-.16.555.555,0,0,0-.385.16,1.141,1.141,0,0,0-.276.558,4.636,4.636,0,0,0-.1,1.1,4.764,4.764,0,0,0,.1,1.113,1.223,1.223,0,0,0,.276.575A.539.539,0,0,0,15.628-.688Zm3.7-5.128.838.218a8.621,8.621,0,0,1-.432.987,7.6,7.6,0,0,1-.538.9A5.414,5.414,0,0,1,18.6-3l-.211-.174q-.129-.106-.262-.2t-.235-.157a3.816,3.816,0,0,0,.586-.63,5.507,5.507,0,0,0,.49-.79A5.848,5.848,0,0,0,19.325-5.815Zm.15.776h4.331v.79H19.08Zm-.483,1.614h4.651v.763H19.809v1.43h-.817ZM17.909-1.634h6.265v.783H17.909Zm3.085-3h.844V.613h-.844Z" transform="translate(2198.18 5099.15)" fill="#333"/>
        </g>
        <g id="グループ_266" data-name="グループ 266">
          <rect id="長方形_153" data-name="長方形 153" width="55.157" height="10.214" transform="translate(2277.276 5091.455)" fill="#fff766"/>
          <path id="パス_772" data-name="パス 772" d="M-15.675-2.7l.661-.327q.177.232.354.507t.32.545a2.9,2.9,0,0,1,.211.487l-.708.368a3.218,3.218,0,0,0-.194-.487q-.133-.276-.3-.562T-15.675-2.7Zm.232-1.927H-13v.776h-2.445Zm2.091,0h.79v.238a1.2,1.2,0,0,1-.007.143q-.034,1.124-.071,1.91t-.092,1.3a6.436,6.436,0,0,1-.126.8,1.127,1.127,0,0,1-.18.429.839.839,0,0,1-.3.272,1.3,1.3,0,0,1-.371.109A3.342,3.342,0,0,1-14.181.6q-.289,0-.6-.007A1.584,1.584,0,0,0-14.858.18a1.684,1.684,0,0,0-.191-.412q.327.027.6.034t.4.007a.456.456,0,0,0,.174-.027.4.4,0,0,0,.126-.089.842.842,0,0,0,.143-.361,6.233,6.233,0,0,0,.106-.766q.044-.494.082-1.243t.065-1.791ZM-15.4-5.795l.844.191a9.133,9.133,0,0,1-.344.991,8.242,8.242,0,0,1-.439.909,5.055,5.055,0,0,1-.5.735,2.6,2.6,0,0,0-.211-.17q-.129-.1-.272-.184t-.245-.143a3.334,3.334,0,0,0,.483-.643,6,6,0,0,0,.392-.8A7.15,7.15,0,0,0-15.4-5.795Zm-2.4.014.722.252q-.136.266-.286.541t-.293.531a4.838,4.838,0,0,1-.279.446l-.552-.225q.123-.211.252-.48T-18-5.264Q-17.882-5.543-17.807-5.781Zm.817.81.695.286q-.252.388-.545.814t-.592.814q-.3.388-.558.681l-.5-.252q.2-.232.4-.524t.405-.606q.2-.313.381-.63T-16.99-4.971Zm-1.866.8.388-.558q.177.15.368.337t.351.371a1.807,1.807,0,0,1,.242.34l-.415.633a2.565,2.565,0,0,0-.235-.357q-.153-.2-.337-.4T-18.855-4.167Zm1.7.838.579-.252q.136.225.266.483t.225.507a3.668,3.668,0,0,1,.143.446l-.626.286a3.863,3.863,0,0,0-.129-.446q-.089-.255-.208-.524T-17.153-3.33Zm-1.7.545q.47-.014,1.134-.041t1.352-.061l-.007.647-1.273.092q-.633.044-1.137.071Zm1.818,1.158.6-.2a6.591,6.591,0,0,1,.266.667A5.318,5.318,0,0,1-16-.531l-.633.232a5.253,5.253,0,0,0-.163-.643Q-16.908-1.314-17.037-1.627Zm-1.525-.157.674.123a8.6,8.6,0,0,1-.163.967,4.567,4.567,0,0,1-.252.8A1.5,1.5,0,0,0-18.488,0q-.116-.058-.235-.112a1.752,1.752,0,0,0-.208-.082,3.114,3.114,0,0,0,.238-.732A7.8,7.8,0,0,0-18.563-1.784Zm.79-.64h.722V.613h-.722ZM-10.711,0V-.81h1.5v-3.2H-10.4v-.626q.477-.089.824-.16a1.71,1.71,0,0,0,.626-.262h.735V-.81H-6.85V0Zm6.987-5.815.838.218a8.621,8.621,0,0,1-.432.987,7.6,7.6,0,0,1-.538.9,5.414,5.414,0,0,1-.6.718l-.211-.174q-.129-.106-.262-.2t-.235-.157a3.816,3.816,0,0,0,.586-.63,5.507,5.507,0,0,0,.49-.79A5.848,5.848,0,0,0-3.725-5.815Zm.15.776H.756v.79H-3.97Zm-.483,1.614H.592v.763H-3.241v1.43h-.817ZM-5.141-1.634H1.124v.783H-5.141Zm3.085-3h.844V.613h-.844ZM4.494-2.295a2.18,2.18,0,0,0-.443-.361,1.112,1.112,0,0,0-.572-.129.952.952,0,0,0-.609.228,1.861,1.861,0,0,0-.473.589l-.749-.409a2.557,2.557,0,0,1,.824-.943A1.851,1.851,0,0,1,3.5-3.629a2.005,2.005,0,0,1,.875.184,2.4,2.4,0,0,1,.732.565,2.133,2.133,0,0,0,.446.361,1.116,1.116,0,0,0,.569.129.952.952,0,0,0,.609-.228A1.861,1.861,0,0,0,7.2-3.207l.749.409a2.557,2.557,0,0,1-.824.943,1.851,1.851,0,0,1-1.028.31A2.011,2.011,0,0,1,5.23-1.73,2.388,2.388,0,0,1,4.494-2.295ZM8.5,0V-.579q.688-.613,1.175-1.137a5.458,5.458,0,0,0,.746-.977,1.714,1.714,0,0,0,.259-.841.978.978,0,0,0-.089-.429.644.644,0,0,0-.255-.283.8.8,0,0,0-.412-.1.879.879,0,0,0-.5.153A2.265,2.265,0,0,0,9-3.827l-.558-.538a2.736,2.736,0,0,1,.725-.575,1.879,1.879,0,0,1,.882-.194,1.722,1.722,0,0,1,.834.194,1.385,1.385,0,0,1,.555.541,1.625,1.625,0,0,1,.2.817,2.13,2.13,0,0,1-.228.929,4.84,4.84,0,0,1-.609.943,11.3,11.3,0,0,1-.844.926q.2-.027.426-.044t.405-.017h1.09V0Zm5.414-5.815.838.218a8.621,8.621,0,0,1-.432.987,7.6,7.6,0,0,1-.538.9,5.414,5.414,0,0,1-.6.718l-.211-.174q-.129-.106-.262-.2t-.235-.157a3.816,3.816,0,0,0,.586-.63,5.507,5.507,0,0,0,.49-.79A5.848,5.848,0,0,0,13.912-5.815Zm.15.776h4.331v.79H13.667Zm-.483,1.614h4.651v.763H14.4v1.43h-.817ZM12.5-1.634H18.76v.783H12.5Zm3.085-3h.844V.613H15.58Z" transform="translate(2304.854 5099.15)" fill="#333"/>
        </g>
        <path id="パス_770" data-name="パス 770" d="M-33.727-2.567h6.176v.722h-6.176Zm1.587-1.961h3.684V-3.9h-3.684Zm0,.981h3.684v.633h-3.684ZM-33.428-.177q.4-.048.923-.119l1.1-.153,1.134-.163.041.715q-.524.082-1.062.17t-1.035.16q-.5.071-.912.14Zm3.071-2.186A3.307,3.307,0,0,0-29.3-.9a4.185,4.185,0,0,0,1.879.783A2.179,2.179,0,0,0-27.609.1q-.1.129-.187.266a2.144,2.144,0,0,0-.143.252A4.9,4.9,0,0,1-29.383.051a3.651,3.651,0,0,1-1.025-.929,5.178,5.178,0,0,1-.7-1.307Zm1.934.429.661.456q-.252.184-.528.357t-.555.323q-.279.15-.518.266l-.545-.422q.238-.123.511-.289t.528-.351Q-28.613-1.777-28.423-1.934ZM-32.59-5.55h4.317v.667h-3.48v2.615h-.838Zm0,3.2h.838V-.089L-32.59,0Zm7.123-2.52a2.585,2.585,0,0,0-.044.279q-.017.157-.027.306t-.01.245q-.007.225,0,.463t.014.487q.01.249.031.494a6.548,6.548,0,0,0,.136.865,1.742,1.742,0,0,0,.232.582.425.425,0,0,0,.361.208.312.312,0,0,0,.228-.129,1.338,1.338,0,0,0,.2-.337,4,4,0,0,0,.163-.439q.071-.232.126-.436l.681.831a5.38,5.38,0,0,1-.446.943,1.6,1.6,0,0,1-.46.5A.939.939,0,0,1-24.8.15,1.152,1.152,0,0,1-25.5-.1a1.863,1.863,0,0,1-.562-.793,5.237,5.237,0,0,1-.327-1.461q-.034-.313-.051-.661t-.02-.661q0-.313,0-.518,0-.143-.014-.34a3.479,3.479,0,0,0-.041-.354Zm3.4.157a3.384,3.384,0,0,1,.368.565,6.932,6.932,0,0,1,.327.715q.15.381.266.78t.187.776a5.765,5.765,0,0,1,.092.691l-.9.347q-.034-.415-.123-.906a8.9,8.9,0,0,0-.238-.987,6.887,6.887,0,0,0-.357-.94,3.255,3.255,0,0,0-.487-.763Zm3.323-1.1.838.218a8.621,8.621,0,0,1-.432.987,7.6,7.6,0,0,1-.538.9,5.414,5.414,0,0,1-.6.718l-.211-.174q-.129-.106-.262-.2t-.235-.157a3.816,3.816,0,0,0,.586-.63,5.507,5.507,0,0,0,.49-.79A5.848,5.848,0,0,0-18.74-5.815Zm.15.776h4.331v.79h-4.726Zm-.483,1.614h4.651v.763h-3.834v1.43h-.817Zm-1.083,1.791h6.265v.783h-6.265Zm3.085-3h.844V.613h-.844Zm5.291-.831h3.4v.8h-3.4Zm.007,1.627h3.425v.776h-3.425Zm-.041,1.607H-8.4v.8h-3.418Zm-.531-3.234h.844v2.254q0,.443-.051.953a6.81,6.81,0,0,1-.187,1.035,4.113,4.113,0,0,1-.4.994,3.067,3.067,0,0,1-.7.838,1.675,1.675,0,0,0-.174-.2q-.112-.116-.238-.225A1.465,1.465,0,0,0-13.476.02,2.711,2.711,0,0,0-12.86-.7a3.386,3.386,0,0,0,.34-.827,4.7,4.7,0,0,0,.143-.858q.031-.429.031-.824Zm3.582,0h.872V-.429a1.294,1.294,0,0,1-.1.565.639.639,0,0,1-.337.3,1.8,1.8,0,0,1-.613.133q-.368.024-.9.024A2.542,2.542,0,0,0-9.921.313Q-9.976.157-10.044,0a2.04,2.04,0,0,0-.136-.266q.238.014.487.017l.443,0h.276a.239.239,0,0,0,.163-.044.2.2,0,0,0,.048-.153Zm5.264,0q-.034.184-.109.477a5.85,5.85,0,0,1-.218.661q-.109.252-.249.521a4.8,4.8,0,0,1-.283.48,1.143,1.143,0,0,1,.225-.071,2.716,2.716,0,0,1,.283-.048,2.294,2.294,0,0,1,.262-.017,1.047,1.047,0,0,1,.712.245.912.912,0,0,1,.283.729q0,.136,0,.334t.01.412q.007.214.014.419t.007.368h-.817q.014-.116.017-.276t.007-.337q0-.177.007-.344t0-.3a.524.524,0,0,0-.174-.453A.64.64,0,0,0-3.9-2.792a1.315,1.315,0,0,0-.575.14,1.852,1.852,0,0,0-.487.33q-.15.15-.3.334t-.33.415l-.729-.545a9.081,9.081,0,0,0,.766-.79,5.743,5.743,0,0,0,.548-.756,4.753,4.753,0,0,0,.368-.749,4.122,4.122,0,0,0,.167-.569A3.465,3.465,0,0,0-4.4-5.536Zm-2.56.626q.259.041.6.061t.6.02q.449,0,.984-.02t1.086-.071q.552-.051,1.049-.133l-.007.79q-.361.048-.78.085t-.851.061q-.432.024-.827.034t-.7.01l-.337,0q-.2,0-.412-.014t-.4-.024ZM-.667-2.9q-.109.034-.255.085l-.293.1q-.146.051-.262.1-.327.129-.773.313t-.929.429a4.16,4.16,0,0,0-.518.32,1.366,1.366,0,0,0-.32.317.61.61,0,0,0-.109.351.415.415,0,0,0,.061.235A.417.417,0,0,0-3.881-.5a1.044,1.044,0,0,0,.306.075,4.013,4.013,0,0,0,.436.02q.436,0,.96-.051t.974-.14l-.027.878q-.218.027-.552.058t-.691.044q-.357.014-.684.014a4.065,4.065,0,0,1-.953-.1,1.341,1.341,0,0,1-.664-.351.94.94,0,0,1-.242-.684,1.288,1.288,0,0,1,.16-.64A1.947,1.947,0,0,1-4.433-1.9a3.919,3.919,0,0,1,.582-.419q.317-.187.623-.344t.565-.279q.252-.116.473-.208t.426-.187l.381-.174q.184-.085.375-.18ZM3.146-5.379q-.034.129-.065.283t-.058.283q-.027.15-.068.337T2.877-4.1q-.037.187-.078.364-.068.293-.17.681t-.238.834q-.136.446-.306.9t-.361.875a5.881,5.881,0,0,1-.409.766L.429-.041A5.313,5.313,0,0,0,.875-.759q.208-.4.378-.821t.3-.831q.133-.409.228-.763t.15-.606q.1-.463.15-.892a5.645,5.645,0,0,0,.048-.81Zm2.342.64a4.109,4.109,0,0,1,.337.548q.174.33.34.7t.306.708q.14.34.214.579l-.865.4q-.068-.286-.187-.637t-.272-.715q-.153-.364-.327-.691a3.1,3.1,0,0,0-.357-.545ZM.381-3.984q.184.014.361.01t.368-.01q.163-.007.405-.024l.511-.037q.269-.02.541-.044t.5-.037q.232-.014.381-.014a1.593,1.593,0,0,1,.637.119.905.905,0,0,1,.436.405,1.594,1.594,0,0,1,.16.776q0,.4-.037.872a8.35,8.35,0,0,1-.119.9A2.808,2.808,0,0,1,4.3-.34a.962.962,0,0,1-.446.49A1.531,1.531,0,0,1,3.18.286,3.059,3.059,0,0,1,2.761.255Q2.54.225,2.363.191l-.15-.9q.136.034.3.068t.306.054a1.786,1.786,0,0,0,.235.02.662.662,0,0,0,.3-.065.484.484,0,0,0,.211-.228,2.047,2.047,0,0,0,.153-.511q.058-.313.089-.678t.031-.7a.829.829,0,0,0-.075-.4.37.37,0,0,0-.221-.174,1.278,1.278,0,0,0-.364-.044q-.15,0-.419.024t-.569.054q-.3.031-.562.065t-.405.048q-.143.027-.371.058t-.385.058Zm11.726-1.43q-.014.109-.02.228t-.014.235q-.007.1,0,.289t0,.436v.49q0,.249,0,.46t0,.327q0,.606-.044,1.1a3.729,3.729,0,0,1-.191.909A2.476,2.476,0,0,1,11.4-.17,3.506,3.506,0,0,1,10.6.511l-.783-.62a2.73,2.73,0,0,0,.422-.235,1.8,1.8,0,0,0,.368-.31,1.99,1.99,0,0,0,.32-.429,2.2,2.2,0,0,0,.194-.5,3.325,3.325,0,0,0,.1-.606q.024-.334.024-.769v-.463q0-.279-.007-.579t-.014-.555q-.007-.255-.02-.392a2.01,2.01,0,0,0-.031-.259q-.024-.129-.044-.211ZM9.424-4.086q.163.02.334.037t.344.027q.174.01.351.01.443,0,.926-.02t.933-.065q.449-.044.783-.106l-.007.885q-.32.034-.756.065t-.916.048q-.48.017-.943.017-.143,0-.327-.007l-.368-.014-.354-.014ZM8.723-5.3q-.041.123-.089.283t-.075.269q-.061.279-.129.671t-.116.814a7.372,7.372,0,0,0-.048.827,3.4,3.4,0,0,0,.068.718q.068-.157.157-.378t.17-.412l.422.272q-.1.293-.187.6t-.16.586q-.068.276-.116.473A1.092,1.092,0,0,0,8.59-.4q-.01.1-.01.16t0,.129q0,.082.01.15L7.838.116q-.075-.2-.167-.562a7.845,7.845,0,0,1-.157-.79,5.77,5.77,0,0,1-.065-.855q0-.558.037-1.076t.092-.943q.054-.426.089-.7a2.1,2.1,0,0,0,.034-.3q.007-.16.014-.289Zm5.379.613q.2-.007.388-.017l.286-.017.518-.048.691-.061.821-.071.906-.078q.354-.027.708-.051t.671-.041q.317-.017.548-.024l.007.872q-.184,0-.422.007t-.473.024a2.915,2.915,0,0,0-.419.058,1.673,1.673,0,0,0-.569.276,2.206,2.206,0,0,0-.46.46,2.114,2.114,0,0,0-.3.569,1.842,1.842,0,0,0-.106.609,1.413,1.413,0,0,0,.116.589,1.258,1.258,0,0,0,.323.436,1.833,1.833,0,0,0,.487.3,2.911,2.911,0,0,0,.6.18,5.26,5.26,0,0,0,.671.082L18.774.3A4.238,4.238,0,0,1,17.94.163a3.453,3.453,0,0,1-.756-.3A2.519,2.519,0,0,1,16.567-.6a2.043,2.043,0,0,1-.415-.633,2.052,2.052,0,0,1-.15-.8,2.512,2.512,0,0,1,.157-.906,2.966,2.966,0,0,1,.388-.718,2.3,2.3,0,0,1,.463-.48l-.46.051-.579.068-.63.078q-.32.041-.616.092t-.535.1Zm7.565,1.464h1.573v.742H21.668Zm1.26,0h.79v.3Q23.7-2.2,23.683-1.74a6,6,0,0,1-.065.715.9.9,0,0,1-.119.357.633.633,0,0,1-.214.184,1.017,1.017,0,0,1-.262.082,1.965,1.965,0,0,1-.344.031q-.208,0-.453,0a1.718,1.718,0,0,0-.068-.395,1.548,1.548,0,0,0-.15-.368q.184.014.344.02t.242.007a.377.377,0,0,0,.119-.017.169.169,0,0,0,.085-.065.575.575,0,0,0,.071-.255q.024-.194.037-.592t.02-1.059ZM24.97-5.359l.5-.49q.191.1.4.225t.405.259a2.082,2.082,0,0,1,.317.252l-.524.545a3.258,3.258,0,0,0-.3-.259q-.184-.143-.395-.283T24.97-5.359Zm.8,1.757.831.2a8.258,8.258,0,0,1-1.171,2.346A6.192,6.192,0,0,1,23.677.586a1.741,1.741,0,0,0-.163-.214Q23.4.245,23.288.119t-.2-.208a5.11,5.11,0,0,0,1.662-1.433A6.44,6.44,0,0,0,25.774-3.6ZM21.709-4.767h5.257v.8H21.709Zm-.545,0h.858v2.009q0,.381-.027.834t-.1.926a5.6,5.6,0,0,1-.221.909,3.3,3.3,0,0,1-.378.783,1.278,1.278,0,0,0-.2-.2Q20.96.388,20.827.283A1.062,1.062,0,0,0,20.6.136a2.964,2.964,0,0,0,.378-.916A6.276,6.276,0,0,0,21.13-1.8q.034-.518.034-.96Zm2.765-1.015h.858q-.014.838.048,1.641t.18,1.5A10.01,10.01,0,0,0,25.3-1.406a3.292,3.292,0,0,0,.361.834q.2.3.4.3.116,0,.18-.279a5.626,5.626,0,0,0,.092-.919,2.492,2.492,0,0,0,.337.266,1.794,1.794,0,0,0,.357.191,4.279,4.279,0,0,1-.184.977.888.888,0,0,1-.327.473.965.965,0,0,1-.524.129,1,1,0,0,1-.664-.252,2.231,2.231,0,0,1-.524-.7,5.5,5.5,0,0,1-.392-1.055,11.654,11.654,0,0,1-.269-1.314q-.106-.708-.157-1.474T23.928-5.781Zm3.629,3.214h6.176v.722H27.558Zm1.587-1.961h3.684V-3.9H29.145Zm0,.981h3.684v.633H29.145ZM27.858-.177q.4-.048.923-.119l1.1-.153L31.01-.613,31.051.1q-.524.082-1.062.17t-1.035.16q-.5.071-.912.14Zm3.071-2.186A3.307,3.307,0,0,0,31.984-.9a4.185,4.185,0,0,0,1.879.783A2.178,2.178,0,0,0,33.676.1q-.1.129-.187.266a2.144,2.144,0,0,0-.143.252A4.9,4.9,0,0,1,31.9.051a3.651,3.651,0,0,1-1.025-.929,5.178,5.178,0,0,1-.7-1.307Zm1.934.429.661.456q-.252.184-.528.357T32.44-.8q-.279.15-.518.266l-.545-.422q.238-.123.511-.289t.528-.351Q32.672-1.777,32.863-1.934ZM28.7-5.55h4.317v.667h-3.48v2.615H28.7Zm0,3.2h.838V-.089L28.7,0Z" transform="translate(2198.18 5120.655)" fill="#333"/>
        <path id="パス_769" data-name="パス 769" d="M-10.664-2.513h.844V.6h-.844Zm-1.185-1.117v.5h3.221v-.5Zm0-1.151v.49h3.221v-.49Zm-.8-.722h4.869v3.091h-4.869Zm-.674,3.868h6.251v.776h-6.251Zm10.7-3.847H-.865v.742H-2.622Zm0,1.539H-.865v.722H-2.622Zm-.007,1.559h1.77v.729h-1.77Zm1.416-3.1h.783V-.293A1.331,1.331,0,0,1-.5.18.544.544,0,0,1-.742.456a1.193,1.193,0,0,1-.446.123,5.6,5.6,0,0,1-.65.02A2.483,2.483,0,0,0-1.927.208,2.679,2.679,0,0,0-2.07-.177q.218.014.432.014h.289a.147.147,0,0,0,.106-.031A.147.147,0,0,0-1.212-.3Zm-1.75,0h.769v2.506q0,.4-.024.878t-.1.964a7.387,7.387,0,0,1-.2.943,3.176,3.176,0,0,1-.354.817A1.068,1.068,0,0,0-3.051.46Q-3.173.368-3.3.286A1.4,1.4,0,0,0-3.514.163a3.3,3.3,0,0,0,.375-.987A7.2,7.2,0,0,0-2.993-1.93q.031-.562.031-1.045Zm-3.561.5h3.337v.715H-6.523Zm.885,1.117h1.627v.62H-5.638Zm0,1.055h1.627v.626H-5.638ZM-6.605-1.73h3.371v.715H-6.605Zm.613-3.977h.735v4.235h-.735Zm1.587,0h.749v4.235h-.749ZM-5.761-.967l.776.225A5.069,5.069,0,0,1-5.454,0a4.68,4.68,0,0,1-.552.623A1.315,1.315,0,0,0-6.193.463Q-6.312.375-6.438.286T-6.66.143a2.9,2.9,0,0,0,.514-.5A2.969,2.969,0,0,0-5.761-.967Zm1.015.306.62-.34q.136.143.283.323t.279.354a2.9,2.9,0,0,1,.214.317l-.661.381A2.611,2.611,0,0,0-4.2.058q-.126-.18-.269-.371T-4.746-.661ZM3.1-5.332q-.027.129-.061.283t-.061.283q-.027.15-.068.337t-.078.375q-.037.187-.078.364-.068.293-.17.681t-.238.834q-.136.446-.306.9t-.361.875a5.881,5.881,0,0,1-.409.766L.381.007A5.313,5.313,0,0,0,.827-.712q.208-.4.378-.817t.3-.831q.133-.412.232-.766t.153-.606q.1-.463.15-.892a5.02,5.02,0,0,0,.041-.81Zm2.342.688a4.8,4.8,0,0,1,.337.548q.174.323.344.684t.306.695q.136.334.211.579l-.865.395a5.565,5.565,0,0,0-.18-.633q-.119-.347-.276-.7t-.33-.678A3.2,3.2,0,0,0,4.63-4.3ZM.334-3.936q.184.014.364.01t.364-.01q.17-.007.409-.024L1.978-4q.269-.02.541-.044t.5-.037q.232-.014.381-.014a1.587,1.587,0,0,1,.64.119.908.908,0,0,1,.432.405,1.594,1.594,0,0,1,.16.776q0,.4-.034.872a7.345,7.345,0,0,1-.119.9,2.893,2.893,0,0,1-.235.729A.962.962,0,0,1,3.8.2a1.531,1.531,0,0,1-.671.136A3.089,3.089,0,0,1,2.717.3q-.225-.031-.4-.065l-.143-.9q.129.034.289.068t.306.054A1.786,1.786,0,0,0,3-.518a.662.662,0,0,0,.3-.065A.484.484,0,0,0,3.514-.81a2.135,2.135,0,0,0,.157-.511A6.276,6.276,0,0,0,3.762-2q.031-.364.031-.7a.8.8,0,0,0-.078-.4.384.384,0,0,0-.225-.174,1.249,1.249,0,0,0-.357-.044q-.157,0-.422.024t-.569.054q-.3.031-.562.065t-.4.048Q1.028-3.1.8-3.068T.415-3.01ZM5.318-5.591q.089.123.187.293t.194.34q.1.17.163.3l-.552.238q-.068-.143-.157-.313t-.184-.34a2.343,2.343,0,0,0-.191-.293Zm.81-.306q.089.129.191.3t.2.34q.1.17.153.286l-.538.232q-.109-.211-.259-.48a4.075,4.075,0,0,0-.293-.46Zm4.61.838-.106.153-.112.167q-.123.184-.269.426t-.3.511q-.157.269-.3.535t-.276.49a1.482,1.482,0,0,1,.388-.157,1.678,1.678,0,0,1,.395-.048.8.8,0,0,1,.6.228A.976.976,0,0,1,11-2.1q.007.15.007.361t0,.422q0,.211.017.354a.364.364,0,0,0,.146.283.516.516,0,0,0,.3.085.668.668,0,0,0,.4-.129,1.245,1.245,0,0,0,.323-.357,2.738,2.738,0,0,0,.249-.518,5.471,5.471,0,0,0,.18-.6l.735.6A4.323,4.323,0,0,1,12.9-.582,2.052,2.052,0,0,1,12.24.1a1.708,1.708,0,0,1-.916.242A1.333,1.333,0,0,1,10.7.208a.9.9,0,0,1-.375-.347,1.04,1.04,0,0,1-.136-.466q-.014-.184-.017-.409t-.007-.439q0-.214-.017-.351a.426.426,0,0,0-.116-.279.387.387,0,0,0-.286-.1.737.737,0,0,0-.429.143,1.573,1.573,0,0,0-.371.375,2.785,2.785,0,0,0-.289.511q-.068.15-.143.354t-.143.422L8.239.031q-.061.194-.1.33L7.177.034q.129-.34.317-.78t.412-.923q.225-.483.456-.96t.443-.9q.211-.426.378-.742t.255-.48q.068-.136.157-.306t.177-.388Z" transform="translate(2304.854 5120.655)" fill="#333"/>
        <g id="グループ_267" data-name="グループ 267">
          <rect id="長方形_154" data-name="長方形 154" width="61.6" height="36.411" rx="18.205" transform="translate(2347.651 5086.046)" fill="#e61400"/>
          <path id="パス_771" data-name="パス 771" d="M-13.278-6.886h4.384v.945h-4.384Zm-.383,6.554h4.894V.613h-4.894Zm.9-1.762.868-.2a4.6,4.6,0,0,1,.2.549q.085.294.149.575a4.754,4.754,0,0,1,.089.5l-.919.238a4.669,4.669,0,0,0-.072-.511q-.055-.289-.132-.592A4.44,4.44,0,0,0-12.759-2.094Zm2.4-.255,1,.213q-.111.315-.226.63t-.226.6q-.111.285-.213.5l-.86-.2a5.308,5.308,0,0,0,.2-.536q.1-.306.187-.621T-10.359-2.349Zm-1.66-2.043v1.03h1.856v-1.03Zm-.936-.894h3.788v2.817h-3.788Zm-2.281-.434h.97v1.609a11.256,11.256,0,0,1-.068,1.179,7.863,7.863,0,0,1-.255,1.307A5.756,5.756,0,0,1-15.13-.34,4.122,4.122,0,0,1-16.053.766a1.783,1.783,0,0,0-.2-.255q-.132-.145-.268-.272a1.929,1.929,0,0,0-.238-.2,3.716,3.716,0,0,0,.821-.966,4.57,4.57,0,0,0,.455-1.085,6.231,6.231,0,0,0,.2-1.1q.047-.541.047-1.009Zm-.647-.485h2.571v.928h-2.571Zm-.809,2.239h3.481v.945h-3.481Zm2.239,1.183q.085.077.23.234t.319.353q.174.2.336.4t.3.357l.2.226-.655.843a4.913,4.913,0,0,0-.285-.455q-.174-.251-.362-.515t-.366-.5q-.179-.234-.306-.4Zm-1.5-4.443.962.187a9.547,9.547,0,0,1-.251,1.068,10.189,10.189,0,0,1-.349,1,5.436,5.436,0,0,1-.4.8q-.1-.068-.26-.162t-.323-.174q-.166-.081-.285-.132A4.478,4.478,0,0,0-16.3-5.8,8.358,8.358,0,0,0-15.951-7.227Zm12.674.375h2.2v.928h-2.2Zm0,1.924h2.2v.9h-2.2Zm-.009,1.949h2.213v.911H-3.286Zm1.77-3.873h.979V-.366A1.664,1.664,0,0,1-.621.226.68.68,0,0,1-.928.57a1.491,1.491,0,0,1-.558.153A7,7,0,0,1-2.3.749,3.1,3.1,0,0,0-2.409.26a3.349,3.349,0,0,0-.179-.481q.272.017.541.017h.362a.183.183,0,0,0,.132-.038.183.183,0,0,0,.038-.132Zm-2.188,0h.962V-3.72q0,.5-.03,1.1t-.119,1.2A9.234,9.234,0,0,1-3.141-.238,3.97,3.97,0,0,1-3.583.783a1.335,1.335,0,0,0-.23-.209Q-3.967.46-4.12.357A1.745,1.745,0,0,0-4.392.2,4.126,4.126,0,0,0-3.924-1.03a9,9,0,0,0,.183-1.383q.038-.7.038-1.307Zm-4.452.621h4.171v.894H-8.154Zm1.107,1.4h2.034v.775H-7.048Zm0,1.319h2.034v.783H-7.048ZM-8.256-2.162h4.213v.894H-8.256Zm.766-4.971h.919v5.294H-7.49Zm1.983,0h.936v5.294h-.936ZM-7.2-1.209l.97.281A6.337,6.337,0,0,1-6.818,0a5.85,5.85,0,0,1-.689.779,1.644,1.644,0,0,0-.234-.2Q-7.89.468-8.048.357T-8.325.179a3.628,3.628,0,0,0,.643-.63A3.711,3.711,0,0,0-7.2-1.209Zm1.268.383.775-.426q.17.179.353.4t.349.443a3.628,3.628,0,0,1,.268.4l-.826.477a3.264,3.264,0,0,0-.243-.4q-.157-.226-.336-.464T-5.933-.826ZM3.09-2.034H5.414v.724H3.09ZM3.03-3.3H5.9V-.026H3.03V-.783H4.937V-2.545H3.03ZM2.6-3.3h.928V.409H2.6ZM1.183-5.72H3.311v.689H1.183Zm3.949,0H7.278v.689H5.133ZM6.861-6.9H7.89v6.46A1.814,1.814,0,0,1,7.8.2.685.685,0,0,1,7.448.57a1.854,1.854,0,0,1-.643.162q-.379.034-.932.034a2.253,2.253,0,0,0-.068-.34Q5.754.238,5.686.047a2.124,2.124,0,0,0-.145-.328q.23.017.455.021t.409,0l.251,0a.23.23,0,0,0,.162-.043A.215.215,0,0,0,6.861-.46Zm-5.6,0h2.7v3.09H1.26v-.732H3V-6.163H1.26Zm6.146,0v.741H5.5v1.634H7.405V-3.8H4.528V-6.9ZM.672-6.9H1.685V.766H.672ZM9.1-5.839q.255-.009.485-.021l.349-.021q.264-.017.651-.055t.868-.081q.481-.043,1.026-.085T13.61-6.2q.443-.043.881-.072t.834-.051q.4-.021.694-.03l.009,1.09q-.23,0-.528.009t-.592.03a2.945,2.945,0,0,0-.523.081,2.137,2.137,0,0,0-.715.345,2.671,2.671,0,0,0-.575.57,2.74,2.74,0,0,0-.379.706,2.238,2.238,0,0,0-.136.762,1.723,1.723,0,0,0,.149.736,1.62,1.62,0,0,0,.409.545,2.291,2.291,0,0,0,.609.375,3.639,3.639,0,0,0,.753.226,6.574,6.574,0,0,0,.838.1l-.4,1.166A5.3,5.3,0,0,1,13.9.221a4.409,4.409,0,0,1-.949-.375,3.045,3.045,0,0,1-.77-.583,2.659,2.659,0,0,1-.519-.792,2.515,2.515,0,0,1-.192-1,3.149,3.149,0,0,1,.2-1.128,3.6,3.6,0,0,1,.489-.9,2.95,2.95,0,0,1,.583-.6q-.238.034-.575.068t-.724.081l-.787.1q-.4.051-.77.115t-.668.123Zm5.711,1.413q.111.153.234.362t.243.417q.119.209.2.379l-.647.289q-.162-.357-.311-.63a5.124,5.124,0,0,0-.353-.553Zm.953-.392q.111.153.243.353t.26.409q.128.209.213.37l-.638.306q-.17-.34-.328-.6a5.992,5.992,0,0,0-.37-.545Zm-35.6,11.84h5.78v3.243h-5.933V9.44h4.92v-1.6h-4.767Zm.979-1.387h2.792v.8h-2.792Zm-.834,2.622h5.022v.758h-5.022Zm.962-3.277,1.09.213a9.225,9.225,0,0,1-.685,1.038,7.784,7.784,0,0,1-.877.97,8.19,8.19,0,0,1-1.111.868,2.5,2.5,0,0,0-.2-.264,3.461,3.461,0,0,0-.264-.277,2.249,2.249,0,0,0-.251-.209,5.809,5.809,0,0,0,1.009-.715,6.109,6.109,0,0,0,.762-.809A5.209,5.209,0,0,0-18.726,4.979Zm-.026,5.805h1V11.8q0,.17.072.213a.844.844,0,0,0,.345.043h1.013A.372.372,0,0,0-16.1,12a.388.388,0,0,0,.111-.226,3.309,3.309,0,0,0,.055-.519,2.153,2.153,0,0,0,.251.14,2.13,2.13,0,0,0,.319.123q.17.051.306.085a2.806,2.806,0,0,1-.174.813.734.734,0,0,1-.362.4,1.511,1.511,0,0,1-.63.111h-1.243a2.443,2.443,0,0,1-.8-.1.62.62,0,0,1-.383-.345,1.766,1.766,0,0,1-.1-.668Zm.6-.264.621-.63a6.156,6.156,0,0,1,.562.264q.289.153.549.323A3.045,3.045,0,0,1-16,10.8l-.672.7a2.333,2.333,0,0,0-.392-.336q-.247-.174-.532-.345T-18.156,10.521Zm2.8.485.851-.468q.272.247.562.545t.536.6a3.8,3.8,0,0,1,.392.566l-.919.528a3.251,3.251,0,0,0-.349-.562q-.23-.306-.511-.626T-15.355,11.006Zm-4.511-.357.919.332a5.708,5.708,0,0,1-.472,1,2.444,2.444,0,0,1-.762.792l-.843-.6a2.626,2.626,0,0,0,.715-.668A2.962,2.962,0,0,0-19.867,10.648Zm3.6-5.013h.23l.162-.043.7.443a6.441,6.441,0,0,1-.357.57q-.213.306-.443.587t-.443.5a3.927,3.927,0,0,0-.37-.264q-.226-.145-.4-.238a3.437,3.437,0,0,0,.366-.438q.179-.251.332-.5a3.519,3.519,0,0,0,.23-.43ZM-9.474,7.61v.417h1.149V7.61Zm0-1.072v.409h1.149V6.537Zm-.809-.706h2.809v2.9h-2.809Zm-.264,3.422h3.286v.834h-3.286Zm3.788-2.681h2.264V7.49H-6.758Zm-2.715,3.9h1.447v.809H-9.474Zm.085-1.822h.953V9.669h-.953Zm.077-3.635,1.081.111q-.119.357-.243.685t-.217.558l-.877-.136q.068-.264.145-.6A6.107,6.107,0,0,0-9.312,5.013Zm.9,5.456h.894l0,.119q0,.119-.013.2-.026.579-.051.966a4.019,4.019,0,0,1-.077.609.872.872,0,0,1-.136.332.661.661,0,0,1-.221.174,1.058,1.058,0,0,1-.272.081,1.987,1.987,0,0,1-.336.03q-.209,0-.447,0a1.9,1.9,0,0,0-.072-.417,1.77,1.77,0,0,0-.149-.383q.179.017.315.021l.2,0a.271.271,0,0,0,.213-.077.562.562,0,0,0,.068-.221q.026-.162.047-.477t.038-.834Zm2.681-3.32.9.06a16.343,16.343,0,0,1-.387,2.456A7.685,7.685,0,0,1-5.954,11.6,4.744,4.744,0,0,1-7.193,13.04a1.31,1.31,0,0,0-.192-.2q-.132-.119-.272-.243t-.234-.2a3.859,3.859,0,0,0,1.183-1.26,6.226,6.226,0,0,0,.672-1.762A13.9,13.9,0,0,0-5.728,7.15Zm-.783.077q.077.638.213,1.349a9.935,9.935,0,0,0,.375,1.4,5.838,5.838,0,0,0,.617,1.268,3.664,3.664,0,0,0,.915.975,2.461,2.461,0,0,0-.213.226q-.119.14-.234.3a2.014,2.014,0,0,0-.174.277,4.015,4.015,0,0,1-.915-1.09,7.341,7.341,0,0,1-.613-1.366A11,11,0,0,1-6.92,9.1q-.136-.728-.213-1.358Zm-5.677-1.379.579-.741a4.666,4.666,0,0,1,.485.234q.255.14.485.289a2.664,2.664,0,0,1,.375.285l-.613.809a2.527,2.527,0,0,0-.349-.3q-.221-.162-.477-.315T-12.189,5.848ZM-12.521,8.1l.57-.749q.238.094.494.221t.485.272a2.466,2.466,0,0,1,.375.281l-.6.817a2.19,2.19,0,0,0-.349-.289q-.221-.153-.477-.3T-12.521,8.1Zm.128,4.307q.17-.34.362-.787t.387-.953q.2-.506.366-1.009l.817.536q-.145.451-.311.924t-.345.932q-.179.46-.349.877Zm5.516-7.4.945.162q-.111.792-.289,1.553a12.106,12.106,0,0,1-.426,1.43A5.479,5.479,0,0,1-7.227,9.32q-.068-.094-.192-.238t-.255-.289a2.466,2.466,0,0,0-.234-.23,4.41,4.41,0,0,0,.477-.992A10.415,10.415,0,0,0-7.095,6.35Q-6.954,5.694-6.878,5.013ZM-9.729,9.806h.851v.519a5.413,5.413,0,0,1-.043.643,3.025,3.025,0,0,1-.187.728,3.14,3.14,0,0,1-.413.736,2.856,2.856,0,0,1-.711.66,2.826,2.826,0,0,0-.319-.3q-.2-.166-.362-.285a2.8,2.8,0,0,0,.63-.562,2.4,2.4,0,0,0,.357-.592,2.391,2.391,0,0,0,.157-.57,3.617,3.617,0,0,0,.038-.489Zm9.286-3.5q.392.051.881.072t1,.017q.506,0,.975-.034T3.217,6.3V7.4q-.392.034-.86.055T1.4,7.473Q.9,7.473.43,7.452T-.443,7.4ZM.238,9.942q-.051.213-.077.379a2.208,2.208,0,0,0-.026.336.484.484,0,0,0,.068.251.558.558,0,0,0,.209.2,1.109,1.109,0,0,0,.366.119,3.344,3.344,0,0,0,.549.038A9.812,9.812,0,0,0,2.4,11.206q.5-.055,1.064-.166l.017,1.149a9.089,9.089,0,0,1-.941.119q-.532.043-1.255.043a2.9,2.9,0,0,1-1.634-.37,1.179,1.179,0,0,1-.536-1.026,3.644,3.644,0,0,1,.038-.515q.038-.268.106-.592Zm-1.992-4.2a2.418,2.418,0,0,0-.077.238q-.043.153-.081.3t-.055.221q-.026.179-.081.464t-.111.638q-.055.353-.106.719t-.081.706q-.03.34-.03.6,0,.119,0,.272a1.673,1.673,0,0,0,.03.281q.06-.145.128-.289t.136-.294q.068-.149.119-.285l.528.417q-.119.349-.243.749t-.221.753q-.1.353-.149.583-.017.094-.03.213a1.866,1.866,0,0,0-.013.187q0,.068,0,.166t.013.183l-.987.068a8.764,8.764,0,0,1-.23-1.179,11.711,11.711,0,0,1-.1-1.6q0-.477.043-.97t.1-.949q.06-.455.115-.83t.1-.621q.017-.179.047-.4t.038-.43ZM5.805,8.231H7.771v.928H5.805Zm1.575,0h.987v.375q-.017.9-.043,1.477a7.5,7.5,0,0,1-.081.894,1.121,1.121,0,0,1-.149.447.791.791,0,0,1-.268.23,1.271,1.271,0,0,1-.328.1,2.456,2.456,0,0,1-.43.038q-.26,0-.566,0a2.147,2.147,0,0,0-.085-.494,1.935,1.935,0,0,0-.187-.46q.23.017.43.026t.3.009a.472.472,0,0,0,.149-.021.211.211,0,0,0,.106-.081.719.719,0,0,0,.089-.319q.03-.243.047-.741T7.38,8.384ZM9.933,5.558l.621-.613q.238.119.5.281t.506.323a2.6,2.6,0,0,1,.4.315l-.655.681a4.072,4.072,0,0,0-.375-.323q-.23-.179-.494-.353T9.933,5.558Zm1,2.2L11.976,8a10.322,10.322,0,0,1-1.464,2.932,7.74,7.74,0,0,1-2.2,2.056,2.176,2.176,0,0,0-.2-.268q-.136-.157-.281-.315t-.255-.26a6.387,6.387,0,0,0,2.077-1.792A8.05,8.05,0,0,0,10.938,7.754ZM5.856,6.3h6.571v1H5.856Zm-.681,0H6.248V8.81q0,.477-.034,1.043T6.086,11.01a7,7,0,0,1-.277,1.136,4.12,4.12,0,0,1-.472.979,1.6,1.6,0,0,0-.251-.247q-.166-.136-.332-.268a1.327,1.327,0,0,0-.285-.183,3.705,3.705,0,0,0,.472-1.145A7.845,7.845,0,0,0,5.133,10q.043-.647.043-1.2ZM8.631,5.031H9.7q-.017,1.047.06,2.051t.226,1.877a12.513,12.513,0,0,0,.353,1.541,4.115,4.115,0,0,0,.451,1.043q.247.375.5.375.145,0,.226-.349a7.033,7.033,0,0,0,.115-1.149,3.115,3.115,0,0,0,.421.332,2.242,2.242,0,0,0,.447.238,5.349,5.349,0,0,1-.23,1.221,1.109,1.109,0,0,1-.409.592,1.206,1.206,0,0,1-.655.162,1.248,1.248,0,0,1-.83-.315,2.789,2.789,0,0,1-.655-.877,6.877,6.877,0,0,1-.489-1.319A14.568,14.568,0,0,1,8.9,8.81q-.132-.885-.2-1.843T8.631,5.031Zm4.537,4.018h7.72v.9h-7.72ZM15.151,6.6h4.6v.792h-4.6Zm0,1.226h4.6v.792h-4.6Zm-1.609,4.213q.5-.06,1.153-.149t1.37-.192q.719-.1,1.417-.2l.051.894q-.655.1-1.328.213t-1.294.2q-.621.089-1.141.174ZM17.381,9.3a4.134,4.134,0,0,0,1.319,1.83,5.231,5.231,0,0,0,2.349.979,2.723,2.723,0,0,0-.234.272q-.123.162-.234.332a2.68,2.68,0,0,0-.179.315,6.13,6.13,0,0,1-1.8-.711,4.564,4.564,0,0,1-1.281-1.162,6.473,6.473,0,0,1-.872-1.634ZM19.8,9.84l.826.57q-.315.23-.66.447t-.694.4q-.349.187-.647.332l-.681-.528q.3-.153.638-.362t.66-.438Q19.56,10.035,19.8,9.84ZM14.589,5.32h5.4v.834h-4.35V9.423H14.589Zm0,4h1.047v2.826l-1.047.111Z" transform="translate(2378.451 5101.357)" fill="#fff"/>
        </g>
      </g>
    </g>
  </g>
</svg>
