<svg xmlns="http://www.w3.org/2000/svg" width="130" height="60" viewBox="0 0 130 60">
  <g id="グループ_895" data-name="グループ 895" transform="translate(-1949 206)">
    <path id="長方形_463" data-name="長方形 463" d="M0,0H100a30,30,0,0,1,30,30v0a30,30,0,0,1-30,30H0a0,0,0,0,1,0,0V0A0,0,0,0,1,0,0Z" transform="translate(1949 -206)" fill="#82c195"/>
    <rect id="長方形_464" data-name="長方形 464" width="78" height="5" transform="translate(1979 -177)" fill="#fbcd00"/>
    <g id="グループ_890" data-name="グループ 890" transform="translate(1949.064 -205.676)">
      <path id="パス_824" data-name="パス 824" d="M1.13-8.13H2.34v2.94q0,.65-.035,1.425T2.16-2.18A11.9,11.9,0,0,1,1.84-.61,6.41,6.41,0,0,1,1.29.77,1.816,1.816,0,0,0,.97.545Q.77.43.565.325A2.369,2.369,0,0,0,.2.17,5.4,5.4,0,0,0,.715-1.09,10.1,10.1,0,0,0,.99-2.49q.09-.72.115-1.415T1.13-5.19Zm.91,0H8.92v2.99H2.04V-6.22H7.71v-.83H2.04ZM2.6-3.94H4.29v1.05H2.6ZM5.27-4.98h1.2V-.37a1.894,1.894,0,0,1-.09.655A.71.71,0,0,1,6.01.66a1.886,1.886,0,0,1-.645.165Q4.99.86,4.49.86A3.728,3.728,0,0,0,4.345.305,3.746,3.746,0,0,0,4.12-.24q.3.01.585.015t.385,0a.28.28,0,0,0,.145-.04A.156.156,0,0,0,5.27-.39Zm3.07.51,1.03.73q-.35.31-.735.63t-.75.605q-.365.285-.7.5l-.78-.63q.31-.23.665-.545t.7-.655A6.6,6.6,0,0,0,8.34-4.47Zm-1.9.23a6.754,6.754,0,0,0,.74,1.47A5.657,5.657,0,0,0,8.27-1.555,4.977,4.977,0,0,0,9.68-.73a3.673,3.673,0,0,0-.285.3q-.155.18-.29.37A3.266,3.266,0,0,0,8.88.3,5.373,5.373,0,0,1,7.435-.74,6.649,6.649,0,0,1,6.34-2.21a10.354,10.354,0,0,1-.78-1.81Zm-2.49.3h.23l.19-.02.68.18A7.128,7.128,0,0,1,4.265-1.2,3.933,3.933,0,0,1,2.84.28,1.827,1.827,0,0,0,2.615.01Q2.46-.15,2.3-.3a2.266,2.266,0,0,0-.28-.23A3.24,3.24,0,0,0,3.3-1.735,5.1,5.1,0,0,0,3.95-3.77ZM16.33-6.85q-.1.76-.26,1.62a15.76,15.76,0,0,1-.43,1.74,8.938,8.938,0,0,1-.68,1.74A3.814,3.814,0,0,1,14.1-.625,1.535,1.535,0,0,1,13.09-.23a1.583,1.583,0,0,1-1.015-.375,2.561,2.561,0,0,1-.74-1.035,3.87,3.87,0,0,1-.275-1.5,3.917,3.917,0,0,1,.35-1.64,4.363,4.363,0,0,1,.975-1.365,4.623,4.623,0,0,1,1.46-.935,4.74,4.74,0,0,1,1.8-.34,4.45,4.45,0,0,1,1.675.3,3.77,3.77,0,0,1,1.275.83,3.6,3.6,0,0,1,.81,1.24,4.133,4.133,0,0,1,.28,1.53,4.027,4.027,0,0,1-.43,1.88A3.554,3.554,0,0,1,17.985-.27,5.467,5.467,0,0,1,15.88.47L15.13-.72q.29-.03.51-.07t.42-.09a3.805,3.805,0,0,0,.895-.345,2.793,2.793,0,0,0,.725-.56,2.45,2.45,0,0,0,.485-.785,2.709,2.709,0,0,0,.175-.99,3.111,3.111,0,0,0-.18-1.08,2.432,2.432,0,0,0-.53-.855,2.335,2.335,0,0,0-.85-.56,3.15,3.15,0,0,0-1.15-.2,3.3,3.3,0,0,0-1.41.285,3.3,3.3,0,0,0-1.03.735,3.227,3.227,0,0,0-.635.97,2.592,2.592,0,0,0-.215.99,2.5,2.5,0,0,0,.12.835,1.264,1.264,0,0,0,.3.5.54.54,0,0,0,.375.165.584.584,0,0,0,.415-.215,2.4,2.4,0,0,0,.4-.655,8.862,8.862,0,0,0,.4-1.11,13.658,13.658,0,0,0,.39-1.54,15.673,15.673,0,0,0,.23-1.6Zm5.377-3.928h8.857v1.666H21.707ZM21.639-4.4h8.772v1.666H21.639ZM21.333-7.65h9.333v1.717H21.333ZM21.35-.833q1.19-.085,2.712-.221t3.188-.306q1.666-.17,3.3-.323L30.564.085q-1.581.187-3.2.365t-3.1.332q-1.479.153-2.7.289Zm8.177-13.481,1.173,1.6q-.918.221-2,.391t-2.219.3q-1.139.128-2.286.213t-2.219.136a4.038,4.038,0,0,0-.178-.816,5.285,5.285,0,0,0-.3-.765q1.054-.068,2.15-.17t2.159-.229q1.063-.128,2.006-.289T29.527-14.314Zm1.564.782h4.675v1.853H32.978V1.53H31.091Zm-5.984.391H26.96V-.272l-1.853.187Zm-2.533,2.975h1.547v6.545H22.574Zm5.406,0h1.547v6.528H27.98Zm7.31-3.366h.391l.306-.068,1.479.9q-.408,1.224-.892,2.592T35.613-7.6a5.954,5.954,0,0,1,1.233,2.142,7.432,7.432,0,0,1,.3,1.836,4.923,4.923,0,0,1-.221,1.581,1.939,1.939,0,0,1-.7.986,1.8,1.8,0,0,1-.518.272,3.617,3.617,0,0,1-.638.153q-.289.034-.654.043T33.658-.6a5.4,5.4,0,0,0-.153-.986,3.58,3.58,0,0,0-.374-.986q.306.017.561.026t.459.008a1.178,1.178,0,0,0,.34-.051A1.914,1.914,0,0,0,34.8-2.7a.775.775,0,0,0,.3-.425,2.414,2.414,0,0,0,.093-.731,5.05,5.05,0,0,0-.306-1.6,5.584,5.584,0,0,0-1.224-1.9q.221-.629.459-1.385t.459-1.521q.221-.765.417-1.437t.3-1.113Zm8.653,5.525H54.806v1.836H43.943Zm.6-3.434h9.69v1.8h-9.69Zm3.587.884h2.04v2.72a7.87,7.87,0,0,1-.2,1.7,5.992,5.992,0,0,1-.714,1.76,6.688,6.688,0,0,1-1.479,1.683A10.186,10.186,0,0,1,45.3-1.224a3.777,3.777,0,0,0-.374-.493q-.238-.272-.493-.544a3.389,3.389,0,0,0-.493-.442,8.631,8.631,0,0,0,2.286-1.173,4.675,4.675,0,0,0,1.241-1.343A4.418,4.418,0,0,0,48-6.587a6.8,6.8,0,0,0,.127-1.267Zm2.346,3.842a6,6,0,0,0,1.606,2.389,6.353,6.353,0,0,0,2.78,1.4,4.759,4.759,0,0,0-.467.51q-.247.306-.459.621t-.365.586a6.729,6.729,0,0,1-3.026-1.921,9.093,9.093,0,0,1-1.785-3.213ZM43.263-7.82v6.273H41.274V-5.933H39.3V-7.82Zm0,5.389a3.09,3.09,0,0,0,1.479,1.224,6.67,6.67,0,0,0,2.278.442q.748.034,1.777.043t2.167-.008Q52.1-.748,53.2-.8t1.947-.119q-.1.238-.238.612t-.247.765a6.576,6.576,0,0,0-.161.7q-.765.051-1.751.076t-2.023.034q-1.037.009-2.006-.008t-1.734-.051A8.668,8.668,0,0,1,44.317.723a4.808,4.808,0,0,1-1.955-1.4Q41.8-.2,41.215.306T39.931,1.36l-1-2.125q.6-.357,1.241-.782t1.241-.884ZM39.319-12.818l1.513-1.224a11.242,11.242,0,0,1,1.071.79q.544.45,1.02.918a7.417,7.417,0,0,1,.765.858l-1.615,1.36A5.773,5.773,0,0,0,41.368-11q-.451-.476-.994-.96T39.319-12.818ZM51.644-14.45l2.074.646q-.459.731-.944,1.436t-.893,1.2l-1.666-.578q.255-.391.527-.859t.51-.952Q51.491-14.042,51.644-14.45ZM44.98-13.7l1.717-.714a9.813,9.813,0,0,1,.9,1.309,6.27,6.27,0,0,1,.6,1.292l-1.836.782a6.031,6.031,0,0,0-.535-1.3A11.536,11.536,0,0,0,44.98-13.7Zm12.393.391H72.2v2.091H57.373ZM65.584-7.6l1.581-1.326q.68.493,1.47,1.079T70.216-6.63Q71.007-6,71.687-5.4t1.156,1.1L71.109-2.72A13.556,13.556,0,0,0,70.03-3.851q-.654-.621-1.411-1.283T67.072-6.426Q66.281-7.055,65.584-7.6Zm-.68-4.93,2.261.8a24.843,24.843,0,0,1-2.3,3.485,22.392,22.392,0,0,1-3,3.136A18.948,18.948,0,0,1,58.24-2.652a5.709,5.709,0,0,0-.408-.612q-.255-.34-.518-.671T56.829-4.5a14.339,14.339,0,0,0,2.6-1.539,19.007,19.007,0,0,0,2.27-1.98,18.054,18.054,0,0,0,1.853-2.219A15.869,15.869,0,0,0,64.9-12.529ZM63.663-8.415l2.227-2.227V1.5H63.663Zm11.016,3.2H90.3V-3.57H74.679ZM75-13.838H89.877v1.768H75Zm5.355,6.97,2.006.527q-.544.884-1.181,1.853t-1.258,1.87q-.62.9-1.147,1.581l-1.955-.612q.527-.68,1.156-1.581t1.258-1.853Q79.864-6.035,80.357-6.868Zm4.93,2.261,1.972.493A8.048,8.048,0,0,1,85.627-1.6,7.759,7.759,0,0,1,83.239.034a14.519,14.519,0,0,1-3.256.977,40.127,40.127,0,0,1-4.216.535,5.5,5.5,0,0,0-.315-.935A4.148,4.148,0,0,0,75-.2a32.411,32.411,0,0,0,4.9-.527,8.949,8.949,0,0,0,3.375-1.326A5.66,5.66,0,0,0,85.287-4.607ZM77.994-1.513l1.02-1.445q1.972.391,3.952.892T86.7-1.046q1.751.519,3.026.978L88.5,1.6q-1.241-.51-2.915-1.062T81.964-.544Q80.017-1.071,77.994-1.513Zm1.5-11.645h1.921v5.814H79.49Zm3.842,0H85.27v5.814H83.332ZM77.705-9.5v1.581H87.31V-9.5Zm-1.921-1.615H89.333v4.794H75.784ZM97.606-6.85q-.1.76-.26,1.62a15.759,15.759,0,0,1-.43,1.74,8.938,8.938,0,0,1-.68,1.74,3.814,3.814,0,0,1-.855,1.125,1.535,1.535,0,0,1-1.015.395,1.583,1.583,0,0,1-1.015-.375,2.561,2.561,0,0,1-.74-1.035,3.87,3.87,0,0,1-.275-1.5,3.917,3.917,0,0,1,.35-1.64,4.363,4.363,0,0,1,.975-1.365,4.623,4.623,0,0,1,1.46-.935,4.74,4.74,0,0,1,1.805-.34,4.45,4.45,0,0,1,1.675.3,3.77,3.77,0,0,1,1.275.83,3.6,3.6,0,0,1,.81,1.24,4.133,4.133,0,0,1,.28,1.53,4.027,4.027,0,0,1-.43,1.88A3.554,3.554,0,0,1,99.261-.27a5.467,5.467,0,0,1-2.105.74l-.75-1.19q.29-.03.51-.07t.42-.09a3.805,3.805,0,0,0,.9-.345,2.793,2.793,0,0,0,.725-.56,2.45,2.45,0,0,0,.485-.785,2.71,2.71,0,0,0,.175-.99,3.111,3.111,0,0,0-.18-1.08,2.432,2.432,0,0,0-.53-.855,2.335,2.335,0,0,0-.85-.56,3.15,3.15,0,0,0-1.15-.2,3.3,3.3,0,0,0-1.41.285,3.3,3.3,0,0,0-1.03.735,3.227,3.227,0,0,0-.635.97,2.592,2.592,0,0,0-.215.99,2.5,2.5,0,0,0,.12.835,1.264,1.264,0,0,0,.295.5.54.54,0,0,0,.375.165.584.584,0,0,0,.415-.215,2.4,2.4,0,0,0,.4-.655,8.86,8.86,0,0,0,.4-1.11,13.658,13.658,0,0,0,.39-1.54,15.673,15.673,0,0,0,.23-1.6ZM4.55,9.17q-.04.19-.09.415T4.37,10q-.04.22-.1.495t-.115.55q-.055.275-.115.535-.1.43-.25,1t-.35,1.225q-.2.655-.45,1.315t-.53,1.285a8.637,8.637,0,0,1-.6,1.125l-1.3-.52a7.8,7.8,0,0,0,.655-1.055q.3-.585.555-1.2t.445-1.22q.195-.6.34-1.125t.225-.89q.14-.68.22-1.31a7.372,7.372,0,0,0,.06-1.19Zm3.44,1.01a7.042,7.042,0,0,1,.5.805q.255.475.5,1t.45,1.02q.2.49.31.85l-1.27.58a8.172,8.172,0,0,0-.265-.93q-.175-.51-.4-1.035t-.485-1a4.7,4.7,0,0,0-.525-.79ZM.49,11.22q.27.02.535.015t.535-.015q.25-.01.6-.035L2.9,11.13q.4-.03.8-.065t.74-.055q.34-.02.56-.02a2.33,2.33,0,0,1,.94.175,1.334,1.334,0,0,1,.635.6A2.341,2.341,0,0,1,6.81,12.9q0,.59-.05,1.28a10.787,10.787,0,0,1-.175,1.32,4.249,4.249,0,0,1-.345,1.07,1.412,1.412,0,0,1-.655.72,2.248,2.248,0,0,1-.985.2,4.537,4.537,0,0,1-.61-.045q-.33-.045-.59-.095l-.21-1.32q.19.05.425.1t.45.08a2.623,2.623,0,0,0,.345.03.972.972,0,0,0,.44-.095.711.711,0,0,0,.31-.335,3.136,3.136,0,0,0,.23-.75,9.217,9.217,0,0,0,.135-.995q.045-.535.045-1.025a1.173,1.173,0,0,0-.115-.59.563.563,0,0,0-.33-.255A1.834,1.834,0,0,0,4.6,12.13q-.23,0-.62.035t-.835.08q-.445.045-.825.1t-.59.07q-.22.04-.555.085T.61,12.58ZM7.81,8.79q.13.18.275.43t.285.5q.14.25.24.44l-.81.35q-.1-.21-.23-.46t-.27-.5a3.44,3.44,0,0,0-.28-.43ZM9,8.34q.13.19.28.44t.3.5q.145.25.225.42l-.79.34q-.16-.31-.38-.7A5.985,5.985,0,0,0,8.2,8.66Zm7.17,1.23q-.07.1-.155.225l-.165.245q-.18.27-.4.625t-.445.75q-.23.395-.445.785t-.4.72a2.176,2.176,0,0,1,.57-.23,2.464,2.464,0,0,1,.58-.07,1.176,1.176,0,0,1,.885.335,1.434,1.434,0,0,1,.355.965q.01.22.01.53t0,.62q.005.31.025.52a.535.535,0,0,0,.215.415.758.758,0,0,0,.435.125.982.982,0,0,0,.585-.19,1.828,1.828,0,0,0,.475-.525,4.021,4.021,0,0,0,.365-.76,8.035,8.035,0,0,0,.265-.885l1.08.88a6.349,6.349,0,0,1-.66,1.5,3.014,3.014,0,0,1-.975,1,2.508,2.508,0,0,1-1.345.355,1.958,1.958,0,0,1-.92-.195,1.321,1.321,0,0,1-.55-.51,1.528,1.528,0,0,1-.2-.685q-.02-.27-.025-.6t-.01-.645q0-.315-.025-.515a.626.626,0,0,0-.17-.41.568.568,0,0,0-.42-.15,1.082,1.082,0,0,0-.63.21,2.309,2.309,0,0,0-.545.55,4.091,4.091,0,0,0-.425.75q-.1.22-.21.52t-.21.62q-.1.32-.19.6t-.15.485l-1.41-.48q.19-.5.465-1.145t.6-1.355q.33-.71.67-1.41t.65-1.325q.31-.625.555-1.09t.375-.7q.1-.2.23-.45T14.75,9Zm12.66-.33q-.01.21-.025.455t-.015.545v1.98a11.438,11.438,0,0,1-.075,1.4,5.5,5.5,0,0,1-.225,1.05,3.726,3.726,0,0,1-.365.8,4.628,4.628,0,0,1-.5.655,4.09,4.09,0,0,1-.76.645,6.04,6.04,0,0,1-.865.48,8.079,8.079,0,0,1-.805.315l-1.05-1.1a5.894,5.894,0,0,0,1.355-.475A3.741,3.741,0,0,0,26.56,15.2a3.17,3.17,0,0,0,.42-.58,2.564,2.564,0,0,0,.245-.645,5.212,5.212,0,0,0,.12-.805q.035-.45.035-1.03v-1.9q0-.3-.015-.545T27.32,9.24Zm-4.64.08q-.01.18-.02.355t-.01.415v3.38q0,.19.01.44t.02.43H22.74q.01-.14.03-.4t.02-.48V10.09q0-.14-.01-.365t-.03-.405Zm15.35.9q-.06.09-.175.28a2.135,2.135,0,0,0-.175.35q-.21.47-.515,1.05t-.69,1.165a11.528,11.528,0,0,1-.815,1.095A16.68,16.68,0,0,1,35.935,15.4a13.53,13.53,0,0,1-1.42,1.13,10.888,10.888,0,0,1-1.525.885l-1.03-1.08a9.3,9.3,0,0,0,1.57-.78,12.075,12.075,0,0,0,2.53-2.09,8.991,8.991,0,0,0,.625-.81,9.54,9.54,0,0,0,.525-.855,4.335,4.335,0,0,0,.34-.785H34.16q-.21,0-.44.015l-.435.03-.315.025V9.67q.15.01.37.03t.445.03q.225.01.375.01h3.53a4.219,4.219,0,0,0,.6-.04,2.6,2.6,0,0,0,.425-.09ZM37.3,13.33q.39.31.83.72t.87.85q.43.44.8.845t.615.705l-1.14.99q-.37-.51-.845-1.06t-1-1.095Q36.9,14.74,36.36,14.25Zm13.29-2.55q-.08.14-.17.335t-.16.385a10.158,10.158,0,0,1-.365,1.005,10.553,10.553,0,0,1-.58,1.17,8.887,8.887,0,0,1-.8,1.165,9.481,9.481,0,0,1-1.675,1.56,10.639,10.639,0,0,1-2.365,1.26L43.3,16.6a9.6,9.6,0,0,0,1.76-.69,7.906,7.906,0,0,0,1.29-.835,7.554,7.554,0,0,0,.98-.945,5.426,5.426,0,0,0,.64-.885,8.839,8.839,0,0,0,.5-.985,4.241,4.241,0,0,0,.28-.86H45.38l.46-1.13H48.7a3.669,3.669,0,0,0,.465-.03,1.98,1.98,0,0,0,.405-.09ZM47.33,9.2q-.18.26-.35.56l-.26.46a10.834,10.834,0,0,1-.835,1.245,11.137,11.137,0,0,1-1.125,1.25,11.452,11.452,0,0,1-1.34,1.1l-1.13-.83a9.649,9.649,0,0,0,1.165-.84,8.2,8.2,0,0,0,1.51-1.675q.265-.395.455-.7a3.555,3.555,0,0,0,.25-.5,4.591,4.591,0,0,0,.2-.555Zm9.05,3.02h1.31v4.27a1.894,1.894,0,0,1-.13.78.842.842,0,0,1-.48.42,2.831,2.831,0,0,1-.85.175q-.5.035-1.15.035a3.6,3.6,0,0,0-.165-.645,4.683,4.683,0,0,0-.265-.635l.595.02q.305.01.55.01h.335a.316.316,0,0,0,.195-.045.177.177,0,0,0,.055-.145Zm-2.41,1.26,1.27.33a8.867,8.867,0,0,1-.535,1.18,12.294,12.294,0,0,1-.665,1.09,7.29,7.29,0,0,1-.71.89q-.12-.1-.325-.24t-.415-.27q-.21-.13-.37-.21a5.867,5.867,0,0,0,1.01-1.24A7.5,7.5,0,0,0,53.97,13.48Zm4.74.43,1.13-.46q.33.46.66.995t.6,1.06a6.569,6.569,0,0,1,.41.955L60.26,17a6.152,6.152,0,0,0-.355-.945q-.245-.535-.56-1.1T58.71,13.91ZM53.45,9.15h7.09v1.19H53.45Zm-.91,2.41h8.94v1.19H52.54ZM66,10.3q.68-.03,1.55-.06t1.845-.075q.975-.045,1.935-.1l-.02,1-1.885.12q-.945.06-1.81.1t-1.565.085Zm2,2.56,1.07.26a5.159,5.159,0,0,1-1.14,1.625,6.8,6.8,0,0,1-1.57,1.145,3.37,3.37,0,0,0-.22-.265q-.14-.155-.29-.305t-.27-.25a5.438,5.438,0,0,0,1.45-.9A3.625,3.625,0,0,0,68,12.86Zm2.22.98h.23l.21-.04.77.36a5.192,5.192,0,0,1-.9,1.465A5.724,5.724,0,0,1,69.24,16.7a7.951,7.951,0,0,1-1.585.745,13.739,13.739,0,0,1-1.815.485,3.826,3.826,0,0,0-.24-.53,2.49,2.49,0,0,0-.32-.48,10.745,10.745,0,0,0,1.635-.355,7.652,7.652,0,0,0,1.43-.59,4.659,4.659,0,0,0,1.135-.85,3.579,3.579,0,0,0,.74-1.115ZM67.39,11.2h1.08a3.687,3.687,0,0,1-.285,1.02,2.154,2.154,0,0,1-.64.8,3.59,3.59,0,0,1-1.215.575,1.734,1.734,0,0,0-.15-.29q-.1-.16-.22-.32a1.861,1.861,0,0,0-.23-.26,2.958,2.958,0,0,0,.965-.36,1.391,1.391,0,0,0,.485-.505A2.13,2.13,0,0,0,67.39,11.2Zm1.87-.14h1.07v1.03a.435.435,0,0,0,.03.21q.03.04.15.04h.46a.167.167,0,0,0,.115-.04.322.322,0,0,0,.07-.175,2.957,2.957,0,0,0,.035-.4,1.846,1.846,0,0,0,.425.215q.275.105.485.165a1.652,1.652,0,0,1-.31.935.925.925,0,0,1-.69.235h-.76a1.635,1.635,0,0,1-.68-.11.594.594,0,0,1-.315-.365,2.315,2.315,0,0,1-.085-.7ZM67.84,8.49l1.25.35q-.23.39-.48.8t-.495.77q-.245.365-.455.645l-.92-.33q.2-.31.405-.7t.39-.8Q67.72,8.82,67.84,8.49ZM69.51,9.5l.87-.52q.33.29.68.65t.65.72a4.6,4.6,0,0,1,.47.66l-.94.59a4.227,4.227,0,0,0-.43-.665q-.28-.365-.62-.745A9.552,9.552,0,0,0,69.51,9.5Zm-1.82,4.34h2.88v.89H67.16Zm-.01.58a4.019,4.019,0,0,0,.965,1.055,6.248,6.248,0,0,0,1.545.875,8.62,8.62,0,0,0,2.08.53,3.981,3.981,0,0,0-.255.31q-.135.18-.25.37a3.034,3.034,0,0,0-.185.35,8.554,8.554,0,0,1-2.125-.7,6.975,6.975,0,0,1-1.6-1.07A5.218,5.218,0,0,1,66.81,14.86ZM63.72,9.48h2.15v5.61H63.72V14h1.13V10.57H63.72Zm-.68,0h1.01v6.47H63.04Zm13.4.38a3.541,3.541,0,0,0-.1-.4q-.055-.18-.1-.36l1.41-.23q.02.15.045.375a3.828,3.828,0,0,0,.065.4q.02.14.09.52l.17.92q.1.54.225,1.165t.245,1.26q.12.635.235,1.205t.2,1.01q.085.44.125.65t.12.48q.07.26.14.5l-1.45.26q-.04-.28-.06-.535a3.314,3.314,0,0,0-.07-.475q-.04-.2-.115-.615t-.18-.975q-.1-.56-.225-1.19l-.24-1.26-.225-1.18q-.1-.55-.185-.955T76.44,9.86Zm-2.73,1.27q.24-.01.47-.025t.46-.045l.62-.085q.4-.055.92-.13t1.075-.165l1.075-.175q.52-.085.925-.155l.635-.11.5-.1q.26-.055.44-.105l.24,1.31q-.16.01-.43.05l-.49.07q-.27.04-.705.11l-.965.155q-.53.085-1.08.17t-1.05.17q-.5.085-.88.145l-.57.09-.45.1q-.21.045-.47.115Zm.01,2.94q.2-.01.505-.045t.535-.065l.72-.11,1.015-.16,1.165-.185q.6-.1,1.17-.195l1.04-.18.76-.13q.29-.06.555-.12t.465-.12l.27,1.32a4.692,4.692,0,0,0-.485.055q-.285.045-.575.095-.32.05-.8.13l-1.055.175q-.575.1-1.175.19t-1.15.19q-.55.1-.99.165T75,15.2l-.575.11q-.255.05-.425.1Zm14.53-3.01q.07.16.185.455l.245.63q.13.335.23.635t.16.47l-1.2.42a4.173,4.173,0,0,0-.14-.48q-.1-.29-.22-.615t-.24-.625q-.12-.3-.21-.5Zm3.69.73q-.08.24-.135.41t-.1.32a9.586,9.586,0,0,1-.52,1.515,6.685,6.685,0,0,1-.84,1.415,7.45,7.45,0,0,1-1.585,1.525,7.855,7.855,0,0,1-1.765.955l-1.05-1.07a6.779,6.779,0,0,0,1.16-.445,7.472,7.472,0,0,0,1.18-.715,4.821,4.821,0,0,0,1.585-1.915,7.188,7.188,0,0,0,.44-1.19,7.4,7.4,0,0,0,.235-1.255Zm-6.01-.2q.1.19.225.49t.255.63q.13.33.255.64t.2.52l-1.22.46q-.06-.2-.175-.52t-.255-.675q-.14-.355-.265-.655a4.587,4.587,0,0,0-.215-.46Zm10.81,4.45V10.29q0-.26-.025-.6a5.248,5.248,0,0,0-.075-.6H98.2q-.03.26-.06.575t-.03.625v5.75q0,.14.01.395t.04.525q.03.27.04.48H96.64q.04-.3.07-.7T96.74,16.04Zm1.07-4.36q.5.13,1.12.335t1.25.435q.63.23,1.185.455t.925.415l-.57,1.38q-.42-.22-.93-.445t-1.035-.435q-.525-.21-1.03-.39t-.915-.32Z" transform="translate(12.936 28.092)" fill="#333"/>
      <path id="パス_824_-_アウトライン" data-name="パス 824 - アウトライン" d="M50.737-16.3l5.136,1.6v-.107H73.5v-.527H91.377v4.768h-.544v3.851H91.8v.459a5.948,5.948,0,0,1,.825-.972,6.137,6.137,0,0,1,1.929-1.238,6.254,6.254,0,0,1,2.371-.451,5.959,5.959,0,0,1,2.235.409,5.278,5.278,0,0,1,1.775,1.161,5.111,5.111,0,0,1,1.145,1.75,5.644,5.644,0,0,1,.385,2.08,5.528,5.528,0,0,1-.6,2.57,5.051,5.051,0,0,1-1.8,1.944,6.97,6.97,0,0,1-2.678.958l-.977.155L95.69.957a2.958,2.958,0,0,1-1.324.313A3.094,3.094,0,0,1,92.409.563a3.755,3.755,0,0,1-.719-.774L89.014,3.431,87.93,2.985c-.791-.325-1.738-.67-2.815-1.025-.472-.156-.965-.311-1.474-.465a16.385,16.385,0,0,1-3.381.991,41.813,41.813,0,0,1-4.375.557l-1.289.1-.291-1.26a4.034,4.034,0,0,0-.23-.679,2.661,2.661,0,0,0-.281-.52L72.121-1.585,74.94-1.7h.026l.284-.366H73.179v-.507L70.961-.555l-1-1.2a12.144,12.144,0,0,0-.959-1c-.42-.4-.88-.817-1.368-1.244l-.24-.209V3H62.163V-3.413a20.553,20.553,0,0,1-3.229,2.091L57.645-.65l-.557-.991L56.525-.327c-.057.132-.126.312-.207.534s-.149.436-.213.66a5.129,5.129,0,0,0-.125.536l-.2,1.171L54.6,2.653c-.528.035-1.137.062-1.812.079s-1.352.029-2.049.034l-.7,0c-.457,0-.911,0-1.349-.012-.656-.012-1.253-.029-1.774-.052a10.183,10.183,0,0,1-3.131-.579,6.018,6.018,0,0,1-1.462-.8l-.127.111c-.409.356-.862.727-1.345,1.1L39.375,3.7l-1.843-3.9a3.227,3.227,0,0,1-.415.358,3.312,3.312,0,0,1-.925.486,5.136,5.136,0,0,1-.9.217l-.047.006c-.23.027-.488.044-.766.052V3.03H29.591V1.709c-.684.079-1.376.157-2.068.233-1.08.119-2.127.231-3.112.333s-1.884.2-2.692.288l-1.5.166L19.933.019a5.261,5.261,0,0,1-1.14.975,6.97,6.97,0,0,1-2.678.958l-.977.155L14.414.957a2.958,2.958,0,0,1-1.324.313A3.094,3.094,0,0,1,11.133.563,3.639,3.639,0,0,1,10.81.268l-.113.1a2.2,2.2,0,0,0-.166.177c-.073.084-.141.172-.2.26A1.779,1.779,0,0,0,10.206,1L9.523,2.291,8.216,1.645a6.932,6.932,0,0,1-.67-.378A2.26,2.26,0,0,1,6.681,2l-.02.01A3.381,3.381,0,0,1,5.5,2.319c-.3.028-.636.041-1.014.041H3.219l-.086-.516L2.348,2.3l-.1-.158L1.686,3.168.288,1.886C.28,1.88.259,1.866.222,1.845.111,1.781,0,1.719-.119,1.66A1.024,1.024,0,0,0-.248,1.6l-1.777-.555L-1.1-.572a3.93,3.93,0,0,0,.371-.912A8.638,8.638,0,0,0-.5-2.676c.054-.434.089-.866.1-1.283C-.378-4.4-.37-4.816-.37-5.19V-9.63H10.42V-6.1a5.928,5.928,0,0,1,.931-1.134,6.138,6.138,0,0,1,1.929-1.238A6.254,6.254,0,0,1,15.65-8.92a5.959,5.959,0,0,1,2.235.409,5.278,5.278,0,0,1,1.775,1.161q.089.089.172.181V-9.15h.374v-3.128h.084a2.947,2.947,0,0,0-.13-.311L19.15-14.611l2.256-.146c.685-.044,1.394-.1,2.108-.167s1.427-.142,2.119-.225,1.33-.175,1.932-.278c.581-.1,1.111-.213,1.575-.336l.99-.264.731,1h4.656l.735-.163.268.163h.746v.455l1.051.64,2.416-1.954.912.589a12.752,12.752,0,0,1,1.184.87l4.319-1.8.707.858a11.36,11.36,0,0,1,1.04,1.509c.154.265.287.516.4.757q.075-.125.151-.256c.163-.28.318-.569.46-.859s.248-.533.333-.758ZM61.228-9.72H55.873v-4.7l-.885,1.409-.041.065h.781v3.434h.578v3.591a12.912,12.912,0,0,0,2.229-1.332,17.593,17.593,0,0,0,2.091-1.824Q60.938-9.391,61.228-9.72ZM40.8-9.32a4.337,4.337,0,0,0-.523-.648c-.27-.285-.573-.578-.9-.871-.255-.227-.5-.434-.744-.619-.2.595-.418,1.215-.644,1.853l-.1.286Zm33.483-1.25H73.7v.85H68.621c.291.213.594.437.908.67.538.4,1.083.818,1.621,1.246s1.061.866,1.532,1.284q.261.232.5.451v-.65h1.1ZM37.8-7.056V-9.089q-.239.655-.477,1.26A7.876,7.876,0,0,1,37.8-7.056Zm1.972,2.623h-1.19a7.483,7.483,0,0,1,.059.781v.031a7.319,7.319,0,0,1-.113,1.342c.264-.164.537-.338.815-.521q.217-.143.429-.291ZM90.931-2.07H88.476c.644.2,1.231.4,1.756.591l.966.348A4.966,4.966,0,0,1,90.931-2.07ZM9.559,6.5l.679.992c.1.151.214.324.328.515.1.172.206.347.306.519.119.206.212.38.285.534l.66,1.4-1.571.676.1.209c.177.375.339.743.482,1.093.089.218.166.418.231.6q.135-.282.271-.562c.228-.469.448-.918.655-1.336s.4-.8.572-1.123c.158-.3.283-.535.372-.7.068-.135.145-.286.23-.449.065-.124.132-.273.2-.443l.562-1.384,4.56,1.83L17.4,10.43l-.143.208-.157.234c-.108.161-.229.353-.36.57l-.022.036a2.552,2.552,0,0,1,.555.433,2.592,2.592,0,0,1,.423.577l.332-1.389L21.28,13.75c.007-.105.01-.2.01-.29V10.09c0-.049,0-.14-.009-.3-.005-.116-.013-.219-.022-.306L21.074,7.82H25.6l-.011-.08H30.4l-.075,1.571q-.01.219-.026.475c-.008.132-.012.285-.012.453v1.98a12.976,12.976,0,0,1-.087,1.586,7.012,7.012,0,0,1-.29,1.338q-.075.225-.165.436l1.676-.641a7.844,7.844,0,0,0,1.317-.655,10.274,10.274,0,0,0,1.23-.889,10.456,10.456,0,0,0,.925-.875H34.16c-.107,0-.222,0-.342.012l-.423.029-.289.023-1.636.149V8.067l1.6.107c.113.008.246.018.406.033.123.011.25.02.376.025s.231.009.308.009h3.53a2.747,2.747,0,0,0,.389-.024c.111-.016.163-.028.176-.032l.733-.244,2.591,1.927-.79,1.185c-.013.019-.051.078-.14.225a.772.772,0,0,0-.054.1l-.016.043-.019.042c-.152.341-.34.723-.557,1.136l-.037.07,1.533-.952a8.2,8.2,0,0,0,.984-.708,6.786,6.786,0,0,0,.716-.7,6.855,6.855,0,0,0,.521-.671c.164-.245.306-.465.422-.653l.011-.017a2.1,2.1,0,0,0,.138-.282,3.132,3.132,0,0,0,.135-.371l.423-1.51,4.858,1.6-.1.144.145-.051.606.379,1.592.983V7.65H62.04v.33h4.389v0l.475-1.307,3.006.842.637-.381.821.722c.231.2.47.43.711.676l.781-.041-.018.88.018.022q.113.136.212.265l.573-.024c.148-.006.294-.014.435-.023.119-.008.241-.02.36-.035l.358-.049L74.795,9.5l-.448-1.613,4.586-.748.2,1.531c.007.053.014.11.022.173l.45-.078.471-.1c.142-.03.26-.058.349-.083l1.581-.439.511,2.787.27-.081.051.251,3.808-1.365.12.228,2.307-.756.132.3.016-.17,4.616,1.484-.479,1.438q-.078.233-.131.4-.047.147-.091.279a11.159,11.159,0,0,1-.586,1.695,8.218,8.218,0,0,1-1.027,1.731A8.991,8.991,0,0,1,89.62,18.2a9.388,9.388,0,0,1-2.1,1.134l-.914.343-3.524-3.592,1.407-.384-.282-.941c-.022-.074-.066-.21-.15-.444-.071-.2-.151-.411-.239-.632s-.175-.438-.254-.628a3.193,3.193,0,0,0-.138-.3l-.381-.678.7,3.413-1.745.087a3.2,3.2,0,0,0-.326.039c-.182.029-.368.059-.554.092l-.023,0-.623.1.05.259c.028.121.061.254.1.4.044.162.088.32.132.47l.467,1.6-4.622.829-.22-1.539c-.031-.217-.055-.429-.07-.63a1.83,1.83,0,0,0-.037-.26l-.008-.038c-.019-.1-.044-.224-.073-.385l-.26.042c-.272.043-.485.08-.632.11l-.018,0-.563.108c-.154.03-.243.053-.29.067l-.114.034L73.372,17.9c-.031.034-.084.094-.157.193-.06.08-.116.163-.167.247a1.559,1.559,0,0,0-.094.175l-.485,1.108-1.186-.239a10.155,10.155,0,0,1-2.423-.8q-.35.152-.717.279a15.309,15.309,0,0,1-2.013.538l-1.28.253-.428-1.232a2.349,2.349,0,0,0-.147-.317,1.151,1.151,0,0,0-.118-.189l-.415-.466H63l-3.74,1.616-.323-1.2-.018.039a2.317,2.317,0,0,1-1.283,1.181,4.267,4.267,0,0,1-1.3.279c-.367.026-.789.039-1.255.039h-1.3l-.09-.628-.238.252-1.081-.9c-.02-.016-.079-.064-.211-.154s-.238-.159-.359-.233-.206-.121-.251-.144l-1.96-.98,1.623-1.473a4.355,4.355,0,0,0,.724-.889h-.9v-.634c-.127.264-.268.532-.422.8a10.433,10.433,0,0,1-.929,1.362l-.019.023a11.027,11.027,0,0,1-1.938,1.807,12.174,12.174,0,0,1-2.7,1.444l-.864.343-2.392-2.148-2.76,2.4-.961-1.325c-.221-.3-.479-.627-.766-.96-.184-.213-.376-.428-.574-.642a15.08,15.08,0,0,1-1.348,1.05,12.444,12.444,0,0,1-1.735,1.006l-.98.465-3.1-3.25q-.074.139-.155.269a6.153,6.153,0,0,1-.655.867l-.007.008a5.611,5.611,0,0,1-1.037.882,7.57,7.57,0,0,1-1.08.6,9.611,9.611,0,0,1-.956.373l-.9.291L21.485,15.84h-.307a7.316,7.316,0,0,1-.553,1.1,4.512,4.512,0,0,1-1.462,1.486A4,4,0,0,1,17.03,19a3.439,3.439,0,0,1-1.619-.368,2.8,2.8,0,0,1-1.153-1.093,3.035,3.035,0,0,1-.2-.433l-.123.391c-.058.182-.106.338-.144.464l-.447,1.49L8.986,17.969l.552-1.452c.125-.329.277-.7.452-1.118l-2.066.943a5.215,5.215,0,0,1-.332.877,2.907,2.907,0,0,1-1.356,1.421A3.739,3.739,0,0,1,4.6,18.99a6.057,6.057,0,0,1-.813-.059c-.246-.034-.471-.07-.671-.108l-.27-.052-.392.612-4.263-1.705,1.165-1.564a6.336,6.336,0,0,0,.528-.853c.181-.346.347-.707.5-1.071L.4,14.139l-1.142.2-.419-4.744,1.76.13c.133.01.266.014.4.011.167,0,.338-.008.508-.014l.039,0a5.5,5.5,0,0,0,.017-.646L1.5,7.355l4.717.475,2.113-.883.025.035ZM25.67,13.889a1.1,1.1,0,0,0,.1-.263,3.752,3.752,0,0,0,.083-.572c.02-.26.03-.567.03-.914v-1.9c0-.169,0-.321-.012-.453s-.019-.235-.033-.335L25.727,8.7l-.039.707q-.01.181-.02.357c-.005.088-.008.2-.008.329v3.38c0,.106,0,.234.009.38ZM42.759,15.2l-2.98-2.189q-.1.174-.2.348.251.244.5.5c.3.306.581.605.837.889s.475.535.653.749l.039.046ZM94.824,7.59h5.059L99.69,9.262c-.019.163-.038.346-.057.545-.015.162-.023.324-.023.483v.371c.359.121.723.248,1.084.38.434.159.85.318,1.234.474.415.168.758.322,1.047.471l1.228.631-1.724,4.175-1.455-.762c-.249-.13-.532-.266-.839-.4-.189-.083-.381-.166-.575-.246v.659c0,.051,0,.15.009.336.005.134.016.274.032.418.024.214.039.4.047.574l.075,1.571H94.927l.226-1.7c.023-.171.043-.377.061-.614s.026-.426.026-.588V10.29c0-.136-.007-.3-.021-.49a3.8,3.8,0,0,0-.052-.427Z" transform="translate(12.936 28.092)" fill="#fff"/>
      <path id="パス_826" data-name="パス 826" d="M1.13-8.13H2.34v2.94q0,.65-.035,1.425T2.16-2.18A11.9,11.9,0,0,1,1.84-.61,6.41,6.41,0,0,1,1.29.77,1.816,1.816,0,0,0,.97.545Q.77.43.565.325A2.369,2.369,0,0,0,.2.17,5.4,5.4,0,0,0,.715-1.09,10.1,10.1,0,0,0,.99-2.49q.09-.72.115-1.415T1.13-5.19Zm.91,0H8.92v2.99H2.04V-6.22H7.71v-.83H2.04ZM2.6-3.94H4.29v1.05H2.6ZM5.27-4.98h1.2V-.37a1.894,1.894,0,0,1-.09.655A.71.71,0,0,1,6.01.66a1.886,1.886,0,0,1-.645.165Q4.99.86,4.49.86A3.728,3.728,0,0,0,4.345.305,3.746,3.746,0,0,0,4.12-.24q.3.01.585.015t.385,0a.28.28,0,0,0,.145-.04A.156.156,0,0,0,5.27-.39Zm3.07.51,1.03.73q-.35.31-.735.63t-.75.605q-.365.285-.7.5l-.78-.63q.31-.23.665-.545t.7-.655A6.6,6.6,0,0,0,8.34-4.47Zm-1.9.23a6.754,6.754,0,0,0,.74,1.47A5.657,5.657,0,0,0,8.27-1.555,4.977,4.977,0,0,0,9.68-.73a3.673,3.673,0,0,0-.285.3q-.155.18-.29.37A3.266,3.266,0,0,0,8.88.3,5.373,5.373,0,0,1,7.435-.74,6.649,6.649,0,0,1,6.34-2.21a10.354,10.354,0,0,1-.78-1.81Zm-2.49.3h.23l.19-.02.68.18A7.128,7.128,0,0,1,4.265-1.2,3.933,3.933,0,0,1,2.84.28,1.827,1.827,0,0,0,2.615.01Q2.46-.15,2.3-.3a2.266,2.266,0,0,0-.28-.23A3.24,3.24,0,0,0,3.3-1.735,5.1,5.1,0,0,0,3.95-3.77ZM16.33-6.85q-.1.76-.26,1.62a15.76,15.76,0,0,1-.43,1.74,8.938,8.938,0,0,1-.68,1.74A3.814,3.814,0,0,1,14.1-.625,1.535,1.535,0,0,1,13.09-.23a1.583,1.583,0,0,1-1.015-.375,2.561,2.561,0,0,1-.74-1.035,3.87,3.87,0,0,1-.275-1.5,3.917,3.917,0,0,1,.35-1.64,4.363,4.363,0,0,1,.975-1.365,4.623,4.623,0,0,1,1.46-.935,4.74,4.74,0,0,1,1.8-.34,4.45,4.45,0,0,1,1.675.3,3.77,3.77,0,0,1,1.275.83,3.6,3.6,0,0,1,.81,1.24,4.133,4.133,0,0,1,.28,1.53,4.027,4.027,0,0,1-.43,1.88A3.554,3.554,0,0,1,17.985-.27,5.467,5.467,0,0,1,15.88.47L15.13-.72q.29-.03.51-.07t.42-.09a3.805,3.805,0,0,0,.895-.345,2.793,2.793,0,0,0,.725-.56,2.45,2.45,0,0,0,.485-.785,2.709,2.709,0,0,0,.175-.99,3.111,3.111,0,0,0-.18-1.08,2.432,2.432,0,0,0-.53-.855,2.335,2.335,0,0,0-.85-.56,3.15,3.15,0,0,0-1.15-.2,3.3,3.3,0,0,0-1.41.285,3.3,3.3,0,0,0-1.03.735,3.227,3.227,0,0,0-.635.97,2.592,2.592,0,0,0-.215.99,2.5,2.5,0,0,0,.12.835,1.264,1.264,0,0,0,.3.5.54.54,0,0,0,.375.165.584.584,0,0,0,.415-.215,2.4,2.4,0,0,0,.4-.655,8.862,8.862,0,0,0,.4-1.11,13.658,13.658,0,0,0,.39-1.54,15.673,15.673,0,0,0,.23-1.6Zm5.377-3.928h8.857v1.666H21.707ZM21.639-4.4h8.772v1.666H21.639ZM21.333-7.65h9.333v1.717H21.333ZM21.35-.833q1.19-.085,2.712-.221t3.188-.306q1.666-.17,3.3-.323L30.564.085q-1.581.187-3.2.365t-3.1.332q-1.479.153-2.7.289Zm8.177-13.481,1.173,1.6q-.918.221-2,.391t-2.219.3q-1.139.128-2.286.213t-2.219.136a4.038,4.038,0,0,0-.178-.816,5.285,5.285,0,0,0-.3-.765q1.054-.068,2.15-.17t2.159-.229q1.063-.128,2.006-.289T29.527-14.314Zm1.564.782h4.675v1.853H32.978V1.53H31.091Zm-5.984.391H26.96V-.272l-1.853.187Zm-2.533,2.975h1.547v6.545H22.574Zm5.406,0h1.547v6.528H27.98Zm7.31-3.366h.391l.306-.068,1.479.9q-.408,1.224-.892,2.592T35.613-7.6a5.954,5.954,0,0,1,1.233,2.142,7.432,7.432,0,0,1,.3,1.836,4.923,4.923,0,0,1-.221,1.581,1.939,1.939,0,0,1-.7.986,1.8,1.8,0,0,1-.518.272,3.617,3.617,0,0,1-.638.153q-.289.034-.654.043T33.658-.6a5.4,5.4,0,0,0-.153-.986,3.58,3.58,0,0,0-.374-.986q.306.017.561.026t.459.008a1.178,1.178,0,0,0,.34-.051A1.914,1.914,0,0,0,34.8-2.7a.775.775,0,0,0,.3-.425,2.414,2.414,0,0,0,.093-.731,5.05,5.05,0,0,0-.306-1.6,5.584,5.584,0,0,0-1.224-1.9q.221-.629.459-1.385t.459-1.521q.221-.765.417-1.437t.3-1.113Zm8.653,5.525H54.806v1.836H43.943Zm.6-3.434h9.69v1.8h-9.69Zm3.587.884h2.04v2.72a7.87,7.87,0,0,1-.2,1.7,5.992,5.992,0,0,1-.714,1.76,6.688,6.688,0,0,1-1.479,1.683A10.186,10.186,0,0,1,45.3-1.224a3.777,3.777,0,0,0-.374-.493q-.238-.272-.493-.544a3.389,3.389,0,0,0-.493-.442,8.631,8.631,0,0,0,2.286-1.173,4.675,4.675,0,0,0,1.241-1.343A4.418,4.418,0,0,0,48-6.587a6.8,6.8,0,0,0,.127-1.267Zm2.346,3.842a6,6,0,0,0,1.606,2.389,6.353,6.353,0,0,0,2.78,1.4,4.759,4.759,0,0,0-.467.51q-.247.306-.459.621t-.365.586a6.729,6.729,0,0,1-3.026-1.921,9.093,9.093,0,0,1-1.785-3.213ZM43.263-7.82v6.273H41.274V-5.933H39.3V-7.82Zm0,5.389a3.09,3.09,0,0,0,1.479,1.224,6.67,6.67,0,0,0,2.278.442q.748.034,1.777.043t2.167-.008Q52.1-.748,53.2-.8t1.947-.119q-.1.238-.238.612t-.247.765a6.576,6.576,0,0,0-.161.7q-.765.051-1.751.076t-2.023.034q-1.037.009-2.006-.008t-1.734-.051A8.668,8.668,0,0,1,44.317.723a4.808,4.808,0,0,1-1.955-1.4Q41.8-.2,41.215.306T39.931,1.36l-1-2.125q.6-.357,1.241-.782t1.241-.884ZM39.319-12.818l1.513-1.224a11.242,11.242,0,0,1,1.071.79q.544.45,1.02.918a7.417,7.417,0,0,1,.765.858l-1.615,1.36A5.773,5.773,0,0,0,41.368-11q-.451-.476-.994-.96T39.319-12.818ZM51.644-14.45l2.074.646q-.459.731-.944,1.436t-.893,1.2l-1.666-.578q.255-.391.527-.859t.51-.952Q51.491-14.042,51.644-14.45ZM44.98-13.7l1.717-.714a9.813,9.813,0,0,1,.9,1.309,6.27,6.27,0,0,1,.6,1.292l-1.836.782a6.031,6.031,0,0,0-.535-1.3A11.536,11.536,0,0,0,44.98-13.7Zm12.393.391H72.2v2.091H57.373ZM65.584-7.6l1.581-1.326q.68.493,1.47,1.079T70.216-6.63Q71.007-6,71.687-5.4t1.156,1.1L71.109-2.72A13.556,13.556,0,0,0,70.03-3.851q-.654-.621-1.411-1.283T67.072-6.426Q66.281-7.055,65.584-7.6Zm-.68-4.93,2.261.8a24.843,24.843,0,0,1-2.3,3.485,22.392,22.392,0,0,1-3,3.136A18.948,18.948,0,0,1,58.24-2.652a5.709,5.709,0,0,0-.408-.612q-.255-.34-.518-.671T56.829-4.5a14.339,14.339,0,0,0,2.6-1.539,19.007,19.007,0,0,0,2.27-1.98,18.054,18.054,0,0,0,1.853-2.219A15.869,15.869,0,0,0,64.9-12.529ZM63.663-8.415l2.227-2.227V1.5H63.663Zm11.016,3.2H90.3V-3.57H74.679ZM75-13.838H89.877v1.768H75Zm5.355,6.97,2.006.527q-.544.884-1.181,1.853t-1.258,1.87q-.62.9-1.147,1.581l-1.955-.612q.527-.68,1.156-1.581t1.258-1.853Q79.864-6.035,80.357-6.868Zm4.93,2.261,1.972.493A8.048,8.048,0,0,1,85.627-1.6,7.759,7.759,0,0,1,83.239.034a14.519,14.519,0,0,1-3.256.977,40.127,40.127,0,0,1-4.216.535,5.5,5.5,0,0,0-.315-.935A4.148,4.148,0,0,0,75-.2a32.411,32.411,0,0,0,4.9-.527,8.949,8.949,0,0,0,3.375-1.326A5.66,5.66,0,0,0,85.287-4.607ZM77.994-1.513l1.02-1.445q1.972.391,3.952.892T86.7-1.046q1.751.519,3.026.978L88.5,1.6q-1.241-.51-2.915-1.062T81.964-.544Q80.017-1.071,77.994-1.513Zm1.5-11.645h1.921v5.814H79.49Zm3.842,0H85.27v5.814H83.332ZM77.705-9.5v1.581H87.31V-9.5Zm-1.921-1.615H89.333v4.794H75.784ZM97.606-6.85q-.1.76-.26,1.62a15.759,15.759,0,0,1-.43,1.74,8.938,8.938,0,0,1-.68,1.74,3.814,3.814,0,0,1-.855,1.125,1.535,1.535,0,0,1-1.015.395,1.583,1.583,0,0,1-1.015-.375,2.561,2.561,0,0,1-.74-1.035,3.87,3.87,0,0,1-.275-1.5,3.917,3.917,0,0,1,.35-1.64,4.363,4.363,0,0,1,.975-1.365,4.623,4.623,0,0,1,1.46-.935,4.74,4.74,0,0,1,1.805-.34,4.45,4.45,0,0,1,1.675.3,3.77,3.77,0,0,1,1.275.83,3.6,3.6,0,0,1,.81,1.24,4.133,4.133,0,0,1,.28,1.53,4.027,4.027,0,0,1-.43,1.88A3.554,3.554,0,0,1,99.261-.27a5.467,5.467,0,0,1-2.105.74l-.75-1.19q.29-.03.51-.07t.42-.09a3.805,3.805,0,0,0,.9-.345,2.793,2.793,0,0,0,.725-.56,2.45,2.45,0,0,0,.485-.785,2.71,2.71,0,0,0,.175-.99,3.111,3.111,0,0,0-.18-1.08,2.432,2.432,0,0,0-.53-.855,2.335,2.335,0,0,0-.85-.56,3.15,3.15,0,0,0-1.15-.2,3.3,3.3,0,0,0-1.41.285,3.3,3.3,0,0,0-1.03.735,3.227,3.227,0,0,0-.635.97,2.592,2.592,0,0,0-.215.99,2.5,2.5,0,0,0,.12.835,1.264,1.264,0,0,0,.295.5.54.54,0,0,0,.375.165.584.584,0,0,0,.415-.215,2.4,2.4,0,0,0,.4-.655,8.86,8.86,0,0,0,.4-1.11,13.658,13.658,0,0,0,.39-1.54,15.673,15.673,0,0,0,.23-1.6ZM4.55,9.17q-.04.19-.09.415T4.37,10q-.04.22-.1.495t-.115.55q-.055.275-.115.535-.1.43-.25,1t-.35,1.225q-.2.655-.45,1.315t-.53,1.285a8.637,8.637,0,0,1-.6,1.125l-1.3-.52a7.8,7.8,0,0,0,.655-1.055q.3-.585.555-1.2t.445-1.22q.195-.6.34-1.125t.225-.89q.14-.68.22-1.31a7.372,7.372,0,0,0,.06-1.19Zm3.44,1.01a7.042,7.042,0,0,1,.5.805q.255.475.5,1t.45,1.02q.2.49.31.85l-1.27.58a8.172,8.172,0,0,0-.265-.93q-.175-.51-.4-1.035t-.485-1a4.7,4.7,0,0,0-.525-.79ZM.49,11.22q.27.02.535.015t.535-.015q.25-.01.6-.035L2.9,11.13q.4-.03.8-.065t.74-.055q.34-.02.56-.02a2.33,2.33,0,0,1,.94.175,1.334,1.334,0,0,1,.635.6A2.341,2.341,0,0,1,6.81,12.9q0,.59-.05,1.28a10.787,10.787,0,0,1-.175,1.32,4.249,4.249,0,0,1-.345,1.07,1.412,1.412,0,0,1-.655.72,2.248,2.248,0,0,1-.985.2,4.537,4.537,0,0,1-.61-.045q-.33-.045-.59-.095l-.21-1.32q.19.05.425.1t.45.08a2.623,2.623,0,0,0,.345.03.972.972,0,0,0,.44-.095.711.711,0,0,0,.31-.335,3.136,3.136,0,0,0,.23-.75,9.217,9.217,0,0,0,.135-.995q.045-.535.045-1.025a1.173,1.173,0,0,0-.115-.59.563.563,0,0,0-.33-.255A1.834,1.834,0,0,0,4.6,12.13q-.23,0-.62.035t-.835.08q-.445.045-.825.1t-.59.07q-.22.04-.555.085T.61,12.58ZM7.81,8.79q.13.18.275.43t.285.5q.14.25.24.44l-.81.35q-.1-.21-.23-.46t-.27-.5a3.44,3.44,0,0,0-.28-.43ZM9,8.34q.13.19.28.44t.3.5q.145.25.225.42l-.79.34q-.16-.31-.38-.7A5.985,5.985,0,0,0,8.2,8.66Zm7.17,1.23q-.07.1-.155.225l-.165.245q-.18.27-.4.625t-.445.75q-.23.395-.445.785t-.4.72a2.176,2.176,0,0,1,.57-.23,2.464,2.464,0,0,1,.58-.07,1.176,1.176,0,0,1,.885.335,1.434,1.434,0,0,1,.355.965q.01.22.01.53t0,.62q.005.31.025.52a.535.535,0,0,0,.215.415.758.758,0,0,0,.435.125.982.982,0,0,0,.585-.19,1.828,1.828,0,0,0,.475-.525,4.021,4.021,0,0,0,.365-.76,8.035,8.035,0,0,0,.265-.885l1.08.88a6.349,6.349,0,0,1-.66,1.5,3.014,3.014,0,0,1-.975,1,2.508,2.508,0,0,1-1.345.355,1.958,1.958,0,0,1-.92-.195,1.321,1.321,0,0,1-.55-.51,1.528,1.528,0,0,1-.2-.685q-.02-.27-.025-.6t-.01-.645q0-.315-.025-.515a.626.626,0,0,0-.17-.41.568.568,0,0,0-.42-.15,1.082,1.082,0,0,0-.63.21,2.309,2.309,0,0,0-.545.55,4.091,4.091,0,0,0-.425.75q-.1.22-.21.52t-.21.62q-.1.32-.19.6t-.15.485l-1.41-.48q.19-.5.465-1.145t.6-1.355q.33-.71.67-1.41t.65-1.325q.31-.625.555-1.09t.375-.7q.1-.2.23-.45T14.75,9Zm12.66-.33q-.01.21-.025.455t-.015.545v1.98a11.438,11.438,0,0,1-.075,1.4,5.5,5.5,0,0,1-.225,1.05,3.726,3.726,0,0,1-.365.8,4.628,4.628,0,0,1-.5.655,4.09,4.09,0,0,1-.76.645,6.04,6.04,0,0,1-.865.48,8.079,8.079,0,0,1-.805.315l-1.05-1.1a5.894,5.894,0,0,0,1.355-.475A3.741,3.741,0,0,0,26.56,15.2a3.17,3.17,0,0,0,.42-.58,2.564,2.564,0,0,0,.245-.645,5.212,5.212,0,0,0,.12-.805q.035-.45.035-1.03v-1.9q0-.3-.015-.545T27.32,9.24Zm-4.64.08q-.01.18-.02.355t-.01.415v3.38q0,.19.01.44t.02.43H22.74q.01-.14.03-.4t.02-.48V10.09q0-.14-.01-.365t-.03-.405Zm15.35.9q-.06.09-.175.28a2.135,2.135,0,0,0-.175.35q-.21.47-.515,1.05t-.69,1.165a11.528,11.528,0,0,1-.815,1.095A16.68,16.68,0,0,1,35.935,15.4a13.53,13.53,0,0,1-1.42,1.13,10.888,10.888,0,0,1-1.525.885l-1.03-1.08a9.3,9.3,0,0,0,1.57-.78,12.075,12.075,0,0,0,2.53-2.09,8.991,8.991,0,0,0,.625-.81,9.54,9.54,0,0,0,.525-.855,4.335,4.335,0,0,0,.34-.785H34.16q-.21,0-.44.015l-.435.03-.315.025V9.67q.15.01.37.03t.445.03q.225.01.375.01h3.53a4.219,4.219,0,0,0,.6-.04,2.6,2.6,0,0,0,.425-.09ZM37.3,13.33q.39.31.83.72t.87.85q.43.44.8.845t.615.705l-1.14.99q-.37-.51-.845-1.06t-1-1.095Q36.9,14.74,36.36,14.25Zm13.29-2.55q-.08.14-.17.335t-.16.385a10.158,10.158,0,0,1-.365,1.005,10.553,10.553,0,0,1-.58,1.17,8.887,8.887,0,0,1-.8,1.165,9.481,9.481,0,0,1-1.675,1.56,10.639,10.639,0,0,1-2.365,1.26L43.3,16.6a9.6,9.6,0,0,0,1.76-.69,7.906,7.906,0,0,0,1.29-.835,7.554,7.554,0,0,0,.98-.945,5.426,5.426,0,0,0,.64-.885,8.839,8.839,0,0,0,.5-.985,4.241,4.241,0,0,0,.28-.86H45.38l.46-1.13H48.7a3.669,3.669,0,0,0,.465-.03,1.98,1.98,0,0,0,.405-.09ZM47.33,9.2q-.18.26-.35.56l-.26.46a10.834,10.834,0,0,1-.835,1.245,11.137,11.137,0,0,1-1.125,1.25,11.452,11.452,0,0,1-1.34,1.1l-1.13-.83a9.649,9.649,0,0,0,1.165-.84,8.2,8.2,0,0,0,1.51-1.675q.265-.395.455-.7a3.555,3.555,0,0,0,.25-.5,4.591,4.591,0,0,0,.2-.555Zm9.05,3.02h1.31v4.27a1.894,1.894,0,0,1-.13.78.842.842,0,0,1-.48.42,2.831,2.831,0,0,1-.85.175q-.5.035-1.15.035a3.6,3.6,0,0,0-.165-.645,4.683,4.683,0,0,0-.265-.635l.595.02q.305.01.55.01h.335a.316.316,0,0,0,.195-.045.177.177,0,0,0,.055-.145Zm-2.41,1.26,1.27.33a8.867,8.867,0,0,1-.535,1.18,12.294,12.294,0,0,1-.665,1.09,7.29,7.29,0,0,1-.71.89q-.12-.1-.325-.24t-.415-.27q-.21-.13-.37-.21a5.867,5.867,0,0,0,1.01-1.24A7.5,7.5,0,0,0,53.97,13.48Zm4.74.43,1.13-.46q.33.46.66.995t.6,1.06a6.569,6.569,0,0,1,.41.955L60.26,17a6.152,6.152,0,0,0-.355-.945q-.245-.535-.56-1.1T58.71,13.91ZM53.45,9.15h7.09v1.19H53.45Zm-.91,2.41h8.94v1.19H52.54ZM66,10.3q.68-.03,1.55-.06t1.845-.075q.975-.045,1.935-.1l-.02,1-1.885.12q-.945.06-1.81.1t-1.565.085Zm2,2.56,1.07.26a5.159,5.159,0,0,1-1.14,1.625,6.8,6.8,0,0,1-1.57,1.145,3.37,3.37,0,0,0-.22-.265q-.14-.155-.29-.305t-.27-.25a5.438,5.438,0,0,0,1.45-.9A3.625,3.625,0,0,0,68,12.86Zm2.22.98h.23l.21-.04.77.36a5.192,5.192,0,0,1-.9,1.465A5.724,5.724,0,0,1,69.24,16.7a7.951,7.951,0,0,1-1.585.745,13.739,13.739,0,0,1-1.815.485,3.826,3.826,0,0,0-.24-.53,2.49,2.49,0,0,0-.32-.48,10.745,10.745,0,0,0,1.635-.355,7.652,7.652,0,0,0,1.43-.59,4.659,4.659,0,0,0,1.135-.85,3.579,3.579,0,0,0,.74-1.115ZM67.39,11.2h1.08a3.687,3.687,0,0,1-.285,1.02,2.154,2.154,0,0,1-.64.8,3.59,3.59,0,0,1-1.215.575,1.734,1.734,0,0,0-.15-.29q-.1-.16-.22-.32a1.861,1.861,0,0,0-.23-.26,2.958,2.958,0,0,0,.965-.36,1.391,1.391,0,0,0,.485-.505A2.13,2.13,0,0,0,67.39,11.2Zm1.87-.14h1.07v1.03a.435.435,0,0,0,.03.21q.03.04.15.04h.46a.167.167,0,0,0,.115-.04.322.322,0,0,0,.07-.175,2.957,2.957,0,0,0,.035-.4,1.846,1.846,0,0,0,.425.215q.275.105.485.165a1.652,1.652,0,0,1-.31.935.925.925,0,0,1-.69.235h-.76a1.635,1.635,0,0,1-.68-.11.594.594,0,0,1-.315-.365,2.315,2.315,0,0,1-.085-.7ZM67.84,8.49l1.25.35q-.23.39-.48.8t-.495.77q-.245.365-.455.645l-.92-.33q.2-.31.405-.7t.39-.8Q67.72,8.82,67.84,8.49ZM69.51,9.5l.87-.52q.33.29.68.65t.65.72a4.6,4.6,0,0,1,.47.66l-.94.59a4.227,4.227,0,0,0-.43-.665q-.28-.365-.62-.745A9.552,9.552,0,0,0,69.51,9.5Zm-1.82,4.34h2.88v.89H67.16Zm-.01.58a4.019,4.019,0,0,0,.965,1.055,6.248,6.248,0,0,0,1.545.875,8.62,8.62,0,0,0,2.08.53,3.981,3.981,0,0,0-.255.31q-.135.18-.25.37a3.034,3.034,0,0,0-.185.35,8.554,8.554,0,0,1-2.125-.7,6.975,6.975,0,0,1-1.6-1.07A5.218,5.218,0,0,1,66.81,14.86ZM63.72,9.48h2.15v5.61H63.72V14h1.13V10.57H63.72Zm-.68,0h1.01v6.47H63.04Zm13.4.38a3.541,3.541,0,0,0-.1-.4q-.055-.18-.1-.36l1.41-.23q.02.15.045.375a3.828,3.828,0,0,0,.065.4q.02.14.09.52l.17.92q.1.54.225,1.165t.245,1.26q.12.635.235,1.205t.2,1.01q.085.44.125.65t.12.48q.07.26.14.5l-1.45.26q-.04-.28-.06-.535a3.314,3.314,0,0,0-.07-.475q-.04-.2-.115-.615t-.18-.975q-.1-.56-.225-1.19l-.24-1.26-.225-1.18q-.1-.55-.185-.955T76.44,9.86Zm-2.73,1.27q.24-.01.47-.025t.46-.045l.62-.085q.4-.055.92-.13t1.075-.165l1.075-.175q.52-.085.925-.155l.635-.11.5-.1q.26-.055.44-.105l.24,1.31q-.16.01-.43.05l-.49.07q-.27.04-.705.11l-.965.155q-.53.085-1.08.17t-1.05.17q-.5.085-.88.145l-.57.09-.45.1q-.21.045-.47.115Zm.01,2.94q.2-.01.505-.045t.535-.065l.72-.11,1.015-.16,1.165-.185q.6-.1,1.17-.195l1.04-.18.76-.13q.29-.06.555-.12t.465-.12l.27,1.32a4.692,4.692,0,0,0-.485.055q-.285.045-.575.095-.32.05-.8.13l-1.055.175q-.575.1-1.175.19t-1.15.19q-.55.1-.99.165T75,15.2l-.575.11q-.255.05-.425.1Zm14.53-3.01q.07.16.185.455l.245.63q.13.335.23.635t.16.47l-1.2.42a4.173,4.173,0,0,0-.14-.48q-.1-.29-.22-.615t-.24-.625q-.12-.3-.21-.5Zm3.69.73q-.08.24-.135.41t-.1.32a9.586,9.586,0,0,1-.52,1.515,6.685,6.685,0,0,1-.84,1.415,7.45,7.45,0,0,1-1.585,1.525,7.855,7.855,0,0,1-1.765.955l-1.05-1.07a6.779,6.779,0,0,0,1.16-.445,7.472,7.472,0,0,0,1.18-.715,4.821,4.821,0,0,0,1.585-1.915,7.188,7.188,0,0,0,.44-1.19,7.4,7.4,0,0,0,.235-1.255Zm-6.01-.2q.1.19.225.49t.255.63q.13.33.255.64t.2.52l-1.22.46q-.06-.2-.175-.52t-.255-.675q-.14-.355-.265-.655a4.587,4.587,0,0,0-.215-.46Zm10.81,4.45V10.29q0-.26-.025-.6a5.248,5.248,0,0,0-.075-.6H98.2q-.03.26-.06.575t-.03.625v5.75q0,.14.01.395t.04.525q.03.27.04.48H96.64q.04-.3.07-.7T96.74,16.04Zm1.07-4.36q.5.13,1.12.335t1.25.435q.63.23,1.185.455t.925.415l-.57,1.38q-.42-.22-.93-.445t-1.035-.435q-.525-.21-1.03-.39t-.915-.32Z" transform="translate(12.936 28.092)" fill="#333"/>
      <path id="パス_825" data-name="パス 825" d="M.867-10.778H9.724v1.666H.867ZM.8-4.4H9.571v1.666H.8ZM.493-7.65H9.826v1.717H.493ZM.51-.833Q1.7-.918,3.222-1.054T6.409-1.36q1.666-.17,3.3-.323L9.724.085Q8.143.272,6.52.45t-3.1.332q-1.479.153-2.7.289ZM8.687-14.314l1.173,1.6q-.918.221-2,.391t-2.219.3q-1.139.128-2.286.213t-2.219.136a4.038,4.038,0,0,0-.179-.816,5.285,5.285,0,0,0-.3-.765q1.054-.068,2.15-.17t2.159-.229q1.063-.128,2.006-.289T8.687-14.314Zm1.564.782h4.675v1.853H12.138V1.53H10.251Zm-5.984.391H6.12V-.272L4.267-.085ZM1.734-10.166H3.281v6.545H1.734Zm5.406,0H8.687v6.528H7.14Zm7.31-3.366h.391l.306-.068,1.479.9q-.408,1.224-.892,2.592T14.773-7.6a5.954,5.954,0,0,1,1.233,2.142,7.432,7.432,0,0,1,.3,1.836,4.923,4.923,0,0,1-.221,1.581,1.939,1.939,0,0,1-.7.986,1.8,1.8,0,0,1-.518.272,3.617,3.617,0,0,1-.637.153q-.289.034-.655.043T12.818-.6a5.4,5.4,0,0,0-.153-.986,3.58,3.58,0,0,0-.374-.986q.306.017.561.026t.459.008a1.178,1.178,0,0,0,.34-.051,1.914,1.914,0,0,0,.306-.119.775.775,0,0,0,.3-.425,2.414,2.414,0,0,0,.093-.731,5.05,5.05,0,0,0-.306-1.6,5.584,5.584,0,0,0-1.224-1.9q.221-.629.459-1.385t.459-1.521q.221-.765.417-1.437t.3-1.113ZM23.1-8.007H33.966v1.836H23.1Zm.6-3.434h9.69v1.8H23.7Zm3.587.884h2.04v2.72a7.87,7.87,0,0,1-.2,1.7,5.992,5.992,0,0,1-.714,1.76,6.688,6.688,0,0,1-1.479,1.683,10.186,10.186,0,0,1-2.473,1.47,3.777,3.777,0,0,0-.374-.493q-.238-.272-.493-.544A3.389,3.389,0,0,0,23.1-2.7a8.631,8.631,0,0,0,2.286-1.173,4.675,4.675,0,0,0,1.241-1.343,4.418,4.418,0,0,0,.527-1.368,6.8,6.8,0,0,0,.127-1.267Zm2.346,3.842a6,6,0,0,0,1.606,2.389,6.353,6.353,0,0,0,2.779,1.4,4.759,4.759,0,0,0-.467.51q-.247.306-.459.621t-.365.586A6.729,6.729,0,0,1,29.7-3.128a9.093,9.093,0,0,1-1.785-3.213ZM22.423-7.82v6.273H20.434V-5.933H18.462V-7.82Zm0,5.389A3.09,3.09,0,0,0,23.9-1.207a6.67,6.67,0,0,0,2.278.442q.748.034,1.777.043t2.167-.008Q31.263-.748,32.36-.8t1.946-.119q-.1.238-.238.612t-.246.765a6.575,6.575,0,0,0-.162.7q-.765.051-1.751.076t-2.023.034q-1.037.009-2.006-.008t-1.734-.051A8.668,8.668,0,0,1,23.477.723a4.808,4.808,0,0,1-1.955-1.4q-.561.476-1.148.986T19.091,1.36l-1-2.125q.595-.357,1.241-.782t1.241-.884ZM18.479-12.818l1.513-1.224a11.241,11.241,0,0,1,1.071.79q.544.45,1.02.918a7.417,7.417,0,0,1,.765.858l-1.615,1.36A5.773,5.773,0,0,0,20.528-11q-.45-.476-.994-.96T18.479-12.818ZM30.8-14.45l2.074.646q-.459.731-.944,1.436t-.893,1.2l-1.666-.578q.255-.391.527-.859t.51-.952Q30.651-14.042,30.8-14.45ZM24.14-13.7l1.717-.714a9.813,9.813,0,0,1,.9,1.309,6.27,6.27,0,0,1,.6,1.292l-1.836.782a6.03,6.03,0,0,0-.535-1.3A11.535,11.535,0,0,0,24.14-13.7Zm12.393.391H51.357v2.091H36.533ZM44.744-7.6l1.581-1.326q.68.493,1.471,1.079T49.377-6.63q.79.629,1.47,1.232T52-4.3L50.269-2.72a13.556,13.556,0,0,0-1.08-1.131q-.654-.621-1.411-1.283T46.232-6.426Q45.441-7.055,44.744-7.6Zm-.68-4.93,2.261.8a24.842,24.842,0,0,1-2.3,3.485,22.392,22.392,0,0,1-3,3.136A18.948,18.948,0,0,1,37.4-2.652a5.709,5.709,0,0,0-.408-.612q-.255-.34-.518-.671T35.989-4.5a14.339,14.339,0,0,0,2.6-1.539,19.007,19.007,0,0,0,2.27-1.98,18.054,18.054,0,0,0,1.853-2.219A15.869,15.869,0,0,0,44.064-12.529ZM42.823-8.415l2.227-2.227V1.5H42.823Zm11.016,3.2H69.462V-3.57H53.839Zm.323-8.619H69.037v1.768H54.162Zm5.355,6.97,2.006.527q-.544.884-1.181,1.853t-1.258,1.87q-.621.9-1.148,1.581l-1.955-.612q.527-.68,1.156-1.581t1.258-1.853Q59.024-6.035,59.517-6.868Zm4.93,2.261,1.972.493A8.048,8.048,0,0,1,64.787-1.6,7.759,7.759,0,0,1,62.4.034a14.519,14.519,0,0,1-3.256.977,40.127,40.127,0,0,1-4.216.535,5.5,5.5,0,0,0-.314-.935A4.148,4.148,0,0,0,54.162-.2a32.41,32.41,0,0,0,4.9-.527,8.949,8.949,0,0,0,3.375-1.326A5.66,5.66,0,0,0,64.447-4.607ZM57.154-1.513l1.02-1.445q1.972.391,3.952.892t3.732,1.02q1.751.519,3.026.978L67.66,1.6q-1.241-.51-2.915-1.062T61.123-.544Q59.177-1.071,57.154-1.513Zm1.5-11.645h1.921v5.814H58.65Zm3.842,0H64.43v5.814H62.492ZM56.865-9.5v1.581H66.47V-9.5Zm-1.921-1.615H68.493v4.794H54.944Z" transform="translate(33.783 28.092)" fill="#e61400"/>
    </g>
  </g>
</svg>
