<svg xmlns="http://www.w3.org/2000/svg" width="33.564" height="42.614" viewBox="0 0 33.564 42.614">
  <g id="グループ_580" data-name="グループ 580" transform="translate(-760.827 -7606.178)">
    <path id="パス_356" data-name="パス 356" d="M760.827,7621.1h0a14.922,14.922,0,0,0,14.922-14.922h0a14.921,14.921,0,0,0,14.922,14.922h0a14.922,14.922,0,0,0-14.923,14.922h0A14.921,14.921,0,0,0,760.827,7621.1Z" fill="#ff8e66"/>
    <path id="パス_357" data-name="パス 357" d="M781.005,7642.1h0a6.693,6.693,0,0,0,6.693-6.693h0a6.692,6.692,0,0,0,6.693,6.693h0a6.693,6.693,0,0,0-6.693,6.693h0A6.694,6.694,0,0,0,781.005,7642.1Z" fill="#ff8e66"/>
  </g>
</svg>
