<svg xmlns="http://www.w3.org/2000/svg" width="20.263" height="19.777" viewBox="0 0 20.263 19.777">
  <g id="グループ_808" data-name="グループ 808" transform="translate(-5073.411 -1043.956)">
    <path id="パス_9" data-name="パス 9" d="M5073.411,1051.553h0a7.6,7.6,0,0,0,7.6-7.6h0a7.6,7.6,0,0,0,7.6,7.6h0a7.6,7.6,0,0,0-7.6,7.6h0A7.6,7.6,0,0,0,5073.411,1051.553Z" fill="#82c195"/>
    <path id="パス_10" data-name="パス 10" d="M5090.136,1064.21h0a4.215,4.215,0,0,0,4.215-4.216h0a4.216,4.216,0,0,0,4.216,4.216h0a4.216,4.216,0,0,0-4.216,4.216h0A4.216,4.216,0,0,0,5090.136,1064.21Z" transform="translate(-4.894 -4.693)" fill="#82c195"/>
  </g>
</svg>
