<svg xmlns="http://www.w3.org/2000/svg" xmlns:xlink="http://www.w3.org/1999/xlink" width="222" height="25" viewBox="0 0 222 25">
  <defs>
    <linearGradient id="linear-gradient" x1="0.5" y1="1" x2="0.5" y2="-0.304" gradientUnits="objectBoundingBox">
      <stop offset="0" stop-color="#e61400"/>
      <stop offset="1" stop-color="#fdccc8"/>
    </linearGradient>
  </defs>
  <g id="グループ_906" data-name="グループ 906" transform="translate(-2510)">
    <rect id="長方形_448" data-name="長方形 448" width="222" height="25" transform="translate(2510)" fill="url(#linear-gradient)"/>
    <path id="パス_827" data-name="パス 827" d="M-84.105-9.915h7.695V-8.28h-7.695Zm.3,3.06h7.065V-5.25h-7.065Zm-.795,3.12h8.445v1.65H-84.6Zm3.36-5.6h1.785V1.35H-81.24Zm2.685-3.45,1.755.51q-.36.72-.72,1.418t-.675,1.193l-1.395-.48a8.453,8.453,0,0,0,.382-.817q.188-.458.368-.937A8.915,8.915,0,0,0-78.555-12.78Zm-5.1.63,1.455-.525a10.156,10.156,0,0,1,.66,1.275,7.074,7.074,0,0,1,.42,1.215l-1.545.6a7.829,7.829,0,0,0-.382-1.245A10.79,10.79,0,0,0-83.655-12.15ZM-89.58-8.145h4.65V-6.78h-4.65Zm.06-4.125h4.56v1.35h-4.56Zm-.06,6.18h4.65v1.35h-4.65Zm-.72-4.17h5.9v1.425h-5.9Zm1.545,6.24h3.795V.555h-3.795V-.87h2.25V-2.595h-2.25Zm-.87,0h1.53V1.14h-1.53Zm21.09-7.875q-.06.465-.113,1t-.082.99q-.015.615-.053,1.493t-.06,1.838q-.022.96-.045,1.89t-.022,1.62a2.227,2.227,0,0,0,.277,1.192,1.541,1.541,0,0,0,.743.63,2.787,2.787,0,0,0,1.05.188A5.485,5.485,0,0,0-65.145-1.3a5.616,5.616,0,0,0,1.395-.668,6.043,6.043,0,0,0,1.132-.975,9.646,9.646,0,0,0,.908-1.17l1.365,1.65a8.109,8.109,0,0,1-.945,1.14A8.186,8.186,0,0,1-62.677-.2,7.439,7.439,0,0,1-64.53.66a7.729,7.729,0,0,1-2.325.33A5.477,5.477,0,0,1-68.993.608,2.986,2.986,0,0,1-70.4-.577a3.862,3.862,0,0,1-.5-2.077q0-.615.015-1.4t.045-1.642q.03-.855.045-1.673t.03-1.477q.015-.66.015-1.05,0-.54-.045-1.057a6.887,6.887,0,0,0-.15-.968Zm14.985,1.17a5.693,5.693,0,0,0-.1.615q-.038.345-.06.675t-.022.54q-.015.495-.007,1.02t.03,1.072q.022.548.068,1.088a14.424,14.424,0,0,0,.3,1.9,3.838,3.838,0,0,0,.51,1.283.937.937,0,0,0,.8.458.687.687,0,0,0,.5-.285,2.948,2.948,0,0,0,.45-.742,8.815,8.815,0,0,0,.36-.968q.157-.51.278-.96l1.5,1.83a11.851,11.851,0,0,1-.983,2.077A3.524,3.524,0,0,1-50.94-.008,2.068,2.068,0,0,1-52.08.33a2.538,2.538,0,0,1-1.537-.54,4.1,4.1,0,0,1-1.237-1.748,11.536,11.536,0,0,1-.72-3.218q-.075-.69-.112-1.455t-.045-1.455q-.008-.69-.007-1.14,0-.315-.03-.75a7.665,7.665,0,0,0-.09-.78Zm7.5.345a7.454,7.454,0,0,1,.81,1.245,15.273,15.273,0,0,1,.72,1.575q.33.84.585,1.718t.413,1.71a12.7,12.7,0,0,1,.2,1.523l-1.98.765q-.075-.915-.27-2A19.614,19.614,0,0,0-46.1-6.015a15.171,15.171,0,0,0-.787-2.07,7.17,7.17,0,0,0-1.073-1.68Zm8.1-2.3h1.65V1.3h-1.65ZM-40.23-7.74h6.15v1.68h-6.15Zm1.95.885,1.005.495q-.2.75-.45,1.582t-.57,1.658q-.315.825-.66,1.553A8.07,8.07,0,0,1-39.69-.3a4.677,4.677,0,0,0-.217-.623q-.143-.338-.3-.668t-.292-.57a8.261,8.261,0,0,0,.878-1.372q.427-.818.787-1.7A12.835,12.835,0,0,0-38.28-6.855Zm1.965.87q.12.12.352.375t.518.577q.285.323.548.645t.48.577a4.634,4.634,0,0,1,.307.39L-35.2-2.01q-.15-.33-.39-.773T-36.12-3.7q-.285-.472-.555-.893t-.465-.69Zm-3.93-5.535,1.26-.33a12.063,12.063,0,0,1,.353,1.17q.157.63.263,1.23t.15,1.08l-1.35.36A8.644,8.644,0,0,0-39.682-9.1q-.1-.607-.24-1.245A12.028,12.028,0,0,0-40.245-11.52Zm4.935-.4,1.515.33q-.18.615-.39,1.26T-34.6-9.1q-.21.593-.39,1.043l-1.14-.33q.165-.48.322-1.1t.292-1.267Q-35.385-11.4-35.31-11.925Zm5.685-.825h1.68V1.335h-1.68ZM-34.11-3.36l7.71-1.38.27,1.665L-33.84-1.68Zm.84-7.35.885-1.215q.42.24.877.555t.87.645a4.673,4.673,0,0,1,.653.615l-.93,1.35a4.307,4.307,0,0,0-.622-.645q-.4-.345-.847-.69T-33.27-10.71Zm-.675,3.78.84-1.29a10.127,10.127,0,0,1,.93.532q.48.307.915.615a4.752,4.752,0,0,1,.7.593l-.915,1.44a4.794,4.794,0,0,0-.66-.622q-.42-.337-.893-.675A10.5,10.5,0,0,0-33.945-6.93Zm17.235-4.1a13.645,13.645,0,0,1-1.552,1.77A20.1,20.1,0,0,1-20.333-7.5,19.2,19.2,0,0,1-22.7-6,5.038,5.038,0,0,0-23-6.495q-.187-.27-.4-.525t-.413-.45a13.917,13.917,0,0,0,2.475-1.523,17.915,17.915,0,0,0,2.122-1.9,11.48,11.48,0,0,0,1.493-1.9h1.875a16.041,16.041,0,0,0,1.35,1.635A14.3,14.3,0,0,0-12.93-9.72a16.029,16.029,0,0,0,1.725,1.185A12.863,12.863,0,0,0-9.42-7.65a5.575,5.575,0,0,0-.645.78q-.3.435-.555.84a19.518,19.518,0,0,1-1.733-1.035A20.752,20.752,0,0,1-14.04-8.318q-.81-.667-1.5-1.357A11.47,11.47,0,0,1-16.71-11.025ZM-20.46-8.25h7.545v1.575H-20.46Zm-1.8,3.06h11.115v1.56H-22.26Zm-.75,4.56h12.75V.915H-23.01Zm5.325-6.99h1.905V.15h-1.905Zm-3.63,4.56,1.44-.6q.285.375.563.825t.5.885a4.735,4.735,0,0,1,.33.78l-1.545.69a5,5,0,0,0-.3-.8q-.21-.458-.465-.922A9.673,9.673,0,0,0-21.315-3.06Zm7.62-.585,1.725.63q-.45.69-.93,1.373T-13.785-.48l-1.35-.57q.255-.36.525-.8t.51-.915Q-13.86-3.24-13.7-3.645Zm7.575-8.1H6.18v1.53H-6.12Zm.7,2.3H5.6v1.425H-5.415Zm-1.26,2.265H6.645v1.53H-6.675Zm5.73-5.565H.87v6.84H-.945ZM-.93-6.63l1.56.75A12.54,12.54,0,0,1-.758-4.635,15.232,15.232,0,0,1-2.415-3.518a18.261,18.261,0,0,1-1.815.93,16.54,16.54,0,0,1-1.86.7,4.747,4.747,0,0,0-.322-.48q-.2-.27-.42-.532a4.585,4.585,0,0,0-.412-.443q.885-.24,1.8-.585A16.376,16.376,0,0,0-3.69-4.71a15.691,15.691,0,0,0,1.552-.915A7.111,7.111,0,0,0-.93-6.63Zm2.6.285a10.834,10.834,0,0,0,1.1,2.7,7.064,7.064,0,0,0,1.8,2.063A7.66,7.66,0,0,0,7.185-.3a6.149,6.149,0,0,0-.42.472,6.2,6.2,0,0,0-.42.585q-.195.308-.33.547a8.242,8.242,0,0,1-2.828-1.6A8.6,8.6,0,0,1,1.267-2.76,15.964,15.964,0,0,1,.015-6.03Zm3.45.9,1.5,1.125q-.57.4-1.185.8t-1.215.743q-.6.345-1.125.615L1.965-3.135q.495-.3,1.072-.69t1.125-.81A11.233,11.233,0,0,0,5.115-5.445Zm-10.77,5.1q.915-.165,2.092-.4t2.475-.5q1.3-.27,2.572-.555L1.65-.18Q.48.09-.727.36T-3.053.87q-1.117.24-2.062.45ZM-3.6-3.39l1.185-1.185.63.165v4.3H-3.6ZM15.015-9.21q.645.06,1.3.1t1.327.037q1.38,0,2.745-.12a19.731,19.731,0,0,0,2.52-.375V-7.7q-1.17.165-2.535.263t-2.73.1q-.66,0-1.312-.023t-1.312-.068Zm5.7-2.535q-.03.21-.052.465t-.038.51q-.015.24-.03.645t-.015.908V-8.16q0,1.02.03,1.913t.075,1.65l.083,1.387q.037.63.037,1.17a3.546,3.546,0,0,1-.157,1.08,2.3,2.3,0,0,1-.5.87,2.235,2.235,0,0,1-.907.577,4.075,4.075,0,0,1-1.373.2,4.226,4.226,0,0,1-2.46-.63,2.08,2.08,0,0,1-.9-1.815A2.279,2.279,0,0,1,14.91-3.1,2.642,2.642,0,0,1,16.065-4a4.457,4.457,0,0,1,1.77-.322A7.729,7.729,0,0,1,19.77-4.1a7.49,7.49,0,0,1,1.59.6,8.178,8.178,0,0,1,1.283.817q.563.442,1.013.847L22.62-.255A16.422,16.422,0,0,0,20.955-1.65a7.365,7.365,0,0,0-1.612-.9,4.5,4.5,0,0,0-1.658-.315,1.966,1.966,0,0,0-1.028.24.75.75,0,0,0-.4.675.7.7,0,0,0,.4.66,2.131,2.131,0,0,0,.99.21,1.459,1.459,0,0,0,.735-.158.863.863,0,0,0,.382-.465,2.169,2.169,0,0,0,.113-.742q0-.39-.03-1.02t-.067-1.41q-.038-.78-.068-1.628T18.69-8.16q0-.855-.007-1.552t-.008-1.043q0-.165-.03-.465t-.075-.525Zm-7.32.165q-.045.15-.127.42t-.135.525q-.052.255-.083.39-.075.315-.165.848T12.7-8.2q-.1.668-.187,1.365t-.135,1.32q-.045.623-.045,1.073,0,.225.007.487a2.912,2.912,0,0,0,.052.487q.105-.27.218-.525t.233-.51q.12-.255.225-.51l.915.75q-.21.615-.427,1.29t-.39,1.275q-.173.6-.263,1-.03.15-.052.36a3.362,3.362,0,0,0-.023.345q0,.12.007.293t.023.322L11.16.765a14.392,14.392,0,0,1-.42-2.033,19.339,19.339,0,0,1-.18-2.767q0-.84.075-1.763t.173-1.777q.1-.855.2-1.568t.165-1.148q.045-.315.09-.713t.06-.757ZM29.07-10.9q.825.09,1.86.135t2.22.045q.735,0,1.522-.03T36.2-10.83q.735-.045,1.305-.1V-8.94q-.525.045-1.268.09t-1.545.067q-.8.023-1.523.023-1.17,0-2.175-.045t-1.92-.12Zm1.26,6.36q-.1.39-.18.765a3.816,3.816,0,0,0-.075.75A1.374,1.374,0,0,0,30.8-1.845a4.509,4.509,0,0,0,2.347.465q1.02,0,1.965-.075t1.792-.21a14.356,14.356,0,0,0,1.508-.315L38.43.135q-.66.15-1.47.263t-1.748.18q-.937.068-1.987.068A9.39,9.39,0,0,1,30.36.27,3.535,3.535,0,0,1,28.635-.817a2.709,2.709,0,0,1-.57-1.748,6.307,6.307,0,0,1,.105-1.2q.1-.54.195-.96Zm18.915-7.41q-.12.39-.2.772t-.157.758l-.173.825q-.1.465-.21.982t-.24,1.043Q48.135-7.05,48-6.548t-.255.923a7.215,7.215,0,0,1,1.815-.727,8.087,8.087,0,0,1,1.9-.217,5.169,5.169,0,0,1,2.123.4A3.32,3.32,0,0,1,55-5.04a2.862,2.862,0,0,1,.5,1.68,3.766,3.766,0,0,1-.577,2.13A3.865,3.865,0,0,1,53.272.135a7.783,7.783,0,0,1-2.565.63A16.882,16.882,0,0,1,47.4.7L46.875-1.23a14.292,14.292,0,0,0,2.408.21A9.185,9.185,0,0,0,51.4-1.245a3.4,3.4,0,0,0,1.507-.728A1.694,1.694,0,0,0,53.475-3.3a1.483,1.483,0,0,0-.57-1.163A2.5,2.5,0,0,0,51.24-4.95a6.2,6.2,0,0,0-2.393.45,4.281,4.281,0,0,0-1.763,1.305q-.1.165-.2.315t-.217.345l-1.77-.63a14.029,14.029,0,0,0,.78-1.845q.36-1.035.645-2.085t.465-1.957q.18-.908.255-1.478a7.621,7.621,0,0,0,.09-.817,5.472,5.472,0,0,0-.015-.7ZM44.01-10.2q.72.12,1.56.2t1.545.082q.72,0,1.583-.045t1.822-.135q.96-.09,1.927-.233t1.9-.338l.03,1.785q-.72.12-1.627.24t-1.9.217q-.99.1-1.95.158t-1.77.06q-.87,0-1.658-.038t-1.462-.1Zm20.1-1.875q.54.165,1.35.345t1.695.353q.885.172,1.673.292t1.283.18l-.45,1.83q-.45-.06-1.087-.172t-1.35-.247q-.712-.135-1.4-.278t-1.26-.278q-.57-.135-.93-.225ZM64.2-9.06q-.075.3-.158.772t-.157.983q-.075.51-.142.975t-.113.78a7.361,7.361,0,0,1,2.138-1.08,7.711,7.711,0,0,1,2.287-.345,4.856,4.856,0,0,1,2.25.48,3.531,3.531,0,0,1,1.417,1.26,3.138,3.138,0,0,1,.488,1.7,4.167,4.167,0,0,1-.435,1.89A3.734,3.734,0,0,1,70.35-.165a6.994,6.994,0,0,1-2.6.87,16.794,16.794,0,0,1-3.945.06L63.24-1.2a14.178,14.178,0,0,0,3.78.082,4.616,4.616,0,0,0,2.318-.87,2,2,0,0,0,.787-1.6,1.43,1.43,0,0,0-.285-.878,1.886,1.886,0,0,0-.795-.6A2.919,2.919,0,0,0,67.89-5.28a6.1,6.1,0,0,0-2.363.457A4.561,4.561,0,0,0,63.72-3.51a4.6,4.6,0,0,0-.322.442,3.883,3.883,0,0,0-.233.428L61.44-3.075q.09-.435.18-1.027t.18-1.275q.09-.683.165-1.372T62.1-8.115q.06-.675.09-1.23Zm18.285,5.2-.4-5.13L82-11.22H84.5L84.42-8.985l-.4,5.13ZM83.25.135a1.281,1.281,0,0,1-.945-.375,1.281,1.281,0,0,1-.375-.945,1.3,1.3,0,0,1,.375-.96,1.281,1.281,0,0,1,.945-.375,1.281,1.281,0,0,1,.945.375,1.3,1.3,0,0,1,.375.96,1.281,1.281,0,0,1-.375.945A1.281,1.281,0,0,1,83.25.135Z" transform="translate(2619 19)" fill="#fff"/>
    <path id="パス_797" data-name="パス 797" d="M0,7,3.934,3.5,0,0Z" transform="translate(2722.099 10.701) rotate(90)" fill="#fff"/>
  </g>
</svg>
