<svg xmlns="http://www.w3.org/2000/svg" width="450.682" height="574.123" viewBox="0 0 450.682 574.123">
  <g id="グループ_558" data-name="グループ 558" transform="translate(-1158.403 -10471.446)" opacity="0.5">
    <circle id="楕円形_259" data-name="楕円形 259" cx="15.363" cy="15.363" r="15.363" transform="translate(1270.194 10922.957)" fill="#fff766"/>
    <circle id="楕円形_260" data-name="楕円形 260" cx="15.363" cy="15.363" r="15.363" transform="translate(1432.52 10964.746)" fill="#fff766"/>
    <circle id="楕円形_261" data-name="楕円形 261" cx="15.363" cy="15.363" r="15.363" transform="translate(1468.632 10875.691)" fill="#fff766"/>
    <circle id="楕円形_262" data-name="楕円形 262" cx="15.363" cy="15.363" r="15.363" transform="translate(1323.222 11014.843)" fill="#fff766"/>
    <circle id="楕円形_263" data-name="楕円形 263" cx="15.363" cy="15.363" r="15.363" transform="translate(1158.403 10840.442)" fill="#fff766"/>
    <circle id="楕円形_264" data-name="楕円形 264" cx="15.363" cy="15.363" r="15.363" transform="translate(1263.032 10809.812)" fill="#fff766"/>
    <circle id="楕円形_265" data-name="楕円形 265" cx="15.363" cy="15.363" r="15.363" transform="translate(1537.333 10922.957)" fill="#fff766"/>
    <circle id="楕円形_266" data-name="楕円形 266" cx="15.363" cy="15.363" r="15.363" transform="translate(1312.208 10471.446)" fill="#fff766"/>
    <circle id="楕円形_267" data-name="楕円形 267" cx="15.363" cy="15.363" r="15.363" transform="translate(1406.609 10817.764)" fill="#fff766"/>
    <circle id="楕円形_268" data-name="楕円形 268" cx="15.363" cy="15.363" r="15.363" transform="translate(1432.52 10727.938)" fill="#fff766"/>
    <circle id="楕円形_269" data-name="楕円形 269" cx="15.363" cy="15.363" r="15.363" transform="translate(1578.358 10794.445)" fill="#fff766"/>
    <circle id="楕円形_270" data-name="楕円形 270" cx="15.363" cy="15.363" r="15.363" transform="translate(1488.059 10783.287)" fill="#fff766"/>
    <circle id="楕円形_271" data-name="楕円形 271" cx="15.363" cy="15.363" r="15.363" transform="translate(1387.346 10678.217)" fill="#fff766"/>
    <circle id="楕円形_272" data-name="楕円形 272" cx="15.363" cy="15.363" r="15.363" transform="translate(1398.984 10525.945)" fill="#fff766"/>
    <circle id="楕円形_273" data-name="楕円形 273" cx="15.363" cy="15.363" r="15.363" transform="translate(1370.987 10597.506)" fill="#fff766"/>
    <circle id="楕円形_274" data-name="楕円形 274" cx="15.363" cy="15.363" r="15.363" transform="translate(1302.698 10655.567)" fill="#fff766"/>
    <circle id="楕円形_275" data-name="楕円形 275" cx="15.363" cy="15.363" r="15.363" transform="translate(1458.07 10611.56)" fill="#fff766"/>
    <circle id="楕円形_276" data-name="楕円形 276" cx="15.363" cy="15.363" r="15.363" transform="translate(1482.39 10681.643)" fill="#fff766"/>
    <circle id="楕円形_277" data-name="楕円形 277" cx="15.363" cy="15.363" r="15.363" transform="translate(1338.588 10758.45)" fill="#fff766"/>
    <circle id="楕円形_278" data-name="楕円形 278" cx="15.363" cy="15.363" r="15.363" transform="translate(1314.858 10561.855)" fill="#fff766"/>
    <circle id="楕円形_279" data-name="楕円形 279" cx="15.363" cy="15.363" r="15.363" transform="translate(1167.11 10684.252)" fill="#fff766"/>
    <circle id="楕円形_280" data-name="楕円形 280" cx="15.363" cy="15.363" r="15.363" transform="translate(1203.14 10514.324)" fill="#fff766"/>
    <circle id="楕円形_281" data-name="楕円形 281" cx="15.363" cy="15.363" r="15.363" transform="translate(1227.83 10606.882)" fill="#fff766"/>
    <circle id="楕円形_282" data-name="楕円形 282" cx="15.363" cy="15.363" r="15.363" transform="translate(1244.933 10727.636)" fill="#fff766"/>
    <circle id="楕円形_283" data-name="楕円形 283" cx="15.363" cy="15.363" r="15.363" transform="translate(1338.504 10841.556)" fill="#fff766"/>
    <circle id="楕円形_284" data-name="楕円形 284" cx="15.363" cy="15.363" r="15.363" transform="translate(1355.62 10922.957)" fill="#fff766"/>
  </g>
</svg>
