<svg xmlns="http://www.w3.org/2000/svg" width="960" height="185.023" viewBox="0 0 960 185.023">
  <g id="グループ_761" data-name="グループ 761" transform="translate(-203 -9049.683)">
    <g id="グループ_694" data-name="グループ 694">
      <path id="パス_536" data-name="パス 536" d="M1052.884,9104.389v-34.706a20,20,0,0,0-20-20h-681.9a20,20,0,0,0-20,20v34.706a20,20,0,0,1-20,20H231.732a20,20,0,0,0-20,20v70.317a20,20,0,0,0,20,20H1143a20,20,0,0,0,20-20v-70.317a20,20,0,0,0-20-20h-70.116A20,20,0,0,1,1052.884,9104.389Z" fill="#699c78"/>
      <path id="パス_537" data-name="パス 537" d="M1044.152,9104.389v-34.706a20,20,0,0,0-20-20h-681.9a20,20,0,0,0-20,20v34.706a20,20,0,0,1-20,20H223a20,20,0,0,0-20,20v70.317a20,20,0,0,0,20,20h911.268a20,20,0,0,0,20-20v-70.317a20,20,0,0,0-20-20h-70.116A20,20,0,0,1,1044.152,9104.389Z" fill="#82c195"/>
      <path id="パス_726" data-name="パス 726" d="M-272.722-14.664h29.844v4.222h-29.844ZM-223.154-26.2h6.961v3.32h-6.961Zm-2.739,12.5h11.087v3.384h-11.087Zm7.993-12.5h3.481v7.155q0,.387.016.628a1.024,1.024,0,0,0,.048.306.379.379,0,0,0,.355.161h.516a.947.947,0,0,0,.226-.032.4.4,0,0,0,.161-.064,1.262,1.262,0,0,0,.258-.709,7.389,7.389,0,0,0,.081-1.064q.016-.709.048-1.644a4.755,4.755,0,0,0,1.273.854,12.262,12.262,0,0,0,1.5.628q-.064.967-.177,1.934a6.288,6.288,0,0,1-.274,1.386,2.319,2.319,0,0,1-1.128,1.321,2.292,2.292,0,0,1-.806.274,5.508,5.508,0,0,1-.9.081h-1.74a4.012,4.012,0,0,1-1.144-.177,2.361,2.361,0,0,1-1.015-.6,2.667,2.667,0,0,1-.58-1.08,8.785,8.785,0,0,1-.193-2.208Zm2.449,12.5h.709l.645-.129,2.385.806a23.511,23.511,0,0,1-2.868,7.413A18.427,18.427,0,0,1-219.3-.419a24.548,24.548,0,0,1-6.236,3.32,14.3,14.3,0,0,0-.935-1.676,10.3,10.3,0,0,0-1.16-1.547,18.578,18.578,0,0,0,5.56-2.643,16.24,16.24,0,0,0,4.174-4.3,17.3,17.3,0,0,0,2.449-5.85Zm-6.381,3.352a16.631,16.631,0,0,0,2.53,4.5,14.418,14.418,0,0,0,3.932,3.416,18.561,18.561,0,0,0,5.4,2.111,8.6,8.6,0,0,0-1.273,1.5,16.049,16.049,0,0,0-1.047,1.692A18.4,18.4,0,0,1-218,.209a16.759,16.759,0,0,1-4.125-4.222,24.656,24.656,0,0,1-2.836-5.656ZM-224.7-26.2h3.416v4.286a18.42,18.42,0,0,1-.242,2.9,10.164,10.164,0,0,1-.935,2.917,7.172,7.172,0,0,1-2.047,2.466,5.8,5.8,0,0,0-.773-.757q-.516-.435-1.047-.838a9.531,9.531,0,0,0-.919-.628,5.965,5.965,0,0,0,1.692-1.934,6.766,6.766,0,0,0,.693-2.111,14.086,14.086,0,0,0,.161-2.079ZM-234.6-9.894h2.224v7.38H-234.6Zm-2.546-13.085h6.865v3h-6.865Zm6.091,0h3.126V-.548a5.409,5.409,0,0,1-.242,1.756,2.1,2.1,0,0,1-.919,1.112,4.108,4.108,0,0,1-1.644.483q-.967.1-2.32.1a8.021,8.021,0,0,0-.338-1.531,8.868,8.868,0,0,0-.6-1.5q.806.032,1.515.032h.935q.483,0,.483-.516Zm-7.606,0h3.03v11.764q0,1.644-.1,3.513t-.371,3.787a22.529,22.529,0,0,1-.822,3.642,14.205,14.205,0,0,1-1.418,3.142,3.865,3.865,0,0,0-.741-.612q-.483-.322-.983-.628a6.6,6.6,0,0,0-.886-.467A12.378,12.378,0,0,0-239.4-2.691a26.857,26.857,0,0,0,.612-4.351q.129-2.208.129-4.174Zm-2.288,10.152,4.19-.371q2.353-.209,4.979-.483t5.237-.564l.064,2.933-5.028.58q-2.514.29-4.834.532t-4.222.467Zm5.608-5.543,2.256-.9a10.026,10.026,0,0,1,1.047,2.03,11.792,11.792,0,0,1,.6,1.966l-2.449,1.031a9.547,9.547,0,0,0-.5-2.03A11.761,11.761,0,0,0-235.336-18.371Zm.483-9.056,4.125.677q-.516,1.418-1.047,2.772t-.951,2.32l-3.158-.709q.29-1.1.6-2.514T-234.853-27.427Zm29.973,5.286h9.894V-.451h-9.894V-3.835h6.414V-18.79h-6.414Zm-2.256,0h3.513V1.934h-3.513Zm2.127,8.605h8.218v3.352h-8.218Zm2.482-13.858,4.19.612q-.516,1.644-1.112,3.255t-1.08,2.739l-3.094-.709q.226-.838.435-1.869t.4-2.095A18.571,18.571,0,0,0-202.527-27.395Zm11.8,5h9.443v3.545h-9.443Zm8.089,0h3.577v1.1a4.873,4.873,0,0,1-.032.645q-.129,5.447-.306,9.234t-.419,6.252a31.518,31.518,0,0,1-.564,3.851,5.186,5.186,0,0,1-.838,2.03A3.686,3.686,0,0,1-182.61,2a6.378,6.378,0,0,1-1.708.516,15.9,15.9,0,0,1-2.3.113q-1.37-.016-2.788-.048A7.085,7.085,0,0,0-189.8.693a8.274,8.274,0,0,0-.87-1.885q1.547.129,2.884.161t1.95.032a2.321,2.321,0,0,0,.79-.113,1.538,1.538,0,0,0,.6-.435,3.617,3.617,0,0,0,.693-1.724,31.467,31.467,0,0,0,.467-3.69q.193-2.385.355-6.027t.29-8.67Zm-7.993-4.963,3.739.87a46.743,46.743,0,0,1-1.5,4.705,45.449,45.449,0,0,1-1.934,4.431,28.374,28.374,0,0,1-2.143,3.626,8.019,8.019,0,0,0-.919-.757q-.6-.435-1.192-.854a8.469,8.469,0,0,0-1.047-.645,21.936,21.936,0,0,0,2.014-3.207,31.389,31.389,0,0,0,1.708-3.932A41.492,41.492,0,0,0-190.635-27.362Zm-1.579,14.277,3.03-1.708q.806,1.1,1.708,2.417t1.708,2.578q.806,1.257,1.321,2.224l-3.287,2a24.624,24.624,0,0,0-1.209-2.288q-.757-1.289-1.611-2.659T-192.214-13.085Zm17.629-8.025q1.031.129,2.208.177t2.079.048a36.894,36.894,0,0,0,4.045-.226q2.047-.226,3.948-.6a32.369,32.369,0,0,0,3.449-.854l.129,3.739q-1.386.355-3.3.725t-4.045.612a37.09,37.09,0,0,1-4.19.242q-.967,0-1.966-.032t-2.063-.1Zm12.537-4.834q-.193.806-.516,2.095t-.725,2.707q-.4,1.418-.854,2.8a43.547,43.547,0,0,1-1.869,4.931q-1.16,2.611-2.514,5.092A42.65,42.65,0,0,1-171.265-3.9l-3.9-2a34.861,34.861,0,0,0,2.159-3q1.064-1.644,2-3.384t1.692-3.368a30.273,30.273,0,0,0,1.209-2.949,31.579,31.579,0,0,0,1.08-3.819,21.967,21.967,0,0,0,.532-3.98Zm7.542,10.023q-.064,1.031-.048,2.047t.048,2.079q.032.741.081,1.885t.113,2.417q.064,1.273.113,2.417t.048,1.821a5.868,5.868,0,0,1-.612,2.691,4.429,4.429,0,0,1-1.95,1.918,7.876,7.876,0,0,1-3.658.709,10.342,10.342,0,0,1-3.61-.6A5.9,5.9,0,0,1-166.56-.306a4.491,4.491,0,0,1-.967-2.949,5.074,5.074,0,0,1,.838-2.852,5.588,5.588,0,0,1,2.433-2,9.264,9.264,0,0,1,3.851-.725,16.527,16.527,0,0,1,5.221.79A18.774,18.774,0,0,1-150.9-6.027a25.158,25.158,0,0,1,3.255,2.449L-149.8-.129q-.87-.773-1.982-1.74a18.419,18.419,0,0,0-2.482-1.8,14.991,14.991,0,0,0-2.965-1.386,10.5,10.5,0,0,0-3.432-.548,4.009,4.009,0,0,0-2.224.548,1.64,1.64,0,0,0-.838,1.418A1.73,1.73,0,0,0-163-2.192a3.336,3.336,0,0,0,2.047.548,3.49,3.49,0,0,0,1.74-.371,2,2,0,0,0,.9-1.064,4.458,4.458,0,0,0,.258-1.563q0-.741-.064-2.095t-.145-3q-.081-1.644-.145-3.287t-.129-2.9Zm5.543,1.708a22.126,22.126,0,0,0-2.32-1.644q-1.386-.87-2.852-1.66T-156.7-18.79l2.063-3.191q.87.387,1.982.951t2.256,1.176q1.144.612,2.127,1.209t1.6,1.047Zm19.918-9.508A28.556,28.556,0,0,1-131.43-20.8a40.391,40.391,0,0,1-3.062,2.965,42.055,42.055,0,0,1-3.561,2.788,41.69,41.69,0,0,1-3.884,2.417,10.72,10.72,0,0,0-1.08-1.6,12.162,12.162,0,0,0-1.37-1.5,34.5,34.5,0,0,0,5.35-3.432,38.24,38.24,0,0,0,4.577-4.174,26.354,26.354,0,0,0,3.223-4.158h4.029a31.725,31.725,0,0,0,2.9,3.545,36.387,36.387,0,0,0,3.4,3.175,33.349,33.349,0,0,0,3.706,2.643,30.763,30.763,0,0,0,3.851,2.014,13.019,13.019,0,0,0-1.386,1.644q-.645.9-1.192,1.8Q-117.765-13.7-119.666-15t-3.642-2.772q-1.74-1.466-3.223-2.981A24.971,24.971,0,0,1-129.045-23.721ZM-139.971-8.573h22.045v3.352h-22.045Zm1.644-7.155h18.918v3.416h-18.918Zm-4.254,14.406h27.556V2.127h-27.556Zm11.538-12.892h4.061V.58h-4.061Zm27.1-4.9H-89.6v2.772h-14.342Zm0,4.705H-89.6v2.8h-14.342Zm12.6-9.894h4.029V-1.837A6.9,6.9,0,0,1-87.7.757a2.809,2.809,0,0,1-1.483,1.434,8.052,8.052,0,0,1-2.675.612q-1.611.129-3.932.1a12.467,12.467,0,0,0-.306-1.321Q-96.3.838-96.574.113a11.177,11.177,0,0,0-.564-1.273q1,.064,2.014.081t1.8,0q.79-.016,1.144-.016a1.012,1.012,0,0,0,.645-.161.773.773,0,0,0,.193-.612ZM-111.19-9.056q2.643-.129,6.2-.29t7.574-.387q4.013-.226,7.944-.451L-89.5-6.9q-3.739.322-7.542.628t-7.3.564q-3.5.258-6.3.451ZM-85.7-17.694l3.771,1.8a36.969,36.969,0,0,1-7.2,8.2A47.444,47.444,0,0,1-98.4-1.563a62.787,62.787,0,0,1-10.636,4.206,9.91,9.91,0,0,0-.741-1.144q-.483-.661-.983-1.305t-.919-1.1A58.73,58.73,0,0,0-101.1-4.625,40.754,40.754,0,0,0-92.24-10.2,30.729,30.729,0,0,0-85.7-17.694Zm-12.988-9.8,4.77.516q-.741,1.483-1.6,2.9t-1.563,2.385l-3.449-.709q.548-1.128,1.064-2.53A20.193,20.193,0,0,0-98.685-27.491ZM-106.42-24.3h16.372v3.32h-12.473V-7.316h-3.9Zm45.153,2.611,3.867.9q-.58,1.418-1.225,2.884t-1.241,2.788q-.6,1.321-1.176,2.353l-2.868-.9q.483-1.064.983-2.482t.951-2.868Q-61.525-20.465-61.267-21.69Zm3.771,4.319,2.933-1.45q.87,1.1,1.74,2.369t1.6,2.5a15.265,15.265,0,0,1,1.112,2.224l-3.158,1.676a13.8,13.8,0,0,0-1-2.256q-.677-1.257-1.531-2.578T-57.5-17.371ZM-55.66-5.833l2.933-1.45a25,25,0,0,1,1.66,2.449,23.326,23.326,0,0,1,1.354,2.611,12.345,12.345,0,0,1,.79,2.353L-52.147,1.74A10.568,10.568,0,0,0-52.84-.628a25.86,25.86,0,0,0-1.273-2.659Q-54.854-4.641-55.66-5.833Zm-11.119-9.121q1.708-.032,3.948-.113t4.738-.209q2.5-.129,5.044-.226l-.064,3.03q-3.416.29-6.865.548t-6.156.451Zm3.255-11.925,3.674.9A23.151,23.151,0,0,1-62.2-21.352a19.612,19.612,0,0,1-3.062,3.69q-.322-.322-.87-.773t-1.128-.87a11.823,11.823,0,0,0-1.031-.677,13.417,13.417,0,0,0,2.836-3.062A15.69,15.69,0,0,0-63.523-26.879Zm9.024-.032a19.515,19.515,0,0,0,1.563,2.192,21.812,21.812,0,0,0,1.982,2.127q1.064,1,2.03,1.74a7.623,7.623,0,0,0-.935.79q-.516.5-.983,1.031a10.742,10.742,0,0,0-.757.951,24,24,0,0,1-2.143-2.159Q-54.854-21.5-55.869-22.9t-1.789-2.723ZM-62.75-9.83l2.385-2.063a16.5,16.5,0,0,1,2.143,1.144,17.862,17.862,0,0,1,1.934,1.4A11.042,11.042,0,0,1-54.822-7.9l-2.546,2.32a8.94,8.94,0,0,0-1.4-1.531,19.4,19.4,0,0,0-1.918-1.5A17.317,17.317,0,0,0-62.75-9.83Zm-.193,2.482H-59.4v5.995a1.728,1.728,0,0,0,.113.806q.113.161.5.161H-57.3A.494.494,0,0,0-56.868-.6a2.2,2.2,0,0,0,.226-.87q.081-.661.113-2.047a3.5,3.5,0,0,0,.886.548q.564.258,1.16.483a11.36,11.36,0,0,0,1.08.355A12.2,12.2,0,0,1-53.968.967a2.732,2.732,0,0,1-1.1,1.5,3.6,3.6,0,0,1-1.821.4h-2.482a5.082,5.082,0,0,1-2.24-.387,2.093,2.093,0,0,1-1.047-1.305,8.591,8.591,0,0,1-.29-2.5Zm-3.352.709,3.094.516a25.866,25.866,0,0,1-.822,4.077,14.466,14.466,0,0,1-1.5,3.594L-68.583.226a11.748,11.748,0,0,0,1.434-3.142A23.967,23.967,0,0,0-66.3-6.639Zm-8.444-20.788,3.32,1.257q-.645,1.257-1.354,2.562t-1.386,2.5q-.677,1.192-1.289,2.127l-2.546-1.128q.58-.967,1.192-2.24t1.16-2.594Q-75.094-26.267-74.739-27.427Zm3.61,3.9L-68-22.077q-1.192,1.8-2.578,3.8t-2.772,3.835Q-74.739-12.6-76-11.216l-2.192-1.257q.9-1.064,1.885-2.433t1.918-2.868q.935-1.5,1.773-2.981T-71.129-23.527Zm-8.605,3.642,1.9-2.578q.838.741,1.708,1.66t1.6,1.8a9.121,9.121,0,0,1,1.112,1.66l-2.095,2.965a10.093,10.093,0,0,0-1.047-1.773q-.693-.967-1.531-1.95T-79.735-19.885Zm7.509,4.061,2.707-1.128q.645,1.064,1.257,2.3t1.1,2.417a12.1,12.1,0,0,1,.677,2.111l-2.9,1.321A12.544,12.544,0,0,0-70-10.958q-.451-1.225-1.015-2.5A23.218,23.218,0,0,0-72.225-15.824ZM-79.8-13.182q2.127-.129,5.092-.338t6.027-.435l.032,2.965q-2.772.322-5.56.612t-5.076.548Zm8.347,5.543,2.739-.9a32.959,32.959,0,0,1,1.144,3.094,25.3,25.3,0,0,1,.757,2.868l-2.9,1.031a29.137,29.137,0,0,0-.725-2.965Q-70.936-6.22-71.452-7.638Zm-7.026-.838,3.126.516q-.29,2.32-.79,4.56A20.9,20.9,0,0,1-77.317.387q-.322-.193-.838-.451T-79.2-.58a7.883,7.883,0,0,0-.919-.387,13.292,13.292,0,0,0,1.1-3.449A37.579,37.579,0,0,0-78.478-8.476Zm3.61-3.062h3.32V2.868h-3.32Zm34.614-5.447h16.147v3.416H-40.254Zm-.419,15.309h16.662V1.74H-40.673Zm-1.708-8.67h20.562V2.933h-4V-6.961H-38.578V2.933h-3.8Zm10.055-13.214a27.019,27.019,0,0,1-3.336,3.867,41.46,41.46,0,0,1-4.48,3.771,46.582,46.582,0,0,1-5.108,3.255q-.258-.451-.661-1.031t-.87-1.144a7.825,7.825,0,0,0-.919-.951,33.638,33.638,0,0,0,5.366-3.32A36.285,36.285,0,0,0-37.74-23.2a25.28,25.28,0,0,0,3.223-4.125h4.029a29.6,29.6,0,0,0,2.9,3.513,37.326,37.326,0,0,0,3.4,3.126,29.543,29.543,0,0,0,3.722,2.578,30.232,30.232,0,0,0,3.835,1.9,14.173,14.173,0,0,0-1.354,1.66q-.645.919-1.16,1.821a38.989,38.989,0,0,1-3.771-2.24q-1.9-1.273-3.658-2.707a41.225,41.225,0,0,1-3.239-2.933A24.059,24.059,0,0,1-32.326-23.559ZM-1.45-25.235q-.129.612-.29,1.338t-.29,1.338q-.129.709-.322,1.6t-.371,1.773q-.177.886-.371,1.724-.322,1.386-.806,3.223T-5.028-10.3q-.645,2.111-1.45,4.238T-8.186-1.918A27.836,27.836,0,0,1-10.12,1.708L-14.31.032a25.146,25.146,0,0,0,2.111-3.4q.983-1.885,1.789-3.867t1.434-3.932q.628-1.95,1.1-3.626t.725-2.868q.451-2.192.709-4.222a23.76,23.76,0,0,0,.193-3.835ZM9.636-21.98a22.7,22.7,0,0,1,1.6,2.594q.822,1.531,1.628,3.239t1.45,3.287q.645,1.579,1,2.739L11.216-8.251a26.337,26.337,0,0,0-.854-3Q9.8-12.892,9.056-14.584T7.493-17.79A15.161,15.161,0,0,0,5.8-20.337Zm-24.172,3.352q.87.064,1.724.048t1.724-.048q.806-.032,1.934-.113t2.4-.177q1.273-.1,2.562-.209t2.385-.177q1.1-.064,1.8-.064a7.51,7.51,0,0,1,3.03.564,4.3,4.3,0,0,1,2.047,1.918,7.545,7.545,0,0,1,.757,3.674q0,1.9-.161,4.125a34.765,34.765,0,0,1-.564,4.254A13.693,13.693,0,0,1,4-1.386,4.551,4.551,0,0,1,1.885.935a7.246,7.246,0,0,1-3.175.645,14.622,14.622,0,0,1-1.966-.145q-1.064-.145-1.9-.306l-.677-4.254q.612.161,1.37.322t1.45.258a8.453,8.453,0,0,0,1.112.1A3.131,3.131,0,0,0-.483-2.756a2.292,2.292,0,0,0,1-1.08,10.106,10.106,0,0,0,.741-2.417,29.7,29.7,0,0,0,.435-3.207q.145-1.724.145-3.3a3.78,3.78,0,0,0-.371-1.9A1.816,1.816,0,0,0,.4-15.486,5.911,5.911,0,0,0-1.289-15.7q-.741,0-2,.113t-2.691.258q-1.434.145-2.659.306t-1.9.226q-.709.129-1.789.274t-1.821.274ZM9.056-26.46q.419.58.886,1.386t.919,1.611q.451.806.773,1.418L9.024-20.917Q8.7-21.593,8.283-22.4t-.87-1.611a11.087,11.087,0,0,0-.9-1.386Zm3.835-1.45q.419.612.9,1.418t.951,1.611q.467.806.725,1.354l-2.546,1.1q-.516-1-1.225-2.272a19.288,19.288,0,0,0-1.386-2.175Zm21.819,3.964q-.226.322-.5.725t-.532.79q-.58.87-1.273,2.014T30.972-18q-.741,1.273-1.434,2.53t-1.305,2.32a7.014,7.014,0,0,1,1.837-.741,7.942,7.942,0,0,1,1.869-.226,3.789,3.789,0,0,1,2.852,1.08,4.621,4.621,0,0,1,1.144,3.11q.032.709.032,1.708t.016,2q.016,1,.081,1.676a1.725,1.725,0,0,0,.693,1.338,2.444,2.444,0,0,0,1.4.4,3.163,3.163,0,0,0,1.885-.612,5.892,5.892,0,0,0,1.531-1.692,12.958,12.958,0,0,0,1.176-2.449,25.894,25.894,0,0,0,.854-2.852l3.481,2.836a20.461,20.461,0,0,1-2.127,4.818A9.714,9.714,0,0,1,41.817.467a8.083,8.083,0,0,1-4.335,1.144A6.309,6.309,0,0,1,34.517.983,4.256,4.256,0,0,1,32.745-.661,4.923,4.923,0,0,1,32.1-2.868q-.064-.87-.081-1.934t-.032-2.079q-.016-1.015-.081-1.66a2.016,2.016,0,0,0-.548-1.321,1.83,1.83,0,0,0-1.354-.483,3.486,3.486,0,0,0-2.03.677A7.443,7.443,0,0,0,26.218-7.9a13.183,13.183,0,0,0-1.37,2.417q-.322.709-.677,1.676t-.677,2q-.322,1.031-.612,1.95T22.4,1.708L17.855.161q.612-1.611,1.5-3.69T21.3-7.9q1.064-2.288,2.159-4.544t2.095-4.27q1-2.014,1.789-3.513T28.555-22.5q.322-.645.741-1.45t.838-1.837Zm15.083,3.223H60.3v3.577H49.794Zm3.964-6.671h3.577V2.868H53.758Zm0,9.153,2.192.709q-.355,1.934-.87,4T53.9-9.491A38.344,38.344,0,0,1,52.469-5.8a18.934,18.934,0,0,1-1.644,2.965,11.824,11.824,0,0,0-.79-1.773q-.532-1-.983-1.676a15.82,15.82,0,0,0,1.515-2.482q.709-1.418,1.338-3.03T53-15.067Q53.468-16.727,53.758-18.242Zm3.416,2.417q.258.322.806,1.112t1.16,1.692q.612.9,1.128,1.692t.709,1.112l-2,3q-.258-.709-.677-1.66t-.919-1.966q-.5-1.015-.967-1.9l-.757-1.434Zm6.7-4.125H75.642v3.158H63.878Zm5.769-4.061a18.019,18.019,0,0,1-2.208,2.627,25.745,25.745,0,0,1-2.933,2.514,22.371,22.371,0,0,1-3.271,2.014,12.126,12.126,0,0,0-.838-1.676,17.982,17.982,0,0,0-1-1.547,17.781,17.781,0,0,0,3.336-1.95,21.5,21.5,0,0,0,2.9-2.562,17.381,17.381,0,0,0,2.143-2.739h3.513a21.758,21.758,0,0,0,2.562,2.917,22.177,22.177,0,0,0,3.062,2.449,17.057,17.057,0,0,0,3.3,1.724,15.336,15.336,0,0,0-1.064,1.628q-.548.951-.935,1.756a23.053,23.053,0,0,1-3.175-1.95,27.787,27.787,0,0,1-3.03-2.53A20.972,20.972,0,0,1,69.647-24.011ZM64.716-11.764v3.03H74.8v-3.03Zm-3.352-2.965h16.92v8.96H61.364Zm6.542-3.223h3.481V-9.7a17.984,17.984,0,0,1-.371,3.594,10.683,10.683,0,0,1-1.434,3.529A11.45,11.45,0,0,1,66.521.58a18.535,18.535,0,0,1-5.189,2.482,4.982,4.982,0,0,0-.532-.967q-.371-.548-.79-1.08a6.727,6.727,0,0,0-.741-.822,19.7,19.7,0,0,0,4.673-2.063A8.445,8.445,0,0,0,66.521-4.3a7.744,7.744,0,0,0,1.112-2.691,14.591,14.591,0,0,0,.274-2.836ZM71.645-7.7A15.3,15.3,0,0,0,73.9-3.835a9.464,9.464,0,0,0,2.756,2.272,17.942,17.942,0,0,0,3.368,1.37,8.05,8.05,0,0,0-1.305,1.466,7.646,7.646,0,0,0-.951,1.756,19.4,19.4,0,0,1-3.787-1.966,12.414,12.414,0,0,1-3.11-3.078A20.068,20.068,0,0,1,68.39-6.994ZM102.23-23.592a22.34,22.34,0,0,1-2.063,3.03,28.161,28.161,0,0,1-2.788,3.013,21.7,21.7,0,0,1-3.207,2.5,17.182,17.182,0,0,0-.87-1.692,12.8,12.8,0,0,0-1.064-1.6A16.441,16.441,0,0,0,95.511-20.8a24.805,24.805,0,0,0,2.82-3.207,21.347,21.347,0,0,0,2-3.223h3.577a27.218,27.218,0,0,0,2.4,3.352,23.672,23.672,0,0,0,2.917,2.949,16.5,16.5,0,0,0,3.126,2.111,12.673,12.673,0,0,0-1.112,1.66q-.564.983-.951,1.821a19.5,19.5,0,0,1-3.062-2.32,30.03,30.03,0,0,1-2.8-2.933A27,27,0,0,1,102.23-23.592Zm-.064,4.834,3.352,1.321a20.04,20.04,0,0,1-2.288,2.53,25.624,25.624,0,0,1-2.723,2.224,26.946,26.946,0,0,1-2.884,1.789,14.576,14.576,0,0,0-1.112-1.192,10.821,10.821,0,0,0-1.338-1.128,27.125,27.125,0,0,0,2.594-1.531,21.175,21.175,0,0,0,2.5-1.934A13.306,13.306,0,0,0,102.166-18.757Zm2.933,4.609,3.384,1.45a22.267,22.267,0,0,1-3.062,3.158,30.906,30.906,0,0,1-3.706,2.707,36.127,36.127,0,0,1-4,2.159,15.17,15.17,0,0,0-1.1-1.386A10.5,10.5,0,0,0,95.3-7.348a26.836,26.836,0,0,0,3.69-1.773,28.309,28.309,0,0,0,3.465-2.337A13.84,13.84,0,0,0,105.1-14.149Zm2.514,5.124,3.481,1.515a22.108,22.108,0,0,1-6.4,6.349,36.249,36.249,0,0,1-8.589,4.125,12.525,12.525,0,0,0-1.064-1.708A13.345,13.345,0,0,0,93.69-.355a32.119,32.119,0,0,0,5.576-1.982,25.043,25.043,0,0,0,4.818-2.9A15.457,15.457,0,0,0,107.613-9.024ZM83.054-17.5h9.733v2.933H83.054Zm.129-8.863h9.54v2.9h-9.54Zm-.129,13.278h9.733v2.9H83.054Zm-1.515-8.96H93.722v3.062H81.539ZM84.73-8.637h8.122v9.83H84.73V-1.869h4.8V-5.576h-4.8Zm-1.74,0h3.255V2.449H82.99Zm48.859-13.44q-.322,2.449-.838,5.221a50.792,50.792,0,0,1-1.386,5.608,28.807,28.807,0,0,1-2.192,5.608,12.293,12.293,0,0,1-2.756,3.626,4.949,4.949,0,0,1-3.271,1.273,5.1,5.1,0,0,1-3.271-1.209,8.255,8.255,0,0,1-2.385-3.336,12.471,12.471,0,0,1-.886-4.834,12.624,12.624,0,0,1,1.128-5.286,14.062,14.062,0,0,1,3.142-4.4,14.9,14.9,0,0,1,4.705-3.013,15.278,15.278,0,0,1,5.817-1.1,14.342,14.342,0,0,1,5.4.967,12.151,12.151,0,0,1,4.109,2.675,11.611,11.611,0,0,1,2.611,4,13.32,13.32,0,0,1,.9,4.931,12.977,12.977,0,0,1-1.386,6.059A11.456,11.456,0,0,1,137.183-.87,17.62,17.62,0,0,1,130.4,1.515L127.982-2.32q.935-.1,1.644-.226t1.354-.29a12.265,12.265,0,0,0,2.884-1.112,9,9,0,0,0,2.337-1.8,7.9,7.9,0,0,0,1.563-2.53,8.733,8.733,0,0,0,.564-3.191,10.027,10.027,0,0,0-.58-3.481,7.836,7.836,0,0,0-1.708-2.756,7.526,7.526,0,0,0-2.739-1.8,10.151,10.151,0,0,0-3.706-.628,10.626,10.626,0,0,0-4.544.919,10.638,10.638,0,0,0-3.32,2.369,10.4,10.4,0,0,0-2.047,3.126,8.353,8.353,0,0,0-.693,3.191,8.059,8.059,0,0,0,.387,2.691,4.073,4.073,0,0,0,.951,1.611,1.74,1.74,0,0,0,1.209.532,1.883,1.883,0,0,0,1.338-.693,7.73,7.73,0,0,0,1.305-2.111,28.56,28.56,0,0,0,1.289-3.577,44.018,44.018,0,0,0,1.257-4.963,50.513,50.513,0,0,0,.741-5.157Zm16.372-3.32H174v3.835H148.221Zm-1.708,13.665h29.361v3.9H146.513Zm3.642-7.735L153.7-20.53q.548,1.064,1.08,2.24t.935,2.32a16.956,16.956,0,0,1,.6,2.047L152.54-12.73a17.279,17.279,0,0,0-.516-2.047q-.355-1.144-.838-2.385A24.278,24.278,0,0,0,150.155-19.466Zm18.371-1.16,4.158,1.064q-.58,1.257-1.209,2.482t-1.225,2.337q-.6,1.112-1.144,1.95l-3.384-1q.516-.935,1.047-2.127t1-2.417Q168.236-19.563,168.526-20.627Zm-9.411-3.158h4.029V2.868h-4.029Zm32.293,8.154h9.475v3.449h-9.475ZM189.732-5.7q1.45-.419,3.32-1.047t3.98-1.386q2.111-.757,4.206-1.5l.677,3.287q-2.739,1.128-5.56,2.256T191.215-2.03Zm3.191-16.5h12.311v3.642H192.923Zm11.151,0h3.9v1.144a5.857,5.857,0,0,1-.032.693q-.161,5.382-.355,9.169t-.419,6.236a26.335,26.335,0,0,1-.58,3.851A5.941,5.941,0,0,1,205.75.935,3.947,3.947,0,0,1,204.4,2.24a5.034,5.034,0,0,1-1.676.5,13.9,13.9,0,0,1-2.224.177q-1.321.016-2.707-.048A7.544,7.544,0,0,0,197.4.886a8.824,8.824,0,0,0-.87-1.95q1.418.129,2.611.145t1.773.016a2.18,2.18,0,0,0,.773-.113,1.483,1.483,0,0,0,.58-.467,3.6,3.6,0,0,0,.661-1.676,32.461,32.461,0,0,0,.483-3.642q.209-2.353.371-5.946t.29-8.621Zm-11.087-5.253,3.964.9a38.606,38.606,0,0,1-1.676,4.85,37.85,37.85,0,0,1-2.208,4.431,22.175,22.175,0,0,1-2.562,3.577q-.355-.322-.967-.806t-1.241-.951a7.841,7.841,0,0,0-1.144-.725,18.4,18.4,0,0,0,3.5-4.979A31.682,31.682,0,0,0,192.987-27.459Zm-14.31,7.316h10.281V-16.5H178.678Zm3.481-6.833H185.9V-5.543h-3.739Zm-4.19,20.852q1.418-.451,3.255-1.144t3.884-1.483q2.047-.79,4.045-1.6l.838,3.577q-2.675,1.192-5.5,2.385t-5.141,2.159Zm41.7-18.113h20.594v3.481H219.673ZM220-16.727h20.111V2h-3.739V-13.343H223.541V2.192H220Zm5.221-7.058h3.642v9.572h-3.642Zm5.769-.032h3.642v9.572h-3.642ZM221.607-2.965h17.5V.355h-17.5Zm3.964-11.28h3.255V-.387h-3.255Zm5.414-.032h3.255V-.419h-3.255ZM216.9-27.3l3.481,1.1a49.3,49.3,0,0,1-2.32,5.318,48.817,48.817,0,0,1-2.933,5.044,33.117,33.117,0,0,1-3.255,4.174q-.193-.451-.532-1.192t-.741-1.5a11.111,11.111,0,0,0-.725-1.209,23.869,23.869,0,0,0,2.723-3.3,34.608,34.608,0,0,0,2.4-4.045A39.16,39.16,0,0,0,216.9-27.3Zm-3.094,8.992,3.61-3.642.032.064V2.868h-3.642ZM259.8-23.978h8.508v3.32H259.8Zm-3.32,14.761h14.052V2.8h-3.739V-5.962h-6.736V2.9h-3.577ZM257.9-1.547h10.958v3.32H257.9Zm2.256-25.88,3.706,1.031a34.562,34.562,0,0,1-2.127,4.286,33.141,33.141,0,0,1-2.659,3.9,25.472,25.472,0,0,1-2.949,3.158,8.567,8.567,0,0,0-.838-.854q-.548-.5-1.112-.983a9.48,9.48,0,0,0-1.015-.773,20.082,20.082,0,0,0,4.077-4.3A23.326,23.326,0,0,0,260.153-27.427Zm7.155,3.449h.677l.645-.129,2.449,1.128a25.439,25.439,0,0,1-2.659,5.608,23.758,23.758,0,0,1-3.755,4.544,27.763,27.763,0,0,1-4.625,3.513A29.7,29.7,0,0,1,254.8-6.8a17.734,17.734,0,0,0-.983-1.611,10.2,10.2,0,0,0-1.209-1.515,22.873,22.873,0,0,0,4.818-2.047A25,25,0,0,0,261.684-15a20.917,20.917,0,0,0,3.4-3.835,17.367,17.367,0,0,0,2.224-4.5Zm-7.348,2.256a19.214,19.214,0,0,0,2.868,4.3,21.679,21.679,0,0,0,4.56,3.948,21.9,21.9,0,0,0,6.075,2.739,11.943,11.943,0,0,0-.822.935q-.467.58-.87,1.192t-.661,1.064a23.416,23.416,0,0,1-6.236-3.271,24.545,24.545,0,0,1-4.705-4.528,26.67,26.67,0,0,1-3.11-4.9Zm-16.791,1h11.506v3.577H243.168Zm4.254-6.671h3.642V2.868h-3.642Zm-.064,9.153,2.224.741q-.387,1.934-.919,4.013t-1.241,4.061q-.709,1.982-1.515,3.69A17.611,17.611,0,0,1,244.2-2.8a11.049,11.049,0,0,0-.806-1.773q-.548-1-1-1.708a15.916,15.916,0,0,0,1.579-2.482q.741-1.418,1.4-3.013a34.444,34.444,0,0,0,1.16-3.255Q247.036-16.695,247.358-18.242Zm3.577,1.74a11.139,11.139,0,0,1,.854.9q.564.645,1.209,1.418t1.176,1.418q.532.645.757.9l-2.095,2.933q-.29-.612-.757-1.418t-1-1.676q-.532-.87-1.031-1.644t-.854-1.257Z" transform="translate(683.201 9101.179)" fill="#fff"/>
      <g id="グループ_692" data-name="グループ 692">
        <path id="パス_730" data-name="パス 730" d="M-29.892-21.795v2.86h19.257v-2.86Zm0-6.446V-25.5h19.257v-2.739Zm-4.834-3.988H-5.6v17.283H-34.727Zm11.965,1.893h4.875v13.375h-4.875ZM-37.426-12.126H-6.97v4.311H-37.426Zm28.281,0H-4.23l-.02.342q-.02.342-.04.786t-.06.765q-.322,3.706-.725,6.124A23.785,23.785,0,0,1-5.983-.262,5.209,5.209,0,0,1-7.171,1.813,4.775,4.775,0,0,1-8.923,2.961a8.075,8.075,0,0,1-2.236.423q-1.088.081-2.82.081t-3.626-.04a9.482,9.482,0,0,0-.5-2.256,8.642,8.642,0,0,0-1.068-2.175q1.853.161,3.585.2t2.538.04a7.414,7.414,0,0,0,1.027-.06,1.412,1.412,0,0,0,.745-.342,3.488,3.488,0,0,0,.866-1.591,20.977,20.977,0,0,0,.685-3.324q.3-2.135.544-5.4Zm-14.342-3.626h5.076a49.637,49.637,0,0,1-.886,5.217,18.721,18.721,0,0,1-1.692,4.613,14.573,14.573,0,0,1-3.082,3.928,19.316,19.316,0,0,1-5.016,3.2A36.734,36.734,0,0,1-36.62,3.585a7.725,7.725,0,0,0-.624-1.41q-.423-.765-.906-1.531A7.415,7.415,0,0,0-39.158-.645,36.408,36.408,0,0,0-32.39-2.5a16.779,16.779,0,0,0,4.371-2.457A10.014,10.014,0,0,0-25.461-8a14.593,14.593,0,0,0,1.329-3.626A32.01,32.01,0,0,0-23.487-15.752ZM6-34.243h4.834V3.585H6ZM2.619-26.468l3.424.483q-.081,1.732-.322,3.787T5.1-18.169a34.361,34.361,0,0,1-.866,3.545L.645-15.913A23.083,23.083,0,0,0,1.511-19.1q.383-1.853.685-3.787T2.619-26.468Zm7.292.282,3.263-1.37a33.23,33.23,0,0,1,1.611,3.384,23.384,23.384,0,0,1,1.088,3.142l-3.5,1.611a13.618,13.618,0,0,0-.564-2.034q-.4-1.148-.886-2.4T9.91-26.186Zm7.614-6.2,4.713.725q-.4,2.981-1.068,5.9a52.66,52.66,0,0,1-1.531,5.439,27.847,27.847,0,0,1-1.914,4.411,12.224,12.224,0,0,0-1.249-.765q-.806-.443-1.632-.826t-1.43-.624a18.985,18.985,0,0,0,1.893-3.988,38.185,38.185,0,0,0,1.35-4.935Q17.2-29.691,17.525-32.39Zm1.45,6.325H37.587v4.552H17.565ZM24.494-34h4.834V.363H24.494ZM16.638-14.866H36.7v4.512H16.638ZM13.617-2.3H38.836V2.337H13.617Z" transform="translate(360.438 9191)" fill="#fff"/>
        <path id="パス_729" data-name="パス 729" d="M-97.58-15.88l3.88-1.92q1.04,1.36,2.08,2.98t1.88,3.2A17.033,17.033,0,0,1-88.5-8.76L-92.66-6.6A18.9,18.9,0,0,0-93.8-9.46q-.78-1.62-1.76-3.3T-97.58-15.88Zm1.36-11.32h14.36v4.56H-96.22Zm12.28,0h4.64v1.4a7.056,7.056,0,0,1-.04.84q-.2,6.6-.42,11.22t-.54,7.62a37.8,37.8,0,0,1-.74,4.72A6.622,6.622,0,0,1-82.1,1.12a4.926,4.926,0,0,1-1.74,1.6,7.661,7.661,0,0,1-2.18.64,19.632,19.632,0,0,1-2.78.16q-1.7,0-3.5-.04a9.306,9.306,0,0,0-.48-2.42A9.89,9.89,0,0,0-93.9-1.36q1.92.16,3.52.2t2.36.04A2.679,2.679,0,0,0-87-1.28a2.35,2.35,0,0,0,.74-.52,4.947,4.947,0,0,0,.84-2.12,36.616,36.616,0,0,0,.62-4.5q.26-2.9.48-7.3t.38-10.52Zm-12.04-6.84,4.96,1.12a53.65,53.65,0,0,1-2.02,5.82,48.417,48.417,0,0,1-2.58,5.34,29.693,29.693,0,0,1-2.92,4.32,15.287,15.287,0,0,0-1.24-1q-.76-.56-1.6-1.08t-1.44-.84a19.584,19.584,0,0,0,2.84-3.78,35.251,35.251,0,0,0,2.3-4.72A42,42,0,0,0-95.98-34.04Zm-14.12.08,4.24,1.48q-.8,1.56-1.68,3.18t-1.72,3.12a28.417,28.417,0,0,1-1.64,2.62l-3.24-1.32q.72-1.24,1.48-2.82t1.44-3.22Q-110.54-32.56-110.1-33.96Zm4.8,4.76,4.08,1.68q-1.48,2.28-3.2,4.78t-3.48,4.78q-1.76,2.28-3.28,4l-2.92-1.48q1.16-1.36,2.36-3.08t2.38-3.56q1.18-1.84,2.24-3.7T-105.3-29.2Zm-10.96,4.72,2.28-3.28q1.04.88,2.16,1.98t2.06,2.18a10.617,10.617,0,0,1,1.42,2l-2.44,3.72a15.07,15.07,0,0,0-1.38-2.1q-.9-1.18-1.98-2.36T-116.26-24.48Zm10,4.92,3.4-1.48q.8,1.32,1.56,2.84t1.32,2.98a21.548,21.548,0,0,1,.84,2.62l-3.68,1.68a22.691,22.691,0,0,0-.76-2.62q-.52-1.5-1.22-3.08T-106.26-19.56Zm-10,3.2q2.76-.08,6.66-.24t7.94-.36l-.04,3.8q-3.76.28-7.48.54t-6.68.42Zm10.68,6.8,3.52-1.16A38.72,38.72,0,0,1-100.5-6.8a31.234,31.234,0,0,1,1.04,3.68l-3.72,1.36a30.859,30.859,0,0,0-.96-3.78Q-104.82-7.72-105.58-9.56Zm-8.96-.92,3.96.72a50.494,50.494,0,0,1-.96,5.68A26.83,26.83,0,0,1-113.02.64,8.78,8.78,0,0,0-114.1.02q-.68-.34-1.38-.66a10.289,10.289,0,0,0-1.22-.48,18.292,18.292,0,0,0,1.4-4.3A45.839,45.839,0,0,0-114.54-10.48Zm4.64-3.76h4.24V3.6h-4.24ZM-75.58,0V-3.4q4.04-3.6,6.9-6.68a32.061,32.061,0,0,0,4.38-5.74,10.069,10.069,0,0,0,1.52-4.94,5.748,5.748,0,0,0-.52-2.52,3.783,3.783,0,0,0-1.5-1.66,4.679,4.679,0,0,0-2.42-.58,5.163,5.163,0,0,0-2.94.9,13.308,13.308,0,0,0-2.46,2.14l-3.28-3.16a16.071,16.071,0,0,1,4.26-3.38,11.039,11.039,0,0,1,5.18-1.14,10.114,10.114,0,0,1,4.9,1.14,8.135,8.135,0,0,1,3.26,3.18,9.548,9.548,0,0,1,1.16,4.8,12.513,12.513,0,0,1-1.34,5.46,28.431,28.431,0,0,1-3.58,5.54A66.349,66.349,0,0,1-67.02-4.6q1.16-.16,2.5-.26t2.38-.1h6.4V0Zm23.6,0V-3.4q4.04-3.6,6.9-6.68a32.06,32.06,0,0,0,4.38-5.74,10.069,10.069,0,0,0,1.52-4.94,5.748,5.748,0,0,0-.52-2.52,3.783,3.783,0,0,0-1.5-1.66,4.679,4.679,0,0,0-2.42-.58,5.163,5.163,0,0,0-2.94.9,13.308,13.308,0,0,0-2.46,2.14l-3.28-3.16a16.071,16.071,0,0,1,4.26-3.38,11.039,11.039,0,0,1,5.18-1.14,10.114,10.114,0,0,1,4.9,1.14,8.135,8.135,0,0,1,3.26,3.18,9.548,9.548,0,0,1,1.16,4.8,12.513,12.513,0,0,1-1.34,5.46,28.431,28.431,0,0,1-3.58,5.54A66.348,66.348,0,0,1-43.42-4.6q1.16-.16,2.5-.26t2.38-.1h6.4V0Zm32.96.56A14.43,14.43,0,0,1-23.22,0,13.192,13.192,0,0,1-26.5-1.48a16.363,16.363,0,0,1-2.56-2l2.72-3.76a13.254,13.254,0,0,0,1.82,1.52,8.621,8.621,0,0,0,2.16,1.08,7.862,7.862,0,0,0,2.54.4,5.572,5.572,0,0,0,2.7-.64,4.625,4.625,0,0,0,1.86-1.86,5.953,5.953,0,0,0,.68-2.94,5.4,5.4,0,0,0-1.38-3.96,4.857,4.857,0,0,0-3.62-1.4,6.357,6.357,0,0,0-2.2.34,12.387,12.387,0,0,0-2.24,1.18l-2.68-1.72.8-14.4h15.84v4.96H-20.82l-.56,6.28a9.46,9.46,0,0,1,1.72-.6,7.941,7.941,0,0,1,1.84-.2,10.563,10.563,0,0,1,4.56.98,7.567,7.567,0,0,1,3.32,3.06A10.268,10.268,0,0,1-8.7-9.84a10.405,10.405,0,0,1-1.46,5.62,9.73,9.73,0,0,1-3.8,3.56A10.782,10.782,0,0,1-19.02.56Zm15.88,8-1.24-3.2A8.9,8.9,0,0,0-.8,2.96,4.892,4.892,0,0,0,.46-.28l-.2-4.2L2.34-1a3.013,3.013,0,0,1-1.06.64,3.716,3.716,0,0,1-1.22.2,3.974,3.974,0,0,1-2.56-.9A3.117,3.117,0,0,1-3.62-3.64,3.158,3.158,0,0,1-2.5-6.16,4.037,4.037,0,0,1,.22-7.12a3.588,3.588,0,0,1,3.1,1.54,7.22,7.22,0,0,1,1.1,4.26A9.711,9.711,0,0,1,2.46,4.76,11.48,11.48,0,0,1-3.14,8.56ZM18.3.56a8.379,8.379,0,0,1-5.26-1.74,11.174,11.174,0,0,1-3.52-5.2,25.283,25.283,0,0,1-1.26-8.58,24.444,24.444,0,0,1,1.26-8.46,10.781,10.781,0,0,1,3.52-5.06,8.577,8.577,0,0,1,5.26-1.68,8.485,8.485,0,0,1,5.28,1.7,10.987,10.987,0,0,1,3.5,5.06,24.271,24.271,0,0,1,1.26,8.44,25.283,25.283,0,0,1-1.26,8.58,11.247,11.247,0,0,1-3.5,5.2A8.355,8.355,0,0,1,18.3.56Zm0-4.6a3.183,3.183,0,0,0,2.32-1,7.068,7.068,0,0,0,1.56-3.38,29.917,29.917,0,0,0,.56-6.54,29.111,29.111,0,0,0-.56-6.46,6.59,6.59,0,0,0-1.56-3.28,3.284,3.284,0,0,0-2.32-.94,3.261,3.261,0,0,0-2.26.94,6.7,6.7,0,0,0-1.62,3.28,27.233,27.233,0,0,0-.6,6.46,27.985,27.985,0,0,0,.6,6.54,7.185,7.185,0,0,0,1.62,3.38A3.164,3.164,0,0,0,18.3-4.04ZM41.9.56a8.379,8.379,0,0,1-5.26-1.74,11.174,11.174,0,0,1-3.52-5.2,25.283,25.283,0,0,1-1.26-8.58,24.444,24.444,0,0,1,1.26-8.46,10.781,10.781,0,0,1,3.52-5.06,8.577,8.577,0,0,1,5.26-1.68,8.485,8.485,0,0,1,5.28,1.7,10.987,10.987,0,0,1,3.5,5.06,24.27,24.27,0,0,1,1.26,8.44,25.283,25.283,0,0,1-1.26,8.58,11.247,11.247,0,0,1-3.5,5.2A8.355,8.355,0,0,1,41.9.56Zm0-4.6a3.183,3.183,0,0,0,2.32-1,7.068,7.068,0,0,0,1.56-3.38,29.917,29.917,0,0,0,.56-6.54,29.111,29.111,0,0,0-.56-6.46,6.59,6.59,0,0,0-1.56-3.28,3.284,3.284,0,0,0-2.32-.94,3.261,3.261,0,0,0-2.26.94,6.7,6.7,0,0,0-1.62,3.28,27.233,27.233,0,0,0-.6,6.46,27.985,27.985,0,0,0,.6,6.54,7.185,7.185,0,0,0,1.62,3.38A3.164,3.164,0,0,0,41.9-4.04ZM65.5.56a8.379,8.379,0,0,1-5.26-1.74,11.174,11.174,0,0,1-3.52-5.2,25.283,25.283,0,0,1-1.26-8.58,24.444,24.444,0,0,1,1.26-8.46,10.781,10.781,0,0,1,3.52-5.06,8.577,8.577,0,0,1,5.26-1.68,8.485,8.485,0,0,1,5.28,1.7,10.987,10.987,0,0,1,3.5,5.06,24.271,24.271,0,0,1,1.26,8.44,25.283,25.283,0,0,1-1.26,8.58,11.247,11.247,0,0,1-3.5,5.2A8.355,8.355,0,0,1,65.5.56Zm0-4.6a3.183,3.183,0,0,0,2.32-1,7.068,7.068,0,0,0,1.56-3.38,29.917,29.917,0,0,0,.56-6.54,29.111,29.111,0,0,0-.56-6.46,6.59,6.59,0,0,0-1.56-3.28,3.284,3.284,0,0,0-2.32-.94,3.261,3.261,0,0,0-2.26.94,6.7,6.7,0,0,0-1.62,3.28,27.233,27.233,0,0,0-.6,6.46,27.985,27.985,0,0,0,.6,6.54,7.185,7.185,0,0,0,1.62,3.38A3.164,3.164,0,0,0,65.5-4.04Zm15-27.4h31.36v4.76H85.3V3.56H80.5Zm29.08,0h4.84v29.4a7.722,7.722,0,0,1-.48,3.02,3.393,3.393,0,0,1-1.72,1.7,8.611,8.611,0,0,1-3.1.74q-1.86.14-4.54.14a12.261,12.261,0,0,0-.4-1.56q-.28-.88-.64-1.74a14.5,14.5,0,0,0-.72-1.5q1.16.08,2.34.1t2.1.02h1.28a1.317,1.317,0,0,0,.8-.26.967.967,0,0,0,.24-.74ZM83.1-16.56h28.84v4.72H83.1ZM94.78-28.84h4.8V-14.2h-4.8Z" transform="translate(531.697 9191)" fill="#fff"/>
      </g>
      <g id="グループ_693" data-name="グループ 693">
        <path id="パス_728" data-name="パス 728" d="M-38.473-25.1H-1.692v4.915H-38.473Zm14.422-9.145,5.318.967q-1.209,3.263-2.6,6.808t-2.84,7.05q-1.45,3.5-2.84,6.728t-2.6,5.842l-4.915-1.732q1.168-2.5,2.558-5.62t2.8-6.567q1.41-3.444,2.739-6.889T-24.051-34.243Zm11.28,11.562,5.318,1.168a44,44,0,0,1-3.3,10.656,22.193,22.193,0,0,1-5.4,7.252A24.958,24.958,0,0,1-24.232.987,61.475,61.475,0,0,1-35.573,3.706,12.742,12.742,0,0,0-36.62,1.168a13.6,13.6,0,0,0-1.491-2.3A54.81,54.81,0,0,0-27.677-3.2,21.6,21.6,0,0,0-20.365-7.05a18.335,18.335,0,0,0,4.794-6.265A35.857,35.857,0,0,0-12.771-22.681Zm-19.1,13.254,3.223-3.747q3.263,1.047,6.889,2.518T-14.5-7.513q3.626,1.672,6.768,3.4A46.917,46.917,0,0,1-2.377-.725L-6.043,3.827A42.454,42.454,0,0,0-11.079.363Q-14.1-1.45-17.625-3.223t-7.211-3.364Q-28.523-8.178-31.866-9.427ZM6-34.243h4.834V3.585H6ZM2.619-26.468l3.424.483q-.081,1.732-.322,3.787T5.1-18.169a34.361,34.361,0,0,1-.866,3.545L.645-15.913A23.083,23.083,0,0,0,1.511-19.1q.383-1.853.685-3.787T2.619-26.468Zm7.292.282,3.263-1.37a33.23,33.23,0,0,1,1.611,3.384,23.384,23.384,0,0,1,1.088,3.142l-3.5,1.611a13.618,13.618,0,0,0-.564-2.034q-.4-1.148-.886-2.4T9.91-26.186Zm7.614-6.2,4.713.725q-.4,2.981-1.068,5.9a52.66,52.66,0,0,1-1.531,5.439,27.847,27.847,0,0,1-1.914,4.411,12.224,12.224,0,0,0-1.249-.765q-.806-.443-1.632-.826t-1.43-.624a18.985,18.985,0,0,0,1.893-3.988,38.185,38.185,0,0,0,1.35-4.935Q17.2-29.691,17.525-32.39Zm1.45,6.325H37.587v4.552H17.565ZM24.494-34h4.834V.363H24.494ZM16.638-14.866H36.7v4.512H16.638ZM13.617-2.3H38.836V2.337H13.617Z" transform="translate(755.272 9191)" fill="#fff"/>
        <path id="パス_727" data-name="パス 727" d="M-97.58-15.88l3.88-1.92q1.04,1.36,2.08,2.98t1.88,3.2A17.033,17.033,0,0,1-88.5-8.76L-92.66-6.6A18.9,18.9,0,0,0-93.8-9.46q-.78-1.62-1.76-3.3T-97.58-15.88Zm1.36-11.32h14.36v4.56H-96.22Zm12.28,0h4.64v1.4a7.056,7.056,0,0,1-.04.84q-.2,6.6-.42,11.22t-.54,7.62a37.8,37.8,0,0,1-.74,4.72A6.622,6.622,0,0,1-82.1,1.12a4.926,4.926,0,0,1-1.74,1.6,7.661,7.661,0,0,1-2.18.64,19.632,19.632,0,0,1-2.78.16q-1.7,0-3.5-.04a9.306,9.306,0,0,0-.48-2.42A9.89,9.89,0,0,0-93.9-1.36q1.92.16,3.52.2t2.36.04A2.679,2.679,0,0,0-87-1.28a2.35,2.35,0,0,0,.74-.52,4.947,4.947,0,0,0,.84-2.12,36.616,36.616,0,0,0,.62-4.5q.26-2.9.48-7.3t.38-10.52Zm-12.04-6.84,4.96,1.12a53.65,53.65,0,0,1-2.02,5.82,48.417,48.417,0,0,1-2.58,5.34,29.693,29.693,0,0,1-2.92,4.32,15.287,15.287,0,0,0-1.24-1q-.76-.56-1.6-1.08t-1.44-.84a19.584,19.584,0,0,0,2.84-3.78,35.251,35.251,0,0,0,2.3-4.72A42,42,0,0,0-95.98-34.04Zm-14.12.08,4.24,1.48q-.8,1.56-1.68,3.18t-1.72,3.12a28.417,28.417,0,0,1-1.64,2.62l-3.24-1.32q.72-1.24,1.48-2.82t1.44-3.22Q-110.54-32.56-110.1-33.96Zm4.8,4.76,4.08,1.68q-1.48,2.28-3.2,4.78t-3.48,4.78q-1.76,2.28-3.28,4l-2.92-1.48q1.16-1.36,2.36-3.08t2.38-3.56q1.18-1.84,2.24-3.7T-105.3-29.2Zm-10.96,4.72,2.28-3.28q1.04.88,2.16,1.98t2.06,2.18a10.617,10.617,0,0,1,1.42,2l-2.44,3.72a15.07,15.07,0,0,0-1.38-2.1q-.9-1.18-1.98-2.36T-116.26-24.48Zm10,4.92,3.4-1.48q.8,1.32,1.56,2.84t1.32,2.98a21.548,21.548,0,0,1,.84,2.62l-3.68,1.68a22.691,22.691,0,0,0-.76-2.62q-.52-1.5-1.22-3.08T-106.26-19.56Zm-10,3.2q2.76-.08,6.66-.24t7.94-.36l-.04,3.8q-3.76.28-7.48.54t-6.68.42Zm10.68,6.8,3.52-1.16A38.72,38.72,0,0,1-100.5-6.8a31.234,31.234,0,0,1,1.04,3.68l-3.72,1.36a30.859,30.859,0,0,0-.96-3.78Q-104.82-7.72-105.58-9.56Zm-8.96-.92,3.96.72a50.494,50.494,0,0,1-.96,5.68A26.83,26.83,0,0,1-113.02.64,8.78,8.78,0,0,0-114.1.02q-.68-.34-1.38-.66a10.289,10.289,0,0,0-1.22-.48,18.292,18.292,0,0,0,1.4-4.3A45.839,45.839,0,0,0-114.54-10.48Zm4.64-3.76h4.24V3.6h-4.24ZM-75.58,0V-3.4q4.04-3.6,6.9-6.68a32.061,32.061,0,0,0,4.38-5.74,10.069,10.069,0,0,0,1.52-4.94,5.748,5.748,0,0,0-.52-2.52,3.783,3.783,0,0,0-1.5-1.66,4.679,4.679,0,0,0-2.42-.58,5.163,5.163,0,0,0-2.94.9,13.308,13.308,0,0,0-2.46,2.14l-3.28-3.16a16.071,16.071,0,0,1,4.26-3.38,11.039,11.039,0,0,1,5.18-1.14,10.114,10.114,0,0,1,4.9,1.14,8.135,8.135,0,0,1,3.26,3.18,9.548,9.548,0,0,1,1.16,4.8,12.513,12.513,0,0,1-1.34,5.46,28.431,28.431,0,0,1-3.58,5.54A66.349,66.349,0,0,1-67.02-4.6q1.16-.16,2.5-.26t2.38-.1h6.4V0Zm35.36,0V-18.2q0-1.28.08-3.06t.16-3.1h-.2q-.52,1.2-1.12,2.4t-1.24,2.44l-4.6,7.36h15.92v4.48H-52.86v-4l11.04-17.96h7.08V0Zm13.4,0V-4.8h6.4V-23.48h-5.4v-3.68a24.171,24.171,0,0,0,3.86-.98,14.179,14.179,0,0,0,3.02-1.5h4.36V-4.8h5.56V0ZM-3.14,8.56l-1.24-3.2A8.9,8.9,0,0,0-.8,2.96,4.892,4.892,0,0,0,.46-.28l-.2-4.2L2.34-1a3.013,3.013,0,0,1-1.06.64,3.716,3.716,0,0,1-1.22.2,3.974,3.974,0,0,1-2.56-.9A3.117,3.117,0,0,1-3.62-3.64,3.158,3.158,0,0,1-2.5-6.16,4.037,4.037,0,0,1,.22-7.12a3.588,3.588,0,0,1,3.1,1.54,7.22,7.22,0,0,1,1.1,4.26A9.711,9.711,0,0,1,2.46,4.76,11.48,11.48,0,0,1-3.14,8.56ZM18.3.56a8.379,8.379,0,0,1-5.26-1.74,11.174,11.174,0,0,1-3.52-5.2,25.283,25.283,0,0,1-1.26-8.58,24.444,24.444,0,0,1,1.26-8.46,10.781,10.781,0,0,1,3.52-5.06,8.577,8.577,0,0,1,5.26-1.68,8.485,8.485,0,0,1,5.28,1.7,10.987,10.987,0,0,1,3.5,5.06,24.271,24.271,0,0,1,1.26,8.44,25.283,25.283,0,0,1-1.26,8.58,11.247,11.247,0,0,1-3.5,5.2A8.355,8.355,0,0,1,18.3.56Zm0-4.6a3.183,3.183,0,0,0,2.32-1,7.068,7.068,0,0,0,1.56-3.38,29.917,29.917,0,0,0,.56-6.54,29.111,29.111,0,0,0-.56-6.46,6.59,6.59,0,0,0-1.56-3.28,3.284,3.284,0,0,0-2.32-.94,3.261,3.261,0,0,0-2.26.94,6.7,6.7,0,0,0-1.62,3.28,27.233,27.233,0,0,0-.6,6.46,27.985,27.985,0,0,0,.6,6.54,7.185,7.185,0,0,0,1.62,3.38A3.164,3.164,0,0,0,18.3-4.04ZM41.9.56a8.379,8.379,0,0,1-5.26-1.74,11.174,11.174,0,0,1-3.52-5.2,25.283,25.283,0,0,1-1.26-8.58,24.444,24.444,0,0,1,1.26-8.46,10.781,10.781,0,0,1,3.52-5.06,8.577,8.577,0,0,1,5.26-1.68,8.485,8.485,0,0,1,5.28,1.7,10.987,10.987,0,0,1,3.5,5.06,24.27,24.27,0,0,1,1.26,8.44,25.283,25.283,0,0,1-1.26,8.58,11.247,11.247,0,0,1-3.5,5.2A8.355,8.355,0,0,1,41.9.56Zm0-4.6a3.183,3.183,0,0,0,2.32-1,7.068,7.068,0,0,0,1.56-3.38,29.917,29.917,0,0,0,.56-6.54,29.111,29.111,0,0,0-.56-6.46,6.59,6.59,0,0,0-1.56-3.28,3.284,3.284,0,0,0-2.32-.94,3.261,3.261,0,0,0-2.26.94,6.7,6.7,0,0,0-1.62,3.28,27.233,27.233,0,0,0-.6,6.46,27.985,27.985,0,0,0,.6,6.54,7.185,7.185,0,0,0,1.62,3.38A3.164,3.164,0,0,0,41.9-4.04ZM65.5.56a8.379,8.379,0,0,1-5.26-1.74,11.174,11.174,0,0,1-3.52-5.2,25.283,25.283,0,0,1-1.26-8.58,24.444,24.444,0,0,1,1.26-8.46,10.781,10.781,0,0,1,3.52-5.06,8.577,8.577,0,0,1,5.26-1.68,8.485,8.485,0,0,1,5.28,1.7,10.987,10.987,0,0,1,3.5,5.06,24.271,24.271,0,0,1,1.26,8.44,25.283,25.283,0,0,1-1.26,8.58,11.247,11.247,0,0,1-3.5,5.2A8.355,8.355,0,0,1,65.5.56Zm0-4.6a3.183,3.183,0,0,0,2.32-1,7.068,7.068,0,0,0,1.56-3.38,29.917,29.917,0,0,0,.56-6.54,29.111,29.111,0,0,0-.56-6.46,6.59,6.59,0,0,0-1.56-3.28,3.284,3.284,0,0,0-2.32-.94,3.261,3.261,0,0,0-2.26.94,6.7,6.7,0,0,0-1.62,3.28,27.233,27.233,0,0,0-.6,6.46,27.985,27.985,0,0,0,.6,6.54,7.185,7.185,0,0,0,1.62,3.38A3.164,3.164,0,0,0,65.5-4.04Zm15-27.4h31.36v4.76H85.3V3.56H80.5Zm29.08,0h4.84v29.4a7.722,7.722,0,0,1-.48,3.02,3.393,3.393,0,0,1-1.72,1.7,8.611,8.611,0,0,1-3.1.74q-1.86.14-4.54.14a12.261,12.261,0,0,0-.4-1.56q-.28-.88-.64-1.74a14.5,14.5,0,0,0-.72-1.5q1.16.08,2.34.1t2.1.02h1.28a1.317,1.317,0,0,0,.8-.26.967.967,0,0,0,.24-.74ZM83.1-16.56h28.84v4.72H83.1ZM94.78-28.84h4.8V-14.2h-4.8Z" transform="translate(926.53 9191)" fill="#fff"/>
      </g>
      <path id="線_287" data-name="線 287" d="M682.565.725H0A.725.725,0,0,1-.725,0,.725.725,0,0,1,0-.725H682.565A.725.725,0,0,1,683.29,0,.725.725,0,0,1,682.565.725Z" transform="translate(341.919 9125.764)" fill="#fff"/>
    </g>
    <path id="線_288" data-name="線 288" d="M235,4H0A4,4,0,0,1-4,0,4,4,0,0,1,0-4H235a4,4,0,0,1,4,4A4,4,0,0,1,235,4Z" transform="translate(413.5 9204.295)" fill="#fbd83b"/>
    <path id="線_289" data-name="線 289" d="M235,4H0A4,4,0,0,1-4,0,4,4,0,0,1,0-4H235a4,4,0,0,1,4,4A4,4,0,0,1,235,4Z" transform="translate(808.5 9204.295)" fill="#fbd83b"/>
  </g>
</svg>
