<svg xmlns="http://www.w3.org/2000/svg" width="175" height="125" viewBox="0 0 175 125">
  <g id="グループ_831" data-name="グループ 831" transform="translate(-194.936 -7891.676)">
    <g id="グループ_799" data-name="グループ 799" transform="translate(-4860.92 5879.151)">
      <path id="パス_14" data-name="パス 14" d="M5171.715,2113.215l-22.013,23.518a1.54,1.54,0,0,1-2.692,0L5125,2113.215c-.741-1.059-.288-1.924,1-1.924h10.365v-15.255h23.983v15.255h10.365C5172,2111.291,5172.454,2112.156,5171.715,2113.215Z" fill="#e61400"/>
      <rect id="長方形_19" data-name="長方形 19" width="23.982" height="5.997" transform="translate(5136.364 2086.334)" fill="#e61400"/>
      <rect id="長方形_20" data-name="長方形 20" width="23.982" height="3.656" transform="translate(5136.364 2078.978)" fill="#e61400"/>
    </g>
    <rect id="長方形_440" data-name="長方形 440" width="175" height="66" rx="5" transform="translate(194.936 7891.676)" fill="#fff"/>
    <path id="パス_806" data-name="パス 806" d="M.48-4.016H15.52V-2.24H.48Zm.656-8.72H14.88v1.776H1.136ZM3.648-6.944H12.48v1.632H3.648ZM11.776-9.9H13.7V-.64A2.759,2.759,0,0,1,13.5.5a1.311,1.311,0,0,1-.688.64,3.547,3.547,0,0,1-1.224.272q-.728.048-1.736.048a6.506,6.506,0,0,0-.28-.92,6.986,6.986,0,0,0-.392-.888q.448.016.9.024t.808.008h.488a.467.467,0,0,0,.312-.08.354.354,0,0,0,.088-.272ZM2.32-9.9H12.544v1.728H4.208V1.456H2.32Zm4.656-2.288H8.9v8.8H6.976Zm13.2,3.1h11.1v1.5h-11.1Zm.112,4.656h8.784v1.5H20.288Zm2.048-5.712h1.808v3.632h2.944v-3.632H28.96v5.072H22.336Zm6.256,5.712h.368L29.3-4.5l1.2.608a7.21,7.21,0,0,1-1.672,2.216A9.81,9.81,0,0,1,26.472-.128a15.021,15.021,0,0,1-2.856,1,30.447,30.447,0,0,1-3.216.6,5.725,5.725,0,0,0-.344-.84A5.153,5.153,0,0,0,19.6-.144,25.43,25.43,0,0,0,22.536-.56a14.725,14.725,0,0,0,2.6-.768A8.23,8.23,0,0,0,27.208-2.52a5.235,5.235,0,0,0,1.384-1.656ZM23.584-3.248A6.008,6.008,0,0,0,25.5-1.72,12.11,12.11,0,0,0,28.272-.7,22.562,22.562,0,0,0,31.7-.16a3.355,3.355,0,0,0-.424.488q-.216.3-.4.6t-.312.56A20.789,20.789,0,0,1,27.008.72a11.672,11.672,0,0,1-2.9-1.352,8.664,8.664,0,0,1-2.176-2.024Zm.08-10.352h2v2.416h-2Zm-4.8,1.456H31.376v1.712H18.864Zm-.928,0h1.84v4.5q0,.992-.064,2.16t-.24,2.4A16.716,16.716,0,0,1,18.952-.7a9.392,9.392,0,0,1-.888,2.088,4.29,4.29,0,0,0-.448-.376Q17.328.8,17.024.608A2.781,2.781,0,0,0,16.5.336a7.955,7.955,0,0,0,.784-1.872,15.263,15.263,0,0,0,.432-2.088q.144-1.064.184-2.1t.04-1.92ZM36.4,1.1Q35.92.5,35.328-.128t-1.2-1.224q-.608-.6-1.168-1.08l1.664-1.44q.576.464,1.232,1.1T37.112-1.5q.6.64,1,1.136ZM49.936,0V-11.856h3.248a7.038,7.038,0,0,1,3.128.64A4.533,4.533,0,0,1,58.328-9.28a6.8,6.8,0,0,1,.712,3.3,7.054,7.054,0,0,1-.7,3.328A4.617,4.617,0,0,1,56.352-.664,6.522,6.522,0,0,1,53.312,0ZM52.3-1.92h.72a4.232,4.232,0,0,0,1.928-.408,2.729,2.729,0,0,0,1.24-1.312,5.46,5.46,0,0,0,.432-2.344A5.242,5.242,0,0,0,56.192-8.3a2.667,2.667,0,0,0-1.24-1.264,4.378,4.378,0,0,0-1.928-.392H52.3Zm20.7-11.344h1.9V-.9a3.293,3.293,0,0,1-.2,1.3,1.388,1.388,0,0,1-.7.688,4.081,4.081,0,0,1-1.3.3q-.8.072-1.9.072a3.519,3.519,0,0,0-.144-.648q-.112-.36-.248-.72a4.534,4.534,0,0,0-.28-.616q.784.016,1.488.024t.944.008A.5.5,0,0,0,72.9-.584a.392.392,0,0,0,.1-.312Zm-12.1,4.64h7.6v1.776h-7.6Zm-.384,3.472h8.24v1.808h-8.24Zm.272-7.1,1.584-.5a10.921,10.921,0,0,1,.472,1.1q.216.584.384,1.136t.264,1l-1.664.56a7.507,7.507,0,0,0-.232-1.024q-.168-.576-.376-1.168T60.8-12.256Zm2.976-1.328h1.872V1.44H63.776Zm5.456,1.936h1.856v9.056H69.232ZM67.04-12.864l1.872.448q-.352.912-.76,1.832t-.76,1.576l-1.52-.432Q66.1-9.9,66.32-10.5t.416-1.216Q66.928-12.336,67.04-12.864Zm12.752,4.1H88.64v1.84H79.792Zm4.432,3.84h5.392V-3.12H84.224ZM83.216-7.7h2V.032l-2-.24ZM79.392-6.048l2,.208A17.283,17.283,0,0,1,80.3-1.52,7.909,7.909,0,0,1,78.16,1.536a6.111,6.111,0,0,0-.448-.432q-.288-.256-.6-.5T76.576.224A5.868,5.868,0,0,0,78.528-2.36,13.413,13.413,0,0,0,79.392-6.048Zm1.552,2.016a5.117,5.117,0,0,0,.968,1.768A3.931,3.931,0,0,0,83.3-1.24a6.544,6.544,0,0,0,1.736.472,14.894,14.894,0,0,0,2,.128h1.672q.536,0,1.1-.008l1.04-.016q.48-.008.8-.024a4.007,4.007,0,0,0-.28.584q-.136.344-.248.712a5.019,5.019,0,0,0-.16.672H86.944a15.826,15.826,0,0,1-2.56-.192,6.7,6.7,0,0,1-2.1-.7,5.247,5.247,0,0,1-1.664-1.448,8.428,8.428,0,0,1-1.24-2.464Zm2.24-9.536h2.048v2.912H83.184ZM77.36-11.952H91.1v4.016H89.136v-2.208H79.248v2.208H77.36Zm22.3-.576q-.064.3-.144.664t-.144.664q-.064.352-.16.792t-.184.88q-.088.44-.184.856-.16.688-.4,1.6t-.56,1.96q-.32,1.048-.72,2.1T96.32-.952a13.819,13.819,0,0,1-.96,1.8L93.28.016a12.484,12.484,0,0,0,1.048-1.688q.488-.936.888-1.92t.712-1.952q.312-.968.544-1.8t.36-1.424q.224-1.088.352-2.1a11.8,11.8,0,0,0,.1-1.9Zm5.5,1.616a11.267,11.267,0,0,1,.792,1.288q.408.76.808,1.608t.72,1.632q.32.784.5,1.36l-2.032.928a13.075,13.075,0,0,0-.424-1.488q-.28-.816-.648-1.656T104.1-8.832a7.527,7.527,0,0,0-.84-1.264Zm-12,1.664q.432.032.856.024t.856-.024q.4-.016.96-.056l1.192-.088q.632-.048,1.272-.1t1.184-.088q.544-.032.9-.032a3.729,3.729,0,0,1,1.5.28,2.134,2.134,0,0,1,1.016.952,3.746,3.746,0,0,1,.376,1.824q0,.944-.08,2.048a17.26,17.26,0,0,1-.28,2.112,6.8,6.8,0,0,1-.552,1.712A2.26,2.26,0,0,1,101.32.464a3.6,3.6,0,0,1-1.576.32,7.259,7.259,0,0,1-.976-.072Q98.24.64,97.824.56l-.336-2.112q.3.08.68.16t.72.128a4.2,4.2,0,0,0,.552.048,1.555,1.555,0,0,0,.7-.152,1.138,1.138,0,0,0,.5-.536,5.017,5.017,0,0,0,.368-1.2,14.746,14.746,0,0,0,.216-1.592q.072-.856.072-1.64a1.876,1.876,0,0,0-.184-.944.9.9,0,0,0-.528-.408,2.935,2.935,0,0,0-.84-.1q-.368,0-.992.056t-1.336.128q-.712.072-1.32.152t-.944.112q-.352.064-.888.136t-.9.136Zm11.712-3.888q.208.288.44.688t.456.8q.224.4.384.7l-1.3.56q-.16-.336-.368-.736t-.432-.8a5.5,5.5,0,0,0-.448-.688Zm1.9-.72q.208.3.448.7t.472.8q.232.4.36.672l-1.264.544q-.256-.5-.608-1.128a9.576,9.576,0,0,0-.688-1.08ZM1.1,11.024q.48-.016.912-.04t.656-.04q.5-.032,1.224-.1t1.632-.152q.9-.08,1.928-.16t2.128-.176q.832-.08,1.656-.136t1.568-.1q.744-.04,1.3-.056l.016,2.048q-.432,0-.992.016t-1.112.056a5.535,5.535,0,0,0-.984.152,4.017,4.017,0,0,0-1.344.648,5.021,5.021,0,0,0-1.08,1.072A5.15,5.15,0,0,0,7.9,15.384a4.206,4.206,0,0,0-.256,1.432,3.239,3.239,0,0,0,.28,1.384A3.046,3.046,0,0,0,8.7,19.224a4.306,4.306,0,0,0,1.144.7,6.84,6.84,0,0,0,1.416.424,12.358,12.358,0,0,0,1.576.192l-.752,2.192a9.958,9.958,0,0,1-1.96-.32,8.287,8.287,0,0,1-1.784-.7,5.724,5.724,0,0,1-1.448-1.1,5,5,0,0,1-.976-1.488,4.727,4.727,0,0,1-.36-1.88,5.92,5.92,0,0,1,.368-2.12,6.768,6.768,0,0,1,.92-1.7,5.546,5.546,0,0,1,1.1-1.128q-.448.064-1.08.128t-1.36.152q-.728.088-1.48.184t-1.448.216q-.7.12-1.256.232ZM11.84,13.68q.208.288.44.68t.456.784q.224.392.384.712L11.9,16.4q-.3-.672-.584-1.184a9.633,9.633,0,0,0-.664-1.04Zm1.792-.736q.208.288.456.664t.488.768q.24.392.4.7l-1.2.576q-.32-.64-.616-1.136a11.263,11.263,0,0,0-.7-1.024ZM23.744,9.232q-.1.32-.192.784t-.144.72q-.112.544-.28,1.328t-.368,1.664q-.2.88-.408,1.68-.208.848-.512,1.832t-.648,2q-.344,1.016-.7,1.936t-.688,1.64l-2.224-.752q.352-.608.752-1.48t.776-1.88q.376-1.008.7-2t.544-1.84q.16-.56.3-1.152t.256-1.152q.112-.56.2-1.048t.136-.856q.048-.448.064-.9a4.93,4.93,0,0,0-.016-.72Zm-4.08,2.384q.976,0,2.032-.1t2.128-.272q1.072-.176,2.128-.416v2q-.992.224-2.112.384t-2.208.248q-1.088.088-2,.088-.576,0-1.04-.024t-.9-.04l-.048-2q.624.064,1.072.1T19.664,11.616Zm5.024,2.448q.672-.064,1.488-.112T27.76,13.9q.688,0,1.4.032t1.416.112l-.048,1.92q-.592-.08-1.3-.136t-1.448-.056q-.816,0-1.576.04t-1.512.136Zm.864,4.032a6.977,6.977,0,0,0-.16.7,3.668,3.668,0,0,0-.064.632,1.026,1.026,0,0,0,.464.872,1.891,1.891,0,0,0,.664.264,4.93,4.93,0,0,0,1.064.1,15.434,15.434,0,0,0,1.64-.088q.824-.088,1.688-.248l-.08,2.048q-.672.08-1.488.152t-1.776.072a5.859,5.859,0,0,1-3.08-.664,2.1,2.1,0,0,1-1.064-1.88,6.526,6.526,0,0,1,.1-1.1q.1-.56.192-1.04Zm12.16-3.232H47.856V16.48H37.712Zm1.744,2.368h6.576v1.52H39.456Zm.608-1.776,1.648.416A9.575,9.575,0,0,1,40.1,18.408a10.808,10.808,0,0,1-2.152,1.912q-.144-.16-.376-.392t-.48-.44a5.145,5.145,0,0,0-.44-.336,7.946,7.946,0,0,0,2.024-1.576A7.09,7.09,0,0,0,40.064,15.456Zm5.68,1.776H47.52l-.008.248a2.943,2.943,0,0,1-.04.424q-.1,1.552-.232,2.552a11.4,11.4,0,0,1-.3,1.552,1.984,1.984,0,0,1-.384.792,1.3,1.3,0,0,1-.488.384,2.4,2.4,0,0,1-.584.16q-.272.032-.7.048a9.048,9.048,0,0,1-.92-.016,3.963,3.963,0,0,0-.128-.776,2.356,2.356,0,0,0-.3-.728q.384.032.688.04t.464.008a.914.914,0,0,0,.264-.032.442.442,0,0,0,.2-.144,1.576,1.576,0,0,0,.264-.616,10.443,10.443,0,0,0,.224-1.336q.1-.88.2-2.288ZM40.832,12.16v.768H44.96V12.16Zm0-2.016V10.9H44.96v-.752ZM39.12,8.816h7.616v5.44H39.12Zm-6.08,2.96h4.88v1.808H33.04Zm1.616-3.168h1.792V18.56H34.656ZM32.672,18.88q.624-.224,1.448-.56t1.752-.728q.928-.392,1.84-.792l.416,1.648q-1.2.624-2.448,1.248t-2.288,1.136ZM43.9,17.552l1.3.7a10.946,10.946,0,0,1-.816,1.96A13.5,13.5,0,0,1,43.2,22.08,7.638,7.638,0,0,1,41.824,23.5a4.844,4.844,0,0,0-.624-.576,4.794,4.794,0,0,0-.752-.5,6.506,6.506,0,0,0,1.456-1.28A10.228,10.228,0,0,0,43.1,19.424,10.077,10.077,0,0,0,43.9,17.552Zm-2.416.016,1.248.736a9.72,9.72,0,0,1-1.048,1.68,13.774,13.774,0,0,1-1.416,1.584,9.57,9.57,0,0,1-1.536,1.216,5.244,5.244,0,0,0-.568-.608,4.437,4.437,0,0,0-.68-.528,8.213,8.213,0,0,0,1.56-1.056,10.688,10.688,0,0,0,1.416-1.448A8.412,8.412,0,0,0,41.488,17.568Zm11.008-4h8.016v1.7H52.5Zm-.208,7.6H60.56v1.7H52.288Zm-.848-4.3H61.648v6.592H59.664V18.544H53.328v4.912H51.44Zm4.992-6.56a13.413,13.413,0,0,1-1.656,1.92A20.583,20.583,0,0,1,52.552,14.1a23.125,23.125,0,0,1-2.536,1.616q-.128-.224-.328-.512t-.432-.568a3.884,3.884,0,0,0-.456-.472,16.7,16.7,0,0,0,2.664-1.648,18.014,18.014,0,0,0,2.28-2.032,12.55,12.55,0,0,0,1.6-2.048h2a14.693,14.693,0,0,0,1.44,1.744,18.531,18.531,0,0,0,1.688,1.552,14.666,14.666,0,0,0,1.848,1.28,15.009,15.009,0,0,0,1.9.944,7.037,7.037,0,0,0-.672.824q-.32.456-.576.9A19.356,19.356,0,0,1,61.1,14.568q-.944-.632-1.816-1.344a20.466,20.466,0,0,1-1.608-1.456A11.944,11.944,0,0,1,56.432,10.3Z" transform="translate(236.936 7920.676)" fill="#333"/>
    <rect id="長方形_445" data-name="長方形 445" width="47.5" height="2" transform="translate(283.436 7923.662)" fill="#e61400"/>
    <g id="グループ_804" data-name="グループ 804" transform="translate(-4801.905 6667.496)">
      <circle id="楕円形_3" data-name="楕円形 3" cx="11.938" cy="11.938" r="11.938" transform="translate(5002.841 1230.18)" fill="#82c195"/>
      <g id="グループ_30" data-name="グループ 30" transform="translate(5009.841 1234.18)">
        <path id="パス_808" data-name="パス 808" d="M-5.156,0l.948-2.964h.7L-2.56,0h-.624L-3.6-1.544q-.068-.232-.13-.482t-.13-.486H-3.88q-.056.24-.122.488t-.13.48L-4.556,0Zm.588-.76v-.46H-3.16v.46Zm2.5.76V-2.42a1.086,1.086,0,0,1,.078-.42.638.638,0,0,1,.248-.3.818.818,0,0,1,.45-.11,1.129,1.129,0,0,1,.244.024,1.449,1.449,0,0,1,.184.052l-.108.44a.563.563,0,0,0-.24-.052.249.249,0,0,0-.2.084.408.408,0,0,0-.072.268V0Zm-.3-1.776v-.436l.336-.028h.98v.464ZM.3.056A.777.777,0,0,1-.128-.05.593.593,0,0,1-.364-.344,1.215,1.215,0,0,1-.436-.78v-1H-.752v-.436L-.4-2.24l.068-.6H.148v.6H.7v.464H.148v.992A.425.425,0,0,0,.228-.5a.286.286,0,0,0,.228.092A.45.45,0,0,0,.572-.424q.06-.016.1-.032l.1.428Q.684,0,.566.028A1.155,1.155,0,0,1,.3.056Zm1.9,0a1.141,1.141,0,0,1-.564-.14,1.036,1.036,0,0,1-.4-.4,1.259,1.259,0,0,1-.15-.632,1.31,1.31,0,0,1,.086-.488,1.114,1.114,0,0,1,.236-.37,1.069,1.069,0,0,1,.336-.236A.947.947,0,0,1,2.128-2.3a.913.913,0,0,1,.516.138.857.857,0,0,1,.314.38,1.369,1.369,0,0,1,.106.554,1.433,1.433,0,0,1-.008.154.789.789,0,0,1-.02.118H1.656a.7.7,0,0,0,.108.3.529.529,0,0,0,.216.186.7.7,0,0,0,.3.062.843.843,0,0,0,.256-.038A1.11,1.11,0,0,0,2.78-.552l.2.36a1.476,1.476,0,0,1-.368.18A1.3,1.3,0,0,1,2.2.056Zm-.556-1.4H2.56a.576.576,0,0,0-.1-.358.379.379,0,0,0-.322-.134.471.471,0,0,0-.22.054.468.468,0,0,0-.176.164A.673.673,0,0,0,1.644-1.348ZM3.708,0V-2.24h.48l.044.4h.012a.987.987,0,0,1,.292-.336A.6.6,0,0,1,4.88-2.3a.68.68,0,0,1,.154.014.707.707,0,0,1,.106.034l-.1.508L4.93-1.766a.659.659,0,0,0-.126-.01.474.474,0,0,0-.27.1.737.737,0,0,0-.238.34V0Z" transform="translate(5 5)" fill="#fff"/>
        <path id="パス_807" data-name="パス 807" d="M-2.745.126A1.9,1.9,0,0,1-3.937-.266a2.489,2.489,0,0,1-.787-1.148A5.386,5.386,0,0,1-5-3.267a5.3,5.3,0,0,1,.279-1.849,2.4,2.4,0,0,1,.787-1.121,1.944,1.944,0,0,1,1.192-.378,1.944,1.944,0,0,1,1.193.378A2.4,2.4,0,0,1-.765-5.116,5.3,5.3,0,0,1-.486-3.267,5.386,5.386,0,0,1-.765-1.413,2.489,2.489,0,0,1-1.553-.266,1.9,1.9,0,0,1-2.745.126Zm0-1.035a.739.739,0,0,0,.522-.211,1.473,1.473,0,0,0,.351-.729,6.267,6.267,0,0,0,.126-1.417A6.133,6.133,0,0,0-1.872-4.68a1.367,1.367,0,0,0-.351-.7.766.766,0,0,0-.522-.2.76.76,0,0,0-.508.2,1.391,1.391,0,0,0-.365.7,5.739,5.739,0,0,0-.135,1.413A5.863,5.863,0,0,0-3.618-1.85a1.5,1.5,0,0,0,.365.729A.734.734,0,0,0-2.745-.909ZM.477,0V-.765q.864-.828,1.512-1.5A8.453,8.453,0,0,0,3-3.487a1.919,1.919,0,0,0,.36-1.03,1.257,1.257,0,0,0-.117-.567.834.834,0,0,0-.337-.36,1.083,1.083,0,0,0-.544-.126,1.144,1.144,0,0,0-.662.207,3.345,3.345,0,0,0-.553.477L.4-5.607a3.7,3.7,0,0,1,.958-.751,2.484,2.484,0,0,1,1.165-.257,2.309,2.309,0,0,1,1.1.252,1.809,1.809,0,0,1,.734.707A2.1,2.1,0,0,1,4.626-4.59a2.429,2.429,0,0,1-.311,1.143A6.683,6.683,0,0,1,3.5-2.264q-.508.6-1.112,1.229.252-.036.558-.059t.54-.022H4.941V0Z" transform="translate(5.476 13.461)" fill="#fff"/>
      </g>
    </g>
  </g>
</svg>
