<svg xmlns="http://www.w3.org/2000/svg" width="82.881" height="89.666" viewBox="0 0 82.881 89.666">
  <g id="グループ_833" data-name="グループ 833" transform="translate(-4960.979 -2508.234)">
    <g id="グループ_125" data-name="グループ 125" transform="translate(-0.471 -0.156)">
      <circle id="楕円形_27" data-name="楕円形 27" cx="41.441" cy="41.441" r="41.441" transform="translate(4961.451 2508.39)" fill="#82c195"/>
      <path id="パス_180" data-name="パス 180" d="M5034.46,2584.426l-8.4-2.693,6.857-6.857,2.693,8.4A.915.915,0,0,1,5034.46,2584.426Z" transform="translate(3269.642 -2790.187) rotate(45)" fill="#82c195"/>
    </g>
    <path id="パス_812" data-name="パス 812" d="M-16.814-12.022q-.1-.288-.237-.711t-.3-.847l2.286-.271q.135.66.3,1.312t.373,1.27q.2.618.406,1.16a17.119,17.119,0,0,0,.923,2.057,15.043,15.043,0,0,0,.94,1.583q.22.322.449.6t.466.533l-1.05,1.524q-.356-.068-.9-.144T-14.333-4.1l-1.27-.135q-.635-.068-1.16-.1l.169-1.795q.423.034.9.076t.889.076q.415.034.686.051-.3-.491-.643-1.118t-.66-1.312q-.322-.686-.593-1.38-.271-.711-.466-1.287T-16.814-12.022Zm-6.163.8q1.575.186,2.963.254t2.591.034q1.2-.034,2.2-.152.779-.1,1.515-.22t1.456-.288q.72-.169,1.363-.373l.271,2.133q-.559.152-1.211.288t-1.346.246q-.694.11-1.372.195-1.71.186-3.759.22t-4.639-.169Zm3.386,5.774a6.225,6.225,0,0,0-.61,1.16,3.1,3.1,0,0,0-.22,1.126,1.624,1.624,0,0,0,.931,1.549,5.9,5.9,0,0,0,2.658.483,24.184,24.184,0,0,0,2.514-.119q1.126-.119,2.023-.288L-12.411.593q-.711.135-1.854.271a23.312,23.312,0,0,1-2.7.135A9.568,9.568,0,0,1-19.946.55,4.19,4.19,0,0,1-21.91-.737,3.16,3.16,0,0,1-22.6-2.794a5.251,5.251,0,0,1,.229-1.532,9.965,9.965,0,0,1,.669-1.617Zm16.78-8.178q.61.186,1.524.389t1.913.4q1,.195,1.888.33t1.448.2l-.508,2.066q-.508-.068-1.228-.195T.7-10.718q-.8-.152-1.583-.313T-2.3-11.345q-.643-.152-1.05-.254Zm.1,3.4q-.085.339-.178.872t-.178,1.109q-.085.576-.161,1.1t-.127.88A8.309,8.309,0,0,1-.94-7.484a8.7,8.7,0,0,1,2.582-.389,5.482,5.482,0,0,1,2.54.542,3.986,3.986,0,0,1,1.6,1.422A3.542,3.542,0,0,1,6.333-4a4.7,4.7,0,0,1-.491,2.133A4.215,4.215,0,0,1,4.233-.186,7.9,7.9,0,0,1,1.3.8,18.957,18.957,0,0,1-3.149.864l-.643-2.218a16,16,0,0,0,4.267.093A5.21,5.21,0,0,0,3.09-2.244a2.259,2.259,0,0,0,.889-1.8,1.614,1.614,0,0,0-.322-.991,2.13,2.13,0,0,0-.9-.677,3.3,3.3,0,0,0-1.3-.246,6.888,6.888,0,0,0-2.667.516,5.149,5.149,0,0,0-2.04,1.482,5.2,5.2,0,0,0-.364.5,4.384,4.384,0,0,0-.262.483l-1.947-.491q.1-.491.2-1.16t.2-1.439q.1-.77.186-1.549T-5.08-9.16q.068-.762.1-1.388Zm18.761-1.609q.779.1,1.752.144t1.981.034q1.007-.008,1.939-.068t1.609-.127v2.184q-.779.068-1.71.11t-1.913.042q-.982,0-1.922-.042t-1.736-.11Zm1.355,7.23q-.1.423-.152.753a4.392,4.392,0,0,0-.051.669.962.962,0,0,0,.135.5,1.11,1.11,0,0,0,.415.389,2.205,2.205,0,0,0,.728.237,6.653,6.653,0,0,0,1.092.076,19.518,19.518,0,0,0,2.133-.11q1-.11,2.117-.33l.034,2.286A18.08,18.08,0,0,1,21.986.1q-1.058.085-2.5.085A5.77,5.77,0,0,1,16.238-.55a2.345,2.345,0,0,1-1.067-2.04,7.248,7.248,0,0,1,.076-1.024q.076-.533.212-1.177ZM13.444-12.97a4.809,4.809,0,0,0-.152.474q-.085.3-.161.593t-.11.44q-.051.356-.161.923t-.22,1.27q-.11.7-.212,1.431t-.161,1.405q-.059.677-.059,1.185,0,.237.008.542a3.327,3.327,0,0,0,.059.559q.119-.288.254-.576t.271-.584q.135-.3.237-.567l1.05.83q-.237.694-.483,1.49t-.44,1.5q-.195.7-.3,1.16-.034.186-.059.423a3.713,3.713,0,0,0-.025.373q0,.135.008.33t.025.364L10.854.728A17.434,17.434,0,0,1,10.4-1.617a23.3,23.3,0,0,1-.2-3.192q0-.948.085-1.93t.2-1.888q.119-.906.229-1.651t.195-1.236q.034-.356.093-.8t.076-.855Z" transform="translate(5002.979 2557.234)" fill="#fff"/>
  </g>
</svg>
