<svg xmlns="http://www.w3.org/2000/svg" width="350" height="124.547" viewBox="0 0 350 124.547">
  <g id="グループ_829" data-name="グループ 829" transform="translate(-19.936 -7586.676)">
    <g id="グループ_786" data-name="グループ 786" transform="translate(3.064)">
      <rect id="長方形_435" data-name="長方形 435" width="175" height="66" rx="5" transform="translate(191.872 7586.676)" fill="#e61400"/>
      <path id="パス_799" data-name="パス 799" d="M1.456,0V-11.856H4.7a7.038,7.038,0,0,1,3.128.64A4.533,4.533,0,0,1,9.848-9.28a6.8,6.8,0,0,1,.712,3.3,7.054,7.054,0,0,1-.7,3.328A4.617,4.617,0,0,1,7.872-.664,6.522,6.522,0,0,1,4.832,0ZM3.824-1.92h.72a4.232,4.232,0,0,0,1.928-.408A2.729,2.729,0,0,0,7.712-3.64a5.46,5.46,0,0,0,.432-2.344A5.242,5.242,0,0,0,7.712-8.3,2.667,2.667,0,0,0,6.472-9.56a4.378,4.378,0,0,0-1.928-.392h-.72ZM25.008-13.264h1.9V-.9a3.293,3.293,0,0,1-.2,1.3,1.388,1.388,0,0,1-.7.688,4.081,4.081,0,0,1-1.3.3q-.8.072-1.9.072a3.519,3.519,0,0,0-.144-.648q-.112-.36-.248-.72a4.535,4.535,0,0,0-.28-.616q.784.016,1.488.024t.944.008A.5.5,0,0,0,24.9-.584a.392.392,0,0,0,.1-.312Zm-12.1,4.64h7.6v1.776h-7.6Zm-.384,3.472h8.24v1.808h-8.24Zm.272-7.1,1.584-.5a10.921,10.921,0,0,1,.472,1.1q.216.584.384,1.136t.264,1l-1.664.56a7.507,7.507,0,0,0-.232-1.024q-.168-.576-.376-1.168T12.8-12.256Zm2.976-1.328h1.872V1.44H15.776Zm5.456,1.936h1.856v9.056H21.232ZM19.04-12.864l1.872.448q-.352.912-.76,1.832t-.76,1.576l-1.52-.432Q18.1-9.9,18.32-10.5t.416-1.216Q18.928-12.336,19.04-12.864Zm13.232,4.1H41.12v1.84H32.272ZM36.7-4.928H42.1V-3.12H36.7ZM35.7-7.7h2V.032l-2-.24ZM31.872-6.048l2,.208a17.283,17.283,0,0,1-1.088,4.32A7.909,7.909,0,0,1,30.64,1.536a6.112,6.112,0,0,0-.448-.432q-.288-.256-.6-.5T29.056.224A5.868,5.868,0,0,0,31.008-2.36,13.413,13.413,0,0,0,31.872-6.048Zm1.552,2.016a5.117,5.117,0,0,0,.968,1.768A3.931,3.931,0,0,0,35.784-1.24a6.544,6.544,0,0,0,1.736.472,14.894,14.894,0,0,0,2,.128h1.672q.536,0,1.1-.008l1.04-.016q.48-.008.8-.024a4.007,4.007,0,0,0-.28.584Q43.712.24,43.6.608a5.02,5.02,0,0,0-.16.672H39.424a15.826,15.826,0,0,1-2.56-.192,6.7,6.7,0,0,1-2.1-.7A5.247,5.247,0,0,1,33.1-1.056a8.428,8.428,0,0,1-1.24-2.464Zm2.24-9.536h2.048v2.912H35.664ZM29.84-11.952H43.584v4.016H41.616v-2.208H31.728v2.208H29.84Zm22.784-.576q-.064.3-.144.664t-.144.664q-.064.352-.16.792t-.184.88q-.088.44-.184.856-.16.688-.4,1.6t-.56,1.96q-.32,1.048-.72,2.1T49.28-.952a13.819,13.819,0,0,1-.96,1.8L46.24.016a12.484,12.484,0,0,0,1.048-1.688q.488-.936.888-1.92t.712-1.952q.312-.968.544-1.8t.36-1.424q.224-1.088.352-2.1a11.8,11.8,0,0,0,.1-1.9Zm5.5,1.616a11.267,11.267,0,0,1,.792,1.288q.408.76.808,1.608t.72,1.632q.32.784.5,1.36L58.912-4.1a13.075,13.075,0,0,0-.424-1.488q-.28-.816-.648-1.656t-.776-1.592a7.527,7.527,0,0,0-.84-1.264Zm-12,1.664q.432.032.856.024t.856-.024q.4-.016.96-.056l1.192-.088q.632-.048,1.272-.1t1.184-.088q.544-.032.9-.032a3.729,3.729,0,0,1,1.5.28,2.134,2.134,0,0,1,1.016.952A3.746,3.746,0,0,1,56.24-6.56q0,.944-.08,2.048A17.258,17.258,0,0,1,55.88-2.4a6.8,6.8,0,0,1-.552,1.712A2.26,2.26,0,0,1,54.28.464,3.6,3.6,0,0,1,52.7.784a7.259,7.259,0,0,1-.976-.072Q51.2.64,50.784.56l-.336-2.112q.3.08.68.16t.72.128a4.2,4.2,0,0,0,.552.048,1.555,1.555,0,0,0,.7-.152,1.138,1.138,0,0,0,.5-.536,5.017,5.017,0,0,0,.368-1.2A14.747,14.747,0,0,0,54.184-4.7q.072-.856.072-1.64a1.876,1.876,0,0,0-.184-.944.9.9,0,0,0-.528-.408,2.935,2.935,0,0,0-.84-.1q-.368,0-.992.056t-1.336.128q-.712.072-1.32.152t-.944.112q-.352.064-.888.136t-.9.136ZM57.84-13.136q.208.288.44.688t.456.8q.224.4.384.7l-1.3.56q-.16-.336-.368-.736t-.432-.8a5.5,5.5,0,0,0-.448-.688Zm1.9-.72q.208.3.448.7t.472.8q.232.4.36.672l-1.264.544q-.256-.5-.608-1.128a9.575,9.575,0,0,0-.688-1.08Zm4.8,12.48H75.472V.5H64.544ZM68.9-13.424H70.88v13.2H68.9ZM63.6-5.376h1.952V1.44H63.6Zm10.848,0h2v6.8h-2Zm-10.224-6.7h1.92v3.968h7.648V-12.1h2.016V-6.24H64.224Zm21.984-.688q-.1.32-.192.784t-.144.72q-.112.544-.28,1.328t-.368,1.664q-.2.88-.408,1.68-.208.848-.512,1.832t-.648,2q-.344,1.016-.7,1.936T82.272.816L80.048.064q.352-.608.752-1.48t.776-1.88q.376-1.008.7-2t.544-1.84q.16-.56.3-1.152t.256-1.152q.112-.56.2-1.048t.136-.856q.048-.448.064-.9a4.93,4.93,0,0,0-.016-.72Zm-4.08,2.384q.976,0,2.032-.1t2.128-.272q1.072-.176,2.128-.416v2q-.992.224-2.112.384T84.1-8.536q-1.088.088-2,.088-.576,0-1.04-.024t-.9-.04l-.048-2q.624.064,1.072.1T82.128-10.384Zm5.024,2.448Q87.824-8,88.64-8.048T90.224-8.1q.688,0,1.4.032t1.416.112l-.048,1.92q-.592-.08-1.3-.136T90.24-6.224q-.816,0-1.576.04t-1.512.136ZM88.016-3.9a6.976,6.976,0,0,0-.16.7,3.668,3.668,0,0,0-.064.632,1.059,1.059,0,0,0,.112.48,1.061,1.061,0,0,0,.352.392,1.891,1.891,0,0,0,.664.264,4.93,4.93,0,0,0,1.064.1,15.434,15.434,0,0,0,1.64-.088q.824-.088,1.688-.248L93.232.368q-.672.08-1.488.152T89.968.592a5.859,5.859,0,0,1-3.08-.664,2.1,2.1,0,0,1-1.064-1.88,6.525,6.525,0,0,1,.1-1.1q.1-.56.192-1.04Zm12.64-3.232H110.8V-5.52H100.656ZM102.4-4.768h6.576v1.52H102.4Zm.608-1.776,1.648.416a9.575,9.575,0,0,1-1.608,2.536A10.808,10.808,0,0,1,100.9-1.68q-.144-.16-.376-.392t-.48-.44a5.146,5.146,0,0,0-.44-.336,7.946,7.946,0,0,0,2.024-1.576A7.089,7.089,0,0,0,103.008-6.544Zm5.68,1.776h1.776l-.008.248a2.943,2.943,0,0,1-.04.424q-.1,1.552-.232,2.552a11.4,11.4,0,0,1-.3,1.552A1.984,1.984,0,0,1,109.5.8a1.3,1.3,0,0,1-.488.384,2.4,2.4,0,0,1-.584.16q-.272.032-.7.048a9.049,9.049,0,0,1-.92-.016A3.963,3.963,0,0,0,106.688.6a2.356,2.356,0,0,0-.3-.728q.384.032.688.04t.464.008a.915.915,0,0,0,.264-.032.442.442,0,0,0,.2-.144,1.576,1.576,0,0,0,.264-.616,10.441,10.441,0,0,0,.224-1.336q.1-.88.2-2.288ZM103.776-9.84v.768H107.9V-9.84Zm0-2.016v.752H107.9v-.752Zm-1.712-1.328h7.616v5.44h-7.616Zm-6.08,2.96h4.88v1.808h-4.88ZM97.6-13.392h1.792V-3.44H97.6ZM95.616-3.12q.624-.224,1.448-.56t1.752-.728q.928-.392,1.84-.792l.416,1.648q-1.2.624-2.448,1.248T96.336-1.168Zm11.232-1.328,1.3.7a10.946,10.946,0,0,1-.816,1.96A13.493,13.493,0,0,1,106.144.08,7.638,7.638,0,0,1,104.768,1.5a4.844,4.844,0,0,0-.624-.576,4.793,4.793,0,0,0-.752-.5,6.506,6.506,0,0,0,1.456-1.28,10.229,10.229,0,0,0,1.192-1.728A10.077,10.077,0,0,0,106.848-4.448Zm-2.416.016,1.248.736a9.72,9.72,0,0,1-1.048,1.68,13.774,13.774,0,0,1-1.416,1.584A9.57,9.57,0,0,1,101.68.784a5.244,5.244,0,0,0-.568-.608,4.437,4.437,0,0,0-.68-.528,8.213,8.213,0,0,0,1.56-1.056,10.688,10.688,0,0,0,1.416-1.448A8.411,8.411,0,0,0,104.432-4.432Zm11.488-4h8.016v1.7H115.92Zm-.208,7.6h8.272v1.7h-8.272Zm-.848-4.3h10.208V1.456h-1.984V-3.456h-6.336V1.456h-1.888Zm4.992-6.56a13.414,13.414,0,0,1-1.656,1.92A20.582,20.582,0,0,1,115.976-7.9a23.126,23.126,0,0,1-2.536,1.616q-.128-.224-.328-.512t-.432-.568a3.885,3.885,0,0,0-.456-.472,16.7,16.7,0,0,0,2.664-1.648,18.014,18.014,0,0,0,2.28-2.032,12.55,12.55,0,0,0,1.6-2.048h2a14.693,14.693,0,0,0,1.44,1.744,18.53,18.53,0,0,0,1.688,1.552,14.666,14.666,0,0,0,1.848,1.28,15.009,15.009,0,0,0,1.9.944,7.035,7.035,0,0,0-.672.824q-.32.456-.576.9a19.356,19.356,0,0,1-1.872-1.112q-.944-.632-1.816-1.344a20.466,20.466,0,0,1-1.608-1.456A11.943,11.943,0,0,1,119.856-11.7Z" transform="translate(215.872 7626.676)" fill="#fff"/>
    </g>
    <g id="グループ_787" data-name="グループ 787" transform="translate(-181.936)">
      <rect id="長方形_435-2" data-name="長方形 435" width="165" height="66" rx="5" transform="translate(201.872 7586.676)" fill="#fff"/>
      <path id="パス_800" data-name="パス 800" d="M-.064,0,3.728-11.856h2.8L10.32,0h-2.5L6.144-6.176Q5.872-7.1,5.624-8.1T5.1-10.048H5.04q-.224.96-.488,1.952t-.52,1.92L2.336,0ZM2.288-3.04V-4.88H7.92v1.84ZM12.352,0V-11.856h3.92a8.077,8.077,0,0,1,2.184.272,3.124,3.124,0,0,1,1.536.912,2.533,2.533,0,0,1,.568,1.744,2.941,2.941,0,0,1-.2,1.064,3.02,3.02,0,0,1-.552.92,2.126,2.126,0,0,1-.864.592v.064a2.98,2.98,0,0,1,1.584.92,2.712,2.712,0,0,1,.624,1.88,3.11,3.11,0,0,1-.6,1.96A3.533,3.533,0,0,1,18.92-.376,6.818,6.818,0,0,1,16.576,0ZM14.72-7.024h1.392a2.546,2.546,0,0,0,1.632-.424,1.391,1.391,0,0,0,.512-1.128,1.225,1.225,0,0,0-.528-1.12,3.029,3.029,0,0,0-1.6-.336H14.72Zm0,5.2h1.648a3.227,3.227,0,0,0,1.848-.44,1.552,1.552,0,0,0,.632-1.368,1.367,1.367,0,0,0-.632-1.256,3.542,3.542,0,0,0-1.848-.392H14.72ZM28.7.224a5.571,5.571,0,0,1-2.1-.392,4.832,4.832,0,0,1-1.72-1.176,5.586,5.586,0,0,1-1.168-1.92A7.43,7.43,0,0,1,23.3-5.872a7.372,7.372,0,0,1,.432-2.616,5.713,5.713,0,0,1,1.192-1.944,5.115,5.115,0,0,1,1.76-1.216,5.464,5.464,0,0,1,2.12-.416,4.368,4.368,0,0,1,2.024.456,5.125,5.125,0,0,1,1.448,1.064L31.04-9.04a3.855,3.855,0,0,0-.984-.72,2.631,2.631,0,0,0-1.208-.272,2.778,2.778,0,0,0-1.608.488,3.205,3.205,0,0,0-1.112,1.4,5.437,5.437,0,0,0-.4,2.192A5.853,5.853,0,0,0,26.1-3.736,3.145,3.145,0,0,0,27.176-2.32a2.726,2.726,0,0,0,1.624.5,2.805,2.805,0,0,0,1.368-.328,4.046,4.046,0,0,0,1.064-.84L32.5-1.52a4.945,4.945,0,0,1-1.68,1.3A4.94,4.94,0,0,1,28.7.224ZM46.512-13.264h1.9V-.9a3.293,3.293,0,0,1-.2,1.3,1.388,1.388,0,0,1-.7.688,4.081,4.081,0,0,1-1.3.3q-.8.072-1.9.072a3.519,3.519,0,0,0-.144-.648q-.112-.36-.248-.72a4.536,4.536,0,0,0-.28-.616q.784.016,1.488.024T46.08-.5a.5.5,0,0,0,.328-.088.392.392,0,0,0,.1-.312Zm-12.1,4.64h7.6v1.776h-7.6Zm-.384,3.472h8.24v1.808h-8.24Zm.272-7.1,1.584-.5a10.921,10.921,0,0,1,.472,1.1q.216.584.384,1.136t.264,1l-1.664.56a7.507,7.507,0,0,0-.232-1.024q-.168-.576-.376-1.168T34.3-12.256Zm2.976-1.328h1.872V1.44H37.28Zm5.456,1.936h1.856v9.056H42.736Zm-2.192-1.216,1.872.448q-.352.912-.76,1.832T40.9-9.008l-1.52-.432q.224-.464.448-1.064t.416-1.216Q40.432-12.336,40.544-12.864Zm13.232,4.1h8.848v1.84H53.776Zm4.432,3.84H63.6V-3.12H58.208ZM57.2-7.7h2V.032l-2-.24ZM53.376-6.048l2,.208a17.283,17.283,0,0,1-1.088,4.32,7.909,7.909,0,0,1-2.144,3.056A6.112,6.112,0,0,0,51.7,1.1q-.288-.256-.6-.5T50.56.224A5.868,5.868,0,0,0,52.512-2.36,13.413,13.413,0,0,0,53.376-6.048Zm1.552,2.016A5.117,5.117,0,0,0,55.9-2.264,3.931,3.931,0,0,0,57.288-1.24a6.544,6.544,0,0,0,1.736.472,14.894,14.894,0,0,0,2,.128H62.7q.536,0,1.1-.008l1.04-.016q.48-.008.8-.024a4.007,4.007,0,0,0-.28.584Q65.216.24,65.1.608a5.021,5.021,0,0,0-.16.672H60.928a15.826,15.826,0,0,1-2.56-.192,6.7,6.7,0,0,1-2.1-.7A5.247,5.247,0,0,1,54.6-1.056,8.428,8.428,0,0,1,53.36-3.52Zm2.24-9.536h2.048v2.912H57.168Zm-5.824,1.616H65.088v4.016H63.12v-2.208H53.232v2.208H51.344Zm24.96.992q-.16,1.216-.416,2.592A25.214,25.214,0,0,1,75.2-5.584,14.3,14.3,0,0,1,74.112-2.8,6.1,6.1,0,0,1,72.744-1a2.457,2.457,0,0,1-1.624.632,2.532,2.532,0,0,1-1.624-.6,4.1,4.1,0,0,1-1.184-1.656,6.191,6.191,0,0,1-.44-2.4,6.267,6.267,0,0,1,.56-2.624,6.981,6.981,0,0,1,1.56-2.184,7.4,7.4,0,0,1,2.336-1.5,7.585,7.585,0,0,1,2.888-.544,7.12,7.12,0,0,1,2.68.48,6.032,6.032,0,0,1,2.04,1.328,5.764,5.764,0,0,1,1.3,1.984,6.613,6.613,0,0,1,.448,2.448,6.442,6.442,0,0,1-.688,3.008,5.687,5.687,0,0,1-2.04,2.192A8.747,8.747,0,0,1,75.584.752l-1.2-1.9q.464-.048.816-.112t.672-.144A6.089,6.089,0,0,0,77.3-1.96a4.469,4.469,0,0,0,1.16-.9,3.92,3.92,0,0,0,.776-1.256A4.335,4.335,0,0,0,79.52-5.7a4.978,4.978,0,0,0-.288-1.728,3.89,3.89,0,0,0-.848-1.368,3.736,3.736,0,0,0-1.36-.9A5.04,5.04,0,0,0,75.184-10a5.275,5.275,0,0,0-2.256.456A5.281,5.281,0,0,0,71.28-8.368a5.163,5.163,0,0,0-1.016,1.552,4.147,4.147,0,0,0-.344,1.584A4,4,0,0,0,70.112-3.9a2.022,2.022,0,0,0,.472.8.864.864,0,0,0,.6.264.935.935,0,0,0,.664-.344A3.838,3.838,0,0,0,72.5-4.224,14.178,14.178,0,0,0,73.136-6a21.854,21.854,0,0,0,.624-2.464,25.078,25.078,0,0,0,.368-2.56ZM88.88-7.136H99.024V-5.52H88.88Zm1.744,2.368H97.2v1.52H90.624Zm.608-1.776,1.648.416a9.575,9.575,0,0,1-1.608,2.536A10.808,10.808,0,0,1,89.12-1.68q-.144-.16-.376-.392t-.48-.44a5.146,5.146,0,0,0-.44-.336,7.946,7.946,0,0,0,2.024-1.576A7.089,7.089,0,0,0,91.232-6.544Zm5.68,1.776h1.776l-.008.248a2.943,2.943,0,0,1-.04.424q-.1,1.552-.232,2.552a11.4,11.4,0,0,1-.3,1.552A1.984,1.984,0,0,1,97.728.8a1.3,1.3,0,0,1-.488.384,2.4,2.4,0,0,1-.584.16q-.272.032-.7.048a9.049,9.049,0,0,1-.92-.016A3.963,3.963,0,0,0,94.912.6a2.356,2.356,0,0,0-.3-.728q.384.032.688.04t.464.008a.915.915,0,0,0,.264-.032.442.442,0,0,0,.2-.144,1.576,1.576,0,0,0,.264-.616,10.441,10.441,0,0,0,.224-1.336q.1-.88.2-2.288ZM92-9.84v.768h4.128V-9.84Zm0-2.016v.752h4.128v-.752Zm-1.712-1.328H97.9v5.44H90.288Zm-6.08,2.96h4.88v1.808h-4.88Zm1.616-3.168h1.792V-3.44H85.824ZM83.84-3.12q.624-.224,1.448-.56t1.752-.728q.928-.392,1.84-.792L89.3-3.552q-1.2.624-2.448,1.248T84.56-1.168ZM95.072-4.448l1.3.7a10.946,10.946,0,0,1-.816,1.96A13.493,13.493,0,0,1,94.368.08,7.638,7.638,0,0,1,92.992,1.5a4.844,4.844,0,0,0-.624-.576,4.793,4.793,0,0,0-.752-.5,6.506,6.506,0,0,0,1.456-1.28,10.229,10.229,0,0,0,1.192-1.728A10.077,10.077,0,0,0,95.072-4.448Zm-2.416.016L93.9-3.7a9.72,9.72,0,0,1-1.048,1.68A13.774,13.774,0,0,1,91.44-.432,9.57,9.57,0,0,1,89.9.784a5.244,5.244,0,0,0-.568-.608,4.437,4.437,0,0,0-.68-.528,8.213,8.213,0,0,0,1.56-1.056,10.688,10.688,0,0,0,1.416-1.448A8.411,8.411,0,0,0,92.656-4.432Zm11.488-4h8.016v1.7h-8.016Zm-.208,7.6h8.272v1.7h-8.272Zm-.848-4.3H113.3V1.456h-1.984V-3.456h-6.336V1.456h-1.888Zm4.992-6.56a13.414,13.414,0,0,1-1.656,1.92A20.582,20.582,0,0,1,104.2-7.9a23.126,23.126,0,0,1-2.536,1.616q-.128-.224-.328-.512t-.432-.568a3.885,3.885,0,0,0-.456-.472,16.7,16.7,0,0,0,2.664-1.648,18.014,18.014,0,0,0,2.28-2.032,12.55,12.55,0,0,0,1.6-2.048h2a14.693,14.693,0,0,0,1.44,1.744,18.53,18.53,0,0,0,1.688,1.552,14.666,14.666,0,0,0,1.848,1.28,15.009,15.009,0,0,0,1.9.944,7.035,7.035,0,0,0-.672.824q-.32.456-.576.9a19.356,19.356,0,0,1-1.872-1.112q-.944-.632-1.816-1.344a20.466,20.466,0,0,1-1.608-1.456A11.943,11.943,0,0,1,108.08-11.7Z" transform="translate(226.872 7626.676)" fill="#333"/>
    </g>
    <g id="グループ_789" data-name="グループ 789" transform="translate(-5045.705 5573.698)">
      <path id="パス_14" data-name="パス 14" d="M5171.715,2113.215l-22.013,23.518a1.54,1.54,0,0,1-2.692,0L5125,2113.215c-.741-1.059-.288-1.924,1-1.924h10.365v-15.255h23.983v15.255h10.365C5172,2111.291,5172.454,2112.156,5171.715,2113.215Z" fill="#82c195"/>
      <rect id="長方形_19" data-name="長方形 19" width="23.982" height="5.997" transform="translate(5136.364 2086.334)" fill="#82c195"/>
      <rect id="長方形_20" data-name="長方形 20" width="23.982" height="3.656" transform="translate(5136.364 2078.978)" fill="#82c195"/>
    </g>
    <g id="グループ_790" data-name="グループ 790" transform="translate(-4860.92 5573.698)">
      <path id="パス_14-2" data-name="パス 14" d="M5171.715,2113.215l-22.013,23.518a1.54,1.54,0,0,1-2.692,0L5125,2113.215c-.741-1.059-.288-1.924,1-1.924h10.365v-15.255h23.983v15.255h10.365C5172,2111.291,5172.454,2112.156,5171.715,2113.215Z" fill="#e61400"/>
      <rect id="長方形_19-2" data-name="長方形 19" width="23.982" height="5.997" transform="translate(5136.364 2086.334)" fill="#e61400"/>
      <rect id="長方形_20-2" data-name="長方形 20" width="23.982" height="3.656" transform="translate(5136.364 2078.978)" fill="#e61400"/>
    </g>
  </g>
</svg>
