<svg xmlns="http://www.w3.org/2000/svg" width="175" height="215.547" viewBox="0 0 175 215.547">
  <g id="グループ_832" data-name="グループ 832" transform="translate(-194.936 -8026.676)">
    <g id="グループ_806" data-name="グループ 806" transform="translate(-4860.92 6104.698)">
      <path id="パス_14" data-name="パス 14" d="M5171.715,2113.215l-22.013,23.518a1.54,1.54,0,0,1-2.692,0L5125,2113.215c-.741-1.059-.288-1.924,1-1.924h10.365v-15.255h23.983v15.255h10.365C5172,2111.291,5172.454,2112.156,5171.715,2113.215Z" fill="#e61400"/>
      <rect id="長方形_19" data-name="長方形 19" width="23.982" height="5.997" transform="translate(5136.364 2086.334)" fill="#e61400"/>
      <rect id="長方形_20" data-name="長方形 20" width="23.982" height="3.656" transform="translate(5136.364 2078.978)" fill="#e61400"/>
    </g>
    <rect id="長方形_441" data-name="長方形 441" width="175" height="157" rx="5" transform="translate(194.936 8026.676)" fill="#fff"/>
    <path id="パス_809" data-name="パス 809" d="M1.695-12.2H3.51v4.41q0,.975-.053,2.137T3.24-3.27A17.852,17.852,0,0,1,2.76-.915a9.615,9.615,0,0,1-.825,2.07,2.725,2.725,0,0,0-.48-.337Q1.155.645.847.487A3.554,3.554,0,0,0,.3.255a8.107,8.107,0,0,0,.773-1.89,15.145,15.145,0,0,0,.413-2.1q.135-1.08.173-2.123t.037-1.927Zm1.365,0H13.38V-7.71H3.06V-9.33h8.505v-1.245H3.06ZM3.9-5.91H6.435v1.575H3.9ZM7.905-7.47H9.7V-.555A2.841,2.841,0,0,1,9.57.428,1.065,1.065,0,0,1,9.015.99a2.828,2.828,0,0,1-.968.248q-.562.052-1.312.053A5.592,5.592,0,0,0,6.517.458,5.619,5.619,0,0,0,6.18-.36q.45.015.878.023t.578-.007a.419.419,0,0,0,.218-.06.234.234,0,0,0,.052-.18ZM12.51-6.7,14.055-5.61q-.525.465-1.1.945t-1.125.908Q11.28-3.33,10.785-3l-1.17-.945q.465-.345,1-.817t1.043-.983A9.893,9.893,0,0,0,12.51-6.7ZM9.66-6.36a10.132,10.132,0,0,0,1.11,2.2,8.486,8.486,0,0,0,1.635,1.823A7.465,7.465,0,0,0,14.52-1.1a5.51,5.51,0,0,0-.427.45q-.232.27-.435.555a4.9,4.9,0,0,0-.338.54,8.059,8.059,0,0,1-2.167-1.56A9.973,9.973,0,0,1,9.51-3.315,15.531,15.531,0,0,1,8.34-6.03Zm-3.735.45H6.27l.285-.03,1.02.27A10.692,10.692,0,0,1,6.4-1.8,5.9,5.9,0,0,1,4.26.42,2.741,2.741,0,0,0,3.923.015Q3.69-.225,3.45-.45A3.4,3.4,0,0,0,3.03-.8,4.86,4.86,0,0,0,4.95-2.6a7.652,7.652,0,0,0,.975-3.053ZM22.44-12.03q-.075.4-.24,1.05a12.887,12.887,0,0,1-.48,1.455q-.24.555-.547,1.148A10.572,10.572,0,0,1,20.55-7.32a2.519,2.519,0,0,1,.5-.157,5.983,5.983,0,0,1,.622-.105,5.053,5.053,0,0,1,.577-.037,2.306,2.306,0,0,1,1.568.54,2.01,2.01,0,0,1,.622,1.6q0,.3.007.735t.023.908q.015.472.03.922t.015.81h-1.8q.03-.255.038-.608t.015-.743q.008-.39.015-.757t.007-.668a1.155,1.155,0,0,0-.382-1,1.41,1.41,0,0,0-.847-.278,2.9,2.9,0,0,0-1.268.308,4.08,4.08,0,0,0-1.072.727q-.33.33-.667.735t-.728.915l-1.6-1.2A20,20,0,0,0,17.9-6.4,12.652,12.652,0,0,0,19.11-8.07a10.47,10.47,0,0,0,.81-1.65,9.079,9.079,0,0,0,.367-1.253A7.632,7.632,0,0,0,20.46-12.2ZM16.8-10.65q.57.09,1.32.135t1.32.045q.99,0,2.168-.045T24-10.672q1.215-.112,2.31-.293l-.015,1.74q-.795.105-1.717.188T22.7-8.9q-.953.053-1.823.075t-1.545.023q-.3,0-.743-.007t-.907-.03q-.465-.023-.885-.052ZM28.68-6.39q-.24.075-.562.187l-.645.225q-.323.112-.577.217-.72.285-1.7.69t-2.047.945a9.163,9.163,0,0,0-1.14.7,3.009,3.009,0,0,0-.7.7,1.344,1.344,0,0,0-.24.773.915.915,0,0,0,.135.517.918.918,0,0,0,.405.322,2.3,2.3,0,0,0,.675.165,8.84,8.84,0,0,0,.96.045q.96,0,2.115-.113t2.145-.307L27.435.615q-.48.06-1.215.127T24.7.84Q23.91.87,23.19.87a8.955,8.955,0,0,1-2.1-.225,2.954,2.954,0,0,1-1.463-.773,2.07,2.07,0,0,1-.532-1.507,2.838,2.838,0,0,1,.353-1.41,4.289,4.289,0,0,1,.938-1.14,8.633,8.633,0,0,1,1.282-.922q.7-.413,1.373-.758t1.245-.615q.555-.255,1.042-.457t.938-.413q.435-.195.84-.382t.825-.4Zm2.385-3.12H38.88v1.47H31.065ZM31-3.885h7.74v1.47H31Zm-.27-2.865H38.97v1.515H30.735ZM30.75-.735q1.05-.075,2.392-.2t2.813-.27q1.47-.15,2.91-.285L38.88.075Q37.485.24,36.052.4T33.315.69q-1.3.135-2.385.255Zm7.215-11.9L39-11.22q-.81.2-1.763.345t-1.958.263q-1.005.112-2.017.187T31.3-10.3a3.563,3.563,0,0,0-.157-.72,4.663,4.663,0,0,0-.263-.675q.93-.06,1.9-.15t1.9-.2q.938-.112,1.77-.255T37.965-12.63Zm1.38.69H43.47V-10.3H41.01V1.35H39.345Zm-5.28.345H35.7V-.24l-1.635.165ZM31.83-8.97h1.365v5.775H31.83Zm4.77,0h1.365v5.76H36.6Zm6.45-2.97H43.4l.27-.06,1.305.8q-.36,1.08-.788,2.287T43.335-6.7a5.254,5.254,0,0,1,1.088,1.89,6.558,6.558,0,0,1,.262,1.62A4.344,4.344,0,0,1,44.49-1.8a1.711,1.711,0,0,1-.615.87,1.589,1.589,0,0,1-.458.24,3.191,3.191,0,0,1-.562.135q-.255.03-.577.038T41.61-.525a4.767,4.767,0,0,0-.135-.87,3.158,3.158,0,0,0-.33-.87q.27.015.495.022t.4.007a1.039,1.039,0,0,0,.3-.045,1.689,1.689,0,0,0,.27-.105.683.683,0,0,0,.263-.375A2.13,2.13,0,0,0,42.96-3.4a4.456,4.456,0,0,0-.27-1.41,4.927,4.927,0,0,0-1.08-1.68q.2-.555.4-1.223t.4-1.342q.2-.675.368-1.267t.263-.983Zm7.155,4.875H59.79v1.62H50.205Zm.525-3.03h8.55V-8.5H50.73Zm3.165.78h1.8v2.4a6.944,6.944,0,0,1-.173,1.5,5.287,5.287,0,0,1-.63,1.553,5.9,5.9,0,0,1-1.305,1.485,8.988,8.988,0,0,1-2.182,1.3,3.332,3.332,0,0,0-.33-.435q-.21-.24-.435-.48a2.99,2.99,0,0,0-.435-.39A7.616,7.616,0,0,0,52.222-3.42a4.125,4.125,0,0,0,1.1-1.185,3.9,3.9,0,0,0,.465-1.207A6,6,0,0,0,53.9-6.93Zm2.07,3.39a5.3,5.3,0,0,0,1.417,2.108A5.606,5.606,0,0,0,59.835-2.58a4.2,4.2,0,0,0-.412.45q-.218.27-.4.548t-.323.517a5.938,5.938,0,0,1-2.67-1.695A8.023,8.023,0,0,1,54.45-5.595ZM49.6-6.9v5.535H47.85v-3.87H46.11V-6.9Zm0,4.755a2.726,2.726,0,0,0,1.305,1.08,5.886,5.886,0,0,0,2.01.39q.66.03,1.568.038T56.4-.645q1-.015,1.972-.06T60.09-.81q-.09.21-.21.54t-.218.675a5.8,5.8,0,0,0-.142.615q-.675.045-1.545.067t-1.785.03q-.915.007-1.77-.008t-1.53-.045A7.649,7.649,0,0,1,50.535.637,4.242,4.242,0,0,1,48.81-.6q-.495.42-1.013.87t-1.132.93L45.78-.675q.525-.315,1.095-.69t1.1-.78Zm-3.48-9.165,1.335-1.08a9.919,9.919,0,0,1,.945.7q.48.4.9.81a6.544,6.544,0,0,1,.675.757l-1.425,1.2a5.094,5.094,0,0,0-.622-.78q-.4-.42-.878-.847T46.125-11.31ZM57-12.75l1.83.57q-.405.645-.833,1.267T57.21-9.855l-1.47-.51q.225-.345.465-.758t.45-.84Q56.865-12.39,57-12.75Zm-5.88.66,1.515-.63a8.659,8.659,0,0,1,.795,1.155,5.533,5.533,0,0,1,.525,1.14l-1.62.69a5.321,5.321,0,0,0-.472-1.148A10.179,10.179,0,0,0,51.12-12.09Zm15.045.2q-.06.465-.113,1t-.082.99q-.015.615-.053,1.493t-.06,1.838q-.022.96-.045,1.89T65.79-3.06a2.227,2.227,0,0,0,.277,1.192,1.541,1.541,0,0,0,.743.63,2.787,2.787,0,0,0,1.05.188A5.485,5.485,0,0,0,69.555-1.3a5.616,5.616,0,0,0,1.395-.668,6.042,6.042,0,0,0,1.132-.975,9.646,9.646,0,0,0,.908-1.17l1.365,1.65a8.108,8.108,0,0,1-.945,1.14A8.187,8.187,0,0,1,72.022-.2,7.439,7.439,0,0,1,70.17.66a7.729,7.729,0,0,1-2.325.33A5.477,5.477,0,0,1,65.707.608,2.986,2.986,0,0,1,64.3-.577a3.862,3.862,0,0,1-.5-2.077q0-.615.015-1.4T63.855-5.7q.03-.855.045-1.673t.03-1.477q.015-.66.015-1.05,0-.54-.045-1.057a6.886,6.886,0,0,0-.15-.968Zm10.2,1.575q.45-.015.855-.037t.63-.038q.465-.045,1.14-.1l1.522-.135,1.807-.158,2-.172q.78-.06,1.56-.113t1.478-.09q.7-.038,1.208-.053l.015,1.92q-.4,0-.93.015T86.6-9.233a6.421,6.421,0,0,0-.923.128,3.686,3.686,0,0,0-1.252.607,4.859,4.859,0,0,0-1.013,1.013,4.657,4.657,0,0,0-.667,1.253,4.057,4.057,0,0,0-.233,1.342,3.113,3.113,0,0,0,.255,1.3,2.771,2.771,0,0,0,.713.96,4.037,4.037,0,0,0,1.072.66,6.412,6.412,0,0,0,1.328.4,11.586,11.586,0,0,0,1.477.18L86.655.66a9.336,9.336,0,0,1-1.838-.3A7.607,7.607,0,0,1,83.153-.3,5.55,5.55,0,0,1,81.8-1.327a4.5,4.5,0,0,1-.915-1.4,4.519,4.519,0,0,1-.33-1.763A5.533,5.533,0,0,1,80.9-6.48a6.533,6.533,0,0,1,.855-1.582A5.054,5.054,0,0,1,82.77-9.12q-.42.045-1.013.113t-1.275.15q-.683.083-1.388.173t-1.357.2q-.652.112-1.177.217ZM3.9,11.275a5.694,5.694,0,0,0-.1.615q-.038.345-.06.675t-.023.54q-.015.495-.007,1.02t.03,1.073q.022.547.068,1.087a14.424,14.424,0,0,0,.3,1.905,3.838,3.838,0,0,0,.51,1.282.937.937,0,0,0,.8.458.687.687,0,0,0,.5-.285,2.948,2.948,0,0,0,.45-.743,8.815,8.815,0,0,0,.36-.968q.158-.51.278-.96l1.5,1.83a11.851,11.851,0,0,1-.982,2.077,3.524,3.524,0,0,1-1.013,1.11,2.068,2.068,0,0,1-1.14.337,2.538,2.538,0,0,1-1.538-.54,4.1,4.1,0,0,1-1.237-1.748,11.536,11.536,0,0,1-.72-3.217q-.075-.69-.112-1.455t-.045-1.455q-.007-.69-.007-1.14,0-.315-.03-.75a7.666,7.666,0,0,0-.09-.78Zm7.5.345a7.454,7.454,0,0,1,.81,1.245,15.273,15.273,0,0,1,.72,1.575q.33.84.585,1.718t.412,1.71a12.7,12.7,0,0,1,.2,1.522l-1.98.765q-.075-.915-.27-2a19.614,19.614,0,0,0-.525-2.175,15.171,15.171,0,0,0-.788-2.07,7.17,7.17,0,0,0-1.073-1.68Zm10.86-1.59q-.09.3-.18.735t-.135.675q-.1.51-.263,1.245t-.345,1.56q-.187.825-.382,1.575-.195.8-.48,1.718t-.607,1.875q-.323.953-.653,1.815t-.645,1.537l-2.085-.7q.33-.57.7-1.387t.727-1.763q.353-.945.653-1.875t.51-1.725q.15-.525.285-1.08t.24-1.08q.1-.525.188-.983t.128-.8q.045-.42.06-.84a4.622,4.622,0,0,0-.015-.675Zm-3.825,2.235q.915,0,1.905-.09t1.995-.255q1.005-.165,2-.39V13.4q-.93.21-1.98.36T20.28,14q-1.02.083-1.875.083-.54,0-.975-.023t-.84-.037l-.045-1.875q.585.06,1,.09T18.435,12.265Zm4.71,2.295q.63-.06,1.395-.1t1.485-.045q.645,0,1.313.03t1.328.1l-.045,1.8q-.555-.075-1.222-.128t-1.357-.052q-.765,0-1.478.037t-1.417.128Zm.81,3.78a6.541,6.541,0,0,0-.15.653,3.439,3.439,0,0,0-.06.592.961.961,0,0,0,.435.818,1.772,1.772,0,0,0,.622.247,4.622,4.622,0,0,0,1,.09,14.469,14.469,0,0,0,1.538-.083q.773-.082,1.582-.233l-.075,1.92q-.63.075-1.395.142t-1.665.068a5.493,5.493,0,0,1-2.888-.622,1.966,1.966,0,0,1-1-1.763,6.118,6.118,0,0,1,.09-1.035q.09-.525.18-.975Zm13-8.145q-.09.315-.187.743t-.143.683q-.1.51-.262,1.245t-.338,1.552q-.18.818-.375,1.583-.21.78-.487,1.71t-.6,1.875q-.323.945-.652,1.815t-.645,1.545l-2.1-.7a12.725,12.725,0,0,0,.712-1.4q.367-.825.728-1.762t.66-1.875q.3-.937.51-1.718.135-.54.27-1.1t.248-1.08q.113-.525.195-.983t.127-.787q.045-.42.06-.84a4.885,4.885,0,0,0-.015-.69Zm-3.825,2.25q.915,0,1.905-.09t1.995-.262q1.005-.172,1.995-.4V13.57q-.93.225-1.98.375t-2.07.233q-1.02.083-1.875.083-.54,0-.975-.023t-.84-.037l-.045-1.875q.585.06,1.005.09T33.135,12.445Zm4.71,2.3q.63-.075,1.395-.112t1.485-.038q.645,0,1.313.03t1.327.105l-.045,1.8q-.555-.075-1.222-.135t-1.358-.06q-.78,0-1.485.038t-1.41.127Zm.81,3.765a6.382,6.382,0,0,0-.15.66,3.506,3.506,0,0,0-.06.585,1.025,1.025,0,0,0,.1.465,1,1,0,0,0,.33.368,1.685,1.685,0,0,0,.623.24,5.029,5.029,0,0,0,1,.083q.75,0,1.53-.075t1.59-.225l-.075,1.905q-.63.09-1.395.157t-1.665.068A5.439,5.439,0,0,1,37.6,22.1a1.971,1.971,0,0,1-1-1.755,6.754,6.754,0,0,1,.083-1.05q.083-.525.173-.96Zm3.1-7.875q.2.27.413.645t.427.75q.21.375.345.66l-1.2.525q-.15-.315-.345-.69t-.405-.75a5.16,5.16,0,0,0-.42-.645Zm1.77-.675a6.14,6.14,0,0,1,.435.653l.443.75a6.367,6.367,0,0,1,.337.637l-1.185.51q-.24-.48-.57-1.065a9.3,9.3,0,0,0-.645-1.005Zm4.38,1.275q1.65.2,3.038.233a25.132,25.132,0,0,0,2.572-.052,19.709,19.709,0,0,0,1.98-.27,16.853,16.853,0,0,0,1.86-.465L57.6,12.4q-.81.225-1.755.39t-1.935.255q-1.155.09-2.662.083t-3.233-.173Zm-.27,3.15q1.365.12,2.61.165t2.34,0q1.095-.045,1.995-.12a15.057,15.057,0,0,0,2.085-.307q.87-.2,1.515-.383l.3,1.77q-.675.165-1.485.315t-1.725.255q-.96.09-2.2.142t-2.6.03q-1.365-.022-2.73-.1Zm5.01-2.73q-.1-.42-.24-.833t-.3-.847l2.025-.225q.09.705.232,1.387t.33,1.313q.188.63.368,1.215.18.51.472,1.163t.637,1.305q.345.652.69,1.177.15.21.307.4a3.186,3.186,0,0,0,.368.368l-.915,1.38q-.42-.09-1.042-.18t-1.29-.165L53.07,18.97l.15-1.425q.465.045,1.013.09t.877.09a18.627,18.627,0,0,1-1.028-1.965q-.427-.96-.712-1.785-.18-.525-.3-.907t-.217-.72Q52.755,12.01,52.65,11.65Zm-2.13,6.21a5.367,5.367,0,0,0-.465.772,2,2,0,0,0-.195.892,1.237,1.237,0,0,0,.772,1.193,5.435,5.435,0,0,0,2.257.367q1.065,0,2.018-.09t1.747-.24l-.1,1.905q-.78.135-1.755.21t-1.89.075a9.369,9.369,0,0,1-2.587-.315,3.523,3.523,0,0,1-1.687-.983,2.55,2.55,0,0,1-.615-1.732,3.67,3.67,0,0,1,.188-1.3A11.617,11.617,0,0,1,48.66,17.5Zm12.855,5.175q-.45-.57-1.005-1.155t-1.125-1.147q-.57-.562-1.1-1.013l1.56-1.35q.54.435,1.155,1.027t1.177,1.193q.563.6.938,1.065Zm-50.73,9.94a6.4,6.4,0,0,0-.33.668q-.18.412-.3.682-.27.75-.675,1.627t-.915,1.763A16.063,16.063,0,0,1,9.3,39.41a21.172,21.172,0,0,1-1.568,1.838,18.8,18.8,0,0,1-2,1.807A19.54,19.54,0,0,1,3.15,44.75L1.47,43.235a16.706,16.706,0,0,0,3.54-2.243A17.049,17.049,0,0,0,7.665,38.18a11.953,11.953,0,0,0,1.463-2.318,20.851,20.851,0,0,0,.922-2.287,5.273,5.273,0,0,0,.217-.7q.1-.4.142-.682ZM4.395,34.43q.57.345,1.207.772t1.29.878q.652.45,1.245.885t1.072.795q1.2.945,2.34,1.965t2.055,2L12.06,43.43q-.99-1.14-2.01-2.108t-2.2-1.957q-.4-.345-.93-.75T5.783,37.76q-.608-.45-1.283-.907T3.12,35.96ZM16.53,37.055l.69.037q.42.023.878.038t.847.015H27q.525,0,.99-.038t.765-.052V39.41l-.765-.045q-.51-.03-.99-.03H18.945q-.645,0-1.32.022t-1.1.053ZM38.28,31.97q-.03.255-.052.66l-.038.675a26.311,26.311,0,0,1-.375,3.967,13.789,13.789,0,0,1-.9,3.068,9.627,9.627,0,0,1-1.485,2.392,11.687,11.687,0,0,1-2.145,1.943l-1.74-1.41q.465-.27,1-.638a5.941,5.941,0,0,0,.967-.833,7.684,7.684,0,0,0,1.245-1.582,8.464,8.464,0,0,0,.818-1.89,13.64,13.64,0,0,0,.458-2.257,22.538,22.538,0,0,0,.15-2.715q0-.165-.015-.427t-.038-.518q-.022-.255-.053-.435Zm5.1,3.21q-.03.18-.067.42a2.593,2.593,0,0,0-.037.375q-.015.48-.053,1.23t-.1,1.612q-.068.863-.165,1.717t-.232,1.583a5.949,5.949,0,0,1-.33,1.193,1.831,1.831,0,0,1-.7.862,2.278,2.278,0,0,1-1.237.292q-.645,0-1.29-.037t-1.2-.083l-.225-2.01q.555.1,1.11.158t.99.052a.968.968,0,0,0,.555-.127.939.939,0,0,0,.3-.4,5,5,0,0,0,.225-.8q.1-.495.18-1.11t.128-1.275q.052-.66.075-1.283t.023-1.1H34q-.375,0-.93.007t-1.05.052V34.55q.48.045,1.02.075t.96.03H40.95a5.658,5.658,0,0,0,.578-.03q.292-.03.548-.075Zm3.45,1.875.69.037q.42.023.877.038t.847.015H57.3q.525,0,.99-.038t.765-.052V39.41l-.765-.045q-.51-.03-.99-.03H49.245q-.645,0-1.32.022t-1.095.053Zm20.115-.84V37.52H68.28V36.215Zm0,2.64v1.32H68.28v-1.32Zm0-5.265v1.29H68.28V33.59Zm-1.5-1.44h4.41V41.6h-4.41Zm2.4,10.215,1.275-.705q.39.585.773,1.29a8.731,8.731,0,0,1,.563,1.215l-1.365.81a6.812,6.812,0,0,0-.307-.795q-.2-.45-.45-.93T67.845,42.365Zm2.805-9.45h1.545v8.97H70.65ZM73.1,31.49H74.73V43.355a3.074,3.074,0,0,1-.142,1.042,1.045,1.045,0,0,1-.518.577,2.366,2.366,0,0,1-.945.293,11.824,11.824,0,0,1-1.365.067,5.741,5.741,0,0,0-.187-.855,6.156,6.156,0,0,0-.308-.855q.51.015.945.015h.585a.323.323,0,0,0,.232-.068.3.3,0,0,0,.068-.217Zm-6.9,10.155,1.44.78a9.2,9.2,0,0,1-.563,1.013q-.337.532-.7,1.02a7.366,7.366,0,0,1-.705.833q-.225-.21-.592-.5t-.668-.48a5.463,5.463,0,0,0,.7-.787,9.559,9.559,0,0,0,.622-.96A9.4,9.4,0,0,0,66.195,41.645ZM63.75,31.28l1.665.5a26.607,26.607,0,0,1-1.013,2.64,24.452,24.452,0,0,1-1.3,2.528,15.055,15.055,0,0,1-1.47,2.092q-.06-.21-.21-.585t-.33-.75q-.18-.375-.315-.615a12.5,12.5,0,0,0,1.162-1.635,16.7,16.7,0,0,0,1.028-2A17.854,17.854,0,0,0,63.75,31.28ZM62.55,35.4l1.665-1.665.045.03V45.335H62.55ZM76.785,33.71q.45-.015.855-.037t.615-.037q.465-.03,1.147-.1t1.53-.142q.847-.075,1.807-.15t2-.165q.78-.075,1.552-.128t1.47-.09q.7-.037,1.223-.052L89,34.73q-.405,0-.93.015t-1.043.053a5.188,5.188,0,0,0-.923.143,3.766,3.766,0,0,0-1.26.607,4.707,4.707,0,0,0-1.012,1.005A4.828,4.828,0,0,0,83.16,37.8a3.943,3.943,0,0,0-.24,1.342,3.037,3.037,0,0,0,.263,1.3,2.855,2.855,0,0,0,.72.96,4.037,4.037,0,0,0,1.073.66,6.412,6.412,0,0,0,1.327.4,11.586,11.586,0,0,0,1.478.18l-.705,2.055a9.336,9.336,0,0,1-1.837-.3,7.769,7.769,0,0,1-1.673-.66A5.367,5.367,0,0,1,82.207,42.7a4.685,4.685,0,0,1-.915-1.4,4.431,4.431,0,0,1-.338-1.763,5.55,5.55,0,0,1,.345-1.987,6.345,6.345,0,0,1,.862-1.59A5.2,5.2,0,0,1,83.19,34.91q-.42.06-1.013.12t-1.275.143q-.682.083-1.387.173t-1.357.2q-.653.113-1.177.217ZM86.85,36.2q.195.27.412.638t.428.735q.21.367.36.667l-1.14.51q-.285-.63-.548-1.11a9.031,9.031,0,0,0-.623-.975Zm1.68-.69q.195.27.428.622t.457.72q.225.367.375.653l-1.125.54q-.3-.6-.577-1.065a10.56,10.56,0,0,0-.653-.96ZM.45,62.235h14.1V63.9H.45Zm.615-8.175H13.95v1.665H1.065ZM3.42,59.49H11.7v1.53H3.42Zm7.62-2.775h1.8V65.4a2.587,2.587,0,0,1-.18,1.065,1.229,1.229,0,0,1-.645.6,3.325,3.325,0,0,1-1.148.255q-.682.045-1.628.045a6.1,6.1,0,0,0-.262-.862,6.55,6.55,0,0,0-.368-.833q.42.015.84.022t.757.007h.458a.438.438,0,0,0,.292-.075.332.332,0,0,0,.083-.255Zm-8.865,0H11.76v1.62H3.945v9.03H2.175ZM6.54,54.57h1.8v8.25H6.54Zm12.375,2.91h10.41v1.41H18.915Zm.105,4.365h8.235v1.41H19.02Zm1.92-5.355h1.7V59.9H25.4V56.49H27.15v4.755H20.94Zm5.865,5.355h.345l.315-.06,1.125.57a6.759,6.759,0,0,1-1.568,2.078,9.2,9.2,0,0,1-2.2,1.447,14.083,14.083,0,0,1-2.678.938,28.544,28.544,0,0,1-3.015.563,5.367,5.367,0,0,0-.323-.787,4.831,4.831,0,0,0-.427-.728,23.839,23.839,0,0,0,2.752-.39,13.8,13.8,0,0,0,2.438-.72,7.715,7.715,0,0,0,1.943-1.117,4.908,4.908,0,0,0,1.3-1.553Zm-4.695,1.11a5.633,5.633,0,0,0,1.8,1.432,11.352,11.352,0,0,0,2.6.952,21.152,21.152,0,0,0,3.21.51,3.145,3.145,0,0,0-.4.458q-.2.277-.375.563t-.292.525a19.489,19.489,0,0,1-3.33-.72A10.943,10.943,0,0,1,22.6,65.408a8.123,8.123,0,0,1-2.04-1.9Zm.075-9.705H24.06v2.265H22.185Zm-4.5,1.365h11.73V56.22H17.685Zm-.87,0H18.54V58.83q0,.93-.06,2.025t-.225,2.25a15.671,15.671,0,0,1-.487,2.243,8.8,8.8,0,0,1-.833,1.957,4.022,4.022,0,0,0-.42-.353q-.27-.2-.555-.382a2.607,2.607,0,0,0-.5-.255A7.458,7.458,0,0,0,16.2,64.56,14.309,14.309,0,0,0,16.6,62.6q.135-1,.173-1.972t.037-1.8Zm23.025.48h1.575V65.7H39.84ZM37,54.39h7.4v12.6H42.72V56.055H38.61v11.07H37Zm.9,5.13H43.38v1.635H37.9Zm0,5.16h5.46v1.635H37.9Zm-4.83-4.05h1.59v6.7h-1.59Zm-.06-7.4,1.59.6q-.3.585-.638,1.193t-.653,1.163q-.315.555-.615.99l-1.215-.525q.27-.45.555-1.05t.547-1.215A11.583,11.583,0,0,0,33.015,53.235ZM34.83,55.05l1.485.7q-.555.855-1.2,1.778t-1.3,1.778q-.653.855-1.238,1.5l-1.05-.615q.42-.495.877-1.132t.9-1.335q.443-.7.84-1.38T34.83,55.05Zm-4.14,1.725.855-1.23q.39.33.8.735t.765.8a3.8,3.8,0,0,1,.533.743l-.9,1.4a5.347,5.347,0,0,0-.517-.78q-.338-.435-.743-.87T30.69,56.775Zm3.8,1.86,1.305-.57a11.871,11.871,0,0,1,.6,1.065q.285.57.51,1.118a6.868,6.868,0,0,1,.33.982l-1.4.66a9.753,9.753,0,0,0-.307-1q-.2-.562-.465-1.155A9.142,9.142,0,0,0,34.485,58.635ZM30.66,59.82q1.035-.06,2.5-.165l2.962-.21.03,1.4-2.752.3-2.483.27Zm4.05,2.625,1.335-.45a15.487,15.487,0,0,1,.585,1.493,14.411,14.411,0,0,1,.405,1.4l-1.425.5a6.586,6.586,0,0,0-.21-.908q-.15-.5-.33-1.035T34.71,62.445Zm-3.375-.39,1.5.255a20.124,20.124,0,0,1-.353,2.13,8.914,8.914,0,0,1-.562,1.77,2.957,2.957,0,0,0-.4-.225l-.51-.247a3.3,3.3,0,0,0-.458-.187,6.373,6.373,0,0,0,.517-1.605A16.351,16.351,0,0,0,31.335,62.055Zm21.045-7.9q-.075.285-.143.622t-.127.623q-.06.33-.15.743t-.172.825q-.083.412-.173.8-.15.645-.375,1.5T50.715,61.1q-.3.982-.675,1.972T49.245,65a12.955,12.955,0,0,1-.9,1.688l-1.95-.78a11.7,11.7,0,0,0,.983-1.583q.457-.877.832-1.807t.668-1.83q.292-.9.5-1.68t.33-1.335q.21-1.02.33-1.965a12.435,12.435,0,0,0,.1-1.785Zm5.16,1.41a9.052,9.052,0,0,1,.743,1.208q.383.728.75,1.537t.675,1.56q.307.75.472,1.275l-1.9.885q-.15-.63-.413-1.4t-.6-1.575q-.338-.8-.72-1.522a6.834,6.834,0,0,0-.787-1.2ZM46.29,57.225q.405.03.795.022t.81-.022q.36-.015.893-.052t1.125-.083q.593-.045,1.192-.1t1.11-.083q.51-.03.84-.03a3.509,3.509,0,0,1,1.4.263,1.994,1.994,0,0,1,.96.892,3.512,3.512,0,0,1,.353,1.71q0,.885-.083,1.92a18.394,18.394,0,0,1-.262,1.98,6.186,6.186,0,0,1-.51,1.6,2.118,2.118,0,0,1-.982,1.08,3.373,3.373,0,0,1-1.478.3,6.74,6.74,0,0,1-.923-.067q-.488-.067-.878-.143l-.33-1.98q.3.075.653.15t.675.12a3.934,3.934,0,0,0,.518.045,1.457,1.457,0,0,0,.66-.142,1.067,1.067,0,0,0,.465-.5,4.509,4.509,0,0,0,.337-1.125q.128-.69.195-1.493t.068-1.537a1.827,1.827,0,0,0-.165-.885.815.815,0,0,0-.487-.382,2.814,2.814,0,0,0-.8-.1q-.33,0-.923.053t-1.253.12q-.66.068-1.237.142t-.892.105q-.315.06-.818.127t-.847.127Zm18.21-1.95a5.694,5.694,0,0,0-.1.615q-.038.345-.06.675t-.022.54q-.015.495-.007,1.02t.03,1.072q.022.548.067,1.088a14.424,14.424,0,0,0,.3,1.9,3.838,3.838,0,0,0,.51,1.283.937.937,0,0,0,.795.458.687.687,0,0,0,.5-.285,2.948,2.948,0,0,0,.45-.743,8.815,8.815,0,0,0,.36-.967q.158-.51.277-.96l1.5,1.83a11.85,11.85,0,0,1-.982,2.077,3.524,3.524,0,0,1-1.012,1.11,2.068,2.068,0,0,1-1.14.338,2.538,2.538,0,0,1-1.538-.54,4.1,4.1,0,0,1-1.237-1.747,11.536,11.536,0,0,1-.72-3.218q-.075-.69-.112-1.455t-.045-1.455q-.008-.69-.007-1.14,0-.315-.03-.75a7.665,7.665,0,0,0-.09-.78Zm7.5.345a7.455,7.455,0,0,1,.81,1.245,15.272,15.272,0,0,1,.72,1.575q.33.84.585,1.718t.412,1.71a12.7,12.7,0,0,1,.2,1.522l-1.98.765q-.075-.915-.27-1.995a19.615,19.615,0,0,0-.525-2.175,15.171,15.171,0,0,0-.788-2.07,7.17,7.17,0,0,0-1.072-1.68Zm9.87,2.49v1.275h1.47V58.11Zm0,2.715v1.29h1.47v-1.29Zm0-5.415v1.26h1.47V55.41Zm-1.515-1.56h4.56v9.825h-4.56ZM82.89,64.44l1.365-.765q.285.345.593.765t.57.825q.262.4.427.72l-1.44.855a6.053,6.053,0,0,0-.39-.735q-.255-.42-.548-.863T82.89,64.44Zm-2.13-.63,1.635.45a10.953,10.953,0,0,1-.915,1.71,9.961,9.961,0,0,1-1.1,1.425q-.165-.135-.428-.315t-.532-.345q-.27-.165-.465-.27a6.84,6.84,0,0,0,1.028-1.215A7.5,7.5,0,0,0,80.76,63.81Zm7.38-10.56h1.635V65.325a3.2,3.2,0,0,1-.143,1.065,1.085,1.085,0,0,1-.548.6,2.747,2.747,0,0,1-1,.278,13.849,13.849,0,0,1-1.493.067,5.47,5.47,0,0,0-.195-.862,6.669,6.669,0,0,0-.315-.863q.57.015,1.065.022t.675.007a.4.4,0,0,0,.248-.082.323.323,0,0,0,.067-.233Zm-2.475,1.545H87.21v8.7H85.665Zm-8.925-.1,1.02-1.305q.4.165.862.405t.87.5a4.526,4.526,0,0,1,.668.5l-1.08,1.44a3.515,3.515,0,0,0-.623-.533q-.4-.278-.847-.548A9.353,9.353,0,0,0,76.74,54.69Zm-.57,4.02.99-1.335q.42.165.877.382t.87.465a4.579,4.579,0,0,1,.667.472l-1.05,1.455a5.3,5.3,0,0,0-.638-.5q-.4-.27-.847-.517T76.17,58.71Zm.255,7.545q.285-.585.622-1.38t.69-1.687q.352-.893.637-1.763l1.455.93q-.24.81-.54,1.643t-.615,1.635q-.315.8-.63,1.552Zm17.82-8.475h8.295v1.725H94.245Zm4.155,3.6h5.055v1.695H98.4Zm-.945-2.6H99.33V66.03l-1.875-.225ZM93.87,60.33l1.875.195a16.2,16.2,0,0,1-1.02,4.05,7.415,7.415,0,0,1-2.01,2.865,5.729,5.729,0,0,0-.42-.4q-.27-.24-.562-.465t-.5-.36a5.5,5.5,0,0,0,1.83-2.423A12.574,12.574,0,0,0,93.87,60.33Zm1.455,1.89a4.8,4.8,0,0,0,.907,1.657,3.686,3.686,0,0,0,1.305.96,6.135,6.135,0,0,0,1.628.442,13.963,13.963,0,0,0,1.875.12h1.567q.5,0,1.028-.007l.975-.015q.45-.007.75-.022a3.756,3.756,0,0,0-.262.547q-.127.323-.232.668a4.706,4.706,0,0,0-.15.63H100.95a14.837,14.837,0,0,1-2.4-.18,6.276,6.276,0,0,1-1.973-.652,4.919,4.919,0,0,1-1.56-1.357,7.9,7.9,0,0,1-1.162-2.31Zm2.1-8.94h1.92v2.73h-1.92Zm-5.46,1.515H104.85V58.56h-1.845V56.49h-9.27v2.07h-1.77Zm21.375-.825q-.075.405-.24,1.05a12.887,12.887,0,0,1-.48,1.455q-.24.555-.548,1.148a10.573,10.573,0,0,1-.622,1.057,2.519,2.519,0,0,1,.495-.158,5.984,5.984,0,0,1,.623-.1,5.053,5.053,0,0,1,.577-.037,2.306,2.306,0,0,1,1.567.54,2.01,2.01,0,0,1,.623,1.605q0,.3.007.735t.023.908q.015.472.03.923t.015.81h-1.8q.03-.255.038-.608t.015-.743q.007-.39.015-.757t.007-.667a1.155,1.155,0,0,0-.382-1,1.41,1.41,0,0,0-.848-.278,2.9,2.9,0,0,0-1.268.308,4.08,4.08,0,0,0-1.072.728q-.33.33-.668.735t-.728.915l-1.6-1.2A20,20,0,0,0,108.8,59.6a12.652,12.652,0,0,0,1.207-1.665,10.47,10.47,0,0,0,.81-1.65,9.078,9.078,0,0,0,.368-1.252,7.631,7.631,0,0,0,.173-1.222Zm-5.64,1.38q.57.09,1.32.135t1.32.045q.99,0,2.167-.045t2.393-.158q1.215-.113,2.31-.292l-.015,1.74q-.795.1-1.717.188T113.6,57.1q-.953.052-1.822.075t-1.545.022q-.3,0-.743-.007t-.907-.03q-.465-.023-.885-.053Zm11.88,4.26q-.24.075-.562.188l-.645.225q-.323.113-.577.217-.72.285-1.7.69t-2.047.945a9.163,9.163,0,0,0-1.14.705,3.009,3.009,0,0,0-.705.7,1.344,1.344,0,0,0-.24.773.833.833,0,0,0,.54.84,2.3,2.3,0,0,0,.675.165,8.84,8.84,0,0,0,.96.045q.96,0,2.115-.112t2.145-.308l-.06,1.935q-.48.06-1.215.128t-1.522.1q-.788.03-1.507.03a8.955,8.955,0,0,1-2.1-.225,2.954,2.954,0,0,1-1.463-.772A2.07,2.07,0,0,1,110,64.365a2.838,2.838,0,0,1,.353-1.41,4.289,4.289,0,0,1,.938-1.14,8.632,8.632,0,0,1,1.283-.922q.7-.413,1.372-.758t1.245-.615q.555-.255,1.042-.458t.938-.412q.435-.2.84-.382t.825-.4ZM6.555,75.28h1.86v2.385H6.555Zm-5.49,1.29H13.92v3.225H12.06v-1.65H2.85v1.65H1.065Zm1.35,2.775H12.72V80.8H2.415Zm-1.47,4.74H14.13v1.56H.945ZM2.655,81.7h9.75v1.44H2.655Zm5.73,2.7a5.024,5.024,0,0,0,2.145,2.325,9.66,9.66,0,0,0,3.81,1.08,5.56,5.56,0,0,0-.577.75,8.1,8.1,0,0,0-.488.825,11.165,11.165,0,0,1-2.955-.847,6.6,6.6,0,0,1-2.108-1.515A7.9,7.9,0,0,1,6.78,84.745ZM6.51,78.49H8.325v4.17a7.863,7.863,0,0,1-.158,1.56,5.083,5.083,0,0,1-.57,1.507,5.517,5.517,0,0,1-1.155,1.387A8.451,8.451,0,0,1,4.56,88.338,15.8,15.8,0,0,1,1.785,89.35a3.614,3.614,0,0,0-.293-.472q-.188-.263-.405-.533a3.4,3.4,0,0,0-.428-.45,15.925,15.925,0,0,0,2.618-.81,6.953,6.953,0,0,0,1.695-.975,4.069,4.069,0,0,0,.968-1.1,3.924,3.924,0,0,0,.45-1.17,6.068,6.068,0,0,0,.12-1.208Zm16.785-1.32h6.21v1.62h-6.21Zm1.845,2h1.5V86.59h-1.5Zm-1.68-3.93,1.755.36a15.541,15.541,0,0,1-1.042,3.037A8.805,8.805,0,0,1,22.6,81.01a5.054,5.054,0,0,0-.382-.4q-.247-.24-.5-.48a4.578,4.578,0,0,0-.465-.39,6.644,6.644,0,0,0,1.35-1.98A12.678,12.678,0,0,0,23.46,75.235ZM21.495,83l6.54-3.015.615,1.455L22.125,84.49Zm1.245-2.76h1.59v6.84q0,.48.15.6a1.3,1.3,0,0,0,.705.12h2.31a.74.74,0,0,0,.465-.12.8.8,0,0,0,.225-.457,7.214,7.214,0,0,0,.12-1,4.341,4.341,0,0,0,.69.36,4.276,4.276,0,0,0,.765.255,5.281,5.281,0,0,1-.315,1.485,1.415,1.415,0,0,1-.653.757,2.549,2.549,0,0,1-1.147.217h-2.64a3.889,3.889,0,0,1-1.38-.195,1.177,1.177,0,0,1-.69-.683,3.718,3.718,0,0,1-.195-1.342Zm4.845.06h-.12l.3-.225.285-.195,1.11.39-.06.255q0,.795-.007,1.47t-.007,1.215q0,.54-.007.9a4.087,4.087,0,0,1-.037.54,1.293,1.293,0,0,1-.173.653,1.012,1.012,0,0,1-.472.382,1.9,1.9,0,0,1-.608.15,4.61,4.61,0,0,1-.637.015,6.211,6.211,0,0,0-.112-.683,2.673,2.673,0,0,0-.2-.622,2.511,2.511,0,0,0,.278.015h.217a.212.212,0,0,0,.143-.045.335.335,0,0,0,.083-.18q0-.075.007-.367t.015-.8q.007-.51.007-1.23ZM15.72,77.545h6.39V79.21H15.72Zm2.34,3.27h2.43V82.45H18.06Zm-.03-5.535h1.725V78.1H18.03Zm-.855,3.285h1.71q-.03,1.575-.105,3.09t-.285,2.91a15.577,15.577,0,0,1-.615,2.61,7.836,7.836,0,0,1-1.095,2.16,4.612,4.612,0,0,0-.577-.683,3.886,3.886,0,0,0-.713-.577,6.411,6.411,0,0,0,.93-1.89,13.573,13.573,0,0,0,.488-2.295q.157-1.23.2-2.58T17.175,78.565Zm2.73,2.25h1.62v.7q-.015,1.8-.052,3.068t-.09,2.092a9.605,9.605,0,0,1-.15,1.29,2.111,2.111,0,0,1-.233.675,1.492,1.492,0,0,1-.435.435,1.639,1.639,0,0,1-.54.195,3.741,3.741,0,0,1-.69.067q-.4.007-.87.007a3.906,3.906,0,0,0-.135-.817,4.087,4.087,0,0,0-.285-.787,6.179,6.179,0,0,0,.637.052q.292.007.443.007a.592.592,0,0,0,.247-.045.47.47,0,0,0,.188-.195,1.98,1.98,0,0,0,.18-.81q.06-.645.1-1.987t.06-3.607Zm18-3.465q-.09-.255-.21-.63t-.27-.75l2.025-.24q.12.585.27,1.163t.33,1.125q.18.547.36,1.027a15.165,15.165,0,0,0,.818,1.823,13.325,13.325,0,0,0,.832,1.4q.2.285.4.533t.412.473l-.93,1.35q-.315-.06-.795-.128T40.1,84.37l-1.125-.12q-.562-.06-1.028-.09l.15-1.59q.375.03.8.067t.787.068q.367.03.608.045-.27-.435-.57-.99T39.135,80.6q-.285-.608-.525-1.223-.24-.63-.413-1.14T37.9,77.35Zm-5.46.705q1.4.165,2.625.225t2.295.03q1.065-.03,1.95-.135.69-.09,1.343-.195t1.29-.255q.637-.15,1.208-.33l.24,1.89q-.5.135-1.073.255t-1.193.217q-.615.1-1.215.173-1.515.165-3.33.195t-4.11-.15Zm3,5.115A5.515,5.515,0,0,0,34.9,84.2a2.742,2.742,0,0,0-.195,1,1.438,1.438,0,0,0,.825,1.372A5.224,5.224,0,0,0,37.89,87a21.425,21.425,0,0,0,2.228-.105q1-.1,1.792-.255l-.1,1.89q-.63.12-1.643.24a20.652,20.652,0,0,1-2.392.12,8.476,8.476,0,0,1-2.64-.4,3.712,3.712,0,0,1-1.74-1.14,2.8,2.8,0,0,1-.615-1.823,4.652,4.652,0,0,1,.2-1.357,8.828,8.828,0,0,1,.592-1.433Zm21.48-6.945q-.015.12-.03.353t-.03.488q-.015.255-.03.465,0,.5-.007.96t-.015.878q-.008.413-.022.8-.015.66-.045,1.38t-.075,1.335a8.973,8.973,0,0,1-.12,1,1.2,1.2,0,0,1-.42.787,1.587,1.587,0,0,1-.885.2q-.255,0-.7-.037t-.87-.1q-.427-.06-.7-.09l.045-1.665q.345.075.757.135a4.725,4.725,0,0,0,.622.06.669.669,0,0,0,.338-.067.327.327,0,0,0,.128-.278,7.113,7.113,0,0,0,.067-.72q.022-.435.045-.952t.037-1.013V77.6q0-.195-.022-.457t-.038-.518a3.086,3.086,0,0,0-.045-.4Zm-5.9.45a6.3,6.3,0,0,0-.075.727q-.015.353-.015.833,0,.4-.007,1.08t-.015,1.462L50.9,82.353q-.008.788-.007,1.433t.015,1.02a5.82,5.82,0,0,0,.083.908.928.928,0,0,0,.292.548,1.416,1.416,0,0,0,.713.27,9.18,9.18,0,0,0,1.327.075q.735,0,1.56-.053t1.59-.142q.765-.09,1.335-.18l-.075,2.04q-.495.06-1.23.113t-1.53.09q-.795.038-1.515.037a13.015,13.015,0,0,1-2.325-.165,2.786,2.786,0,0,1-1.32-.555,1.9,1.9,0,0,1-.6-1.05,8.745,8.745,0,0,1-.18-1.635q0-.33-.007-.885t-.007-1.238v-1.4q0-.72.007-1.373t.007-1.147v-.72q0-.465-.03-.87t-.09-.795Zm-5.025,3.39q.33,0,.825-.03T47.9,79.96q.45-.045,1.335-.127l2.01-.187,2.347-.218q1.222-.112,2.347-.2t1.995-.15q.315-.03.713-.052t.728-.052v1.845a3.538,3.538,0,0,0-.39-.015q-.27,0-.562.007t-.487.022q-.585.015-1.425.067t-1.8.135q-.96.083-1.958.18t-1.913.2q-.915.1-1.65.18l-1.17.12q-.24.03-.585.083l-.682.1-.533.083Zm15.66-2.385q.45-.015.855-.037t.63-.038q.465-.045,1.14-.1l1.522-.135,1.807-.158,2-.172q.78-.06,1.56-.113t1.478-.09q.7-.038,1.208-.053l.015,1.92q-.4,0-.93.015t-1.043.053a6.421,6.421,0,0,0-.923.128,3.686,3.686,0,0,0-1.252.607,4.859,4.859,0,0,0-1.013,1.012,4.657,4.657,0,0,0-.667,1.253,4.057,4.057,0,0,0-.232,1.342,3.113,3.113,0,0,0,.255,1.3,2.771,2.771,0,0,0,.713.96,4.037,4.037,0,0,0,1.072.66,6.412,6.412,0,0,0,1.327.4,11.588,11.588,0,0,0,1.478.18l-.7,2.055a9.336,9.336,0,0,1-1.838-.3,7.606,7.606,0,0,1-1.665-.66A5.55,5.55,0,0,1,67.1,86.673a4.406,4.406,0,0,1-1.245-3.158,5.533,5.533,0,0,1,.345-2,6.533,6.533,0,0,1,.855-1.582,5.054,5.054,0,0,1,1.02-1.058q-.42.045-1.013.113t-1.275.15q-.683.083-1.388.173t-1.357.2q-.653.112-1.178.217ZM3.9,99.275a5.693,5.693,0,0,0-.1.615q-.038.345-.06.675t-.023.54q-.015.495-.007,1.02t.03,1.073q.022.547.068,1.088a14.424,14.424,0,0,0,.3,1.9,3.838,3.838,0,0,0,.51,1.283.937.937,0,0,0,.8.457.687.687,0,0,0,.5-.285,2.948,2.948,0,0,0,.45-.743,8.814,8.814,0,0,0,.36-.967q.158-.51.278-.96l1.5,1.83a11.851,11.851,0,0,1-.982,2.077,3.524,3.524,0,0,1-1.013,1.11,2.068,2.068,0,0,1-1.14.338,2.538,2.538,0,0,1-1.538-.54,4.1,4.1,0,0,1-1.237-1.747,11.536,11.536,0,0,1-.72-3.218q-.075-.69-.112-1.455t-.045-1.455q-.007-.69-.007-1.14,0-.315-.03-.75a7.665,7.665,0,0,0-.09-.78Zm7.5.345a7.454,7.454,0,0,1,.81,1.245,15.272,15.272,0,0,1,.72,1.575q.33.84.585,1.717t.412,1.71a12.7,12.7,0,0,1,.2,1.522l-1.98.765q-.075-.915-.27-1.995a19.614,19.614,0,0,0-.525-2.175,15.171,15.171,0,0,0-.788-2.07,7.17,7.17,0,0,0-1.073-1.68Zm10.86-1.59q-.09.3-.18.735t-.135.675q-.1.51-.263,1.245t-.345,1.56q-.187.825-.382,1.575-.195.795-.48,1.717t-.607,1.875q-.323.953-.653,1.815t-.645,1.537l-2.085-.705q.33-.57.7-1.387t.727-1.762q.353-.945.653-1.875t.51-1.725q.15-.525.285-1.08t.24-1.08q.1-.525.188-.982t.128-.8q.045-.42.06-.84a4.622,4.622,0,0,0-.015-.675Zm-3.825,2.235q.915,0,1.905-.09t1.995-.255q1.005-.165,2-.39V101.4q-.93.21-1.98.36T20.28,102q-1.02.083-1.875.083-.54,0-.975-.022t-.84-.038l-.045-1.875q.585.06,1,.09T18.435,100.265Zm4.71,2.295q.63-.06,1.395-.1t1.485-.045q.645,0,1.313.03t1.328.1l-.045,1.8q-.555-.075-1.222-.128t-1.357-.052q-.765,0-1.478.037t-1.417.128Zm.81,3.78a6.541,6.541,0,0,0-.15.653,3.439,3.439,0,0,0-.06.592.961.961,0,0,0,.435.817,1.772,1.772,0,0,0,.622.248,4.622,4.622,0,0,0,1,.09,14.469,14.469,0,0,0,1.538-.082q.773-.083,1.582-.232l-.075,1.92q-.63.075-1.395.143t-1.665.067a5.493,5.493,0,0,1-2.888-.622,1.966,1.966,0,0,1-1-1.763,6.118,6.118,0,0,1,.09-1.035q.09-.525.18-.975Zm13-8.145q-.09.315-.187.743t-.143.683q-.1.51-.262,1.245t-.338,1.552q-.18.818-.375,1.583t-.487,1.71q-.278.93-.6,1.875t-.652,1.815q-.33.87-.645,1.545l-2.1-.705a12.725,12.725,0,0,0,.712-1.395q.367-.825.728-1.763t.66-1.875q.3-.937.51-1.717.135-.54.27-1.1t.248-1.08q.113-.525.195-.983t.127-.787q.045-.42.06-.84a4.885,4.885,0,0,0-.015-.69Zm-3.825,2.25q.915,0,1.905-.09t1.995-.262q1.005-.172,1.995-.4v1.875q-.93.225-1.98.375t-2.07.232q-1.02.083-1.875.083-.54,0-.975-.022t-.84-.038l-.045-1.875q.585.06,1.005.09T33.135,100.445Zm4.71,2.295q.63-.075,1.395-.112t1.485-.038q.645,0,1.313.03t1.327.1l-.045,1.8q-.555-.075-1.222-.135t-1.358-.06q-.78,0-1.485.037t-1.41.128Zm.81,3.765a6.382,6.382,0,0,0-.15.66,3.506,3.506,0,0,0-.06.585,1.025,1.025,0,0,0,.1.465,1,1,0,0,0,.33.368,1.685,1.685,0,0,0,.623.24,5.029,5.029,0,0,0,1,.082q.75,0,1.53-.075t1.59-.225l-.075,1.9q-.63.09-1.395.158t-1.665.067a5.439,5.439,0,0,1-2.888-.63,1.971,1.971,0,0,1-1-1.755,6.754,6.754,0,0,1,.083-1.05q.083-.525.173-.96Zm3.1-7.875q.2.27.413.645t.427.75q.21.375.345.66l-1.2.525q-.15-.315-.345-.69t-.405-.75a5.159,5.159,0,0,0-.42-.645Zm1.77-.675a6.14,6.14,0,0,1,.435.652l.443.75a6.367,6.367,0,0,1,.337.638l-1.185.51q-.24-.48-.57-1.065a9.3,9.3,0,0,0-.645-1.005Zm4.38,1.275q1.65.195,3.038.232a25.132,25.132,0,0,0,2.572-.052,19.71,19.71,0,0,0,1.98-.27,16.855,16.855,0,0,0,1.86-.465l.24,1.725q-.81.225-1.755.39t-1.935.255q-1.155.09-2.662.083t-3.233-.173Zm-.27,3.15q1.365.12,2.61.165t2.34,0q1.095-.045,1.995-.12a15.056,15.056,0,0,0,2.085-.308q.87-.2,1.515-.382l.3,1.77q-.675.165-1.485.315t-1.725.255q-.96.09-2.2.143t-2.6.03q-1.365-.022-2.73-.1Zm5.01-2.73q-.1-.42-.24-.833t-.3-.847l2.025-.225q.09.7.232,1.387t.33,1.312q.188.63.368,1.215.18.51.472,1.162t.637,1.305q.345.652.69,1.177.15.21.307.4a3.186,3.186,0,0,0,.368.368l-.915,1.38q-.42-.09-1.042-.18t-1.29-.165l-1.222-.135.15-1.425q.465.045,1.013.09t.877.09a18.627,18.627,0,0,1-1.028-1.965q-.427-.96-.712-1.785-.18-.525-.3-.908t-.217-.72Q52.755,100.01,52.65,99.65Zm-2.13,6.21a5.367,5.367,0,0,0-.465.772,2,2,0,0,0-.195.893,1.237,1.237,0,0,0,.772,1.192,5.435,5.435,0,0,0,2.257.368q1.065,0,2.018-.09t1.747-.24l-.1,1.905q-.78.135-1.755.21t-1.89.075a9.369,9.369,0,0,1-2.587-.315,3.523,3.523,0,0,1-1.687-.982,2.55,2.55,0,0,1-.615-1.732,3.67,3.67,0,0,1,.188-1.3,11.617,11.617,0,0,1,.458-1.118Zm19.035-8q-.03.225-.052.5t-.038.563q-.015.3-.03.8t-.015,1.1v2.25q0,.63.03,1.4t.083,1.56q.052.788.09,1.47t.037,1.132a2.09,2.09,0,0,1-.33,1.147,2.23,2.23,0,0,1-.983.817,3.936,3.936,0,0,1-1.642.3,4.7,4.7,0,0,1-2.73-.66,2.28,2.28,0,0,1-.487-3.187,2.907,2.907,0,0,1,1.275-.907,5.389,5.389,0,0,1,1.988-.33,9.664,9.664,0,0,1,2.3.262,10.228,10.228,0,0,1,1.957.683,12.106,12.106,0,0,1,1.575.885q.69.465,1.17.84l-1.08,1.68a13.256,13.256,0,0,0-1.207-1,10.493,10.493,0,0,0-1.455-.9,8.931,8.931,0,0,0-1.665-.653,6.794,6.794,0,0,0-1.853-.247,2.262,2.262,0,0,0-1.207.27.778.778,0,0,0-.427.66.736.736,0,0,0,.18.5,1.088,1.088,0,0,0,.525.315,3.04,3.04,0,0,0,.87.105,2.387,2.387,0,0,0,.7-.09.835.835,0,0,0,.457-.33,1.181,1.181,0,0,0,.165-.675q0-.33-.022-.945t-.052-1.357q-.03-.743-.06-1.463t-.03-1.275q0-.54.007-1.132t.007-1.177q0-.585.007-1.073t.007-.8q0-.21-.022-.518a3.873,3.873,0,0,0-.067-.518Zm-6.225,1.41q.405.06.9.12t1.013.113q.518.052.982.075t.81.022q1.53,0,3.053-.1t3.157-.368l-.015,1.725q-.765.1-1.77.195t-2.138.143q-1.132.052-2.272.052-.465,0-1.147-.037t-1.357-.1q-.675-.068-1.17-.128Zm-.075,3.24q.36.06.855.12t1.012.09q.518.03.982.052t.765.023q1.4,0,2.528-.06t2.122-.15q.99-.09,1.905-.21l-.015,1.77q-.78.09-1.507.15t-1.485.1q-.757.045-1.627.06t-1.95.015q-.435,0-1.08-.023t-1.312-.067q-.667-.045-1.178-.1Zm22.29-4.6q-.015.12-.037.382t-.037.525q-.015.263-.03.382-.015.3-.015.8v1.118q0,.615.007,1.237t.015,1.17q.007.547.007.908l-1.875-.63v-1.793q0-.562-.007-1.117T83.55,99.89q-.015-.45-.03-.675-.03-.465-.075-.817t-.075-.487ZM77.07,99.77q.66,0,1.5-.015l1.755-.03,1.8-.03q.885-.015,1.665-.022t1.35-.007q.57,0,1.245-.007t1.335-.007h2.055l-.015,1.77q-.705-.03-1.86-.052t-2.82-.022q-1.02,0-2.07.022t-2.085.052q-1.035.03-2,.068t-1.815.1Zm8.115,4.44a6.076,6.076,0,0,1-.292,2.04,2.288,2.288,0,0,1-2.333,1.635,2.394,2.394,0,0,1-.877-.18,2.848,2.848,0,0,1-.848-.525,2.519,2.519,0,0,1-.622-.855,2.871,2.871,0,0,1-.232-1.2,2.649,2.649,0,0,1,.4-1.478,2.809,2.809,0,0,1,1.088-.975,3.236,3.236,0,0,1,1.507-.353,2.936,2.936,0,0,1,1.657.442,2.756,2.756,0,0,1,1.005,1.193,4.087,4.087,0,0,1,.337,1.695,5.288,5.288,0,0,1-.24,1.53,5.235,5.235,0,0,1-.787,1.552,5.651,5.651,0,0,1-1.47,1.373,8.122,8.122,0,0,1-2.3,1l-1.605-1.59a11.313,11.313,0,0,0,1.785-.51,5.658,5.658,0,0,0,1.448-.8,3.394,3.394,0,0,0,.975-1.185,3.755,3.755,0,0,0,.353-1.695,1.486,1.486,0,0,0-.353-1.08,1.144,1.144,0,0,0-.848-.36,1.227,1.227,0,0,0-.555.135,1.058,1.058,0,0,0-.435.4,1.243,1.243,0,0,0-.165.66,1.031,1.031,0,0,0,.353.817,1.187,1.187,0,0,0,.8.308.984.984,0,0,0,.638-.225,1.185,1.185,0,0,0,.368-.75,3.437,3.437,0,0,0-.15-1.41Zm7.11,2.07a2.311,2.311,0,0,1,1.23.33,2.564,2.564,0,0,1,.87.878,2.416,2.416,0,0,1,0,2.438,2.543,2.543,0,0,1-.87.885,2.429,2.429,0,0,1-2.445,0,2.441,2.441,0,0,1-.878-.885,2.464,2.464,0,0,1,0-2.437,2.46,2.46,0,0,1,.878-.878A2.334,2.334,0,0,1,92.295,106.28Zm.015,3.78a1.275,1.275,0,0,0,.945-.4,1.312,1.312,0,0,0,.39-.952,1.326,1.326,0,0,0-.18-.683,1.341,1.341,0,0,0-.488-.487,1.342,1.342,0,0,0-1.342,0,1.422,1.422,0,0,0-.488.487,1.336,1.336,0,0,0,0,1.365,1.422,1.422,0,0,0,.488.487A1.286,1.286,0,0,0,92.31,110.06Z" transform="translate(236.936 8055.676)" fill="#333"/>
    <rect id="長方形_443" data-name="長方形 443" width="123.464" height="2.434" transform="translate(234.471 8124.496)" fill="#e61400"/>
    <rect id="長方形_444" data-name="長方形 444" width="35.464" height="2.434" transform="translate(234.471 8145.496)" fill="#e61400"/>
    <g id="グループ_805" data-name="グループ 805" transform="translate(-4801.905 6802.496)">
      <circle id="楕円形_3" data-name="楕円形 3" cx="11.938" cy="11.938" r="11.938" transform="translate(5002.841 1230.18)" fill="#82c195"/>
      <g id="グループ_30" data-name="グループ 30" transform="translate(5009.841 1234.18)">
        <path id="パス_811" data-name="パス 811" d="M-5.156,0l.948-2.964h.7L-2.56,0h-.624L-3.6-1.544q-.068-.232-.13-.482t-.13-.486H-3.88q-.056.24-.122.488t-.13.48L-4.556,0Zm.588-.76v-.46H-3.16v.46Zm2.5.76V-2.42a1.086,1.086,0,0,1,.078-.42.638.638,0,0,1,.248-.3.818.818,0,0,1,.45-.11,1.129,1.129,0,0,1,.244.024,1.449,1.449,0,0,1,.184.052l-.108.44a.563.563,0,0,0-.24-.052.249.249,0,0,0-.2.084.408.408,0,0,0-.072.268V0Zm-.3-1.776v-.436l.336-.028h.98v.464ZM.3.056A.777.777,0,0,1-.128-.05.593.593,0,0,1-.364-.344,1.215,1.215,0,0,1-.436-.78v-1H-.752v-.436L-.4-2.24l.068-.6H.148v.6H.7v.464H.148v.992A.425.425,0,0,0,.228-.5a.286.286,0,0,0,.228.092A.45.45,0,0,0,.572-.424q.06-.016.1-.032l.1.428Q.684,0,.566.028A1.155,1.155,0,0,1,.3.056Zm1.9,0a1.141,1.141,0,0,1-.564-.14,1.036,1.036,0,0,1-.4-.4,1.259,1.259,0,0,1-.15-.632,1.31,1.31,0,0,1,.086-.488,1.114,1.114,0,0,1,.236-.37,1.069,1.069,0,0,1,.336-.236A.947.947,0,0,1,2.128-2.3a.913.913,0,0,1,.516.138.857.857,0,0,1,.314.38,1.369,1.369,0,0,1,.106.554,1.433,1.433,0,0,1-.008.154.789.789,0,0,1-.02.118H1.656a.7.7,0,0,0,.108.3.529.529,0,0,0,.216.186.7.7,0,0,0,.3.062.843.843,0,0,0,.256-.038A1.11,1.11,0,0,0,2.78-.552l.2.36a1.476,1.476,0,0,1-.368.18A1.3,1.3,0,0,1,2.2.056Zm-.556-1.4H2.56a.576.576,0,0,0-.1-.358.379.379,0,0,0-.322-.134.471.471,0,0,0-.22.054.468.468,0,0,0-.176.164A.673.673,0,0,0,1.644-1.348ZM3.708,0V-2.24h.48l.044.4h.012a.987.987,0,0,1,.292-.336A.6.6,0,0,1,4.88-2.3a.68.68,0,0,1,.154.014.707.707,0,0,1,.106.034l-.1.508L4.93-1.766a.659.659,0,0,0-.126-.01.474.474,0,0,0-.27.1.737.737,0,0,0-.238.34V0Z" transform="translate(5 5)" fill="#fff"/>
        <path id="パス_810" data-name="パス 810" d="M-2.745.126A1.9,1.9,0,0,1-3.937-.266a2.489,2.489,0,0,1-.787-1.148A5.386,5.386,0,0,1-5-3.267a5.3,5.3,0,0,1,.279-1.849,2.4,2.4,0,0,1,.787-1.121,1.944,1.944,0,0,1,1.192-.378,1.944,1.944,0,0,1,1.193.378A2.4,2.4,0,0,1-.765-5.116,5.3,5.3,0,0,1-.486-3.267,5.386,5.386,0,0,1-.765-1.413,2.489,2.489,0,0,1-1.553-.266,1.9,1.9,0,0,1-2.745.126Zm0-1.035a.739.739,0,0,0,.522-.211,1.473,1.473,0,0,0,.351-.729,6.267,6.267,0,0,0,.126-1.417A6.133,6.133,0,0,0-1.872-4.68a1.367,1.367,0,0,0-.351-.7.766.766,0,0,0-.522-.2.76.76,0,0,0-.508.2,1.391,1.391,0,0,0-.365.7,5.739,5.739,0,0,0-.135,1.413A5.863,5.863,0,0,0-3.618-1.85a1.5,1.5,0,0,0,.365.729A.734.734,0,0,0-2.745-.909ZM2.547.126A3.324,3.324,0,0,1,1.611,0,2.694,2.694,0,0,1,.877-.329,2.853,2.853,0,0,1,.324-.8l.621-.837a3.551,3.551,0,0,0,.67.482,1.648,1.648,0,0,0,.814.2,1.592,1.592,0,0,0,.6-.1.865.865,0,0,0,.4-.3.807.807,0,0,0,.139-.477.939.939,0,0,0-.158-.544,1,1,0,0,0-.553-.351,3.987,3.987,0,0,0-1.116-.122v-.954A2.944,2.944,0,0,0,2.7-3.933a.986.986,0,0,0,.5-.342.853.853,0,0,0,.148-.495.751.751,0,0,0-.234-.594.959.959,0,0,0-.657-.207,1.388,1.388,0,0,0-.653.158,2.728,2.728,0,0,0-.6.437l-.684-.81a4.019,4.019,0,0,1,.927-.6A2.518,2.518,0,0,1,2.52-6.615a2.941,2.941,0,0,1,1.129.2,1.67,1.67,0,0,1,.76.594,1.631,1.631,0,0,1,.27.95,1.386,1.386,0,0,1-.288.886,1.952,1.952,0,0,1-.819.581v.045a2.055,2.055,0,0,1,.671.315,1.6,1.6,0,0,1,.477.536,1.537,1.537,0,0,1,.175.752A1.639,1.639,0,0,1,4.576-.738a2,2,0,0,1-.855.644A3.056,3.056,0,0,1,2.547.126Z" transform="translate(5.476 13.461)" fill="#fff"/>
      </g>
    </g>
  </g>
</svg>
