<svg xmlns="http://www.w3.org/2000/svg" xmlns:xlink="http://www.w3.org/1999/xlink" width="187.451" height="243.039" viewBox="0 0 187.451 243.039">
  <defs>
    <clipPath id="clip-path">
      <path id="パス_374" data-name="パス 374" d="M589.939,12583.285a89.726,89.726,0,1,1-179.451,0c0-49.555-6.824-149.313,89.725-149.313C602.009,12433.972,589.939,12533.73,589.939,12583.285Z" fill="none"/>
    </clipPath>
  </defs>
  <g id="グループ_604" data-name="グループ 604" transform="translate(-406.488 -12433.972)">
    <g id="グループ_600" data-name="グループ 600">
      <circle id="楕円形_304" data-name="楕円形 304" cx="91.726" cy="91.726" r="91.726" transform="translate(408.488 12491.559)" fill="#fff"/>
      <path id="パス_360" data-name="パス 360" d="M500.214,12493.559a89.726,89.726,0,1,1-89.726,89.727,89.726,89.726,0,0,1,89.726-89.727m0-4a93.726,93.726,0,1,0,93.725,93.727,93.832,93.832,0,0,0-93.725-93.727Z" fill="#333"/>
    </g>
    <g id="グループ_603" data-name="グループ 603">
      <g id="グループ_602" data-name="グループ 602" clip-path="url(#clip-path)">
        <g id="グループ_601" data-name="グループ 601">
          <path id="パス_361" data-name="パス 361" d="M456.569,12629.074c-6.436,19.367-8.978,47.257-8.978,47.257h114.36s-4.828-28.565-12.155-48.559-15.516-35.682-27.659-46.254c-10.015-8.721-35.155-6.137-40.482-.553C473.852,12589.143,463,12609.709,456.569,12629.074Z" fill="#333"/>
          <path id="パス_361_-_アウトライン" data-name="パス 361 - アウトライン" d="M561.951,12679.213H447.591a2.881,2.881,0,0,1-2.87-3.144c.105-1.152,2.647-28.444,9.113-47.9,6.455-19.432,17.519-40.578,25.736-49.188,3.958-4.149,14.046-6.007,22.287-6.007,5.546,0,15.8.828,22.172,6.376,11.26,9.8,20.041,24.433,28.472,47.436,7.334,20.012,12.092,47.893,12.291,49.069a2.882,2.882,0,0,1-2.841,3.362Zm-111.162-5.764H558.5c-1.509-8.1-5.725-29.163-11.413-44.686-8.078-22.04-16.358-35.94-26.846-45.072-3.619-3.151-10.321-4.959-18.387-4.959-8.82,0-16.138,2.147-18.118,4.223-7.582,7.944-18.315,28.6-24.436,47.027C454.3,12645.051,451.657,12665.667,450.789,12673.449Z" fill="#333"/>
          <path id="パス_362" data-name="パス 362" d="M501.555,12642.292s30.855-48.958,22.872-55.909c-6.585-5.733-42.011-3.043-44.9,1.13C471.625,12598.949,501.555,12642.292,501.555,12642.292Z" fill="#fff"/>
          <path id="パス_362_-_アウトライン" data-name="パス 362 - アウトライン" d="M501.555,12645.174a2.883,2.883,0,0,1-2.371-1.244c-5.187-7.512-30.626-45.611-22.024-58.056,3.867-5.591,28.643-5.655,28.893-5.655,10.407,0,17.225,1.343,20.267,3.991,8.885,7.736-12.653,44.271-22.326,59.618a2.882,2.882,0,0,1-2.377,1.345Zm4.5-59.191c-12.206,0-22.713,2.018-24.307,3.352-4.207,6.125,8.31,30.368,19.711,47.658,15.424-25.172,23.831-46.04,21.079-48.437C521.171,12587.368,516.036,12585.982,506.052,12585.982Z" fill="#333"/>
          <path id="パス_363" data-name="パス 363" d="M546.28,12499.349c.764,7.344,1.272,14.927,1.35,22.44.056,5.455,8.006,9.564,7.544,14.833-.344,3.961-3.812,8.895-9.677,12.884-2.821,15-8.742,27.791-19.558,35.155-18.838,12.822-44.463,10.7-58.464-7.535-5.493-7.149-9.351-17.03-11.808-27.8-14.429-5.5-12.225-7.261-12.735-12.279-.532-5.249,9.583-13.046,9.686-18.213.217-10.938,1.853-21.319,4.9-29.543,8.315-22.439,20.066-27.015,46.869-27.048C533.732,12462.2,543.427,12471.919,546.28,12499.349Z" fill="#fff"/>
          <path id="パス_363_-_アウトライン" data-name="パス 363 - アウトライン" d="M504.581,12460.242a74.568,74.568,0,0,1,18.944,2.016,28.47,28.47,0,0,1,21.02,19.053,73.746,73.746,0,0,1,3.725,17.831c.83,7.977,1.288,15.589,1.361,22.627.02,1.971,1.661,3.976,3.4,6.1a29.689,29.689,0,0,1,2.865,3.917,8.456,8.456,0,0,1,1.273,5.013,15.134,15.134,0,0,1-3.151,7.443,30.1,30.1,0,0,1-6.708,6.441,73.257,73.257,0,0,1-6.825,20.2,42.311,42.311,0,0,1-13.418,15.431,49.4,49.4,0,0,1-13.192,6.366,47.413,47.413,0,0,1-14.024,2.14,44.973,44.973,0,0,1-9.537-1.016,42.692,42.692,0,0,1-9.081-3.069,41.4,41.4,0,0,1-8.264-5.15,42.275,42.275,0,0,1-7.078-7.241,57.654,57.654,0,0,1-7.3-12.992,95.722,95.722,0,0,1-4.626-14.541c-5.634-2.2-8.841-3.906-10.631-5.648-2.166-2.107-2.229-4.169-2.289-6.163-.017-.559-.035-1.136-.1-1.751a9.554,9.554,0,0,1,1.646-5.734,52.838,52.838,0,0,1,3.669-5.225c2.028-2.659,4.326-5.674,4.362-7.5.228-11.5,1.966-21.943,5.025-30.2a55.7,55.7,0,0,1,7.338-14.193,30.594,30.594,0,0,1,10.09-8.8,41.874,41.874,0,0,1,13.546-4.253,116.46,116.46,0,0,1,17.769-1.108Zm-4.733,130.578a43.4,43.4,0,0,0,12.842-1.961,45.376,45.376,0,0,0,12.123-5.852,34.969,34.969,0,0,0,6.83-6.141,43.165,43.165,0,0,0,5.306-7.86,70.085,70.085,0,0,0,6.582-19.871,2,2,0,0,1,.841-1.283,26.622,26.622,0,0,0,6.424-5.986,11.236,11.236,0,0,0,2.385-5.417c.165-1.877-1.493-3.9-3.249-6.049-2-2.444-4.268-5.215-4.3-8.591-.072-6.914-.522-14.4-1.339-22.254a69.922,69.922,0,0,0-3.5-16.857,24.506,24.506,0,0,0-18.294-16.574,70.734,70.734,0,0,0-17.918-1.882h-.19a112.674,112.674,0,0,0-17.155,1.061,37.968,37.968,0,0,0-12.266,3.821,26.668,26.668,0,0,0-8.789,7.678,51.836,51.836,0,0,0-6.786,13.184,72.407,72.407,0,0,0-3.414,13.381,109.921,109.921,0,0,0-1.363,15.507c-.062,3.129-2.548,6.39-5.18,9.841a50.089,50.089,0,0,0-3.39,4.808,6.2,6.2,0,0,0-1.126,3.322c.077.756.1,1.436.116,2.034.052,1.725.074,2.438,1.081,3.418,1.438,1.4,4.7,3.039,10.262,5.16a2,2,0,0,1,1.237,1.425,92.988,92.988,0,0,0,4.662,14.935,53.674,53.674,0,0,0,6.782,12.092,37.437,37.437,0,0,0,13.872,11.208,38.716,38.716,0,0,0,8.229,2.781A40.96,40.96,0,0,0,499.849,12590.82Z" fill="#333"/>
          <path id="パス_364" data-name="パス 364" d="M496.552,12553.058a8.227,8.227,0,0,1-5.209-1.392,4.286,4.286,0,0,1-1.648-3.528,163.141,163.141,0,0,1,1.785-18.263,2,2,0,0,1,3.958.578,151.155,151.155,0,0,0-1.743,17.724c0,.247.053.291.131.353.45.358,1.785.666,4.182.462a26.127,26.127,0,0,0,3.515-.558,2,2,0,0,1,.955,3.885,29.845,29.845,0,0,1-4.073.653Q497.42,12553.058,496.552,12553.058Z" fill="#333"/>
          <path id="パス_365" data-name="パス 365" d="M498.767,12572.971h-.189a14.68,14.68,0,0,1-7.312-2.4,19.682,19.682,0,0,1-5.512-5.057,2,2,0,0,1,3.25-2.332,15.809,15.809,0,0,0,4.374,3.991,10.645,10.645,0,0,0,5.24,1.795h.151c4.288,0,8.006-1.769,11.686-5.557a2,2,0,1,1,2.869,2.787C508.9,12570.755,504.136,12572.971,498.767,12572.971Z" fill="#333"/>
          <path id="パス_366" data-name="パス 366" d="M542.468,12524.056c3.967-.87,20.178-2.086,19.791,10.624s-15.7,14.073-16.492,14.065" fill="#fff"/>
          <path id="パス_366_-_アウトライン" data-name="パス 366 - アウトライン" d="M545.764,12550.745h-.017a2,2,0,0,1,.014-4,22.4,22.4,0,0,0,7.69-2.144,13.183,13.183,0,0,0,4.661-3.67,10.633,10.633,0,0,0,2.147-6.312,7.446,7.446,0,0,0-2.537-6.387c-2.216-1.839-5.525-2.433-7.91-2.606a26.753,26.753,0,0,0-6.916.383,2,2,0,1,1-.857-3.906c3.2-.7,12.723-1.524,18.238,3.052a10.645,10.645,0,0,1,2.993,3.959,12.99,12.99,0,0,1,.988,5.627c-.183,6.02-3.372,10.7-9.22,13.539A25.886,25.886,0,0,1,545.764,12550.745Z" fill="#333"/>
          <path id="パス_367" data-name="パス 367" d="M451.827,12522.645c-4.059-.048-16.161,1.687-13.206,14.054s15.82,10.258,16.594,10.089" fill="#fff"/>
          <path id="パス_367_-_アウトライン" data-name="パス 367 - アウトライン" d="M452.3,12549.028a19.587,19.587,0,0,1-5.086-.654c-3.833-1.039-8.773-3.826-10.537-11.211a15.593,15.593,0,0,1-.31-6.41,10.645,10.645,0,0,1,2.157-4.791,13.753,13.753,0,0,1,7.038-4.418,22.185,22.185,0,0,1,6.111-.9h.178a2,2,0,0,1-.023,4h-.175c-2.656,0-7.593.8-10,3.814a6.606,6.606,0,0,0-1.348,3.014,11.662,11.662,0,0,0,.265,4.762,11.48,11.48,0,0,0,3.134,5.8,10.488,10.488,0,0,0,4.505,2.46,16.292,16.292,0,0,0,6.585.335,1.953,1.953,0,0,1,.428-.047,2,2,0,0,1,.422,3.955A17.59,17.59,0,0,1,452.3,12549.028Z" fill="#333"/>
          <path id="パス_368" data-name="パス 368" d="M482.962,12525.825a4.31,4.31,0,1,1-4.269-4.354A4.312,4.312,0,0,1,482.962,12525.825Z" fill="#333"/>
          <path id="パス_369" data-name="パス 369" d="M522.564,12525.825a4.312,4.312,0,1,1-4.272-4.354A4.313,4.313,0,0,1,522.564,12525.825Z" fill="#333"/>
          <path id="パス_370" data-name="パス 370" d="M542.365,12453.848c-12.207-6.613-16.4,1.4-26.707-7.611-22.7-19.844-53.589,4.989-61.29,19.793-5.072,9.753-12.587,22.78-8.471,42.354,6.516-4.2,31.757-10.557,38.53-14.452,10.983-6.312-2.508,5.7-4.222,13.857,8.356-.123,37.482-16.061,41.657-16.759,15.523,12.555,19.759,25.685,22.237,48.683,3.028-7.327,1.112-10.477,4.3-13.256,4.192-3.648,3.621-6.309,8.96-1.031,3.523-12.5,4.3-26.436,2.9-39.631C558.97,12473.638,553.133,12459.682,542.365,12453.848Z" fill="#333"/>
          <path id="パス_370_-_アウトライン" data-name="パス 370 - アウトライン" d="M496.462,12435.974a31.292,31.292,0,0,1,21.093,8.093c4.23,3.7,7.054,4,10.05,4l3.2-.04a25.089,25.089,0,0,1,12.933,3.289c12.332,6.681,18.1,22.035,19.385,34.177a109.357,109.357,0,0,1-2.991,40.716,2.882,2.882,0,0,1-4.8,1.269,20.436,20.436,0,0,0-2.136-1.912,1.884,1.884,0,0,1-.417.574,28.612,28.612,0,0,1-2.49,2.493c-.877.765-1.007,1.444-1.323,3.682a32.143,32.143,0,0,1-2.2,8.5,2.881,2.881,0,0,1-5.528-.792c-2.306-21.4-5.945-33.912-20.013-45.784-2.162.836-6.541,2.9-10.492,4.765-13.915,6.562-25,11.588-30.481,11.668a2.748,2.748,0,0,1-2.266-1.049,2.88,2.88,0,0,1-.6-2.425,27.935,27.935,0,0,1,4.154-8.771c-3.83,1.526-8.984,3.207-14.343,4.954-7.792,2.54-16.625,5.419-19.738,7.426a2.881,2.881,0,0,1-4.381-1.829c-4.139-19.683,2.889-33.108,8.021-42.912l.713-1.364C458.077,12452.656,477.079,12435.974,496.462,12435.974Zm31.143,17.855c-3.7,0-8.119-.42-13.843-5.423a25.683,25.683,0,0,0-17.3-6.67c-16.875,0-34.09,15.15-39.538,25.623l-.72,1.378c-4.629,8.843-10.308,19.69-8.142,35.309,4.361-1.912,10.717-3.984,17.347-6.146,7.192-2.345,14.629-4.769,17.581-6.467,3.129-1.8,4.328-2.15,5.341-2.15a3.556,3.556,0,0,1,2.881,1.7c1.066,2.042-.183,3.832-2.669,7.4-1.125,1.612-2.476,3.549-3.574,5.463,6.371-2.067,16.213-6.709,23.3-10.052,7.357-3.47,11.281-5.294,13.116-5.6a2.879,2.879,0,0,1,2.287.6c13.026,10.535,18.445,21.574,21.373,37.095a8.96,8.96,0,0,1,1.457-1.6,22.992,22.992,0,0,0,2.009-2.021c1.144-1.26,2.44-2.687,4.565-2.688h0a5.186,5.186,0,0,1,2.6.74,106.113,106.113,0,0,0,1.711-34.218c-1.079-10.2-6.022-24.095-16.4-29.718a19.486,19.486,0,0,0-10.188-2.592Z" fill="#333"/>
          <path id="パス_371" data-name="パス 371" d="M446.916,12522.99c5.083-5.93,8.194,20.965,7.029,11.938-.814-6.314,1.27-28.8,3.388-41.932.573-3.549-10.589,8.047-10.589,16.942C446.744,12512.248,446.228,12518.742,446.916,12522.99Z" fill="#333"/>
          <path id="パス_371_-_アウトライン" data-name="パス 371 - アウトライン" d="M454.189,12539.68a3.184,3.184,0,0,1-2.887-2.652c-1.167-6.674-2.42-10.044-3.175-11.463a2.91,2.91,0,0,1-4.055-2.113,63.206,63.206,0,0,1-.274-11.294l.065-2.219c0-8.034,8.75-20.479,13.17-20.479a3.479,3.479,0,0,1,2.426,1.108,4.3,4.3,0,0,1,.719,2.888c-2.125,13.174-4.14,35.168-3.375,41.1l.189,1.436a3.875,3.875,0,0,1-.634,2.7A2.881,2.881,0,0,1,454.189,12539.68Zm-4.712-20.315a4.282,4.282,0,0,1,1.873,1c.471-6.568,1.246-14.029,2.074-20.422-1.892,2.945-3.8,6.763-3.8,9.993l-.069,2.436C449.483,12514.327,449.384,12516.958,449.477,12519.364Z" fill="#333"/>
          <path id="パス_372" data-name="パス 372" d="M482.216,12608.433a2,2,0,0,1-1.163-3.628l18.213-12.989a2,2,0,0,1,2.131-.121l20.893,11.578a2,2,0,1,1-1.939,3.5l-19.79-10.966-17.186,12.256A1.992,1.992,0,0,1,482.216,12608.433Z" fill="#333"/>
          <path id="パス_373" data-name="パス 373" d="M496.754,12597.538l4.236-3.107,5.649,3.389-4.236,4.378,6.072,39.813-14.12-.282,5.93-39.391Z" fill="#333"/>
          <path id="パス_373_-_アウトライン" data-name="パス 373 - アウトライン" d="M500.989,12591.549a2.88,2.88,0,0,1,1.482.411l5.649,3.389a2.881,2.881,0,0,1,.589,4.475l-3.243,3.352,5.857,38.4a2.882,2.882,0,0,1-.682,2.334,2.93,2.93,0,0,1-2.224.981l-14.12-.282a2.882,2.882,0,0,1-2.792-3.31l5.753-38.214-2.825-3.841a2.881,2.881,0,0,1,.617-4.03l4.236-3.107A2.877,2.877,0,0,1,500.989,12591.549Zm1.054,6.875-.894-.537-.365.268.656.893Zm3.066,40.638-3.744-24.549-3.673,24.4Z" fill="#333"/>
        </g>
      </g>
    </g>
  </g>
</svg>
