<svg xmlns="http://www.w3.org/2000/svg" width="960" height="680" viewBox="0 0 960 680">
  <g id="グループ_486" data-name="グループ 486" transform="translate(-203 -2295.038)">
    <rect id="長方形_267" data-name="長方形 267" width="960" height="680" rx="10" transform="translate(203 2295.038)" fill="#fff"/>
    <path id="長方形_268" data-name="長方形 268" d="M9.972-1.5H19.985a1.5,1.5,0,0,1,1.5,1.5,1.5,1.5,0,0,1-1.5,1.5H9.976A1.5,1.5,0,0,1,8.476,0,1.5,1.5,0,0,1,9.972-1.5Zm20,0h9.985a1.5,1.5,0,0,1,1.5,1.5,1.5,1.5,0,0,1-1.5,1.5H29.971a1.5,1.5,0,0,1-1.5-1.5A1.5,1.5,0,0,1,29.971-1.5Zm19.971,0h9.985a1.5,1.5,0,0,1,1.5,1.5,1.5,1.5,0,0,1-1.5,1.5H49.941a1.5,1.5,0,0,1-1.5-1.5A1.5,1.5,0,0,1,49.941-1.5Zm19.971,0H79.9A1.5,1.5,0,0,1,81.4,0a1.5,1.5,0,0,1-1.5,1.5H69.912a1.5,1.5,0,0,1-1.5-1.5A1.5,1.5,0,0,1,69.912-1.5Zm19.971,0h9.985a1.5,1.5,0,0,1,1.5,1.5,1.5,1.5,0,0,1-1.5,1.5H89.883a1.5,1.5,0,0,1-1.5-1.5A1.5,1.5,0,0,1,89.883-1.5Zm19.971,0h9.985a1.5,1.5,0,0,1,1.5,1.5,1.5,1.5,0,0,1-1.5,1.5h-9.985a1.5,1.5,0,0,1-1.5-1.5A1.5,1.5,0,0,1,109.854-1.5Zm19.971,0h9.985a1.5,1.5,0,0,1,1.5,1.5,1.5,1.5,0,0,1-1.5,1.5h-9.985a1.5,1.5,0,0,1-1.5-1.5A1.5,1.5,0,0,1,129.824-1.5Zm19.971,0h9.985a1.5,1.5,0,0,1,1.5,1.5,1.5,1.5,0,0,1-1.5,1.5H149.8A1.5,1.5,0,0,1,148.3,0,1.5,1.5,0,0,1,149.8-1.5Zm19.971,0h9.985a1.5,1.5,0,0,1,1.5,1.5,1.5,1.5,0,0,1-1.5,1.5h-9.985a1.5,1.5,0,0,1-1.5-1.5A1.5,1.5,0,0,1,169.766-1.5Zm19.971,0h9.985a1.5,1.5,0,0,1,1.5,1.5,1.5,1.5,0,0,1-1.5,1.5h-9.985a1.5,1.5,0,0,1-1.5-1.5A1.5,1.5,0,0,1,189.737-1.5Zm19.971,0h9.985a1.5,1.5,0,0,1,1.5,1.5,1.5,1.5,0,0,1-1.5,1.5h-9.985a1.5,1.5,0,0,1-1.5-1.5A1.5,1.5,0,0,1,209.707-1.5Zm19.971,0h9.985a1.5,1.5,0,0,1,1.5,1.5,1.5,1.5,0,0,1-1.5,1.5h-9.985a1.5,1.5,0,0,1-1.5-1.5A1.5,1.5,0,0,1,229.678-1.5Zm19.971,0h9.985a1.5,1.5,0,0,1,1.5,1.5,1.5,1.5,0,0,1-1.5,1.5h-9.985a1.5,1.5,0,0,1-1.5-1.5A1.5,1.5,0,0,1,249.649-1.5Zm19.971,0h9.985a1.5,1.5,0,0,1,1.5,1.5,1.5,1.5,0,0,1-1.5,1.5H269.62a1.5,1.5,0,0,1-1.5-1.5A1.5,1.5,0,0,1,269.62-1.5Zm19.971,0h9.985a1.5,1.5,0,0,1,1.5,1.5,1.5,1.5,0,0,1-1.5,1.5H289.59a1.5,1.5,0,0,1-1.5-1.5A1.5,1.5,0,0,1,289.59-1.5Zm19.971,0h9.985a1.5,1.5,0,0,1,1.5,1.5,1.5,1.5,0,0,1-1.5,1.5h-9.985a1.5,1.5,0,0,1-1.5-1.5A1.5,1.5,0,0,1,309.561-1.5Zm19.971,0h9.985a1.5,1.5,0,0,1,1.5,1.5,1.5,1.5,0,0,1-1.5,1.5h-9.985a1.5,1.5,0,0,1-1.5-1.5A1.5,1.5,0,0,1,329.532-1.5Zm19.971,0h9.985a1.5,1.5,0,0,1,1.5,1.5,1.5,1.5,0,0,1-1.5,1.5H349.5A1.5,1.5,0,0,1,348,0,1.5,1.5,0,0,1,349.5-1.5Zm19.971,0h9.985a1.5,1.5,0,0,1,1.5,1.5,1.5,1.5,0,0,1-1.5,1.5h-9.985a1.5,1.5,0,0,1-1.5-1.5A1.5,1.5,0,0,1,369.474-1.5Zm19.971,0h9.985a1.5,1.5,0,0,1,1.5,1.5,1.5,1.5,0,0,1-1.5,1.5h-9.985a1.5,1.5,0,0,1-1.5-1.5A1.5,1.5,0,0,1,389.444-1.5Zm19.971,0H419.4A1.5,1.5,0,0,1,420.9,0a1.5,1.5,0,0,1-1.5,1.5h-9.985a1.5,1.5,0,0,1-1.5-1.5A1.5,1.5,0,0,1,409.415-1.5Zm19.971,0h9.985a1.5,1.5,0,0,1,1.5,1.5,1.5,1.5,0,0,1-1.5,1.5h-9.985a1.5,1.5,0,0,1-1.5-1.5A1.5,1.5,0,0,1,429.386-1.5Zm19.971,0h9.985a1.5,1.5,0,0,1,1.5,1.5,1.5,1.5,0,0,1-1.5,1.5h-9.985a1.5,1.5,0,0,1-1.5-1.5A1.5,1.5,0,0,1,449.357-1.5Zm19.971,0h9.985a1.5,1.5,0,0,1,1.5,1.5,1.5,1.5,0,0,1-1.5,1.5h-9.985a1.5,1.5,0,0,1-1.5-1.5A1.5,1.5,0,0,1,469.327-1.5Zm19.971,0h9.985a1.5,1.5,0,0,1,1.5,1.5,1.5,1.5,0,0,1-1.5,1.5H489.3A1.5,1.5,0,0,1,487.8,0,1.5,1.5,0,0,1,489.3-1.5Zm19.971,0h9.985a1.5,1.5,0,0,1,1.5,1.5,1.5,1.5,0,0,1-1.5,1.5h-9.985a1.5,1.5,0,0,1-1.5-1.5A1.5,1.5,0,0,1,509.269-1.5Zm19.971,0h9.985a1.5,1.5,0,0,1,1.5,1.5,1.5,1.5,0,0,1-1.5,1.5H529.24a1.5,1.5,0,0,1-1.5-1.5A1.5,1.5,0,0,1,529.24-1.5Zm19.971,0H559.2A1.5,1.5,0,0,1,560.7,0a1.5,1.5,0,0,1-1.5,1.5H549.21a1.5,1.5,0,0,1-1.5-1.5A1.5,1.5,0,0,1,549.21-1.5Zm19.971,0h9.985a1.5,1.5,0,0,1,1.5,1.5,1.5,1.5,0,0,1-1.5,1.5h-9.985a1.5,1.5,0,0,1-1.5-1.5A1.5,1.5,0,0,1,569.181-1.5Zm19.971,0h9.985a1.5,1.5,0,0,1,1.5,1.5,1.5,1.5,0,0,1-1.5,1.5h-9.985a1.5,1.5,0,0,1-1.5-1.5A1.5,1.5,0,0,1,589.152-1.5Zm19.971,0h9.985a1.5,1.5,0,0,1,1.5,1.5,1.5,1.5,0,0,1-1.5,1.5h-9.985a1.5,1.5,0,0,1-1.5-1.5A1.5,1.5,0,0,1,609.123-1.5Zm19.971,0h9.985a1.5,1.5,0,0,1,1.5,1.5,1.5,1.5,0,0,1-1.5,1.5h-9.985a1.5,1.5,0,0,1-1.5-1.5A1.5,1.5,0,0,1,629.093-1.5Zm19.971,0h9.985a1.5,1.5,0,0,1,1.5,1.5,1.5,1.5,0,0,1-1.5,1.5h-9.985a1.5,1.5,0,0,1-1.5-1.5A1.5,1.5,0,0,1,649.064-1.5Zm19.971,0h9.985a1.5,1.5,0,0,1,1.5,1.5,1.5,1.5,0,0,1-1.5,1.5h-9.985a1.5,1.5,0,0,1-1.5-1.5A1.5,1.5,0,0,1,669.035-1.5Zm19.971,0h9.985a1.5,1.5,0,0,1,1.5,1.5,1.5,1.5,0,0,1-1.5,1.5h-9.985a1.5,1.5,0,0,1-1.5-1.5A1.5,1.5,0,0,1,689.005-1.5Zm19.971,0h9.985a1.5,1.5,0,0,1,1.5,1.5,1.5,1.5,0,0,1-1.5,1.5h-9.985a1.5,1.5,0,0,1-1.5-1.5A1.5,1.5,0,0,1,708.976-1.5Zm19.971,0h9.985a1.5,1.5,0,0,1,1.5,1.5,1.5,1.5,0,0,1-1.5,1.5h-9.985a1.5,1.5,0,0,1-1.5-1.5A1.5,1.5,0,0,1,728.947-1.5Zm19.971,0H758.9A1.5,1.5,0,0,1,760.4,0a1.5,1.5,0,0,1-1.5,1.5h-9.985a1.5,1.5,0,0,1-1.5-1.5A1.5,1.5,0,0,1,748.918-1.5Zm19.971,0h9.985a1.5,1.5,0,0,1,1.5,1.5,1.5,1.5,0,0,1-1.5,1.5h-9.985a1.5,1.5,0,0,1-1.5-1.5A1.5,1.5,0,0,1,768.889-1.5Zm19.971,0h9.985a1.5,1.5,0,0,1,1.5,1.5,1.5,1.5,0,0,1-1.5,1.5h-9.985a1.5,1.5,0,0,1-1.5-1.5A1.5,1.5,0,0,1,788.859-1.5Zm19.971,0h9.985a1.5,1.5,0,0,1,1.5,1.5,1.5,1.5,0,0,1-1.5,1.5H808.83a1.5,1.5,0,0,1-1.5-1.5A1.5,1.5,0,0,1,808.83-1.5Zm19.971,0h9.985a1.5,1.5,0,0,1,1.5,1.5,1.5,1.5,0,0,1-1.5,1.5H828.8A1.5,1.5,0,0,1,827.3,0,1.5,1.5,0,0,1,828.8-1.5Zm19.971,0h9.985a1.5,1.5,0,0,1,1.5,1.5,1.5,1.5,0,0,1-1.5,1.5h-9.985a1.5,1.5,0,0,1-1.5-1.5A1.5,1.5,0,0,1,848.771-1.5Zm19.971,0h9.985a1.5,1.5,0,0,1,1.5,1.5,1.5,1.5,0,0,1-1.5,1.5h-9.985a1.5,1.5,0,0,1-1.5-1.5A1.5,1.5,0,0,1,868.742-1.5Zm19.971,0H898.7A1.5,1.5,0,0,1,900.2,0a1.5,1.5,0,0,1-1.5,1.5h-9.985a1.5,1.5,0,0,1-1.5-1.5A1.5,1.5,0,0,1,888.713-1.5Zm19.971,0h9.985a1.5,1.5,0,0,1,1.5,1.5,1.5,1.5,0,0,1-1.5,1.5h-9.985a1.5,1.5,0,0,1-1.5-1.5A1.5,1.5,0,0,1,908.684-1.5ZM928.348.095a1.493,1.493,0,0,1,.813.24A11.466,11.466,0,0,1,934.426,10a1.5,1.5,0,0,1-3,0,8.478,8.478,0,0,0-3.894-7.149,1.5,1.5,0,0,1,.816-2.76ZM1.581,3.1A1.5,1.5,0,0,1,2.842,5.414,8.469,8.469,0,0,0,1.5,10v4.285a1.5,1.5,0,0,1-1.5,1.5,1.5,1.5,0,0,1-1.5-1.5V10A11.462,11.462,0,0,1,.318,3.793,1.5,1.5,0,0,1,1.581,3.1ZM932.926,18.489a1.5,1.5,0,0,1,1.5,1.5v9.985a1.5,1.5,0,0,1-3,0V19.989A1.5,1.5,0,0,1,932.926,18.489ZM0,22.77a1.5,1.5,0,0,1,1.5,1.5v9.985a1.5,1.5,0,0,1-1.5,1.5,1.5,1.5,0,0,1-1.5-1.5V24.27A1.5,1.5,0,0,1,0,22.77ZM932.926,38.46a1.5,1.5,0,0,1,1.5,1.5v9.985a1.5,1.5,0,0,1-3,0V39.96A1.5,1.5,0,0,1,932.926,38.46ZM0,42.741a1.5,1.5,0,0,1,1.5,1.5v9.985a1.5,1.5,0,0,1-1.5,1.5,1.5,1.5,0,0,1-1.5-1.5V44.241A1.5,1.5,0,0,1,0,42.741Zm932.926,15.69a1.5,1.5,0,0,1,1.5,1.5v9.985a1.5,1.5,0,0,1-3,0V59.931A1.5,1.5,0,0,1,932.926,58.431ZM0,62.712a1.5,1.5,0,0,1,1.5,1.5V74.2A1.5,1.5,0,0,1,0,75.7a1.5,1.5,0,0,1-1.5-1.5V64.212A1.5,1.5,0,0,1,0,62.712ZM932.926,78.4a1.5,1.5,0,0,1,1.5,1.5v9.985a1.5,1.5,0,0,1-3,0V79.9A1.5,1.5,0,0,1,932.926,78.4ZM0,82.683a1.5,1.5,0,0,1,1.5,1.5v9.985a1.5,1.5,0,0,1-1.5,1.5,1.5,1.5,0,0,1-1.5-1.5V84.183A1.5,1.5,0,0,1,0,82.683Zm932.926,15.69a1.5,1.5,0,0,1,1.5,1.5v9.985a1.5,1.5,0,1,1-3,0V99.872A1.5,1.5,0,0,1,932.926,98.372ZM0,102.653a1.5,1.5,0,0,1,1.5,1.5v9.985a1.5,1.5,0,0,1-1.5,1.5,1.5,1.5,0,0,1-1.5-1.5v-9.985A1.5,1.5,0,0,1,0,102.653Zm932.926,15.69a1.5,1.5,0,0,1,1.5,1.5v9.985a1.5,1.5,0,0,1-3,0v-9.985A1.5,1.5,0,0,1,932.926,118.343ZM0,122.624a1.5,1.5,0,0,1,1.5,1.5v9.985a1.5,1.5,0,0,1-1.5,1.5,1.5,1.5,0,0,1-1.5-1.5v-9.985A1.5,1.5,0,0,1,0,122.624Zm932.926,15.69a1.5,1.5,0,0,1,1.5,1.5V149.8a1.5,1.5,0,0,1-3,0v-9.985A1.5,1.5,0,0,1,932.926,138.314ZM0,142.595a1.5,1.5,0,0,1,1.5,1.5v9.985a1.5,1.5,0,0,1-1.5,1.5,1.5,1.5,0,0,1-1.5-1.5v-9.985A1.5,1.5,0,0,1,0,142.595Zm932.926,15.69a1.5,1.5,0,0,1,1.5,1.5v9.985a1.5,1.5,0,0,1-3,0v-9.985A1.5,1.5,0,0,1,932.926,158.284ZM0,162.566a1.5,1.5,0,0,1,1.5,1.5v9.985a1.5,1.5,0,0,1-1.5,1.5,1.5,1.5,0,0,1-1.5-1.5v-9.985A1.5,1.5,0,0,1,0,162.566Zm932.926,15.689a1.5,1.5,0,0,1,1.5,1.5v9.985a1.5,1.5,0,0,1-3,0v-9.985A1.5,1.5,0,0,1,932.926,178.255ZM0,182.536a1.5,1.5,0,0,1,1.5,1.5v9.985a1.5,1.5,0,0,1-1.5,1.5,1.5,1.5,0,0,1-1.5-1.5v-9.985A1.5,1.5,0,0,1,0,182.536Zm932.926,15.69a1.5,1.5,0,0,1,1.5,1.5v9.985a1.5,1.5,0,0,1-3,0v-9.985A1.5,1.5,0,0,1,932.926,198.226ZM0,202.507a1.5,1.5,0,0,1,1.5,1.5v9.985a1.5,1.5,0,0,1-1.5,1.5,1.5,1.5,0,0,1-1.5-1.5v-9.985A1.5,1.5,0,0,1,0,202.507ZM932.926,218.2a1.5,1.5,0,0,1,1.5,1.5v9.985a1.5,1.5,0,0,1-3,0V219.7A1.5,1.5,0,0,1,932.926,218.2ZM0,222.478a1.5,1.5,0,0,1,1.5,1.5v9.985a1.5,1.5,0,0,1-1.5,1.5,1.5,1.5,0,0,1-1.5-1.5v-9.985A1.5,1.5,0,0,1,0,222.478Zm932.926,15.689a1.5,1.5,0,0,1,1.5,1.5v9.985a1.5,1.5,0,0,1-3,0v-9.985A1.5,1.5,0,0,1,932.926,238.167ZM0,242.449a1.5,1.5,0,0,1,1.5,1.5v9.985a1.5,1.5,0,0,1-1.5,1.5,1.5,1.5,0,0,1-1.5-1.5v-9.985A1.5,1.5,0,0,1,0,242.449Zm932.926,15.69a1.5,1.5,0,0,1,1.5,1.5v9.985a1.5,1.5,0,0,1-3,0v-9.985A1.5,1.5,0,0,1,932.926,258.138ZM0,262.419a1.5,1.5,0,0,1,1.5,1.5V273.9A1.5,1.5,0,0,1,0,275.4a1.5,1.5,0,0,1-1.5-1.5v-9.985A1.5,1.5,0,0,1,0,262.419Zm932.926,15.689a1.5,1.5,0,0,1,1.5,1.5v9.985a1.5,1.5,0,0,1-3,0v-9.985A1.5,1.5,0,0,1,932.926,278.109ZM0,282.39a1.5,1.5,0,0,1,1.5,1.5v9.985a1.5,1.5,0,0,1-1.5,1.5,1.5,1.5,0,0,1-1.5-1.5V283.89A1.5,1.5,0,0,1,0,282.39Zm932.926,15.69a1.5,1.5,0,0,1,1.5,1.5v9.985a1.5,1.5,0,0,1-3,0V299.58A1.5,1.5,0,0,1,932.926,298.08ZM0,302.361a1.5,1.5,0,0,1,1.5,1.5v9.985a1.5,1.5,0,0,1-1.5,1.5,1.5,1.5,0,0,1-1.5-1.5v-9.985A1.5,1.5,0,0,1,0,302.361Zm932.926,15.69a1.5,1.5,0,0,1,1.5,1.5v9.985a1.5,1.5,0,0,1-3,0V319.55A1.5,1.5,0,0,1,932.926,318.05ZM0,322.332a1.5,1.5,0,0,1,1.5,1.5v9.985a1.5,1.5,0,0,1-1.5,1.5,1.5,1.5,0,0,1-1.5-1.5v-9.985A1.5,1.5,0,0,1,0,322.332Zm932.926,15.689a1.5,1.5,0,0,1,1.5,1.5v9.985a1.5,1.5,0,0,1-3,0v-9.985A1.5,1.5,0,0,1,932.926,338.021ZM0,342.3a1.5,1.5,0,0,1,1.5,1.5v9.985a1.5,1.5,0,0,1-1.5,1.5,1.5,1.5,0,0,1-1.5-1.5V343.8A1.5,1.5,0,0,1,0,342.3Zm932.926,15.69a1.5,1.5,0,0,1,1.5,1.5v9.985a1.5,1.5,0,0,1-3,0v-9.985A1.5,1.5,0,0,1,932.926,357.992ZM0,362.273a1.5,1.5,0,0,1,1.5,1.5v9.985a1.5,1.5,0,0,1-1.5,1.5,1.5,1.5,0,0,1-1.5-1.5v-9.985A1.5,1.5,0,0,1,0,362.273Zm932.926,15.689a1.5,1.5,0,0,1,1.5,1.5v9.985a1.5,1.5,0,0,1-3,0v-9.985A1.5,1.5,0,0,1,932.926,377.963ZM0,382.244a1.5,1.5,0,0,1,1.5,1.5v9.985a1.5,1.5,0,0,1-1.5,1.5,1.5,1.5,0,0,1-1.5-1.5v-9.985A1.5,1.5,0,0,1,0,382.244Zm932.926,15.69a1.5,1.5,0,0,1,1.5,1.5v9.985a1.5,1.5,0,0,1-3,0v-9.985A1.5,1.5,0,0,1,932.926,397.934ZM0,402.215a1.5,1.5,0,0,1,1.5,1.5V413.7A1.5,1.5,0,0,1,0,415.2a1.5,1.5,0,0,1-1.5-1.5v-9.985A1.5,1.5,0,0,1,0,402.215ZM932.926,417.9a1.5,1.5,0,0,1,1.5,1.5v9.985a1.5,1.5,0,0,1-3,0V419.4A1.5,1.5,0,0,1,932.926,417.9ZM0,422.185a1.5,1.5,0,0,1,1.5,1.5v9.985a1.5,1.5,0,0,1-1.5,1.5,1.5,1.5,0,0,1-1.5-1.5v-9.985A1.5,1.5,0,0,1,0,422.185Zm932.926,15.689a1.5,1.5,0,0,1,1.5,1.5v9.985a1.5,1.5,0,0,1-3,0v-9.985A1.5,1.5,0,0,1,932.926,437.875ZM0,442.156a1.5,1.5,0,0,1,1.5,1.5v9.985a1.5,1.5,0,0,1-1.5,1.5,1.5,1.5,0,0,1-1.5-1.5v-9.985A1.5,1.5,0,0,1,0,442.156Zm932.926,15.69a1.5,1.5,0,0,1,1.5,1.5v9.985a1.5,1.5,0,0,1-3,0v-9.985A1.5,1.5,0,0,1,932.926,457.846ZM0,462.127a1.5,1.5,0,0,1,1.5,1.5v9.985a1.5,1.5,0,0,1-1.5,1.5,1.5,1.5,0,0,1-1.5-1.5v-9.985A1.5,1.5,0,0,1,0,462.127Zm932.926,15.69a1.5,1.5,0,0,1,1.5,1.5V489.3a1.5,1.5,0,0,1-3,0v-9.985A1.5,1.5,0,0,1,932.926,477.816ZM0,482.1a1.5,1.5,0,0,1,1.5,1.5v9.985a1.5,1.5,0,0,1-1.5,1.5,1.5,1.5,0,0,1-1.5-1.5V483.6A1.5,1.5,0,0,1,0,482.1Zm932.926,15.69a1.5,1.5,0,0,1,1.5,1.5v9.985a1.5,1.5,0,0,1-3,0v-9.985A1.5,1.5,0,0,1,932.926,497.787ZM0,502.068a1.5,1.5,0,0,1,1.5,1.5v9.985a1.5,1.5,0,0,1-1.5,1.5,1.5,1.5,0,0,1-1.5-1.5v-9.985A1.5,1.5,0,0,1,0,502.068Zm932.926,15.69a1.5,1.5,0,0,1,1.5,1.5v9.985a1.5,1.5,0,0,1-3,0v-9.985A1.5,1.5,0,0,1,932.926,517.758ZM0,522.039a1.5,1.5,0,0,1,1.5,1.5v9.985a1.5,1.5,0,0,1-1.5,1.5,1.5,1.5,0,0,1-1.5-1.5v-9.985A1.5,1.5,0,0,1,0,522.039Zm932.926,15.689a1.5,1.5,0,0,1,1.5,1.5v9.985a1.5,1.5,0,0,1-3,0v-9.985A1.5,1.5,0,0,1,932.926,537.729ZM0,542.01a1.5,1.5,0,0,1,1.5,1.5V553.5A1.5,1.5,0,0,1,0,555a1.5,1.5,0,0,1-1.5-1.5V543.51A1.5,1.5,0,0,1,0,542.01ZM932.926,557.7a1.5,1.5,0,0,1,1.5,1.5v9.985a1.5,1.5,0,0,1-3,0V559.2A1.5,1.5,0,0,1,932.926,557.7ZM0,561.981a1.5,1.5,0,0,1,1.5,1.5v9.985a1.5,1.5,0,0,1-1.5,1.5,1.5,1.5,0,0,1-1.5-1.5v-9.985A1.5,1.5,0,0,1,0,561.981Zm932.926,15.69a1.5,1.5,0,0,1,1.5,1.5v9.985a1.5,1.5,0,0,1-3,0V579.17A1.5,1.5,0,0,1,932.926,577.67ZM0,581.951a1.5,1.5,0,0,1,1.5,1.5v9.985a1.5,1.5,0,0,1-1.5,1.5,1.5,1.5,0,0,1-1.5-1.5v-9.985A1.5,1.5,0,0,1,0,581.951Zm932.926,15.69a1.5,1.5,0,0,1,1.5,1.5v9.985a1.5,1.5,0,0,1-3,0v-9.985A1.5,1.5,0,0,1,932.926,597.641ZM0,601.922a1.5,1.5,0,0,1,1.5,1.5v9.985a1.5,1.5,0,0,1-1.5,1.5,1.5,1.5,0,0,1-1.5-1.5v-9.985A1.5,1.5,0,0,1,0,601.922Zm932.926,15.69a1.5,1.5,0,0,1,1.5,1.5V629.1a1.5,1.5,0,0,1-3,0v-9.985A1.5,1.5,0,0,1,932.926,617.612ZM0,621.893a1.5,1.5,0,0,1,1.5,1.5v9.985a1.5,1.5,0,0,1-1.5,1.5,1.5,1.5,0,0,1-1.5-1.5v-9.985A1.5,1.5,0,0,1,0,621.893Zm932.926,15.689a1.5,1.5,0,0,1,1.5,1.5v4.273a11.461,11.461,0,0,1-1.825,6.219,1.5,1.5,0,0,1-2.522-1.624,8.468,8.468,0,0,0,1.347-4.595v-4.273A1.5,1.5,0,0,1,932.926,637.582ZM0,641.864a1.5,1.5,0,0,1,1.5,1.5,8.477,8.477,0,0,0,3.9,7.144,1.5,1.5,0,1,1-1.625,2.522A11.465,11.465,0,0,1-1.5,643.365,1.5,1.5,0,0,1,0,641.864Zm922.94,9.992a1.5,1.5,0,0,1,0,3h-9.987a1.5,1.5,0,0,1,0-3h9.985Zm-908.669,0h9.985a1.5,1.5,0,0,1,0,3H14.269a1.5,1.5,0,0,1,0-3Zm19.971,0h9.985a1.5,1.5,0,0,1,0,3H34.24a1.5,1.5,0,0,1,0-3Zm19.971,0H64.2a1.5,1.5,0,0,1,0,3H54.211a1.5,1.5,0,0,1,0-3Zm19.971,0h9.985a1.5,1.5,0,0,1,0,3H74.181a1.5,1.5,0,0,1,0-3Zm19.971,0h9.985a1.5,1.5,0,1,1,0,3H94.152a1.5,1.5,0,0,1,0-3Zm19.971,0h9.985a1.5,1.5,0,0,1,0,3h-9.985a1.5,1.5,0,0,1,0-3Zm19.971,0h9.985a1.5,1.5,0,0,1,0,3h-9.985a1.5,1.5,0,0,1,0-3Zm19.971,0h9.985a1.5,1.5,0,1,1,0,3h-9.985a1.5,1.5,0,0,1,0-3Zm19.971,0h9.985a1.5,1.5,0,1,1,0,3h-9.985a1.5,1.5,0,0,1,0-3Zm19.971,0h9.985a1.5,1.5,0,1,1,0,3h-9.985a1.5,1.5,0,0,1,0-3Zm19.971,0h9.985a1.5,1.5,0,0,1,0,3h-9.985a1.5,1.5,0,0,1,0-3Zm19.971,0h9.985a1.5,1.5,0,0,1,0,3h-9.985a1.5,1.5,0,0,1,0-3Zm19.971,0H263.9a1.5,1.5,0,1,1,0,3h-9.985a1.5,1.5,0,0,1,0-3Zm19.971,0h9.985a1.5,1.5,0,1,1,0,3h-9.985a1.5,1.5,0,0,1,0-3Zm19.971,0h9.985a1.5,1.5,0,1,1,0,3H293.86a1.5,1.5,0,0,1,0-3Zm19.971,0h9.985a1.5,1.5,0,0,1,0,3H313.83a1.5,1.5,0,0,1,0-3Zm19.971,0h9.985a1.5,1.5,0,0,1,0,3H333.8a1.5,1.5,0,0,1,0-3Zm19.971,0h9.985a1.5,1.5,0,1,1,0,3h-9.985a1.5,1.5,0,0,1,0-3Zm19.971,0h9.985a1.5,1.5,0,1,1,0,3h-9.985a1.5,1.5,0,0,1,0-3Zm19.971,0H403.7a1.5,1.5,0,1,1,0,3h-9.985a1.5,1.5,0,0,1,0-3Zm19.971,0h9.985a1.5,1.5,0,0,1,0,3h-9.985a1.5,1.5,0,0,1,0-3Zm19.971,0h9.985a1.5,1.5,0,0,1,0,3h-9.985a1.5,1.5,0,0,1,0-3Zm19.971,0h9.985a1.5,1.5,0,1,1,0,3h-9.985a1.5,1.5,0,0,1,0-3Zm19.971,0h9.985a1.5,1.5,0,1,1,0,3H473.6a1.5,1.5,0,0,1,0-3Zm19.971,0h9.985a1.5,1.5,0,1,1,0,3h-9.985a1.5,1.5,0,0,1,0-3Zm19.971,0h9.985a1.5,1.5,0,0,1,0,3h-9.985a1.5,1.5,0,0,1,0-3Zm19.971,0h9.985a1.5,1.5,0,0,1,0,3h-9.985a1.5,1.5,0,0,1,0-3Zm19.971,0h9.985a1.5,1.5,0,0,1,0,3h-9.985a1.5,1.5,0,0,1,0-3Zm19.971,0h9.985a1.5,1.5,0,0,1,0,3H573.45a1.5,1.5,0,0,1,0-3Zm19.971,0h9.985a1.5,1.5,0,0,1,0,3h-9.985a1.5,1.5,0,0,1,0-3Zm19.971,0h9.985a1.5,1.5,0,0,1,0,3h-9.985a1.5,1.5,0,0,1,0-3Zm19.971,0h9.985a1.5,1.5,0,0,1,0,3h-9.985a1.5,1.5,0,0,1,0-3Zm19.971,0h9.985a1.5,1.5,0,0,1,0,3h-9.985a1.5,1.5,0,0,1,0-3Zm19.971,0h9.985a1.5,1.5,0,0,1,0,3H673.3a1.5,1.5,0,0,1,0-3Zm19.971,0h9.985a1.5,1.5,0,0,1,0,3h-9.985a1.5,1.5,0,0,1,0-3Zm19.971,0h9.985a1.5,1.5,0,0,1,0,3h-9.985a1.5,1.5,0,0,1,0-3Zm19.971,0H743.2a1.5,1.5,0,0,1,0,3h-9.985a1.5,1.5,0,0,1,0-3Zm19.971,0h9.985a1.5,1.5,0,0,1,0,3h-9.985a1.5,1.5,0,0,1,0-3Zm19.971,0h9.985a1.5,1.5,0,0,1,0,3h-9.985a1.5,1.5,0,0,1,0-3Zm19.971,0h9.985a1.5,1.5,0,0,1,0,3h-9.985a1.5,1.5,0,0,1,0-3Zm19.971,0h9.985a1.5,1.5,0,0,1,0,3H813.1a1.5,1.5,0,0,1,0-3Zm19.971,0h9.985a1.5,1.5,0,0,1,0,3H833.07a1.5,1.5,0,0,1,0-3Zm19.971,0h9.985a1.5,1.5,0,0,1,0,3h-9.985a1.5,1.5,0,0,1,0-3Zm19.971,0H883a1.5,1.5,0,0,1,0,3h-9.985a1.5,1.5,0,0,1,0-3Zm19.971,0h9.985a1.5,1.5,0,0,1,0,3h-9.985a1.5,1.5,0,0,1,0-3Z" transform="translate(216.537 2308.36)" fill="#82c195"/>
  </g>
</svg>
