<svg xmlns="http://www.w3.org/2000/svg" width="495.47" height="67.348" viewBox="0 0 495.47 67.348">
  <g id="グループ_712" data-name="グループ 712" transform="translate(-435.265 -10415.656)">
    <g id="グループ_711" data-name="グループ 711">
      <path id="パス_543" data-name="パス 543" d="M464.846,10478.264v-53.807H435.265l14.677,29.264L435.265,10483h55.356v-4.74Z" fill="#e61400"/>
      <rect id="長方形_425" data-name="長方形 425" width="428.965" height="59.345" transform="translate(468.518 10415.656)" fill="#e61400"/>
      <path id="パス_544" data-name="パス 544" d="M930.735,10424.457H901.154v53.807H875.379v4.74h55.357l-14.677-29.283Z" fill="#e61400"/>
    </g>
    <path id="パス_787" data-name="パス 787" d="M-163.56-16.44h16.59v3.45h-16.59Zm8.31,7.2h10.11v3.39h-10.11Zm-1.89-5.19h3.75V.06l-3.75-.45Zm-7.17,3.09,3.75.39a32.405,32.405,0,0,1-2.04,8.1,14.83,14.83,0,0,1-4.02,5.73,11.459,11.459,0,0,0-.84-.81q-.54-.48-1.125-.93t-1-.72a11,11,0,0,0,3.66-4.845A25.149,25.149,0,0,0-164.31-11.34Zm2.91,3.78a9.594,9.594,0,0,0,1.815,3.315,7.371,7.371,0,0,0,2.61,1.92,12.27,12.27,0,0,0,3.255.885,27.927,27.927,0,0,0,3.75.24h3.135q1,0,2.055-.015l1.95-.03q.9-.015,1.5-.045a7.512,7.512,0,0,0-.525,1.1q-.255.645-.465,1.335a9.412,9.412,0,0,0-.3,1.26h-7.53a29.674,29.674,0,0,1-4.8-.36A12.552,12.552,0,0,1-158.9.735a9.838,9.838,0,0,1-3.12-2.715A15.8,15.8,0,0,1-164.34-6.6Zm4.2-17.88h3.84v5.46h-3.84Zm-10.92,3.03h25.77v7.53h-3.69v-4.14h-18.54v4.14h-3.54Zm47.52-1.74h7.74v3.27h-7.74Zm0,6.78h7.74v3.18h-7.74Zm-.03,6.87h7.8v3.21h-7.8Zm6.24-13.65h3.45V-1.29A5.864,5.864,0,0,1-111.24.8a2.4,2.4,0,0,1-1.08,1.215,5.255,5.255,0,0,1-1.965.54,24.667,24.667,0,0,1-2.865.09,10.941,10.941,0,0,0-.39-1.725,11.8,11.8,0,0,0-.63-1.7q.96.06,1.905.06h1.275a.646.646,0,0,0,.465-.135.646.646,0,0,0,.135-.465Zm-7.71,0h3.39v11.04q0,1.77-.1,3.87t-.42,4.245A32.546,32.546,0,0,1-120.12-.84a13.992,13.992,0,0,1-1.56,3.6,4.705,4.705,0,0,0-.81-.735q-.54-.405-1.08-.765a6.151,6.151,0,0,0-.96-.54,14.543,14.543,0,0,0,1.65-4.35,31.732,31.732,0,0,0,.645-4.875q.135-2.475.135-4.605Zm-15.69,2.19h14.7v3.15h-14.7Zm3.9,4.92h7.17v2.73h-7.17Zm0,4.65h7.17v2.76h-7.17Zm-4.26,4.77h14.85v3.15h-14.85Zm2.7-17.52h3.24V-6.48h-3.24Zm6.99,0h3.3V-6.48h-3.3Zm-5.97,20.88,3.42.99A22.334,22.334,0,0,1-133.08.015a20.618,20.618,0,0,1-2.43,2.745,5.8,5.8,0,0,0-.825-.72q-.525-.39-1.08-.78t-.975-.63a12.787,12.787,0,0,0,2.265-2.22A13.08,13.08,0,0,0-134.43-4.26Zm4.47,1.35,2.73-1.5q.6.63,1.245,1.425t1.23,1.56A12.788,12.788,0,0,1-123.81-.03l-2.91,1.68a11.506,11.506,0,0,0-.855-1.395q-.555-.795-1.185-1.635T-129.96-2.91Zm34.35-12.87v2.55h2.94v-2.55Zm0,5.43v2.58h2.94v-2.58Zm0-10.83v2.52h2.94v-2.52Zm-3.03-3.12h9.12V-4.65h-9.12Zm5.07,21.18,2.73-1.53q.57.69,1.185,1.53t1.14,1.65q.525.81.855,1.44l-2.88,1.71A12.108,12.108,0,0,0-91.32.21q-.51-.84-1.1-1.725T-93.57-3.12Zm-4.26-1.26,3.27.9A21.908,21.908,0,0,1-96.39-.06a19.921,19.921,0,0,1-2.19,2.85q-.33-.27-.855-.63t-1.065-.69q-.54-.33-.93-.54A13.679,13.679,0,0,0-99.375-1.5,15,15,0,0,0-97.83-4.38ZM-83.07-25.5h3.27V-1.35A6.4,6.4,0,0,1-80.085.78a2.17,2.17,0,0,1-1.1,1.2,5.493,5.493,0,0,1-2,.555,27.7,27.7,0,0,1-2.985.135A10.94,10.94,0,0,0-86.55.945,13.338,13.338,0,0,0-87.18-.78q1.14.03,2.13.045t1.35.015a.8.8,0,0,0,.495-.165.646.646,0,0,0,.135-.465Zm-4.95,3.09h3.09v17.4h-3.09Zm-17.85-.21,2.04-2.61q.81.33,1.725.81t1.74,1.005a9.052,9.052,0,0,1,1.335,1l-2.16,2.88a7.03,7.03,0,0,0-1.245-1.065q-.795-.555-1.695-1.095A18.708,18.708,0,0,0-105.87-22.62Zm-1.14,8.04,1.98-2.67q.84.33,1.755.765t1.74.93a9.158,9.158,0,0,1,1.335.945l-2.1,2.91a10.591,10.591,0,0,0-1.275-.99q-.795-.54-1.695-1.035T-107.01-14.58ZM-106.5.51q.57-1.17,1.245-2.76t1.38-3.375q.705-1.785,1.275-3.525l2.91,1.86q-.48,1.62-1.08,3.285T-102-.735q-.63,1.605-1.26,3.105Zm36.54-16.95h16.59v3.45H-69.96Zm8.31,7.2h10.11v3.39H-61.65Zm-1.89-5.19h3.75V.06l-3.75-.45Zm-7.17,3.09,3.75.39A32.405,32.405,0,0,1-69-2.85a14.83,14.83,0,0,1-4.02,5.73,11.459,11.459,0,0,0-.84-.81q-.54-.48-1.125-.93t-1-.72a11,11,0,0,0,3.66-4.845A25.149,25.149,0,0,0-70.71-11.34Zm2.91,3.78a9.594,9.594,0,0,0,1.815,3.315,7.371,7.371,0,0,0,2.61,1.92,12.27,12.27,0,0,0,3.255.885,27.927,27.927,0,0,0,3.75.24h3.135q1,0,2.055-.015l1.95-.03q.9-.015,1.5-.045a7.513,7.513,0,0,0-.525,1.1Q-48.51.45-48.72,1.14a9.413,9.413,0,0,0-.3,1.26h-7.53a29.674,29.674,0,0,1-4.8-.36A12.552,12.552,0,0,1-65.295.735a9.838,9.838,0,0,1-3.12-2.715A15.8,15.8,0,0,1-70.74-6.6Zm4.2-17.88h3.84v5.46H-63.6Zm-10.92,3.03h25.77v7.53h-3.69v-4.14H-70.98v4.14h-3.54Zm33.78,1.11q.84.09,1.89.135t1.8.045h15.12q.66,0,1.455-.015t1.185-.045q-.03.51-.06,1.3t-.03,1.455V-2.88q0,.78.045,1.83T-19.26.66h-4.35q.03-.66.045-1.455t.015-1.6V-17.25H-37.02q-.96,0-2.025.03t-1.695.09Zm-.39,16.29q.78.06,1.755.12t1.995.06h16.2V-.9H-37.26q-.87,0-2,.06t-1.875.12Zm29.64-8.88,1.38.075q.84.045,1.755.075t1.695.03H9.45q1.05,0,1.98-.075t1.53-.1v4.71l-1.53-.09q-1.02-.06-1.98-.06H-6.66q-1.29,0-2.64.045t-2.19.1Zm51.96-6.45q-.18.27-.525.84a6.406,6.406,0,0,0-.525,1.05q-.63,1.41-1.545,3.15T35.8-11.805A34.582,34.582,0,0,1,33.36-8.52a50.041,50.041,0,0,1-3.7,3.735,40.592,40.592,0,0,1-4.26,3.39A32.664,32.664,0,0,1,20.82,1.26L17.73-1.98a27.909,27.909,0,0,0,4.71-2.34,35.179,35.179,0,0,0,4.23-3.06,35.016,35.016,0,0,0,3.36-3.21A26.972,26.972,0,0,0,31.9-13.02a28.621,28.621,0,0,0,1.575-2.565A13,13,0,0,0,34.5-17.94H24.33q-.63,0-1.32.045t-1.3.09q-.615.045-.945.075v-4.26q.45.03,1.11.09t1.335.09q.675.03,1.125.03H34.92a12.658,12.658,0,0,0,1.815-.12,7.8,7.8,0,0,0,1.275-.27Zm-6.72,9.33q1.17.93,2.49,2.16T38.85-6.3q1.29,1.32,2.385,2.535T43.08-1.65L39.66,1.32Q38.55-.21,37.125-1.86t-3-3.285Q32.55-6.78,30.93-8.25Zm28.08-7.65H72.15v2.94H61.83ZM56.67-1.26q1.35-.21,3.135-.51t3.8-.645q2.01-.345,3.99-.705L67.89,0q-2.61.6-5.25,1.185T57.84,2.22Zm3.12-22.89h3.48V-.45H59.79Zm2.04,0H73.8v14.04H61.83V-13.2h8.4v-7.86h-8.4Zm6.24,11.97a26.3,26.3,0,0,0,1.56,4.995A15.136,15.136,0,0,0,72.15-3.15,10.432,10.432,0,0,0,75.9-.45a10.585,10.585,0,0,0-.84.885,13.59,13.59,0,0,0-.855,1.11A8.9,8.9,0,0,0,73.56,2.61,12.606,12.606,0,0,1,69.495-.765,18.379,18.379,0,0,1,66.81-5.61a38,38,0,0,1-1.71-6.06ZM72.42-9.9l2.82,1.95q-1.23,1.2-2.595,2.355T70.14-3.63L67.92-5.34q.72-.6,1.545-1.38t1.6-1.62Q71.85-9.18,72.42-9.9ZM48.87-24.21h7.47v3.24H52.23V2.7H48.87Zm6.48,0h.63l.51-.12,2.46,1.41q-.42,1.32-.9,2.79t-.96,2.91q-.48,1.44-.96,2.61a9.068,9.068,0,0,1,1.905,3.285A10.619,10.619,0,0,1,58.47-8.46,7.7,7.7,0,0,1,58.14-6a2.985,2.985,0,0,1-1.08,1.5,2.79,2.79,0,0,1-.825.42,7.693,7.693,0,0,1-.945.24,6.975,6.975,0,0,1-.975.06H53.19a10.207,10.207,0,0,0-.225-1.62,5.8,5.8,0,0,0-.555-1.59q.42.03.765.03h.615a1.461,1.461,0,0,0,.465-.075,2.413,2.413,0,0,0,.435-.195,1.262,1.262,0,0,0,.4-.645,3.125,3.125,0,0,0,.1-1.065,8.084,8.084,0,0,0-.435-2.415A8.1,8.1,0,0,0,52.98-14.22q.33-1.02.675-2.25t.66-2.475q.315-1.245.6-2.34T55.35-23.1Zm29.19,7.77h16.59v3.45H84.54Zm8.31,7.2h10.11v3.39H92.85Zm-1.89-5.19h3.75V.06L90.96-.39Zm-7.17,3.09,3.75.39a32.405,32.405,0,0,1-2.04,8.1,14.83,14.83,0,0,1-4.02,5.73,11.459,11.459,0,0,0-.84-.81q-.54-.48-1.125-.93t-1-.72a11,11,0,0,0,3.66-4.845A25.149,25.149,0,0,0,83.79-11.34ZM86.7-7.56a9.594,9.594,0,0,0,1.815,3.315,7.371,7.371,0,0,0,2.61,1.92,12.27,12.27,0,0,0,3.255.885,27.927,27.927,0,0,0,3.75.24h3.135q1,0,2.055-.015l1.95-.03q.9-.015,1.5-.045a7.512,7.512,0,0,0-.525,1.1q-.255.645-.465,1.335a9.412,9.412,0,0,0-.3,1.26H97.95a29.674,29.674,0,0,1-4.8-.36A12.552,12.552,0,0,1,89.205.735a9.838,9.838,0,0,1-3.12-2.715A15.8,15.8,0,0,1,83.76-6.6Zm4.2-17.88h3.84v5.46H90.9ZM79.98-22.41h25.77v7.53h-3.69v-4.14H83.52v4.14H79.98Zm42.33-.42h14.46v3.27H122.31Zm-1.77,5.82h17.55v3.36H120.54Zm.63,6.06h16.65v3.3H121.17Zm6.51-14.58h3.57v10.38h-3.57Zm3.54,11.49h3.57V-1.32a5.834,5.834,0,0,1-.315,2.13,2.382,2.382,0,0,1-1.215,1.23,7.271,7.271,0,0,1-2.22.495q-1.29.1-2.97.1a14.083,14.083,0,0,0-.42-1.8,9.909,9.909,0,0,0-.69-1.77q1.11.03,2.19.045t1.44.015a1.133,1.133,0,0,0,.5-.12q.135-.09.135-.39Zm-9,8.01,2.67-1.65a19.8,19.8,0,0,1,1.38,1.47q.69.81,1.305,1.605a9.062,9.062,0,0,1,.945,1.455l-2.85,1.86a9.858,9.858,0,0,0-.87-1.485q-.57-.825-1.245-1.68T122.22-6.03ZM109.86-9.51q1.47-.33,3.345-.81t3.96-1.065q2.085-.585,4.155-1.185l.45,3.18q-2.82.87-5.745,1.755T110.73-6.06Zm5.37-15.96h3.3V2.7h-3.3Zm-3.96,1.53,3.03.51q-.21,1.98-.51,3.975t-.72,3.765a22.326,22.326,0,0,1-.96,3.12,5.708,5.708,0,0,0-.75-.54q-.48-.3-.96-.615a8.523,8.523,0,0,0-.84-.495,17.6,17.6,0,0,0,.825-2.79q.345-1.59.57-3.375T111.27-23.94Zm.84,4.11h8.94v3.42h-9.63ZM157.29-2.25l2.55-2.37q1.59.75,3.24,1.59t3.135,1.68q1.485.84,2.505,1.5l-3.33,2.43q-.9-.69-2.235-1.53T160.3-.66Q158.79-1.53,157.29-2.25Zm-16.11-5.4h28.11v3.39H141.18Zm4.74-7.29H164.4v3.3H145.92Zm4.47-10.65h3.36V-6.15h-3.36Zm6.27,0h3.42V-6.12h-3.42Zm-12.51,3.54h22.44V-6.39h-3.66V-18.72h-15.3V-6.39h-3.48Zm5.88,17.46,3.3,2.22A25.533,25.533,0,0,1,150.585-.5Q149.01.45,147.3,1.275t-3.27,1.4a15.633,15.633,0,0,0-1.3-1.335A18.055,18.055,0,0,0,141.21.06a25.932,25.932,0,0,0,3.3-1.305,34.086,34.086,0,0,0,3.135-1.68A19.614,19.614,0,0,0,150.03-4.59Z" transform="translate(683 10456.729)" fill="#fff"/>
  </g>
</svg>
