<svg xmlns="http://www.w3.org/2000/svg" width="574.781" height="457.913" viewBox="0 0 574.781 457.913">
  <g id="グループ_425" data-name="グループ 425" transform="translate(-1061.854 -5420.364)" opacity="0.5">
    <circle id="楕円形_83" data-name="楕円形 83" cx="15.363" cy="15.363" r="15.363" transform="translate(1500.566 5490.577)" fill="#fff766"/>
    <circle id="楕円形_84" data-name="楕円形 84" cx="15.363" cy="15.363" r="15.363" transform="translate(1511.185 5689.924)" fill="#fff766"/>
    <circle id="楕円形_85" data-name="楕円形 85" cx="15.363" cy="15.363" r="15.363" transform="translate(1477.643 5566.188)" fill="#fff766"/>
    <circle id="楕円形_86" data-name="楕円形 86" cx="15.363" cy="15.363" r="15.363" transform="translate(1420.317 5507.292)" fill="#fff766"/>
    <circle id="楕円形_87" data-name="楕円形 87" cx="15.363" cy="15.363" r="15.363" transform="translate(1565.446 5545.353)" fill="#fff766"/>
    <circle id="楕円形_88" data-name="楕円形 88" cx="15.363" cy="15.363" r="15.363" transform="translate(1605.908 5647.148)" fill="#fff766"/>
    <circle id="楕円形_89" data-name="楕円形 89" cx="15.363" cy="15.363" r="15.363" transform="translate(1402.582 5722.459)" fill="#fff766"/>
    <circle id="楕円形_90" data-name="楕円形 90" cx="15.363" cy="15.363" r="15.363" transform="translate(1444.181 5435.81)" fill="#fff766"/>
    <circle id="楕円形_91" data-name="楕円形 91" cx="15.363" cy="15.363" r="15.363" transform="translate(1061.854 5750.987)" fill="#fff766"/>
    <circle id="楕円形_92" data-name="楕円形 92" cx="15.363" cy="15.363" r="15.363" transform="translate(1377.896 5580.797)" fill="#fff766"/>
    <circle id="楕円形_93" data-name="楕円形 93" cx="15.363" cy="15.363" r="15.363" transform="translate(1284.54 5575.847)" fill="#fff766"/>
    <circle id="楕円形_94" data-name="楕円形 94" cx="15.363" cy="15.363" r="15.363" transform="translate(1359.305 5420.364)" fill="#fff766"/>
    <circle id="楕円形_95" data-name="楕円形 95" cx="15.363" cy="15.363" r="15.363" transform="translate(1325.912 5509.241)" fill="#fff766"/>
    <circle id="楕円形_96" data-name="楕円形 96" cx="15.363" cy="15.363" r="15.363" transform="translate(1246.307 5631.084)" fill="#fff766"/>
    <circle id="楕円形_97" data-name="楕円形 97" cx="15.363" cy="15.363" r="15.363" transform="translate(1095.343 5654.144)" fill="#fff766"/>
    <circle id="楕円形_98" data-name="楕円形 98" cx="15.363" cy="15.363" r="15.363" transform="translate(1171.378 5665.252)" fill="#fff766"/>
    <circle id="楕円形_99" data-name="楕円形 99" cx="15.363" cy="15.363" r="15.363" transform="translate(1243.365 5718.661)" fill="#fff766"/>
    <circle id="楕円形_100" data-name="楕円形 100" cx="15.363" cy="15.363" r="15.363" transform="translate(1165.398 5577.246)" fill="#fff766"/>
    <circle id="楕円形_101" data-name="楕円形 101" cx="15.363" cy="15.363" r="15.363" transform="translate(1235.499 5494.409)" fill="#fff766"/>
    <circle id="楕円形_102" data-name="楕円形 102" cx="15.363" cy="15.363" r="15.363" transform="translate(1149.328 5727.984)" fill="#fff766"/>
    <circle id="楕円形_103" data-name="楕円形 103" cx="15.363" cy="15.363" r="15.363" transform="translate(1301.936 5844.265)" fill="#fff766"/>
    <circle id="楕円形_104" data-name="楕円形 104" cx="15.363" cy="15.363" r="15.363" transform="translate(1128.26 5847.551)" fill="#fff766"/>
    <circle id="楕円形_105" data-name="楕円形 105" cx="15.363" cy="15.363" r="15.363" transform="translate(1212.849 5802.591)" fill="#fff766"/>
    <circle id="楕円形_106" data-name="楕円形 106" cx="15.363" cy="15.363" r="15.363" transform="translate(1326.618 5758.653)" fill="#fff766"/>
    <circle id="楕円形_107" data-name="楕円形 107" cx="15.363" cy="15.363" r="15.363" transform="translate(1316.054 5680.293)" fill="#fff766"/>
    <circle id="楕円形_108" data-name="楕円形 108" cx="15.363" cy="15.363" r="15.363" transform="translate(1416.457 5641.768)" fill="#fff766"/>
    <circle id="楕円形_109" data-name="楕円形 109" cx="15.363" cy="15.363" r="15.363" transform="translate(1521.684 5618.229)" fill="#fff766"/>
  </g>
</svg>
