<svg xmlns="http://www.w3.org/2000/svg" width="112.77" height="153.62" viewBox="0 0 112.77 153.62">
  <g id="グループ_479" data-name="グループ 479" transform="translate(-1030.779 -1010.297)">
    <g id="グループ_465" data-name="グループ 465">
      <g id="グループ_452" data-name="グループ 452">
        <path id="パス_282" data-name="パス 282" d="M1082.847,1109.484c5.842-10.271,14.47-18.269,22.671-18.269,18.6,0,33.678,31.787,33.678,71h-58.179a166.289,166.289,0,0,1,.667-18.478" fill="#fff"/>
        <path id="パス_283" data-name="パス 283" d="M1084.326,1110.325c6.015-10.576,14.333-17.409,21.192-17.409,17.633,0,31.977,31.087,31.977,69.3a1.7,1.7,0,0,1,1.7-1.7h-58.179a1.7,1.7,0,0,1,1.7,1.59,163.96,163.96,0,0,1,.662-18.2h0a1.7,1.7,0,1,0-3.386-.332h0a165.345,165.345,0,0,0-.671,18.755,1.7,1.7,0,0,0,1.7,1.59H1139.2a1.7,1.7,0,0,0,1.7-1.7c0-40.766-15.54-72.7-35.379-72.7-8.185,0-17.439,7.33-24.149,19.129h0a1.7,1.7,0,0,0,2.957,1.682Z" fill="#333"/>
      </g>
      <g id="グループ_453" data-name="グループ 453">
        <path id="パス_284" data-name="パス 284" d="M1094.7,1111.173l10.888-5a1.135,1.135,0,0,1-.934.006l11.25,5h0a1.134,1.134,0,1,0,.921-2.072h0l-11.25-5a1.133,1.133,0,0,0-.933.006l-10.888,5h0a1.133,1.133,0,1,0,.946,2.06Z" fill="#333"/>
      </g>
      <g id="グループ_454" data-name="グループ 454">
        <path id="パス_285" data-name="パス 285" d="M1089.323,1101.34l15.5,36.25a1.133,1.133,0,0,0,2.091-.014l15.75-38.25h0a1.133,1.133,0,1,0-2.1-.863h0l-15.75,38.25a1.133,1.133,0,0,1,2.09-.013l-15.5-36.25h0a1.133,1.133,0,1,0-2.085.89Z" fill="#333"/>
      </g>
      <g id="グループ_455" data-name="グループ 455">
        <path id="パス_286" data-name="パス 286" d="M1084.772,1104.216l-1.651,10.367a1.133,1.133,0,0,0,.612,1.193l6.417,3.209a1.132,1.132,0,0,1-.392-1.7l-4.613,6.015a1.135,1.135,0,0,0,.26,1.627l19.254,13.158h0a1.134,1.134,0,0,0,1.28-1.873h0l-19.255-13.158a1.136,1.136,0,0,1,.261,1.627l4.612-6.016a1.134,1.134,0,0,0-.392-1.7l-6.417-3.209a1.133,1.133,0,0,1,.612,1.193l1.651-10.367h0a1.134,1.134,0,1,0-2.239-.358Z" fill="#333"/>
      </g>
      <g id="グループ_456" data-name="グループ 456">
        <path id="パス_287" data-name="パス 287" d="M1123.828,1104.574l1.652,10.367a1.133,1.133,0,0,1,.612-1.193l-6.417,3.209a1.134,1.134,0,0,0-.393,1.7l4.613,6.016a1.137,1.137,0,0,1,.26-1.627l-19.254,13.158h0a1.134,1.134,0,0,0,1.279,1.873h0l19.255-13.158a1.135,1.135,0,0,0,.26-1.627l-4.613-6.015a1.134,1.134,0,0,1-.392,1.7l6.417-3.209a1.133,1.133,0,0,0,.612-1.193l-1.651-10.367h0a1.134,1.134,0,0,0-2.24.358Z" fill="#333"/>
      </g>
      <g id="グループ_457" data-name="グループ 457">
        <path id="パス_288" data-name="パス 288" d="M1102.727,1107.709l2.527-2.564,2.889,2.564-2.347,3.332,3.069,14.1-3.069,10.254-3.431-10.254,2.708-14.1Z" fill="#333"/>
        <path id="パス_289" data-name="パス 289" d="M1103.939,1108.9l2.527-2.565a1.7,1.7,0,0,1-2.34.078l2.889,2.565a1.7,1.7,0,0,1-.262-2.252l-2.347,3.332a1.7,1.7,0,0,0-.271,1.341l3.069,14.1a1.692,1.692,0,0,1,.033-.848l-3.07,10.254a1.7,1.7,0,0,1,3.242-.053l-3.43-10.254a1.7,1.7,0,0,1,.057.861l2.709-14.1a1.7,1.7,0,0,0-.28-1.3l-2.347-3.332A1.7,1.7,0,0,1,1103.939,1108.9Zm-.535,1.816-2.708,14.1a1.69,1.69,0,0,0,.057.861l3.431,10.254a1.7,1.7,0,0,0,3.242-.053l3.069-10.254a1.692,1.692,0,0,0,.033-.848l-3.07-14.1a1.7,1.7,0,0,1-.271,1.341l2.347-3.332a1.7,1.7,0,0,0-.261-2.252l-2.889-2.565a1.7,1.7,0,0,0-2.341.079l-2.527,2.565a1.7,1.7,0,0,0-.179,2.173l2.347,3.332A1.7,1.7,0,0,1,1103.4,1110.72Z" fill="#333"/>
      </g>
      <g id="グループ_464" data-name="グループ 464">
        <g id="グループ_458" data-name="グループ 458">
          <path id="パス_290" data-name="パス 290" d="M1038.831,1105.5c-4.647-1.57-8.782-11.38-4.669-15.462s10.114-4.487,10.114-4.487-3.5-19.355.213-21.312c2.407-1.27,4.634,10.39,4.883,11.521.709,3.228.649,7.809,1.986,10.742,1.1,2.412,3.42,3.881,4.378,6.4,1.153,3.029.278,5.275-.957,8.1-1.3,2.969-.389,4.906-.12,7.871.227,2.508-.437,5.449.871,7.754.626,1.1-10.756.4-10.756.4s-1.152-7.962-1.777-9.066S1041.9,1106.541,1038.831,1105.5Z" fill="#fff"/>
          <path id="パス_291" data-name="パス 291" d="M1039.375,1103.893c-2.009-.679-4.174-3.762-4.929-7.018-.565-2.437-.232-4.488.914-5.626,3.592-3.564,8.981-3.994,9.035-4a1.7,1.7,0,0,0,1.555-2c-1.673-9.262-1.97-18.386-.635-19.525a.2.2,0,0,1-.033.02.911.911,0,0,1-.872-.023c.14.111,1.417,1.345,3.218,10.013l.084.393c.241,1.1.391,2.409.549,3.792a24.966,24.966,0,0,0,1.549,7.289,14.438,14.438,0,0,0,2.36,3.4,10.426,10.426,0,0,1,1.977,2.9c.908,2.389.24,4.148-.927,6.818a10.844,10.844,0,0,0-.521,6.734c.1.629.2,1.279.266,1.972a21.346,21.346,0,0,1,.033,2.244c-.037,1.969-.079,4.2,1.053,6.2a1.555,1.555,0,0,1-.091-1.319,1.368,1.368,0,0,1,.736-.794c-.9.293-5.8.222-9.816-.028a1.7,1.7,0,0,1,1.577,1.454c-.447-3.091-1.3-8.458-1.98-9.66C1043.505,1105.406,1042.434,1104.927,1039.375,1103.893Zm2.142,4.908c-.026-.045,0,.007-.022-.041a69.652,69.652,0,0,1,1.6,8.512,1.7,1.7,0,0,0,1.577,1.454c11.225.7,11.8-.22,12.306-1.031a1.854,1.854,0,0,0,.035-1.9,8.919,8.919,0,0,1-.61-4.453,24.093,24.093,0,0,0-.046-2.615c-.073-.807-.191-1.547-.3-2.2-.3-1.853-.489-3.076.28-4.838,1.142-2.616,2.437-5.581.987-9.389a13.34,13.34,0,0,0-2.567-3.9,11.747,11.747,0,0,1-1.853-2.6,22.872,22.872,0,0,1-1.265-6.265c-.16-1.408-.327-2.864-.607-4.137l-.074-.355c-2.028-9.756-3.676-11.718-5.021-12.352a2.456,2.456,0,0,0-2.242.047c-4.188,2.208-2.483,15.432-1.094,23.119a1.7,1.7,0,0,1,1.559-2c-.271.018-6.685.5-11.2,4.977-2,1.987-2.669,5.2-1.832,8.808,1.045,4.507,3.987,8.4,7.154,9.473C1041.1,1108.067,1041.19,1108.222,1041.517,1108.8Z" fill="#333"/>
        </g>
        <g id="グループ_459" data-name="グループ 459">
          <path id="パス_292" data-name="パス 292" d="M1051.6,1092.434c-2.433.124-8.485-1.508-9.268.76s6.457,5.783,6.457,5.783" fill="#fff"/>
          <path id="パス_293" data-name="パス 293" d="M1051.545,1091.3a19.917,19.917,0,0,1-2.632-.191c-3.186-.353-6.8-.752-7.65,1.714-1,2.906,4.585,5.984,7.034,7.172h0a1.133,1.133,0,1,0,.99-2.039h0c-3.358-1.632-5.916-3.709-5.877-4.406l0,.013c.26-.753,3.89-.352,5.257-.2a21.028,21.028,0,0,0,3,.2h0a1.134,1.134,0,0,0-.115-2.266Z" fill="#333"/>
        </g>
        <g id="グループ_460" data-name="グループ 460">
          <path id="パス_294" data-name="パス 294" d="M1043.066,1116.8l-1.06-4.85,14.133-4.166.84,4.295" fill="#fff"/>
          <path id="パス_295" data-name="パス 295" d="M1044.174,1116.555l-1.06-4.85a1.135,1.135,0,0,1-.787,1.33l14.133-4.166a1.133,1.133,0,0,1-1.433-.87l.84,4.295h0a1.134,1.134,0,0,0,2.225-.435h0l-.84-4.3a1.133,1.133,0,0,0-1.433-.87l-14.134,4.166a1.135,1.135,0,0,0-.787,1.33l1.06,4.849h0a1.134,1.134,0,1,0,2.216-.484Z" fill="#333"/>
        </g>
        <g id="グループ_461" data-name="グループ 461">
          <path id="パス_296" data-name="パス 296" d="M1081.684,1143.737s-6.611,10.1-16.064,11.17-15.4-7.557-17.229-14.2c-1.515-5.492-6.867-24.032-6.867-24.032l17.044-5.159,6.021,20.924,18.258-22.954" fill="#fff"/>
          <path id="パス_297" data-name="パス 297" d="M1080.26,1142.806v0c-.062.1-6.3,9.452-14.832,10.412-9.068,1.022-14.037-8.033-15.4-12.963l-6.873-24.052a1.7,1.7,0,0,1-1.141,2.1l17.044-5.159a1.7,1.7,0,0,1-2.127-1.157l6.02,20.924a1.7,1.7,0,0,0,2.966.587l18.258-22.954h0a1.7,1.7,0,1,0-2.662-2.117h0l-18.258,22.954a1.7,1.7,0,0,1,2.965.588l-6.021-20.924a1.7,1.7,0,0,0-2.127-1.157l-17.044,5.159a1.7,1.7,0,0,0-1.141,2.1l6.862,24.013c2.267,8.214,9.2,16.549,19.058,15.439,10.132-1.142,17.009-11.489,17.3-11.93h0a1.7,1.7,0,0,0-2.847-1.861Z" fill="#333"/>
        </g>
        <g id="グループ_462" data-name="グループ 462">
          <path id="パス_298" data-name="パス 298" d="M1043.856,1110.372l-2.9.82,1.067,3.37" fill="#fff"/>
          <path id="パス_299" data-name="パス 299" d="M1043.394,1108.736l-2.905.82a1.7,1.7,0,0,0-1.159,2.15l1.067,3.37h0a1.7,1.7,0,0,0,3.243-1.027h0l-1.067-3.37a1.7,1.7,0,0,1-1.159,2.15l2.905-.82h0a1.7,1.7,0,1,0-.925-3.273Z" fill="#333"/>
        </g>
        <g id="グループ_463" data-name="グループ 463">
          <path id="パス_300" data-name="パス 300" d="M1054.751,1107.237l1.629-.8.656,3.945" fill="#fff"/>
          <path id="パス_301" data-name="パス 301" d="M1055.5,1108.761l1.629-.8a1.7,1.7,0,0,1-2.431-1.245l.656,3.946h0a1.7,1.7,0,0,0,3.355-.559h0l-.656-3.945a1.7,1.7,0,0,0-2.431-1.245l-1.629.8h0a1.7,1.7,0,1,0,1.507,3.049Z" fill="#333"/>
        </g>
      </g>
    </g>
    <g id="グループ_466" data-name="グループ 466">
      <path id="パス_302" data-name="パス 302" d="M1132.429,1048.288c.452,4.334.72,8.81.8,13.246,2.208.084,9.208-1.166,8.583,8.584-.15,2.341-2.625,6.375-9.842,7.775-1.666,8.85-5.16,16.4-11.544,20.75-11.119,7.568-26.244,6.312-34.508-4.447-3.242-4.22-5.52-10.052-6.969-16.41-8.262-1.418-9.761-4.491-10.062-7.453-.314-3.1.05-7.965,8.262-10.545a54.7,54.7,0,0,1,2.893-17.437c4.907-13.244,11.843-15.945,27.664-15.965C1125.022,1026.361,1130.745,1032.1,1132.429,1048.288Z" fill="#fff"/>
      <path id="パス_303" data-name="パス 303" d="M1130.738,1048.464c.446,4.287.711,8.7.788,13.1a1.7,1.7,0,0,0,1.636,1.67c.275.01.586.005.915,0,1.412-.028,3.547-.07,4.781,1.22,1,1.047,1.423,2.917,1.254,5.558-.12,1.86-2.474,5.051-8.469,6.214a1.7,1.7,0,0,0-1.347,1.355c-1.76,9.35-5.4,15.964-10.83,19.659-10.883,7.408-24.727,5.655-32.2-4.077-2.854-3.716-5.157-9.163-6.659-15.751a1.7,1.7,0,0,0-1.37-1.3c-8.2-1.409-8.5-4.363-8.658-5.95-.3-2.945.236-6.6,7.08-8.75a1.7,1.7,0,0,0,1.191-1.589,52.653,52.653,0,0,1,2.787-16.88c4.664-12.589,10.886-14.836,26.071-14.855C1123.729,1028.064,1129.111,1032.825,1130.738,1048.464Zm-23.037-23.779c-15.544.019-23.886,2.579-29.257,17.075a56.053,56.053,0,0,0-3,17.995,1.7,1.7,0,0,1,1.19-1.59c-6.878,2.161-10.056,6.313-9.444,12.34.5,4.919,4.036,7.682,11.465,8.957a1.7,1.7,0,0,1-1.37-1.3c1.634,7.165,4.083,12.908,7.279,17.068,8.591,11.184,24.418,13.256,36.814,4.817,6.2-4.223,10.326-11.571,12.259-21.842a1.7,1.7,0,0,1-1.348,1.356c8.486-1.647,11.043-6.644,11.216-9.336.232-3.63-.505-6.363-2.191-8.127-2.266-2.368-5.544-2.3-7.306-2.27-.291.006-.542.011-.719,0a1.7,1.7,0,0,1,1.636,1.67c-.079-4.5-.35-9.008-.806-13.391C1132.319,1030.789,1125.405,1024.66,1107.7,1024.685Z" fill="#333"/>
    </g>
    <g id="グループ_467" data-name="グループ 467">
      <path id="パス_304" data-name="パス 304" d="M1101.268,1066.231a96.75,96.75,0,0,0-1.058,10.849,3.071,3.071,0,0,0,1.17,2.5c1.976,1.564,5.872.764,7.019.482h0a1.7,1.7,0,0,0-.813-3.3h0c-1.655.4-3.646.478-4.1.154a.378.378,0,0,1,.122.216v-.01a88.727,88.727,0,0,1,1.023-10.391h0a1.7,1.7,0,0,0-3.366-.492Z" fill="#333"/>
    </g>
    <g id="グループ_468" data-name="グループ 468">
      <path id="パス_305" data-name="パス 305" d="M1095.623,1063.915a2.545,2.545,0,1,1-2.52-2.569A2.545,2.545,0,0,1,1095.623,1063.915Z" fill="#333"/>
    </g>
    <g id="グループ_469" data-name="グループ 469">
      <path id="パス_306" data-name="パス 306" d="M1119,1063.915a2.545,2.545,0,1,1-2.52-2.569A2.545,2.545,0,0,1,1119,1063.915Z" fill="#333"/>
    </g>
    <g id="グループ_470" data-name="グループ 470">
      <path id="パス_307" data-name="パス 307" d="M1092.083,1017.5c-5.7,7.3-3.979,2.511-6,2.666-10.133.781-9.991,8.947-11.166,12.914,30.667-2,48.167,13.318,51.834,13.484,3.666,6.667,4,14,4.447,24.637,1.788-4.325,1.426-5.589,2.538-7.825,1.1-2.213.931-3.712,3.681-1.629C1150.084,1014.414,1102.751,1003.833,1092.083,1017.5Z" fill="#333"/>
      <path id="パス_308" data-name="パス 308" d="M1090.742,1016.454c-2.255,2.89-2.979,3.39-3.147,3.474a1.115,1.115,0,0,1,1.188.309c-.02-.027-.069-.108-.1-.166a2.851,2.851,0,0,0-2.726-1.6c-9.817.756-11.308,7.876-12.2,12.13-.156.741-.3,1.44-.467,2a1.7,1.7,0,0,0,1.742,2.181c22.87-1.492,38.455,6.96,45.944,11.021,2.862,1.552,4.438,2.406,5.7,2.464a1.7,1.7,0,0,1-1.414-.88c3.5,6.368,3.811,13.717,4.239,23.889a1.7,1.7,0,0,0,3.271.579,30.582,30.582,0,0,0,1.658-5.177,10.672,10.672,0,0,1,.831-2.54c.223-.449.393-.854.542-1.213a6.551,6.551,0,0,1,.355-.77.916.916,0,0,1-.814.288,4.255,4.255,0,0,1,1.048.664,1.7,1.7,0,0,0,2.67-.916c5.868-21.928-.472-39.922-16.96-48.135C1110.394,1008.222,1096.327,1009.3,1090.742,1016.454Zm47.7,43.938c-1.128-.855-2.348-1.6-3.618-1.256s-1.746,1.475-2.163,2.474c-.136.324-.276.66-.45,1.008a13.95,13.95,0,0,0-1.094,3.268,27.131,27.131,0,0,1-1.493,4.664,1.7,1.7,0,0,1,3.271.579c-.447-10.635-.77-18.318-4.656-25.385a1.7,1.7,0,0,0-1.413-.879,25.418,25.418,0,0,1-4.234-2.056c-7.77-4.214-23.938-12.982-47.788-11.426a1.7,1.7,0,0,1,1.742,2.181c.2-.689.364-1.455.534-2.266.871-4.16,1.859-8.876,9.131-9.436a.772.772,0,0,1-.573-.23c.026.032.09.137.132.2a2.567,2.567,0,0,0,2.033,1.426c1.42.083,2.733-1.019,5.619-4.717,4.563-5.845,17-6.509,27.159-1.449,7.169,3.571,23,15.027,15.191,44.211a1.7,1.7,0,0,1,2.67-.916Z" fill="#333"/>
    </g>
    <g id="グループ_471" data-name="グループ 471">
      <path id="パス_309" data-name="パス 309" d="M1074,1061.33c3-3.5,4.67,12.374,3.982,7.046-.607-4.709,4.431-30.3,8.431-40.8.756-1.982-7.25-12.75-12.25,5.75C1071.993,1041.375,1073.6,1058.823,1074,1061.33Z" fill="#333"/>
      <path id="パス_310" data-name="パス 310" d="M1075.3,1062.437c.032-.036.049-.051.049-.052a.888.888,0,0,1-.971-.015c.779.707,1.827,5.21,2.075,7.286a1.7,1.7,0,0,1,3.364-.485c-.009-.052-.053-.35-.139-1.012-.519-4.026,4.219-29.173,8.333-39.973.573-1.5-.5-3.508-1.6-4.767a6.12,6.12,0,0,0-5.989-2.32c-3.33.767-5.985,4.732-7.892,11.788-2.37,8.771-.489,26.931-.2,28.715a1.7,1.7,0,0,0,2.971.835Zm.514-28.663c1.64-6.07,3.858-9.584,5.933-9.4,1.6.143,2.97,2.287,3.024,2.911a.8.8,0,0,1,.061-.31c-3.881,10.187-9.22,36.248-8.528,41.619.178,1.38.319,2.47,1.7,2.582a1.7,1.7,0,0,0,1.767-1.209c.238-.8-.981-9.054-3.692-10.533a2.628,2.628,0,0,0-3.365.79,1.7,1.7,0,0,1,2.971.835C1075.28,1058.57,1073.753,1041.381,1075.809,1033.774Z" fill="#333"/>
    </g>
    <g id="グループ_477" data-name="グループ 477">
      <g id="グループ_472" data-name="グループ 472">
        <path id="パス_311" data-name="パス 311" d="M1101.614,1061.99l-.005,0a6.039,6.039,0,0,1,2.553-.977,5.164,5.164,0,0,1,2.891.606l0,0a1.134,1.134,0,0,0,1.152-1.953h0a7.434,7.434,0,0,0-4.361-.9,8.208,8.208,0,0,0-3.622,1.43h0a1.134,1.134,0,0,0,1.4,1.788Z" fill="#333"/>
      </g>
      <g id="グループ_474" data-name="グループ 474">
        <g id="グループ_473" data-name="グループ 473">
          <path id="パス_312" data-name="パス 312" d="M1094.762,1069.724h-7.857c-4.577,0-5.184-6.407-5.208-6.68a2.9,2.9,0,0,1,2.963-2.75h12.507a2.907,2.907,0,0,1,2.958,2.846C1100.118,1063.384,1099.9,1069.724,1094.762,1069.724Zm7.63-6.584a5.176,5.176,0,0,0-5.225-5.113H1084.66a5.176,5.176,0,0,0-5.226,5.113c.256,3.123,2.14,8.852,7.471,8.852h7.857C1100.654,1071.992,1102.329,1066.217,1102.392,1063.14Z" fill="#333"/>
        </g>
      </g>
      <g id="グループ_476" data-name="グループ 476">
        <g id="グループ_475" data-name="グループ 475">
          <path id="パス_313" data-name="パス 313" d="M1113.706,1071.992h7.858c5.331,0,7.215-5.729,7.466-8.758a5.19,5.19,0,0,0-5.222-5.207H1111.3a5.176,5.176,0,0,0-5.225,5.113C1106.139,1066.217,1107.816,1071.992,1113.706,1071.992Zm-5.363-8.852a2.908,2.908,0,0,1,2.958-2.846h12.507a2.907,2.907,0,0,1,2.959,2.846c-.02.177-.627,6.584-5.2,6.584h-7.858C1108.54,1069.724,1108.349,1063.386,1108.343,1063.14Z" fill="#333"/>
        </g>
      </g>
    </g>
    <g id="グループ_478" data-name="グループ 478">
      <path id="パス_314" data-name="パス 314" d="M1113.233,1086.924c-2.831,3.1-5.642,4.261-8.583,4.232-2.666-.028-5.72-2.288-7.238-4.537Z" fill="#333"/>
      <path id="パス_315" data-name="パス 315" d="M1111.978,1085.777c-2.319,2.536-4.642,3.705-7.311,3.677-2.045-.02-4.626-1.981-5.846-3.787a1.7,1.7,0,0,1-1.442,2.653l15.821.3a1.7,1.7,0,0,1-1.222-2.847Zm-15.975,1.8c1.756,2.6,5.284,5.25,8.63,5.285,3.655.036,6.879-1.53,9.855-4.785a1.7,1.7,0,0,0-1.222-2.848l-15.821-.305a1.7,1.7,0,0,0-1.442,2.653Z" fill="#333"/>
    </g>
  </g>
</svg>
