<svg xmlns="http://www.w3.org/2000/svg" width="387.231" height="6.115" viewBox="0 0 387.231 6.115">
  <g id="グループ_545" data-name="グループ 545" transform="translate(-228.416 -184.903)">
    <circle id="楕円形_178" data-name="楕円形 178" cx="3.058" cy="3.058" r="3.058" transform="translate(228.416 184.903)" fill="#ff8e66"/>
    <circle id="楕円形_179" data-name="楕円形 179" cx="3.058" cy="3.058" r="3.058" transform="translate(242.531 184.903)" fill="#ff8e66"/>
    <circle id="楕円形_180" data-name="楕円形 180" cx="3.058" cy="3.058" r="3.058" transform="translate(256.647 184.903)" fill="#ff8e66"/>
    <circle id="楕円形_181" data-name="楕円形 181" cx="3.058" cy="3.058" r="3.058" transform="translate(270.762 184.903)" fill="#ff8e66"/>
    <circle id="楕円形_182" data-name="楕円形 182" cx="3.058" cy="3.058" r="3.058" transform="translate(284.878 184.903)" fill="#ff8e66"/>
    <circle id="楕円形_183" data-name="楕円形 183" cx="3.058" cy="3.058" r="3.058" transform="translate(298.993 184.903)" fill="#ff8e66"/>
    <circle id="楕円形_184" data-name="楕円形 184" cx="3.058" cy="3.058" r="3.058" transform="translate(313.108 184.903)" fill="#ff8e66"/>
    <circle id="楕円形_185" data-name="楕円形 185" cx="3.058" cy="3.058" r="3.058" transform="translate(327.224 184.903)" fill="#ff8e66"/>
    <circle id="楕円形_186" data-name="楕円形 186" cx="3.058" cy="3.058" r="3.058" transform="translate(341.339 184.903)" fill="#ff8e66"/>
    <circle id="楕円形_187" data-name="楕円形 187" cx="3.058" cy="3.058" r="3.058" transform="translate(355.455 184.903)" fill="#ff8e66"/>
    <circle id="楕円形_188" data-name="楕円形 188" cx="3.058" cy="3.058" r="3.058" transform="translate(369.57 184.903)" fill="#ff8e66"/>
    <circle id="楕円形_189" data-name="楕円形 189" cx="3.058" cy="3.058" r="3.058" transform="translate(383.685 184.903)" fill="#ff8e66"/>
    <circle id="楕円形_190" data-name="楕円形 190" cx="3.058" cy="3.058" r="3.058" transform="translate(397.801 184.903)" fill="#ff8e66"/>
    <circle id="楕円形_191" data-name="楕円形 191" cx="3.058" cy="3.058" r="3.058" transform="translate(411.916 184.903)" fill="#ff8e66"/>
    <circle id="楕円形_192" data-name="楕円形 192" cx="3.058" cy="3.058" r="3.058" transform="translate(426.032 184.903)" fill="#ff8e66"/>
    <circle id="楕円形_193" data-name="楕円形 193" cx="3.058" cy="3.058" r="3.058" transform="translate(440.147 184.903)" fill="#ff8e66"/>
    <circle id="楕円形_194" data-name="楕円形 194" cx="3.058" cy="3.058" r="3.058" transform="translate(454.262 184.903)" fill="#ff8e66"/>
    <circle id="楕円形_195" data-name="楕円形 195" cx="3.058" cy="3.058" r="3.058" transform="translate(468.378 184.903)" fill="#ff8e66"/>
    <circle id="楕円形_196" data-name="楕円形 196" cx="3.058" cy="3.058" r="3.058" transform="translate(482.493 184.903)" fill="#ff8e66"/>
    <circle id="楕円形_197" data-name="楕円形 197" cx="3.058" cy="3.058" r="3.058" transform="translate(496.609 184.903)" fill="#ff8e66"/>
    <circle id="楕円形_198" data-name="楕円形 198" cx="3.058" cy="3.058" r="3.058" transform="translate(510.724 184.903)" fill="#ff8e66"/>
    <circle id="楕円形_199" data-name="楕円形 199" cx="3.058" cy="3.058" r="3.058" transform="translate(524.839 184.903)" fill="#ff8e66"/>
    <circle id="楕円形_200" data-name="楕円形 200" cx="3.058" cy="3.058" r="3.058" transform="translate(538.955 184.903)" fill="#ff8e66"/>
    <circle id="楕円形_201" data-name="楕円形 201" cx="3.058" cy="3.058" r="3.058" transform="translate(553.07 184.903)" fill="#ff8e66"/>
    <circle id="楕円形_202" data-name="楕円形 202" cx="3.058" cy="3.058" r="3.058" transform="translate(567.186 184.903)" fill="#ff8e66"/>
    <circle id="楕円形_203" data-name="楕円形 203" cx="3.058" cy="3.058" r="3.058" transform="translate(581.301 184.903)" fill="#ff8e66"/>
    <circle id="楕円形_204" data-name="楕円形 204" cx="3.058" cy="3.058" r="3.058" transform="translate(595.416 184.903)" fill="#ff8e66"/>
    <circle id="楕円形_205" data-name="楕円形 205" cx="3.058" cy="3.058" r="3.058" transform="translate(609.532 184.903)" fill="#ff8e66"/>
  </g>
</svg>
