<svg xmlns="http://www.w3.org/2000/svg" xmlns:xlink="http://www.w3.org/1999/xlink" width="219.205" height="219.058" viewBox="0 0 219.205 219.058">
  <defs>
    <clipPath id="clip-path">
      <rect id="長方形_389" data-name="長方形 389" width="95.691" height="69.928" transform="translate(805.881 7108.342)" fill="none"/>
    </clipPath>
    <clipPath id="clip-path-2">
      <rect id="長方形_390" data-name="長方形 390" width="100.843" height="75.08" transform="translate(800.728 7103.189)" fill="none"/>
    </clipPath>
    <clipPath id="clip-path-3">
      <rect id="長方形_392" data-name="長方形 392" width="105.849" height="130.728" transform="translate(795.723 7047.542)" fill="none"/>
    </clipPath>
    <clipPath id="clip-path-4">
      <rect id="長方形_394" data-name="長方形 394" width="64.481" height="109.971" transform="translate(807.942 7047.542)" fill="none"/>
    </clipPath>
  </defs>
  <g id="グループ_677" data-name="グループ 677" transform="translate(-696.863 -6974.522)">
    <rect id="長方形_380" data-name="長方形 380" width="219.205" height="219.058" rx="6.919" transform="translate(696.863 6974.522)" fill="#fff"/>
    <path id="線_261" data-name="線 261" d="M80.086.23H0A.23.23,0,0,1-.23,0,.23.23,0,0,1,0-.23H80.086a.23.23,0,0,1,.23.23A.23.23,0,0,1,80.086.23Z" transform="translate(731.683 7128.658)" fill="#fff"/>
    <path id="線_262" data-name="線 262" d="M80.086.368H0V-.368H80.086Z" transform="translate(731.683 7128.658)" fill="#3e3a39"/>
    <path id="線_263" data-name="線 263" d="M63.3.23H0A.23.23,0,0,1-.23,0,.23.23,0,0,1,0-.23H63.3a.23.23,0,0,1,.23.23A.23.23,0,0,1,63.3.23Z" transform="translate(835.618 7128.658)" fill="#fff"/>
    <path id="線_264" data-name="線 264" d="M63.3.368H0V-.368H63.3Z" transform="translate(835.618 7128.658)" fill="#3e3a39"/>
    <path id="パス_494" data-name="パス 494" d="M782.179,7118.058h-9.422a1.3,1.3,0,0,1-1.325-1.177v-41.663a2.988,2.988,0,0,1,2.944-3.091h6.036a3.11,3.11,0,0,1,3.092,3.091v41.663A1.3,1.3,0,0,1,782.179,7118.058Z" fill="#fff"/>
    <path id="パス_495" data-name="パス 495" d="M782.179,7118.426h-9.422a1.667,1.667,0,0,1-1.693-1.545v-41.663a3.352,3.352,0,0,1,3.312-3.459h6.036a3.5,3.5,0,0,1,2.409.987,3.414,3.414,0,0,1,1.051,2.472v41.663A1.667,1.667,0,0,1,782.179,7118.426Zm-7.8-45.931a2.624,2.624,0,0,0-2.576,2.723v41.663a.939.939,0,0,0,.957.809h9.422a.939.939,0,0,0,.957-.809v-41.663a2.683,2.683,0,0,0-.826-1.943,2.759,2.759,0,0,0-1.9-.78Z" fill="#3e3a39"/>
    <rect id="長方形_381" data-name="長方形 381" width="2.65" height="2.797" transform="translate(775.996 7088.91)" fill="#3e3a39"/>
    <rect id="長方形_382" data-name="長方形 382" width="2.65" height="2.797" transform="translate(775.996 7091.56)" fill="#898989"/>
    <rect id="長方形_383" data-name="長方形 383" width="2.65" height="2.503" transform="translate(775.996 7095.093)" fill="#ebd784"/>
    <path id="長方形_384" data-name="長方形 384" d="M-.368-.368H5.815V11.115H-.368ZM5.079.368H.368V10.379H5.079Z" transform="translate(774.671 7087.879)" fill="#3e3a39"/>
    <path id="長方形_385" data-name="長方形 385" d="M-.368-.368H2.871V8.907H-.368Zm2.5.736H.368v7.8H2.135Z" transform="translate(776.143 7089.057)" fill="#3e3a39"/>
    <path id="線_265" data-name="線 265" d="M1.242,1.465-.23.287.23-.287,1.7.89Z" transform="translate(774.671 7087.879)" fill="#3e3a39"/>
    <path id="線_266" data-name="線 266" d="M.211,1.332l-.422-.6L1.261-.3l.422.6Z" transform="translate(774.671 7097.595)" fill="#3e3a39"/>
    <path id="線_267" data-name="線 267" d="M1.261,1.332-.211.3.211-.3,1.683.729Z" transform="translate(778.646 7097.595)" fill="#3e3a39"/>
    <path id="線_268" data-name="線 268" d="M.23,1.465-.23.89,1.242-.287,1.7.287Z" transform="translate(778.646 7087.879)" fill="#3e3a39"/>
    <path id="パス_496" data-name="パス 496" d="M777.468,7107.238a1.368,1.368,0,0,1,1.4,1.4,1.5,1.5,0,0,1-1.4,1.545,1.628,1.628,0,0,1-1.546-1.545A1.5,1.5,0,0,1,777.468,7107.238Zm0,2.208a.78.78,0,0,0,.662-.809.641.641,0,0,0-.662-.663.781.781,0,0,0-.81.663A.9.9,0,0,0,777.468,7109.446Z" fill="#3e3a39"/>
    <path id="パス_497" data-name="パス 497" d="M777.468,7104a4.643,4.643,0,0,1,4.637,4.638,4.83,4.83,0,0,1-1.356,3.4,4.549,4.549,0,0,1-3.281,1.381,4.712,4.712,0,1,1,0-9.422Zm0,8.686a3.976,3.976,0,0,0,0-7.95,3.976,3.976,0,1,0,0,7.95Z" fill="#3e3a39"/>
    <path id="パス_498" data-name="パス 498" d="M770.254,7118.058h-9.569a1.3,1.3,0,0,1-1.325-1.177v-41.663a3.11,3.11,0,0,1,3.092-3.091h6.036a2.988,2.988,0,0,1,2.944,3.091v41.663A1.266,1.266,0,0,1,770.254,7118.058Z" fill="#fff"/>
    <path id="パス_499" data-name="パス 499" d="M770.254,7118.426h-9.569a1.667,1.667,0,0,1-1.693-1.545v-41.663a3.414,3.414,0,0,1,1.051-2.472,3.5,3.5,0,0,1,2.409-.987h6.036a3.352,3.352,0,0,1,3.312,3.459v41.663A1.628,1.628,0,0,1,770.254,7118.426Zm-7.8-45.931a2.759,2.759,0,0,0-1.9.78,2.683,2.683,0,0,0-.826,1.943v41.663a.939.939,0,0,0,.957.809h9.569a.9.9,0,0,0,.81-.809v-41.663a2.624,2.624,0,0,0-2.576-2.723Z" fill="#3e3a39"/>
    <path id="長方形_386" data-name="長方形 386" d="M-.368-.368H5.815V11.115H-.368ZM5.079.368H.368V10.379H5.079Z" transform="translate(762.599 7087.879)" fill="#3e3a39"/>
    <path id="線_269" data-name="線 269" d="M1.242,1.465-.23.287.23-.287,1.7.89Z" transform="translate(762.599 7087.879)" fill="#3e3a39"/>
    <path id="線_270" data-name="線 270" d="M.211,1.332l-.422-.6L1.261-.3l.422.6Z" transform="translate(762.599 7097.595)" fill="#3e3a39"/>
    <path id="線_271" data-name="線 271" d="M1.261,1.332-.211.3.211-.3,1.683.729Z" transform="translate(766.574 7097.595)" fill="#3e3a39"/>
    <path id="線_272" data-name="線 272" d="M.23,1.465-.23.89,1.242-.287,1.7.287Z" transform="translate(766.574 7087.879)" fill="#3e3a39"/>
    <path id="パス_500" data-name="パス 500" d="M765.4,7107.238a1.5,1.5,0,0,1,1.546,1.4,1.628,1.628,0,0,1-1.546,1.545,1.5,1.5,0,0,1-1.4-1.545A1.368,1.368,0,0,1,765.4,7107.238Zm0,2.208a.9.9,0,0,0,.81-.809.781.781,0,0,0-.81-.663.641.641,0,0,0-.662.663A.78.78,0,0,0,765.4,7109.446Z" fill="#3e3a39"/>
    <path id="パス_501" data-name="パス 501" d="M765.4,7104a4.712,4.712,0,1,1,0,9.422,4.549,4.549,0,0,1-3.281-1.381,4.83,4.83,0,0,1-1.356-3.4A4.643,4.643,0,0,1,765.4,7104Zm0,8.686a3.976,3.976,0,1,0,0-7.95,3.976,3.976,0,0,0,0,7.95Z" fill="#3e3a39"/>
    <rect id="長方形_387" data-name="長方形 387" width="2.65" height="0.589" transform="translate(764.071 7097.006)" fill="#a7436a"/>
    <path id="線_273" data-name="線 273" d="M2.5.368H0V-.368H2.5Z" transform="translate(764.071 7094.945)" fill="#a7436a"/>
    <path id="線_274" data-name="線 274" d="M2.5.368H0V-.368H2.5Z" transform="translate(764.071 7092.148)" fill="#a7436a"/>
    <path id="長方形_388" data-name="長方形 388" d="M-.368-.368H2.871V8.907H-.368Zm2.5.736H.368v7.8H2.135Z" transform="translate(764.071 7089.057)" fill="#3e3a39"/>
    <g id="グループ_661" data-name="グループ 661">
      <g id="グループ_660" data-name="グループ 660" clip-path="url(#clip-path)">
        <path id="パス_502" data-name="パス 502" d="M901.424,7183.864l-11.041-12.955a18.6,18.6,0,0,1-3.828-7.361c-2.061-8.244-6.624-26.646-9.127-31.8L860.2,7114.967l-47.257-5.447c-6.183-1.178-6.919,5.3,1.178,8.244l.736,1.619c-8.686-3.533-8.98,5.742.147,7.214h0c-8.833-2.061-7.508,7.066,1.031,8.98l7.066,11.483-6.183,3.386a2.872,2.872,0,0,0-1.325,3.68c1.914,5.006,11.483-3.238,27.971-1.324,0,0,7.214,17.518,21.052,24.732l5.005,8.391Z" fill="#f6e8da"/>
      </g>
    </g>
    <g id="グループ_663" data-name="グループ 663">
      <g id="グループ_662" data-name="グループ 662" clip-path="url(#clip-path-2)">
        <path id="パス_503" data-name="パス 503" d="M869.309,7186.113l-4.952-8.3a37.464,37.464,0,0,1-9.126-6.927,56.165,56.165,0,0,1-6.632-8.217,64.02,64.02,0,0,1-5.285-9.524c-8.3-.922-14.756.727-19.483,1.933a26.081,26.081,0,0,1-5.486,1.056h-.062a2.855,2.855,0,0,1-3.029-1.872,3.261,3.261,0,0,1-.058-2.378,3.384,3.384,0,0,1,1.547-1.758l5.845-3.2-6.782-11.022c-4.21-.993-6.4-3.577-7-5.506a3.3,3.3,0,0,1,.577-3.313,3.813,3.813,0,0,1,2.35-1.092,8.836,8.836,0,0,1-1.5-.9,5.879,5.879,0,0,1-2.19-2.918,2.9,2.9,0,0,1,.726-3.1,3.732,3.732,0,0,1,2.449-.858,8.673,8.673,0,0,1,2.942.51l-.306-.674a11.391,11.391,0,0,1-4.877-3.2,4.145,4.145,0,0,1-1.062-3.63c.483-1.754,2.479-2.568,5.088-2.074l47.368,5.46.09.087,17.27,16.828.028.058c2.449,5.04,6.855,22.672,8.972,31.145l.18.719a18.159,18.159,0,0,0,3.75,7.214l11.043,12.957-.56.478L890.1,7171.148a18.877,18.877,0,0,1-3.9-7.5l0-.009-.181-.725c-2.1-8.417-6.471-25.9-8.892-30.944l-17.088-16.65-47.159-5.437c-2.21-.421-3.88.185-4.254,1.544a3.436,3.436,0,0,0,.922,2.968,10.55,10.55,0,0,0,4.7,3.025l.145.053,1.183,2.6-.856-.349c-3.47-1.412-4.974-.541-5.459-.1a2.195,2.195,0,0,0-.515,2.342,5.146,5.146,0,0,0,1.925,2.537,9.491,9.491,0,0,0,3.512,1.558q.437.07.9.177l1.367.261-.138.723-1.369-.261q-.469-.075-.918-.181c-2.516-.4-3.639.311-4.1.805a2.555,2.555,0,0,0-.413,2.594,6.451,6.451,0,0,0,2.124,2.937,10.772,10.772,0,0,0,4.482,2.1l.152.034,7.35,11.945-6.523,3.572a2.5,2.5,0,0,0-1.16,3.221l0,.005a2.147,2.147,0,0,0,2.34,1.4h.057a25.784,25.784,0,0,0,5.311-1.033c4.822-1.232,11.426-2.918,19.961-1.927l.215.025.083.2a61.835,61.835,0,0,0,5.311,9.61,55.4,55.4,0,0,0,6.542,8.1,36.651,36.651,0,0,0,9.029,6.833l.092.048.053.09,5.005,8.391Z" fill="#3e3a39"/>
      </g>
    </g>
    <g id="グループ_665" data-name="グループ 665">
      <g id="グループ_664" data-name="グループ 664" clip-path="url(#clip-path-3)">
        <rect id="長方形_391" data-name="長方形 391" width="54.028" height="101.432" rx="4.858" transform="translate(813.094 7050.781)" fill="#b7b8b8"/>
      </g>
    </g>
    <g id="グループ_667" data-name="グループ 667">
      <g id="グループ_666" data-name="グループ 666" clip-path="url(#clip-path-4)">
        <path id="長方形_393" data-name="長方形 393" d="M4.858-.368H49.17A5.232,5.232,0,0,1,54.4,4.858V96.574A5.232,5.232,0,0,1,49.17,101.8H4.858A5.232,5.232,0,0,1-.368,96.574V4.858A5.232,5.232,0,0,1,4.858-.368ZM49.17,101.064a4.5,4.5,0,0,0,4.49-4.49V4.858A4.5,4.5,0,0,0,49.17.368H4.858a4.5,4.5,0,0,0-4.49,4.49V96.574a4.5,4.5,0,0,0,4.49,4.49Z" transform="translate(813.094 7050.781)" fill="#3e3a39"/>
      </g>
    </g>
    <g id="グループ_669" data-name="グループ 669">
      <g id="グループ_668" data-name="グループ 668" clip-path="url(#clip-path-3)">
        <rect id="長方形_395" data-name="長方形 395" width="48.14" height="95.543" rx="3.239" transform="translate(816.039 7053.725)" fill="#e6e6e6"/>
        <path id="長方形_396" data-name="長方形 396" d="M3.239-.368H44.9a3.611,3.611,0,0,1,3.607,3.607V92.3A3.611,3.611,0,0,1,44.9,95.911H3.239A3.611,3.611,0,0,1-.368,92.3V3.239A3.611,3.611,0,0,1,3.239-.368ZM44.9,95.175A2.874,2.874,0,0,0,47.772,92.3V3.239A2.874,2.874,0,0,0,44.9.368H3.239A2.874,2.874,0,0,0,.368,3.239V92.3a2.874,2.874,0,0,0,2.871,2.871Z" transform="translate(816.039 7053.725)" fill="#3e3a39"/>
        <path id="パス_504" data-name="パス 504" d="M864.178,7062.558H816.039v-5.594a3.267,3.267,0,0,1,3.238-3.239H860.94a3.267,3.267,0,0,1,3.238,3.239Z" fill="#3e3a39"/>
        <path id="パス_505" data-name="パス 505" d="M816.039,7132.927h48.139v13.1a3.267,3.267,0,0,1-3.238,3.238H819.277a3.267,3.267,0,0,1-3.238-3.238Z" fill="#3e3a39"/>
        <path id="パス_506" data-name="パス 506" d="M863.737,7167.67c-5.153-5.3-6.772-13.249-7.214-18.107a8.636,8.636,0,0,0-3.68-6.331l-3.386-2.061a7.838,7.838,0,0,0-5.742-1.325,12.374,12.374,0,0,1-9.863-1.766,3.355,3.355,0,0,1,.589-5.889,93.73,93.73,0,0,1,12.366-3.68,9.819,9.819,0,0,1,7.066.736c3.533,1.619,13.839,6.477,17.666,9.127Z" fill="#f6e8da"/>
        <path id="パス_507" data-name="パス 507" d="M863.473,7167.926a24.539,24.539,0,0,1-5.458-9.357,39.775,39.775,0,0,1-1.858-8.973v-.012a7.559,7.559,0,0,0-1.071-3.385,8.867,8.867,0,0,0-2.444-2.66l-3.4-2.07a7.442,7.442,0,0,0-5.463-1.26,13.427,13.427,0,0,1-6.248-.062,14.009,14.009,0,0,1-3.871-1.753l-.011-.007a3.714,3.714,0,0,1-1.633-3.465,3.665,3.665,0,0,1,2.286-3.071l.005,0a94.671,94.671,0,0,1,12.407-3.693,10.248,10.248,0,0,1,7.316.758c1.358.623,13.415,6.177,17.72,9.158l-.419.605c-3.454-2.392-12.695-6.842-17.61-9.1a9.525,9.525,0,0,0-6.8-.719l-.032.009a94.1,94.1,0,0,0-12.307,3.661,2.987,2.987,0,0,0-.528,5.238,12,12,0,0,0,9.59,1.715l.022,0a8.182,8.182,0,0,1,6,1.382l3.4,2.068a8.956,8.956,0,0,1,3.833,6.6,39.02,39.02,0,0,0,1.822,8.8,23.82,23.82,0,0,0,5.289,9.081Z" fill="#3e3a39"/>
        <path id="パス_508" data-name="パス 508" d="M850.929,7121.444H841.36a1.083,1.083,0,0,1-1.178-1.177V7078.6a2.953,2.953,0,0,1,2.944-2.944h6.036a2.953,2.953,0,0,1,2.945,2.944v41.663A1.161,1.161,0,0,1,850.929,7121.444Z" fill="#fff"/>
        <path id="パス_509" data-name="パス 509" d="M850.929,7121.812H841.36a1.448,1.448,0,0,1-1.546-1.545V7078.6a3.316,3.316,0,0,1,3.312-3.312h6.036a3.316,3.316,0,0,1,3.313,3.312v41.663A1.531,1.531,0,0,1,850.929,7121.812Zm-7.8-45.784a2.579,2.579,0,0,0-2.576,2.576v41.663a.723.723,0,0,0,.81.809h9.569a.792.792,0,0,0,.81-.809V7078.6a2.579,2.579,0,0,0-2.577-2.576Z" fill="#3e3a39"/>
      </g>
    </g>
    <rect id="長方形_398" data-name="長方形 398" width="2.65" height="2.797" transform="translate(844.746 7092.295)" fill="#3e3a39"/>
    <rect id="長方形_399" data-name="長方形 399" width="2.65" height="2.797" transform="translate(844.746 7094.945)" fill="#898989"/>
    <rect id="長方形_400" data-name="長方形 400" width="2.65" height="2.65" transform="translate(844.746 7098.479)" fill="#ebd784"/>
    <path id="長方形_401" data-name="長方形 401" d="M-.368-.368H5.668V10.968H-.368Zm5.3.736H.368v9.863H4.932Z" transform="translate(843.421 7091.412)" fill="#3e3a39"/>
    <path id="長方形_402" data-name="長方形 402" d="M-.368-.368H2.723V8.907H-.368ZM1.987.368H.368v7.8H1.987Z" transform="translate(844.893 7092.443)" fill="#3e3a39"/>
    <g id="グループ_671" data-name="グループ 671">
      <g id="グループ_670" data-name="グループ 670" clip-path="url(#clip-path-3)">
        <path id="線_275" data-name="線 275" d="M1.261,1.332-.211.3.211-.3,1.683.729Z" transform="translate(843.421 7091.412)" fill="#3e3a39"/>
        <path id="線_276" data-name="線 276" d="M.211,1.332l-.422-.6L1.261-.3l.422.6Z" transform="translate(843.421 7100.981)" fill="#3e3a39"/>
        <path id="線_277" data-name="線 277" d="M1.261,1.332-.211.3.211-.3,1.683.729Z" transform="translate(847.248 7100.981)" fill="#3e3a39"/>
        <path id="線_278" data-name="線 278" d="M.211,1.332l-.422-.6L1.261-.3l.422.6Z" transform="translate(847.248 7091.412)" fill="#3e3a39"/>
        <path id="パス_510" data-name="パス 510" d="M846.071,7110.771a1.406,1.406,0,1,1,0,2.8,1.4,1.4,0,1,1,0-2.8Zm0,2.061a.676.676,0,1,0,0-1.325.662.662,0,1,0,0,1.325Z" fill="#3e3a39"/>
        <path id="パス_511" data-name="パス 511" d="M846.071,7116.807a4.638,4.638,0,1,1,0-9.275,4.831,4.831,0,0,1,3.4,1.356,4.59,4.59,0,0,1,0,6.563A4.831,4.831,0,0,1,846.071,7116.807Zm0-8.539a3.9,3.9,0,1,0,4.048,3.9A3.906,3.906,0,0,0,846.071,7108.268Z" fill="#3e3a39"/>
        <path id="パス_512" data-name="パス 512" d="M838.857,7121.444h-9.422a1.2,1.2,0,0,1-1.325-1.177V7078.6a2.953,2.953,0,0,1,2.945-2.944h6.035a2.988,2.988,0,0,1,3.092,2.944v41.663A1.2,1.2,0,0,1,838.857,7121.444Z" fill="#fff"/>
        <path id="パス_513" data-name="パス 513" d="M838.857,7121.812h-9.422a1.571,1.571,0,0,1-1.693-1.545V7078.6a3.316,3.316,0,0,1,3.313-3.312h6.035a3.353,3.353,0,0,1,3.46,3.312v41.663A1.571,1.571,0,0,1,838.857,7121.812Zm-7.8-45.784a2.579,2.579,0,0,0-2.577,2.576v41.663c0,.6.516.809.957.809h9.422c.441,0,.957-.212.957-.809V7078.6a2.625,2.625,0,0,0-2.724-2.576Z" fill="#3e3a39"/>
      </g>
    </g>
    <path id="長方形_404" data-name="長方形 404" d="M-.368-.368H5.815V10.968H-.368ZM5.079.368H.368v9.863H5.079Z" transform="translate(831.349 7091.412)" fill="#3e3a39"/>
    <g id="グループ_673" data-name="グループ 673">
      <g id="グループ_672" data-name="グループ 672" clip-path="url(#clip-path-3)">
        <path id="線_279" data-name="線 279" d="M1.261,1.332-.211.3.211-.3,1.683.729Z" transform="translate(831.349 7091.412)" fill="#3e3a39"/>
        <path id="線_280" data-name="線 280" d="M.211,1.332l-.422-.6L1.261-.3l.422.6Z" transform="translate(831.349 7100.981)" fill="#3e3a39"/>
        <path id="線_281" data-name="線 281" d="M1.261,1.332-.211.3.211-.3,1.683.729Z" transform="translate(835.324 7100.981)" fill="#3e3a39"/>
        <path id="線_282" data-name="線 282" d="M.211,1.332l-.422-.6L1.261-.3l.422.6Z" transform="translate(835.324 7091.412)" fill="#3e3a39"/>
        <path id="パス_514" data-name="パス 514" d="M834.146,7110.771a1.4,1.4,0,1,1-1.4,1.4A1.368,1.368,0,0,1,834.146,7110.771Zm0,2.061a.662.662,0,1,0-.662-.662A.641.641,0,0,0,834.146,7112.832Z" fill="#3e3a39"/>
        <path id="パス_515" data-name="パス 515" d="M834.146,7116.807a4.638,4.638,0,1,1,4.637-4.637A4.642,4.642,0,0,1,834.146,7116.807Zm0-8.539a3.9,3.9,0,1,0,3.9,3.9A3.906,3.906,0,0,0,834.146,7108.268Z" fill="#3e3a39"/>
      </g>
    </g>
    <rect id="長方形_406" data-name="長方形 406" width="2.503" height="0.589" transform="translate(832.821 7100.54)" fill="#a7436a"/>
    <g id="グループ_675" data-name="グループ 675">
      <g id="グループ_674" data-name="グループ 674" clip-path="url(#clip-path-3)">
        <path id="線_283" data-name="線 283" d="M2.5.368H0V-.368H2.5Z" transform="translate(832.821 7098.479)" fill="#a7436a"/>
        <path id="線_284" data-name="線 284" d="M2.5.368H0V-.368H2.5Z" transform="translate(832.821 7095.534)" fill="#a7436a"/>
      </g>
    </g>
    <path id="長方形_408" data-name="長方形 408" d="M-.368-.368H2.871V8.907H-.368Zm2.5.736H.368v7.8H2.135Z" transform="translate(832.821 7092.443)" fill="#3e3a39"/>
    <path id="パス_723" data-name="パス 723" d="M10.08,6.571a1.7,1.7,0,0,0-.158.246q-.095.17-.158.309a13.784,13.784,0,0,1-.63,1.367q-.391.75-.869,1.481A11.156,11.156,0,0,1,7.258,11.3a17.949,17.949,0,0,1-1.525,1.518,18.536,18.536,0,0,1-1.751,1.373,12.4,12.4,0,0,1-1.915,1.09l-.806-.844a11.491,11.491,0,0,0,1.959-1,15.238,15.238,0,0,0,1.764-1.31,15.91,15.91,0,0,0,1.468-1.43,12.409,12.409,0,0,0,.851-1.1,12.032,12.032,0,0,0,.756-1.247,6.4,6.4,0,0,0,.485-1.153H3.629q-.214,0-.485.013l-.491.025q-.221.013-.3.025V6.1q.088.013.321.032t.5.031q.265.013.454.013H8.492a5.551,5.551,0,0,0,.561-.025,1.668,1.668,0,0,0,.384-.076ZM7.421,10.628q.517.428,1.065.945t1.077,1.065q.529.548.983,1.046t.781.9l-.882.756q-.441-.6-1.058-1.3t-1.3-1.4q-.687-.7-1.38-1.292Zm17.01-3.616q-.088.1-.176.2a.835.835,0,0,0-.139.2q-.353.58-.851,1.26t-1.128,1.4q-.63.718-1.367,1.411a15.388,15.388,0,0,1-1.581,1.3l-.781-.693a12.829,12.829,0,0,0,1.436-1.147,17.175,17.175,0,0,0,1.229-1.254q.561-.636.983-1.216a8.708,8.708,0,0,0,.661-1.033H15.309q-.239,0-.491.013l-.46.025a2.564,2.564,0,0,0-.334.038V6.369q.176.025.391.05t.447.038q.233.013.447.013h7.51a2.53,2.53,0,0,0,.819-.1ZM18.5,13q-.29-.29-.674-.643t-.8-.712q-.416-.359-.781-.655t-.63-.472l.819-.668q.214.164.567.447t.775.636q.422.353.838.718t.756.706q.4.378.838.832t.825.882q.391.428.655.769l-.92.731a9.741,9.741,0,0,0-.611-.775q-.384-.447-.825-.92T18.5,13Zm8.618-3.452.466.031q.277.019.611.025t.674.006h6.9q.479,0,.819-.025l.542-.038v1.235l-.561-.038q-.372-.025-.788-.025H28.867q-.517,0-.983.019t-.769.044ZM43.18,13.891V6.558q0-.265-.025-.643a6.438,6.438,0,0,0-.076-.668h1.235q-.025.277-.057.655t-.032.655V9.2q0,.775.006,1.537t.006,1.424v1.733q0,.2.006.466t.031.536q.025.271.038.485H43.092a6.131,6.131,0,0,0,.069-.718Q43.18,14.244,43.18,13.891Zm.832-5.342q.617.189,1.367.447t1.531.548q.781.29,1.481.586t1.216.561l-.428,1.071q-.542-.3-1.222-.6t-1.392-.586q-.712-.29-1.373-.523T44.012,9.67ZM62.887,6.621a2.162,2.162,0,0,0-.107.29q-.044.151-.082.34-.1.5-.265,1.1t-.4,1.235a10.78,10.78,0,0,1-.542,1.235A7.246,7.246,0,0,1,60.82,11.9a11.266,11.266,0,0,1-1.285,1.367,8.716,8.716,0,0,1-1.613,1.14,11.155,11.155,0,0,1-2.066.869L55,14.332a10.847,10.847,0,0,0,2.136-.762,7.715,7.715,0,0,0,1.581-1.027,8.358,8.358,0,0,0,1.2-1.247A6.171,6.171,0,0,0,60.7,10a11.378,11.378,0,0,0,.554-1.468,9.53,9.53,0,0,0,.309-1.342H55.125q-.378,0-.693.013l-.567.025V6.117q.176.013.391.038t.441.031q.227.006.428.006H61.45q.139,0,.315-.006a1.471,1.471,0,0,0,.353-.057Zm10.458.668q-.025.2-.038.422t-.013.435q.013.277.019.756t.019,1.09q.013.611.025,1.279t.019,1.329q.006.661.019,1.26t.013,1.052a.762.762,0,0,1-.258.636,1.015,1.015,0,0,1-.687.233q-.239,0-.58-.013t-.668-.032l-.58-.031-.05-.92q.378.05.819.082t.718.032a.313.313,0,0,0,.258-.1.407.407,0,0,0,.082-.265q0-.378-.006-.913t-.013-1.159q-.006-.624-.019-1.266T72.406,9.96Q72.4,9.368,72.387,8.9t-.025-.75a3.867,3.867,0,0,0-.025-.409q-.025-.233-.063-.447Zm-5.67,1.827q.214.025.46.038t.472.013h6.527q.189,0,.447-.019t.4-.031v1q-.164-.013-.4-.025t-.422-.013H68.632q-.252,0-.491.013t-.466.038Zm-.34,4.813a12.281,12.281,0,0,0,1.506-.869,14.541,14.541,0,0,0,1.4-1.071A11.837,11.837,0,0,0,71.4,10.855,6.439,6.439,0,0,0,72.173,9.8h.5l.025.769a6.224,6.224,0,0,1-.737,1.014,12.437,12.437,0,0,1-1.128,1.134q-.643.573-1.361,1.1a11.719,11.719,0,0,1-1.436.9ZM81.106,5.764q.34.227.781.561t.9.706q.46.372.863.725t.668.617l-.794.794q-.239-.239-.617-.592t-.832-.737q-.454-.384-.895-.731t-.794-.573Zm-1.084,8.442a12.963,12.963,0,0,0,2.022-.454,12.575,12.575,0,0,0,1.67-.655,15.039,15.039,0,0,0,1.348-.731,10.871,10.871,0,0,0,1.789-1.392,12.534,12.534,0,0,0,1.436-1.632,10.137,10.137,0,0,0,.983-1.613l.6,1.071a11.843,11.843,0,0,1-1.058,1.588,13.583,13.583,0,0,1-1.424,1.55,11.67,11.67,0,0,1-1.751,1.348q-.63.391-1.38.769a13.428,13.428,0,0,1-1.638.687,12.859,12.859,0,0,1-1.934.5Zm12.323-7.5q.353-.013.649-.031l.472-.031q.3-.038.876-.095t1.317-.126q.743-.069,1.6-.145l1.726-.151q.693-.063,1.31-.107t1.147-.076q.529-.031.945-.044V6.911q-.353,0-.806.013t-.895.05a3.709,3.709,0,0,0-.769.139,3.67,3.67,0,0,0-1.2.649,4.5,4.5,0,0,0-.913,1,4.729,4.729,0,0,0-.573,1.172,3.805,3.805,0,0,0-.2,1.172,3.034,3.034,0,0,0,.252,1.279,2.71,2.71,0,0,0,.687.926,3.779,3.779,0,0,0,.989.617,5.647,5.647,0,0,0,1.178.359,7.373,7.373,0,0,0,1.241.132l-.365,1.046a7.088,7.088,0,0,1-1.411-.2,6.312,6.312,0,0,1-1.348-.491,4.538,4.538,0,0,1-1.147-.813,3.549,3.549,0,0,1-1.084-2.646A4.718,4.718,0,0,1,96.371,9.5a5.389,5.389,0,0,1,.888-1.468,4.525,4.525,0,0,1,1.121-.97q-.4.05-1,.113L96.1,7.308q-.68.069-1.367.157t-1.279.17q-.592.082-1,.17Zm8.228,1.751q.139.2.334.51t.384.63a5.681,5.681,0,0,1,.315.611l-.643.3q-.214-.466-.479-.926a8.745,8.745,0,0,0-.554-.851Zm1.373-.529q.151.2.353.5t.4.624q.2.321.347.611l-.655.315q-.227-.466-.5-.92t-.561-.844Zm14.238-1.449q-.076.088-.17.214t-.17.239a9.534,9.534,0,0,1-.712,1.052,14.982,14.982,0,0,1-1.09,1.273,8.888,8.888,0,0,1-1.336,1.153l-.832-.668a5.7,5.7,0,0,0,.863-.611,9.679,9.679,0,0,0,.794-.756,8.735,8.735,0,0,0,.655-.781,6.841,6.841,0,0,0,.447-.674h-7.182q-.353,0-.706.019T106.016,7V5.852q.328.05.706.082t.731.031h7.232q.126,0,.3-.006a2.9,2.9,0,0,0,.334-.032l.252-.038Zm-5.027,1.663q0,1.021-.063,1.915a10.16,10.16,0,0,1-.252,1.676,5.366,5.366,0,0,1-.573,1.443,5.085,5.085,0,0,1-1.027,1.235,7.286,7.286,0,0,1-1.6,1.052l-.932-.756a4.931,4.931,0,0,0,.567-.233,3.793,3.793,0,0,0,.567-.334,4.278,4.278,0,0,0,1.184-1,3.978,3.978,0,0,0,.661-1.2,6.539,6.539,0,0,0,.3-1.373,13.4,13.4,0,0,0,.082-1.506q0-.239-.006-.454a3.939,3.939,0,0,0-.044-.466ZM127.7,5.953a.839.839,0,0,0,.832.832.814.814,0,0,0,.6-.246.8.8,0,0,0,.246-.586.839.839,0,0,0-.844-.844.8.8,0,0,0-.586.246A.814.814,0,0,0,127.7,5.953Zm-.58,0a1.344,1.344,0,0,1,.2-.712,1.539,1.539,0,0,1,.51-.517,1.312,1.312,0,0,1,.706-.2,1.344,1.344,0,0,1,.712.2,1.52,1.52,0,0,1,.517.517,1.344,1.344,0,0,1,.2.712,1.312,1.312,0,0,1-.2.706,1.539,1.539,0,0,1-.517.51,1.344,1.344,0,0,1-.712.2,1.312,1.312,0,0,1-.706-.2,1.56,1.56,0,0,1-.51-.51A1.312,1.312,0,0,1,127.121,5.953Zm1.1.844a1.6,1.6,0,0,0-.107.284q-.044.158-.082.346-.1.491-.265,1.1t-.4,1.241a11.077,11.077,0,0,1-.535,1.229,6.972,6.972,0,0,1-.68,1.084,10.912,10.912,0,0,1-1.285,1.361,8.9,8.9,0,0,1-1.613,1.134,11.155,11.155,0,0,1-2.066.869l-.857-.945a10.1,10.1,0,0,0,2.136-.756,7.95,7.95,0,0,0,2.778-2.268,6.562,6.562,0,0,0,.788-1.3,11.737,11.737,0,0,0,.561-1.462,7.976,7.976,0,0,0,.3-1.342h-6.439q-.378,0-.693.013L119.2,7.4V6.281q.176.025.391.044t.441.031q.227.013.428.013h6.325q.139,0,.315-.013a2.549,2.549,0,0,0,.353-.05ZM140.44,5.437q-.013.239-.025.51t-.013.586V8.574a19.2,19.2,0,0,1-.082,1.928,8.189,8.189,0,0,1-.239,1.354,4.165,4.165,0,0,1-.41.989,6.036,6.036,0,0,1-.592.832,4.634,4.634,0,0,1-.926.838,6.957,6.957,0,0,1-1.065.6,9.725,9.725,0,0,1-1.008.4l-.819-.869a7.561,7.561,0,0,0,1.644-.611,4.646,4.646,0,0,0,1.367-1.065,3.936,3.936,0,0,0,.548-.8,3.715,3.715,0,0,0,.315-.913,7.82,7.82,0,0,0,.145-1.172q.038-.668.038-1.562V6.533q0-.315-.019-.586t-.044-.51Zm-5.846.1q-.013.176-.031.428t-.019.479v4.208q0,.239.019.51t.031.447h-1.159q.025-.151.044-.422t.019-.548v-4.2q0-.164-.013-.447t-.038-.46Zm14.969-.5q-.076.378-.2.888a7.693,7.693,0,0,1-.384,1.153,10.509,10.509,0,0,1-.561,1.172,8.658,8.658,0,0,1-.712,1.1,2.7,2.7,0,0,1,.542-.258,3.479,3.479,0,0,1,.624-.157,3.808,3.808,0,0,1,.586-.05,1.9,1.9,0,0,1,1.235.41,1.445,1.445,0,0,1,.5,1.191v.611q0,.372.006.781t.019.8q.013.391.013.68h-.97q.013-.252.025-.592t.019-.718q.006-.378,0-.718t-.006-.58a.963.963,0,0,0-.334-.813,1.329,1.329,0,0,0-.838-.258,2.812,2.812,0,0,0-1.165.258,3.613,3.613,0,0,0-1,.662,6.4,6.4,0,0,0-.548.6q-.271.334-.6.712l-.857-.63a17.062,17.062,0,0,0,1.512-1.651,11.894,11.894,0,0,0,.983-1.43A10.037,10.037,0,0,0,148.05,7a8.381,8.381,0,0,0,.328-1.065,5.734,5.734,0,0,0,.151-.989Zm-4.309,1.361q.5.063,1.1.1t1.033.038q.844,0,1.814-.044t1.959-.132q.989-.088,1.884-.252l-.013.932q-.655.113-1.4.183t-1.512.113q-.769.044-1.48.063t-1.317.019q-.265,0-.611-.006t-.724-.025q-.378-.019-.731-.044Zm9.626,3.049a3.308,3.308,0,0,0-.359.107q-.2.069-.391.145t-.372.151q-.655.252-1.525.617t-1.777.844a7.972,7.972,0,0,0-1.109.661,3.467,3.467,0,0,0-.756.718,1.33,1.33,0,0,0-.277.813.962.962,0,0,0,.17.592,1.056,1.056,0,0,0,.485.346,2.751,2.751,0,0,0,.725.158q.409.038.9.038.731,0,1.67-.082t1.77-.22l-.025,1.008q-.479.063-1.077.113t-1.21.082q-.611.032-1.165.032a7.533,7.533,0,0,1-1.632-.164,2.452,2.452,0,0,1-1.178-.58,1.549,1.549,0,0,1-.441-1.184,2.091,2.091,0,0,1,.265-1.04,3.264,3.264,0,0,1,.712-.863,7.41,7.41,0,0,1,.989-.724q.542-.334,1.109-.611.6-.328,1.14-.567t1.014-.441q.479-.2.895-.4l.529-.239q.252-.113.5-.252ZM.932,22.94H6v.844H.932ZM7.283,25.6h3.692v.844H7.283ZM.6,25.372H6.313v.857H.6Zm3.087,2.734H6.187v.832H3.692Zm-.655-6.577h.895v4.3H3.037Zm.227,4.435h.869v5.771H3.263Zm3.515-3.843H11.4v4.637H10.5V22.965H6.779ZM6.9,25.6h.907v4.12q0,.315.132.4a1.233,1.233,0,0,0,.586.088H10.6a.58.58,0,0,0,.4-.126.874.874,0,0,0,.2-.51,10.973,10.973,0,0,0,.082-1.14,1.66,1.66,0,0,0,.252.151,2.843,2.843,0,0,0,.309.132q.158.057.284.094a6.782,6.782,0,0,1-.189,1.386,1.116,1.116,0,0,1-.441.68,1.563,1.563,0,0,1-.832.189H8.442a2.991,2.991,0,0,1-.926-.113.768.768,0,0,1-.472-.41,1.99,1.99,0,0,1-.139-.825ZM1.966,28.7a5.454,5.454,0,0,0,.655,1.619,2.886,2.886,0,0,0,1,.964,4.124,4.124,0,0,0,1.43.466,13.012,13.012,0,0,0,1.928.126q.151,0,.542.006t.914,0q.523-.006,1.1-.006H10.66q.542,0,.958-.006t.617-.019a1.073,1.073,0,0,0-.164.271q-.076.17-.139.346a2.034,2.034,0,0,0-.088.315H6.993a13.659,13.659,0,0,1-2.218-.158,4.449,4.449,0,0,1-1.619-.573,3.4,3.4,0,0,1-1.128-1.172,7.582,7.582,0,0,1-.769-1.94Zm-.718-1.474.895.063Q2.1,28.5,2.01,29.58a15.026,15.026,0,0,1-.3,2,6.773,6.773,0,0,1-.573,1.625A2.685,2.685,0,0,0,.9,33.064l-.3-.17a1.633,1.633,0,0,0-.271-.126,5.106,5.106,0,0,0,.567-1.506,13.485,13.485,0,0,0,.265-1.89Q1.235,28.345,1.247,27.224Zm12.726,2.52h5.746v.731H13.973Zm-.34-6.073h6.3v.743h-6.3Zm2.734-1.134h.869V31.8h-.869Zm-2.734,9.286q.769-.076,1.77-.164t2.129-.2q1.128-.113,2.236-.239l.013.743q-1.071.126-2.155.258t-2.073.239l-1.8.2ZM14.792,27.4v.92h4.095V27.4Zm0-1.537v.907h4.095v-.907Zm-.781-.655h5.683v3.767H14.011Zm5.229-3.566.466.731q-.743.151-1.714.277t-2.01.208q-1.039.082-1.984.107a2.245,2.245,0,0,0-.094-.353q-.069-.2-.132-.353.706-.038,1.455-.094t1.487-.132q.737-.076,1.386-.176T19.24,21.642Zm.592,2.822h4.549v.869H19.832Zm4.183,0h.907v.466q-.05,2-.107,3.37t-.132,2.236a10.608,10.608,0,0,1-.183,1.342,1.7,1.7,0,0,1-.271.674.967.967,0,0,1-.365.353,1.335,1.335,0,0,1-.479.126,4.5,4.5,0,0,1-.68.032q-.416-.006-.869-.019a2.137,2.137,0,0,0-.088-.46,1.911,1.911,0,0,0-.189-.447q.466.038.857.044t.567.006a.724.724,0,0,0,.252-.038A.444.444,0,0,0,23.423,32a1.446,1.446,0,0,0,.214-.6,11.618,11.618,0,0,0,.151-1.292q.063-.844.12-2.18t.107-3.251ZM21.357,21.68h.92q-.013,1.5-.044,2.9t-.17,2.659a13.694,13.694,0,0,1-.46,2.356,7.765,7.765,0,0,1-.895,2,6,6,0,0,1-1.48,1.581,1.115,1.115,0,0,0-.189-.239q-.126-.126-.258-.246a2.157,2.157,0,0,0-.246-.2,5.408,5.408,0,0,0,1.4-1.455,6.965,6.965,0,0,0,.838-1.865,12.519,12.519,0,0,0,.416-2.218q.12-1.191.145-2.52T21.357,21.68Zm9.135.6q-.05.315-.076.636t-.038.636q-.025.529-.05,1.31t-.05,1.657q-.025.876-.038,1.745t-.013,1.562a2.044,2.044,0,0,0,.265,1.109,1.453,1.453,0,0,0,.731.592,3.014,3.014,0,0,0,1.071.176,5.1,5.1,0,0,0,1.55-.22,4.671,4.671,0,0,0,1.235-.592,5.461,5.461,0,0,0,.964-.838A9.4,9.4,0,0,0,36.8,29.1l.718.857a8.459,8.459,0,0,1-.8.939,6.4,6.4,0,0,1-1.115.9,6.083,6.083,0,0,1-1.48.68,6.2,6.2,0,0,1-1.871.265,4.249,4.249,0,0,1-1.588-.277,2.227,2.227,0,0,1-1.084-.895,3.031,3.031,0,0,1-.391-1.638q0-.567.013-1.254t.038-1.417q.025-.731.038-1.43t.025-1.292q.013-.592.013-.983,0-.353-.025-.68a5.938,5.938,0,0,0-.076-.6Zm13.57,2.974v1.562h2.016V25.258Zm0,2.356v1.575h2.016V27.614Zm0-4.7v1.55h2.016v-1.55Zm-.806-.832h3.667v7.938H43.256Zm2.23,8.555.706-.391q.265.29.548.643t.523.693a5.569,5.569,0,0,1,.378.6l-.756.479a4.384,4.384,0,0,0-.365-.63q-.239-.353-.51-.718T45.486,30.638Zm-1.714-.353.882.239a8.848,8.848,0,0,1-.819,1.436,7.28,7.28,0,0,1-1.008,1.184,1.666,1.666,0,0,0-.221-.176l-.284-.2q-.139-.094-.239-.157a6.553,6.553,0,0,0,.958-1.058A6.287,6.287,0,0,0,43.772,30.286Zm6.3-8.77h.869V31.924a1.5,1.5,0,0,1-.113.661.724.724,0,0,1-.391.334,2.421,2.421,0,0,1-.737.151q-.472.038-1.254.038a2.972,2.972,0,0,0-.107-.441,3.086,3.086,0,0,0-.183-.466q.567.013,1.021.013h.6A.4.4,0,0,0,50,32.144a.277.277,0,0,0,.069-.221Zm-2.192,1.3h.832v7.22H47.88Zm-7.547-.491.542-.668a6.133,6.133,0,0,1,.743.372q.378.221.718.454a3.924,3.924,0,0,1,.554.447l-.567.756a3.978,3.978,0,0,0-.535-.46q-.334-.246-.718-.485T40.333,22.322Zm-.542,3.4.517-.693a7.609,7.609,0,0,1,.781.34q.4.2.75.416a3.533,3.533,0,0,1,.561.416l-.542.769a4.107,4.107,0,0,0-.561-.428q-.346-.227-.743-.441T39.791,25.724Zm.252,6.716q.265-.491.573-1.159t.617-1.417q.309-.75.561-1.443l.756.491q-.227.655-.51,1.367t-.573,1.4q-.29.687-.567,1.266Zm15.032-7.069h7.358v.907H55.075ZM58.7,28.383H62.95v.882H58.7Zm-.491-2.558h.983v6.388l-.983-.139Zm-3,1.525.983.113a12.982,12.982,0,0,1-.882,3.339,6.542,6.542,0,0,1-1.676,2.369,1.842,1.842,0,0,0-.22-.208q-.145-.12-.3-.239t-.265-.2a5.275,5.275,0,0,0,1.606-2.142A10.8,10.8,0,0,0,55.213,27.35Zm.6,1.625a4.454,4.454,0,0,0,.857,1.562,3.657,3.657,0,0,0,1.222.907,5.444,5.444,0,0,0,1.531.428,13.51,13.51,0,0,0,1.808.113H63.97q.34,0,.517-.013-.063.113-.139.29t-.132.353a2.517,2.517,0,0,0-.082.315H61.186a13.8,13.8,0,0,1-2.073-.145,5.572,5.572,0,0,1-1.714-.535,4.284,4.284,0,0,1-1.354-1.109,6.081,6.081,0,0,1-1-1.865ZM58.2,21.516h1v2.041h-1Zm-4.75,1.449H63.983v2.747h-.97v-1.84H54.382v1.84h-.932Zm18.472-.781q-.025.214-.044.51t-.031.523a19.944,19.944,0,0,1-.34,3.37,10.907,10.907,0,0,1-.8,2.52,7.778,7.778,0,0,1-1.235,1.884,9.343,9.343,0,0,1-1.657,1.449l-.92-.743a6.329,6.329,0,0,0,.655-.416,6.9,6.9,0,0,0,.643-.517,6.663,6.663,0,0,0,1.065-1.222,7.823,7.823,0,0,0,.819-1.588,10.545,10.545,0,0,0,.542-2.06,17.131,17.131,0,0,0,.208-2.665q0-.139-.013-.328t-.032-.378q-.019-.189-.044-.34ZM76.293,24.8q-.025.164-.044.328a2.563,2.563,0,0,0-.019.29q-.013.353-.044.97T76.1,27.734q-.057.724-.139,1.455t-.208,1.342a4.842,4.842,0,0,1-.29.977,1.309,1.309,0,0,1-.51.58,1.639,1.639,0,0,1-.838.189q-.479,0-1.008-.031t-1.021-.057l-.126-1.046q.517.063,1,.1t.876.038a1.014,1.014,0,0,0,.454-.088.609.609,0,0,0,.277-.328,3.048,3.048,0,0,0,.252-.794q.1-.5.176-1.134t.126-1.273q.05-.643.069-1.222t.019-.983h-6.64q-.378,0-.743.006t-.706.044V24.439q.328.038.706.057t.731.019h6.224q.252,0,.447-.019t.359-.044Zm3.616,1.84.466.031q.277.019.611.025t.674.006h6.9q.479,0,.819-.025l.542-.038v1.235l-.561-.038q-.372-.025-.787-.025H81.661q-.517,0-.983.019t-.769.044Zm20.084-3.616q.164.227.378.561t.422.687a7.27,7.27,0,0,1,.347.655l-.718.328q-.151-.328-.334-.661t-.378-.655a6.5,6.5,0,0,0-.41-.6Zm1.525-.63q.164.214.384.542t.435.68q.214.353.365.643l-.706.353q-.164-.328-.353-.655t-.4-.643q-.208-.315-.422-.592Zm-5.947,8.757V23.822q0-.265-.019-.643a4.143,4.143,0,0,0-.082-.668h1.247q-.038.29-.063.661t-.025.649v7.333q0,.189.006.466t.032.548q.025.271.038.472H95.5q.038-.3.057-.718T95.571,31.155Zm.832-5.342q.617.189,1.373.447t1.531.548q.775.29,1.474.586t1.229.561l-.441,1.071q-.542-.29-1.216-.592t-1.392-.592q-.718-.29-1.38-.517T96.4,26.934Zm15.536-2.318q-.126.983-.321,2.054a19.244,19.244,0,0,1-.5,2.079,11.647,11.647,0,0,1-.838,2.167,4.3,4.3,0,0,1-.989,1.31,1.619,1.619,0,0,1-2.18.038,2.882,2.882,0,0,1-.844-1.166,4.523,4.523,0,0,1-.328-1.8,4.627,4.627,0,0,1,.422-1.953,5.257,5.257,0,0,1,1.172-1.632,5.658,5.658,0,0,1,1.758-1.128,5.594,5.594,0,0,1,2.155-.416,5.207,5.207,0,0,1,2,.365,4.536,4.536,0,0,1,1.518,1,4.457,4.457,0,0,1,.97,1.474,5.03,5.03,0,0,1-.221,4.126,4.369,4.369,0,0,1-1.613,1.638,6.645,6.645,0,0,1-2.552.832l-.592-.932q.3-.038.58-.076t.5-.088a4.989,4.989,0,0,0,1.178-.435,4.033,4.033,0,0,0,1.027-.756,3.488,3.488,0,0,0,.725-1.1,3.686,3.686,0,0,0,.271-1.455,3.984,3.984,0,0,0-.252-1.43,3.371,3.371,0,0,0-.743-1.166,3.51,3.51,0,0,0-1.2-.794,4.216,4.216,0,0,0-1.613-.29,4.525,4.525,0,0,0-4.2,2.7,3.54,3.54,0,0,0-.315,1.418,3.49,3.49,0,0,0,.208,1.3,1.83,1.83,0,0,0,.5.75.936.936,0,0,0,.586.239.92.92,0,0,0,.617-.3,3.405,3.405,0,0,0,.643-.958,11.09,11.09,0,0,0,.643-1.72,18.494,18.494,0,0,0,.473-1.928q.2-1.021.283-2Zm6.98-1.3h10.66v2.759H128.6V23.078h-8.732v1.877h-.945Zm2.936,2.482h5.872v.832h-5.872Zm-.441,2.344h5.468v.844h-5.468Zm-2.785,2.344h11.252v.869H118.629Zm8-2.344h.945l-.006.082q-.006.082-.006.183a.558.558,0,0,1-.025.176q-.151,1.688-.309,2.753a10.6,10.6,0,0,1-.347,1.644,2,2,0,0,1-.454.832,1.249,1.249,0,0,1-.46.3,2.264,2.264,0,0,1-.6.113q-.315.013-.876.006t-1.178-.044a1.717,1.717,0,0,0-.1-.454,1.677,1.677,0,0,0-.227-.441q.668.05,1.241.069t.813.019a1.618,1.618,0,0,0,.359-.031.638.638,0,0,0,.246-.12,1.64,1.64,0,0,0,.372-.725,11.089,11.089,0,0,0,.321-1.575q.151-1.027.29-2.627Zm-4.914-3.843.945.088q-.151.819-.346,1.739t-.4,1.789q-.2.869-.378,1.5l-.958-.088q.139-.491.29-1.109t.3-1.3q.151-.68.3-1.355T121.716,23.179Zm16.8,8.392.617-.6q.693.239,1.417.51t1.367.535q.643.265,1.109.479l-.794.643q-.428-.227-1.027-.491T139.91,32.1Q139.217,31.823,138.512,31.571Zm-6.754-1.625h11.189v.806H131.758Zm.353-7.371h10.521v.806H132.111Zm4.712-1.071h.983v3.1h-.983Zm-2.255,4.775v.844h5.746v-.844Zm0,1.449v.857h5.746v-.857Zm0-2.873v.819h5.746v-.819Zm-.92-.643h7.623V29.2h-7.623Zm1.751,6.779.832.542a12.2,12.2,0,0,1-1.159.6q-.655.3-1.348.561t-1.323.435q-.113-.139-.3-.34a3.925,3.925,0,0,0-.34-.328q.63-.176,1.323-.416t1.31-.517A6.759,6.759,0,0,0,135.4,30.991Zm14.54-8.858q-.076.378-.2.888a7.693,7.693,0,0,1-.384,1.153,10.509,10.509,0,0,1-.561,1.172,8.658,8.658,0,0,1-.712,1.1,2.7,2.7,0,0,1,.542-.258,3.479,3.479,0,0,1,.624-.157,3.808,3.808,0,0,1,.586-.05,1.9,1.9,0,0,1,1.235.41,1.445,1.445,0,0,1,.5,1.191v.611q0,.372.006.781t.019.8q.013.391.013.68h-.97q.013-.252.025-.592t.019-.718q.006-.378,0-.718t-.006-.58a.963.963,0,0,0-.334-.813,1.329,1.329,0,0,0-.838-.258,2.812,2.812,0,0,0-1.165.258,3.613,3.613,0,0,0-1,.662,6.4,6.4,0,0,0-.548.6q-.271.334-.6.712l-.857-.63a17.062,17.062,0,0,0,1.512-1.651,11.894,11.894,0,0,0,.983-1.43,10.037,10.037,0,0,0,.592-1.191,8.381,8.381,0,0,0,.328-1.065,5.734,5.734,0,0,0,.151-.989Zm-4.309,1.361q.5.063,1.1.1t1.033.038q.844,0,1.814-.044t1.959-.132q.989-.088,1.884-.252l-.013.932q-.655.113-1.4.183t-1.512.113q-.769.044-1.48.063t-1.317.019q-.265,0-.611-.006t-.724-.025q-.378-.019-.731-.044Zm9.626,3.049a3.308,3.308,0,0,0-.359.107q-.2.069-.391.145t-.372.151q-.655.252-1.525.617t-1.777.844a7.972,7.972,0,0,0-1.109.662,3.467,3.467,0,0,0-.756.718,1.33,1.33,0,0,0-.277.813.962.962,0,0,0,.17.592,1.056,1.056,0,0,0,.485.347,2.751,2.751,0,0,0,.725.157q.409.038.9.038.731,0,1.67-.082t1.77-.221l-.025,1.008q-.479.063-1.077.113t-1.21.082q-.611.031-1.165.032A7.533,7.533,0,0,1,149.3,32.5a2.452,2.452,0,0,1-1.178-.58,1.549,1.549,0,0,1-.441-1.184,2.091,2.091,0,0,1,.265-1.04,3.264,3.264,0,0,1,.712-.863,7.41,7.41,0,0,1,.989-.724q.542-.334,1.109-.611.6-.328,1.14-.567t1.014-.441q.479-.2.895-.4l.529-.239q.252-.113.5-.252ZM4.007,43.467h8.152v.769H4.007Zm1.147,1.676H7.6v.68H5.153Zm3.062-.126H11.29v.756H8.215ZM5.153,46.73H7.6V47.4H5.153ZM6.061,41.2v.907h4.271V41.2Zm0-1.512v.882h4.271v-.882Zm-.869-.68h6.048v3.767H5.191Zm-.365,4.788h.781v5.04H4.826Zm2.306-.025h.819v6.464H7.132ZM3.767,48.721q.706-.088,1.707-.239t2.06-.315L7.6,48.9q-.945.176-1.884.34t-1.695.3Zm7.195-3.7h.164l.151-.025.5.126a7.879,7.879,0,0,1-1.191,3.226A5.653,5.653,0,0,1,8.48,50.221a3.053,3.053,0,0,0-.214-.353,1.883,1.883,0,0,0-.277-.328A4.612,4.612,0,0,0,9.337,48.6a5.391,5.391,0,0,0,1.027-1.474,7.039,7.039,0,0,0,.6-1.966ZM9.185,45.9A6.745,6.745,0,0,0,10.37,48.1a4.938,4.938,0,0,0,1.9,1.462,1.38,1.38,0,0,0-.309.3,2.65,2.65,0,0,0-.246.365A5.721,5.721,0,0,1,9.74,48.564a7.854,7.854,0,0,1-1.26-2.489ZM.34,45.13q.718-.2,1.72-.517t2.035-.63l.126.857-1.9.636q-.958.321-1.739.561Zm.189-3.969H4.095v.882H.529Zm1.537-2.545h.869V49.124a1.373,1.373,0,0,1-.1.586.76.76,0,0,1-.328.334,2.011,2.011,0,0,1-.6.139,8.324,8.324,0,0,1-.97.025,3.207,3.207,0,0,0-.1-.416,3.272,3.272,0,0,0-.164-.441q.4.013.737.013t.447-.013a.247.247,0,0,0,.164-.044.243.243,0,0,0,.05-.183Zm11.617,4.6h7.182v.756H13.684Zm3.163-.882h.869v1.3h-.869Zm-1.361,3.049v1.172h3.679V45.382Zm-.844-.668h5.393v2.507H14.641Zm.756-3.667v.794H19.24v-.794Zm0-1.348v.769H19.24V39.7Zm-.857-.6h5.594v3.352H14.54Zm2.306,7.673h.869V49.3a1.232,1.232,0,0,1-.082.5.533.533,0,0,1-.321.265,1.813,1.813,0,0,1-.6.12q-.365.019-.895.019a2.623,2.623,0,0,0-.151-.391,2.853,2.853,0,0,0-.2-.365q.428.013.75.013t.447-.013a.249.249,0,0,0,.158-.031.2.2,0,0,0,.031-.132Zm-1.814.781.806.2a6.75,6.75,0,0,1-.674,1.147,5.719,5.719,0,0,1-.838.945q-.076-.063-.2-.158t-.258-.183a1.68,1.68,0,0,0-.246-.139,5.206,5.206,0,0,0,.8-.832A5.343,5.343,0,0,0,15.032,47.549Zm3.49.378.718-.365q.365.391.75.869a6.134,6.134,0,0,1,.586.844l-.731.4q-.139-.239-.353-.548t-.466-.63A6.366,6.366,0,0,0,18.522,47.927Zm5.254-9.1.895.365a9.178,9.178,0,0,1-.97,1.09,13.162,13.162,0,0,1-2.356,1.808,2.43,2.43,0,0,0-.309-.353,3.305,3.305,0,0,0-.372-.315,11.468,11.468,0,0,0,1.14-.718,10.406,10.406,0,0,0,1.1-.9A6.76,6.76,0,0,0,23.776,38.83Zm.34,3.49.869.378a10.423,10.423,0,0,1-1.046,1.14,12.782,12.782,0,0,1-1.247,1.04,14.6,14.6,0,0,1-1.285.844,2.974,2.974,0,0,0-.309-.34,4.84,4.84,0,0,0-.372-.328,12.351,12.351,0,0,0,1.229-.756,11.57,11.57,0,0,0,1.2-.958A8.157,8.157,0,0,0,24.116,42.32Zm.328,3.566.92.34a8.527,8.527,0,0,1-1.191,1.581,10.934,10.934,0,0,1-1.537,1.342A11.772,11.772,0,0,1,20.891,50.2a3.706,3.706,0,0,0-.3-.4,3.425,3.425,0,0,0-.365-.372,10.008,10.008,0,0,0,1.651-.913A10.135,10.135,0,0,0,23.348,47.3,6.807,6.807,0,0,0,24.444,45.886Zm6.048-6.5q-.05.315-.076.636t-.038.636q-.025.529-.05,1.31t-.05,1.657q-.025.876-.038,1.745t-.013,1.562a2.044,2.044,0,0,0,.265,1.109,1.453,1.453,0,0,0,.731.592,3.014,3.014,0,0,0,1.071.176,5.1,5.1,0,0,0,1.55-.221A4.671,4.671,0,0,0,35.078,48a5.461,5.461,0,0,0,.964-.838A9.4,9.4,0,0,0,36.8,46.2l.718.857a8.459,8.459,0,0,1-.8.939,6.4,6.4,0,0,1-1.115.9,6.083,6.083,0,0,1-1.48.68,6.2,6.2,0,0,1-1.871.265,4.249,4.249,0,0,1-1.588-.277,2.227,2.227,0,0,1-1.084-.895,3.031,3.031,0,0,1-.391-1.638q0-.567.013-1.254t.038-1.418q.025-.731.038-1.43t.025-1.292q.013-.592.013-.983,0-.353-.025-.68a5.938,5.938,0,0,0-.076-.6Zm16.04-.189q-.025.164-.044.365t-.032.479q0,.189-.006.567t-.006.851v1.833q0,.63.025,1.323t.063,1.348q.038.655.063,1.2t.025.857a1.818,1.818,0,0,1-.208.844,1.582,1.582,0,0,1-.693.661,2.82,2.82,0,0,1-1.317.258,3.789,3.789,0,0,1-2.079-.472,1.667,1.667,0,0,1-.372-2.388,2.282,2.282,0,0,1,1-.674A4.453,4.453,0,0,1,44.516,46a7.25,7.25,0,0,1,1.871.233,9.033,9.033,0,0,1,1.606.586,10.281,10.281,0,0,1,1.3.737q.567.384.932.687l-.58.895a9.848,9.848,0,0,0-2.211-1.55,7.307,7.307,0,0,0-1.424-.548,6.13,6.13,0,0,0-1.619-.208,2.576,2.576,0,0,0-1.38.3.875.875,0,0,0-.472.743.827.827,0,0,0,.176.51,1.184,1.184,0,0,0,.567.372,3.067,3.067,0,0,0,1.008.139,2.231,2.231,0,0,0,.668-.095.949.949,0,0,0,.485-.334,1.079,1.079,0,0,0,.183-.668q0-.365-.019-.951T45.562,45.6q-.025-.661-.044-1.279T45.5,43.291V41.527q0-.441.006-.844t.006-.731q0-.151-.013-.391a2.727,2.727,0,0,0-.038-.365Zm-4.826,1.373q.315.05.731.1t.876.095q.46.044.882.063t.737.019q1.2,0,2.451-.088t2.476-.29l-.013.92q-.693.076-1.512.151t-1.682.126q-.863.05-1.707.05-.441,0-1.046-.038t-1.191-.088q-.586-.05-.989-.088Zm-.063,2.671q.34.05.756.1t.857.076q.441.025.844.044t.718.019q.92,0,1.783-.044t1.7-.126q.838-.082,1.657-.208l-.013.945q-.63.088-1.254.145t-1.247.094q-.624.038-1.273.057t-1.367.019q-.428,0-.989-.025t-1.134-.063q-.573-.038-1.027-.088Zm18.673-4.019q0,.063-.019.227t-.025.321q-.006.157-.019.246-.013.239-.013.655v.907q0,.491.006,1t.013.945q.006.441.006.743l-.97-.479V42.415q0-.472-.006-.939t-.019-.857q-.013-.391-.025-.6-.013-.252-.038-.485t-.038-.309Zm-6.691,1.751q.517,0,1.172-.019t1.392-.044q.737-.025,1.493-.038l1.455-.025q.7-.013,1.292-.013h2.2q.5,0,.882.006t.611.006l-.013.932q-.529-.025-1.418-.044t-2.274-.019q-.819,0-1.707.019t-1.783.044q-.895.025-1.732.069t-1.544.095Zm6.615,3.667a3.519,3.519,0,0,1-.246,1.4,1.824,1.824,0,0,1-.68.844,1.845,1.845,0,0,1-1.014.277,2.257,2.257,0,0,1-.762-.132,1.949,1.949,0,0,1-.668-.4,1.912,1.912,0,0,1-.466-.668,2.267,2.267,0,0,1-.17-.9,2.1,2.1,0,0,1,.3-1.121,2.231,2.231,0,0,1,.813-.781,2.2,2.2,0,0,1,1.1-.29A1.992,1.992,0,0,1,60.417,44.1a3.211,3.211,0,0,1,.252,1.3,4.772,4.772,0,0,1-.183,1.285,4.138,4.138,0,0,1-.6,1.26,4.438,4.438,0,0,1-1.147,1.1,6.468,6.468,0,0,1-1.833.825l-.844-.832a8.04,8.04,0,0,0,1.537-.517,4.088,4.088,0,0,0,1.147-.769,3.076,3.076,0,0,0,.712-1.058,3.659,3.659,0,0,0,.246-1.386,1.736,1.736,0,0,0-.365-1.235,1.182,1.182,0,0,0-.882-.378,1.274,1.274,0,0,0-.617.157,1.24,1.24,0,0,0-.472.46,1.363,1.363,0,0,0-.183.718,1.143,1.143,0,0,0,.384.92,1.345,1.345,0,0,0,.9.328,1.04,1.04,0,0,0,.668-.221,1.226,1.226,0,0,0,.4-.668,2.776,2.776,0,0,0,.019-1.115ZM66.7,46.126a1.842,1.842,0,0,1,.97.258,2.026,2.026,0,0,1,.693.693,1.888,1.888,0,0,1,0,1.928,2.082,2.082,0,0,1-.693.7,1.9,1.9,0,0,1-1.934,0,2.009,2.009,0,0,1-.693-.7,1.928,1.928,0,0,1,0-1.928,1.941,1.941,0,0,1,.7-.693A1.862,1.862,0,0,1,66.7,46.126Zm0,3.2a1.269,1.269,0,0,0,1.285-1.285,1.223,1.223,0,0,0-.17-.63,1.321,1.321,0,0,0-.46-.466,1.235,1.235,0,0,0-.655-.176,1.189,1.189,0,0,0-.63.176,1.375,1.375,0,0,0-.466.466,1.189,1.189,0,0,0-.176.63,1.245,1.245,0,0,0,.176.649,1.305,1.305,0,0,0,.466.466A1.223,1.223,0,0,0,66.7,49.326Z" transform="translate(742.795 6981.063)" fill="#333"/>
    <g id="グループ_676" data-name="グループ 676">
      <path id="パス_516" data-name="パス 516" d="M732.342,6984.975H710.849a3.488,3.488,0,0,0-3.534,3.533V7010a3.583,3.583,0,0,0,3.534,3.533h21.493a3.583,3.583,0,0,0,3.533-3.533v-21.494A3.487,3.487,0,0,0,732.342,6984.975Z" fill="#68be8d"/>
      <path id="パス_722" data-name="パス 722" d="M5.207.257A6.5,6.5,0,0,1,3.217-.02,5.666,5.666,0,0,1,1.7-.752a6.382,6.382,0,0,1-1.129-.99L1.5-2.911A6.99,6.99,0,0,0,3-1.752a4.064,4.064,0,0,0,2.089.5,3.522,3.522,0,0,0,1.535-.317,2.474,2.474,0,0,0,1.039-.9,2.485,2.485,0,0,0,.376-1.376,2.553,2.553,0,0,0-.426-1.475A2.737,2.737,0,0,0,6.2-6.286a8.331,8.331,0,0,0-2.673-.347V-8.039A6.6,6.6,0,0,0,5.9-8.385a2.544,2.544,0,0,0,1.257-.95,2.43,2.43,0,0,0,.386-1.336,2.116,2.116,0,0,0-.653-1.634,2.553,2.553,0,0,0-1.8-.6,3.424,3.424,0,0,0-1.633.406,5.517,5.517,0,0,0-1.376,1.04l-.97-1.148A8.479,8.479,0,0,1,2.92-13.87a4.794,4.794,0,0,1,2.227-.5,5.458,5.458,0,0,1,2.188.416,3.4,3.4,0,0,1,1.5,1.218,3.354,3.354,0,0,1,.544,1.93,3.14,3.14,0,0,1-.713,2.119A4.339,4.339,0,0,1,6.811-7.445v.079a4.817,4.817,0,0,1,1.544.693,3.632,3.632,0,0,1,1.109,1.2A3.376,3.376,0,0,1,9.88-3.762,3.627,3.627,0,0,1,9.247-1.6,4.164,4.164,0,0,1,7.564-.228,5.55,5.55,0,0,1,5.207.257Z" transform="translate(716.101 7006.779)" fill="#fff"/>
    </g>
  </g>
</svg>
