<svg xmlns="http://www.w3.org/2000/svg" xmlns:xlink="http://www.w3.org/1999/xlink" width="219.205" height="219.058" viewBox="0 0 219.205 219.058">
  <defs>
    <clipPath id="clip-path">
      <rect id="長方形_377" data-name="長方形 377" width="91.274" height="56.384" transform="translate(315.473 7067.71)" fill="none"/>
    </clipPath>
    <clipPath id="clip-path-2">
      <rect id="長方形_378" data-name="長方形 378" width="96.427" height="66.689" transform="translate(310.321 7062.558)" fill="none"/>
    </clipPath>
    <clipPath id="clip-path-3">
      <rect id="長方形_379" data-name="長方形 379" width="171.36" height="145.45" transform="translate(235.388 7038.709)" fill="none"/>
    </clipPath>
  </defs>
  <g id="グループ_657" data-name="グループ 657" transform="translate(-203 -6974.522)">
    <path id="パス_402" data-name="パス 402" d="M415.139,7193.58H210.066a6.944,6.944,0,0,1-7.066-6.919V6981.442a6.945,6.945,0,0,1,7.066-6.92H415.139a7.038,7.038,0,0,1,7.066,6.92v205.219A7.037,7.037,0,0,1,415.139,7193.58Z" fill="#fff"/>
    <path id="パス_403" data-name="パス 403" d="M332.992,7162.076l-16.341,6.772a3.687,3.687,0,0,1-3.533-.589l-42.693-50.789a2.86,2.86,0,0,1-.736-2.356v-3.975l13.4-3.68c2.8-1.178,6.477-.589,8.1,1.472l40.484,47.551,2.65-.147v4.122A1.821,1.821,0,0,1,332.992,7162.076Z" fill="#fff"/>
    <path id="パス_404" data-name="パス 404" d="M315.426,7169.424a3.735,3.735,0,0,1-2.569-.9l-.021-.023-42.7-50.8a3.218,3.218,0,0,1-.817-2.616v-4.226l.271-.074,13.374-3.674a8.354,8.354,0,0,1,3.193-.62,6.717,6.717,0,0,1,5.309,2.208l40.361,47.407,2.856-.159v4.511a2.181,2.181,0,0,1-1.564,1.964l-16.341,6.772A3.9,3.9,0,0,1,315.426,7169.424Zm-2.037-1.415a3.049,3.049,0,0,0,2.037.678,3.172,3.172,0,0,0,1.09-.182l16.36-6.779a1.465,1.465,0,0,0,1.073-1.27v-3.733l-2.444.135-.118-.139-40.493-47.562a6.066,6.066,0,0,0-4.735-1.932,7.607,7.607,0,0,0-2.929.572l-.022.009-.023.006-13.126,3.606v3.724l-.005.03a2.494,2.494,0,0,0,.658,2.063Z" fill="#3e3a39"/>
    <path id="パス_405" data-name="パス 405" d="M312.235,7170.615l-16.341,6.772a3.088,3.088,0,0,1-3.534-.589l-42.692-50.643a3,3,0,0,1-.736-2.355v-4.122l13.4-3.681c2.8-1.177,6.478-.441,8.1,1.473l40.485,47.55,2.65-.147V7169A1.69,1.69,0,0,1,312.235,7170.615Z" fill="#fff"/>
    <path id="パス_406" data-name="パス 406" d="M294.535,7178.062a3.241,3.241,0,0,1-2.458-1.028l-42.7-50.649a3.384,3.384,0,0,1-.817-2.62V7119.4l.271-.074,13.373-3.675a8.009,8.009,0,0,1,3.057-.586,7.224,7.224,0,0,1,5.441,2.17l40.366,47.41,2.856-.159V7169a2.059,2.059,0,0,1-1.564,1.965l-16.318,6.762A3.421,3.421,0,0,1,294.535,7178.062Zm-44.583-52.141,42.689,50.64a2.492,2.492,0,0,0,1.894.765,2.684,2.684,0,0,0,1.194-.267l.024-.011,16.365-6.781a1.36,1.36,0,0,0,1.074-1.271v-3.733l-2.444.135-.118-.139-40.485-47.55a6.48,6.48,0,0,0-4.88-1.911,7.26,7.26,0,0,0-2.794.538l-.022.009-.023.006-13.125,3.607v3.877l-.007.036A2.63,2.63,0,0,0,249.952,7125.921Z" fill="#3e3a39"/>
    <path id="パス_407" data-name="パス 407" d="M332.992,7157.807l-16.341,6.772a3.087,3.087,0,0,1-3.533-.589l-42.693-50.642c-1.619-2.062-.736-4.564,2.208-5.742l10.453-4.416c2.8-1.178,6.477-.442,8.1,1.472l42.692,50.789C334.612,7156.335,334.17,7157.365,332.992,7157.807Z" fill="#fff"/>
    <path id="パス_408" data-name="パス 408" d="M315.292,7165.253a3.239,3.239,0,0,1-2.457-1.027l-42.7-50.651a3.651,3.651,0,0,1-.765-3.24,4.864,4.864,0,0,1,3.122-3.07l10.45-4.415a8,8,0,0,1,3.081-.6,7.224,7.224,0,0,1,5.44,2.169l42.693,50.79a1.7,1.7,0,0,1,.395,1.54,2.178,2.178,0,0,1-1.424,1.4l-16.324,6.765A3.421,3.421,0,0,1,315.292,7165.253Zm-44.582-52.138,42.689,50.637a2.493,2.493,0,0,0,1.893.764,2.684,2.684,0,0,0,1.194-.267l.024-.011,16.353-6.777a1.467,1.467,0,0,0,.977-.9.967.967,0,0,0-.248-.878L290.9,7104.9a6.48,6.48,0,0,0-4.878-1.908,7.257,7.257,0,0,0-2.795.539l-10.459,4.418a4.16,4.16,0,0,0-2.688,2.579A2.894,2.894,0,0,0,270.711,7113.116Z" fill="#3e3a39"/>
    <path id="パス_409" data-name="パス 409" d="M299.721,7128.216l-4.269,1.767-2.65-3.239,4.269-1.767Z" fill="#3e3a39"/>
    <path id="パス_410" data-name="パス 410" d="M302.518,7131.455l-4.269,1.767-2.8-3.239,4.269-1.767Z" fill="#898989"/>
    <path id="パス_411" data-name="パス 411" d="M305.757,7135.43l-4.122,1.767-2.5-2.944,4.122-1.767Z" fill="#ebd784"/>
    <path id="パス_412" data-name="パス 412" d="M300.056,7139.995l-.173-.2-11.367-13.337,10.136-4.277,11.388,13.7Zm-10.328-13.254,10.542,12.369,8.565-3.535-10.4-12.508Z" fill="#3e3a39"/>
    <path id="パス_413" data-name="パス 413" d="M301.53,7137.643l-.176-.208L292.2,7126.6l.466-.192,4.52-1.871,9.174,11.041Zm-8.121-10.751,8.332,9.859,3.419-1.465-8.2-9.865Z" fill="#3e3a39"/>
    <path id="線_222" data-name="線 222" d="M3.666.515-.015.368.015-.368,3.7-.221Z" transform="translate(289.122 7126.597)" fill="#3e3a39"/>
    <path id="線_223" data-name="線 223" d="M.312,2.551l-.624-.39L1.16-.2,1.784.2Z" transform="translate(300.163 7137.197)" fill="#3e3a39"/>
    <path id="線_224" data-name="線 224" d="M3.651.661-.029.367.029-.367l3.68.294Z" transform="translate(305.757 7135.43)" fill="#3e3a39"/>
    <path id="線_225" data-name="線 225" d="M.312,2.551l-.624-.39L1.16-.2,1.784.2Z" transform="translate(297.071 7122.622)" fill="#3e3a39"/>
    <path id="パス_414" data-name="パス 414" d="M315.2,7147.957a2.823,2.823,0,0,1,2.184.935,1.553,1.553,0,0,1,.338,1.364,1.957,1.957,0,0,1-1.216,1.265,3.05,3.05,0,0,1-1.193.237,2.824,2.824,0,0,1-2.185-.935,1.553,1.553,0,0,1-.338-1.363,1.96,1.96,0,0,1,1.216-1.266A3.055,3.055,0,0,1,315.2,7147.957Zm.113,3.065a2.312,2.312,0,0,0,.9-.178,1.254,1.254,0,0,0,.792-.767.826.826,0,0,0-.2-.726,2.108,2.108,0,0,0-1.609-.658,2.315,2.315,0,0,0-.9.178,1.255,1.255,0,0,0-.792.768.825.825,0,0,0,.2.725A2.108,2.108,0,0,0,315.309,7151.021Z" fill="#3e3a39"/>
    <path id="パス_415" data-name="パス 415" d="M315.014,7142.389a14.242,14.242,0,0,1,5.175.951,9.738,9.738,0,0,1,3.957,2.746,5.6,5.6,0,0,1,1.336,5.09,7.76,7.76,0,0,1-5.009,5.056,13.116,13.116,0,0,1-5.212,1.048,13.943,13.943,0,0,1-5.073-.944,10.213,10.213,0,0,1-3.973-2.7l-.006-.007a5.751,5.751,0,0,1-1.309-5.062c.515-2.163,2.33-4.067,4.978-5.226l.013,0A14.1,14.1,0,0,1,315.014,7142.389Zm.247,14.155a12.372,12.372,0,0,0,4.923-.989l.013,0a7.047,7.047,0,0,0,4.571-4.55,4.887,4.887,0,0,0-1.181-4.436l-.005-.006c-1.749-2.118-5.032-3.434-8.567-3.434a13.372,13.372,0,0,0-4.847.889c-2.431,1.065-4.09,2.785-4.551,4.72a4.967,4.967,0,0,0,1.157,4.418A11.431,11.431,0,0,0,315.261,7156.544Z" fill="#3e3a39"/>
    <path id="パス_416" data-name="パス 416" d="M315.13,7143.388a10.284,10.284,0,0,1,7.838,3.14,4.945,4.945,0,0,1,1.191,4.39,7.1,7.1,0,0,1-4.418,4.578l-.01,0a12.423,12.423,0,0,1-4.5.826c-3.244,0-6.121-1.175-7.7-3.143a5.061,5.061,0,0,1-1.226-4.483,6.935,6.935,0,0,1,4.309-4.481l.01,0A12.444,12.444,0,0,1,315.13,7143.388Zm4.325,11.429a6.386,6.386,0,0,0,3.986-4.068,4.175,4.175,0,0,0-1.035-3.745,9.55,9.55,0,0,0-7.277-2.881,11.692,11.692,0,0,0-4.228.774,6.218,6.218,0,0,0-3.877,3.971,4.29,4.29,0,0,0,1.074,3.842l.007.008a7.249,7.249,0,0,0,3.032,2.128,11.278,11.278,0,0,0,4.1.743A11.682,11.682,0,0,0,319.455,7154.817Z" fill="#3e3a39"/>
    <path id="パス_417" data-name="パス 417" d="M312.235,7166.493l-16.341,6.772a3.39,3.39,0,0,1-3.534-.736l-42.692-50.643c-1.62-2.061-.736-4.564,2.208-5.741l10.452-4.27c2.8-1.177,6.478-.589,8.1,1.472l42.693,50.643C313.854,7164.873,313.412,7165.9,312.235,7166.493Z" fill="#fff"/>
    <path id="パス_418" data-name="パス 418" d="M294.713,7173.836a3.473,3.473,0,0,1-2.635-1.071l-42.7-50.651a3.649,3.649,0,0,1-.765-3.239,4.862,4.862,0,0,1,3.126-3.071l10.449-4.269a8.357,8.357,0,0,1,3.212-.627,6.715,6.715,0,0,1,5.31,2.208l42.689,50.638a1.71,1.71,0,0,1,.412,1.477,2.44,2.44,0,0,1-1.412,1.592l-.024.011-16.353,6.777A3.775,3.775,0,0,1,294.713,7173.836Zm-44.759-52.182,42.688,50.637a2.73,2.73,0,0,0,2.071.808,3.031,3.031,0,0,0,1.047-.177l16.322-6.764a1.754,1.754,0,0,0,1.009-1.079.986.986,0,0,0-.256-.854l-42.7-50.651a6.064,6.064,0,0,0-4.735-1.932,7.618,7.618,0,0,0-2.93.571l-10.456,4.271a4.159,4.159,0,0,0-2.691,2.58A2.892,2.892,0,0,0,249.954,7121.654Z" fill="#3e3a39"/>
    <path id="パス_419" data-name="パス 419" d="M279.3,7148.533l-.173-.2-11.367-13.337,10.136-4.277,11.388,13.7Zm-10.328-13.254,10.542,12.369,8.565-3.535-10.4-12.508Z" fill="#3e3a39"/>
    <path id="線_226" data-name="線 226" d="M3.666.515-.015.368.015-.368,3.7-.22Z" transform="translate(268.364 7135.136)" fill="#3e3a39"/>
    <path id="線_227" data-name="線 227" d="M.312,2.551l-.624-.39L1.16-.2,1.784.2Z" transform="translate(279.405 7145.735)" fill="#3e3a39"/>
    <path id="線_228" data-name="線 228" d="M3.651.661-.029.367.029-.367l3.68.294Z" transform="translate(285 7143.969)" fill="#3e3a39"/>
    <path id="線_229" data-name="線 229" d="M.317,2.689l-.634-.373,1.472-2.5.634.373Z" transform="translate(276.314 7131.161)" fill="#3e3a39"/>
    <path id="パス_420" data-name="パス 420" d="M296.335,7157.66c.589.736.3,1.619-.736,2.061a2.649,2.649,0,0,1-2.944-.589c-.589-.736-.3-1.619.736-2.061A2.647,2.647,0,0,1,296.335,7157.66Z" fill="#acd8e7"/>
    <path id="パス_421" data-name="パス 421" d="M294.438,7156.5a2.823,2.823,0,0,1,2.184.935,1.554,1.554,0,0,1,.338,1.363,1.959,1.959,0,0,1-1.216,1.266,3.057,3.057,0,0,1-1.192.237,2.824,2.824,0,0,1-2.184-.935,1.554,1.554,0,0,1-.338-1.364,1.96,1.96,0,0,1,1.216-1.266A3.048,3.048,0,0,1,294.438,7156.5Zm.114,3.065a2.308,2.308,0,0,0,.9-.177,1.255,1.255,0,0,0,.792-.768.826.826,0,0,0-.2-.725,2.108,2.108,0,0,0-1.61-.659,2.307,2.307,0,0,0-.9.178,1.255,1.255,0,0,0-.792.768.826.826,0,0,0,.2.725A2.108,2.108,0,0,0,294.552,7159.56Z" fill="#3e3a39"/>
    <path id="パス_422" data-name="パス 422" d="M294.438,7150.972a13.807,13.807,0,0,1,5.073.945,9.626,9.626,0,0,1,3.879,2.711,5.82,5.82,0,0,1,1.336,5.15,6.39,6.39,0,0,1-1.668,2.92,10.027,10.027,0,0,1-3.341,2.219l-.005,0a13.478,13.478,0,0,1-5.03.944,14.355,14.355,0,0,1-5.171-.951,10.325,10.325,0,0,1-4.053-2.742,5.539,5.539,0,0,1-1.312-5.008,7.84,7.84,0,0,1,4.982-5.143A13.71,13.71,0,0,1,294.438,7150.972Zm4.995,13.267c2.444-1.038,4.113-2.727,4.579-4.635a5.038,5.038,0,0,0-1.189-4.507c-1.727-2.09-4.94-3.389-8.385-3.389a12.968,12.968,0,0,0-5.025.99l-.005,0a7.125,7.125,0,0,0-4.546,4.635,4.82,4.82,0,0,0,1.153,4.353c1.844,2.121,5.166,3.439,8.668,3.439A12.747,12.747,0,0,0,299.433,7164.239Z" fill="#3e3a39"/>
    <path id="パス_423" data-name="パス 423" d="M294.417,7152a10.636,10.636,0,0,1,7.786,3.056l.006.007a4.947,4.947,0,0,1,1.191,4.391,7.1,7.1,0,0,1-4.417,4.577l-.01,0a12.425,12.425,0,0,1-4.5.827c-3.244,0-6.122-1.175-7.7-3.144a5.022,5.022,0,0,1-1.211-4.529,6.656,6.656,0,0,1,4.3-4.289A11.662,11.662,0,0,1,294.417,7152Zm7.234,3.543a9.89,9.89,0,0,0-7.234-2.807,10.92,10.92,0,0,0-4.267.843l-.01,0a5.942,5.942,0,0,0-3.86,3.785,4.307,4.307,0,0,0,1.061,3.877l.007.008a7.242,7.242,0,0,0,3.031,2.129,11.278,11.278,0,0,0,4.1.744,11.674,11.674,0,0,0,4.222-.774,6.384,6.384,0,0,0,3.985-4.067A4.175,4.175,0,0,0,301.651,7155.546Z" fill="#3e3a39"/>
    <path id="パス_424" data-name="パス 424" d="M284.558,7143.527l-4.122,1.767.442.442,4.122-1.767Z" fill="#a7436a"/>
    <path id="パス_425" data-name="パス 425" d="M280.772,7146.181l-.176-.208-9.169-10.85,5-1.9.168.2,9.006,10.685Zm-8.111-10.739,8.322,9.847,3.415-1.463-8.2-9.726Z" fill="#3e3a39"/>
    <path id="パス_426" data-name="パス 426" d="M240.246,7156.04c.147-1.03.736-1.619,1.472-1.619a1.32,1.32,0,0,1,1.325,1.325c0,.736-.295,1.325-1.325,2.355a9.037,9.037,0,0,0-2.356,3.239v.589h4.564v-.736h-3.68a8.55,8.55,0,0,1,2.061-2.65c1.325-1.178,1.619-1.914,1.619-2.8a1.975,1.975,0,0,0-2.208-2.061,2.375,2.375,0,0,0-2.356,2.208Z" fill="#3e3a39"/>
    <path id="パス_427" data-name="パス 427" d="M252.465,7154.863c-.148,0-.148,0-.148.147a4.859,4.859,0,0,1,.442.883c0,.147,0,.147.147,0h.295c0-.147.147-.147,0-.147a1.571,1.571,0,0,0-.295-.883c-.147-.148-.147-.148-.294-.148Zm-3.828-1.325c-.147.147-.147.147,0,.147a9.478,9.478,0,0,1,1.325,1.178c0,.147,0,.147.147,0l.147-.295c.148-.147.148-.147,0-.147a4.484,4.484,0,0,0-1.177-1.178c-.148,0-.148,0-.295.147Zm-.442,2.8c-.147,0-.147,0,0,.147a8.034,8.034,0,0,1,1.325,1.03c0,.148,0,.148.148,0l.294-.294v-.147a10.263,10.263,0,0,0-1.472-1.178.144.144,0,0,0-.147.147Zm2.061,3.238c0-.147,0-.147-.147-.294a.316.316,0,0,1-.294-.294c-.442,1.03-.736,1.766-1.031,2.5a2.553,2.553,0,0,1-.589.736c.148.148.295.148.442.295h.294c0-.147.148-.295.295-.442C249.52,7161.34,249.962,7160.457,250.256,7159.573Zm7.656-5.447a.144.144,0,0,0-.147-.147h-3.386v-.736a.147.147,0,1,0,0-.294h-.737a2.17,2.17,0,0,1,.148,1.03H250.7v.589h7.214Zm-2.945,6.772H253.2v-1.177h1.766Zm1.325-2.944c0-.147,0-.147-.147-.147h-1.766v-.589a.144.144,0,0,0,.147-.147l-.147-.147h-.589v.883h-1.62c-.147,0-.147,0-.147.147v.295c0,.147,0,.147.147.147a3.019,3.019,0,0,1,1.178-.147h.442v1.03h-1.178a3,3,0,0,1,.147.736v.589c0,1.178-.147,1.325-.147,1.325h.589v-.442h1.766v.3h.737s-.148-.147-.148-1.325v-.589c0-.295.148-.442.148-.589h-1.325v-1.03h.441a3.522,3.522,0,0,1,1.325.147c.147,0,.147,0,.147-.147Zm1.031-.147a7.371,7.371,0,0,1,.147-1.62.144.144,0,0,0-.147-.147h-1.914c.147-.294.295-.441.442-.736,0-.147,0-.147.147-.147v-.147a.144.144,0,0,0-.147-.147c-.147,0-.295-.148-.589-.148a.542.542,0,0,1-.147.442,1.274,1.274,0,0,1-.442.883H251.14c-.147,0-.147,0-.147.147v6.478c0,.147,0,.147.147.147h.441a.145.145,0,0,0,.148-.147,5.2,5.2,0,0,1-.148-1.472v-4.564h5.153v5.153c0,.294-.147.294-.442.294h-.883c.147.147.147.295.295.442,0,.147,0,.147.147.147.883,0,1.177,0,1.325-.147a1.117,1.117,0,0,0,.294-.589c0-.294-.147-1.031-.147-1.767Z" fill="#3e3a39"/>
    <path id="パス_428" data-name="パス 428" d="M346.831,7147.355c.147-1.178.736-1.62,1.472-1.62a1.236,1.236,0,0,1,1.325,1.325c0,.736-.295,1.178-1.473,2.356a8.493,8.493,0,0,0-2.208,3.238v.589h4.564v-.736h-3.68a8.551,8.551,0,0,1,2.061-2.65c1.325-1.178,1.619-1.914,1.619-2.8A1.975,1.975,0,0,0,348.3,7145a2.361,2.361,0,0,0-2.356,2.061Z" fill="#3e3a39"/>
    <path id="パス_429" data-name="パス 429" d="M358.9,7146.177c-.147,0-.147,0,0,.147a1.579,1.579,0,0,1,.295.883c.147.148.147.148.294,0h.3v-.147a3.126,3.126,0,0,0-.442-1.03H359.2Zm-3.68-1.325c-.147.147-.147.147,0,.147l1.178,1.178h.147l.294-.295c.147-.147.147-.147,0-.147a5.088,5.088,0,0,0-1.325-1.178h-.147Zm-.589,2.65v.294a8.929,8.929,0,0,1,1.472,1.031c0,.147,0,.147.147,0l.148-.295c.147-.147.147-.147,0-.147a9.6,9.6,0,0,0-1.325-1.178h-.148Zm2.061,3.386c.147-.147.147-.147,0-.3s-.294-.147-.442-.294a23.922,23.922,0,0,1-.883,2.5,3.208,3.208,0,0,0-.589.736c.147,0,.3.147.442.294h.147c.147,0,.147,0,.147-.147a.645.645,0,0,0,.147-.442A8.713,8.713,0,0,0,356.694,7150.888Zm7.655-5.594h-3.386v-.737l.148-.147a.145.145,0,0,0-.148-.147h-.736a1.6,1.6,0,0,1,.147.883v.148h-3.091v.588h7.066Zm-2.8,6.919h-1.766v-1.178h1.766Zm1.325-3.092h-1.914v-.883h-.589v.883h-1.766v.442h1.766v1.03h-.147a2.137,2.137,0,0,1-.883-.147c-.147,0-.147,0-.147.147v2.65h.589v-.441h1.766v.294h.589v-2.65a3.593,3.593,0,0,1-1.03.147h-.148v-1.03h1.914Zm1.031-.147v-1.619h-2.061c.294-.295.441-.442.441-.737.148-.147.148-.147.148-.294h.147c0-.147,0-.147-.147-.147a.888.888,0,0,0-.589-.147c0,.147-.148.294-.148.441l-.441.884h-3.533c-.148,0-.148,0-.148.147v6.477c0,.147,0,.147.148.147h.441v-6.183h5.153v5.153c0,.147-.147.294-.442.294h-.883a.543.543,0,0,1,.147.442c.147.147.147.147.3.147.883,0,1.177,0,1.324-.147a1.1,1.1,0,0,0,.148-.736v-4.122Z" fill="#3e3a39"/>
    <g id="グループ_651" data-name="グループ 651">
      <g id="グループ_650" data-name="グループ 650" clip-path="url(#clip-path)">
        <path id="パス_430" data-name="パス 430" d="M378.924,7084.051s-20.316-9.863-24.733-12.219c-4.416-2.208-8.1-4.122-14.721.295-4.858,3.091-10.158,6.477-12.661,8.1a6.415,6.415,0,0,0-2.355,2.5c-1.62,3.091-5.006,9.569-6.036,11.335-1.325,2.208-2.945,10.011-1.031,11.041s3.828-1.472,3.828-1.472,2.061,5.594,1.472,8.1c-.589,2.65,3.386,4.122,5.153.442-.442,6.036,5.005,3.533,6.183.883-.589,3.092,2.208,4.564,4.563,1.325a28.81,28.81,0,0,0,2.356-3.386,42.413,42.413,0,0,0,4.269-4.416s16.488,6.33,23.408,3.533c9.274.441,35.332,3.533,45.342,12.219,1.767,1.619,8.244-2.8,8.244-2.8l-10.01-27.088Z" fill="#f6e8da"/>
      </g>
    </g>
    <g id="グループ_653" data-name="グループ 653">
      <g id="グループ_652" data-name="グループ 652" clip-path="url(#clip-path-2)">
        <path id="パス_431" data-name="パス 431" d="M346.845,7069.091h0c2.689,0,4.971,1.142,7.388,2.351l.131.065c4.276,2.281,23.743,11.738,24.687,12.2l33.422,8.43.067.182,10.11,27.357-.238.162c-.193.131-4.75,3.218-7.333,3.218a1.96,1.96,0,0,1-1.363-.45,33.23,33.23,0,0,0-9.89-5.442,89.691,89.691,0,0,0-12.89-3.674,151,151,0,0,0-22.256-3.006,12.822,12.822,0,0,1-4.6.71,46.962,46.962,0,0,1-12.46-2.137c-3.048-.865-5.478-1.74-6.267-2.032a47.36,47.36,0,0,1-4.116,4.2,30.121,30.121,0,0,1-2.354,3.376,4.051,4.051,0,0,1-3.055,1.97,2.077,2.077,0,0,1-1.626-.767,2.792,2.792,0,0,1-.594-1.448,5.388,5.388,0,0,1-3.664,1.909,2.217,2.217,0,0,1-1.674-.693,3.479,3.479,0,0,1-.8-2.135,3.337,3.337,0,0,1-2.58,1.307,2.7,2.7,0,0,1-2.1-.974,2.467,2.467,0,0,1-.461-2.122c.45-1.91-.757-5.825-1.255-7.305a4.146,4.146,0,0,1-2.715,1.377,2.394,2.394,0,0,1-1.145-.293,1.953,1.953,0,0,1-.87-1.284,13.956,13.956,0,0,1,.187-5.4,17.271,17.271,0,0,1,1.573-4.872c.95-1.629,3.9-7.25,5.655-10.609l.377-.719a6.771,6.771,0,0,1,2.483-2.635c2.306-1.492,7.269-4.667,12.651-8.091A13.789,13.789,0,0,1,346.845,7069.091Zm7.177,3.068-.118-.059c-2.438-1.219-4.544-2.272-7.059-2.273h0c-2.226,0-4.5.828-7.171,2.606l-.007,0c-5.389,3.428-10.357,6.606-12.659,8.1l-.017.01a6.052,6.052,0,0,0-2.215,2.36l-.368.7c-1.762,3.364-4.712,8.994-5.673,10.642-1.071,1.785-2.329,7.356-1.684,9.7a1.354,1.354,0,0,0,.51.831,1.663,1.663,0,0,0,.8.205c1.344,0,2.553-1.561,2.565-1.577l.406-.531.231.627c.086.233,2.092,5.728,1.485,8.309a1.742,1.742,0,0,0,.317,1.5,1.962,1.962,0,0,0,1.529.7,3.043,3.043,0,0,0,2.617-2l.841-1.751-.142,1.937a3.884,3.884,0,0,0,.6,2.874,1.482,1.482,0,0,0,1.135.458,4.865,4.865,0,0,0,3.747-2.625l1.294-2.911-.6,3.129a2.693,2.693,0,0,0,.381,2.212,1.334,1.334,0,0,0,1.059.5,3.421,3.421,0,0,0,2.464-1.672l.008-.011a28.888,28.888,0,0,0,2.324-3.337l.029-.052.044-.041a42.547,42.547,0,0,0,4.206-4.34l.161-.257.283.108c.11.042,11.088,4.222,18.734,4.222a11.963,11.963,0,0,0,4.4-.687l.075-.03.081,0c9.234.439,35.421,3.506,45.566,12.309l.007.006a1.258,1.258,0,0,0,.87.26c2.045,0,5.712-2.3,6.679-2.932l-9.842-26.632L378.8,7084.4l-.034-.017C378.56,7084.283,358.4,7074.5,354.022,7072.159Z" fill="#3e3a39"/>
      </g>
    </g>
    <g id="グループ_655" data-name="グループ 655">
      <g id="グループ_654" data-name="グループ 654" clip-path="url(#clip-path-3)">
        <path id="線_230" data-name="線 230" d="M0,5.235a.23.23,0,0,1-.077-.013.23.23,0,0,1-.14-.293L1.55-.077a.23.23,0,0,1,.293-.14.23.23,0,0,1,.14.293L.217,5.082A.23.23,0,0,1,0,5.235Z" transform="translate(327.84 7107.165)" fill="#fff"/>
        <path id="線_231" data-name="線 231" d="M.278,5.1l-.555-.2L1.489-.1l.555.2Z" transform="translate(327.84 7107.165)" fill="#3e3a39"/>
        <path id="線_232" data-name="線 232" d="M0,7a.23.23,0,0,1-.076-.013A.23.23,0,0,1-.217,6.7L2.138-.076a.23.23,0,0,1,.293-.142.23.23,0,0,1,.142.293L.217,6.848A.23.23,0,0,1,0,7Z" transform="translate(334.023 7106.281)" fill="#fff"/>
        <path id="線_233" data-name="線 233" d="M.278,6.869l-.556-.193L2.077-.1,2.634.1Z" transform="translate(334.023 7106.281)" fill="#3e3a39"/>
        <path id="パス_432" data-name="パス 432" d="M317.534,7143.085c0,1.914-1.03,2.8-2.355,2.8-1.178,0-2.208-.883-2.208-2.8,0-2.061,2.208-5.152,2.208-5.152S317.534,7141.024,317.534,7143.085Z" fill="#acd8e7"/>
        <path id="パス_433" data-name="パス 433" d="M315.179,7146.25c-1.188,0-2.576-.829-2.576-3.165,0-2.154,2.184-5.236,2.277-5.366l.29-.406.3.4c.1.13,2.43,3.214,2.43,5.375C317.9,7145.418,316.5,7146.25,315.179,7146.25Zm.01-7.672c-.585.9-1.85,3.024-1.85,4.507,0,1.5.705,2.429,1.84,2.429,1.263,0,1.987-.885,1.987-2.429C317.166,7141.6,315.809,7139.473,315.189,7138.578Z" fill="#3e3a39"/>
        <path id="パス_434" data-name="パス 434" d="M317.534,7131.6c0,1.914-1.03,2.8-2.355,2.8-1.178,0-2.208-.883-2.208-2.8s2.208-5.152,2.208-5.152S317.534,7129.689,317.534,7131.6Z" fill="#acd8e7"/>
        <path id="パス_435" data-name="パス 435" d="M315.179,7134.767c-1.188,0-2.576-.829-2.576-3.165,0-2,2.179-5.223,2.272-5.359l.294-.432.307.423c.1.136,2.425,3.358,2.425,5.368C317.9,7133.936,316.5,7134.767,315.179,7134.767Zm.01-7.654c-.588.939-1.85,3.118-1.85,4.489,0,1.5.705,2.429,1.84,2.429,1.263,0,1.987-.885,1.987-2.429C317.166,7130.232,315.813,7128.047,315.189,7127.113Z" fill="#3e3a39"/>
        <path id="線_234" data-name="線 234" d="M32.682.368H0V-.368H32.682Z" transform="translate(261.739 7158.69)" fill="#3e3a39"/>
        <path id="線_235" data-name="線 235" d="M25.023.662,0,.368,0-.368l25.027.294Z" transform="translate(316.062 7150.004)" fill="#3e3a39"/>
        <path id="パス_436" data-name="パス 436" d="M337.409,7091.56l-7.8-4.417,3.975-7.066,7.8,4.563Z" fill="#fff"/>
        <path id="パス_437" data-name="パス 437" d="M337.546,7092.06l-8.44-4.777.18-.32,4.158-7.393,8.441,4.937-.182.316ZM330.107,7087l7.165,4.056,3.611-6.286-7.164-4.19Z" fill="#3e3a39"/>
        <path id="パス_438" data-name="パス 438" d="M341.825,7087.732l-11.188-6.478,1.325-2.208,11.188,6.478Z" fill="#fff"/>
        <path id="パス_439" data-name="パス 439" d="M341.954,7088.232l-.314-.182-11.512-6.665,1.7-2.84.314.182,11.512,6.665Zm-10.81-7.109,10.551,6.109.946-1.577-10.551-6.109Z" fill="#3e3a39"/>
        <path id="パス_440" data-name="パス 440" d="M324.306,7112.611l-6.625-3.828,12.513-21.346,6.478,3.828Z" fill="#fff"/>
        <path id="パス_441" data-name="パス 441" d="M324.441,7113.114l-.318-.184-6.945-4.013.187-.319,12.7-21.665,7.11,4.2-.183.316Zm-6.254-4.463,5.986,3.458,12-20.712-5.845-3.454Z" fill="#3e3a39"/>
        <path id="パス_442" data-name="パス 442" d="M334.6,7089.575l-1.807-1.129,2.7-4.731,1.832.916Zm-.817-1.378.548.342,1.983-3.593-.523-.262Z" fill="#3e3a39"/>
        <path id="パス_443" data-name="パス 443" d="M329.9,7086.407l-1.178-.589,2.5-4.269,1.178.736Z" fill="#fff"/>
        <path id="パス_444" data-name="パス 444" d="M330.039,7086.888l-1.833-.917,2.893-4.935,1.807,1.129Zm-.8-1.223.523.261,2.138-3.521-.549-.343Z" fill="#3e3a39"/>
        <path id="パス_445" data-name="パス 445" d="M338.881,7091.56l-1.178-.589,2.5-4.27,1.031.736Z" fill="#fff"/>
        <path id="パス_446" data-name="パス 446" d="M339.028,7092.044l-1.841-.92,2.905-4.957,1.629,1.164Zm-.808-1.227.514.257,2.018-3.531-.432-.309Z" fill="#3e3a39"/>
        <path id="パス_447" data-name="パス 447" d="M324.306,7112.611l-6.625-3.828-.883.589-.883,1.62,7.361,4.417.883-1.62Z" fill="#fff"/>
        <path id="パス_448" data-name="パス 448" d="M323.415,7115.921l-7.993-4.8,1.1-2.009,1.149-.766.2.114,6.836,3.95-.186,1.489-.033.062Zm-7.008-5.063,6.729,4.038.666-1.222.108-.866-6.215-3.591-.618.412Z" fill="#3e3a39"/>
        <path id="パス_449" data-name="パス 449" d="M317.093,7119.531l-1.767-1.031.736-1.767,2.061,1.325Z" fill="#fff"/>
        <path id="パス_450" data-name="パス 450" d="M317.2,7120.02l-2.337-1.364,1.029-2.47,2.753,1.77Zm-1.41-1.675,1.2.7.617-.881-1.369-.88Z" fill="#3e3a39"/>
        <path id="パス_451" data-name="パス 451" d="M322.54,7114.967l-6.036-3.533-2.355,4.27,6.036,3.386Z" fill="#fff"/>
        <path id="パス_452" data-name="パス 452" d="M316.364,7110.925l.326.191,6.35,3.717-2.717,4.755-6.673-3.743Zm5.676,4.175-5.4-3.159-2,3.619,5.4,3.028Z" fill="#3e3a39"/>
        <path id="線_236" data-name="線 236" d="M5.192,1.971-.108.352l.215-.7,5.3,1.619Z" transform="translate(315.326 7113.642)" fill="#3e3a39"/>
        <path id="線_237" data-name="線 237" d="M5.333,2.117-.114.35l.227-.7L5.561,1.417Z" transform="translate(315.915 7115.409)" fill="#3e3a39"/>
        <path id="パス_453" data-name="パス 453" d="M345.653,7075.807l-6.478-3.828,17.519-27.088,3.975,2.208Z" fill="#fff"/>
        <path id="パス_454" data-name="パス 454" d="M345.8,7076.321l-7.141-4.22,17.914-27.7,4.589,2.55-.166.318Zm-6.107-4.464,5.814,3.436,14.67-28.045-3.36-1.867Z" fill="#3e3a39"/>
        <path id="線_238" data-name="線 238" d="M.318,28.009l-.636-.37L15.876-.185l.636.37Z" transform="translate(342.414 7046.07)" fill="#3e3a39"/>
        <path id="パス_455" data-name="パス 455" d="M342.414,7085.082l-9.716-5.594,4.858-8.392,9.716,5.594Z" fill="#fff"/>
        <path id="パス_456" data-name="パス 456" d="M342.549,7085.584l-10.354-5.961,5.227-9.028,10.354,5.961Zm-9.348-6.231,9.078,5.227,4.489-7.755-9.078-5.227Z" fill="#3e3a39"/>
        <path id="線_239" data-name="線 239" d="M.317,8.431l-.634-.374L4.541-.187l.634.374Z" transform="translate(334.317 7072.127)" fill="#3e3a39"/>
        <path id="線_240" data-name="線 240" d="M.319,8.576l-.637-.369L4.54-.184l.637.369Z" transform="translate(335.936 7073.01)" fill="#3e3a39"/>
        <path id="線_241" data-name="線 241" d="M.319,8.576l-.637-.369L4.54-.184l.637.369Z" transform="translate(337.556 7073.894)" fill="#3e3a39"/>
        <path id="線_242" data-name="線 242" d="M.319,8.576l-.637-.369L4.54-.184l.637.369Z" transform="translate(339.175 7074.924)" fill="#3e3a39"/>
        <path id="線_243" data-name="線 243" d="M.319,8.576l-.637-.369L4.54-.184l.637.369Z" transform="translate(340.795 7075.807)" fill="#3e3a39"/>
        <path id="パス_457" data-name="パス 457" d="M359.786,7044.892l-.736-.441-.883.147-.442.883,1.914,1.03.442-.736Z" fill="#68be8d"/>
        <path id="パス_458" data-name="パス 458" d="M359.122,7044.065l.969.581.391,1.173-.709,1.183-2.538-1.366.685-1.37Zm.357,1.072-.5-.3-.565.094-.2.4,1.29.694.174-.29Z" fill="#3e3a39"/>
        <path id="パス_459" data-name="パス 459" d="M382.6,7109.814c-12.955,7.508-27.088.736-31.946-.589-8.833-2.355-27.088,3.681-27.971-2.5-.294-2.208,4.269-6.036,15.6-8.244,4.711-.884,11.336-4.711,12.366-7.8Z" fill="#f6e8da"/>
        <path id="パス_460" data-name="パス 460" d="M369.186,7113.663q-1.532,0-3.115-.146a55.924,55.924,0,0,1-12.932-3.105c-1.019-.346-1.9-.646-2.578-.831-3.6-.958-8.781-.5-13.8-.06a59.505,59.505,0,0,1-9.539.375,8.254,8.254,0,0,1-3.3-.857,3,3,0,0,1-1.6-2.263c-.182-1.37,1.136-3.005,3.617-4.49a39.489,39.489,0,0,1,12.282-4.167,23.593,23.593,0,0,0,7.442-3.026c2.5-1.533,4.2-3.186,4.646-4.532l.7.232c-1.086,3.261-7.862,7.151-12.647,8.049-6.411,1.249-10.088,2.906-12.043,4.076a9.94,9.94,0,0,0-2.623,2.127,2.292,2.292,0,0,0-.643,1.631c.467,3.272,6.87,2.708,13.649,2.112,5.079-.448,10.33-.911,14.052.083.7.191,1.592.494,2.623.844a55.278,55.278,0,0,0,12.763,3.07,30.119,30.119,0,0,0,8-.277,25.171,25.171,0,0,0,8.276-3.011l.369.637a25.9,25.9,0,0,1-8.517,3.1A29.292,29.292,0,0,1,369.186,7113.663Z" fill="#3e3a39"/>
      </g>
    </g>
    <path id="パス_718" data-name="パス 718" d="M10.08,6.571a1.7,1.7,0,0,0-.158.246q-.095.17-.158.309a13.784,13.784,0,0,1-.63,1.367q-.391.75-.869,1.481A11.156,11.156,0,0,1,7.258,11.3a17.949,17.949,0,0,1-1.525,1.518,18.536,18.536,0,0,1-1.751,1.373,12.4,12.4,0,0,1-1.915,1.09l-.806-.844a11.491,11.491,0,0,0,1.959-1,15.238,15.238,0,0,0,1.764-1.31,15.91,15.91,0,0,0,1.468-1.43,12.409,12.409,0,0,0,.851-1.1,12.032,12.032,0,0,0,.756-1.247,6.4,6.4,0,0,0,.485-1.153H3.629q-.214,0-.485.013l-.491.025q-.221.013-.3.025V6.1q.088.013.321.032t.5.031q.265.013.454.013H8.492a5.551,5.551,0,0,0,.561-.025,1.668,1.668,0,0,0,.384-.076ZM7.421,10.628q.517.428,1.065.945t1.077,1.065q.529.548.983,1.046t.781.9l-.882.756q-.441-.6-1.058-1.3t-1.3-1.4q-.687-.7-1.38-1.292Zm15.246-4.41a.789.789,0,0,0,.239.58.844.844,0,0,0,1.178,0,.779.779,0,0,0,.246-.58.814.814,0,0,0-.246-.6.829.829,0,0,0-1.178,0A.826.826,0,0,0,22.667,6.218Zm-.58,0a1.423,1.423,0,0,1,.7-1.235,1.435,1.435,0,0,1,1.424,0,1.423,1.423,0,0,1,.7,1.235,1.355,1.355,0,0,1-.189.7,1.415,1.415,0,0,1-.51.51,1.435,1.435,0,0,1-1.424,0,1.415,1.415,0,0,1-.51-.51A1.355,1.355,0,0,1,22.088,6.218ZM16.619,5.55q-.025.214-.044.485t-.019.535v6.653a.854.854,0,0,0,.208.661,1.43,1.43,0,0,0,.674.271,7.109,7.109,0,0,0,.75.076q.447.025.913.025.5,0,1.084-.025t1.178-.076q.6-.05,1.128-.126a8.588,8.588,0,0,0,.92-.176V15q-.542.088-1.3.145t-1.562.088q-.8.031-1.493.031-.554,0-1.09-.031t-.926-.094a2.106,2.106,0,0,1-1.121-.5,1.506,1.506,0,0,1-.391-1.14V6.571q0-.164-.006-.34t-.025-.359q-.019-.183-.044-.321ZM16.09,9.519q.567-.126,1.254-.309t1.4-.4q.712-.214,1.386-.454t1.216-.479q.29-.126.567-.265t.542-.3l.441,1.008q-.265.113-.586.246l-.6.246q-.592.239-1.317.491T18.9,9.79q-.769.233-1.493.435t-1.317.34Zm16.2-1.777q.088.189.227.561t.3.787q.157.416.284.788t.189.586l-.932.328q-.05-.214-.17-.58t-.271-.788q-.151-.422-.3-.787l-.239-.58Zm4.561.706q-.063.189-.107.347t-.082.283a12.581,12.581,0,0,1-.68,2.022,8.194,8.194,0,0,1-1.109,1.846A8.766,8.766,0,0,1,32.917,14.8a10.413,10.413,0,0,1-2.148,1.147l-.832-.844a9.639,9.639,0,0,0,1.48-.6,8.5,8.5,0,0,0,1.424-.907,7.318,7.318,0,0,0,1.191-1.172,7.173,7.173,0,0,0,.813-1.247,8.8,8.8,0,0,0,.6-1.474,8.6,8.6,0,0,0,.328-1.588Zm-7.484-.076q.1.214.252.58t.321.8q.17.435.328.832t.246.636l-.958.353q-.076-.239-.221-.649t-.321-.85q-.176-.441-.334-.806t-.246-.529ZM45.058,5.525q.1.227.277.668t.372.951q.2.51.359.97t.239.725l-.983.34q-.076-.265-.233-.724t-.34-.964q-.183-.5-.359-.951a7.332,7.332,0,0,0-.3-.687Zm5.594.806q-.063.164-.12.365t-.107.353a14.028,14.028,0,0,1-.472,1.613,14.228,14.228,0,0,1-.7,1.632,9.542,9.542,0,0,1-.92,1.481,10.6,10.6,0,0,1-1.455,1.556,11.559,11.559,0,0,1-1.7,1.241,9.932,9.932,0,0,1-1.783.844l-.869-.882a9.388,9.388,0,0,0,1.8-.743,10.7,10.7,0,0,0,1.707-1.14,9.163,9.163,0,0,0,1.443-1.468,7.508,7.508,0,0,0,.907-1.48,13.135,13.135,0,0,0,.693-1.8A11.9,11.9,0,0,0,49.493,6Zm-9.11-.05q.126.265.315.712t.4.97q.214.523.4,1t.3.775l-1,.365q-.076-.227-.208-.6t-.3-.794q-.17-.422-.34-.838t-.321-.737q-.151-.321-.239-.485Zm14.288,8.568H62.5v.743H55.831Zm2.394-7.888h.92v1.4h-.92Zm-4.775,1H64.084v2.369h-.92V8.7h-8.82v1.625h-.895ZM55.78,9.481h6.464v2.533H55.78V11.3H61.3V10.212H55.78Zm.038,3.4H63.05V16h-.945V13.627H55.818Zm-.542-3.4h.895v6.539h-.895Zm-.794-4.095h4.07v.769h-4.07Zm4.9,0h5.09v.769h-5.09ZM54.722,4.353l.882.239a9.267,9.267,0,0,1-.863,1.6A8.209,8.209,0,0,1,53.676,7.5l-.233-.164-.29-.2a1.615,1.615,0,0,0-.258-.151A6.819,6.819,0,0,0,53.941,5.8,6.811,6.811,0,0,0,54.722,4.353Zm4.952,0,.907.227a7.115,7.115,0,0,1-.895,1.537,7.061,7.061,0,0,1-1.159,1.222q-.088-.063-.233-.158T57.992,7a2.464,2.464,0,0,0-.284-.139,5.77,5.77,0,0,0,1.153-1.115A5.528,5.528,0,0,0,59.674,4.353Zm-4.5,1.625.819-.214a6.976,6.976,0,0,1,.441.737,5.374,5.374,0,0,1,.315.7l-.869.252a4.162,4.162,0,0,0-.277-.712A6.158,6.158,0,0,0,55.175,5.978Zm5.355.013.819-.252a7.975,7.975,0,0,1,.6.737A4.89,4.89,0,0,1,62.4,7.2l-.857.29a4.689,4.689,0,0,0-.428-.737A9.244,9.244,0,0,0,60.53,5.991Zm10.786-.958q-.076.378-.2.888a7.7,7.7,0,0,1-.384,1.153,10.508,10.508,0,0,1-.561,1.172,8.657,8.657,0,0,1-.712,1.1,2.7,2.7,0,0,1,.542-.258,3.479,3.479,0,0,1,.624-.157,3.808,3.808,0,0,1,.586-.05,1.9,1.9,0,0,1,1.235.41,1.445,1.445,0,0,1,.5,1.191v.611q0,.372.006.781t.019.8q.013.391.013.68h-.97q.013-.252.025-.592t.019-.718q.006-.378,0-.718t-.006-.58a.963.963,0,0,0-.334-.813,1.329,1.329,0,0,0-.838-.258,2.812,2.812,0,0,0-1.165.258,3.613,3.613,0,0,0-1,.662,6.4,6.4,0,0,0-.548.6q-.271.334-.6.712l-.857-.63A17.061,17.061,0,0,0,68.229,9.62a11.9,11.9,0,0,0,.983-1.43A10.036,10.036,0,0,0,69.8,7a8.38,8.38,0,0,0,.328-1.065,5.734,5.734,0,0,0,.151-.989ZM67.007,6.394q.5.063,1.1.1t1.033.038q.844,0,1.814-.044t1.959-.132q.989-.088,1.884-.252l-.013.932q-.655.113-1.4.183t-1.512.113q-.769.044-1.48.063t-1.317.019q-.265,0-.611-.006t-.725-.025q-.378-.019-.731-.044Zm9.626,3.049a3.308,3.308,0,0,0-.359.107q-.2.069-.391.145t-.372.151q-.655.252-1.525.617t-1.777.844a7.972,7.972,0,0,0-1.109.661,3.467,3.467,0,0,0-.756.718,1.33,1.33,0,0,0-.277.813.962.962,0,0,0,.17.592,1.056,1.056,0,0,0,.485.346,2.751,2.751,0,0,0,.725.158q.41.038.9.038.731,0,1.67-.082t1.77-.22l-.025,1.008q-.479.063-1.077.113t-1.21.082q-.611.032-1.166.032A7.533,7.533,0,0,1,70.68,15.4a2.452,2.452,0,0,1-1.178-.58,1.549,1.549,0,0,1-.441-1.184,2.091,2.091,0,0,1,.265-1.04,3.264,3.264,0,0,1,.712-.863,7.41,7.41,0,0,1,.989-.724q.542-.334,1.109-.611.6-.328,1.14-.567t1.014-.441q.479-.2.895-.4l.529-.239q.252-.113.5-.252Zm5.078-3.4a2.153,2.153,0,0,0-.088.277q-.038.151-.076.315-.063.3-.139.781t-.126,1.014q-.05.535-.082,1.039a6.942,6.942,0,0,0-.006.882,5.629,5.629,0,0,1,.838-1.481,5.873,5.873,0,0,1,1.2-1.147A5.455,5.455,0,0,1,84.7,6.98a5.1,5.1,0,0,1,1.613-.258,4.205,4.205,0,0,1,2.016.447A3.2,3.2,0,0,1,89.6,8.379a3.287,3.287,0,0,1,.447,1.695,3.974,3.974,0,0,1-.428,1.858,3.163,3.163,0,0,1-1.285,1.31,4.327,4.327,0,0,1-2.155.485,3.843,3.843,0,0,1-1.4-.258,3.786,3.786,0,0,1-1.2-.75,4.082,4.082,0,0,1-.888-1.2l.6-.706A4.7,4.7,0,0,0,84,11.869a2.692,2.692,0,0,0,.945.68,3.1,3.1,0,0,0,1.235.233,3.454,3.454,0,0,0,1.537-.321,2.369,2.369,0,0,0,1.014-.92,2.729,2.729,0,0,0,.359-1.43,2.628,2.628,0,0,0-.309-1.266,2.288,2.288,0,0,0-.932-.92,3.229,3.229,0,0,0-1.581-.346,4.394,4.394,0,0,0-1.8.359,4.832,4.832,0,0,0-1.424.951,5.6,5.6,0,0,0-1,1.292,5.91,5.91,0,0,0-.567,1.367q-.038.176-.063.378a2.158,2.158,0,0,0-.013.4,2.648,2.648,0,0,0,.032.359l.063.441q.032.22.069.384l-.882.139a11.388,11.388,0,0,1-.284-1.481,13.336,13.336,0,0,1-.12-1.783q0-.529.038-1.1t.095-1.1q.057-.536.107-.97t.088-.687q.013-.164.019-.309a1.9,1.9,0,0,0-.006-.271Zm4.347-1.033q.088.441.189,1.172t.17,1.619q.069.888.069,1.821a14.3,14.3,0,0,1-.12,1.884,8.54,8.54,0,0,1-.4,1.695,5.423,5.423,0,0,1-.769,1.455,4.773,4.773,0,0,1-1.247,1.153l-.932-.567a3.963,3.963,0,0,0,1.229-.976,4.885,4.885,0,0,0,.775-1.31,6.767,6.767,0,0,0,.41-1.569,12.562,12.562,0,0,0,.12-1.764q0-.819-.057-1.556t-.132-1.329q-.076-.592-.151-.92-.038-.214-.094-.422t-.107-.359Zm7.686,4.964q.29-.063.586-.145t.6-.17q.328-.1.857-.277t1.147-.34q.617-.164,1.254-.29a6.148,6.148,0,0,1,1.191-.126,3.558,3.558,0,0,1,1.588.34,2.642,2.642,0,0,1,1.09.964,2.723,2.723,0,0,1,.4,1.493,3.016,3.016,0,0,1-.416,1.594,3.553,3.553,0,0,1-1.178,1.165,6.514,6.514,0,0,1-1.814.756,11.9,11.9,0,0,1-2.325.353l-.4-.97a13.394,13.394,0,0,0,1.94-.208,6.635,6.635,0,0,0,1.638-.51,2.948,2.948,0,0,0,1.128-.888,2.138,2.138,0,0,0,.41-1.317,1.745,1.745,0,0,0-.265-.958,1.88,1.88,0,0,0-.737-.661A2.416,2.416,0,0,0,99.3,9.532a5.22,5.22,0,0,0-1.046.12q-.58.12-1.2.309t-1.184.4q-.567.208-1.008.378t-.693.271ZM113.7,5.7q-.2.151-.454.372t-.416.347q-.328.29-.794.674t-.983.806q-.517.422-1,.806t-.832.687a2.6,2.6,0,0,0-.5.535.377.377,0,0,0,.006.422,2.9,2.9,0,0,0,.535.567q.353.277.806.649t.964.8q.51.428,1.04.882t1.021.895q.491.441.882.844l-.895.832q-.391-.454-.869-.92-.328-.34-.819-.794t-1.052-.945q-.561-.491-1.109-.951t-.989-.825a2.667,2.667,0,0,1-.769-.888.8.8,0,0,1,.063-.762,3.548,3.548,0,0,1,.794-.844q.353-.3.851-.706t1.039-.85q.542-.447,1.027-.869t.8-.75q.189-.189.4-.428a3.772,3.772,0,0,0,.321-.416Zm8.505-.643q-.1.353-.2.813t-.176.958q-.082.5-.139.951t-.082.781a6.3,6.3,0,0,1,.529-.983,4.941,4.941,0,0,1,.781-.926,4.139,4.139,0,0,1,.989-.687,2.513,2.513,0,0,1,1.128-.265,2.3,2.3,0,0,1,1.493.529,3.45,3.45,0,0,1,1.014,1.5,6.5,6.5,0,0,1,.365,2.293,6.036,6.036,0,0,1-.391,2.274,4.581,4.581,0,0,1-1.1,1.632,5.625,5.625,0,0,1-1.682,1.084,9.64,9.64,0,0,1-2.148.617l-.592-.907a10.488,10.488,0,0,0,1.909-.46,5.181,5.181,0,0,0,1.556-.844,3.605,3.605,0,0,0,1.04-1.367,4.924,4.924,0,0,0,.372-2.016,6.31,6.31,0,0,0-.227-1.77,2.792,2.792,0,0,0-.668-1.216,1.5,1.5,0,0,0-1.109-.441,1.953,1.953,0,0,0-1.134.378,4.349,4.349,0,0,0-.989.977,5.707,5.707,0,0,0-.725,1.285,4.8,4.8,0,0,0-.34,1.3,4.644,4.644,0,0,0-.044.718,7.523,7.523,0,0,0,.069.832l-.97.076q-.05-.353-.094-.869t-.044-1.134q0-.441.044-.989t.1-1.109q.057-.561.126-1.077L121,6.1q.038-.29.063-.561t.038-.523ZM141.3,7.478q-.214.139-.454.265t-.517.265q-.315.176-.781.4t-1,.5q-.529.277-1.058.58t-1,.6a5.583,5.583,0,0,0-1.38,1.2,2.136,2.136,0,0,0-.5,1.348,1.4,1.4,0,0,0,.75,1.241,4.347,4.347,0,0,0,2.237.46q.693,0,1.436-.057t1.43-.158q.687-.1,1.165-.214v1.121q-.466.088-1.1.158t-1.367.113q-.731.044-1.512.044a8.58,8.58,0,0,1-1.638-.145,4.407,4.407,0,0,1-1.292-.447,2.233,2.233,0,0,1-.85-.8,2.275,2.275,0,0,1-.3-1.2,2.845,2.845,0,0,1,.29-1.279,4.125,4.125,0,0,1,.832-1.115,8.7,8.7,0,0,1,1.285-1.021q.479-.328,1.027-.636t1.077-.6q.529-.29.989-.529l.775-.4.479-.3a3.955,3.955,0,0,0,.416-.3ZM134.921,5.2q.29.806.624,1.575t.68,1.436q.347.668.636,1.184l-.869.517q-.315-.517-.668-1.222t-.706-1.5q-.353-.794-.693-1.575Zm14.314-.013h6.628V12.3h-.945V6.067h-4.763v6.275h-.92Zm.554,2.772h5.506v.869h-5.506Zm0,2.81h5.506v.882h-5.506Zm2.281-5.254h.895V16h-.895Zm-7.447,5.569q.781-.189,1.833-.479t2.136-.6l.126.857q-1,.315-2,.611L144.9,12Zm.164-4.12h3.856v.895h-3.856Zm1.55-2.545h.92V14.849a1.418,1.418,0,0,1-.1.592.628.628,0,0,1-.34.315,1.736,1.736,0,0,1-.624.139q-.384.025-.977.025a2.766,2.766,0,0,0-.107-.416,3.133,3.133,0,0,0-.17-.428q.4.013.737.006t.447-.006a.222.222,0,0,0,.17-.05.271.271,0,0,0,.044-.176ZM4.284,22.285q-.05.315-.076.636t-.038.636q-.025.529-.05,1.31t-.05,1.657q-.025.876-.038,1.745t-.013,1.562a2.044,2.044,0,0,0,.265,1.109,1.453,1.453,0,0,0,.731.592,3.014,3.014,0,0,0,1.071.176,5.1,5.1,0,0,0,1.55-.22A4.671,4.671,0,0,0,8.87,30.9a5.461,5.461,0,0,0,.964-.838A9.4,9.4,0,0,0,10.6,29.1l.718.857a8.458,8.458,0,0,1-.8.939,6.4,6.4,0,0,1-1.115.9,6.083,6.083,0,0,1-1.48.68,6.2,6.2,0,0,1-1.871.265,4.249,4.249,0,0,1-1.588-.277,2.227,2.227,0,0,1-1.084-.895,3.031,3.031,0,0,1-.391-1.638q0-.567.013-1.254t.038-1.417q.025-.731.038-1.43T3.1,24.54q.013-.592.013-.983,0-.353-.025-.68a5.938,5.938,0,0,0-.076-.6ZM13.8,23.734q.365-.013.655-.031l.466-.032q.3-.038.876-.094t1.317-.126q.743-.069,1.6-.145l1.726-.151q.693-.063,1.31-.107t1.147-.076q.529-.031.945-.044v1.008q-.353-.013-.806,0t-.895.057a3.98,3.98,0,0,0-.769.145,3.67,3.67,0,0,0-1.2.649,4.634,4.634,0,0,0-1.487,2.167,3.828,3.828,0,0,0-.2,1.166,3.067,3.067,0,0,0,.252,1.292,2.71,2.71,0,0,0,.687.926,3.746,3.746,0,0,0,1,.617,5.538,5.538,0,0,0,1.178.353,8.818,8.818,0,0,0,1.235.139l-.365,1.046a7.155,7.155,0,0,1-1.4-.2,6.283,6.283,0,0,1-1.354-.491,4.538,4.538,0,0,1-1.147-.813,3.549,3.549,0,0,1-1.084-2.646,4.718,4.718,0,0,1,.347-1.821,5.389,5.389,0,0,1,.888-1.468,4.525,4.525,0,0,1,1.121-.97q-.4.05-1,.113t-1.279.132q-.687.069-1.367.158t-1.279.17q-.6.082-1,.17ZM30.58,25.258v1.562H32.6V25.258Zm0,2.356v1.575H32.6V27.614Zm0-4.7v1.55H32.6v-1.55Zm-.806-.832H33.44v7.938H29.774ZM32,30.638l.706-.391q.265.29.548.643t.523.693a5.569,5.569,0,0,1,.378.6l-.756.479a4.384,4.384,0,0,0-.365-.63q-.239-.353-.51-.718T32,30.638Zm-1.714-.353.882.239a8.849,8.849,0,0,1-.819,1.436,7.28,7.28,0,0,1-1.008,1.184,1.666,1.666,0,0,0-.22-.176l-.284-.2q-.139-.094-.239-.157a6.553,6.553,0,0,0,.958-1.058A6.287,6.287,0,0,0,30.29,30.286Zm6.3-8.77h.869V31.924a1.5,1.5,0,0,1-.113.661.724.724,0,0,1-.391.334,2.421,2.421,0,0,1-.737.151q-.472.038-1.254.038a2.972,2.972,0,0,0-.107-.441,3.086,3.086,0,0,0-.183-.466q.567.013,1.021.013h.6a.4.4,0,0,0,.221-.069.277.277,0,0,0,.069-.221Zm-2.192,1.3h.832v7.22H34.4Zm-7.547-.491.542-.668a6.133,6.133,0,0,1,.743.372q.378.221.718.454a3.924,3.924,0,0,1,.554.447l-.567.756a3.978,3.978,0,0,0-.535-.46q-.334-.246-.718-.485T26.851,22.322Zm-.542,3.4.517-.693a7.61,7.61,0,0,1,.781.34q.4.2.75.416a3.532,3.532,0,0,1,.561.416l-.542.769a4.107,4.107,0,0,0-.561-.428q-.347-.227-.743-.441T26.309,25.724Zm.252,6.716q.265-.491.573-1.159t.617-1.417q.309-.75.561-1.443l.756.491q-.227.655-.51,1.367t-.573,1.4q-.29.687-.567,1.266Zm15.032-7.069h7.358v.907H41.593Zm3.629,3.011h4.246v.882H45.221Zm-.491-2.558h.983v6.388l-.983-.139Zm-3,1.525.983.113a12.982,12.982,0,0,1-.882,3.339,6.542,6.542,0,0,1-1.676,2.369,1.842,1.842,0,0,0-.22-.208q-.145-.12-.3-.239t-.265-.2a5.275,5.275,0,0,0,1.606-2.142A10.8,10.8,0,0,0,41.731,27.35Zm.6,1.625a4.454,4.454,0,0,0,.857,1.562,3.657,3.657,0,0,0,1.222.907,5.444,5.444,0,0,0,1.531.428,13.51,13.51,0,0,0,1.808.113h2.734q.34,0,.517-.013-.063.113-.139.29t-.132.353a2.516,2.516,0,0,0-.082.315H47.7a13.8,13.8,0,0,1-2.073-.145,5.572,5.572,0,0,1-1.714-.535,4.284,4.284,0,0,1-1.354-1.109,6.082,6.082,0,0,1-1-1.865Zm2.381-7.459h1v2.041h-1Zm-4.75,1.449H50.5v2.747h-.97v-1.84H40.9v1.84h-.932Zm18.472-.781q-.025.214-.044.51t-.032.523a19.944,19.944,0,0,1-.34,3.37,10.907,10.907,0,0,1-.8,2.52,7.778,7.778,0,0,1-1.235,1.884,9.343,9.343,0,0,1-1.657,1.449l-.92-.743a6.328,6.328,0,0,0,.655-.416,6.9,6.9,0,0,0,.643-.517,6.663,6.663,0,0,0,1.065-1.222,7.823,7.823,0,0,0,.819-1.588,10.544,10.544,0,0,0,.542-2.06,17.131,17.131,0,0,0,.208-2.665q0-.139-.013-.328t-.032-.378q-.019-.189-.044-.34ZM62.811,24.8q-.025.164-.044.328a2.562,2.562,0,0,0-.019.29q-.013.353-.044.97t-.088,1.342q-.057.724-.139,1.455t-.208,1.342a4.841,4.841,0,0,1-.29.977,1.309,1.309,0,0,1-.51.58,1.639,1.639,0,0,1-.838.189q-.479,0-1.008-.031T58.6,32.188l-.126-1.046q.517.063,1,.1t.876.038a1.014,1.014,0,0,0,.454-.088.609.609,0,0,0,.277-.328,3.048,3.048,0,0,0,.252-.794q.1-.5.176-1.134t.126-1.273q.05-.643.069-1.222t.019-.983h-6.64q-.378,0-.743.006t-.706.044V24.439q.328.038.706.057t.731.019H61.3q.252,0,.447-.019t.359-.044Zm3.616,1.84.466.031q.277.019.611.025t.674.006h6.9q.479,0,.819-.025l.542-.038v1.235l-.561-.038q-.372-.025-.787-.025H68.179q-.517,0-.983.019t-.769.044Zm20.084-3.616q.164.227.378.561t.422.687a7.272,7.272,0,0,1,.346.655l-.718.328q-.151-.328-.334-.661t-.378-.655a6.5,6.5,0,0,0-.41-.6Zm1.525-.63q.164.214.384.542t.435.68q.214.353.365.643l-.706.353q-.164-.328-.353-.655t-.4-.643q-.208-.315-.422-.592Zm-5.947,8.757V23.822q0-.265-.019-.643a4.143,4.143,0,0,0-.082-.668h1.247q-.038.29-.063.661t-.025.649v7.333q0,.189.006.466t.032.548q.025.271.038.472h-1.21q.038-.3.057-.718T82.089,31.155Zm.832-5.342q.617.189,1.373.447t1.531.548q.775.29,1.474.586t1.229.561l-.441,1.071q-.542-.29-1.216-.592t-1.392-.592q-.718-.29-1.38-.517t-1.178-.391Zm15.536-2.318q-.126.983-.321,2.054a19.244,19.244,0,0,1-.5,2.079,11.647,11.647,0,0,1-.838,2.167,4.3,4.3,0,0,1-.989,1.31,1.619,1.619,0,0,1-2.18.038,2.882,2.882,0,0,1-.844-1.166,4.523,4.523,0,0,1-.328-1.8,4.627,4.627,0,0,1,.422-1.953A5.257,5.257,0,0,1,94.053,24.6a5.658,5.658,0,0,1,1.758-1.128,5.594,5.594,0,0,1,2.155-.416,5.207,5.207,0,0,1,2,.365,4.536,4.536,0,0,1,1.518,1,4.457,4.457,0,0,1,.97,1.474,5.03,5.03,0,0,1-.221,4.126,4.369,4.369,0,0,1-1.613,1.638,6.645,6.645,0,0,1-2.552.832l-.592-.932q.3-.038.58-.076t.5-.088a4.989,4.989,0,0,0,1.178-.435,4.033,4.033,0,0,0,1.027-.756,3.488,3.488,0,0,0,.725-1.1,3.686,3.686,0,0,0,.271-1.455,3.984,3.984,0,0,0-.252-1.43,3.371,3.371,0,0,0-.743-1.166,3.51,3.51,0,0,0-1.2-.794,4.216,4.216,0,0,0-1.613-.29,4.525,4.525,0,0,0-4.2,2.7,3.54,3.54,0,0,0-.315,1.418,3.49,3.49,0,0,0,.208,1.3,1.83,1.83,0,0,0,.5.75.936.936,0,0,0,.586.239.92.92,0,0,0,.617-.3A3.405,3.405,0,0,0,96,29.133a11.09,11.09,0,0,0,.643-1.72,18.494,18.494,0,0,0,.473-1.928q.2-1.021.283-2Zm11.592,3.49H114.6v.693h-4.549Zm-1.638-4.3H116.4v.819H108.41Zm3.4-1.159h.932v1.6h-.932Zm.1,4.284h.756v3.251h-.756Zm-3.314-.731h6.955v.794h-6.073v7.207H108.6Zm6.615,0h.895v6.993a1.369,1.369,0,0,1-.094.567.66.66,0,0,1-.347.315,2.542,2.542,0,0,1-.668.113q-.416.025-1.046.025-.038-.164-.113-.4a2.352,2.352,0,0,0-.164-.4q.441.013.819.013t.5-.013a.189.189,0,0,0,.214-.214Zm-4.234,3.7h3.226V31.47h-3.226V30.8h2.47V29.467h-2.47Zm-.491,0h.743V31.9h-.743Zm-.68-5.191.832-.239a5.8,5.8,0,0,1,.435.838,5.872,5.872,0,0,1,.284.8l-.882.29a5.417,5.417,0,0,0-.265-.832A6.818,6.818,0,0,0,109.809,23.595Zm4.07-.214.97.214q-.214.441-.428.876a5.45,5.45,0,0,1-.428.737l-.819-.2q.113-.227.252-.517t.258-.586Q113.8,23.608,113.879,23.381Zm-8.354-1.071.542-.68q.391.176.813.4t.787.473a4.648,4.648,0,0,1,.592.46l-.554.769a4.593,4.593,0,0,0-.592-.485q-.365-.258-.775-.51A6.605,6.605,0,0,0,105.525,22.31Zm-.592,3.415.517-.693a6.681,6.681,0,0,1,.819.359q.428.221.8.447a4.21,4.21,0,0,1,.611.441l-.554.769a5.61,5.61,0,0,0-.6-.46q-.365-.246-.781-.472A8.78,8.78,0,0,0,104.933,25.724Zm.328,6.678q.3-.5.662-1.191t.724-1.449q.365-.762.68-1.481l.743.529q-.277.668-.617,1.4t-.687,1.436q-.347.706-.674,1.3Zm12.991-9.954h11.227v.945H118.251Zm4.864.743h1v9.9h-1Zm.542,2.986.63-.718q.567.265,1.2.6t1.247.7q.617.359,1.153.7t.914.63l-.668.857q-.365-.29-.888-.649t-1.134-.731q-.611-.372-1.241-.731T123.656,26.178Zm14.566-3.919H142v.895h-2.86v9.954h-.92Zm-6.716.655h6.023v.844h-6.023Zm-.315,3.49h6.514v.857h-6.514Zm2.848-4.838h.92v1.852h-.92ZM132.3,24.187l.794-.164a8.52,8.52,0,0,1,.365,1.039,6.671,6.671,0,0,1,.214.976l-.844.214a6.116,6.116,0,0,0-.189-1A10.252,10.252,0,0,0,132.3,24.187Zm3.6-.252.907.214q-.2.554-.422,1.14t-.422,1l-.769-.214q.126-.29.258-.668t.252-.769Q135.828,24.25,135.9,23.935Zm-3.541,7.6h4.145v.844h-4.145Zm-.328-3.163H137v4.687h-.92V29.2h-3.163v3.919h-.882Zm9.727-6.111h.176l.164-.038.68.441q-.378.895-.844,1.915t-.907,1.89a5.852,5.852,0,0,1,.983,1.128,3.984,3.984,0,0,1,.479,1.014,3.346,3.346,0,0,1,.139.932,3.018,3.018,0,0,1-.151,1.014,1.292,1.292,0,0,1-.479.649,1.927,1.927,0,0,1-.819.277q-.252.025-.535.025t-.573-.013a2.8,2.8,0,0,0-.076-.466,1.55,1.55,0,0,0-.189-.466q.29.025.542.032t.441-.006a2.09,2.09,0,0,0,.3-.044.949.949,0,0,0,.252-.094.674.674,0,0,0,.284-.391,2.094,2.094,0,0,0,.082-.617,3.221,3.221,0,0,0-.353-1.3,5.064,5.064,0,0,0-1.31-1.544q.252-.479.491-1.027t.466-1.1q.227-.548.416-1.04t.34-.869Zm7.749,1.336q.517.076,1.2.12t1.424.038q.737-.006,1.411-.05t1.14-.12V24.6q-.5.05-1.178.082t-1.4.031q-.725,0-1.4-.031t-1.2-.082ZM150,28.723q-.088.34-.139.617a3.026,3.026,0,0,0-.05.542,1.011,1.011,0,0,0,.094.422.894.894,0,0,0,.328.365,1.935,1.935,0,0,0,.649.252,4.9,4.9,0,0,0,1.058.095,15,15,0,0,0,1.613-.082,14.523,14.523,0,0,0,1.512-.246l.025,1.058a11.585,11.585,0,0,1-1.38.2q-.788.069-1.77.069a4.2,4.2,0,0,1-2.325-.5,1.591,1.591,0,0,1-.737-1.386,4.335,4.335,0,0,1,.057-.674q.057-.359.158-.813Zm-2.9-6.1q-.025.1-.069.258l-.088.315q-.044.158-.069.271-.063.353-.151.813t-.17.983q-.082.523-.151,1.058t-.113,1.039q-.044.5-.044.932,0,.466.032.882t.082.882q.113-.29.239-.617t.258-.649q.132-.321.233-.573l.529.4q-.164.454-.353,1t-.334,1.04q-.145.5-.208.787-.025.139-.05.3a1,1,0,0,0-.013.265q.013.1.019.221t.019.22l-.907.063a12.5,12.5,0,0,1-.328-1.72,17.882,17.882,0,0,1-.139-2.325q0-.693.063-1.417t.164-1.411q.1-.687.2-1.26t.145-.964q.038-.227.063-.46a4.06,4.06,0,0,0,.025-.435ZM.554,49.2v-.68A28.575,28.575,0,0,0,2.942,46.2a9.206,9.206,0,0,0,1.392-1.947,3.786,3.786,0,0,0,.454-1.695,2.327,2.327,0,0,0-.183-.945,1.409,1.409,0,0,0-.561-.649,1.8,1.8,0,0,0-.958-.233,1.952,1.952,0,0,0-1.052.3,3.474,3.474,0,0,0-.863.769L.5,41.149a4.811,4.811,0,0,1,1.2-.983A3.034,3.034,0,0,1,3.226,39.8a2.892,2.892,0,0,1,1.43.334,2.348,2.348,0,0,1,.932.945,2.937,2.937,0,0,1,.334,1.43,4.237,4.237,0,0,1-.46,1.865A9.609,9.609,0,0,1,4.19,46.3a22.818,22.818,0,0,1-1.9,2q.365-.025.762-.057t.75-.031H6.363v1Zm12.537-5.116H17.64v.693H13.091Zm-1.638-4.3h7.988v.819H11.453Zm3.4-1.159h.932v1.6h-.932Zm.1,4.284h.756v3.251h-.756Zm-3.314-.731H18.6v.794H12.524v7.207h-.882Zm6.615,0h.895v6.993a1.368,1.368,0,0,1-.094.567.66.66,0,0,1-.347.315,2.542,2.542,0,0,1-.668.113Q17.627,50.2,17,50.2q-.038-.164-.113-.4a2.352,2.352,0,0,0-.164-.4q.441.013.819.013t.5-.013a.189.189,0,0,0,.214-.214Zm-4.234,3.7h3.226V48.57H14.024V47.9h2.47V46.567h-2.47Zm-.491,0h.743V49h-.743Zm-.68-5.191.832-.239a5.8,5.8,0,0,1,.435.838,5.871,5.871,0,0,1,.283.8l-.882.29a5.417,5.417,0,0,0-.265-.832A6.818,6.818,0,0,0,12.852,40.695Zm4.07-.214.97.214q-.214.441-.428.876a5.45,5.45,0,0,1-.428.737l-.819-.2q.113-.227.252-.517T16.727,41Q16.846,40.708,16.922,40.481ZM8.568,39.41l.542-.68q.391.176.813.4t.787.472a4.648,4.648,0,0,1,.592.46l-.554.769a4.593,4.593,0,0,0-.592-.485q-.365-.258-.775-.51A6.6,6.6,0,0,0,8.568,39.41Zm-.592,3.415.517-.693a6.681,6.681,0,0,1,.819.359q.428.22.8.447a4.21,4.21,0,0,1,.611.441l-.554.769a5.61,5.61,0,0,0-.6-.46q-.365-.246-.781-.472A8.78,8.78,0,0,0,7.976,42.824ZM8.3,49.5q.3-.5.661-1.191t.724-1.449q.365-.762.68-1.48l.743.529q-.277.668-.617,1.4t-.687,1.436q-.346.706-.674,1.3ZM28.136,39.359q0,.063-.019.227t-.025.328a2.11,2.11,0,0,1-.019.239q-.013.239-.013.655v.907q0,.491.006,1t.013.951q.006.447.006.75l-.958-.491v-.535q0-.359-.006-.825t-.013-.939q-.006-.472-.013-.863t-.019-.6q-.013-.252-.038-.485a1.812,1.812,0,0,0-.05-.309Zm-6.691,1.751q.517,0,1.178-.019l1.4-.038,1.493-.038q.756-.019,1.455-.032t1.279-.013q.58,0,1.14.006t1.058.006h1.493l-.013.945q-.529-.025-1.418-.044t-2.274-.019q-.806,0-1.695.013t-1.783.044q-.895.031-1.733.076t-1.544.095Zm6.615,3.667a3.509,3.509,0,0,1-.246,1.4A1.74,1.74,0,0,1,26.132,47.3a2.294,2.294,0,0,1-.775-.132,1.949,1.949,0,0,1-.668-.4,1.912,1.912,0,0,1-.466-.668,2.267,2.267,0,0,1-.17-.9,2.1,2.1,0,0,1,.3-1.121A2.253,2.253,0,0,1,26.284,43a2.126,2.126,0,0,1,1.222.334,2.042,2.042,0,0,1,.737.907,3.282,3.282,0,0,1,.246,1.3,4.931,4.931,0,0,1-.176,1.285,3.952,3.952,0,0,1-.6,1.26,4.538,4.538,0,0,1-1.153,1.1,6.489,6.489,0,0,1-1.821.825l-.844-.832a7.115,7.115,0,0,0,1.531-.51,4.327,4.327,0,0,0,1.147-.775,2.963,2.963,0,0,0,.712-1.058,3.745,3.745,0,0,0,.239-1.386,1.756,1.756,0,0,0-.359-1.235,1.176,1.176,0,0,0-.888-.378,1.235,1.235,0,0,0-.617.164,1.3,1.3,0,0,0-.472.46,1.329,1.329,0,0,0-.183.712,1.143,1.143,0,0,0,.384.92,1.345,1.345,0,0,0,.9.328,1.065,1.065,0,0,0,.674-.221,1.179,1.179,0,0,0,.4-.668,3.01,3.01,0,0,0,.025-1.115Zm1.814-5.67q.227.315.491.743t.454.781l-.718.315q-.189-.378-.435-.8a8.645,8.645,0,0,0-.485-.75Zm1.537-.328q.214.315.479.731t.466.781l-.718.315q-.2-.391-.447-.8a8.018,8.018,0,0,0-.485-.724Zm3.213,3.843q.34-.063.687-.157t.7-.208q.4-.126,1.033-.334t1.373-.416q.743-.208,1.518-.353a7.938,7.938,0,0,1,1.455-.145,4.479,4.479,0,0,1,1.9.391,3.234,3.234,0,0,1,1.348,1.134,3.135,3.135,0,0,1,.5,1.8,3.694,3.694,0,0,1-.347,1.625,3.973,3.973,0,0,1-.97,1.266,5.6,5.6,0,0,1-1.48.92,9.941,9.941,0,0,1-1.9.592,14.342,14.342,0,0,1-2.2.284L37.8,47.978a13.7,13.7,0,0,0,2.369-.246,8.078,8.078,0,0,0,2-.649,3.671,3.671,0,0,0,1.38-1.115,2.723,2.723,0,0,0,.5-1.657,2.3,2.3,0,0,0-.315-1.191,2.24,2.24,0,0,0-.914-.851,3.092,3.092,0,0,0-1.455-.315,6.968,6.968,0,0,0-1.348.145q-.731.145-1.474.365t-1.418.472q-.674.252-1.2.466t-.832.328ZM52.4,44.084h4.549v.693H52.4Zm-1.638-4.3h7.988v.819H50.765Zm3.4-1.159H55.1v1.6h-.932Zm.1,4.284h.756v3.251h-.756Zm-3.314-.731H57.91v.794H51.836v7.207h-.882Zm6.615,0h.895v6.993a1.368,1.368,0,0,1-.095.567.66.66,0,0,1-.347.315,2.542,2.542,0,0,1-.668.113q-.416.025-1.046.025-.038-.164-.113-.4a2.352,2.352,0,0,0-.164-.4q.441.013.819.013t.5-.013a.189.189,0,0,0,.214-.214Zm-4.234,3.7h3.226V48.57H53.336V47.9h2.47V46.567h-2.47Zm-.491,0h.743V49h-.743Zm-.68-5.191L53,40.456a5.8,5.8,0,0,1,.435.838,5.871,5.871,0,0,1,.284.8l-.882.29a5.417,5.417,0,0,0-.265-.832A6.819,6.819,0,0,0,52.164,40.695Zm4.07-.214.97.214q-.214.441-.428.876a5.451,5.451,0,0,1-.428.737l-.819-.2q.113-.227.252-.517T56.039,41Q56.158,40.708,56.234,40.481ZM47.88,39.41l.542-.68q.391.176.813.4t.788.472a4.648,4.648,0,0,1,.592.46l-.554.769a4.594,4.594,0,0,0-.592-.485q-.365-.258-.775-.51A6.6,6.6,0,0,0,47.88,39.41Zm-.592,3.415.517-.693a6.681,6.681,0,0,1,.819.359q.428.22.8.447a4.21,4.21,0,0,1,.611.441l-.554.769a5.61,5.61,0,0,0-.6-.46q-.365-.246-.781-.472A8.78,8.78,0,0,0,47.288,42.824Zm.328,6.678q.3-.5.661-1.191T49,46.863q.365-.762.68-1.48l.743.529q-.277.668-.617,1.4t-.687,1.436q-.346.706-.674,1.3Zm12.991-9.954H71.833v.945H60.606Zm4.864.743h1v9.9h-1Zm.542,2.986.63-.718q.567.265,1.2.6t1.247.7q.617.359,1.153.7t.914.63l-.668.857q-.365-.29-.888-.649t-1.134-.731q-.611-.372-1.241-.731T66.011,43.278ZM77.3,39.385q-.05.315-.076.636t-.038.636q-.025.529-.05,1.31t-.05,1.657q-.025.876-.038,1.745t-.013,1.562a2.044,2.044,0,0,0,.265,1.109,1.453,1.453,0,0,0,.731.592,3.014,3.014,0,0,0,1.071.176,5.1,5.1,0,0,0,1.55-.221A4.671,4.671,0,0,0,81.887,48a5.461,5.461,0,0,0,.964-.838,9.4,9.4,0,0,0,.762-.958l.718.857a8.459,8.459,0,0,1-.8.939,6.4,6.4,0,0,1-1.115.9,6.083,6.083,0,0,1-1.48.68,6.2,6.2,0,0,1-1.871.265,4.249,4.249,0,0,1-1.588-.277,2.227,2.227,0,0,1-1.084-.895A3.031,3.031,0,0,1,76,47.033q0-.567.013-1.254t.038-1.418q.025-.731.038-1.43t.025-1.292q.013-.592.013-.983,0-.353-.025-.68a5.938,5.938,0,0,0-.076-.6Zm16.04-.189q-.025.164-.044.365t-.031.479q0,.189-.006.567t-.006.851v1.833q0,.63.025,1.323t.063,1.348q.038.655.063,1.2t.025.857a1.818,1.818,0,0,1-.208.844,1.582,1.582,0,0,1-.693.661,2.82,2.82,0,0,1-1.317.258,3.789,3.789,0,0,1-2.079-.472,1.667,1.667,0,0,1-.372-2.388,2.282,2.282,0,0,1,1-.674A4.453,4.453,0,0,1,91.325,46a7.25,7.25,0,0,1,1.871.233,9.033,9.033,0,0,1,1.606.586,10.281,10.281,0,0,1,1.3.737q.567.384.932.687l-.58.895a9.848,9.848,0,0,0-2.211-1.55,7.307,7.307,0,0,0-1.424-.548,6.13,6.13,0,0,0-1.619-.208,2.576,2.576,0,0,0-1.38.3.875.875,0,0,0-.472.743.827.827,0,0,0,.176.51,1.184,1.184,0,0,0,.567.372A3.067,3.067,0,0,0,91.1,48.9a2.231,2.231,0,0,0,.668-.095.949.949,0,0,0,.485-.334,1.079,1.079,0,0,0,.183-.668q0-.365-.019-.951T92.371,45.6q-.025-.661-.044-1.279t-.019-1.033V41.527q0-.441.006-.844t.006-.731q0-.151-.013-.391a2.727,2.727,0,0,0-.038-.365Zm-4.826,1.373q.315.05.731.1t.876.095q.46.044.882.063t.737.019q1.2,0,2.451-.088t2.476-.29l-.013.92q-.693.076-1.512.151t-1.682.126q-.863.05-1.707.05-.441,0-1.046-.038t-1.191-.088q-.586-.05-.989-.088Zm-.063,2.671q.34.05.756.1t.857.076q.441.025.844.044t.718.019q.92,0,1.783-.044t1.7-.126q.838-.082,1.657-.208l-.013.945q-.63.088-1.254.145t-1.247.094q-.624.038-1.273.057t-1.367.019q-.428,0-.989-.025t-1.134-.063q-.573-.038-1.027-.088Zm18.673-4.019q0,.063-.019.227t-.025.321q-.006.157-.019.246-.013.239-.013.655v.907q0,.491.006,1t.013.945q.006.441.006.743l-.97-.479V42.415q0-.472-.006-.939t-.019-.857q-.013-.391-.025-.6-.013-.252-.038-.485t-.038-.309Zm-6.691,1.751q.517,0,1.172-.019T103,40.909q.737-.025,1.493-.038l1.455-.025q.7-.013,1.292-.013h2.2q.5,0,.882.006t.611.006l-.013.932q-.529-.025-1.418-.044t-2.274-.019q-.819,0-1.707.019t-1.783.044q-.895.025-1.733.069t-1.543.095Zm6.615,3.667a3.519,3.519,0,0,1-.246,1.4,1.824,1.824,0,0,1-.68.844,1.845,1.845,0,0,1-1.014.277,2.257,2.257,0,0,1-.762-.132,1.949,1.949,0,0,1-.668-.4,1.912,1.912,0,0,1-.466-.668,2.267,2.267,0,0,1-.17-.9,2.1,2.1,0,0,1,.3-1.121,2.231,2.231,0,0,1,.813-.781,2.2,2.2,0,0,1,1.1-.29,1.992,1.992,0,0,1,1.966,1.241,3.211,3.211,0,0,1,.252,1.3,4.771,4.771,0,0,1-.183,1.285,4.138,4.138,0,0,1-.6,1.26,4.438,4.438,0,0,1-1.147,1.1,6.468,6.468,0,0,1-1.833.825l-.844-.832a8.041,8.041,0,0,0,1.537-.517,4.088,4.088,0,0,0,1.147-.769,3.076,3.076,0,0,0,.712-1.058,3.659,3.659,0,0,0,.246-1.386,1.736,1.736,0,0,0-.365-1.235,1.182,1.182,0,0,0-.882-.378,1.274,1.274,0,0,0-.617.157,1.239,1.239,0,0,0-.472.46,1.363,1.363,0,0,0-.183.718,1.143,1.143,0,0,0,.384.92,1.345,1.345,0,0,0,.9.328,1.04,1.04,0,0,0,.668-.221,1.226,1.226,0,0,0,.4-.668,2.776,2.776,0,0,0,.019-1.115Zm6.464,1.487a1.842,1.842,0,0,1,.97.258,2.026,2.026,0,0,1,.693.693,1.888,1.888,0,0,1,0,1.928,2.082,2.082,0,0,1-.693.7,1.9,1.9,0,0,1-1.934,0,2.009,2.009,0,0,1-.693-.7,1.928,1.928,0,0,1,0-1.928,1.941,1.941,0,0,1,.7-.693A1.862,1.862,0,0,1,113.513,46.126Zm0,3.2a1.269,1.269,0,0,0,1.285-1.285,1.223,1.223,0,0,0-.17-.63,1.321,1.321,0,0,0-.46-.466,1.235,1.235,0,0,0-.655-.176,1.189,1.189,0,0,0-.63.176,1.375,1.375,0,0,0-.466.466,1.189,1.189,0,0,0-.176.63,1.245,1.245,0,0,0,.176.649,1.305,1.305,0,0,0,.466.466A1.223,1.223,0,0,0,113.513,49.326Z" transform="translate(248.932 6981.063)" fill="#333"/>
    <g id="グループ_656" data-name="グループ 656">
      <path id="パス_461" data-name="パス 461" d="M238.479,6984.975H216.986a3.488,3.488,0,0,0-3.534,3.533V7010a3.583,3.583,0,0,0,3.534,3.533h21.493a3.583,3.583,0,0,0,3.533-3.533v-21.494A3.487,3.487,0,0,0,238.479,6984.975Z" fill="#68be8d"/>
      <path id="パス_719" data-name="パス 719" d="M1.742,0V-1.5H4.99V-11.92H2.4v-1.148A11.015,11.015,0,0,0,4.089-13.5a7.336,7.336,0,0,0,1.317-.614H6.791V-1.5H9.7V0Z" transform="translate(222.238 7006.779)" fill="#fff"/>
    </g>
  </g>
</svg>
