<svg xmlns="http://www.w3.org/2000/svg" xmlns:xlink="http://www.w3.org/1999/xlink" width="219.205" height="219.058" viewBox="0 0 219.205 219.058">
  <defs>
    <clipPath id="clip-path">
      <rect id="長方形_409" data-name="長方形 409" width="95.544" height="69.928" transform="translate(1020.347 7108.342)" fill="none"/>
    </clipPath>
    <clipPath id="clip-path-2">
      <rect id="長方形_410" data-name="長方形 410" width="100.843" height="75.08" transform="translate(1015.195 7103.189)" fill="none"/>
    </clipPath>
    <clipPath id="clip-path-3">
      <rect id="長方形_411" data-name="長方形 411" width="105.849" height="130.728" transform="translate(1010.189 7047.542)" fill="none"/>
    </clipPath>
    <clipPath id="clip-path-4">
      <rect id="長方形_412" data-name="長方形 412" width="64.628" height="109.971" transform="translate(1022.261 7047.542)" fill="none"/>
    </clipPath>
  </defs>
  <g id="グループ_689" data-name="グループ 689" transform="translate(-943.795 -6974.522)">
    <path id="パス_517" data-name="パス 517" d="M1155.934,7193.58H950.861a6.944,6.944,0,0,1-7.066-6.919V6981.442a6.944,6.944,0,0,1,7.066-6.92h205.073a7.039,7.039,0,0,1,7.066,6.92v205.219A7.038,7.038,0,0,1,1155.934,7193.58Z" fill="#fff"/>
    <g id="グループ_679" data-name="グループ 679">
      <g id="グループ_678" data-name="グループ 678" clip-path="url(#clip-path)">
        <path id="パス_518" data-name="パス 518" d="M1115.743,7183.864l-11.041-12.955a18.285,18.285,0,0,1-3.68-7.361c-2.061-8.244-6.625-26.646-9.128-31.8l-17.371-16.783-47.109-5.447c-6.331-1.178-7.067,5.3,1.03,8.244l.883,1.619c-8.685-3.533-8.98,5.742.148,7.214h0c-8.833-2.061-7.656,7.066.883,8.98l7.214,11.483-6.184,3.386a3.1,3.1,0,0,0-1.472,3.68c1.914,5.006,11.63-3.238,27.971-1.324,0,0,7.361,17.518,21.052,24.732l5.006,8.391Z" fill="#f6e8da"/>
      </g>
    </g>
    <g id="グループ_681" data-name="グループ 681">
      <g id="グループ_680" data-name="グループ 680" clip-path="url(#clip-path-2)">
        <path id="パス_519" data-name="パス 519" d="M1083.629,7186.113l-4.953-8.3a37.689,37.689,0,0,1-9.064-6.927,57.279,57.279,0,0,1-6.638-8.216,65.72,65.72,0,0,1-5.339-9.525c-8.207-.918-14.67.723-19.4,1.926a26.6,26.6,0,0,1-5.54,1.063h-.072a2.87,2.87,0,0,1-3.049-1.875l-.009-.026a3.466,3.466,0,0,1,1.646-4.107l5.843-3.2-6.925-11.023a11.322,11.322,0,0,1-4.585-2.191,7.1,7.1,0,0,1-2.331-3.253,3.341,3.341,0,0,1,.591-3.355,3.887,3.887,0,0,1,2.4-1.114,8.822,8.822,0,0,1-1.5-.9,5.88,5.88,0,0,1-2.19-2.918,2.9,2.9,0,0,1,.726-3.1,3.732,3.732,0,0,1,2.449-.858l.16,0a8.769,8.769,0,0,1,2.691.481l-.348-.638a11.4,11.4,0,0,1-4.87-3.18,4.128,4.128,0,0,1-1.066-3.615,2.9,2.9,0,0,1,1.74-1.894,6.156,6.156,0,0,1,3.478-.218l47.22,5.46.09.086,17.418,16.829.028.059c2.451,5.044,6.86,22.688,8.979,31.167l.178.711a17.762,17.762,0,0,0,3.6,7.207l11.037,12.95-.56.478-11.048-12.963a18.5,18.5,0,0,1-3.751-7.507l-.174-.7c-2.1-8.422-6.475-25.913-8.9-30.966l-17.234-16.651-47.01-5.436c-2.287-.426-4.008.195-4.385,1.579a3.421,3.421,0,0,0,.925,2.955,10.547,10.547,0,0,0,4.684,3l.131.047,1.444,2.647-.956-.389c-3.469-1.412-4.973-.541-5.459-.1a2.194,2.194,0,0,0-.515,2.342,5.145,5.145,0,0,0,1.925,2.537,9.492,9.492,0,0,0,3.512,1.558q.437.07.9.177l1.3.261-.144.722-1.3-.26q-.468-.075-.916-.181c-2.541-.4-3.683.321-4.153.826a2.6,2.6,0,0,0-.427,2.636c.539,1.743,2.572,4.092,6.524,4.978l.15.034.082.13,7.422,11.814-.343.188-6.184,3.386a2.742,2.742,0,0,0-1.3,3.239,2.162,2.162,0,0,0,2.354,1.389h.066a26.322,26.322,0,0,0,5.366-1.041c4.827-1.227,11.436-2.907,19.878-1.919l.213.025.083.2a63.542,63.542,0,0,0,5.367,9.611,56.55,56.55,0,0,0,6.549,8.1,36.855,36.855,0,0,0,8.968,6.834l.091.048.053.089,5.006,8.391Z" fill="#3e3a39"/>
      </g>
    </g>
    <g id="グループ_683" data-name="グループ 683">
      <g id="グループ_682" data-name="グループ 682" clip-path="url(#clip-path-3)">
        <path id="パス_520" data-name="パス 520" d="M1027.414,7147.355v-91.716a5.03,5.03,0,0,1,5.005-4.858h44.165a4.934,4.934,0,0,1,5.005,4.858v91.716a4.934,4.934,0,0,1-5.005,4.858h-44.165A5.031,5.031,0,0,1,1027.414,7147.355Z" fill="#b7b8b8"/>
      </g>
    </g>
    <g id="グループ_685" data-name="グループ 685">
      <g id="グループ_684" data-name="グループ 684" clip-path="url(#clip-path-4)">
        <path id="パス_521" data-name="パス 521" d="M1076.584,7152.581h-44.165a5.48,5.48,0,0,1-3.751-1.538,5.1,5.1,0,0,1-1.622-3.688v-91.716a5.1,5.1,0,0,1,1.622-3.688,5.48,5.48,0,0,1,3.751-1.538h44.165a5.307,5.307,0,0,1,5.373,5.227v91.716A5.307,5.307,0,0,1,1076.584,7152.581Zm-44.165-101.432a4.739,4.739,0,0,0-3.241,1.333,4.368,4.368,0,0,0-1.4,3.158v91.716a4.368,4.368,0,0,0,1.4,3.157,4.738,4.738,0,0,0,3.241,1.333h44.165a4.57,4.57,0,0,0,4.637-4.49v-91.716a4.57,4.57,0,0,0-4.637-4.49Z" fill="#3e3a39"/>
      </g>
    </g>
    <g id="グループ_687" data-name="グループ 687">
      <g id="グループ_686" data-name="グループ 686" clip-path="url(#clip-path-3)">
        <path id="パス_522" data-name="パス 522" d="M1075.259,7149.268h-41.515a3.267,3.267,0,0,1-3.239-3.238v-89.066a3.267,3.267,0,0,1,3.239-3.239h41.515a3.3,3.3,0,0,1,3.386,3.239v89.066A3.3,3.3,0,0,1,1075.259,7149.268Z" fill="#fff"/>
        <path id="パス_523" data-name="パス 523" d="M1075.259,7149.636h-41.515a3.636,3.636,0,0,1-3.607-3.606v-89.066a3.635,3.635,0,0,1,3.607-3.607h41.515a3.8,3.8,0,0,1,2.667,1.061,3.523,3.523,0,0,1,1.087,2.546v89.066a3.523,3.523,0,0,1-1.087,2.546A3.8,3.8,0,0,1,1075.259,7149.636Zm-41.515-95.543a2.909,2.909,0,0,0-2.871,2.871v89.066a2.909,2.909,0,0,0,2.871,2.87h41.515a3.07,3.07,0,0,0,2.155-.853,2.792,2.792,0,0,0,.863-2.017v-89.066a2.792,2.792,0,0,0-.863-2.018,3.069,3.069,0,0,0-2.155-.853Z" fill="#3e3a39"/>
        <path id="パス_524" data-name="パス 524" d="M1078.645,7062.558h-48.14v-5.594a3.267,3.267,0,0,1,3.239-3.239h41.515a3.3,3.3,0,0,1,3.386,3.239Z" fill="#3e3a39"/>
        <path id="パス_525" data-name="パス 525" d="M1030.505,7132.927h48.14v13.1a3.3,3.3,0,0,1-3.386,3.238h-41.515a3.267,3.267,0,0,1-3.239-3.238Z" fill="#3e3a39"/>
        <path id="パス_526" data-name="パス 526" d="M1078.056,7167.67c-5.153-5.3-6.625-13.249-7.066-18.107a8.815,8.815,0,0,0-3.828-6.331l-3.239-2.061a8.16,8.16,0,0,0-5.741-1.325,12.375,12.375,0,0,1-9.864-1.766,3.308,3.308,0,0,1,.589-5.889,94.992,94.992,0,0,1,12.219-3.68,10.216,10.216,0,0,1,7.214.736c3.386,1.619,13.691,6.477,17.518,9.127Z" fill="#f6e8da"/>
        <path id="パス_527" data-name="パス 527" d="M1077.792,7167.927a23.921,23.921,0,0,1-5.386-9.361,40.722,40.722,0,0,1-1.782-8.965,8.445,8.445,0,0,0-3.663-6.061l-3.242-2.063a7.768,7.768,0,0,0-5.472-1.269,13.432,13.432,0,0,1-6.25-.062,14.011,14.011,0,0,1-3.871-1.753,3.562,3.562,0,0,1-1.71-3.366,3.779,3.779,0,0,1,2.351-3.177l.005,0a96,96,0,0,1,12.259-3.693,10.593,10.593,0,0,1,7.465.758l.751.358c3.956,1.887,13.219,6.306,16.821,8.8l-.419.605c-3.553-2.46-12.779-6.861-16.719-8.74l-.749-.357a9.832,9.832,0,0,0-6.945-.717l-.03.008a95.353,95.353,0,0,0-12.161,3.662,3.046,3.046,0,0,0-1.9,2.558,2.837,2.837,0,0,0,1.364,2.678,12,12,0,0,0,9.595,1.718l.018,0a8.5,8.5,0,0,1,6,1.38l3.242,2.063a9.18,9.18,0,0,1,3.989,6.594v.01c.887,9.775,4.276,15.121,6.963,17.883Z" fill="#3e3a39"/>
        <path id="パス_528" data-name="パス 528" d="M1073.492,7115.261H1035.51v-12.807h37.982Zm.736-13.4h-39.306V7116h39.306Z" fill="#3e3a39"/>
        <path id="パス_529" data-name="パス 529" d="M1073.492,7092.884H1035.51v-7.213h37.982Zm.736-7.8h-39.306v8.539h39.306Z" fill="#3e3a39"/>
        <path id="パス_530" data-name="パス 530" d="M1073.492,7080.665H1035.51v-7.213h37.982Zm.736-7.8h-39.306v8.539h39.306Z" fill="#3e3a39"/>
        <path id="パス_531" data-name="パス 531" d="M1073.492,7068.446H1035.51v-7.213h37.982Zm.736-7.8h-39.306v8.391h39.306Z" fill="#3e3a39"/>
      </g>
    </g>
    <rect id="長方形_414" data-name="長方形 414" width="18.844" height="6.33" transform="translate(1055.385 7120.561)" fill="#68be8d"/>
    <rect id="長方形_415" data-name="長方形 415" width="18.844" height="6.33" transform="translate(1034.774 7120.561)" fill="#9fa0a0"/>
    <path id="パス_724" data-name="パス 724" d="M11.731,6.482q-.076.088-.17.214t-.17.239a9.533,9.533,0,0,1-.712,1.052,14.982,14.982,0,0,1-1.09,1.273,8.888,8.888,0,0,1-1.336,1.153l-.832-.668a5.7,5.7,0,0,0,.863-.611,9.678,9.678,0,0,0,.794-.756A8.737,8.737,0,0,0,9.734,7.6a6.842,6.842,0,0,0,.447-.674H3q-.353,0-.706.019T1.562,7V5.852q.328.05.706.082T3,5.966h7.232q.126,0,.3-.006a2.9,2.9,0,0,0,.334-.032l.252-.038ZM6.7,8.146q0,1.021-.063,1.915a10.16,10.16,0,0,1-.252,1.676,5.366,5.366,0,0,1-.573,1.443,5.085,5.085,0,0,1-1.027,1.235,7.286,7.286,0,0,1-1.6,1.052l-.932-.756a4.931,4.931,0,0,0,.567-.233,3.793,3.793,0,0,0,.567-.334,4.278,4.278,0,0,0,1.184-1,3.978,3.978,0,0,0,.661-1.2,6.539,6.539,0,0,0,.3-1.373A13.4,13.4,0,0,0,5.62,9.065q0-.239-.006-.454a3.94,3.94,0,0,0-.044-.466ZM23.247,5.953a.839.839,0,0,0,.832.832.815.815,0,0,0,.6-.246.8.8,0,0,0,.246-.586.839.839,0,0,0-.844-.844.8.8,0,0,0-.586.246A.815.815,0,0,0,23.247,5.953Zm-.58,0a1.344,1.344,0,0,1,.2-.712,1.539,1.539,0,0,1,.51-.517,1.312,1.312,0,0,1,.706-.2,1.344,1.344,0,0,1,.712.2,1.52,1.52,0,0,1,.517.517,1.344,1.344,0,0,1,.2.712,1.312,1.312,0,0,1-.2.706,1.539,1.539,0,0,1-.517.51,1.344,1.344,0,0,1-.712.2,1.312,1.312,0,0,1-.706-.2,1.559,1.559,0,0,1-.51-.51A1.312,1.312,0,0,1,22.667,5.953Zm1.1.844a1.6,1.6,0,0,0-.107.284q-.044.158-.082.346-.1.491-.265,1.1t-.4,1.241a11.076,11.076,0,0,1-.535,1.229,6.972,6.972,0,0,1-.68,1.084,10.913,10.913,0,0,1-1.285,1.361A8.9,8.9,0,0,1,18.8,14.572a11.155,11.155,0,0,1-2.066.869l-.857-.945a10.1,10.1,0,0,0,2.136-.756,7.95,7.95,0,0,0,2.778-2.268,6.562,6.562,0,0,0,.787-1.3,11.737,11.737,0,0,0,.561-1.462,7.976,7.976,0,0,0,.3-1.342H16q-.378,0-.693.013l-.567.025V6.281q.176.025.391.044t.441.031q.227.013.428.013h6.325q.139,0,.315-.013A2.549,2.549,0,0,0,23,6.306ZM35.986,5.437q-.013.239-.025.51t-.013.586V8.574a19.2,19.2,0,0,1-.082,1.928,8.189,8.189,0,0,1-.239,1.354,4.165,4.165,0,0,1-.41.989,6.037,6.037,0,0,1-.592.832,4.634,4.634,0,0,1-.926.838,6.957,6.957,0,0,1-1.065.6,9.727,9.727,0,0,1-1.008.4l-.819-.869a7.561,7.561,0,0,0,1.644-.611,4.646,4.646,0,0,0,1.367-1.065,3.936,3.936,0,0,0,.548-.8,3.715,3.715,0,0,0,.315-.913,7.821,7.821,0,0,0,.145-1.172q.038-.668.038-1.562V6.533q0-.315-.019-.586t-.044-.51Zm-5.846.1q-.013.176-.031.428t-.019.479v4.208q0,.239.019.51t.031.447H28.98q.025-.151.044-.422t.019-.548v-4.2q0-.164-.013-.447t-.038-.46ZM40.307,6.709q.353-.013.649-.031l.472-.031q.3-.038.876-.095t1.317-.126q.743-.069,1.6-.145l1.726-.151q.693-.063,1.31-.107T49.4,5.947q.529-.031.945-.044V6.911q-.353,0-.806.013t-.895.05a3.709,3.709,0,0,0-.769.139,3.67,3.67,0,0,0-1.2.649,4.5,4.5,0,0,0-.914,1,4.729,4.729,0,0,0-.573,1.172,3.805,3.805,0,0,0-.2,1.172,3.034,3.034,0,0,0,.252,1.279,2.71,2.71,0,0,0,.687.926,3.778,3.778,0,0,0,.989.617,5.646,5.646,0,0,0,1.178.359,7.373,7.373,0,0,0,1.241.132l-.365,1.046a7.088,7.088,0,0,1-1.411-.2,6.312,6.312,0,0,1-1.348-.491,4.538,4.538,0,0,1-1.147-.813,3.549,3.549,0,0,1-1.084-2.646A4.718,4.718,0,0,1,44.333,9.5a5.389,5.389,0,0,1,.888-1.468,4.525,4.525,0,0,1,1.121-.97q-.4.05-1,.113l-1.279.132q-.68.069-1.367.157t-1.279.17q-.592.082-1,.17Zm8.228,1.751q.139.2.334.51t.384.63a5.681,5.681,0,0,1,.315.611l-.643.3q-.214-.466-.479-.926a8.745,8.745,0,0,0-.554-.851Zm1.373-.529q.151.2.353.5t.4.624q.2.321.346.611l-.655.315q-.227-.466-.5-.92t-.561-.844Zm6.514,1.336h8.152v.769H56.423Zm1.147,1.676h2.444v.68H57.569Zm3.062-.126h3.074v.756H60.631ZM57.569,12.53h2.444V13.2H57.569ZM58.477,7v.907h4.271V7Zm0-1.512v.882h4.271V5.487Zm-.869-.68h6.048V8.574H57.607Zm-.365,4.788h.781v5.04h-.781Zm2.306-.025h.819v6.464h-.819Zm-3.364,4.952q.706-.088,1.707-.239t2.06-.315l.063.731q-.945.176-1.884.34t-1.695.3Zm7.195-3.7h.164l.151-.025.5.126a7.879,7.879,0,0,1-1.191,3.226A5.653,5.653,0,0,1,60.9,16.021a3.053,3.053,0,0,0-.214-.353,1.883,1.883,0,0,0-.277-.328,4.612,4.612,0,0,0,1.348-.945,5.392,5.392,0,0,0,1.027-1.474,7.04,7.04,0,0,0,.6-1.966ZM61.6,11.7a6.745,6.745,0,0,0,1.184,2.2,4.938,4.938,0,0,0,1.9,1.462,1.379,1.379,0,0,0-.309.3,2.65,2.65,0,0,0-.246.365,5.721,5.721,0,0,1-1.978-1.669,7.853,7.853,0,0,1-1.26-2.488Zm-8.845-.769q.718-.2,1.72-.517t2.035-.63l.126.857-1.9.636q-.958.321-1.739.561Zm.189-3.969h3.566v.882H52.945Zm1.537-2.545h.869V14.924a1.373,1.373,0,0,1-.1.586.76.76,0,0,1-.328.334,2.011,2.011,0,0,1-.6.139,8.325,8.325,0,0,1-.97.025,3.207,3.207,0,0,0-.1-.416,3.272,3.272,0,0,0-.164-.441q.4.013.737.013t.447-.013a.247.247,0,0,0,.164-.044.243.243,0,0,0,.05-.183ZM66.1,9.015h7.182v.756H66.1Zm3.163-.882h.869v1.3h-.869ZM67.9,11.182v1.172h3.679V11.182Zm-.844-.668H72.45v2.507H67.057Zm.756-3.667v.794h3.843V6.848Zm0-1.348v.769h3.843V5.5Zm-.857-.6h5.594V8.246H66.956Zm2.306,7.673h.869V15.1a1.232,1.232,0,0,1-.082.5.533.533,0,0,1-.321.265,1.813,1.813,0,0,1-.6.12q-.365.019-.895.019a2.623,2.623,0,0,0-.151-.391,2.853,2.853,0,0,0-.2-.365q.428.013.75.013t.447-.013a.249.249,0,0,0,.158-.031.2.2,0,0,0,.032-.132Zm-1.814.781.806.2A6.749,6.749,0,0,1,67.58,14.7a5.719,5.719,0,0,1-.838.945q-.076-.063-.2-.158t-.258-.183a1.68,1.68,0,0,0-.246-.139,5.207,5.207,0,0,0,.8-.832A5.343,5.343,0,0,0,67.448,13.349Zm3.49.378.718-.365q.365.391.75.869a6.133,6.133,0,0,1,.586.844l-.731.4q-.139-.239-.353-.548t-.466-.63A6.366,6.366,0,0,0,70.938,13.727Zm5.254-9.1L77.087,5a9.178,9.178,0,0,1-.97,1.09,12.955,12.955,0,0,1-1.159,1,12.841,12.841,0,0,1-1.2.813,2.431,2.431,0,0,0-.309-.353,3.3,3.3,0,0,0-.372-.315,11.468,11.468,0,0,0,1.14-.718,10.406,10.406,0,0,0,1.1-.9A6.761,6.761,0,0,0,76.192,4.63Zm.34,3.49L77.4,8.5a10.423,10.423,0,0,1-1.046,1.14,12.781,12.781,0,0,1-1.247,1.04,14.6,14.6,0,0,1-1.285.844,2.973,2.973,0,0,0-.309-.34,4.84,4.84,0,0,0-.372-.328,12.352,12.352,0,0,0,1.229-.756,11.57,11.57,0,0,0,1.2-.958A8.157,8.157,0,0,0,76.532,8.12Zm.328,3.566.92.34a8.527,8.527,0,0,1-1.191,1.581,10.934,10.934,0,0,1-1.537,1.342A11.772,11.772,0,0,1,73.307,16a3.706,3.706,0,0,0-.3-.4,3.425,3.425,0,0,0-.365-.372,10.008,10.008,0,0,0,1.651-.913A10.135,10.135,0,0,0,75.764,13.1,6.807,6.807,0,0,0,76.86,11.686Zm6.048-6.5q-.05.315-.076.636t-.038.636q-.025.529-.05,1.31t-.05,1.657q-.025.876-.038,1.745t-.013,1.562a2.044,2.044,0,0,0,.265,1.109,1.453,1.453,0,0,0,.731.592,3.014,3.014,0,0,0,1.071.176,5.1,5.1,0,0,0,1.55-.22,4.671,4.671,0,0,0,1.235-.592,5.461,5.461,0,0,0,.964-.838A9.4,9.4,0,0,0,89.221,12l.718.857a8.459,8.459,0,0,1-.8.939,6.4,6.4,0,0,1-1.115.9,6.083,6.083,0,0,1-1.48.68,6.2,6.2,0,0,1-1.871.265,4.249,4.249,0,0,1-1.588-.277A2.227,2.227,0,0,1,82,14.471a3.031,3.031,0,0,1-.391-1.638q0-.567.013-1.254t.038-1.417q.025-.731.038-1.43t.025-1.292q.013-.592.013-.983,0-.353-.025-.68a5.938,5.938,0,0,0-.076-.6Zm14.4-.1q-.063.214-.126.517t-.1.491q-.088.454-.208,1.052T96.611,8.4q-.145.655-.321,1.285-.164.668-.4,1.455t-.5,1.581q-.265.794-.542,1.5t-.517,1.235l-1.109-.378A10.6,10.6,0,0,0,93.8,13.9q.3-.687.58-1.468t.529-1.556q.246-.775.422-1.43.126-.441.239-.932t.214-.964q.1-.473.17-.869t.107-.649q.038-.265.05-.554a3,3,0,0,0-.013-.491Zm-2.8,2.1q.706,0,1.518-.069t1.657-.208q.844-.139,1.625-.34v1q-.781.176-1.638.3t-1.682.2q-.825.069-1.493.069-.416,0-.769-.019t-.693-.031L93,7.1q.454.05.813.069T94.513,7.188Zm3.982,1.739q.5-.05,1.1-.082t1.2-.031q.554,0,1.115.025t1.065.088l-.025.958q-.479-.063-1.021-.107t-1.1-.044q-.592,0-1.178.031t-1.166.094Zm.265,3.062q-.076.3-.126.592a3.172,3.172,0,0,0-.05.542,1.175,1.175,0,0,0,.082.435.85.85,0,0,0,.309.372,1.853,1.853,0,0,0,.649.265,4.83,4.83,0,0,0,1.09.1q.617,0,1.247-.063a10.708,10.708,0,0,0,1.21-.189l-.038,1.021q-.5.076-1.121.126t-1.31.05a4.606,4.606,0,0,1-2.281-.46,1.506,1.506,0,0,1-.794-1.392,4.759,4.759,0,0,1,.057-.731q.057-.365.132-.756Zm7.7,2.331h9.349v.895h-9.349Zm-.895-9.085h11.151V6.13H105.563Zm.391,2.155h.92v8.618h-.92Zm9.475,0h.92V15.97h-.92ZM110.6,5.512h.958V7.944H110.6Zm.063,2.369h.844v4.99h-.844Zm-1.789,2.86V12.4h4.435V10.741Zm0-2.407V9.985h4.435V8.335Zm-.806-.794h6.073v5.67H108.07Zm15.8-3.112.92.164a12.687,12.687,0,0,1-1.229,1.814,10.723,10.723,0,0,1-1.745,1.714,2.14,2.14,0,0,0-.328-.309,2.286,2.286,0,0,0-.378-.246,8.072,8.072,0,0,0,1.184-1,9.755,9.755,0,0,0,.926-1.09A7.623,7.623,0,0,0,123.871,4.429Zm.076.794h3.037v.743h-3.629Zm-.895,2.369V9.028h5.594V7.591Zm-.869-.693h7.371V9.721h-7.371Zm3.188.29h.857V9.33h-.857Zm.038,1.9.743.3a8.284,8.284,0,0,1-1.216.92,13.77,13.77,0,0,1-1.474.806q-.775.365-1.506.63a1.753,1.753,0,0,0-.151-.214q-.1-.126-.208-.246a2.129,2.129,0,0,0-.2-.2q.731-.227,1.481-.529a11.545,11.545,0,0,0,1.411-.68A6.19,6.19,0,0,0,125.408,9.091Zm-1.323,1.348.63-.391a4.849,4.849,0,0,1,1.165,1.159,4.905,4.905,0,0,1,.662,1.317,4.557,4.557,0,0,1,.227,1.285,2.96,2.96,0,0,1-.164,1.09,1.5,1.5,0,0,1-.5.718,1.6,1.6,0,0,1-.554.309,2.639,2.639,0,0,1-.655.094q-.2,0-.46-.013l-.523-.025a3.028,3.028,0,0,0-.063-.4,1.381,1.381,0,0,0-.164-.422q.3.038.573.05t.447.013a2.1,2.1,0,0,0,.422-.038.779.779,0,0,0,.346-.176,1.154,1.154,0,0,0,.4-.724,3.058,3.058,0,0,0-.019-1.184,4.073,4.073,0,0,0-.554-1.373A4.765,4.765,0,0,0,124.085,10.439Zm1.134.5.567.391a7.4,7.4,0,0,1-1.077.819q-.649.416-1.354.775a12.97,12.97,0,0,1-1.348.6q-.088-.139-.221-.328a1.883,1.883,0,0,0-.271-.315,11.167,11.167,0,0,0,1.336-.5,13,13,0,0,0,1.342-.693A5.98,5.98,0,0,0,125.219,10.943Zm.655,1.361.63.441a9.022,9.022,0,0,1-1.323,1.115,16.762,16.762,0,0,1-1.676,1.04,13.073,13.073,0,0,1-1.7.781,3.405,3.405,0,0,0-.233-.365,1.762,1.762,0,0,0-.3-.328q.6-.2,1.26-.491a12.656,12.656,0,0,0,1.279-.655,13.823,13.823,0,0,0,1.159-.756A6.375,6.375,0,0,0,125.874,12.3Zm3.389-2.2.668.567q-.491.428-1.1.863t-1.109.737l-.554-.5q.328-.214.712-.5t.75-.592Q129,10.363,129.263,10.1Zm-2.457-.869a13.176,13.176,0,0,0,.718,2.274,7.959,7.959,0,0,0,1.115,1.9,5.313,5.313,0,0,0,1.493,1.3q-.1.088-.227.22a3.465,3.465,0,0,0-.233.271,2.753,2.753,0,0,0-.183.265,6.028,6.028,0,0,1-1.55-1.487,9.24,9.24,0,0,1-1.147-2.092,16.967,16.967,0,0,1-.769-2.495Zm-.126-4.007h.2l.176-.05.58.4a10.33,10.33,0,0,1-.712,1.052,9.082,9.082,0,0,1-.775.9,3.633,3.633,0,0,0-.265-.29,3.143,3.143,0,0,0-.277-.252,6.554,6.554,0,0,0,.6-.775,5.175,5.175,0,0,0,.466-.825Zm-5.809-.743.869.239a20.39,20.39,0,0,1-.838,2.167,20.327,20.327,0,0,1-1.052,2.022,11.9,11.9,0,0,1-1.2,1.682,2.648,2.648,0,0,0-.126-.3q-.088-.183-.189-.365t-.176-.3a11.091,11.091,0,0,0,1.058-1.468,15.6,15.6,0,0,0,.926-1.77A17.36,17.36,0,0,0,120.872,4.479Zm-1.021,3.087.882-.869.025.025v9.286h-.907ZM141.3,7.478q-.214.139-.454.265t-.517.265q-.315.176-.781.4t-1,.5q-.529.277-1.058.58t-1,.6a5.583,5.583,0,0,0-1.38,1.2,2.136,2.136,0,0,0-.5,1.348,1.4,1.4,0,0,0,.75,1.241,4.347,4.347,0,0,0,2.237.46q.693,0,1.436-.057t1.43-.158q.687-.1,1.165-.214v1.121q-.466.088-1.1.158t-1.367.113q-.731.044-1.512.044a8.58,8.58,0,0,1-1.638-.145,4.407,4.407,0,0,1-1.292-.447,2.233,2.233,0,0,1-.85-.8,2.275,2.275,0,0,1-.3-1.2,2.845,2.845,0,0,1,.29-1.279,4.125,4.125,0,0,1,.832-1.115,8.7,8.7,0,0,1,1.285-1.021q.479-.328,1.027-.636t1.077-.6q.529-.29.989-.529l.775-.4.479-.3a3.955,3.955,0,0,0,.416-.3ZM134.921,5.2q.29.806.624,1.575t.68,1.436q.347.668.636,1.184l-.869.517q-.315-.517-.668-1.222t-.706-1.5q-.353-.794-.693-1.575ZM147.08,15.706q-.4-.5-.882-1.008t-.964-.97q-.485-.466-.939-.832l.819-.718q.454.365.958.844t.989.983q.485.5.876.97ZM2.873,22.285H6.439v.958H2.873Zm3.087,0h.958q0,.554.05,1.31a13.551,13.551,0,0,0,.214,1.619,11.516,11.516,0,0,0,.5,1.8,9.913,9.913,0,0,0,.92,1.859,10.075,10.075,0,0,0,1.455,1.8,10.593,10.593,0,0,0,2.123,1.6q-.1.088-.258.233a3.262,3.262,0,0,0-.29.3q-.132.157-.22.271a10.944,10.944,0,0,1-2.161-1.695,10.385,10.385,0,0,1-1.5-1.934A11.449,11.449,0,0,1,6.8,27.419a13.567,13.567,0,0,1-.542-1.966,14.882,14.882,0,0,1-.239-1.77Q5.96,22.864,5.96,22.285Zm-.365,2.47,1.071.189A17.6,17.6,0,0,1,5.487,28.4a11.426,11.426,0,0,1-1.751,2.7A9.814,9.814,0,0,1,1.31,33.083a1.7,1.7,0,0,0-.233-.239Q.92,32.7.75,32.56t-.3-.233a8.791,8.791,0,0,0,3.339-3.005A13.394,13.394,0,0,0,5.594,24.754Zm8.555-.491h9.778v.97H14.15Zm9.412,0h.97v.1q0,.1-.006.214a1.783,1.783,0,0,1-.019.189q-.1,1.953-.208,3.326t-.239,2.262a9.911,9.911,0,0,1-.29,1.4,1.9,1.9,0,0,1-.372.737,1.235,1.235,0,0,1-.472.378,2.229,2.229,0,0,1-.611.139q-.315.025-.876.013t-1.14-.038a2.224,2.224,0,0,0-.094-.491,1.5,1.5,0,0,0-.233-.479q.655.05,1.2.069t.787.019a1.239,1.239,0,0,0,.334-.038.529.529,0,0,0,.246-.164,1.5,1.5,0,0,0,.321-.649,9.51,9.51,0,0,0,.265-1.361q.12-.876.227-2.211t.208-3.213ZM18.27,21.541h.983v2.18q0,.869-.076,1.833a11.851,11.851,0,0,1-.328,1.966,9.215,9.215,0,0,1-.769,2,8.624,8.624,0,0,1-1.386,1.922,10.132,10.132,0,0,1-2.192,1.72,1.7,1.7,0,0,0-.2-.265q-.126-.139-.265-.271a1.536,1.536,0,0,0-.265-.208A10.067,10.067,0,0,0,15.857,30.8a7.925,7.925,0,0,0,1.31-1.77,8.207,8.207,0,0,0,.718-1.833,11.24,11.24,0,0,0,.309-1.8q.076-.882.076-1.676Zm14.54,1.625-.145-.466q-.082-.265-.17-.517l1.071-.139q.063.365.176.825t.265.932q.151.473.3.876a11.385,11.385,0,0,0,.731,1.632,13.97,13.97,0,0,0,.832,1.367q.139.176.277.34l.277.328-.517.706q-.227-.05-.6-.1t-.806-.094q-.435-.044-.863-.082t-.769-.063l.076-.844q.353.025.75.063l.756.069q.359.031.586.057-.265-.4-.567-.926t-.586-1.109q-.283-.586-.5-1.153t-.34-.983Q32.911,23.456,32.81,23.167Zm-4.612.983q1.058.126,2.047.176t1.877.025q.888-.025,1.607-.1.5-.063,1.065-.151t1.115-.227q.554-.139,1.046-.29l.113.983a8.628,8.628,0,0,1-.97.239q-.529.1-1.058.189t-1,.139a25.313,25.313,0,0,1-2.677.151q-1.481.013-3.144-.126Zm1.94,4.019a5.13,5.13,0,0,0-.435.876,2.485,2.485,0,0,0-.157.876,1.385,1.385,0,0,0,.781,1.31,4.793,4.793,0,0,0,2.18.428,14.814,14.814,0,0,0,1.783-.076,12.616,12.616,0,0,0,1.468-.239l-.05,1.008q-.58.1-1.386.189a17.361,17.361,0,0,1-1.865.088,6.851,6.851,0,0,1-2.073-.3,2.9,2.9,0,0,1-1.354-.863,2.155,2.155,0,0,1-.479-1.43,3.229,3.229,0,0,1,.17-1.027,9.336,9.336,0,0,1,.435-1.065Zm21.445,2.974a3.825,3.825,0,0,1-1.084.775,2.881,2.881,0,0,1-1.235.271,1.341,1.341,0,0,1-1.008-.4,1.637,1.637,0,0,1-.391-1.184,9.474,9.474,0,0,1,.076-1.147q.076-.617.164-1.266t.164-1.235a8.3,8.3,0,0,0,.076-1.052,1.03,1.03,0,0,0-.265-.788,1.071,1.071,0,0,0-.756-.246,2.316,2.316,0,0,0-.983.258,6.28,6.28,0,0,0-1.109.693,11.748,11.748,0,0,0-1.109.97q-.542.536-1,1.065l.025-1.247q.239-.252.611-.592t.832-.706a9.61,9.61,0,0,1,.976-.68,5.939,5.939,0,0,1,1.027-.5,2.81,2.81,0,0,1,.976-.189,2.077,2.077,0,0,1,.983.208,1.317,1.317,0,0,1,.58.592,1.989,1.989,0,0,1,.189.888A9.7,9.7,0,0,1,49.26,26.7q-.069.611-.164,1.266t-.164,1.273a9.95,9.95,0,0,0-.069,1.1.926.926,0,0,0,.158.542.563.563,0,0,0,.5.227,1.923,1.923,0,0,0,.939-.271,4.13,4.13,0,0,0,.964-.775ZM43.117,25.12q-.151.013-.46.057t-.7.094q-.391.05-.794.107l-.756.107-.1-1.033q.2.013.4.006t.422-.019q.265-.013.649-.057t.806-.1q.422-.057.794-.126a4.087,4.087,0,0,0,.586-.145l.365.441q-.113.151-.252.372t-.277.447q-.139.227-.239.4l-.391,1.714q-.214.34-.529.806l-.661.976q-.346.51-.7,1.008t-.643.913l-.643-.869q.239-.29.561-.712t.68-.913l.706-.964q.346-.473.617-.876t.41-.655l.05-.643ZM43,23.028q0-.214-.006-.454a3.689,3.689,0,0,0-.044-.479l1.184.038q-.05.252-.126.788t-.145,1.266q-.069.731-.139,1.537t-.107,1.594q-.038.787-.038,1.455v1.052q0,.485.013.958t.038,1.027q.013.164.025.378t.038.391H42.6a3.47,3.47,0,0,0,.031-.384q.006-.208.006-.359.013-.6.013-1.071t.006-.964q.006-.5.019-1.191,0-.277.025-.762t.063-1.071q.038-.586.076-1.191t.076-1.14q.038-.535.063-.913T43,23.028ZM58,22.184q-.063.214-.126.517t-.1.491q-.088.454-.208,1.052T57.3,25.5q-.145.655-.321,1.285-.164.668-.4,1.455t-.5,1.581q-.265.794-.542,1.5t-.517,1.235L53.9,32.176A10.605,10.605,0,0,0,54.489,31q.3-.687.58-1.468t.529-1.556q.246-.775.422-1.43.126-.441.239-.932t.214-.964q.1-.473.17-.869t.107-.649q.038-.265.05-.554a3,3,0,0,0-.013-.491Zm-2.8,2.1q.706,0,1.518-.069t1.657-.208q.844-.139,1.625-.34v1q-.781.176-1.638.3t-1.682.2q-.825.069-1.493.069-.416,0-.769-.019t-.693-.031l-.038-.983q.454.05.813.069T55.2,24.288Zm3.982,1.739q.5-.05,1.1-.082t1.2-.031q.554,0,1.115.025t1.065.088l-.025.958q-.479-.063-1.021-.107t-1.1-.044q-.592,0-1.178.031t-1.166.094Zm.265,3.062q-.076.3-.126.592a3.172,3.172,0,0,0-.05.542,1.175,1.175,0,0,0,.082.435.85.85,0,0,0,.309.372,1.853,1.853,0,0,0,.649.265,4.83,4.83,0,0,0,1.09.1q.617,0,1.247-.063a10.708,10.708,0,0,0,1.21-.189l-.038,1.021q-.5.076-1.121.126t-1.31.05a4.606,4.606,0,0,1-2.281-.46,1.506,1.506,0,0,1-.794-1.392,4.759,4.759,0,0,1,.057-.731q.057-.365.132-.756ZM70.7,22.033a2,2,0,0,0-.038.258q-.013.145-.025.309t-.025.3q-.013.29-.032.756t-.032,1.027q-.013.561-.025,1.134t-.013,1.065q0,.491.006,1.077t.025,1.159q.019.573.025,1.058t.006.775a2.493,2.493,0,0,1-.139.92.955.955,0,0,1-.384.485,1.133,1.133,0,0,1-.586.145,2.361,2.361,0,0,1-.819-.17,3.8,3.8,0,0,1-.863-.46,2.754,2.754,0,0,1-.674-.668,1.363,1.363,0,0,1-.265-.794,1.76,1.76,0,0,1,.435-1.109,4.972,4.972,0,0,1,1.134-1.008,7.134,7.134,0,0,1,1.48-.756,9.591,9.591,0,0,1,1.751-.51,8.826,8.826,0,0,1,1.638-.17,4,4,0,0,1,1.632.315,2.71,2.71,0,0,1,1.121.876,2.172,2.172,0,0,1,.41,1.317,2.8,2.8,0,0,1-.309,1.336,2.63,2.63,0,0,1-.907.97,4.75,4.75,0,0,1-1.468.6,6.3,6.3,0,0,1-.825.12l-.737.057-.353-1.021q.353.013.737,0a4.163,4.163,0,0,0,.737-.088A3.786,3.786,0,0,0,74.359,31a2.161,2.161,0,0,0,.781-.649,1.594,1.594,0,0,0,.3-.97,1.414,1.414,0,0,0-.29-.907,1.792,1.792,0,0,0-.781-.554,3.032,3.032,0,0,0-1.1-.189,7.47,7.47,0,0,0-1.625.176,10.448,10.448,0,0,0-1.613.5,5.488,5.488,0,0,0-1.109.561,3.523,3.523,0,0,0-.8.7,1.125,1.125,0,0,0-.3.693.677.677,0,0,0,.145.41,1.569,1.569,0,0,0,.359.347,1.787,1.787,0,0,0,.454.233,1.315,1.315,0,0,0,.416.082.4.4,0,0,0,.334-.151.746.746,0,0,0,.12-.466q0-.365-.013-1.014t-.025-1.411q-.013-.762-.013-1.455,0-.542.006-1.159t.013-1.2q.006-.58.013-1.021t.006-.63q0-.126-.006-.3t-.019-.334a1.652,1.652,0,0,0-.038-.265Zm3.906,1.4q.454.239,1.008.573t1.065.674a9.772,9.772,0,0,1,.813.592l-.517.806a5.014,5.014,0,0,0-.58-.485q-.353-.258-.756-.517t-.794-.491q-.391-.233-.693-.4Zm-7.56.869q.517.063.888.082t.724.019q.466,0,1.046-.05t1.2-.132q.617-.082,1.2-.2t1.052-.258l.025.983q-.491.113-1.1.22t-1.229.183q-.624.076-1.191.126t-.983.05q-.542,0-.913-.013t-.7-.05Zm16.317-.554,1.021.189a10.186,10.186,0,0,1-1.619,1.783A10.919,10.919,0,0,1,80.4,27.274q-.076-.113-.183-.246a2.15,2.15,0,0,0-.233-.246q-.126-.113-.227-.189a9.231,9.231,0,0,0,2.224-1.348A6.832,6.832,0,0,0,83.362,23.746Zm-.139.945h4.4v.743H82.543Zm4.12,0h.189l.164-.05.643.391a7.518,7.518,0,0,1-1.606,1.8,12.28,12.28,0,0,1-2.161,1.411A18.406,18.406,0,0,1,82.1,29.29a22.889,22.889,0,0,1-2.558.718,2.553,2.553,0,0,0-.2-.435,2.7,2.7,0,0,0-.265-.4,20.081,20.081,0,0,0,2.444-.624,17.99,17.99,0,0,0,2.362-.945,11.71,11.71,0,0,0,2.029-1.241,6.008,6.008,0,0,0,1.43-1.525Zm-4.486.58a6.976,6.976,0,0,0,1.953,1.663,12.663,12.663,0,0,0,2.741,1.191,19.038,19.038,0,0,0,3.207.687,3.4,3.4,0,0,0-.214.271q-.113.157-.214.321t-.176.3a18.483,18.483,0,0,1-3.226-.8,12.921,12.921,0,0,1-2.791-1.348,8.346,8.346,0,0,1-2.1-1.909Zm-1.4,3.956h6.993v3.856h-.958V30.021H82.379V33.1h-.92Zm.454,2.646h6.061v.794H81.913Zm2.495-10.357h.97v1.651h-.97Zm-4.813,1.147h10.66v2.369h-.97V23.519h-8.77v1.512h-.92Zm17.123.441h6.88v.781h-6.88Zm.365,1.663h6.224v.756H97.083Zm-.63,1.726h7.308V27.3H96.453Zm5.317-4.99.932.265q-.227.416-.473.832t-.447.718l-.743-.239q.189-.328.4-.781A7.342,7.342,0,0,0,101.77,21.5Zm-4.108.3.756-.252q.227.34.447.75a3.8,3.8,0,0,1,.309.712l-.794.315a4.9,4.9,0,0,0-.29-.743A6.792,6.792,0,0,0,97.663,21.806Zm5.229,5.947.718.517a12.482,12.482,0,0,1-.863.926q-.472.46-.863.8l-.617-.479q.265-.227.567-.535t.586-.636Q102.7,28.018,102.892,27.753Zm-6.023.479.655-.428q.365.378.743.838a5.2,5.2,0,0,1,.567.813l-.693.479a7.1,7.1,0,0,0-.548-.838A8.616,8.616,0,0,0,96.869,28.232Zm-.907,3.377q.6-.29,1.443-.743t1.707-.932l.252.781q-.756.441-1.531.882T96.4,32.4Zm3.692-7.963h.907v8.392a1.591,1.591,0,0,1-.088.6.681.681,0,0,1-.328.334,2.344,2.344,0,0,1-.68.132q-.428.031-1.008.031a3.079,3.079,0,0,0-.1-.447,2.029,2.029,0,0,0-.176-.435q.416.013.781.013h.491a.253.253,0,0,0,.164-.057.247.247,0,0,0,.038-.158Zm.869,4.019a8.471,8.471,0,0,0,.794,1.751,6.183,6.183,0,0,0,1.172,1.43A5.413,5.413,0,0,0,104,31.81a2.172,2.172,0,0,0-.214.22q-.113.132-.221.271a2.751,2.751,0,0,0-.183.265,5.853,5.853,0,0,1-1.518-1.134,7.442,7.442,0,0,1-1.191-1.625,9.575,9.575,0,0,1-.806-1.978Zm-8.14-3.415h4.1v.882h-4.1Zm1.764-2.734h.869V33.1h-.869Zm-.025,3.263.592.189q-.151.756-.372,1.562t-.5,1.588q-.277.781-.592,1.449a7.53,7.53,0,0,1-.655,1.147,1.9,1.9,0,0,0-.214-.422q-.151-.233-.265-.4a7.434,7.434,0,0,0,.617-1.021,13.107,13.107,0,0,0,.567-1.285q.265-.693.479-1.417A14.221,14.221,0,0,0,94.122,24.779Zm.832,1.071a4.582,4.582,0,0,1,.334.454q.22.328.479.706t.479.706q.221.328.3.466l-.529.706q-.1-.239-.3-.6t-.428-.769q-.233-.4-.435-.743t-.328-.529Zm15.259,2.885h5.027v.718h-5.027ZM109.04,22.5h7.484v.731H109.04Zm.3,1.537h6.867v.693h-6.867Zm-.68,1.562h8.24v.731h-8.24Zm1.562,4.813h5.053v.718h-5.053Zm-.655-3.352h5.657v.731h-4.775v5.3h-.882Zm5.443,0h.895v4.99a1.33,1.33,0,0,1-.094.554.611.611,0,0,1-.359.3,2.047,2.047,0,0,1-.706.132q-.441.019-1.109.019a2.2,2.2,0,0,0-.107-.41,3.559,3.559,0,0,0-.17-.41q.479.013.888.019t.535-.006q.227-.013.227-.214Zm-2.747-5.544h.932v4.309h-.932Zm-5.519,0h.857V33.1h-.857Zm-1,2.432.706.088q-.025.491-.094,1.1t-.183,1.216a9.324,9.324,0,0,1-.265,1.084l-.743-.252a7.335,7.335,0,0,0,.265-1q.113-.567.2-1.159T105.752,23.948Zm1.966-.34.63-.252q.214.428.416.939a7.606,7.606,0,0,1,.29.851l-.668.328a9.09,9.09,0,0,0-.277-.895Q107.919,24.049,107.717,23.608Zm17.224,2.772h4.133v.781h-4.133Zm-.466-4.284h4.5v.857h-3.629V33.121h-.869Zm4.045,0h.882v2.432a1.33,1.33,0,0,1-.094.554.661.661,0,0,1-.384.315,2.753,2.753,0,0,1-.775.12q-.485.019-1.228.019a2.146,2.146,0,0,0-.107-.422,2.49,2.49,0,0,0-.183-.41q.4.013.737.019t.573.006a2.769,2.769,0,0,0,.328-.013.413.413,0,0,0,.208-.05.177.177,0,0,0,.044-.139Zm-2.344,4.8a11.094,11.094,0,0,0,.92,2.249,9.257,9.257,0,0,0,1.354,1.9,5.877,5.877,0,0,0,1.732,1.3,2.208,2.208,0,0,0-.353.359,4.744,4.744,0,0,0-.3.41,6.779,6.779,0,0,1-1.758-1.462,9.919,9.919,0,0,1-1.373-2.079,14.7,14.7,0,0,1-.964-2.47Zm2.608-.517h.164l.164-.038.592.214a13.8,13.8,0,0,1-.75,2.608,10.049,10.049,0,0,1-1.247,2.262,7.365,7.365,0,0,1-1.758,1.707,2.915,2.915,0,0,0-.643-.643,6.625,6.625,0,0,0,1.663-1.569,9.258,9.258,0,0,0,1.166-2.06,10.438,10.438,0,0,0,.649-2.268Zm-9.878-3.566h4.675v.806h-4.675Zm-.139,6.88h4.977v.819h-4.977Zm-.3-4.8h5.607v.819h-5.607Zm.176,2.608h5.267v.819h-5.267Zm2.205-5.972h.882v3.654h-.882Zm0,6.325h.882v5.229h-.882Zm1.7-2.192.819.2q-.189.454-.372.913a6.08,6.08,0,0,1-.372.788l-.693-.2q.1-.239.22-.542t.227-.611Q122.485,25.9,122.548,25.661Zm-3.213.2.718-.189a5.282,5.282,0,0,1,.391.882,4,4,0,0,1,.2.806l-.756.227a4.3,4.3,0,0,0-.2-.825A7.063,7.063,0,0,0,119.335,25.863Zm17.5-3.73q-.076.378-.2.888a7.7,7.7,0,0,1-.384,1.153,10.509,10.509,0,0,1-.561,1.172,8.656,8.656,0,0,1-.712,1.1,2.7,2.7,0,0,1,.542-.258,3.479,3.479,0,0,1,.624-.157,3.808,3.808,0,0,1,.586-.05,1.9,1.9,0,0,1,1.235.41,1.445,1.445,0,0,1,.5,1.191v.611q0,.372.006.781t.019.8q.013.391.013.68h-.97q.013-.252.025-.592t.019-.718q.006-.378,0-.718t-.006-.58a.963.963,0,0,0-.334-.813,1.329,1.329,0,0,0-.838-.258,2.812,2.812,0,0,0-1.165.258,3.613,3.613,0,0,0-1,.662,6.4,6.4,0,0,0-.548.6q-.271.334-.6.712l-.857-.63a17.062,17.062,0,0,0,1.512-1.651,11.894,11.894,0,0,0,.983-1.43,10.037,10.037,0,0,0,.592-1.191,8.381,8.381,0,0,0,.328-1.065,5.734,5.734,0,0,0,.151-.989Zm-4.309,1.361q.5.063,1.1.1t1.033.038q.844,0,1.814-.044t1.959-.132q.989-.088,1.884-.252l-.013.932q-.655.113-1.4.183t-1.512.113q-.769.044-1.48.063t-1.317.019q-.265,0-.611-.006t-.724-.025q-.378-.019-.731-.044Zm9.626,3.049a3.308,3.308,0,0,0-.359.107q-.2.069-.391.145t-.372.151q-.655.252-1.525.617t-1.777.844a7.972,7.972,0,0,0-1.109.662,3.467,3.467,0,0,0-.756.718,1.33,1.33,0,0,0-.277.813.962.962,0,0,0,.17.592,1.056,1.056,0,0,0,.485.347,2.751,2.751,0,0,0,.725.157q.409.038.9.038.731,0,1.67-.082t1.77-.221l-.025,1.008q-.479.063-1.077.113t-1.21.082q-.611.031-1.165.032A7.533,7.533,0,0,1,136.2,32.5a2.452,2.452,0,0,1-1.178-.58,1.549,1.549,0,0,1-.441-1.184,2.091,2.091,0,0,1,.265-1.04,3.264,3.264,0,0,1,.712-.863,7.41,7.41,0,0,1,.989-.724q.542-.334,1.109-.611.6-.328,1.14-.567t1.014-.441q.479-.2.895-.4l.529-.239q.252-.113.5-.252Zm8.568,1.071h4.927v.731h-4.927Zm0,2.066h4.927v.743h-4.927Zm.013,2.066h5.506v.806h-5.506ZM149.285,22.8h6.892v2.167h-.857V23.62h-5.2v1.348h-.832Zm3.478,3.3h.882v6.073h-.882Zm-1.714-.592h4.813v.819h-4.813v6.779h-.895V26.354l.819-.844Zm1.2-4.007.895.176a13.748,13.748,0,0,1-1.455,3.452,9.267,9.267,0,0,1-2.211,2.545,2.6,2.6,0,0,0-.183-.221q-.12-.132-.252-.258a2.69,2.69,0,0,0-.233-.2,8.089,8.089,0,0,0,2.111-2.337A12.013,12.013,0,0,0,152.246,21.5Zm1.31,2.507.882.214q-.227.491-.46.989a9.064,9.064,0,0,1-.447.851l-.718-.2a9.32,9.32,0,0,0,.416-.914A9.529,9.529,0,0,0,153.556,24.011Zm-8.744-1.651h4.448v.882h-4.448Zm1.273,3.679h2.835v5.519h-2.835v-.832H148.1V26.884h-2.016Zm.2-3.263.907.139q-.189,1.323-.485,2.564a17.17,17.17,0,0,1-.718,2.312,9.236,9.236,0,0,1-1,1.9q-.05-.1-.151-.271l-.2-.34a1.848,1.848,0,0,0-.189-.271,7.51,7.51,0,0,0,.863-1.669,14.424,14.424,0,0,0,.6-2.066Q146.147,23.96,146.286,22.776Zm-.592,3.263h.794v6.514h-.794ZM7.812,39.5h.869A11.7,11.7,0,0,1,8.4,41a7.031,7.031,0,0,1-.529,1.43,4.918,4.918,0,0,1-2.281,2.243,1.879,1.879,0,0,0-.246-.353,2.461,2.461,0,0,0-.309-.315,4.267,4.267,0,0,0,1.273-.863,4.4,4.4,0,0,0,.806-1.109,5.781,5.781,0,0,0,.46-1.247A10.844,10.844,0,0,0,7.812,39.5ZM5.506,41.3l.454-.668q.655.227,1.361.535t1.329.643a10.562,10.562,0,0,1,1.04.624l-.466.743a11,11,0,0,0-1.039-.655q-.624-.353-1.323-.68A11.969,11.969,0,0,0,5.506,41.3Zm5.279-2.142h.895v.391q-.063,1.487-.139,2.407a12.107,12.107,0,0,1-.176,1.4,1.429,1.429,0,0,1-.265.655.773.773,0,0,1-.315.265,1.486,1.486,0,0,1-.441.1,5.222,5.222,0,0,1-.624.019q-.4-.006-.851-.032a2.429,2.429,0,0,0-.076-.435,1.435,1.435,0,0,0-.176-.422q.441.038.806.044t.517.006a.44.44,0,0,0,.4-.126,1.273,1.273,0,0,0,.2-.554,12.2,12.2,0,0,0,.145-1.285q.063-.857.1-2.281Zm-3.856,6.7H7.8V48.91q0,.227.076.29a.6.6,0,0,0,.34.063H9.4a.328.328,0,0,0,.252-.095.759.759,0,0,0,.126-.4q.038-.3.05-.945a1.114,1.114,0,0,0,.227.145,2.209,2.209,0,0,0,.29.12q.151.05.277.088a5.969,5.969,0,0,1-.151,1.191.972.972,0,0,1-.346.58,1.123,1.123,0,0,1-.636.158h-1.4a2.063,2.063,0,0,1-.724-.1.566.566,0,0,1-.347-.365,2.346,2.346,0,0,1-.088-.718Zm-1.2.428.756.2q-.063.554-.183,1.121a5.625,5.625,0,0,1-.334,1.065,2.95,2.95,0,0,1-.542.85l-.706-.454a2.576,2.576,0,0,0,.5-.762,5.84,5.84,0,0,0,.321-.97A9.059,9.059,0,0,0,5.733,46.289Zm1.4-1.575L7.7,44.16a6.829,6.829,0,0,1,.844.491q.428.29.806.592a4.511,4.511,0,0,1,.6.567l-.58.63a5.606,5.606,0,0,0-.592-.58,9.4,9.4,0,0,0-.794-.611Q7.56,44.954,7.132,44.714Zm2.948,1.663.769-.315a9.474,9.474,0,0,1,.636,1,9.014,9.014,0,0,1,.5,1.065,5.924,5.924,0,0,1,.3.958l-.844.34a5.332,5.332,0,0,0-.277-.958,10.434,10.434,0,0,0-.485-1.077A10.091,10.091,0,0,0,10.08,46.378Zm-4.473-7.22h5.582v.806H5.607ZM1.046,42.434H4.624v.743H1.046Zm.05-3.377h3.49v.756H1.1Zm-.05,5.053H4.624v.756H1.046Zm-.567-3.4H4.99V41.5H.479Zm1,5.1H4.637V49.49H1.474v-.781H3.818V46.6H1.474Zm-.441,0H1.84v4.259H1.033Zm16.355-6.426q-.05.315-.076.636t-.038.636q-.025.529-.05,1.31t-.05,1.657q-.025.876-.038,1.745t-.013,1.562a2.044,2.044,0,0,0,.265,1.109,1.453,1.453,0,0,0,.731.592,3.014,3.014,0,0,0,1.071.176,5.1,5.1,0,0,0,1.55-.221A4.671,4.671,0,0,0,21.974,48a5.461,5.461,0,0,0,.964-.838A9.4,9.4,0,0,0,23.7,46.2l.718.857a8.459,8.459,0,0,1-.8.939,6.4,6.4,0,0,1-1.115.9,6.083,6.083,0,0,1-1.481.68,6.2,6.2,0,0,1-1.871.265,4.249,4.249,0,0,1-1.588-.277,2.227,2.227,0,0,1-1.084-.895,3.031,3.031,0,0,1-.391-1.638q0-.567.013-1.254t.038-1.418q.025-.731.038-1.43T16.2,41.64q.013-.592.013-.983,0-.353-.025-.68a5.938,5.938,0,0,0-.076-.6Zm12.26,10.521q-.4-.5-.882-1.008t-.964-.97q-.485-.466-.939-.832l.819-.718q.454.365.958.844t.989.983q.485.5.876.97Zm13.671-6.287h7.951v.857H43.319Zm.416-2.6h7.157v.844H43.735Zm2.974.378h.932v1.89a7.052,7.052,0,0,1-.12,1.254,4.554,4.554,0,0,1-.485,1.342,4.779,4.779,0,0,1-1.084,1.31,7.743,7.743,0,0,1-1.915,1.172.937.937,0,0,0-.164-.239q-.113-.126-.233-.252a1.4,1.4,0,0,0-.233-.2,6.781,6.781,0,0,0,1.827-1.027,3.931,3.931,0,0,0,.977-1.147,3.826,3.826,0,0,0,.4-1.153,6.528,6.528,0,0,0,.094-1.071Zm1.2,2.772a5.066,5.066,0,0,0,1.2,2.186,4.8,4.8,0,0,0,2.186,1.266,1.716,1.716,0,0,0-.214.233q-.113.145-.214.29t-.176.271a5.183,5.183,0,0,1-2.3-1.512,6.573,6.573,0,0,1-1.3-2.57Zm-5.292-.58v4.46h-.92V44.475H39.929v-.882Zm0,4.045a2.735,2.735,0,0,0,1.26,1.033,5.355,5.355,0,0,0,1.9.378q.517.025,1.254.031t1.55-.006q.813-.013,1.569-.038t1.323-.063a1.467,1.467,0,0,0-.126.277q-.063.176-.113.359t-.076.321q-.517.025-1.222.038t-1.462.019q-.756.006-1.468,0t-1.228-.019a6.35,6.35,0,0,1-2.111-.4,3.587,3.587,0,0,1-1.48-1.109q-.454.4-.932.813t-1,.838l-.491-.97q.454-.3.976-.7t1.014-.8Zm-2.545-8.152.693-.567a9.213,9.213,0,0,1,.844.611q.428.346.794.7a4.772,4.772,0,0,1,.58.655l-.756.63a4.056,4.056,0,0,0-.548-.668q-.359-.365-.781-.725A10.18,10.18,0,0,0,40.068,39.485Zm9.173-.869.97.315q-.328.542-.693,1.115t-.68.977l-.769-.29q.2-.29.422-.661t.422-.756A7.61,7.61,0,0,0,49.241,38.616Zm-5.015.365.794-.328a8.674,8.674,0,0,1,.712,1.027,4.458,4.458,0,0,1,.46.989l-.857.391a4.837,4.837,0,0,0-.428-1.014A7.98,7.98,0,0,0,44.226,38.981Zm13.293.227H63.34v.781H57.519Zm-.151,3.5h6.2v.781h-6.2Zm0,1.751h6.174v.781H57.368Zm.365,4.36h5.456v.794H57.733Zm-1.4-7.862h8.2v.794h-8.2Zm.907,5.254H63.68V50.17h-.945V46.982H58.149v3.226h-.907Zm-1.336-7.56.882.277a19.01,19.01,0,0,1-1,2.092,18.634,18.634,0,0,1-1.235,1.94A14.427,14.427,0,0,1,53.2,44.576q-.05-.113-.145-.29t-.2-.353a2.494,2.494,0,0,0-.189-.29,11.834,11.834,0,0,0,1.235-1.4,15.446,15.446,0,0,0,1.121-1.714A13.771,13.771,0,0,0,55.906,38.654ZM54.6,41.9l.882-.895.025.013V50.17H54.6ZM69.8,39.385q-.05.315-.076.636t-.038.636q-.025.529-.05,1.31t-.05,1.657q-.025.876-.038,1.745t-.013,1.562a2.044,2.044,0,0,0,.265,1.109,1.453,1.453,0,0,0,.731.592,3.014,3.014,0,0,0,1.071.176,5.1,5.1,0,0,0,1.55-.221A4.671,4.671,0,0,0,74.39,48a5.461,5.461,0,0,0,.964-.838,9.4,9.4,0,0,0,.762-.958l.718.857a8.46,8.46,0,0,1-.8.939,6.4,6.4,0,0,1-1.115.9,6.083,6.083,0,0,1-1.48.68,6.2,6.2,0,0,1-1.871.265,4.249,4.249,0,0,1-1.588-.277,2.227,2.227,0,0,1-1.084-.895,3.031,3.031,0,0,1-.391-1.638q0-.567.013-1.254t.038-1.418q.025-.731.038-1.43t.025-1.292q.013-.592.013-.983,0-.353-.025-.68a5.938,5.938,0,0,0-.076-.6Zm16.04-.189q-.025.164-.044.365t-.031.479q0,.189-.006.567t-.006.851v1.833q0,.63.025,1.323t.063,1.348q.038.655.063,1.2t.025.857a1.818,1.818,0,0,1-.208.844,1.582,1.582,0,0,1-.693.661,2.82,2.82,0,0,1-1.317.258,3.789,3.789,0,0,1-2.079-.472,1.667,1.667,0,0,1-.372-2.388,2.282,2.282,0,0,1,1-.674A4.453,4.453,0,0,1,83.828,46a7.25,7.25,0,0,1,1.871.233,9.033,9.033,0,0,1,1.607.586,10.281,10.281,0,0,1,1.3.737q.567.384.932.687l-.58.895a9.848,9.848,0,0,0-2.211-1.55,7.307,7.307,0,0,0-1.424-.548,6.13,6.13,0,0,0-1.619-.208,2.576,2.576,0,0,0-1.38.3.875.875,0,0,0-.472.743.827.827,0,0,0,.176.51,1.184,1.184,0,0,0,.567.372A3.067,3.067,0,0,0,83.6,48.9a2.231,2.231,0,0,0,.668-.095.949.949,0,0,0,.485-.334,1.079,1.079,0,0,0,.183-.668q0-.365-.019-.951T84.874,45.6q-.025-.661-.044-1.279t-.019-1.033V41.527q0-.441.006-.844t.006-.731q0-.151-.013-.391a2.727,2.727,0,0,0-.038-.365Zm-4.826,1.373q.315.05.731.1t.876.095q.46.044.882.063t.737.019q1.2,0,2.451-.088t2.476-.29l-.013.92q-.693.076-1.512.151t-1.682.126q-.863.05-1.707.05-.441,0-1.046-.038T82.02,41.59q-.586-.05-.989-.088Zm-.063,2.671q.34.05.756.1t.857.076q.441.025.844.044t.718.019q.92,0,1.783-.044t1.7-.126q.838-.082,1.657-.208l-.013.945q-.63.088-1.254.145t-1.247.094q-.624.038-1.273.057t-1.367.019q-.428,0-.989-.025t-1.134-.063q-.573-.038-1.027-.088Zm18.673-4.019q0,.063-.019.227t-.025.321q-.006.157-.019.246-.013.239-.013.655v.907q0,.491.006,1t.013.945q.006.441.006.743l-.97-.479V42.415q0-.472-.006-.939t-.019-.857q-.013-.391-.025-.6-.013-.252-.038-.485t-.038-.309Zm-6.691,1.751q.517,0,1.172-.019t1.392-.044q.737-.025,1.493-.038l1.455-.025q.7-.013,1.292-.013h2.2q.5,0,.882.006t.611.006l-.013.932q-.529-.025-1.418-.044t-2.274-.019q-.819,0-1.707.019t-1.783.044q-.895.025-1.733.069t-1.543.095Zm6.615,3.667a3.519,3.519,0,0,1-.246,1.4,1.824,1.824,0,0,1-.68.844,1.845,1.845,0,0,1-1.014.277,2.257,2.257,0,0,1-.762-.132,1.949,1.949,0,0,1-.668-.4,1.912,1.912,0,0,1-.466-.668,2.267,2.267,0,0,1-.17-.9,2.1,2.1,0,0,1,.3-1.121,2.231,2.231,0,0,1,.813-.781,2.2,2.2,0,0,1,1.1-.29A1.992,1.992,0,0,1,99.729,44.1a3.211,3.211,0,0,1,.252,1.3,4.771,4.771,0,0,1-.183,1.285,4.138,4.138,0,0,1-.6,1.26,4.438,4.438,0,0,1-1.147,1.1,6.468,6.468,0,0,1-1.833.825l-.844-.832a8.04,8.04,0,0,0,1.537-.517,4.088,4.088,0,0,0,1.147-.769,3.076,3.076,0,0,0,.712-1.058,3.659,3.659,0,0,0,.246-1.386,1.736,1.736,0,0,0-.365-1.235,1.182,1.182,0,0,0-.882-.378,1.274,1.274,0,0,0-.617.157,1.239,1.239,0,0,0-.472.46,1.363,1.363,0,0,0-.183.718,1.143,1.143,0,0,0,.384.92,1.345,1.345,0,0,0,.9.328,1.04,1.04,0,0,0,.668-.221,1.226,1.226,0,0,0,.4-.668,2.776,2.776,0,0,0,.019-1.115Zm6.464,1.487a1.842,1.842,0,0,1,.97.258,2.026,2.026,0,0,1,.693.693,1.888,1.888,0,0,1,0,1.928,2.082,2.082,0,0,1-.693.7,1.9,1.9,0,0,1-1.934,0,2.009,2.009,0,0,1-.693-.7,1.928,1.928,0,0,1,0-1.928,1.941,1.941,0,0,1,.7-.693A1.862,1.862,0,0,1,106.016,46.126Zm0,3.2a1.269,1.269,0,0,0,1.285-1.285,1.223,1.223,0,0,0-.17-.63,1.321,1.321,0,0,0-.46-.466,1.235,1.235,0,0,0-.655-.176,1.189,1.189,0,0,0-.63.176,1.375,1.375,0,0,0-.466.466,1.189,1.189,0,0,0-.176.63,1.245,1.245,0,0,0,.176.649,1.305,1.305,0,0,0,.466.466A1.223,1.223,0,0,0,106.016,49.326Z" transform="translate(989.726 6981.063)" fill="#333"/>
    <g id="グループ_688" data-name="グループ 688">
      <path id="パス_532" data-name="パス 532" d="M979.274,6984.975H957.78a3.487,3.487,0,0,0-3.533,3.533V7010a3.583,3.583,0,0,0,3.533,3.533h21.494a3.583,3.583,0,0,0,3.533-3.533v-21.494A3.487,3.487,0,0,0,979.274,6984.975Z" fill="#68be8d"/>
      <path id="パス_725" data-name="パス 725" d="M6.732,0V-9.484q0-.535.04-1.337t.059-1.356H6.752q-.277.5-.564.98l-.6,1.02L2.277-5.346h8.1V-3.9H.4V-5.089l6.039-9.029h2V0Z" transform="translate(963.032 7006.779)" fill="#fff"/>
    </g>
  </g>
</svg>
