<svg xmlns="http://www.w3.org/2000/svg" width="35.467" height="41.901" viewBox="0 0 35.467 41.901">
  <g id="グループ_547" data-name="グループ 547" transform="translate(-607.4 -123.782)">
    <path id="パス_340" data-name="パス 340" d="M630.813,136.574a8.44,8.44,0,0,1,.228,1.017c.011.068.021.137.03.206q.042.311.061.624c.017.278.02.559.009.839-.005.141-.014.282-.026.422s-.028.282-.048.423-.042.281-.068.422a8.582,8.582,0,0,1-.637,2.012c-.058.127-.119.252-.183.376a8.31,8.31,0,0,1-.536.893c-.079.115-.16.227-.245.338a8.531,8.531,0,0,1-1.142,1.226,8.764,8.764,0,0,1-1.94,1.3c-.127.062-.254.12-.383.175s-.258.107-.389.156a8.462,8.462,0,0,1-2.025.48c-.139.015-.277.027-.417.035s-.279.013-.419.015-.28,0-.42-.006-.281-.014-.422-.026-.282-.028-.423-.048-.281-.042-.422-.068a8.574,8.574,0,0,1-6.853-10c.026-.141.056-.28.089-.418s.069-.276.108-.411.082-.27.128-.4.095-.265.147-.4.107-.258.165-.385.119-.252.183-.376a8.482,8.482,0,0,1,1.179-1.715c.093-.1.188-.207.286-.307s.2-.2.3-.293a8.73,8.73,0,0,1,2.1-1.437,8.463,8.463,0,0,1,1.366-.527c.134-.039.268-.074.4-.106.2-.048.407-.089.613-.122a8.579,8.579,0,0,1,1.039-.1l.21,0c.14,0,.28,0,.421.006a8.667,8.667,0,0,1,1.266.142c.141.026.28.056.419.089s.275.069.411.108.27.082.4.128c.265.091.525.2.779.312q.285.131.56.282c.061.033.121.068.181.1a8.482,8.482,0,0,1,.866.579,8.661,8.661,0,0,1,3.048,4.449Z" fill="#fff"/>
    <g id="グループ_546" data-name="グループ 546">
      <path id="パス_341" data-name="パス 341" d="M635.175,165.684h0a5.711,5.711,0,0,1-4.21-2.218L624.478,154c-.189.025-.356.047-.4.051-.142.014-1.146.071-1.289.071-.089,0-.983-.018-1.072-.023-.12-.007-1.045-.1-1.164-.113a15.5,15.5,0,0,1-10.491-6.458,15.193,15.193,0,0,1-1.939-13.184,16.278,16.278,0,0,1,2.158-4.283c.065-.09.614-.792.686-.877l.747-.822a15.314,15.314,0,0,1,4.226-3.049c.1-.048.916-.41,1.017-.451a15.019,15.019,0,0,1,5.6-1.077,18.485,18.485,0,0,1,2.809.261,15.249,15.249,0,0,1,2.52.7c.1.037.923.379,1.021.423a15.16,15.16,0,0,1,8.814,12.853c.007.109.027,1,.026,1.111a15.224,15.224,0,0,1-.261,2.614c-.018.094-.2.911-.223,1-.033.13-.305,1.038-.35,1.164-.027.077-.332.875-.363.951-.046.112-.369.81-.424.918-.029.056-.218.4-.375.683l6.4,9.345a5.6,5.6,0,0,1-1.326,7.093l-2.763,1.892A5.751,5.751,0,0,1,635.175,165.684Z" fill="#fff"/>
      <path id="パス_342" data-name="パス 342" d="M638.433,158.35l-6.574-9.6a.6.6,0,0,0-.736-.211l-1.061-1.548a.389.389,0,0,0-.293-.169c.052-.047.1-.1.154-.143l.009-.009q.384-.364.729-.763l.013-.016.127-.15.016-.019q.259-.316.493-.649l.019-.027c.034-.048.066-.1.1-.145l.032-.048c.031-.046.062-.093.092-.14l.032-.05.091-.145.006-.011c.064-.106.127-.213.187-.321l.026-.044c.023-.043.047-.086.07-.13l.043-.079.063-.123.045-.09c.02-.039.04-.079.059-.119l.047-.1c.018-.038.036-.076.053-.114.028-.062.056-.124.083-.186.016-.037.031-.074.047-.112s.035-.083.052-.125.027-.068.04-.1l.048-.124.038-.1c.016-.044.032-.088.047-.132l.033-.1c.019-.054.036-.108.054-.162l.021-.066c.024-.075.047-.151.069-.227l.021-.074c.015-.054.031-.108.045-.162l.023-.088c.013-.051.026-.1.038-.153l.022-.089c.012-.054.025-.109.036-.164l.017-.076c.017-.08.033-.161.048-.242a10.711,10.711,0,0,0,.184-1.837c0-.087,0-.175,0-.262,0-.174-.008-.348-.018-.521a10.516,10.516,0,0,0-.265-1.795,10.749,10.749,0,0,0-4.344-6.342,10.531,10.531,0,0,0-1.579-.9q-.237-.108-.48-.206c-.08-.032-.162-.063-.243-.094a10.763,10.763,0,0,0-1.78-.492,10.917,10.917,0,0,0-1.314-.164c-.087,0-.175-.01-.262-.013a10.529,10.529,0,0,0-4.325.746c-.162.065-.322.133-.481.206-.079.036-.158.074-.237.112a10.815,10.815,0,0,0-2.984,2.153c-.182.186-.358.379-.525.578s-.328.4-.48.614a10.554,10.554,0,0,0-1.345,2.514c-.06.163-.117.329-.17.5a10.72,10.72,0,0,0-.322,1.284,10.665,10.665,0,0,0,8.526,12.444c.079.015.159.029.239.042l.075.012.167.025.084.011c.057.008.113.015.17.021l.072.009c.079.009.158.017.236.023l.05,0c.062.006.125.01.188.014l.09.006.15.007.1,0,.154,0,.086,0h.223l.095,0,.14,0,.111,0,.123-.006.116-.007.119-.008.2-.017.126-.012.132-.016.1-.011.135-.019.089-.013.142-.022.063-.011c.111-.019.221-.04.332-.062l.02,0,.16-.035.061-.013.157-.038.053-.013q.371-.093.735-.213l.036-.011c.057-.02.115-.039.172-.06l.021-.007q.375-.132.739-.294l.025-.011.176-.08a.394.394,0,0,0,.023.4l1.065,1.554a.6.6,0,0,0-.048.739l6.575,9.6a.6.6,0,0,0,.836.156l2.763-1.892A.6.6,0,0,0,638.433,158.35Zm-8.254-15.435a8.31,8.31,0,0,1-.536.893c-.079.115-.16.227-.245.338a8.531,8.531,0,0,1-1.142,1.226,8.764,8.764,0,0,1-1.94,1.3c-.127.062-.254.12-.383.175s-.258.107-.389.156a8.462,8.462,0,0,1-2.025.48c-.139.015-.277.027-.417.035s-.279.013-.419.015-.28,0-.42-.006-.281-.014-.422-.026-.282-.028-.423-.048-.281-.042-.422-.068a8.574,8.574,0,0,1-6.853-10c.026-.141.056-.28.089-.418s.069-.276.108-.411.082-.27.128-.4.095-.265.147-.4.107-.258.165-.385.119-.252.183-.376a8.482,8.482,0,0,1,1.179-1.715c.093-.1.188-.207.286-.307s.2-.2.3-.293a8.73,8.73,0,0,1,2.1-1.437,8.463,8.463,0,0,1,1.366-.527c.134-.039.268-.074.4-.106.2-.048.407-.089.613-.122a8.579,8.579,0,0,1,1.039-.1l.21,0c.14,0,.28,0,.421.006a8.667,8.667,0,0,1,1.266.142c.141.026.28.056.419.089s.275.069.411.108.27.082.4.128c.265.091.525.2.779.312q.285.131.56.282c.061.033.121.068.181.1a8.482,8.482,0,0,1,.866.579,8.661,8.661,0,0,1,3.048,4.449,8.44,8.44,0,0,1,.228,1.017c.011.068.021.137.03.206q.042.311.061.624c.017.278.02.559.009.839-.005.141-.014.282-.026.422s-.028.282-.048.423-.042.281-.068.422a8.582,8.582,0,0,1-.637,2.012C630.3,142.666,630.243,142.791,630.179,142.915Z" fill="#ff8e66"/>
    </g>
    <path id="パス_343" data-name="パス 343" d="M627.715,134.983a.589.589,0,0,1-.487-.256,5.237,5.237,0,0,0-7.281-1.361.589.589,0,0,1-.666-.972,6.416,6.416,0,0,1,8.919,1.667.589.589,0,0,1-.486.923Z" fill="#ff8e66"/>
    <path id="パス_344" data-name="パス 344" d="M627.086,149.034l1.065,1.554a.6.6,0,0,0-.048.739l6.575,9.6a.6.6,0,0,0,.836.156l2.763-1.892a.6.6,0,0,0,.156-.837l-6.574-9.6a.6.6,0,0,0-.736-.211l-1.061-1.548" fill="#ff8e66"/>
  </g>
</svg>
