<svg xmlns="http://www.w3.org/2000/svg" width="960" height="453.02" viewBox="0 0 960 453.02">
  <g id="グループ_760" data-name="グループ 760" transform="translate(-203 -4347.939)">
    <g id="グループ_487" data-name="グループ 487">
      <rect id="長方形_269" data-name="長方形 269" width="960" height="453.02" rx="10" transform="translate(203 4347.939)" fill="#fff"/>
      <path id="長方形_270" data-name="長方形 270" d="M9.972-1.5H20.005a1.5,1.5,0,0,1,1.5,1.5,1.5,1.5,0,0,1-1.5,1.5H9.976A1.5,1.5,0,0,1,8.476,0,1.5,1.5,0,0,1,9.972-1.5Zm20.038,0H40.016a1.5,1.5,0,0,1,1.5,1.5,1.5,1.5,0,0,1-1.5,1.5H30.01A1.5,1.5,0,0,1,28.51,0,1.5,1.5,0,0,1,30.01-1.5Zm20.011,0H60.026a1.5,1.5,0,0,1,1.5,1.5,1.5,1.5,0,0,1-1.5,1.5H50.021a1.5,1.5,0,0,1-1.5-1.5A1.5,1.5,0,0,1,50.021-1.5Zm20.01,0H80.037a1.5,1.5,0,0,1,1.5,1.5,1.5,1.5,0,0,1-1.5,1.5H70.031a1.5,1.5,0,0,1-1.5-1.5A1.5,1.5,0,0,1,70.031-1.5Zm20.01,0h10.005a1.5,1.5,0,0,1,1.5,1.5,1.5,1.5,0,0,1-1.5,1.5H90.042a1.5,1.5,0,0,1-1.5-1.5A1.5,1.5,0,0,1,90.042-1.5Zm20.011,0h10.005a1.5,1.5,0,0,1,1.5,1.5,1.5,1.5,0,0,1-1.5,1.5H110.053a1.5,1.5,0,0,1-1.5-1.5A1.5,1.5,0,0,1,110.053-1.5Zm20.01,0h10.005a1.5,1.5,0,0,1,1.5,1.5,1.5,1.5,0,0,1-1.5,1.5H130.063a1.5,1.5,0,0,1-1.5-1.5A1.5,1.5,0,0,1,130.063-1.5Zm20.01,0h10.005a1.5,1.5,0,0,1,1.5,1.5,1.5,1.5,0,0,1-1.5,1.5H150.073a1.5,1.5,0,0,1-1.5-1.5A1.5,1.5,0,0,1,150.073-1.5Zm20.011,0h10.005a1.5,1.5,0,0,1,1.5,1.5,1.5,1.5,0,0,1-1.5,1.5H170.084a1.5,1.5,0,0,1-1.5-1.5A1.5,1.5,0,0,1,170.084-1.5Zm20.01,0H200.1A1.5,1.5,0,0,1,201.6,0a1.5,1.5,0,0,1-1.5,1.5H190.095a1.5,1.5,0,0,1-1.5-1.5A1.5,1.5,0,0,1,190.095-1.5Zm20.01,0H220.11a1.5,1.5,0,0,1,1.5,1.5,1.5,1.5,0,0,1-1.5,1.5H210.105a1.5,1.5,0,0,1-1.5-1.5A1.5,1.5,0,0,1,210.105-1.5Zm20.011,0h10.005a1.5,1.5,0,0,1,1.5,1.5,1.5,1.5,0,0,1-1.5,1.5H230.116a1.5,1.5,0,0,1-1.5-1.5A1.5,1.5,0,0,1,230.116-1.5Zm20.01,0h10.005a1.5,1.5,0,0,1,1.5,1.5,1.5,1.5,0,0,1-1.5,1.5H250.126a1.5,1.5,0,0,1-1.5-1.5A1.5,1.5,0,0,1,250.126-1.5Zm20.01,0h10.005a1.5,1.5,0,0,1,1.5,1.5,1.5,1.5,0,0,1-1.5,1.5H270.137a1.5,1.5,0,0,1-1.5-1.5A1.5,1.5,0,0,1,270.137-1.5Zm20.011,0h10.005a1.5,1.5,0,0,1,1.5,1.5,1.5,1.5,0,0,1-1.5,1.5H290.147a1.5,1.5,0,0,1-1.5-1.5A1.5,1.5,0,0,1,290.147-1.5Zm20.01,0h10.005a1.5,1.5,0,0,1,1.5,1.5,1.5,1.5,0,0,1-1.5,1.5H310.158a1.5,1.5,0,0,1-1.5-1.5A1.5,1.5,0,0,1,310.158-1.5Zm20.01,0h10.005a1.5,1.5,0,0,1,1.5,1.5,1.5,1.5,0,0,1-1.5,1.5H330.168a1.5,1.5,0,0,1-1.5-1.5A1.5,1.5,0,0,1,330.168-1.5Zm20.011,0h10.005a1.5,1.5,0,0,1,1.5,1.5,1.5,1.5,0,0,1-1.5,1.5H350.179a1.5,1.5,0,0,1-1.5-1.5A1.5,1.5,0,0,1,350.179-1.5Zm20.01,0h10.005a1.5,1.5,0,0,1,1.5,1.5,1.5,1.5,0,0,1-1.5,1.5H370.189a1.5,1.5,0,0,1-1.5-1.5A1.5,1.5,0,0,1,370.189-1.5Zm20.011,0H400.2A1.5,1.5,0,0,1,401.7,0a1.5,1.5,0,0,1-1.5,1.5H390.2A1.5,1.5,0,0,1,388.7,0,1.5,1.5,0,0,1,390.2-1.5Zm20.01,0h10.005a1.5,1.5,0,0,1,1.5,1.5,1.5,1.5,0,0,1-1.5,1.5H410.21a1.5,1.5,0,0,1-1.5-1.5A1.5,1.5,0,0,1,410.21-1.5Zm20.01,0h10.005a1.5,1.5,0,0,1,1.5,1.5,1.5,1.5,0,0,1-1.5,1.5H430.221a1.5,1.5,0,0,1-1.5-1.5A1.5,1.5,0,0,1,430.221-1.5Zm20.011,0h10.005a1.5,1.5,0,0,1,1.5,1.5,1.5,1.5,0,0,1-1.5,1.5H450.231a1.5,1.5,0,0,1-1.5-1.5A1.5,1.5,0,0,1,450.231-1.5Zm20.01,0h10.005a1.5,1.5,0,0,1,1.5,1.5,1.5,1.5,0,0,1-1.5,1.5H470.242a1.5,1.5,0,0,1-1.5-1.5A1.5,1.5,0,0,1,470.242-1.5Zm20.01,0h10.005a1.5,1.5,0,0,1,1.5,1.5,1.5,1.5,0,0,1-1.5,1.5H490.252a1.5,1.5,0,0,1-1.5-1.5A1.5,1.5,0,0,1,490.252-1.5Zm20.011,0h10.005a1.5,1.5,0,0,1,1.5,1.5,1.5,1.5,0,0,1-1.5,1.5H510.263a1.5,1.5,0,0,1-1.5-1.5A1.5,1.5,0,0,1,510.263-1.5Zm20.01,0h10.005a1.5,1.5,0,0,1,1.5,1.5,1.5,1.5,0,0,1-1.5,1.5H530.273a1.5,1.5,0,0,1-1.5-1.5A1.5,1.5,0,0,1,530.273-1.5Zm20.01,0h10.005a1.5,1.5,0,0,1,1.5,1.5,1.5,1.5,0,0,1-1.5,1.5H550.284a1.5,1.5,0,0,1-1.5-1.5A1.5,1.5,0,0,1,550.284-1.5Zm20.011,0H580.3A1.5,1.5,0,0,1,581.8,0a1.5,1.5,0,0,1-1.5,1.5H570.294a1.5,1.5,0,0,1-1.5-1.5A1.5,1.5,0,0,1,570.294-1.5Zm20.01,0H600.31a1.5,1.5,0,0,1,1.5,1.5,1.5,1.5,0,0,1-1.5,1.5H590.3A1.5,1.5,0,0,1,588.8,0,1.5,1.5,0,0,1,590.3-1.5Zm20.01,0h10.005a1.5,1.5,0,0,1,1.5,1.5,1.5,1.5,0,0,1-1.5,1.5H610.315a1.5,1.5,0,0,1-1.5-1.5A1.5,1.5,0,0,1,610.315-1.5Zm20.011,0h10.005a1.5,1.5,0,0,1,1.5,1.5,1.5,1.5,0,0,1-1.5,1.5H630.326a1.5,1.5,0,0,1-1.5-1.5A1.5,1.5,0,0,1,630.326-1.5Zm20.01,0h10.005a1.5,1.5,0,0,1,1.5,1.5,1.5,1.5,0,0,1-1.5,1.5H650.336a1.5,1.5,0,0,1-1.5-1.5A1.5,1.5,0,0,1,650.336-1.5Zm20.01,0h10.005a1.5,1.5,0,0,1,1.5,1.5,1.5,1.5,0,0,1-1.5,1.5H670.347a1.5,1.5,0,0,1-1.5-1.5A1.5,1.5,0,0,1,670.347-1.5Zm20.011,0h10.005a1.5,1.5,0,0,1,1.5,1.5,1.5,1.5,0,0,1-1.5,1.5H690.357a1.5,1.5,0,0,1-1.5-1.5A1.5,1.5,0,0,1,690.357-1.5Zm20.01,0h10.005a1.5,1.5,0,0,1,1.5,1.5,1.5,1.5,0,0,1-1.5,1.5H710.368a1.5,1.5,0,0,1-1.5-1.5A1.5,1.5,0,0,1,710.368-1.5Zm20.01,0h10.005a1.5,1.5,0,0,1,1.5,1.5,1.5,1.5,0,0,1-1.5,1.5H730.378a1.5,1.5,0,0,1-1.5-1.5A1.5,1.5,0,0,1,730.378-1.5Zm20.011,0h10.005a1.5,1.5,0,0,1,1.5,1.5,1.5,1.5,0,0,1-1.5,1.5H750.389a1.5,1.5,0,0,1-1.5-1.5A1.5,1.5,0,0,1,750.389-1.5Zm20.01,0H780.4A1.5,1.5,0,0,1,781.9,0a1.5,1.5,0,0,1-1.5,1.5H770.4A1.5,1.5,0,0,1,768.9,0,1.5,1.5,0,0,1,770.4-1.5Zm20.01,0h10.005a1.5,1.5,0,0,1,1.5,1.5,1.5,1.5,0,0,1-1.5,1.5H790.41a1.5,1.5,0,0,1-1.5-1.5A1.5,1.5,0,0,1,790.41-1.5Zm20.011,0h10.005a1.5,1.5,0,0,1,1.5,1.5,1.5,1.5,0,0,1-1.5,1.5H810.42a1.5,1.5,0,0,1-1.5-1.5A1.5,1.5,0,0,1,810.42-1.5Zm20.01,0h10.005a1.5,1.5,0,0,1,1.5,1.5,1.5,1.5,0,0,1-1.5,1.5H830.431a1.5,1.5,0,0,1-1.5-1.5A1.5,1.5,0,0,1,830.431-1.5Zm20.01,0h10.005a1.5,1.5,0,0,1,1.5,1.5,1.5,1.5,0,0,1-1.5,1.5H850.441a1.5,1.5,0,0,1-1.5-1.5A1.5,1.5,0,0,1,850.441-1.5Zm20.011,0h10.005a1.5,1.5,0,0,1,1.5,1.5,1.5,1.5,0,0,1-1.5,1.5H870.452a1.5,1.5,0,0,1-1.5-1.5A1.5,1.5,0,0,1,870.452-1.5Zm20.01,0h10.005a1.5,1.5,0,0,1,1.5,1.5,1.5,1.5,0,0,1-1.5,1.5H890.462a1.5,1.5,0,0,1-1.5-1.5A1.5,1.5,0,0,1,890.462-1.5Zm20.01,0h10.005a1.5,1.5,0,0,1,1.5,1.5,1.5,1.5,0,0,1-1.5,1.5H910.473a1.5,1.5,0,0,1-1.5-1.5A1.5,1.5,0,0,1,910.473-1.5Zm19.311,2.722a1.5,1.5,0,0,1,1.029.408A11.472,11.472,0,0,1,934.426,10v1.853a1.5,1.5,0,1,1-3,0V10a8.421,8.421,0,0,0-2.671-6.187,1.5,1.5,0,0,1,1.029-2.592ZM1.57,3.12A1.5,1.5,0,0,1,2.833,5.428,8.469,8.469,0,0,0,1.5,10v4.325a1.5,1.5,0,0,1-1.5,1.5,1.5,1.5,0,0,1-1.5-1.5V10A11.464,11.464,0,0,1,.305,3.812,1.5,1.5,0,0,1,1.57,3.12ZM932.926,20.358a1.5,1.5,0,0,1,1.5,1.5V31.863a1.5,1.5,0,0,1-3,0V21.858A1.5,1.5,0,0,1,932.926,20.358ZM0,22.83a1.5,1.5,0,0,1,1.5,1.5V34.335a1.5,1.5,0,0,1-1.5,1.5,1.5,1.5,0,0,1-1.5-1.5V24.33A1.5,1.5,0,0,1,0,22.83ZM932.926,40.368a1.5,1.5,0,0,1,1.5,1.5V51.874a1.5,1.5,0,0,1-3,0V41.868A1.5,1.5,0,0,1,932.926,40.368ZM0,42.84a1.5,1.5,0,0,1,1.5,1.5V54.346a1.5,1.5,0,0,1-1.5,1.5,1.5,1.5,0,0,1-1.5-1.5V44.34A1.5,1.5,0,0,1,0,42.84ZM932.926,60.379a1.5,1.5,0,0,1,1.5,1.5V71.884a1.5,1.5,0,0,1-3,0V61.879A1.5,1.5,0,0,1,932.926,60.379ZM0,62.851a1.5,1.5,0,0,1,1.5,1.5V74.356a1.5,1.5,0,0,1-1.5,1.5,1.5,1.5,0,0,1-1.5-1.5V64.351A1.5,1.5,0,0,1,0,62.851ZM932.926,80.389a1.5,1.5,0,0,1,1.5,1.5V91.895a1.5,1.5,0,0,1-3,0V81.889A1.5,1.5,0,0,1,932.926,80.389ZM0,82.861a1.5,1.5,0,0,1,1.5,1.5V94.367a1.5,1.5,0,0,1-1.5,1.5,1.5,1.5,0,0,1-1.5-1.5V84.361A1.5,1.5,0,0,1,0,82.861ZM932.926,100.4a1.5,1.5,0,0,1,1.5,1.5v10.005a1.5,1.5,0,0,1-3,0V101.9A1.5,1.5,0,0,1,932.926,100.4ZM0,102.872a1.5,1.5,0,0,1,1.5,1.5v10.005a1.5,1.5,0,0,1-1.5,1.5,1.5,1.5,0,0,1-1.5-1.5V104.372A1.5,1.5,0,0,1,0,102.872ZM932.926,120.41a1.5,1.5,0,0,1,1.5,1.5v10.005a1.5,1.5,0,0,1-3,0V121.91A1.5,1.5,0,0,1,932.926,120.41ZM0,122.882a1.5,1.5,0,0,1,1.5,1.5v10.005a1.5,1.5,0,0,1-1.5,1.5,1.5,1.5,0,0,1-1.5-1.5V124.382A1.5,1.5,0,0,1,0,122.882Zm932.926,17.538a1.5,1.5,0,0,1,1.5,1.5v10.005a1.5,1.5,0,0,1-3,0V141.921A1.5,1.5,0,0,1,932.926,140.421ZM0,142.893a1.5,1.5,0,0,1,1.5,1.5V154.4A1.5,1.5,0,0,1,0,155.9a1.5,1.5,0,0,1-1.5-1.5V144.393A1.5,1.5,0,0,1,0,142.893Zm932.926,17.538a1.5,1.5,0,0,1,1.5,1.5v10.005a1.5,1.5,0,0,1-3,0V161.931A1.5,1.5,0,0,1,932.926,160.431ZM0,162.9a1.5,1.5,0,0,1,1.5,1.5v10.005a1.5,1.5,0,0,1-1.5,1.5,1.5,1.5,0,0,1-1.5-1.5V164.4A1.5,1.5,0,0,1,0,162.9Zm932.926,17.538a1.5,1.5,0,0,1,1.5,1.5v10.005a1.5,1.5,0,0,1-3,0V181.942A1.5,1.5,0,0,1,932.926,180.442ZM0,182.914a1.5,1.5,0,0,1,1.5,1.5v10.005a1.5,1.5,0,0,1-1.5,1.5,1.5,1.5,0,0,1-1.5-1.5V184.414A1.5,1.5,0,0,1,0,182.914Zm932.926,17.538a1.5,1.5,0,0,1,1.5,1.5v10.005a1.5,1.5,0,1,1-3,0V201.952A1.5,1.5,0,0,1,932.926,200.452ZM0,202.924a1.5,1.5,0,0,1,1.5,1.5V214.43a1.5,1.5,0,0,1-1.5,1.5,1.5,1.5,0,0,1-1.5-1.5V204.424A1.5,1.5,0,0,1,0,202.924Zm932.926,17.538a1.5,1.5,0,0,1,1.5,1.5v10.005a1.5,1.5,0,0,1-3,0V221.963A1.5,1.5,0,0,1,932.926,220.463ZM0,222.935a1.5,1.5,0,0,1,1.5,1.5V234.44a1.5,1.5,0,0,1-1.5,1.5,1.5,1.5,0,0,1-1.5-1.5V224.435A1.5,1.5,0,0,1,0,222.935Zm932.926,17.538a1.5,1.5,0,0,1,1.5,1.5v10.005a1.5,1.5,0,0,1-3,0V241.974A1.5,1.5,0,0,1,932.926,240.474ZM0,242.946a1.5,1.5,0,0,1,1.5,1.5v10.005a1.5,1.5,0,0,1-1.5,1.5,1.5,1.5,0,0,1-1.5-1.5V244.446A1.5,1.5,0,0,1,0,242.946Zm932.926,17.538a1.5,1.5,0,0,1,1.5,1.5v10.005a1.5,1.5,0,0,1-3,0V261.984A1.5,1.5,0,0,1,932.926,260.484ZM0,262.956a1.5,1.5,0,0,1,1.5,1.5v10.005a1.5,1.5,0,0,1-1.5,1.5,1.5,1.5,0,0,1-1.5-1.5V264.456A1.5,1.5,0,0,1,0,262.956Zm932.926,17.538a1.5,1.5,0,0,1,1.5,1.5V292a1.5,1.5,0,0,1-3,0V281.994A1.5,1.5,0,0,1,932.926,280.494ZM0,282.967a1.5,1.5,0,0,1,1.5,1.5v10.005a1.5,1.5,0,0,1-1.5,1.5,1.5,1.5,0,0,1-1.5-1.5V284.467A1.5,1.5,0,0,1,0,282.967Zm932.926,17.538a1.5,1.5,0,0,1,1.5,1.5V312.01a1.5,1.5,0,0,1-3,0V302.005A1.5,1.5,0,0,1,932.926,300.505ZM0,302.977a1.5,1.5,0,0,1,1.5,1.5v10.005a1.5,1.5,0,0,1-1.5,1.5,1.5,1.5,0,0,1-1.5-1.5V304.477A1.5,1.5,0,0,1,0,302.977Zm932.926,17.538a1.5,1.5,0,0,1,1.5,1.5v10.005a1.5,1.5,0,1,1-3,0V322.016A1.5,1.5,0,0,1,932.926,320.516ZM0,322.988a1.5,1.5,0,0,1,1.5,1.5v10.005a1.5,1.5,0,0,1-1.5,1.5,1.5,1.5,0,0,1-1.5-1.5V324.488A1.5,1.5,0,0,1,0,322.988Zm932.926,17.538a1.5,1.5,0,0,1,1.5,1.5v10.005a1.5,1.5,0,0,1-3,0V342.026A1.5,1.5,0,0,1,932.926,340.526ZM0,343a1.5,1.5,0,0,1,1.5,1.5V354.5A1.5,1.5,0,0,1,0,356a1.5,1.5,0,0,1-1.5-1.5V344.5A1.5,1.5,0,0,1,0,343Zm932.926,17.538a1.5,1.5,0,0,1,1.5,1.5v10.005a1.5,1.5,0,0,1-3,0V362.037A1.5,1.5,0,0,1,932.926,360.537ZM0,363.009a1.5,1.5,0,0,1,1.5,1.5v10.005a1.5,1.5,0,0,1-1.5,1.5,1.5,1.5,0,0,1-1.5-1.5V364.509A1.5,1.5,0,0,1,0,363.009Zm932.926,17.538a1.5,1.5,0,0,1,1.5,1.5v10.005a1.5,1.5,0,0,1-3,0V382.047A1.5,1.5,0,0,1,932.926,380.547ZM0,383.019a1.5,1.5,0,0,1,1.5,1.5v10.005a1.5,1.5,0,0,1-1.5,1.5,1.5,1.5,0,0,1-1.5-1.5V384.519A1.5,1.5,0,0,1,0,383.019Zm932.926,17.539a1.5,1.5,0,0,1,1.5,1.5v10.005a1.5,1.5,0,1,1-3,0V402.058A1.5,1.5,0,0,1,932.926,400.558ZM0,403.03a1.5,1.5,0,0,1,1.5,1.5v10.005a1.5,1.5,0,0,1-1.5,1.5,1.5,1.5,0,0,1-1.5-1.5V404.53A1.5,1.5,0,0,1,0,403.03Zm931.352,17.236a1.5,1.5,0,0,1,1.261,2.31,11.462,11.462,0,0,1-9.674,5.3,1.5,1.5,0,0,1,0-3,8.474,8.474,0,0,0,7.152-3.92A1.5,1.5,0,0,1,931.352,420.265Zm-928.2,1.9a1.5,1.5,0,0,1,1.027.407A8.467,8.467,0,0,0,10,424.876h2.46a1.5,1.5,0,0,1,0,3H10a11.456,11.456,0,0,1-7.876-3.121,1.5,1.5,0,0,1,1.028-2.593Zm19.314,2.713H32.471a1.5,1.5,0,0,1,0,3H22.465a1.5,1.5,0,0,1,0-3Zm20.011,0H52.481a1.5,1.5,0,0,1,0,3H42.476a1.5,1.5,0,0,1,0-3Zm20.01,0H72.492a1.5,1.5,0,0,1,0,3H62.486a1.5,1.5,0,0,1,0-3Zm20.01,0H92.5a1.5,1.5,0,0,1,0,3H82.5a1.5,1.5,0,0,1,0-3Zm20.011,0h10.005a1.5,1.5,0,0,1,0,3H102.507a1.5,1.5,0,0,1,0-3Zm20.01,0h10.005a1.5,1.5,0,0,1,0,3H122.518a1.5,1.5,0,0,1,0-3Zm20.01,0h10.005a1.5,1.5,0,0,1,0,3H142.528a1.5,1.5,0,0,1,0-3Zm20.011,0h10.005a1.5,1.5,0,0,1,0,3H162.539a1.5,1.5,0,0,1,0-3Zm20.01,0h10.005a1.5,1.5,0,0,1,0,3H182.549a1.5,1.5,0,0,1,0-3Zm20.01,0h10.005a1.5,1.5,0,0,1,0,3H202.56a1.5,1.5,0,0,1,0-3Zm20.011,0h10.005a1.5,1.5,0,0,1,0,3H222.57a1.5,1.5,0,0,1,0-3Zm20.01,0h10.005a1.5,1.5,0,0,1,0,3H242.581a1.5,1.5,0,0,1,0-3Zm20.01,0H272.6a1.5,1.5,0,0,1,0,3H262.591a1.5,1.5,0,0,1,0-3Zm20.011,0h10.005a1.5,1.5,0,0,1,0,3H282.6a1.5,1.5,0,0,1,0-3Zm20.01,0h10.005a1.5,1.5,0,1,1,0,3H302.612a1.5,1.5,0,0,1,0-3Zm20.01,0h10.005a1.5,1.5,0,0,1,0,3H322.623a1.5,1.5,0,0,1,0-3Zm20.011,0h10.005a1.5,1.5,0,0,1,0,3H342.633a1.5,1.5,0,1,1,0-3Zm20.01,0h10.005a1.5,1.5,0,1,1,0,3H362.644a1.5,1.5,0,1,1,0-3Zm20.01,0H392.66a1.5,1.5,0,1,1,0,3H382.654a1.5,1.5,0,0,1,0-3Zm20.011,0H412.67a1.5,1.5,0,0,1,0,3H402.665a1.5,1.5,0,0,1,0-3Zm20.01,0h10.005a1.5,1.5,0,0,1,0,3H422.675a1.5,1.5,0,1,1,0-3Zm20.01,0h10.005a1.5,1.5,0,0,1,0,3H442.686a1.5,1.5,0,0,1,0-3Zm20.011,0H472.7a1.5,1.5,0,1,1,0,3H462.7a1.5,1.5,0,0,1,0-3Zm20.01,0h10.005a1.5,1.5,0,0,1,0,3H482.707a1.5,1.5,0,0,1,0-3Zm20.01,0h10.005a1.5,1.5,0,0,1,0,3H502.717a1.5,1.5,0,0,1,0-3Zm20.011,0h10.005a1.5,1.5,0,0,1,0,3H522.728a1.5,1.5,0,0,1,0-3Zm20.01,0h10.005a1.5,1.5,0,0,1,0,3H542.739a1.5,1.5,0,0,1,0-3Zm20.01,0h10.005a1.5,1.5,0,0,1,0,3H562.749a1.5,1.5,0,0,1,0-3Zm20.011,0h10.005a1.5,1.5,0,0,1,0,3H582.76a1.5,1.5,0,0,1,0-3Zm20.01,0h10.005a1.5,1.5,0,0,1,0,3H602.77a1.5,1.5,0,0,1,0-3Zm20.01,0h10.005a1.5,1.5,0,0,1,0,3H622.781a1.5,1.5,0,0,1,0-3Zm20.011,0H652.8a1.5,1.5,0,0,1,0,3H642.791a1.5,1.5,0,0,1,0-3Zm20.01,0h10.005a1.5,1.5,0,0,1,0,3H662.8a1.5,1.5,0,0,1,0-3Zm20.011,0h10.005a1.5,1.5,0,0,1,0,3H682.812a1.5,1.5,0,0,1,0-3Zm20.01,0h10.005a1.5,1.5,0,0,1,0,3H702.823a1.5,1.5,0,0,1,0-3Zm20.01,0h10.005a1.5,1.5,0,0,1,0,3H722.833a1.5,1.5,0,0,1,0-3Zm20.011,0h10.005a1.5,1.5,0,0,1,0,3H742.844a1.5,1.5,0,0,1,0-3Zm20.01,0h10.005a1.5,1.5,0,0,1,0,3H762.854a1.5,1.5,0,0,1,0-3Zm20.01,0H792.87a1.5,1.5,0,0,1,0,3H782.865a1.5,1.5,0,0,1,0-3Zm20.011,0H812.88a1.5,1.5,0,0,1,0,3H802.875a1.5,1.5,0,0,1,0-3Zm20.01,0h10.005a1.5,1.5,0,0,1,0,3H822.886a1.5,1.5,0,0,1,0-3Zm20.01,0H852.9a1.5,1.5,0,0,1,0,3H842.9a1.5,1.5,0,0,1,0-3Zm20.011,0h10.005a1.5,1.5,0,0,1,0,3H862.907a1.5,1.5,0,0,1,0-3Zm20.01,0h10.005a1.5,1.5,0,0,1,0,3H882.917a1.5,1.5,0,0,1,0-3Zm20.01,0h10.005a1.5,1.5,0,0,1,0,3H902.928a1.5,1.5,0,0,1,0-3Z" transform="translate(216.537 4361.261)" fill="#82c195"/>
    </g>
    <g id="グループ_524" data-name="グループ 524">
      <g id="グループ_517" data-name="グループ 517">
        <rect id="長方形_301" data-name="長方形 301" width="416.271" height="36" transform="translate(695.163 4699.714)" fill="#ff8e66"/>
        <path id="パス_717" data-name="パス 717" d="M-74.208-12.624v2.04h2.352v-2.04Zm0,4.344v2.064h2.352V-8.28Zm0-8.664v2.016h2.352v-2.016Zm-2.424-2.5h7.3V-3.72h-7.3ZM-72.576-2.5l2.184-1.224q.456.552.948,1.224t.912,1.32q.42.648.684,1.152l-2.3,1.368A9.686,9.686,0,0,0-70.776.168q-.408-.672-.876-1.38T-72.576-2.5ZM-75.984-3.5l2.616.72A17.526,17.526,0,0,1-74.832-.048a15.937,15.937,0,0,1-1.752,2.28q-.264-.216-.684-.5t-.852-.552q-.432-.264-.744-.432A10.944,10.944,0,0,0-77.22-1.2,12,12,0,0,0-75.984-3.5Zm11.808-16.9h2.616V-1.08a5.118,5.118,0,0,1-.228,1.7,1.736,1.736,0,0,1-.876.96,4.395,4.395,0,0,1-1.6.444,22.158,22.158,0,0,1-2.388.108A8.752,8.752,0,0,0-66.96.756a10.67,10.67,0,0,0-.5-1.38q.912.024,1.7.036t1.08.012a.637.637,0,0,0,.4-.132.517.517,0,0,0,.108-.372Zm-3.96,2.472h2.472v13.92h-2.472Zm-14.28-.168,1.632-2.088q.648.264,1.38.648t1.392.8a7.241,7.241,0,0,1,1.068.8l-1.728,2.3a5.624,5.624,0,0,0-1-.852q-.636-.444-1.356-.876A14.967,14.967,0,0,0-82.416-18.1Zm-.912,6.432,1.584-2.136q.672.264,1.4.612t1.392.744a7.327,7.327,0,0,1,1.068.756L-79.56-9.36a8.473,8.473,0,0,0-1.02-.792q-.636-.432-1.356-.828T-83.328-11.664ZM-82.92.408q.456-.936,1-2.208t1.1-2.7q.564-1.428,1.02-2.82l2.328,1.488q-.384,1.3-.864,2.628T-79.32-.588Q-79.824.7-80.328,1.9Zm28.272-13.56h13.272v2.76H-54.648ZM-48-7.392h8.088V-4.68H-48Zm-1.512-4.152h3V.048l-3-.36Zm-5.736,2.472,3,.312A25.924,25.924,0,0,1-53.88-2.28,11.864,11.864,0,0,1-57.1,2.3a9.167,9.167,0,0,0-.672-.648q-.432-.384-.9-.744t-.8-.576A8.8,8.8,0,0,0-56.544-3.54,20.119,20.119,0,0,0-55.248-9.072Zm2.328,3.024A7.676,7.676,0,0,0-51.468-3.4,5.9,5.9,0,0,0-49.38-1.86a9.816,9.816,0,0,0,2.6.708,22.342,22.342,0,0,0,3,.192h2.508q.8,0,1.644-.012L-38.064-1q.72-.012,1.2-.036a6.01,6.01,0,0,0-.42.876q-.2.516-.372,1.068A7.53,7.53,0,0,0-37.9,1.92H-43.92a23.739,23.739,0,0,1-3.84-.288A10.042,10.042,0,0,1-50.916.588a7.871,7.871,0,0,1-2.5-2.172,12.642,12.642,0,0,1-1.86-3.7Zm3.36-14.3h3.072v4.368H-49.56ZM-58.3-17.928H-37.68V-11.9h-2.952v-3.312H-55.464V-11.9H-58.3Zm23.952,1.464q.72-.024,1.368-.06t.984-.06q.744-.048,1.836-.156t2.448-.228q1.356-.12,2.892-.24t3.192-.264q1.248-.12,2.484-.2t2.352-.144q1.116-.06,1.956-.084l.024,3.072q-.648,0-1.488.024t-1.668.084a8.3,8.3,0,0,0-1.476.228,6.026,6.026,0,0,0-2.016.972,7.532,7.532,0,0,0-1.62,1.608,7.725,7.725,0,0,0-1.068,1.992,6.31,6.31,0,0,0-.384,2.148,4.859,4.859,0,0,0,.42,2.076,4.568,4.568,0,0,0,1.152,1.536A6.459,6.459,0,0,0-21.24-3.108a10.26,10.26,0,0,0,2.124.636,18.537,18.537,0,0,0,2.364.288L-17.88,1.1a14.937,14.937,0,0,1-2.94-.48A12.431,12.431,0,0,1-23.5-.432a8.587,8.587,0,0,1-2.172-1.644,7.5,7.5,0,0,1-1.464-2.232,7.09,7.09,0,0,1-.54-2.82,8.879,8.879,0,0,1,.552-3.18,10.152,10.152,0,0,1,1.38-2.544A8.319,8.319,0,0,1-24.1-14.544q-.672.1-1.62.192t-2.04.228q-1.092.132-2.22.276t-2.172.324q-1.044.18-1.884.348Zm16.1,3.984q.312.432.66,1.02t.684,1.176q.336.588.576,1.068l-1.824.816q-.456-1.008-.876-1.776a14.449,14.449,0,0,0-1-1.56Zm2.688-1.1q.312.432.684,1t.732,1.152q.36.588.6,1.044l-1.8.864q-.48-.96-.924-1.7A16.894,16.894,0,0,0-17.3-12.768ZM-6.5-12.24H6.552v2.712H-6.5ZM-9.1-19.464H-2.28v2.472H-9.1ZM-9.624-6.816H9.528v2.64H-9.624Zm6.312-12.648h.528l.5-.1,1.92.864a17.024,17.024,0,0,1-1.572,3.408A16.6,16.6,0,0,1-4.1-12.444a18.323,18.323,0,0,1-2.64,2.292A20.474,20.474,0,0,1-9.7-8.4a9.377,9.377,0,0,0-.8-1.152,8.358,8.358,0,0,0-.948-1.032A13.676,13.676,0,0,0-8.856-12a16.947,16.947,0,0,0,2.34-1.956A14.6,14.6,0,0,0-4.6-16.32a11.34,11.34,0,0,0,1.284-2.664Zm-1.152,8.592h2.856V-6.72a13.693,13.693,0,0,1-.24,2.544,7.65,7.65,0,0,1-.936,2.46A7.712,7.712,0,0,1-4.824.492,12.407,12.407,0,0,1-8.4,2.256a5.2,5.2,0,0,0-.492-.768q-.324-.432-.684-.852a8.014,8.014,0,0,0-.648-.684A12.088,12.088,0,0,0-7.152-1.416,5.936,5.936,0,0,0-5.424-3.072a5.292,5.292,0,0,0,.768-1.836,9.471,9.471,0,0,0,.192-1.884Zm7.1-9.48a17.251,17.251,0,0,0,2.052,3.864A16.3,16.3,0,0,0,7.7-13.248a14.555,14.555,0,0,0,3.816,2.256,6.261,6.261,0,0,0-.708.732q-.372.444-.72.912a8.162,8.162,0,0,0-.564.852,15.86,15.86,0,0,1-4.02-2.712A19.066,19.066,0,0,1,2.364-15,26.088,26.088,0,0,1,.048-19.632ZM-9.816-15.12l1.8-1.488q.48.312,1,.72t1,.792a9.724,9.724,0,0,1,.792.7l-1.9,1.68a8.793,8.793,0,0,0-.732-.744q-.468-.432-.984-.864T-9.816-15.12Zm15.792-4.9L8.16-18.5q-.96.864-1.98,1.7T4.3-15.384L2.568-16.728q.552-.408,1.176-.972t1.224-1.176A13.088,13.088,0,0,0,5.976-20.016Zm2.88,2.76,2.112,1.464q-.96.888-2.076,1.764T6.84-12.552l-1.728-1.32q.6-.432,1.284-1.02T7.74-16.1Q8.4-16.728,8.856-17.256Zm-7.464,6.5h3v9.168a1.7,1.7,0,0,0,.132.852q.132.18.612.18H6.984a.566.566,0,0,0,.492-.216,1.863,1.863,0,0,0,.228-.8q.072-.588.12-1.716a6.058,6.058,0,0,0,1.224.66,8.98,8.98,0,0,0,1.368.468,10.127,10.127,0,0,1-.48,2.5A2.352,2.352,0,0,1,8.964,1.62a3.337,3.337,0,0,1-1.692.372H4.632a4.936,4.936,0,0,1-2.016-.324,1.789,1.789,0,0,1-.96-1.1A6.847,6.847,0,0,1,1.392-1.56ZM18.984-13.32v1.488H29.04V-13.32Zm0,3.84v1.512H29.04V-9.48Zm0-7.656v1.488H29.04v-1.488Zm-2.784-2.5H31.968v14.16H16.2Zm8.9,12.24h2.952v5.736q0,.576.18.732a1.477,1.477,0,0,0,.852.156h2.52a.845.845,0,0,0,.624-.216,1.684,1.684,0,0,0,.312-.912q.1-.7.144-2.112a5.113,5.113,0,0,0,.78.48,6.693,6.693,0,0,0,.984.408q.516.168.876.288a12.287,12.287,0,0,1-.5,2.94A2.558,2.558,0,0,1,33.768,1.56a3.748,3.748,0,0,1-1.9.408H28.68a5.719,5.719,0,0,1-2.2-.336A1.925,1.925,0,0,1,25.4.5a6.185,6.185,0,0,1-.3-2.136Zm-5.856.984H22.32A16.933,16.933,0,0,1,21.8-3.42,7.009,7.009,0,0,1,20.6-.984,7.064,7.064,0,0,1,18.264.9a16.113,16.113,0,0,1-3.936,1.356,3.935,3.935,0,0,0-.4-.876q-.276-.468-.6-.936A4.563,4.563,0,0,0,12.7-.312a14.8,14.8,0,0,0,3.336-.948A5.586,5.586,0,0,0,17.94-2.568a4.229,4.229,0,0,0,.924-1.692A12.782,12.782,0,0,0,19.248-6.408Zm33.84-11.568h3.024V-1.488a4.792,4.792,0,0,1-.336,2,2.182,2.182,0,0,1-1.224,1.068,6.932,6.932,0,0,1-2.208.444q-1.344.084-3.192.084a9.628,9.628,0,0,0-.288-1A11.99,11.99,0,0,0,48.42,0a8.242,8.242,0,0,0-.492-.936l1.788.048q.9.024,1.62.024h1.008a.892.892,0,0,0,.576-.144.673.673,0,0,0,.168-.528Zm-13.7,4.8h2.784V-1.992H39.384Zm1.176,0h9.048V-3.84H40.56V-6.6h6.216v-3.84H40.56Zm-3.408-5.616H58.9v2.928H37.152Zm27.216-1.7,3,.624q-.432,1.1-.924,2.22T65.46-15.54q-.492,1-.948,1.764l-2.52-.648a18.757,18.757,0,0,0,.9-1.872q.444-1.056.84-2.16T64.368-20.5Zm-3.648,4.92,2.976-.108q1.68-.06,3.528-.156t3.72-.168l-.024,2.52-3.552.24q-1.776.12-3.408.216t-3,.192Zm1.44,3.864h7.608V-9.36H64.824v11.5H62.16Zm6.24,0h2.856V-.768a4.285,4.285,0,0,1-.216,1.5,1.627,1.627,0,0,1-.84.876,3.537,3.537,0,0,1-1.44.408q-.84.072-1.92.072A7.066,7.066,0,0,0,66.468.78,8.707,8.707,0,0,0,65.9-.456q.648.024,1.272.024t.84-.024a.465.465,0,0,0,.312-.072A.417.417,0,0,0,68.4-.816ZM63.36-8.088h6.672v2.136H63.36Zm0,3.528h6.672v2.136H63.36ZM73.152-20.3h2.856v7.224a1.1,1.1,0,0,0,.192.792,1.452,1.452,0,0,0,.864.168H79.7a.854.854,0,0,0,.6-.18,1.329,1.329,0,0,0,.288-.72,13.3,13.3,0,0,0,.144-1.6,3.206,3.206,0,0,0,.744.444q.456.2.936.372t.864.264a8.932,8.932,0,0,1-.492,2.424A2.228,2.228,0,0,1,81.768-9.9a3.937,3.937,0,0,1-1.8.348H76.68A5.813,5.813,0,0,1,74.5-9.876a1.849,1.849,0,0,1-1.056-1.08,6.1,6.1,0,0,1-.288-2.1Zm7.2,1.416,1.824,2.112q-1.08.5-2.316.972t-2.508.876q-1.272.408-2.472.72a5.933,5.933,0,0,0-.348-.984q-.252-.576-.468-.984,1.1-.36,2.256-.8t2.2-.948Q79.56-18.432,80.352-18.888Zm-7.2,9.816h2.856v7.56q0,.648.2.816a1.576,1.576,0,0,0,.9.168h2.712a.88.88,0,0,0,.648-.216,1.611,1.611,0,0,0,.324-.84,15.214,15.214,0,0,0,.156-1.848,5.512,5.512,0,0,0,1.2.636,10.238,10.238,0,0,0,1.32.444A10.532,10.532,0,0,1,82.98.276a2.389,2.389,0,0,1-1.032,1.332,3.752,3.752,0,0,1-1.836.384H76.68a5.731,5.731,0,0,1-2.16-.324A1.892,1.892,0,0,1,73.452.588a5.787,5.787,0,0,1-.3-2.076Zm7.368.984,1.9,2.112A20.528,20.528,0,0,1,80.04-4.86q-1.3.516-2.616.972t-2.592.816a6.636,6.636,0,0,0-.348-1.008,8.522,8.522,0,0,0-.492-1.008q1.176-.384,2.376-.888t2.28-1.044A17.512,17.512,0,0,0,80.52-8.088ZM67.632-17.88l2.424-.912q.6.864,1.164,1.872t1.032,1.98a12.46,12.46,0,0,1,.708,1.764l-2.64,1.032a11.908,11.908,0,0,0-.612-1.752q-.42-.984-.96-2.028T67.632-17.88Z" transform="translate(903.298 4726.834)" fill="#fff"/>
      </g>
      <g id="グループ_518" data-name="グループ 518">
        <rect id="長方形_302" data-name="長方形 302" width="406" height="36" transform="translate(259.679 4699.714)" fill="#82c195"/>
        <path id="パス_716" data-name="パス 716" d="M-98.208-12.624v2.04h2.352v-2.04Zm0,4.344v2.064h2.352V-8.28Zm0-8.664v2.016h2.352v-2.016Zm-2.424-2.5h7.3V-3.72h-7.3ZM-96.576-2.5l2.184-1.224q.456.552.948,1.224t.912,1.32q.42.648.684,1.152l-2.3,1.368A9.686,9.686,0,0,0-94.776.168q-.408-.672-.876-1.38T-96.576-2.5ZM-99.984-3.5l2.616.72A17.526,17.526,0,0,1-98.832-.048a15.937,15.937,0,0,1-1.752,2.28q-.264-.216-.684-.5t-.852-.552q-.432-.264-.744-.432A10.944,10.944,0,0,0-101.22-1.2,12,12,0,0,0-99.984-3.5Zm11.808-16.9h2.616V-1.08a5.118,5.118,0,0,1-.228,1.7,1.736,1.736,0,0,1-.876.96,4.395,4.395,0,0,1-1.6.444,22.158,22.158,0,0,1-2.388.108A8.752,8.752,0,0,0-90.96.756a10.67,10.67,0,0,0-.5-1.38q.912.024,1.7.036t1.08.012a.637.637,0,0,0,.4-.132.517.517,0,0,0,.108-.372Zm-3.96,2.472h2.472v13.92h-2.472Zm-14.28-.168,1.632-2.088q.648.264,1.38.648t1.392.8a7.241,7.241,0,0,1,1.068.8l-1.728,2.3a5.624,5.624,0,0,0-1-.852q-.636-.444-1.356-.876A14.967,14.967,0,0,0-106.416-18.1Zm-.912,6.432,1.584-2.136q.672.264,1.4.612t1.392.744a7.327,7.327,0,0,1,1.068.756l-1.68,2.328a8.473,8.473,0,0,0-1.02-.792q-.636-.432-1.356-.828T-107.328-11.664ZM-106.92.408q.456-.936,1-2.208t1.1-2.7q.564-1.428,1.02-2.82l2.328,1.488q-.384,1.3-.864,2.628t-.984,2.616q-.5,1.284-1.008,2.484Zm28.272-13.56h13.272v2.76H-78.648ZM-72-7.392h8.088V-4.68H-72Zm-1.512-4.152h3V.048l-3-.36Zm-5.736,2.472,3,.312A25.924,25.924,0,0,1-77.88-2.28,11.864,11.864,0,0,1-81.1,2.3a9.166,9.166,0,0,0-.672-.648q-.432-.384-.9-.744t-.8-.576A8.8,8.8,0,0,0-80.544-3.54,20.119,20.119,0,0,0-79.248-9.072Zm2.328,3.024A7.676,7.676,0,0,0-75.468-3.4,5.9,5.9,0,0,0-73.38-1.86a9.816,9.816,0,0,0,2.6.708,22.342,22.342,0,0,0,3,.192h2.508q.8,0,1.644-.012L-62.064-1q.72-.012,1.2-.036a6.01,6.01,0,0,0-.42.876q-.2.516-.372,1.068A7.53,7.53,0,0,0-61.9,1.92H-67.92a23.739,23.739,0,0,1-3.84-.288A10.042,10.042,0,0,1-74.916.588a7.871,7.871,0,0,1-2.5-2.172,12.642,12.642,0,0,1-1.86-3.7Zm3.36-14.3h3.072v4.368H-73.56ZM-82.3-17.928H-61.68V-11.9h-2.952v-3.312H-79.464V-11.9H-82.3Zm23.952,1.464q.72-.024,1.368-.06t.984-.06q.744-.048,1.836-.156t2.448-.228q1.356-.12,2.892-.24t3.192-.264q1.248-.12,2.484-.2t2.352-.144q1.116-.06,1.956-.084l.024,3.072q-.648,0-1.488.024t-1.668.084a8.3,8.3,0,0,0-1.476.228,6.026,6.026,0,0,0-2.016.972,7.532,7.532,0,0,0-1.62,1.608,7.725,7.725,0,0,0-1.068,1.992,6.309,6.309,0,0,0-.384,2.148,4.859,4.859,0,0,0,.42,2.076,4.569,4.569,0,0,0,1.152,1.536A6.459,6.459,0,0,0-45.24-3.108a10.26,10.26,0,0,0,2.124.636,18.538,18.538,0,0,0,2.364.288L-41.88,1.1a14.937,14.937,0,0,1-2.94-.48A12.431,12.431,0,0,1-47.5-.432a8.587,8.587,0,0,1-2.172-1.644,7.5,7.5,0,0,1-1.464-2.232,7.09,7.09,0,0,1-.54-2.82,8.879,8.879,0,0,1,.552-3.18,10.152,10.152,0,0,1,1.38-2.544A8.319,8.319,0,0,1-48.1-14.544q-.672.1-1.62.192t-2.04.228q-1.092.132-2.22.276t-2.172.324q-1.044.18-1.884.348Zm16.1,3.984q.312.432.66,1.02t.684,1.176q.336.588.576,1.068l-1.824.816q-.456-1.008-.876-1.776a14.449,14.449,0,0,0-1-1.56Zm2.688-1.1q.312.432.684,1t.732,1.152q.36.588.6,1.044l-1.8.864q-.48-.96-.924-1.7A16.894,16.894,0,0,0-41.3-12.768ZM-30.5-12.24h13.056v2.712H-30.5ZM-33.1-19.464h6.816v2.472H-33.1Zm-.528,12.648h19.152v2.64H-33.624Zm6.312-12.648h.528l.5-.1,1.92.864a17.024,17.024,0,0,1-1.572,3.408A16.6,16.6,0,0,1-28.1-12.444a18.323,18.323,0,0,1-2.64,2.292A20.474,20.474,0,0,1-33.7-8.4a9.378,9.378,0,0,0-.8-1.152,8.358,8.358,0,0,0-.948-1.032A13.676,13.676,0,0,0-32.856-12a16.947,16.947,0,0,0,2.34-1.956A14.6,14.6,0,0,0-28.6-16.32a11.34,11.34,0,0,0,1.284-2.664Zm-1.152,8.592h2.856V-6.72a13.693,13.693,0,0,1-.24,2.544,7.65,7.65,0,0,1-.936,2.46A7.712,7.712,0,0,1-28.824.492,12.407,12.407,0,0,1-32.4,2.256a5.2,5.2,0,0,0-.492-.768q-.324-.432-.684-.852a8.015,8.015,0,0,0-.648-.684,12.088,12.088,0,0,0,3.072-1.368,5.936,5.936,0,0,0,1.728-1.656,5.292,5.292,0,0,0,.768-1.836,9.471,9.471,0,0,0,.192-1.884Zm7.1-9.48a17.251,17.251,0,0,0,2.052,3.864,16.3,16.3,0,0,0,3.012,3.24,14.555,14.555,0,0,0,3.816,2.256,6.261,6.261,0,0,0-.708.732q-.372.444-.72.912a8.162,8.162,0,0,0-.564.852,15.86,15.86,0,0,1-4.02-2.712A19.066,19.066,0,0,1-21.636-15a26.088,26.088,0,0,1-2.316-4.632ZM-33.816-15.12l1.8-1.488q.48.312,1,.72t1,.792a9.724,9.724,0,0,1,.792.7l-1.9,1.68a8.793,8.793,0,0,0-.732-.744q-.468-.432-.984-.864T-33.816-15.12Zm15.792-4.9L-15.84-18.5q-.96.864-1.98,1.7T-19.7-15.384l-1.728-1.344q.552-.408,1.176-.972t1.224-1.176A13.088,13.088,0,0,0-18.024-20.016Zm2.88,2.76,2.112,1.464q-.96.888-2.076,1.764t-2.052,1.476l-1.728-1.32q.6-.432,1.284-1.02T-16.26-16.1Q-15.6-16.728-15.144-17.256Zm-7.464,6.5h3v9.168a1.7,1.7,0,0,0,.132.852q.132.18.612.18h1.848a.566.566,0,0,0,.492-.216,1.863,1.863,0,0,0,.228-.8q.072-.588.12-1.716a6.058,6.058,0,0,0,1.224.66,8.98,8.98,0,0,0,1.368.468,10.127,10.127,0,0,1-.48,2.5,2.352,2.352,0,0,1-.972,1.284,3.337,3.337,0,0,1-1.692.372h-2.64a4.936,4.936,0,0,1-2.016-.324,1.789,1.789,0,0,1-.96-1.1,6.846,6.846,0,0,1-.264-2.124ZM-5.016-13.32v1.488H5.04V-13.32Zm0,3.84v1.512H5.04V-9.48Zm0-7.656v1.488H5.04v-1.488Zm-2.784-2.5H7.968v14.16H-7.8ZM1.1-7.392H4.056v5.736q0,.576.18.732a1.477,1.477,0,0,0,.852.156h2.52a.845.845,0,0,0,.624-.216A1.684,1.684,0,0,0,8.544-1.9q.1-.7.144-2.112a5.113,5.113,0,0,0,.78.48,6.693,6.693,0,0,0,.984.408q.516.168.876.288a12.287,12.287,0,0,1-.5,2.94A2.558,2.558,0,0,1,9.768,1.56a3.748,3.748,0,0,1-1.9.408H4.68a5.719,5.719,0,0,1-2.2-.336A1.925,1.925,0,0,1,1.4.5a6.185,6.185,0,0,1-.3-2.136Zm-5.856.984H-1.68A16.933,16.933,0,0,1-2.2-3.42,7.009,7.009,0,0,1-3.4-.984,7.064,7.064,0,0,1-5.736.9,16.113,16.113,0,0,1-9.672,2.256a3.935,3.935,0,0,0-.4-.876q-.276-.468-.6-.936A4.563,4.563,0,0,0-11.3-.312,14.8,14.8,0,0,0-7.968-1.26,5.586,5.586,0,0,0-6.06-2.568,4.229,4.229,0,0,0-5.136-4.26,12.783,12.783,0,0,0-4.752-6.408ZM13.656-16.464q.72-.024,1.368-.06t.984-.06q.744-.048,1.836-.156t2.448-.228q1.356-.12,2.892-.24t3.192-.264q1.248-.12,2.484-.2t2.352-.144q1.116-.06,1.956-.084l.024,3.072q-.648,0-1.488.024t-1.668.084a8.3,8.3,0,0,0-1.476.228,6.026,6.026,0,0,0-2.016.972,7.532,7.532,0,0,0-1.62,1.608,7.725,7.725,0,0,0-1.068,1.992,6.31,6.31,0,0,0-.384,2.148,4.859,4.859,0,0,0,.42,2.076,4.568,4.568,0,0,0,1.152,1.536A6.459,6.459,0,0,0,26.76-3.108a10.26,10.26,0,0,0,2.124.636,18.537,18.537,0,0,0,2.364.288L30.12,1.1a14.937,14.937,0,0,1-2.94-.48A12.431,12.431,0,0,1,24.5-.432a8.587,8.587,0,0,1-2.172-1.644,7.5,7.5,0,0,1-1.464-2.232,7.09,7.09,0,0,1-.54-2.82,8.879,8.879,0,0,1,.552-3.18,10.152,10.152,0,0,1,1.38-2.544A8.319,8.319,0,0,1,23.9-14.544q-.672.1-1.62.192t-2.04.228q-1.092.132-2.22.276t-2.172.324q-1.044.18-1.884.348Zm16.1,3.984q.312.432.66,1.02t.684,1.176q.336.588.576,1.068L29.856-8.4q-.456-1.008-.876-1.776a14.449,14.449,0,0,0-1-1.56Zm2.688-1.1q.312.432.684,1t.732,1.152q.36.588.6,1.044l-1.8.864q-.48-.96-.924-1.7A16.894,16.894,0,0,0,30.7-12.768Zm7.488-3.648q2.64.312,4.86.372a40.21,40.21,0,0,0,4.116-.084,31.535,31.535,0,0,0,3.168-.432,26.966,26.966,0,0,0,2.976-.744l.384,2.76q-1.3.36-2.808.624t-3.1.408q-1.848.144-4.26.132T40.1-14.472Zm-.432,5.04q2.184.192,4.176.264t3.744,0q1.752-.072,3.192-.192a24.091,24.091,0,0,0,3.336-.492q1.392-.324,2.424-.612l.48,2.832q-1.08.264-2.376.5t-2.76.408q-1.536.144-3.516.228T44.04-9.2q-2.184-.036-4.368-.156ZM47.52-16.56q-.168-.672-.384-1.332t-.48-1.356l3.24-.36q.144,1.128.372,2.22t.528,2.1q.3,1.008.588,1.944.288.816.756,1.86T53.16-9.4q.552,1.044,1.1,1.884.24.336.492.636a5.1,5.1,0,0,0,.588.588L53.88-4.08q-.672-.144-1.668-.288t-2.064-.264q-1.068-.12-1.956-.216l.24-2.28q.744.072,1.62.144t1.4.144a29.8,29.8,0,0,1-1.644-3.144q-.684-1.536-1.14-2.856-.288-.84-.48-1.452t-.348-1.152Q47.688-15.984,47.52-16.56ZM44.112-6.624a8.588,8.588,0,0,0-.744,1.236,3.2,3.2,0,0,0-.312,1.428,1.98,1.98,0,0,0,1.236,1.908,8.7,8.7,0,0,0,3.612.588q1.7,0,3.228-.144t2.8-.384L53.76,1.056q-1.248.216-2.808.336t-3.024.12a14.99,14.99,0,0,1-4.14-.5,5.636,5.636,0,0,1-2.7-1.572A4.08,4.08,0,0,1,40.1-3.336a5.872,5.872,0,0,1,.3-2.076A18.589,18.589,0,0,1,41.136-7.2Zm17.88-9.1q.768.1,1.644.132t1.548.036A27.474,27.474,0,0,0,68.2-15.72q1.524-.168,2.94-.444A24.1,24.1,0,0,0,73.7-16.8l.1,2.784q-1.032.264-2.46.54t-3.012.456a27.619,27.619,0,0,1-3.12.18q-.72,0-1.464-.024t-1.536-.072Zm9.336-3.6q-.144.6-.384,1.56t-.54,2.016q-.3,1.056-.636,2.088a32.426,32.426,0,0,1-1.392,3.672Q67.512-8.04,66.5-6.192A31.759,31.759,0,0,1,64.464-2.9l-2.9-1.488a25.96,25.96,0,0,0,1.608-2.232q.792-1.224,1.488-2.52t1.26-2.508a22.546,22.546,0,0,0,.9-2.2,23.517,23.517,0,0,0,.8-2.844,16.358,16.358,0,0,0,.4-2.964Zm5.616,7.464q-.048.768-.036,1.524t.036,1.548q.024.552.06,1.4t.084,1.8q.048.948.084,1.8t.036,1.356a4.37,4.37,0,0,1-.456,2A3.3,3.3,0,0,1,75.3,1.008a5.865,5.865,0,0,1-2.724.528,7.7,7.7,0,0,1-2.688-.444,4.4,4.4,0,0,1-1.92-1.32,3.344,3.344,0,0,1-.72-2.2,3.779,3.779,0,0,1,.624-2.124,4.161,4.161,0,0,1,1.812-1.488,6.9,6.9,0,0,1,2.868-.54,12.307,12.307,0,0,1,3.888.588,13.98,13.98,0,0,1,3.192,1.5,18.733,18.733,0,0,1,2.424,1.824L80.448-.1q-.648-.576-1.476-1.3a13.717,13.717,0,0,0-1.848-1.344,11.163,11.163,0,0,0-2.208-1.032,7.818,7.818,0,0,0-2.556-.408,2.986,2.986,0,0,0-1.656.408,1.221,1.221,0,0,0-.624,1.056,1.288,1.288,0,0,0,.54,1.08,2.485,2.485,0,0,0,1.524.408,2.6,2.6,0,0,0,1.3-.276,1.486,1.486,0,0,0,.672-.792A3.32,3.32,0,0,0,74.3-3.456q0-.552-.048-1.56t-.108-2.232q-.06-1.224-.108-2.448t-.1-2.16Zm4.128,1.272a16.477,16.477,0,0,0-1.728-1.224q-1.032-.648-2.124-1.236t-1.908-.948l1.536-2.376q.648.288,1.476.708t1.68.876q.852.456,1.584.9t1.188.78ZM90.24-17.16a9.109,9.109,0,0,0-.156.984q-.06.552-.1,1.08t-.036.864q-.024.792-.012,1.632t.048,1.716q.036.876.108,1.74a23.078,23.078,0,0,0,.48,3.048,6.141,6.141,0,0,0,.816,2.052,1.5,1.5,0,0,0,1.272.732,1.1,1.1,0,0,0,.8-.456,4.717,4.717,0,0,0,.72-1.188A14.1,14.1,0,0,0,94.764-6.5q.252-.816.444-1.536l2.4,2.928a18.961,18.961,0,0,1-1.572,3.324,5.639,5.639,0,0,1-1.62,1.776,3.308,3.308,0,0,1-1.824.54,4.061,4.061,0,0,1-2.46-.864,6.565,6.565,0,0,1-1.98-2.8A18.458,18.458,0,0,1,87-8.28q-.12-1.1-.18-2.328t-.072-2.328q-.012-1.1-.012-1.824,0-.5-.048-1.2a12.265,12.265,0,0,0-.144-1.248Zm12,.552a11.926,11.926,0,0,1,1.3,1.992,24.434,24.434,0,0,1,1.152,2.52q.528,1.344.936,2.748t.66,2.736a20.319,20.319,0,0,1,.324,2.436L103.44-2.952q-.12-1.464-.432-3.192a31.382,31.382,0,0,0-.84-3.48,24.274,24.274,0,0,0-1.26-3.312,11.472,11.472,0,0,0-1.716-2.688Z" transform="translate(462.68 4726.834)" fill="#fff"/>
      </g>
      <g id="グループ_519" data-name="グループ 519">
        <path id="パス_328" data-name="パス 328" d="M301,4593.576l740.388-28.839v56.084Z" fill="#dbc5ed"/>
        <path id="パス_329" data-name="パス 329" d="M320.095,4593.576l-4.07,4.882.424,6.342-6.165,1.553-3.38,5.385-5.9-2.372-5.9,2.372-3.38-5.386-6.165-1.553.424-6.342-4.07-4.882,4.07-4.882-.424-6.342,6.165-1.553,3.38-5.386,5.9,2.372,5.9-2.372,3.38,5.386,6.165,1.553-.424,6.342Z" fill="#a07bbd"/>
        <path id="パス_330" data-name="パス 330" d="M554.03,4593.576l-5.263,6.313.548,8.2-7.973,2.008-4.37,6.964L529.342,4614l-7.631,3.067-4.37-6.964-7.973-2.008.549-8.2-5.263-6.312,5.263-6.312-.548-8.2,7.973-2.008,4.37-6.964,7.631,3.067,7.631-3.067,4.37,6.964,7.973,2.008-.549,8.2Z" fill="#a07bbd"/>
        <path id="パス_331" data-name="パス 331" d="M777.117,4593.576l-10.01,12.005,1.043,15.6L752.987,4625l-8.312,13.245-14.512-5.833-14.513,5.833L707.338,4625l-15.163-3.819,1.044-15.6-10.01-12,10.01-12-1.043-15.6,15.163-3.819,8.312-13.245,14.512,5.833,14.513-5.833,8.312,13.245,15.163,3.82-1.044,15.6Z" fill="#a07bbd"/>
        <path id="パス_332" data-name="パス 332" d="M932.285,4593.576l-11.491,13.782,1.2,17.906-17.407,4.385-9.542,15.205-16.66-6.7-16.661,6.7-9.542-15.205-17.407-4.385,1.2-17.906-11.491-13.782,11.491-13.782-1.2-17.906,17.407-4.385,9.542-15.2,16.66,6.7,16.661-6.7,9.542,15.205,17.407,4.385-1.2,17.906Z" fill="#a07bbd"/>
        <path id="パス_333" data-name="パス 333" d="M1112.567,4593.576l-15.174,18.2,1.581,23.645-22.985,5.79-12.6,20.077-22-8.842-22,8.842-12.6-20.078-22.985-5.79,1.582-23.644-15.174-18.2,15.174-18.2-1.581-23.644,22.985-5.79,12.6-20.077,22,8.842,22-8.842,12.6,20.078,22.985,5.79-1.582,23.644Z" fill="#a07bbd"/>
        <path id="パス_715" data-name="パス 715" d="M-22.744.224a3.375,3.375,0,0,1-2.12-.7,4.426,4.426,0,0,1-1.4-2.04,9.575,9.575,0,0,1-.5-3.3,9.422,9.422,0,0,1,.5-3.288,4.269,4.269,0,0,1,1.4-1.992,3.456,3.456,0,0,1,2.12-.672,3.456,3.456,0,0,1,2.12.672,4.269,4.269,0,0,1,1.4,1.992,9.422,9.422,0,0,1,.5,3.288,9.575,9.575,0,0,1-.5,3.3,4.426,4.426,0,0,1-1.4,2.04A3.375,3.375,0,0,1-22.744.224Zm0-1.84a1.314,1.314,0,0,0,.928-.376,2.619,2.619,0,0,0,.624-1.3,11.141,11.141,0,0,0,.224-2.52,10.9,10.9,0,0,0-.224-2.512,2.43,2.43,0,0,0-.624-1.248,1.362,1.362,0,0,0-.928-.352,1.352,1.352,0,0,0-.9.352A2.474,2.474,0,0,0-24.3-8.32a10.2,10.2,0,0,0-.24,2.512,10.424,10.424,0,0,0,.24,2.52,2.665,2.665,0,0,0,.648,1.3A1.3,1.3,0,0,0-22.744-1.616Zm7.328,1.84a1.378,1.378,0,0,1-1.056-.448,1.541,1.541,0,0,1-.416-1.088,1.526,1.526,0,0,1,.416-1.1,1.4,1.4,0,0,1,1.056-.432,1.384,1.384,0,0,1,1.04.432,1.526,1.526,0,0,1,.416,1.1,1.541,1.541,0,0,1-.416,1.088A1.36,1.36,0,0,1-15.416.224Zm3.9-.224V-1.92h2.56V-9.072h-2.16v-1.472a10.088,10.088,0,0,0,1.544-.416,7.205,7.205,0,0,0,1.208-.576h1.744V-1.92h2.224V0ZM-2.12,0V-8.96H-.2l.176,1.2H.024a6.97,6.97,0,0,1,1.216-1,2.767,2.767,0,0,1,1.536-.424,2.645,2.645,0,0,1,1.544.408,2.626,2.626,0,0,1,.9,1.16,8.349,8.349,0,0,1,1.32-1.112,2.708,2.708,0,0,1,1.544-.456,2.385,2.385,0,0,1,2.1.952,4.574,4.574,0,0,1,.664,2.648V0H8.52V-5.3a2.57,2.57,0,0,0-.3-1.456,1.091,1.091,0,0,0-.944-.416,1.607,1.607,0,0,0-.808.248,4.5,4.5,0,0,0-.92.76V0H3.192V-5.3a2.57,2.57,0,0,0-.3-1.456,1.091,1.091,0,0,0-.944-.416,1.67,1.67,0,0,0-.808.248,3.737,3.737,0,0,0-.9.76V0ZM13.3,0V-8.96h1.92l.176,1.2h.048a6.97,6.97,0,0,1,1.216-1A2.767,2.767,0,0,1,18.2-9.184a2.645,2.645,0,0,1,1.544.408,2.626,2.626,0,0,1,.9,1.16,8.349,8.349,0,0,1,1.32-1.112,2.708,2.708,0,0,1,1.544-.456,2.385,2.385,0,0,1,2.1.952,4.574,4.574,0,0,1,.664,2.648V0H23.944V-5.3a2.57,2.57,0,0,0-.3-1.456,1.091,1.091,0,0,0-.944-.416,1.607,1.607,0,0,0-.808.248,4.5,4.5,0,0,0-.92.76V0H18.616V-5.3a2.57,2.57,0,0,0-.3-1.456,1.091,1.091,0,0,0-.944-.416,1.67,1.67,0,0,0-.808.248,3.737,3.737,0,0,0-.9.76V0Z" transform="translate(301.002 4636.47)" fill="#333"/>
        <path id="パス_714" data-name="パス 714" d="M-22.744.224a3.375,3.375,0,0,1-2.12-.7,4.426,4.426,0,0,1-1.4-2.04,9.575,9.575,0,0,1-.5-3.3,9.422,9.422,0,0,1,.5-3.288,4.269,4.269,0,0,1,1.4-1.992,3.456,3.456,0,0,1,2.12-.672,3.456,3.456,0,0,1,2.12.672,4.269,4.269,0,0,1,1.4,1.992,9.422,9.422,0,0,1,.5,3.288,9.575,9.575,0,0,1-.5,3.3,4.426,4.426,0,0,1-1.4,2.04A3.375,3.375,0,0,1-22.744.224Zm0-1.84a1.314,1.314,0,0,0,.928-.376,2.619,2.619,0,0,0,.624-1.3,11.141,11.141,0,0,0,.224-2.52,10.9,10.9,0,0,0-.224-2.512,2.43,2.43,0,0,0-.624-1.248,1.362,1.362,0,0,0-.928-.352,1.352,1.352,0,0,0-.9.352A2.474,2.474,0,0,0-24.3-8.32a10.2,10.2,0,0,0-.24,2.512,10.424,10.424,0,0,0,.24,2.52,2.665,2.665,0,0,0,.648,1.3A1.3,1.3,0,0,0-22.744-1.616Zm7.328,1.84a1.378,1.378,0,0,1-1.056-.448,1.541,1.541,0,0,1-.416-1.088,1.526,1.526,0,0,1,.416-1.1,1.4,1.4,0,0,1,1.056-.432,1.384,1.384,0,0,1,1.04.432,1.526,1.526,0,0,1,.416,1.1,1.541,1.541,0,0,1-.416,1.088A1.36,1.36,0,0,1-15.416.224ZM-12.136,0V-1.36Q-10.6-2.832-9.448-4.024A15.028,15.028,0,0,0-7.656-6.2a3.412,3.412,0,0,0,.64-1.832A2.235,2.235,0,0,0-7.224-9.04a1.482,1.482,0,0,0-.6-.64A1.925,1.925,0,0,0-8.792-9.9a2.034,2.034,0,0,0-1.176.368,5.947,5.947,0,0,0-.984.848l-1.312-1.28a6.568,6.568,0,0,1,1.7-1.336,4.416,4.416,0,0,1,2.072-.456,4.1,4.1,0,0,1,1.96.448,3.216,3.216,0,0,1,1.3,1.256,3.742,3.742,0,0,1,.464,1.9,4.319,4.319,0,0,1-.552,2.032,11.882,11.882,0,0,1-1.456,2.1q-.9,1.064-1.976,2.184.448-.064.992-.1t.96-.04H-4.2V0ZM-2.12,0V-8.96H-.2l.176,1.2H.024a6.97,6.97,0,0,1,1.216-1,2.767,2.767,0,0,1,1.536-.424,2.645,2.645,0,0,1,1.544.408,2.626,2.626,0,0,1,.9,1.16,8.349,8.349,0,0,1,1.32-1.112,2.708,2.708,0,0,1,1.544-.456,2.385,2.385,0,0,1,2.1.952,4.574,4.574,0,0,1,.664,2.648V0H8.52V-5.3a2.57,2.57,0,0,0-.3-1.456,1.091,1.091,0,0,0-.944-.416,1.607,1.607,0,0,0-.808.248,4.5,4.5,0,0,0-.92.76V0H3.192V-5.3a2.57,2.57,0,0,0-.3-1.456,1.091,1.091,0,0,0-.944-.416,1.67,1.67,0,0,0-.808.248,3.737,3.737,0,0,0-.9.76V0ZM13.3,0V-8.96h1.92l.176,1.2h.048a6.97,6.97,0,0,1,1.216-1A2.767,2.767,0,0,1,18.2-9.184a2.645,2.645,0,0,1,1.544.408,2.626,2.626,0,0,1,.9,1.16,8.349,8.349,0,0,1,1.32-1.112,2.708,2.708,0,0,1,1.544-.456,2.385,2.385,0,0,1,2.1.952,4.574,4.574,0,0,1,.664,2.648V0H23.944V-5.3a2.57,2.57,0,0,0-.3-1.456,1.091,1.091,0,0,0-.944-.416,1.607,1.607,0,0,0-.808.248,4.5,4.5,0,0,0-.92.76V0H18.616V-5.3a2.57,2.57,0,0,0-.3-1.456,1.091,1.091,0,0,0-.944-.416,1.67,1.67,0,0,0-.808.248,3.737,3.737,0,0,0-.9.76V0Z" transform="translate(529.341 4642.818)" fill="#333"/>
        <path id="パス_713" data-name="パス 713" d="M-15.336,0V-1.92h2.56V-9.072h-2.16v-1.472a10.088,10.088,0,0,0,1.544-.416,7.205,7.205,0,0,0,1.208-.576h1.744V-1.92h2.224V0Zm13.2.224A4.444,4.444,0,0,1-4.36-.336,4.029,4.029,0,0,1-5.928-1.944,5.2,5.2,0,0,1-6.5-4.48a4.823,4.823,0,0,1,.632-2.536,4.3,4.3,0,0,1,1.68-1.608,4.73,4.73,0,0,1,2.264-.56A3.642,3.642,0,0,1-.456-8.9,4.18,4.18,0,0,1,.68-8.176L-.44-6.688A2.4,2.4,0,0,0-1.1-7.12a1.769,1.769,0,0,0-.7-.144,2.139,2.139,0,0,0-1.208.344,2.214,2.214,0,0,0-.8.968,3.571,3.571,0,0,0-.28,1.472,3.571,3.571,0,0,0,.28,1.472,2.257,2.257,0,0,0,.784.968A1.982,1.982,0,0,0-1.88-1.7,2.18,2.18,0,0,0-.952-1.9a3.762,3.762,0,0,0,.816-.512L.792-.864A4.179,4.179,0,0,1-.624-.04,4.681,4.681,0,0,1-2.136.224ZM2.488,0V-8.96h1.92l.176,1.2h.048a6.97,6.97,0,0,1,1.216-1,2.767,2.767,0,0,1,1.536-.424,2.645,2.645,0,0,1,1.544.408,2.626,2.626,0,0,1,.9,1.16,8.349,8.349,0,0,1,1.32-1.112A2.708,2.708,0,0,1,12.7-9.184a2.385,2.385,0,0,1,2.1.952,4.574,4.574,0,0,1,.664,2.648V0H13.128V-5.3a2.57,2.57,0,0,0-.3-1.456,1.091,1.091,0,0,0-.944-.416,1.607,1.607,0,0,0-.808.248,4.5,4.5,0,0,0-.92.76V0H7.8V-5.3a2.57,2.57,0,0,0-.3-1.456,1.091,1.091,0,0,0-.944-.416,1.67,1.67,0,0,0-.808.248,3.737,3.737,0,0,0-.9.76V0Z" transform="translate(730.163 4665.207)" fill="#333"/>
        <path id="パス_712" data-name="パス 712" d="M-15.96,0V-1.36q1.536-1.472,2.688-2.664A15.028,15.028,0,0,0-11.48-6.2a3.412,3.412,0,0,0,.64-1.832,2.235,2.235,0,0,0-.208-1.008,1.482,1.482,0,0,0-.6-.64,1.925,1.925,0,0,0-.968-.224,2.034,2.034,0,0,0-1.176.368,5.947,5.947,0,0,0-.984.848l-1.312-1.28a6.568,6.568,0,0,1,1.7-1.336,4.416,4.416,0,0,1,2.072-.456,4.1,4.1,0,0,1,1.96.448,3.216,3.216,0,0,1,1.3,1.256,3.742,3.742,0,0,1,.464,1.9,4.319,4.319,0,0,1-.552,2.032,11.882,11.882,0,0,1-1.456,2.1q-.9,1.064-1.976,2.184.448-.064.992-.1t.96-.04h2.592V0ZM-2.136.224A4.444,4.444,0,0,1-4.36-.336,4.029,4.029,0,0,1-5.928-1.944,5.2,5.2,0,0,1-6.5-4.48a4.823,4.823,0,0,1,.632-2.536,4.3,4.3,0,0,1,1.68-1.608,4.73,4.73,0,0,1,2.264-.56A3.642,3.642,0,0,1-.456-8.9,4.18,4.18,0,0,1,.68-8.176L-.44-6.688A2.4,2.4,0,0,0-1.1-7.12a1.769,1.769,0,0,0-.7-.144,2.139,2.139,0,0,0-1.208.344,2.214,2.214,0,0,0-.8.968,3.571,3.571,0,0,0-.28,1.472,3.571,3.571,0,0,0,.28,1.472,2.257,2.257,0,0,0,.784.968A1.982,1.982,0,0,0-1.88-1.7,2.18,2.18,0,0,0-.952-1.9a3.762,3.762,0,0,0,.816-.512L.792-.864A4.179,4.179,0,0,1-.624-.04,4.681,4.681,0,0,1-2.136.224ZM2.488,0V-8.96h1.92l.176,1.2h.048a6.97,6.97,0,0,1,1.216-1,2.767,2.767,0,0,1,1.536-.424,2.645,2.645,0,0,1,1.544.408,2.626,2.626,0,0,1,.9,1.16,8.349,8.349,0,0,1,1.32-1.112A2.708,2.708,0,0,1,12.7-9.184a2.385,2.385,0,0,1,2.1.952,4.574,4.574,0,0,1,.664,2.648V0H13.128V-5.3a2.57,2.57,0,0,0-.3-1.456,1.091,1.091,0,0,0-.944-.416,1.607,1.607,0,0,0-.808.248,4.5,4.5,0,0,0-.92.76V0H7.8V-5.3a2.57,2.57,0,0,0-.3-1.456,1.091,1.091,0,0,0-.944-.416,1.67,1.67,0,0,0-.808.248,3.737,3.737,0,0,0-.9.76V0Z" transform="translate(878.383 4669.207)" fill="#333"/>
      </g>
      <g id="グループ_523" data-name="グループ 523">
        <g id="グループ_520" data-name="グループ 520">
          <rect id="長方形_303" data-name="長方形 303" width="406" height="30" transform="translate(259.679 4417.766)" fill="#fff766"/>
          <path id="パス_711" data-name="パス 711" d="M-61.94-7.94-60-8.9q.52.68,1.04,1.49t.94,1.6a8.517,8.517,0,0,1,.62,1.43L-59.48-3.3a9.451,9.451,0,0,0-.57-1.43q-.39-.81-.88-1.65T-61.94-7.94Zm.68-5.66h7.18v2.28h-7.18Zm6.14,0h2.32v.7a3.528,3.528,0,0,1-.02.42q-.1,3.3-.21,5.61t-.27,3.81A18.9,18.9,0,0,1-53.67-.7,3.311,3.311,0,0,1-54.2.56a2.463,2.463,0,0,1-.87.8,3.831,3.831,0,0,1-1.09.32,9.816,9.816,0,0,1-1.39.08q-.85,0-1.75-.02A4.653,4.653,0,0,0-59.54.53,4.945,4.945,0,0,0-60.1-.68q.96.08,1.76.1t1.18.02a1.339,1.339,0,0,0,.51-.08,1.175,1.175,0,0,0,.37-.26,2.474,2.474,0,0,0,.42-1.06,18.308,18.308,0,0,0,.31-2.25q.13-1.45.24-3.65t.19-5.26Zm-6.02-3.42,2.48.56a26.825,26.825,0,0,1-1.01,2.91,24.208,24.208,0,0,1-1.29,2.67,14.847,14.847,0,0,1-1.46,2.16,7.643,7.643,0,0,0-.62-.5q-.38-.28-.8-.54t-.72-.42a9.792,9.792,0,0,0,1.42-1.89,17.625,17.625,0,0,0,1.15-2.36A21,21,0,0,0-61.14-17.02Zm-7.06.04,2.12.74q-.4.78-.84,1.59t-.86,1.56a14.207,14.207,0,0,1-.82,1.31l-1.62-.66q.36-.62.74-1.41t.72-1.61Q-68.42-16.28-68.2-16.98Zm2.4,2.38,2.04.84q-.74,1.14-1.6,2.39T-67.1-8.98q-.88,1.14-1.64,2l-1.46-.74q.58-.68,1.18-1.54t1.19-1.78q.59-.92,1.12-1.85T-65.8-14.6Zm-5.48,2.36,1.14-1.64q.52.44,1.08.99t1.03,1.09a5.309,5.309,0,0,1,.71,1l-1.22,1.86a7.536,7.536,0,0,0-.69-1.05q-.45-.59-.99-1.18T-71.28-12.24Zm5,2.46,1.7-.74q.4.66.78,1.42t.66,1.49a10.774,10.774,0,0,1,.42,1.31l-1.84.84a11.345,11.345,0,0,0-.38-1.31q-.26-.75-.61-1.54T-66.28-9.78Zm-5,1.6q1.38-.04,3.33-.12t3.97-.18L-64-6.58q-1.88.14-3.74.27t-3.34.21Zm5.34,3.4,1.76-.58A19.361,19.361,0,0,1-63.4-3.4a15.617,15.617,0,0,1,.52,1.84l-1.86.68a15.43,15.43,0,0,0-.48-1.89Q-65.56-3.86-65.94-4.78Zm-4.48-.46,1.98.36a25.247,25.247,0,0,1-.48,2.84A13.415,13.415,0,0,1-69.66.32,4.39,4.39,0,0,0-70.2.01q-.34-.17-.69-.33a5.145,5.145,0,0,0-.61-.24,9.147,9.147,0,0,0,.7-2.15A22.918,22.918,0,0,0-70.42-5.24Zm2.32-1.88h2.12V1.8H-68.1ZM-47.36,0V-2.38h4.4v-9.4h-3.48v-1.84q1.4-.26,2.42-.47a5.021,5.021,0,0,0,1.84-.77h2.16V-2.38h4V0ZM-21.8.26a5.258,5.258,0,0,1-3.02-.88,5.674,5.674,0,0,1-2.02-2.61,11.139,11.139,0,0,1-.72-4.27,10.7,10.7,0,0,1,.72-4.2,5.508,5.508,0,0,1,2.02-2.53,5.393,5.393,0,0,1,3.02-.85,5.393,5.393,0,0,1,3.02.85,5.508,5.508,0,0,1,2.02,2.53,10.7,10.7,0,0,1,.72,4.2,11.139,11.139,0,0,1-.72,4.27A5.674,5.674,0,0,1-18.78-.62,5.258,5.258,0,0,1-21.8.26Zm0-2.3a2.432,2.432,0,0,0,1.49-.5,3.39,3.39,0,0,0,1.07-1.7,10.653,10.653,0,0,0,.4-3.26,10.157,10.157,0,0,0-.4-3.21,3.12,3.12,0,0,0-1.07-1.61,2.574,2.574,0,0,0-1.49-.46,2.574,2.574,0,0,0-1.49.46,3.12,3.12,0,0,0-1.07,1.61,10.157,10.157,0,0,0-.4,3.21,10.653,10.653,0,0,0,.4,3.26,3.39,3.39,0,0,0,1.07,1.7A2.432,2.432,0,0,0-21.8-2.04ZM-6.84-17.08l2.46.64a25.321,25.321,0,0,1-1.27,2.9,22.323,22.323,0,0,1-1.58,2.63A15.9,15.9,0,0,1-8.98-8.8q-.24-.2-.62-.51t-.77-.59q-.39-.28-.69-.46a11.209,11.209,0,0,0,1.72-1.85A16.174,16.174,0,0,0-7.9-14.53,17.177,17.177,0,0,0-6.84-17.08Zm.44,2.28H6.32v2.32H-7.56Zm-1.42,4.74H5.84v2.24H-5.42v4.2h-2.4ZM-11-4.8H7.4v2.3H-11Zm9.06-8.8H.54V1.8H-1.94ZM17.3-6.74A6.4,6.4,0,0,0,16-7.8a3.265,3.265,0,0,0-1.68-.38,2.8,2.8,0,0,0-1.79.67,5.467,5.467,0,0,0-1.39,1.73l-2.2-1.2a7.509,7.509,0,0,1,2.42-2.77,5.438,5.438,0,0,1,3.02-.91,5.889,5.889,0,0,1,2.57.54A7.058,7.058,0,0,1,19.1-8.46,6.264,6.264,0,0,0,20.41-7.4a3.277,3.277,0,0,0,1.67.38,2.8,2.8,0,0,0,1.79-.67,5.467,5.467,0,0,0,1.39-1.73l2.2,1.2a7.509,7.509,0,0,1-2.42,2.77,5.438,5.438,0,0,1-3.02.91,5.907,5.907,0,0,1-2.56-.54A7.013,7.013,0,0,1,17.3-6.74ZM29.06,0V-1.7q2.02-1.8,3.45-3.34A16.03,16.03,0,0,0,34.7-7.91a5.034,5.034,0,0,0,.76-2.47,2.874,2.874,0,0,0-.26-1.26,1.892,1.892,0,0,0-.75-.83,2.34,2.34,0,0,0-1.21-.29,2.582,2.582,0,0,0-1.47.45,6.654,6.654,0,0,0-1.23,1.07L28.9-12.82a8.036,8.036,0,0,1,2.13-1.69,5.52,5.52,0,0,1,2.59-.57,5.057,5.057,0,0,1,2.45.57,4.068,4.068,0,0,1,1.63,1.59,4.774,4.774,0,0,1,.58,2.4,6.257,6.257,0,0,1-.67,2.73,14.216,14.216,0,0,1-1.79,2.77A33.174,33.174,0,0,1,33.34-2.3q.58-.08,1.25-.13t1.19-.05h3.2V0ZM45.9.28a4.189,4.189,0,0,1-2.63-.87,5.587,5.587,0,0,1-1.76-2.6,12.642,12.642,0,0,1-.63-4.29,12.222,12.222,0,0,1,.63-4.23,5.391,5.391,0,0,1,1.76-2.53,4.288,4.288,0,0,1,2.63-.84,4.243,4.243,0,0,1,2.64.85,5.494,5.494,0,0,1,1.75,2.53,12.135,12.135,0,0,1,.63,4.22,12.642,12.642,0,0,1-.63,4.29,5.623,5.623,0,0,1-1.75,2.6A4.178,4.178,0,0,1,45.9.28Zm0-2.3a1.592,1.592,0,0,0,1.16-.5,3.534,3.534,0,0,0,.78-1.69,14.959,14.959,0,0,0,.28-3.27,14.556,14.556,0,0,0-.28-3.23,3.3,3.3,0,0,0-.78-1.64,1.642,1.642,0,0,0-1.16-.47,1.631,1.631,0,0,0-1.13.47,3.351,3.351,0,0,0-.81,1.64,13.616,13.616,0,0,0-.3,3.23,13.992,13.992,0,0,0,.3,3.27,3.593,3.593,0,0,0,.81,1.69A1.582,1.582,0,0,0,45.9-2.02ZM56.76-17.08l2.46.64a25.32,25.32,0,0,1-1.27,2.9,22.324,22.324,0,0,1-1.58,2.63A15.9,15.9,0,0,1,54.62-8.8Q54.38-9,54-9.31t-.77-.59q-.39-.28-.69-.46a11.209,11.209,0,0,0,1.72-1.85,16.175,16.175,0,0,0,1.44-2.32A17.177,17.177,0,0,0,56.76-17.08Zm.44,2.28H69.92v2.32H56.04Zm-1.42,4.74H69.44v2.24H58.18v4.2h-2.4ZM52.6-4.8H71v2.3H52.6Zm9.06-8.8h2.48V1.8H61.66Z" transform="translate(462.68 4440.366)" fill="#333"/>
        </g>
        <g id="グループ_521" data-name="グループ 521">
          <rect id="長方形_304" data-name="長方形 304" width="162" height="30" transform="translate(694.99 4417.766)" fill="#fff766"/>
          <path id="パス_710" data-name="パス 710" d="M-46.04-7.94l1.94-.96q.52.68,1.04,1.49t.94,1.6a8.517,8.517,0,0,1,.62,1.43L-43.58-3.3a9.451,9.451,0,0,0-.57-1.43q-.39-.81-.88-1.65T-46.04-7.94Zm.68-5.66h7.18v2.28h-7.18Zm6.14,0h2.32v.7a3.528,3.528,0,0,1-.02.42q-.1,3.3-.21,5.61t-.27,3.81A18.9,18.9,0,0,1-37.77-.7,3.311,3.311,0,0,1-38.3.56a2.463,2.463,0,0,1-.87.8,3.831,3.831,0,0,1-1.09.32,9.816,9.816,0,0,1-1.39.08q-.85,0-1.75-.02A4.653,4.653,0,0,0-43.64.53,4.945,4.945,0,0,0-44.2-.68q.96.08,1.76.1t1.18.02a1.339,1.339,0,0,0,.51-.08,1.175,1.175,0,0,0,.37-.26,2.474,2.474,0,0,0,.42-1.06,18.308,18.308,0,0,0,.31-2.25q.13-1.45.24-3.65t.19-5.26Zm-6.02-3.42,2.48.56a26.825,26.825,0,0,1-1.01,2.91,24.208,24.208,0,0,1-1.29,2.67,14.847,14.847,0,0,1-1.46,2.16,7.643,7.643,0,0,0-.62-.5q-.38-.28-.8-.54t-.72-.42a9.792,9.792,0,0,0,1.42-1.89,17.625,17.625,0,0,0,1.15-2.36A21,21,0,0,0-45.24-17.02Zm-7.06.04,2.12.74q-.4.78-.84,1.59t-.86,1.56a14.209,14.209,0,0,1-.82,1.31l-1.62-.66q.36-.62.74-1.41t.72-1.61Q-52.52-16.28-52.3-16.98Zm2.4,2.38,2.04.84q-.74,1.14-1.6,2.39T-51.2-8.98q-.88,1.14-1.64,2l-1.46-.74q.58-.68,1.18-1.54t1.19-1.78q.59-.92,1.12-1.85T-49.9-14.6Zm-5.48,2.36,1.14-1.64q.52.44,1.08.99t1.03,1.09a5.308,5.308,0,0,1,.71,1l-1.22,1.86a7.535,7.535,0,0,0-.69-1.05q-.45-.59-.99-1.18T-55.38-12.24Zm5,2.46,1.7-.74q.4.66.78,1.42t.66,1.49a10.774,10.774,0,0,1,.42,1.31l-1.84.84a11.345,11.345,0,0,0-.38-1.31q-.26-.75-.61-1.54T-50.38-9.78Zm-5,1.6q1.38-.04,3.33-.12t3.97-.18l-.02,1.9q-1.88.14-3.74.27t-3.34.21Zm5.34,3.4,1.76-.58A19.36,19.36,0,0,1-47.5-3.4a15.617,15.617,0,0,1,.52,1.84l-1.86.68a15.43,15.43,0,0,0-.48-1.89Q-49.66-3.86-50.04-4.78Zm-4.48-.46,1.98.36a25.247,25.247,0,0,1-.48,2.84A13.415,13.415,0,0,1-53.76.32,4.39,4.39,0,0,0-54.3.01q-.34-.17-.69-.33a5.144,5.144,0,0,0-.61-.24,9.146,9.146,0,0,0,.7-2.15A22.92,22.92,0,0,0-54.52-5.24Zm2.32-1.88h2.12V1.8H-52.2ZM-31.46,0V-2.38h4.4v-9.4h-3.48v-1.84q1.4-.26,2.42-.47a5.021,5.021,0,0,0,1.84-.77h2.16V-2.38h4V0Zm20.52-17.08,2.46.64a25.321,25.321,0,0,1-1.27,2.9,22.324,22.324,0,0,1-1.58,2.63A15.9,15.9,0,0,1-13.08-8.8q-.24-.2-.62-.51t-.77-.59q-.39-.28-.69-.46a11.209,11.209,0,0,0,1.72-1.85A16.174,16.174,0,0,0-12-14.53,17.177,17.177,0,0,0-10.94-17.08Zm.44,2.28H2.22v2.32H-11.66Zm-1.42,4.74H1.74v2.24H-9.52v4.2h-2.4ZM-15.1-4.8H3.3v2.3H-15.1Zm9.06-8.8h2.48V1.8H-6.04ZM13.2-6.74A6.4,6.4,0,0,0,11.9-7.8a3.265,3.265,0,0,0-1.68-.38,2.8,2.8,0,0,0-1.79.67A5.467,5.467,0,0,0,7.04-5.78l-2.2-1.2A7.509,7.509,0,0,1,7.26-9.75a5.438,5.438,0,0,1,3.02-.91,5.889,5.889,0,0,1,2.57.54A7.058,7.058,0,0,1,15-8.46,6.264,6.264,0,0,0,16.31-7.4a3.277,3.277,0,0,0,1.67.38,2.8,2.8,0,0,0,1.79-.67,5.467,5.467,0,0,0,1.39-1.73l2.2,1.2a7.509,7.509,0,0,1-2.42,2.77,5.438,5.438,0,0,1-3.02.91,5.907,5.907,0,0,1-2.56-.54A7.013,7.013,0,0,1,13.2-6.74ZM24.96,0V-1.7q2.02-1.8,3.45-3.34A16.03,16.03,0,0,0,30.6-7.91a5.034,5.034,0,0,0,.76-2.47,2.874,2.874,0,0,0-.26-1.26,1.892,1.892,0,0,0-.75-.83,2.34,2.34,0,0,0-1.21-.29,2.582,2.582,0,0,0-1.47.45,6.654,6.654,0,0,0-1.23,1.07L24.8-12.82a8.036,8.036,0,0,1,2.13-1.69,5.52,5.52,0,0,1,2.59-.57,5.057,5.057,0,0,1,2.45.57,4.068,4.068,0,0,1,1.63,1.59,4.774,4.774,0,0,1,.58,2.4,6.257,6.257,0,0,1-.67,2.73,14.216,14.216,0,0,1-1.79,2.77A33.174,33.174,0,0,1,29.24-2.3q.58-.08,1.25-.13t1.19-.05h3.2V0Zm15.9-17.08,2.46.64a25.32,25.32,0,0,1-1.27,2.9,22.324,22.324,0,0,1-1.58,2.63A15.9,15.9,0,0,1,38.72-8.8q-.24-.2-.62-.51t-.77-.59q-.39-.28-.69-.46a11.209,11.209,0,0,0,1.72-1.85,16.175,16.175,0,0,0,1.44-2.32A17.177,17.177,0,0,0,40.86-17.08Zm.44,2.28H54.02v2.32H40.14Zm-1.42,4.74H53.54v2.24H42.28v4.2h-2.4ZM36.7-4.8H55.1v2.3H36.7Zm9.06-8.8h2.48V1.8H45.76Z" transform="translate(775.99 4440.366)" fill="#333"/>
        </g>
        <path id="パス_708" data-name="パス 708" d="M-99.06-7.54h18.14v2.12H-99.06Zm4.66-5.76h10.82v1.86H-94.4Zm0,2.88h10.82v1.86H-94.4Zm-3.78,9.9Q-97-.66-95.47-.87t3.22-.45q1.69-.24,3.33-.48L-88.8.3q-1.54.24-3.12.5t-3.04.47q-1.46.21-2.68.41Zm9.02-6.42a9.713,9.713,0,0,0,3.1,4.3,12.291,12.291,0,0,0,5.52,2.3,6.4,6.4,0,0,0-.55.64q-.29.38-.55.78a6.3,6.3,0,0,0-.42.74A14.4,14.4,0,0,1-86.3.15a10.724,10.724,0,0,1-3.01-2.73,15.209,15.209,0,0,1-2.05-3.84Zm5.68,1.26,1.94,1.34q-.74.54-1.55,1.05t-1.63.95q-.82.44-1.52.78l-1.6-1.24q.7-.36,1.5-.85t1.55-1.03Q-84.04-5.22-83.48-5.68ZM-95.72-16.3h12.68v1.96H-93.26v7.68h-2.46Zm0,9.4h2.46V-.26L-95.72,0Zm20.92-7.4a7.592,7.592,0,0,0-.13.82q-.05.46-.08.9t-.03.72q-.02.66-.01,1.36t.04,1.43q.03.73.09,1.45a19.232,19.232,0,0,0,.4,2.54,5.118,5.118,0,0,0,.68,1.71,1.249,1.249,0,0,0,1.06.61.915.915,0,0,0,.67-.38,3.931,3.931,0,0,0,.6-.99,11.753,11.753,0,0,0,.48-1.29q.21-.68.37-1.28l2,2.44a15.8,15.8,0,0,1-1.31,2.77A4.7,4.7,0,0,1-71.32-.01a2.757,2.757,0,0,1-1.52.45,3.384,3.384,0,0,1-2.05-.72,5.471,5.471,0,0,1-1.65-2.33A15.382,15.382,0,0,1-77.5-6.9q-.1-.92-.15-1.94t-.06-1.94q-.01-.92-.01-1.52,0-.42-.04-1a10.221,10.221,0,0,0-.12-1.04Zm10,.46a9.939,9.939,0,0,1,1.08,1.66,20.362,20.362,0,0,1,.96,2.1q.44,1.12.78,2.29t.55,2.28a16.932,16.932,0,0,1,.27,2.03L-63.8-2.46q-.1-1.22-.36-2.66a26.151,26.151,0,0,0-.7-2.9,20.228,20.228,0,0,0-1.05-2.76,9.559,9.559,0,0,0-1.43-2.24Zm9.76-3.24,2.46.64a25.32,25.32,0,0,1-1.27,2.9,22.324,22.324,0,0,1-1.58,2.63A15.9,15.9,0,0,1-57.18-8.8q-.24-.2-.62-.51t-.77-.59q-.39-.28-.69-.46a11.209,11.209,0,0,0,1.72-1.85,16.175,16.175,0,0,0,1.44-2.32A17.177,17.177,0,0,0-55.04-17.08Zm.44,2.28h12.72v2.32H-55.76Zm-1.42,4.74h13.66v2.24H-53.62v4.2h-2.4ZM-59.2-4.8h18.4v2.3H-59.2Zm9.06-8.8h2.48V1.8h-2.48Zm15.54-2.44h9.98v2.34H-34.6Zm.02,4.78h10.06v2.28H-34.58Zm-.12,4.72h10.04V-4.2H-34.7Zm-1.56-9.5h2.48v6.62q0,1.3-.15,2.8a20,20,0,0,1-.55,3.04A12.081,12.081,0,0,1-35.66-.66,9.008,9.008,0,0,1-37.72,1.8a4.921,4.921,0,0,0-.51-.6q-.33-.34-.7-.66a4.3,4.3,0,0,0-.65-.48,7.962,7.962,0,0,0,1.81-2.13,9.945,9.945,0,0,0,1-2.43,13.814,13.814,0,0,0,.42-2.52q.09-1.26.09-2.42Zm10.52,0h2.56V-1.26A3.8,3.8,0,0,1-23.47.4a1.878,1.878,0,0,1-.99.88,5.3,5.3,0,0,1-1.8.39q-1.08.07-2.64.07a7.467,7.467,0,0,0-.24-.82Q-29.3.46-29.5,0a5.992,5.992,0,0,0-.4-.78q.7.04,1.43.05t1.3.01h.81a.7.7,0,0,0,.48-.13.6.6,0,0,0,.14-.45Zm15.46,0q-.1.54-.32,1.4a17.183,17.183,0,0,1-.64,1.94q-.32.74-.73,1.53a14.1,14.1,0,0,1-.83,1.41,3.358,3.358,0,0,1,.66-.21,7.977,7.977,0,0,1,.83-.14,6.737,6.737,0,0,1,.77-.05,3.075,3.075,0,0,1,2.09.72A2.68,2.68,0,0,1-7.62-7.3q0,.4.01.98t.03,1.21q.02.63.04,1.23t.02,1.08h-2.4q.04-.34.05-.81t.02-.99q.01-.52.02-1.01t.01-.89a1.54,1.54,0,0,0-.51-1.33,1.88,1.88,0,0,0-1.13-.37,3.864,3.864,0,0,0-1.69.41,5.441,5.441,0,0,0-1.43.97q-.44.44-.89.98t-.97,1.22l-2.14-1.6a26.673,26.673,0,0,0,2.25-2.32,16.869,16.869,0,0,0,1.61-2.22,13.96,13.96,0,0,0,1.08-2.2,12.105,12.105,0,0,0,.49-1.67,10.176,10.176,0,0,0,.23-1.63ZM-17.8-14.2q.76.12,1.76.18t1.76.06q1.32,0,2.89-.06t3.19-.21q1.62-.15,3.08-.39l-.02,2.32q-1.06.14-2.29.25t-2.5.18q-1.27.07-2.43.1t-2.06.03q-.4,0-.99-.01t-1.21-.04q-.62-.03-1.18-.07ZM-1.96-8.52q-.32.1-.75.25l-.86.3q-.43.15-.77.29-.96.38-2.27.92T-9.34-5.5a12.217,12.217,0,0,0-1.52.94,4.012,4.012,0,0,0-.94.93,1.792,1.792,0,0,0-.32,1.03,1.22,1.22,0,0,0,.18.69,1.224,1.224,0,0,0,.54.43,3.066,3.066,0,0,0,.9.22,11.786,11.786,0,0,0,1.28.06q1.28,0,2.82-.15t2.86-.41L-3.62.82Q-4.26.9-5.24.99t-2.03.13q-1.05.04-2.01.04a11.94,11.94,0,0,1-2.8-.3A3.938,3.938,0,0,1-14.03-.17a2.761,2.761,0,0,1-.71-2.01,3.784,3.784,0,0,1,.47-1.88,5.718,5.718,0,0,1,1.25-1.52,11.51,11.51,0,0,1,1.71-1.23q.93-.55,1.83-1.01.92-.48,1.66-.82t1.39-.61q.65-.27,1.25-.55.58-.26,1.12-.51t1.1-.53ZM9.24-15.8q-.1.38-.19.83t-.17.83q-.08.44-.2.99t-.23,1.1q-.11.55-.23,1.07-.2.86-.5,2t-.7,2.45q-.4,1.31-.9,2.63T5.06-1.33A17.274,17.274,0,0,1,3.86.92L1.26-.12A15.6,15.6,0,0,0,2.57-2.23Q3.18-3.4,3.68-4.64t.89-2.44q.39-1.2.67-2.24t.44-1.78q.28-1.36.44-2.62a16.579,16.579,0,0,0,.14-2.38Zm6.88,1.88a12.069,12.069,0,0,1,.99,1.61q.51.97,1,2.05t.9,2.08q.41,1,.63,1.7L17.1-5.3q-.2-.84-.55-1.87t-.8-2.1q-.45-1.07-.96-2.03a9.113,9.113,0,0,0-1.05-1.6Zm-15,2.22q.54.04,1.06.03t1.08-.03q.48-.02,1.19-.07t1.5-.11q.79-.06,1.59-.13t1.48-.11q.68-.04,1.12-.04a4.678,4.678,0,0,1,1.87.35,2.659,2.659,0,0,1,1.28,1.19,4.682,4.682,0,0,1,.47,2.28q0,1.18-.11,2.56a24.525,24.525,0,0,1-.35,2.64A8.248,8.248,0,0,1,12.62-1,2.824,2.824,0,0,1,11.31.44a4.5,4.5,0,0,1-1.97.4A8.986,8.986,0,0,1,8.11.75Q7.46.66,6.94.56L6.5-2.08q.4.1.87.2t.9.16a5.246,5.246,0,0,0,.69.06,1.943,1.943,0,0,0,.88-.19,1.422,1.422,0,0,0,.62-.67,6.012,6.012,0,0,0,.45-1.5q.17-.92.26-1.99t.09-2.05a2.436,2.436,0,0,0-.22-1.18,1.087,1.087,0,0,0-.65-.51,3.752,3.752,0,0,0-1.07-.13q-.44,0-1.23.07t-1.67.16q-.88.09-1.65.19t-1.19.14q-.42.08-1.09.17t-1.13.17Zm34.44-4.2q-.04.32-.06.67t-.04.69q-.02.28-.01.85t.01,1.28v1.44q0,.73.01,1.35t.01.96q0,1.78-.13,3.23a10.951,10.951,0,0,1-.56,2.67A7.272,7.272,0,0,1,33.49-.5a10.3,10.3,0,0,1-2.37,2L28.82-.32a8.018,8.018,0,0,0,1.24-.69,5.3,5.3,0,0,0,1.08-.91,5.845,5.845,0,0,0,.94-1.26,6.463,6.463,0,0,0,.57-1.46,9.766,9.766,0,0,0,.28-1.78Q33-7.4,33-8.68v-1.36q0-.82-.02-1.7t-.04-1.63q-.02-.75-.06-1.15a5.9,5.9,0,0,0-.09-.76q-.07-.38-.13-.62ZM27.68-12q.48.06.98.11t1.01.08q.51.03,1.03.03,1.3,0,2.72-.06t2.74-.19q1.32-.13,2.3-.31l-.02,2.6q-.94.1-2.22.19t-2.69.14q-1.41.05-2.77.05-.42,0-.96-.02l-1.08-.04-1.04-.04Zm-2.06-3.56q-.12.36-.26.83t-.22.79q-.18.82-.38,1.97t-.34,2.39a21.654,21.654,0,0,0-.14,2.43,9.994,9.994,0,0,0,.2,2.11q.2-.46.46-1.11t.5-1.21l1.24.8q-.28.86-.55,1.77t-.47,1.72q-.2.81-.34,1.39a3.208,3.208,0,0,0-.09.51q-.03.29-.03.47,0,.14.01.38t.03.44L23.02.34q-.22-.6-.49-1.65a23.04,23.04,0,0,1-.46-2.32,16.946,16.946,0,0,1-.19-2.51q0-1.64.11-3.16t.27-2.77q.16-1.25.26-2.05a6.155,6.155,0,0,0,.1-.89q.02-.47.04-.85Zm15.8,1.8q.6-.02,1.14-.05t.84-.05q.62-.06,1.52-.14l2.03-.18q1.13-.1,2.41-.21l2.66-.23q1.04-.08,2.08-.15t1.97-.12q.93-.05,1.61-.07l.02,2.56q-.54,0-1.24.02t-1.39.07a8.562,8.562,0,0,0-1.23.17,4.915,4.915,0,0,0-1.67.81,6.479,6.479,0,0,0-1.35,1.35,6.21,6.21,0,0,0-.89,1.67,5.41,5.41,0,0,0-.31,1.79,4.151,4.151,0,0,0,.34,1.73,3.7,3.7,0,0,0,.95,1.28,5.382,5.382,0,0,0,1.43.88,8.55,8.55,0,0,0,1.77.53,15.448,15.448,0,0,0,1.97.24L55.14.88a12.448,12.448,0,0,1-2.45-.4A10.142,10.142,0,0,1,50.47-.4a7.4,7.4,0,0,1-1.81-1.37,6,6,0,0,1-1.22-1.86A6.026,6.026,0,0,1,47-5.98a7.377,7.377,0,0,1,.46-2.66,8.711,8.711,0,0,1,1.14-2.11,6.739,6.739,0,0,1,1.36-1.41q-.56.06-1.35.15t-1.7.2q-.91.11-1.85.23t-1.81.27q-.87.15-1.57.29Zm22.22,4.3h4.62v2.18H63.64Zm3.7,0h2.32v.88q-.04,2.12-.1,3.47a17.624,17.624,0,0,1-.19,2.1,2.633,2.633,0,0,1-.35,1.05,1.859,1.859,0,0,1-.63.54,2.987,2.987,0,0,1-.77.24,5.771,5.771,0,0,1-1.01.09q-.61.01-1.33-.01a5.044,5.044,0,0,0-.2-1.16,4.546,4.546,0,0,0-.44-1.08q.54.04,1.01.06t.71.02a1.108,1.108,0,0,0,.35-.05.5.5,0,0,0,.25-.19,1.689,1.689,0,0,0,.21-.75q.07-.57.11-1.74t.06-3.11Zm6-6.28,1.46-1.44q.56.28,1.18.66t1.19.76a6.116,6.116,0,0,1,.93.74l-1.54,1.6a9.567,9.567,0,0,0-.88-.76q-.54-.42-1.16-.83T73.34-15.74Zm2.36,5.16,2.44.58A24.253,24.253,0,0,1,74.7-3.11a18.187,18.187,0,0,1-5.16,4.83,5.113,5.113,0,0,0-.48-.63Q68.74.72,68.4.35t-.6-.61a15.008,15.008,0,0,0,4.88-4.21A18.916,18.916,0,0,0,75.7-10.58ZM63.76-14H79.2v2.36H63.76Zm-1.6,0h2.52v5.9q0,1.12-.08,2.45t-.3,2.72a16.439,16.439,0,0,1-.65,2.67,9.68,9.68,0,0,1-1.11,2.3,3.754,3.754,0,0,0-.59-.58q-.39-.32-.78-.63A3.119,3.119,0,0,0,60.5.4a8.706,8.706,0,0,0,1.11-2.69,18.433,18.433,0,0,0,.45-3.01q.1-1.52.1-2.82Zm8.12-2.98H72.8q-.04,2.46.14,4.82t.53,4.41a29.4,29.4,0,0,0,.83,3.62,9.668,9.668,0,0,0,1.06,2.45q.58.88,1.18.88.34,0,.53-.82a16.523,16.523,0,0,0,.27-2.7,7.319,7.319,0,0,0,.99.78,5.268,5.268,0,0,0,1.05.56,12.568,12.568,0,0,1-.54,2.87,2.607,2.607,0,0,1-.96,1.39,2.834,2.834,0,0,1-1.54.38A2.933,2.933,0,0,1,74.39.92a6.553,6.553,0,0,1-1.54-2.06,16.16,16.16,0,0,1-1.15-3.1,34.229,34.229,0,0,1-.79-3.86q-.31-2.08-.46-4.33T70.28-16.98ZM80.94-7.54H99.08v2.12H80.94ZM85.6-13.3H96.42v1.86H85.6Zm0,2.88H96.42v1.86H85.6ZM81.82-.52Q83-.66,84.53-.87t3.22-.45q1.69-.24,3.33-.48L91.2.3q-1.54.24-3.12.5t-3.04.47q-1.46.21-2.68.41Zm9.02-6.42a9.713,9.713,0,0,0,3.1,4.3,12.291,12.291,0,0,0,5.52,2.3,6.4,6.4,0,0,0-.55.64q-.29.38-.55.78a6.3,6.3,0,0,0-.42.74A14.4,14.4,0,0,1,93.7.15a10.724,10.724,0,0,1-3.01-2.73,15.209,15.209,0,0,1-2.05-3.84Zm5.68,1.26,1.94,1.34q-.74.54-1.55,1.05t-1.63.95q-.82.44-1.52.78L92.16-2.8q.7-.36,1.5-.85t1.55-1.03Q95.96-5.22,96.52-5.68ZM84.28-16.3H96.96v1.96H86.74v7.68H84.28Zm0,9.4h2.46V-.26L84.28,0Z" transform="translate(462.68 4503.528)" fill="#333"/>
        <path id="パス_707" data-name="パス 707" d="M-31.32-7.38h2.48V1.76h-2.48Zm-3.48-3.28v1.48h9.46v-1.48Zm0-3.38v1.44h9.46v-1.44Zm-2.36-2.12h14.3v9.08h-14.3ZM-39.14-4.8h18.36v2.28H-39.14ZM-7.7-16.1h5.16v2.18H-7.7Zm0,4.52h5.16v2.12H-7.7ZM-7.72-7h5.2v2.14h-5.2Zm4.16-9.1h2.3V-.86A3.909,3.909,0,0,1-1.46.53a1.6,1.6,0,0,1-.72.81,3.5,3.5,0,0,1-1.31.36,16.445,16.445,0,0,1-1.91.06A7.293,7.293,0,0,0-5.66.61,7.869,7.869,0,0,0-6.08-.52q.64.04,1.27.04h.85a.431.431,0,0,0,.31-.09.431.431,0,0,0,.09-.31Zm-5.14,0h2.26v7.36q0,1.18-.07,2.58t-.28,2.83A21.7,21.7,0,0,1-7.38-.56a9.328,9.328,0,0,1-1.04,2.4,3.137,3.137,0,0,0-.54-.49q-.36-.27-.72-.51a4.1,4.1,0,0,0-.64-.36,9.7,9.7,0,0,0,1.1-2.9,21.155,21.155,0,0,0,.43-3.25q.09-1.65.09-3.07Zm-10.46,1.46h9.8v2.1h-9.8Zm2.6,3.28h4.78v1.82h-4.78Zm0,3.1h4.78v1.84h-4.78ZM-19.4-5.08h9.9v2.1h-9.9Zm1.8-11.68h2.16V-4.32H-17.6Zm4.66,0h2.2V-4.32h-2.2ZM-16.92-2.84l2.28.66A14.889,14.889,0,0,1-16.02.01a13.746,13.746,0,0,1-1.62,1.83,3.863,3.863,0,0,0-.55-.48q-.35-.26-.72-.52t-.65-.42a8.525,8.525,0,0,0,1.51-1.48A8.72,8.72,0,0,0-16.92-2.84Zm2.98.9,1.82-1q.4.42.83.95t.82,1.04a8.526,8.526,0,0,1,.63.93L-11.78,1.1a7.67,7.67,0,0,0-.57-.93q-.37-.53-.79-1.09T-13.94-1.94ZM9.1-15.66q-.08.38-.18.83T8.74-14q-.08.44-.2.99t-.23,1.1q-.11.55-.23,1.07-.2.86-.5,2t-.7,2.45q-.4,1.31-.9,2.63T4.92-1.19a17.274,17.274,0,0,1-1.2,2.25L1.12.02A15.6,15.6,0,0,0,2.43-2.09q.61-1.17,1.11-2.4t.89-2.44q.39-1.21.68-2.25t.45-1.78q.28-1.36.44-2.62a14.745,14.745,0,0,0,.12-2.38Zm6.88,2.02a14.084,14.084,0,0,1,.99,1.61q.51.95,1.01,2.01t.9,2.04q.4.98.62,1.7L16.96-5.12a16.344,16.344,0,0,0-.53-1.86Q16.08-8,15.62-9.05t-.97-1.99a9.408,9.408,0,0,0-1.05-1.58Zm-15,2.08q.54.04,1.07.03t1.07-.03q.5-.02,1.2-.07t1.49-.11q.79-.06,1.59-.13t1.48-.11q.68-.04,1.12-.04a4.661,4.661,0,0,1,1.88.35,2.668,2.668,0,0,1,1.27,1.19,4.682,4.682,0,0,1,.47,2.28q0,1.18-.1,2.56A21.573,21.573,0,0,1,13.17-3a8.5,8.5,0,0,1-.69,2.14A2.824,2.824,0,0,1,11.17.58,4.5,4.5,0,0,1,9.2.98,9.074,9.074,0,0,1,7.98.89Q7.32.8,6.8.7L6.38-1.94q.38.1.85.2t.9.16a5.246,5.246,0,0,0,.69.06,1.943,1.943,0,0,0,.88-.19,1.422,1.422,0,0,0,.62-.67,6.271,6.271,0,0,0,.46-1.5,18.433,18.433,0,0,0,.27-1.99q.09-1.07.09-2.05a2.346,2.346,0,0,0-.23-1.18,1.127,1.127,0,0,0-.66-.51A3.668,3.668,0,0,0,9.2-9.74q-.46,0-1.24.07t-1.67.16q-.89.09-1.65.19t-1.18.14q-.44.08-1.11.17t-1.13.17Zm14.64-4.86q.26.36.55.86t.57,1q.28.5.48.88l-1.62.7q-.2-.42-.46-.92t-.54-1a6.88,6.88,0,0,0-.56-.86Zm2.38-.9q.26.38.56.88t.59,1q.29.5.45.84l-1.58.68q-.32-.62-.76-1.41a11.97,11.97,0,0,0-.86-1.35Zm13.54,2.46q-.14.2-.31.45t-.33.49q-.36.54-.79,1.25t-.89,1.5q-.46.79-.89,1.57t-.81,1.44a4.352,4.352,0,0,1,1.14-.46,4.928,4.928,0,0,1,1.16-.14,2.352,2.352,0,0,1,1.77.67,2.868,2.868,0,0,1,.71,1.93q.02.44.02,1.06t.01,1.24q.01.62.05,1.04a1.07,1.07,0,0,0,.43.83,1.517,1.517,0,0,0,.87.25,1.963,1.963,0,0,0,1.17-.38,3.656,3.656,0,0,0,.95-1.05,8.041,8.041,0,0,0,.73-1.52,16.068,16.068,0,0,0,.53-1.77L39.22-4.7A12.7,12.7,0,0,1,37.9-1.71a6.028,6.028,0,0,1-1.95,2A5.016,5.016,0,0,1,33.26,1,3.915,3.915,0,0,1,31.42.61a2.641,2.641,0,0,1-1.1-1.02,3.055,3.055,0,0,1-.4-1.37q-.04-.54-.05-1.2t-.02-1.29q-.01-.63-.05-1.03a1.251,1.251,0,0,0-.34-.82,1.136,1.136,0,0,0-.84-.3A2.164,2.164,0,0,0,27.36-6a4.619,4.619,0,0,0-1.09,1.1,8.181,8.181,0,0,0-.85,1.5q-.2.44-.42,1.04t-.42,1.24q-.2.64-.38,1.21t-.3.97L21.08.1q.38-1,.93-2.29T23.22-4.9q.66-1.42,1.34-2.82t1.3-2.65q.62-1.25,1.11-2.18t.75-1.41q.2-.4.46-.9T28.7-16Z" transform="translate(775.99 4503.528)" fill="#333"/>
        <g id="グループ_522" data-name="グループ 522">
          <rect id="長方形_305" data-name="長方形 305" width="180.923" height="106.941" rx="53.47" transform="translate(901.687 4401.879)" fill="#e61400"/>
          <path id="パス_709" data-name="パス 709" d="M-39-20.225h12.875v2.775H-39ZM-40.125-.975H-25.75V1.8H-40.125Zm2.65-5.175,2.55-.6a13.521,13.521,0,0,1,.575,1.613q.25.863.438,1.688a13.964,13.964,0,0,1,.262,1.475l-2.7.7a13.713,13.713,0,0,0-.213-1.5q-.163-.85-.388-1.737A13.039,13.039,0,0,0-37.475-6.15Zm7.05-.75,2.925.625q-.325.925-.663,1.85t-.663,1.763q-.325.838-.625,1.462l-2.525-.6a15.591,15.591,0,0,0,.587-1.575q.288-.9.55-1.825T-30.425-6.9Zm-4.875-6v3.025h5.45V-12.9Zm-2.75-2.625h11.125V-7.25H-38.05Zm-6.7-1.275h2.85v4.725a33.062,33.062,0,0,1-.2,3.462,23.1,23.1,0,0,1-.75,3.838A16.9,16.9,0,0,1-44.437-1,12.107,12.107,0,0,1-47.15,2.25a5.237,5.237,0,0,0-.587-.75q-.388-.425-.788-.8a5.666,5.666,0,0,0-.7-.575,10.915,10.915,0,0,0,2.412-2.837A13.422,13.422,0,0,0-45.475-5.9a18.3,18.3,0,0,0,.587-3.237q.138-1.588.138-2.963Zm-1.9-1.425h7.55V-15.5h-7.55Zm-2.375,6.575H-38.8v2.775H-49.025Zm6.575,3.475q.25.225.675.688t.938,1.037q.513.575.988,1.162t.875,1.05q.4.462.575.662L-40.325-1.1a14.432,14.432,0,0,0-.837-1.337q-.513-.738-1.062-1.513T-43.3-5.412q-.525-.688-.9-1.163Zm-4.4-13.05,2.825.55a28.038,28.038,0,0,1-.737,3.138,29.924,29.924,0,0,1-1.025,2.925,15.966,15.966,0,0,1-1.187,2.363q-.3-.2-.763-.475t-.95-.512q-.488-.237-.838-.387a13.151,13.151,0,0,0,1.663-3.413A24.547,24.547,0,0,0-46.85-21.225Zm37.225,1.1h6.45V-17.4h-6.45Zm0,5.65h6.45v2.65h-6.45ZM-9.65-8.75h6.5v2.675h-6.5Zm5.2-11.375h2.875v19.05A4.887,4.887,0,0,1-1.825.662a2,2,0,0,1-.9,1.013,4.379,4.379,0,0,1-1.637.45A20.556,20.556,0,0,1-6.75,2.2,9.117,9.117,0,0,0-7.075.762,9.836,9.836,0,0,0-7.6-.65q.8.05,1.588.05H-4.95a.538.538,0,0,0,.388-.112A.538.538,0,0,0-4.45-1.1Zm-6.425,0H-8.05v9.2q0,1.475-.087,3.225t-.35,3.537A27.122,27.122,0,0,1-9.225-.7a11.66,11.66,0,0,1-1.3,3,3.921,3.921,0,0,0-.675-.612q-.45-.338-.9-.638A5.126,5.126,0,0,0-12.9.6a12.119,12.119,0,0,0,1.375-3.625,26.444,26.444,0,0,0,.538-4.062q.112-2.062.112-3.838ZM-23.95-18.3H-11.7v2.625H-23.95Zm3.25,4.1h5.975v2.275H-20.7Zm0,3.875h5.975v2.3H-20.7ZM-24.25-6.35h12.375v2.625H-24.25ZM-22-20.95h2.7V-5.4H-22Zm5.825,0h2.75V-5.4h-2.75ZM-21.15-3.55l2.85.825A18.611,18.611,0,0,1-20.025.013,17.182,17.182,0,0,1-22.05,2.3a4.829,4.829,0,0,0-.687-.6q-.437-.325-.9-.65T-24.45.525a10.656,10.656,0,0,0,1.888-1.85A10.9,10.9,0,0,0-21.15-3.55Zm3.725,1.125,2.275-1.25q.5.525,1.038,1.188t1.025,1.3A10.657,10.657,0,0,1-12.3-.025l-2.425,1.4A9.588,9.588,0,0,0-15.437.213Q-15.9-.45-16.425-1.15T-17.425-2.425Zm26.5-3.55H15.9V-3.85H9.075ZM8.9-9.7h8.425V-.075H8.9V-2.3h5.6V-7.475H8.9Zm-1.25,0h2.725V1.2H7.65ZM3.475-16.8h6.25v2.025H3.475Zm11.6,0h6.3v2.025h-6.3Zm5.075-3.475h3.025V-1.3A5.329,5.329,0,0,1,22.9.6a2.011,2.011,0,0,1-1.025,1.075,5.446,5.446,0,0,1-1.888.475q-1.113.1-2.737.1a6.616,6.616,0,0,0-.2-1Q16.9.7,16.7.138a6.238,6.238,0,0,0-.425-.962q.675.05,1.337.063t1.2,0q.538-.012.737-.012A.677.677,0,0,0,20.025-.9a.632.632,0,0,0,.125-.45Zm-16.45,0h7.925V-11.2H3.7v-2.15H8.8V-18.1H3.7Zm18.05,0V-18.1h-5.6v4.8h5.6v2.15H13.3v-9.125Zm-19.775,0H4.95V2.25H1.975Zm24.75,3.125q.75-.025,1.425-.062t1.025-.062q.775-.05,1.913-.163t2.55-.238q1.412-.125,3.013-.25t3.325-.275q1.3-.125,2.588-.213t2.45-.15q1.163-.062,2.038-.087l.025,3.2q-.675,0-1.55.025t-1.738.087a8.648,8.648,0,0,0-1.537.238,6.277,6.277,0,0,0-2.1,1.012,7.846,7.846,0,0,0-1.687,1.675,8.047,8.047,0,0,0-1.113,2.075,6.572,6.572,0,0,0-.4,2.238,5.061,5.061,0,0,0,.438,2.163,4.759,4.759,0,0,0,1.2,1.6,6.728,6.728,0,0,0,1.787,1.1,10.687,10.687,0,0,0,2.213.662,19.31,19.31,0,0,0,2.462.3L43.875,1.15a15.56,15.56,0,0,1-3.062-.5,12.949,12.949,0,0,1-2.787-1.1,8.945,8.945,0,0,1-2.263-1.712,7.809,7.809,0,0,1-1.525-2.325,7.386,7.386,0,0,1-.562-2.937,9.249,9.249,0,0,1,.575-3.313,10.575,10.575,0,0,1,1.438-2.65A8.666,8.666,0,0,1,37.4-15.15q-.7.1-1.687.2t-2.125.237q-1.138.138-2.313.288t-2.262.338q-1.088.188-1.963.362ZM43.5-13q.325.45.688,1.063t.713,1.225q.35.612.6,1.112l-1.9.85q-.475-1.05-.912-1.85a15.051,15.051,0,0,0-1.037-1.625Zm2.8-1.15q.325.45.713,1.037t.763,1.2q.375.613.625,1.088l-1.875.9q-.5-1-.963-1.775a17.6,17.6,0,0,0-1.088-1.6ZM-58.25,20.625h16.975V30.15H-58.7V27.725h14.45v-4.7h-14Zm2.875-4.075h8.2V18.9h-8.2Zm-2.45,7.7h14.75v2.225h-14.75ZM-55,14.625l3.2.625a27.094,27.094,0,0,1-2.013,3.05,22.864,22.864,0,0,1-2.575,2.85A24.056,24.056,0,0,1-59.65,23.7a7.327,7.327,0,0,0-.587-.775,10.164,10.164,0,0,0-.775-.812,6.605,6.605,0,0,0-.737-.613,17.061,17.061,0,0,0,2.963-2.1,17.943,17.943,0,0,0,2.237-2.375A15.3,15.3,0,0,0-55,14.625Zm-.075,17.05h2.925V34.65q0,.5.213.625a2.478,2.478,0,0,0,1.013.125h2.975a1.092,1.092,0,0,0,.663-.163,1.138,1.138,0,0,0,.325-.662A9.719,9.719,0,0,0-46.8,33.05a6.323,6.323,0,0,0,.737.413,6.258,6.258,0,0,0,.938.362q.5.15.9.25a8.242,8.242,0,0,1-.513,2.388A2.155,2.155,0,0,1-45.8,37.625a4.437,4.437,0,0,1-1.85.325H-51.3a7.177,7.177,0,0,1-2.35-.3,1.821,1.821,0,0,1-1.125-1.013,5.187,5.187,0,0,1-.3-1.963Zm1.75-.775,1.825-1.85a18.082,18.082,0,0,1,1.65.775q.85.45,1.612.95a8.943,8.943,0,0,1,1.237.95l-1.975,2.05a6.853,6.853,0,0,0-1.15-.988q-.725-.512-1.562-1.012T-53.325,30.9Zm8.225,1.425,2.5-1.375q.8.725,1.65,1.6t1.575,1.763a11.158,11.158,0,0,1,1.15,1.662l-2.7,1.55a9.549,9.549,0,0,0-1.025-1.65q-.675-.9-1.5-1.838T-45.1,32.325Zm-13.25-1.05,2.7.975a16.764,16.764,0,0,1-1.387,2.925A7.178,7.178,0,0,1-59.275,37.5l-2.475-1.75a7.712,7.712,0,0,0,2.1-1.963A8.7,8.7,0,0,0-58.35,31.275ZM-47.775,16.55h.675l.475-.125,2.05,1.3a18.917,18.917,0,0,1-1.05,1.675q-.625.9-1.3,1.725t-1.3,1.475a11.536,11.536,0,0,0-1.088-.775q-.662-.425-1.187-.7a10.1,10.1,0,0,0,1.075-1.288q.525-.738.975-1.475a10.335,10.335,0,0,0,.675-1.262Zm19.95,5.8v1.225h3.375V22.35Zm0-3.15v1.2h3.375V19.2ZM-30.2,17.125h8.25V25.65H-30.2Zm-.775,10.05h9.65v2.45h-9.65ZM-19.85,19.3h6.65V22h-6.65Zm-7.975,11.45h4.25v2.375h-4.25Zm.25-5.35h2.8v3h-2.8Zm.225-10.675,3.175.325q-.35,1.05-.713,2.013t-.637,1.638l-2.575-.4q.2-.775.425-1.762A17.936,17.936,0,0,0-27.35,14.725ZM-24.7,30.75h2.625l-.012.35q-.012.35-.038.575-.075,1.7-.15,2.838A11.8,11.8,0,0,1-22.5,36.3a2.56,2.56,0,0,1-.4.975,1.941,1.941,0,0,1-.65.512,3.108,3.108,0,0,1-.8.238,5.836,5.836,0,0,1-.988.087q-.612.013-1.312-.013a5.567,5.567,0,0,0-.212-1.225A5.2,5.2,0,0,0-27.3,35.75q.525.05.925.063t.6.013a.8.8,0,0,0,.625-.225,1.651,1.651,0,0,0,.2-.65q.075-.475.138-1.4t.112-2.45ZM-16.825,21l2.65.175a48,48,0,0,1-1.138,7.213,22.572,22.572,0,0,1-2.175,5.688A13.935,13.935,0,0,1-21.125,38.3a3.846,3.846,0,0,0-.562-.6q-.387-.35-.8-.713t-.687-.587A11.334,11.334,0,0,0-19.7,32.7a18.285,18.285,0,0,0,1.975-5.175A40.832,40.832,0,0,0-16.825,21Zm-2.3.225q.225,1.875.625,3.963a29.18,29.18,0,0,0,1.1,4.1,17.147,17.147,0,0,0,1.813,3.725A10.762,10.762,0,0,0-12.9,35.875a7.226,7.226,0,0,0-.625.662q-.35.413-.687.875a5.916,5.916,0,0,0-.513.813,11.793,11.793,0,0,1-2.687-3.2,21.563,21.563,0,0,1-1.8-4.013,32.3,32.3,0,0,1-1.113-4.275q-.4-2.137-.625-3.987ZM-35.8,17.175-34.1,15a13.706,13.706,0,0,1,1.425.688q.75.413,1.425.85a7.824,7.824,0,0,1,1.1.837l-1.8,2.375a7.421,7.421,0,0,0-1.025-.875q-.65-.475-1.4-.925T-35.8,17.175Zm-.975,6.625,1.675-2.2q.7.275,1.45.65t1.425.8a7.244,7.244,0,0,1,1.1.825l-1.775,2.4a6.432,6.432,0,0,0-1.025-.85q-.65-.45-1.4-.875T-36.775,23.8Zm.375,12.65q.5-1,1.063-2.312t1.138-2.8q.575-1.488,1.075-2.962l2.4,1.575q-.425,1.325-.913,2.712T-32.65,35.4q-.525,1.35-1.025,2.575Zm16.2-21.725,2.775.475q-.325,2.325-.85,4.563a35.556,35.556,0,0,1-1.25,4.2,16.092,16.092,0,0,1-1.7,3.413q-.2-.275-.563-.7t-.75-.85a7.242,7.242,0,0,0-.688-.675,12.952,12.952,0,0,0,1.4-2.913,30.589,30.589,0,0,0,.987-3.587Q-20.425,16.725-20.2,14.725ZM-28.575,28.8h2.5v1.525a15.9,15.9,0,0,1-.125,1.888,8.884,8.884,0,0,1-.55,2.137,9.221,9.221,0,0,1-1.212,2.163A8.389,8.389,0,0,1-30.05,38.45a8.3,8.3,0,0,0-.937-.888q-.588-.488-1.062-.838a8.235,8.235,0,0,0,1.85-1.65,7.052,7.052,0,0,0,1.05-1.737,7.021,7.021,0,0,0,.463-1.675,10.622,10.622,0,0,0,.112-1.437ZM-1.3,18.525q1.15.15,2.587.212t2.925.05q1.487-.012,2.863-.1T9.45,18.5v3.225q-1.15.1-2.525.163T4.1,21.95q-1.45,0-2.837-.062T-1.3,21.725ZM.7,29.2q-.15.625-.225,1.112A6.485,6.485,0,0,0,.4,31.3a1.42,1.42,0,0,0,.2.737,1.639,1.639,0,0,0,.613.575,3.256,3.256,0,0,0,1.075.35,9.822,9.822,0,0,0,1.613.112,28.818,28.818,0,0,0,3.15-.163q1.475-.163,3.125-.487l.05,3.375a26.693,26.693,0,0,1-2.763.35q-1.563.125-3.687.125a8.519,8.519,0,0,1-4.8-1.088A3.462,3.462,0,0,1-2.6,32.175a10.7,10.7,0,0,1,.113-1.512q.113-.787.313-1.738ZM-5.15,16.85a7.1,7.1,0,0,0-.225.7q-.125.45-.238.875t-.162.65q-.075.525-.238,1.362t-.325,1.875Q-6.5,23.35-6.65,24.425T-6.887,26.5q-.088,1-.088,1.75,0,.35.012.8a4.913,4.913,0,0,0,.088.825q.175-.425.375-.85t.4-.862q.2-.437.35-.837L-4.2,28.55q-.35,1.025-.712,2.2t-.65,2.213Q-5.85,34-6,34.675q-.05.275-.087.625a5.482,5.482,0,0,0-.038.55q0,.2.012.488t.038.537l-2.9.2a25.741,25.741,0,0,1-.675-3.463,34.4,34.4,0,0,1-.3-4.712q0-1.4.125-2.85t.3-2.788q.175-1.337.337-2.437T-8.9,19q.05-.525.137-1.187t.113-1.263Zm22.2,7.325h5.775V26.9H17.05Zm4.625,0h2.9v1.1q-.05,2.65-.125,4.337a22.029,22.029,0,0,1-.238,2.625,3.292,3.292,0,0,1-.437,1.313,2.324,2.324,0,0,1-.788.675,3.734,3.734,0,0,1-.962.3,7.214,7.214,0,0,1-1.263.112Q20,34.65,19.1,34.625a6.306,6.306,0,0,0-.25-1.45,5.682,5.682,0,0,0-.55-1.35q.675.05,1.263.075t.888.025a1.385,1.385,0,0,0,.438-.062.62.62,0,0,0,.313-.237,2.112,2.112,0,0,0,.262-.937q.087-.713.137-2.175t.075-3.888Zm7.5-7.85L31,14.525q.7.35,1.475.825t1.488.95a7.645,7.645,0,0,1,1.162.925l-1.925,2a11.959,11.959,0,0,0-1.1-.95q-.675-.525-1.45-1.038T29.175,16.325Zm2.95,6.45,3.05.725a30.316,30.316,0,0,1-4.3,8.612,22.734,22.734,0,0,1-6.45,6.038,6.391,6.391,0,0,0-.6-.788q-.4-.462-.825-.925t-.75-.763a18.761,18.761,0,0,0,6.1-5.262A23.645,23.645,0,0,0,32.125,22.775ZM17.2,18.5H36.5v2.95H17.2Zm-2,0h3.15v7.375q0,1.4-.1,3.063t-.375,3.4a20.548,20.548,0,0,1-.812,3.337,12.1,12.1,0,0,1-1.387,2.875,4.692,4.692,0,0,0-.738-.725q-.487-.4-.975-.788a3.9,3.9,0,0,0-.837-.537,10.882,10.882,0,0,0,1.387-3.362,23.04,23.04,0,0,0,.563-3.763q.125-1.9.125-3.525Zm10.15-3.725H28.5q-.05,3.075.175,6.025t.662,5.513a36.752,36.752,0,0,0,1.038,4.525A12.085,12.085,0,0,0,31.7,33.9q.725,1.1,1.475,1.1.425,0,.662-1.025a20.656,20.656,0,0,0,.337-3.375,9.148,9.148,0,0,0,1.237.975,6.586,6.586,0,0,0,1.313.7,15.709,15.709,0,0,1-.675,3.587,3.259,3.259,0,0,1-1.2,1.737,3.543,3.543,0,0,1-1.925.475,3.667,3.667,0,0,1-2.437-.925,8.191,8.191,0,0,1-1.925-2.575A20.2,20.2,0,0,1,27.125,30.7a42.787,42.787,0,0,1-.987-4.825q-.387-2.6-.575-5.413T25.35,14.775Zm13.325,11.8H61.35v2.65H38.675Zm5.825-7.2H58.025V21.7H44.5Zm0,3.6H58.025V25.3H44.5ZM39.775,35.35q1.475-.175,3.387-.437t4.025-.562q2.112-.3,4.162-.6l.15,2.625q-1.925.3-3.9.625t-3.8.588q-1.825.262-3.35.512ZM51.05,27.325A12.141,12.141,0,0,0,54.925,32.7a15.364,15.364,0,0,0,6.9,2.875,8,8,0,0,0-.687.8q-.362.475-.688.975a7.87,7.87,0,0,0-.525.925,18,18,0,0,1-5.3-2.088,13.406,13.406,0,0,1-3.763-3.412,19.011,19.011,0,0,1-2.562-4.8Zm7.1,1.575,2.425,1.675q-.925.675-1.937,1.313T56.6,33.075q-1.025.55-1.9.975l-2-1.55q.875-.45,1.875-1.062t1.938-1.288Q57.45,29.475,58.15,28.9ZM42.85,15.625H58.7v2.45H45.925v9.6H42.85Zm0,11.75h3.075v8.3L42.85,36Z" transform="translate(992.148 4446.85)" fill="#fff"/>
        </g>
      </g>
    </g>
  </g>
</svg>
