<svg xmlns="http://www.w3.org/2000/svg" width="349.632" height="347.836" viewBox="0 0 349.632 347.836">
  <g id="グループ_256" data-name="グループ 256" transform="translate(-2099.432 -4027.557)">
    <g id="グループ_248" data-name="グループ 248">
      <rect id="長方形_129" data-name="長方形 129" width="349.632" height="347.836" rx="10" transform="translate(2099.432 4027.557)" fill="#fff"/>
      <path id="長方形_130" data-name="長方形 130" d="M10-1h5a1,1,0,0,1,1,1,1,1,0,0,1-1,1H9.976a1,1,0,0,1-1-1,1,1,0,0,1,1-1ZM20-1h5a1,1,0,0,1,1,1,1,1,0,0,1-1,1H20a1,1,0,0,1-1-1A1,1,0,0,1,20-1ZM30-1h5a1,1,0,0,1,1,1,1,1,0,0,1-1,1H30a1,1,0,0,1-1-1A1,1,0,0,1,30-1Zm10,0h5a1,1,0,0,1,1,1,1,1,0,0,1-1,1h-5a1,1,0,0,1-1-1A1,1,0,0,1,40.007-1Zm10,0h5a1,1,0,0,1,1,1,1,1,0,0,1-1,1h-5a1,1,0,0,1-1-1A1,1,0,0,1,50.01-1Zm10,0h5a1,1,0,0,1,1,1,1,1,0,0,1-1,1h-5a1,1,0,0,1-1-1A1,1,0,0,1,60.012-1Zm10,0h5a1,1,0,0,1,1,1,1,1,0,0,1-1,1h-5a1,1,0,0,1-1-1A1,1,0,0,1,70.015-1Zm10,0h5a1,1,0,0,1,1,1,1,1,0,0,1-1,1h-5a1,1,0,0,1-1-1A1,1,0,0,1,80.017-1Zm10,0h5a1,1,0,0,1,1,1,1,1,0,0,1-1,1h-5a1,1,0,0,1-1-1A1,1,0,0,1,90.02-1Zm10,0h5a1,1,0,0,1,1,1,1,1,0,0,1-1,1h-5a1,1,0,0,1-1-1A1,1,0,0,1,100.022-1Zm10,0h5a1,1,0,0,1,1,1,1,1,0,0,1-1,1h-5a1,1,0,0,1-1-1A1,1,0,0,1,110.025-1Zm10,0h5a1,1,0,0,1,1,1,1,1,0,0,1-1,1h-5a1,1,0,0,1-1-1A1,1,0,0,1,120.027-1Zm10,0h5a1,1,0,0,1,1,1,1,1,0,0,1-1,1h-5a1,1,0,0,1-1-1A1,1,0,0,1,130.03-1Zm10,0h5a1,1,0,0,1,1,1,1,1,0,0,1-1,1h-5a1,1,0,0,1-1-1A1,1,0,0,1,140.032-1Zm10,0h5a1,1,0,0,1,1,1,1,1,0,0,1-1,1h-5a1,1,0,0,1-1-1A1,1,0,0,1,150.035-1Zm10,0h5a1,1,0,0,1,1,1,1,1,0,0,1-1,1h-5a1,1,0,0,1-1-1A1,1,0,0,1,160.037-1Zm10,0h5a1,1,0,0,1,1,1,1,1,0,0,1-1,1h-5a1,1,0,0,1-1-1A1,1,0,0,1,170.04-1Zm10,0h5a1,1,0,0,1,1,1,1,1,0,0,1-1,1h-5a1,1,0,0,1-1-1A1,1,0,0,1,180.042-1Zm10,0h5a1,1,0,0,1,1,1,1,1,0,0,1-1,1h-5a1,1,0,0,1-1-1A1,1,0,0,1,190.045-1Zm10,0h5a1,1,0,0,1,1,1,1,1,0,0,1-1,1h-5a1,1,0,0,1-1-1A1,1,0,0,1,200.047-1Zm10,0h5a1,1,0,0,1,1,1,1,1,0,0,1-1,1h-5a1,1,0,0,1-1-1A1,1,0,0,1,210.05-1Zm10,0h5a1,1,0,0,1,1,1,1,1,0,0,1-1,1h-5a1,1,0,0,1-1-1A1,1,0,0,1,220.052-1Zm10,0h5a1,1,0,0,1,1,1,1,1,0,0,1-1,1h-5a1,1,0,0,1-1-1A1,1,0,0,1,230.055-1Zm10,0h5a1,1,0,0,1,1,1,1,1,0,0,1-1,1h-5a1,1,0,0,1-1-1A1,1,0,0,1,240.057-1Zm10,0h5a1,1,0,0,1,1,1,1,1,0,0,1-1,1h-5a1,1,0,0,1-1-1A1,1,0,0,1,250.06-1Zm10,0h5a1,1,0,0,1,1,1,1,1,0,0,1-1,1h-5a1,1,0,0,1-1-1A1,1,0,0,1,260.062-1Zm10,0h5a1,1,0,0,1,1,1,1,1,0,0,1-1,1h-5a1,1,0,0,1-1-1A1,1,0,0,1,270.065-1Zm10,0h5a1,1,0,0,1,1,1,1,1,0,0,1-1,1h-5a1,1,0,0,1-1-1A1,1,0,0,1,280.067-1Zm10,0h5a1,1,0,0,1,1,1,1,1,0,0,1-1,1h-5a1,1,0,0,1-1-1A1,1,0,0,1,290.069-1Zm10,0h5a1,1,0,0,1,1,1,1,1,0,0,1-1,1h-5a1,1,0,0,1-1-1A1,1,0,0,1,300.072-1Zm10,0h2.484a11.039,11.039,0,0,1,2.74.344,1,1,0,0,1-.5,1.937A9.036,9.036,0,0,0,312.558,1h-2.484a1,1,0,0,1-1-1A1,1,0,0,1,310.074-1ZM5.183.234A1,1,0,0,1,5.666,2.11,9.065,9.065,0,0,0,2.413,5.156,1,1,0,1,1,.728,4.079,11.07,11.07,0,0,1,4.7.358,1,1,0,0,1,5.183.234ZM319.388,1.7a1,1,0,0,1,.683.27,11.034,11.034,0,0,1,2.935,4.585,1,1,0,1,1-1.9.627,9.029,9.029,0,0,0-2.4-3.751,1,1,0,0,1,.683-1.73ZM.022,8.318l.068,0a1,1,0,0,1,.931,1.065C1.007,9.588,1,9.8,1,10v4.319a1,1,0,0,1-1,1,1,1,0,0,1-1-1V10c0-.249.008-.5.025-.749A1,1,0,0,1,.022,8.318Zm322.536,2.493a1,1,0,0,1,1,1v5a1,1,0,0,1-2,0v-5A1,1,0,0,1,322.558,10.811ZM0,18.32a1,1,0,0,1,1,1v5a1,1,0,0,1-1,1,1,1,0,0,1-1-1v-5A1,1,0,0,1,0,18.32Zm322.558,2.494a1,1,0,0,1,1,1v5a1,1,0,0,1-2,0v-5A1,1,0,0,1,322.558,20.814ZM0,28.323a1,1,0,0,1,1,1v5a1,1,0,0,1-1,1,1,1,0,0,1-1-1v-5A1,1,0,0,1,0,28.323Zm322.558,2.494a1,1,0,0,1,1,1v5a1,1,0,1,1-2,0v-5A1,1,0,0,1,322.558,30.816ZM0,38.325a1,1,0,0,1,1,1v5a1,1,0,0,1-1,1,1,1,0,0,1-1-1v-5A1,1,0,0,1,0,38.325Zm322.558,2.494a1,1,0,0,1,1,1v5a1,1,0,0,1-2,0v-5A1,1,0,0,1,322.558,40.819ZM0,48.328a1,1,0,0,1,1,1v5a1,1,0,0,1-1,1,1,1,0,0,1-1-1v-5A1,1,0,0,1,0,48.328Zm322.558,2.494a1,1,0,0,1,1,1v5a1,1,0,1,1-2,0v-5A1,1,0,0,1,322.558,50.821ZM0,58.33a1,1,0,0,1,1,1v5a1,1,0,0,1-1,1,1,1,0,0,1-1-1v-5A1,1,0,0,1,0,58.33Zm322.558,2.494a1,1,0,0,1,1,1v5a1,1,0,0,1-2,0v-5A1,1,0,0,1,322.558,60.824ZM0,68.332a1,1,0,0,1,1,1v5a1,1,0,0,1-1,1,1,1,0,0,1-1-1v-5A1,1,0,0,1,0,68.332Zm322.558,2.494a1,1,0,0,1,1,1v5a1,1,0,0,1-2,0v-5A1,1,0,0,1,322.558,70.826ZM0,78.335a1,1,0,0,1,1,1v5a1,1,0,0,1-1,1,1,1,0,0,1-1-1v-5A1,1,0,0,1,0,78.335Zm322.558,2.494a1,1,0,0,1,1,1v5a1,1,0,0,1-2,0v-5A1,1,0,0,1,322.558,80.829ZM0,88.337a1,1,0,0,1,1,1v5a1,1,0,0,1-1,1,1,1,0,0,1-1-1v-5A1,1,0,0,1,0,88.337Zm322.558,2.494a1,1,0,0,1,1,1v5a1,1,0,0,1-2,0v-5A1,1,0,0,1,322.558,90.831ZM0,98.34a1,1,0,0,1,1,1v5a1,1,0,0,1-1,1,1,1,0,0,1-1-1v-5A1,1,0,0,1,0,98.34Zm322.558,2.494a1,1,0,0,1,1,1v5a1,1,0,1,1-2,0v-5A1,1,0,0,1,322.558,100.834ZM0,108.342a1,1,0,0,1,1,1v5a1,1,0,0,1-1,1,1,1,0,0,1-1-1v-5A1,1,0,0,1,0,108.342Zm322.558,2.494a1,1,0,0,1,1,1v5a1,1,0,0,1-2,0v-5A1,1,0,0,1,322.558,110.836ZM0,118.345a1,1,0,0,1,1,1v5a1,1,0,0,1-1,1,1,1,0,0,1-1-1v-5A1,1,0,0,1,0,118.345Zm322.558,2.494a1,1,0,0,1,1,1v5a1,1,0,1,1-2,0v-5A1,1,0,0,1,322.558,120.839ZM0,128.347a1,1,0,0,1,1,1v5a1,1,0,0,1-1,1,1,1,0,0,1-1-1v-5A1,1,0,0,1,0,128.347Zm322.558,2.494a1,1,0,0,1,1,1v5a1,1,0,0,1-2,0v-5A1,1,0,0,1,322.558,130.841ZM0,138.35a1,1,0,0,1,1,1v5a1,1,0,0,1-1,1,1,1,0,0,1-1-1v-5A1,1,0,0,1,0,138.35Zm322.558,2.494a1,1,0,0,1,1,1v5a1,1,0,0,1-2,0v-5A1,1,0,0,1,322.558,140.843ZM0,148.352a1,1,0,0,1,1,1v5a1,1,0,0,1-1,1,1,1,0,0,1-1-1v-5A1,1,0,0,1,0,148.352Zm322.558,2.494a1,1,0,0,1,1,1v5a1,1,0,1,1-2,0v-5A1,1,0,0,1,322.558,150.846ZM0,158.355a1,1,0,0,1,1,1v5a1,1,0,0,1-1,1,1,1,0,0,1-1-1v-5A1,1,0,0,1,0,158.355Zm322.558,2.494a1,1,0,0,1,1,1v5a1,1,0,0,1-2,0v-5A1,1,0,0,1,322.558,160.848ZM0,168.357a1,1,0,0,1,1,1v5a1,1,0,0,1-1,1,1,1,0,0,1-1-1v-5A1,1,0,0,1,0,168.357Zm322.558,2.494a1,1,0,0,1,1,1v5a1,1,0,1,1-2,0v-5A1,1,0,0,1,322.558,170.851ZM0,178.36a1,1,0,0,1,1,1v5a1,1,0,0,1-1,1,1,1,0,0,1-1-1v-5A1,1,0,0,1,0,178.36Zm322.558,2.494a1,1,0,0,1,1,1v5a1,1,0,0,1-2,0v-5A1,1,0,0,1,322.558,180.853ZM0,188.362a1,1,0,0,1,1,1v5a1,1,0,0,1-1,1,1,1,0,0,1-1-1v-5A1,1,0,0,1,0,188.362Zm322.558,2.494a1,1,0,0,1,1,1v5a1,1,0,0,1-2,0v-5A1,1,0,0,1,322.558,190.856ZM0,198.365a1,1,0,0,1,1,1v5a1,1,0,0,1-1,1,1,1,0,0,1-1-1v-5A1,1,0,0,1,0,198.365Zm322.558,2.494a1,1,0,0,1,1,1v5a1,1,0,0,1-2,0v-5A1,1,0,0,1,322.558,200.858ZM0,208.367a1,1,0,0,1,1,1v5a1,1,0,0,1-1,1,1,1,0,0,1-1-1v-5A1,1,0,0,1,0,208.367Zm322.558,2.494a1,1,0,0,1,1,1v5a1,1,0,0,1-2,0v-5A1,1,0,0,1,322.558,210.861ZM0,218.37a1,1,0,0,1,1,1v5a1,1,0,0,1-1,1,1,1,0,0,1-1-1v-5A1,1,0,0,1,0,218.37Zm322.558,2.494a1,1,0,0,1,1,1v5a1,1,0,0,1-2,0v-5A1,1,0,0,1,322.558,220.863ZM0,228.372a1,1,0,0,1,1,1v5a1,1,0,0,1-1,1,1,1,0,0,1-1-1v-5A1,1,0,0,1,0,228.372Zm322.558,2.494a1,1,0,0,1,1,1v5a1,1,0,0,1-2,0v-5A1,1,0,0,1,322.558,230.866ZM0,238.375a1,1,0,0,1,1,1v5a1,1,0,0,1-1,1,1,1,0,0,1-1-1v-5A1,1,0,0,1,0,238.375Zm322.558,2.494a1,1,0,0,1,1,1v5a1,1,0,1,1-2,0v-5A1,1,0,0,1,322.558,240.868ZM0,248.377a1,1,0,0,1,1,1v5a1,1,0,0,1-1,1,1,1,0,0,1-1-1v-5A1,1,0,0,1,0,248.377Zm322.558,2.494a1,1,0,0,1,1,1v5a1,1,0,0,1-2,0v-5A1,1,0,0,1,322.558,250.871ZM0,258.38a1,1,0,0,1,1,1v5a1,1,0,0,1-1,1,1,1,0,0,1-1-1v-5A1,1,0,0,1,0,258.38Zm322.558,2.494a1,1,0,0,1,1,1v5a1,1,0,0,1-2,0v-5A1,1,0,0,1,322.558,260.873ZM0,268.382a1,1,0,0,1,1,1v5a1,1,0,0,1-1,1,1,1,0,0,1-1-1v-5A1,1,0,0,1,0,268.382Zm322.558,2.494a1,1,0,0,1,1,1v5a1,1,0,0,1-2,0v-5A1,1,0,0,1,322.558,270.876ZM0,278.385a1,1,0,0,1,1,1v5a1,1,0,0,1-1,1,1,1,0,0,1-1-1v-5A1,1,0,0,1,0,278.385Zm322.558,2.494a1,1,0,0,1,1,1v5a1,1,0,1,1-2,0v-5A1,1,0,0,1,322.558,280.878ZM0,288.387a1,1,0,0,1,1,1v5a1,1,0,0,1-1,1,1,1,0,0,1-1-1v-5A1,1,0,0,1,0,288.387Zm322.558,2.494a1,1,0,0,1,1,1v5a1,1,0,1,1-2,0v-5A1,1,0,0,1,322.558,290.881ZM0,298.39a1,1,0,0,1,1,1v5a1,1,0,0,1-1,1,1,1,0,0,1-1-1v-5A1,1,0,0,1,0,298.39Zm322.558,2.494a1,1,0,0,1,1,1v5a1,1,0,0,1-2,0v-5A1,1,0,0,1,322.558,300.883ZM0,308.392a1,1,0,0,1,1,1v1.8a8.99,8.99,0,0,0,.455,2.833,1,1,0,0,1-1.9.629A10.987,10.987,0,0,1-1,311.191v-1.8A1,1,0,0,1,0,308.392Zm322.534,2.493.069,0a1,1,0,0,1,.929,1.066,10.992,10.992,0,0,1-1.709,5.17,1,1,0,0,1-1.683-1.08,8.988,8.988,0,0,0,1.4-4.227A1,1,0,0,1,322.534,310.885ZM3.18,317.5a1,1,0,0,1,.682.269,9.008,9.008,0,0,0,3.906,2.139,1,1,0,0,1-.494,1.938A11.014,11.014,0,0,1,2.5,319.236,1,1,0,0,1,3.18,317.5Zm314.184,1.458a1,1,0,0,1,.482,1.877,11.014,11.014,0,0,1-5.274,1.352,1,1,0,0,1,0-2,9.008,9.008,0,0,0,4.314-1.1A1,1,0,0,1,317.363,318.963ZM12.5,320.191h5a1,1,0,0,1,0,2h-5a1,1,0,0,1,0-2Zm10,0h5a1,1,0,0,1,0,2h-5a1,1,0,1,1,0-2Zm10,0h5a1,1,0,0,1,0,2h-5a1,1,0,0,1,0-2Zm10,0h5a1,1,0,0,1,0,2h-5a1,1,0,0,1,0-2Zm10,0h5a1,1,0,0,1,0,2h-5a1,1,0,1,1,0-2Zm10,0h5a1,1,0,0,1,0,2h-5a1,1,0,0,1,0-2Zm10,0h5a1,1,0,0,1,0,2h-5a1,1,0,0,1,0-2Zm10,0h5a1,1,0,0,1,0,2h-5a1,1,0,0,1,0-2Zm10,0h5a1,1,0,0,1,0,2h-5a1,1,0,0,1,0-2Zm10,0h5a1,1,0,0,1,0,2h-5a1,1,0,0,1,0-2Zm10,0h5a1,1,0,1,1,0,2h-5a1,1,0,0,1,0-2Zm10,0h5a1,1,0,0,1,0,2h-5a1,1,0,1,1,0-2Zm10,0h5a1,1,0,0,1,0,2h-5a1,1,0,0,1,0-2Zm10,0h5a1,1,0,0,1,0,2h-5a1,1,0,0,1,0-2Zm10,0h5a1,1,0,0,1,0,2h-5a1,1,0,0,1,0-2Zm10,0h5a1,1,0,1,1,0,2h-5a1,1,0,0,1,0-2Zm10,0h5a1,1,0,0,1,0,2h-5a1,1,0,0,1,0-2Zm10,0h5a1,1,0,1,1,0,2h-5a1,1,0,0,1,0-2Zm10,0h5a1,1,0,0,1,0,2h-5a1,1,0,1,1,0-2Zm10,0h5a1,1,0,0,1,0,2h-5a1,1,0,0,1,0-2Zm10,0h5a1,1,0,0,1,0,2h-5a1,1,0,1,1,0-2Zm10,0h5a1,1,0,1,1,0,2h-5a1,1,0,0,1,0-2Zm10,0h5a1,1,0,0,1,0,2h-5a1,1,0,0,1,0-2Zm10,0h5a1,1,0,0,1,0,2h-5a1,1,0,0,1,0-2Zm10,0h5a1,1,0,0,1,0,2h-5a1,1,0,0,1,0-2Zm10,0h5a1,1,0,0,1,0,2h-5a1,1,0,1,1,0-2Zm10,0h5a1,1,0,0,1,0,2h-5a1,1,0,1,1,0-2Zm10,0h5a1,1,0,0,1,0,2h-5a1,1,0,0,1,0-2Zm10,0h5a1,1,0,1,1,0,2h-5a1,1,0,0,1,0-2Zm10,0h5a1,1,0,0,1,0,2h-5a1,1,0,0,1,0-2Z" transform="translate(2112.969 4040.879)" fill="#82c195"/>
    </g>
    <g id="グループ_249" data-name="グループ 249">
      <path id="パス_768" data-name="パス 768" d="M-95.056-17.628q-.156.234-.455.728a5.551,5.551,0,0,0-.455.91q-.546,1.222-1.339,2.73T-99.1-10.231a29.971,29.971,0,0,1-2.119,2.847,43.368,43.368,0,0,1-3.211,3.237,35.179,35.179,0,0,1-3.692,2.938,28.309,28.309,0,0,1-3.965,2.3l-2.678-2.808a24.188,24.188,0,0,0,4.082-2.028A30.489,30.489,0,0,0-107.016-6.4,30.347,30.347,0,0,0-104.1-9.178a23.377,23.377,0,0,0,1.625-2.106,24.806,24.806,0,0,0,1.365-2.223,11.271,11.271,0,0,0,.884-2.041h-8.814q-.546,0-1.144.039t-1.131.078q-.533.039-.819.065v-3.692q.39.026.962.078t1.157.078q.585.026.975.026h9.178a10.97,10.97,0,0,0,1.573-.1,6.757,6.757,0,0,0,1.105-.234Zm-5.824,8.086q1.014.806,2.158,1.872t2.262,2.21q1.118,1.144,2.067,2.2t1.6,1.833l-2.964,2.574q-.962-1.326-2.2-2.756t-2.6-2.847q-1.365-1.417-2.769-2.691Zm15.366-10.4a13.236,13.236,0,0,0,1.4.143q.754.039,1.378.039H-72.28q.676,0,1.4-.039t1.4-.143v3.354q-.676-.052-1.4-.078t-1.4-.026H-82.706q-.676,0-1.443.026t-1.365.078Zm-3.016,6.656q.572.052,1.235.1t1.261.052H-69q.416,0,1.131-.039t1.235-.117v3.38q-.468-.052-1.144-.065T-69-9.984h-17.03q-.572,0-1.261.026t-1.235.078Zm13.312,1.794a21.388,21.388,0,0,1-.442,4.563A14.781,14.781,0,0,1-76.934-3.3a10.687,10.687,0,0,1-1.248,1.82A13.335,13.335,0,0,1-79.976.286a11.159,11.159,0,0,1-2.184,1.4L-85.2-.52A10.429,10.429,0,0,0-82.55-2.08,9.957,9.957,0,0,0-80.5-4.238,9.01,9.01,0,0,0-79.17-7.566a21.358,21.358,0,0,0,.338-3.9Zm12.87-.546,1.2.065q.728.039,1.521.065t1.469.026H-44.2q.91,0,1.716-.065t1.326-.091v4.082l-1.326-.078q-.884-.052-1.716-.052H-58.162q-1.118,0-2.288.039t-1.9.091Zm42.068-7.93q.364.546.793,1.261t.845,1.43q.416.715.728,1.339l-2.262.962q-.39-.832-.728-1.495t-.715-1.3q-.377-.637-.845-1.287Zm3.562-1.248a10.79,10.79,0,0,1,.858,1.2q.442.7.858,1.4t.728,1.274l-2.21.988q-.416-.806-.793-1.456t-.767-1.248q-.39-.6-.884-1.248Zm-14.872.754q.65.338,1.456.832T-28.5-18.6l1.586,1.014q.754.481,1.248.845l-1.924,2.86-1.287-.858q-.741-.494-1.56-1.014t-1.612-1q-.793-.481-1.417-.845ZM-36.4-2q1.456-.26,2.964-.65a29.144,29.144,0,0,0,2.99-.949A21.722,21.722,0,0,0-27.56-4.94a29.225,29.225,0,0,0,4.121-2.808,28.48,28.48,0,0,0,3.445-3.315,19.987,19.987,0,0,0,2.548-3.627l2,3.536A27.049,27.049,0,0,1-19.9-6.045a34.353,34.353,0,0,1-5.863,4.251A30.492,30.492,0,0,1-28.678-.4Q-30.264.26-31.785.728A23.6,23.6,0,0,1-34.45,1.4Zm.806-12.532q.65.338,1.482.832t1.664,1q.832.507,1.573.988t1.235.845l-1.9,2.912q-.572-.39-1.313-.884t-1.56-1.014q-.819-.52-1.612-1t-1.443-.819ZM1.638-18.928H4.654V-4.212H1.638Zm6.136-2.626h3.094v20.1A5.352,5.352,0,0,1,10.543.65,2.256,2.256,0,0,1,9.412,1.768a6.631,6.631,0,0,1-2.106.481q-1.3.117-3.094.117a5.718,5.718,0,0,0-.234-1.053Q3.8.728,3.575.143a7.369,7.369,0,0,0-.455-1q1.274.026,2.418.039t1.534.013a.816.816,0,0,0,.533-.143.637.637,0,0,0,.169-.507ZM-7.592-9.672h5.98v2.73h-5.98Zm4.6,0H-.1l-.013.221q-.013.221-.013.494v.429Q-.26-5.382-.416-3.393A25.587,25.587,0,0,1-.793-.351,3.822,3.822,0,0,1-1.378,1.17a2.3,2.3,0,0,1-.858.7,3.865,3.865,0,0,1-1.092.286,12.185,12.185,0,0,1-1.378.1q-.858.026-1.768-.026A5.619,5.619,0,0,0-6.734.845,5.591,5.591,0,0,0-7.306-.468q.806.078,1.521.1t1.053.026A1.537,1.537,0,0,0-4.251-.4a.888.888,0,0,0,.377-.273,2.575,2.575,0,0,0,.39-1.157q.156-.9.286-2.678T-2.99-9.2Zm-5.252-8.45v3.562h4.888v-3.562Zm-2.834-2.756H-.338V-11.8H-11.076Zm2.652,8.242h3.042q-.1,2.054-.338,4.147a26.834,26.834,0,0,1-.767,4.056A16.041,16.041,0,0,1-7.995-.741,11.377,11.377,0,0,1-10.556,2.34a7.434,7.434,0,0,0-.936-1.222,6.916,6.916,0,0,0-1.17-1.04,8.505,8.505,0,0,0,2.21-2.6A13.223,13.223,0,0,0-9.23-5.694a22.847,22.847,0,0,0,.572-3.458Q-8.5-10.92-8.424-12.636Zm36.53-5.174q-.26,1.976-.676,4.212a40.974,40.974,0,0,1-1.118,4.524A23.24,23.24,0,0,1,24.544-4.55a9.917,9.917,0,0,1-2.223,2.925A3.992,3.992,0,0,1,19.682-.6a4.115,4.115,0,0,1-2.639-.975,6.66,6.66,0,0,1-1.924-2.691,10.061,10.061,0,0,1-.715-3.9,10.184,10.184,0,0,1,.91-4.264,11.344,11.344,0,0,1,2.535-3.549,12.019,12.019,0,0,1,3.8-2.431,12.325,12.325,0,0,1,4.693-.884,11.57,11.57,0,0,1,4.355.78,9.8,9.8,0,0,1,3.315,2.158,9.367,9.367,0,0,1,2.106,3.224,10.745,10.745,0,0,1,.728,3.978,10.469,10.469,0,0,1-1.118,4.888A9.242,9.242,0,0,1,32.409-.7a14.214,14.214,0,0,1-5.473,1.924l-1.95-3.094q.754-.078,1.326-.182T27.4-2.288a9.894,9.894,0,0,0,2.327-.9,7.262,7.262,0,0,0,1.885-1.456,6.37,6.37,0,0,0,1.261-2.041,7.045,7.045,0,0,0,.455-2.574,8.089,8.089,0,0,0-.468-2.808,6.322,6.322,0,0,0-1.378-2.223,6.072,6.072,0,0,0-2.21-1.456,8.189,8.189,0,0,0-2.99-.507,8.573,8.573,0,0,0-3.666.741A8.582,8.582,0,0,0,19.942-13.6a8.39,8.39,0,0,0-1.651,2.522A6.739,6.739,0,0,0,17.732-8.5a6.5,6.5,0,0,0,.312,2.171,3.286,3.286,0,0,0,.767,1.3,1.4,1.4,0,0,0,.975.429,1.519,1.519,0,0,0,1.079-.559,6.236,6.236,0,0,0,1.053-1.7,23.04,23.04,0,0,0,1.04-2.886,35.512,35.512,0,0,0,1.014-4,40.748,40.748,0,0,0,.6-4.16Zm16.042.442h18.1v3.042h-18.1ZM43.056-9.724H61.23v3.016H43.056Zm-2.99,8.268h23.5V1.586h-23.5ZM50.154-22.1H53.43V.026H50.154Zm-6.006.338,3.224.728a33.221,33.221,0,0,1-1.352,3.952,34.4,34.4,0,0,1-1.742,3.627,20.4,20.4,0,0,1-1.95,2.925,7.808,7.808,0,0,0-.819-.637q-.507-.351-1.053-.689T39.52-12.4A13.639,13.639,0,0,0,41.431-15a24.515,24.515,0,0,0,1.56-3.25A31.35,31.35,0,0,0,44.148-21.762ZM73.814-7.15H89.752v2.912H73.814Zm2-6.552h9.932v2.808H75.816Zm4.628,4.394H83.59v8.32A4.949,4.949,0,0,1,83.317.845a1.874,1.874,0,0,1-1.105,1,5.76,5.76,0,0,1-1.989.429q-1.157.065-2.743.065A8.877,8.877,0,0,0,77.155.806a12.6,12.6,0,0,0-.533-1.482l1.326.052q.676.026,1.209.013t.715-.013a1.052,1.052,0,0,0,.455-.1q.117-.078.117-.338Zm4.55-4.394h.78l.624-.156,1.95,1.534q-.754.884-1.716,1.833t-1.989,1.82A20.841,20.841,0,0,1,82.628-7.15a8.776,8.776,0,0,0-.793-.962,8.029,8.029,0,0,0-.871-.832A15.106,15.106,0,0,0,82.5-10.231a19.683,19.683,0,0,0,1.443-1.521A16.621,16.621,0,0,0,84.994-13.1ZM66.17-18.694H89.362v2.99H66.17ZM74.308-22.1l3.328.78a44.431,44.431,0,0,1-2.418,6.227,30.833,30.833,0,0,1-3.523,5.707A21.665,21.665,0,0,1,66.82-4.81a9.609,9.609,0,0,0-.429-1q-.273-.559-.572-1.131a8.064,8.064,0,0,0-.559-.936,16.674,16.674,0,0,0,3.224-2.795,22.274,22.274,0,0,0,2.574-3.51A28.8,28.8,0,0,0,72.995-18.1,30.368,30.368,0,0,0,74.308-22.1ZM69.134-11.258H72.28V2.288H69.134ZM102.05-22.074h3.224v3.64H102.05Zm0,15.21h3.224v9.2H102.05ZM92.014-5.2h23.5v2.886h-23.5Zm.858-14.352h21.84v2.834H92.872Zm19.214,3.146,2.782,1.326q-.988.91-2.054,1.755t-1.95,1.469l-2.288-1.222q.6-.442,1.235-1.014t1.248-1.183A13.98,13.98,0,0,0,112.086-16.406Zm-10.27-1.118,2.626.988q-.78,1.014-1.6,2.028t-1.495,1.716L99.4-13.65q.416-.546.858-1.222t.858-1.378Q101.53-16.952,101.816-17.524Zm3.9,1.9,2.418,1.118q-1.066,1.248-2.34,2.587t-2.548,2.548q-1.274,1.209-2.418,2.119l-1.82-1.014q1.144-.962,2.379-2.223t2.379-2.613Q104.91-14.456,105.716-15.626ZM98.1-13.364l1.456-1.768q.754.442,1.612,1.014t1.638,1.131a12.247,12.247,0,0,1,1.274,1.027l-1.534,2.028a12.834,12.834,0,0,0-1.222-1.1q-.754-.611-1.612-1.222T98.1-13.364ZM97.864-9.2l2.964-.117q1.664-.065,3.536-.156t3.77-.169l-.026,2.21-5.174.416q-2.574.208-4.628.338Zm7.15-1.742,2.21-.936q.572.728,1.131,1.573t1.027,1.677a7.85,7.85,0,0,1,.676,1.508l-2.34,1.066a9.778,9.778,0,0,0-.637-1.521q-.429-.845-.962-1.742A15.172,15.172,0,0,0,105.014-10.946ZM91.728-8.736q1.248-.39,3-1.066t3.575-1.352l.546,2.288q-1.4.7-2.9,1.4T93.21-6.214Zm.78-5.746,2.08-1.664q.676.364,1.443.845t1.456.975a11.136,11.136,0,0,1,1.131.91L96.434-11.57a9.5,9.5,0,0,0-1.053-.936q-.663-.52-1.417-1.04T92.508-14.482ZM108-9.646l2.132-1.716q.884.442,1.924,1.04t1.976,1.209q.936.611,1.56,1.1l-2.262,1.9a11.891,11.891,0,0,0-1.456-1.144q-.91-.624-1.924-1.274A21.2,21.2,0,0,0,108-9.646Z" transform="translate(2275.025 4109.742)" fill="#82c195"/>
    </g>
    <g id="グループ_255" data-name="グループ 255">
      <rect id="長方形_131" data-name="長方形 131" width="32.094" height="120.262" transform="translate(2155.68 4186.476)" fill="#fff766"/>
      <rect id="長方形_132" data-name="長方形 132" width="32.094" height="117.302" transform="translate(2208.73 4189.436)" fill="#fff766"/>
      <rect id="長方形_133" data-name="長方形 133" width="32.094" height="105.31" transform="translate(2261.78 4201.427)" fill="#fff766"/>
      <path id="パス_238" data-name="パス 238" d="M2271.78,4222.462h2.838l3.209,67.3,3.208-67.3h2.838c.349,0,.471-.234.271-.52l-5.954-8.516a.416.416,0,0,0-.727,0l-5.954,8.516C2271.309,4222.228,2271.431,4222.462,2271.78,4222.462Z" fill="#e61400"/>
      <rect id="長方形_134" data-name="長方形 134" width="32.094" height="97.053" transform="translate(2314.83 4209.685)" fill="#fff766"/>
      <rect id="長方形_135" data-name="長方形 135" width="32.094" height="128.21" transform="translate(2367.879 4178.527)" fill="#fff766"/>
      <rect id="長方形_136" data-name="長方形 136" width="32.094" height="14.22" transform="translate(2168.551 4292.517)" fill="#ff8e66"/>
      <rect id="長方形_137" data-name="長方形 137" width="32.094" height="18.84" transform="translate(2221.503 4287.897)" fill="#ff8e66"/>
      <rect id="長方形_138" data-name="長方形 138" width="32.094" height="11.174" transform="translate(2274.456 4295.563)" fill="#ff8e66"/>
      <rect id="長方形_139" data-name="長方形 139" width="32.094" height="3.762" transform="translate(2327.408 4302.976)" fill="#ff8e66"/>
      <rect id="長方形_140" data-name="長方形 140" width="32.094" height="24.962" transform="translate(2380.36 4281.775)" fill="#ff8e66"/>
      <path id="パス_767" data-name="パス 767" d="M-5.727,0V-.856h1.141V-4.044h-.963V-4.7a4.5,4.5,0,0,0,.688-.185,3.212,3.212,0,0,0,.538-.257h.777V-.856h.991V0ZM0,.1A1.5,1.5,0,0,1-.945-.21a1.973,1.973,0,0,1-.624-.909A4.268,4.268,0,0,1-1.79-2.589a4.2,4.2,0,0,1,.221-1.466,1.9,1.9,0,0,1,.624-.888A1.54,1.54,0,0,1,0-5.242a1.54,1.54,0,0,1,.945.3,1.9,1.9,0,0,1,.624.888A4.2,4.2,0,0,1,1.79-2.589,4.268,4.268,0,0,1,1.569-1.12,1.973,1.973,0,0,1,.945-.21,1.5,1.5,0,0,1,0,.1ZM0-.72A.586.586,0,0,0,.414-.888a1.167,1.167,0,0,0,.278-.578,4.966,4.966,0,0,0,.1-1.123,4.86,4.86,0,0,0-.1-1.12,1.083,1.083,0,0,0-.278-.556A.607.607,0,0,0,0-4.422a.6.6,0,0,0-.4.157,1.1,1.1,0,0,0-.289.556A4.547,4.547,0,0,0-.8-2.589,4.646,4.646,0,0,0-.692-1.466,1.188,1.188,0,0,0-.4-.888.581.581,0,0,0,0-.72ZM4.208.1a1.5,1.5,0,0,1-.945-.31,1.973,1.973,0,0,1-.624-.909,4.268,4.268,0,0,1-.221-1.469,4.2,4.2,0,0,1,.221-1.466,1.9,1.9,0,0,1,.624-.888,1.54,1.54,0,0,1,.945-.3,1.54,1.54,0,0,1,.945.3,1.9,1.9,0,0,1,.624.888A4.2,4.2,0,0,1,6-2.589,4.268,4.268,0,0,1,5.777-1.12a1.973,1.973,0,0,1-.624.909A1.5,1.5,0,0,1,4.208.1Zm0-.82a.586.586,0,0,0,.414-.168A1.167,1.167,0,0,0,4.9-1.466,4.966,4.966,0,0,0,5-2.589a4.86,4.86,0,0,0-.1-1.12,1.083,1.083,0,0,0-.278-.556.607.607,0,0,0-.414-.157.6.6,0,0,0-.4.157,1.1,1.1,0,0,0-.289.556,4.547,4.547,0,0,0-.107,1.12,4.646,4.646,0,0,0,.107,1.123A1.188,1.188,0,0,0,3.8-.888.581.581,0,0,0,4.208-.72Z" transform="translate(2135.009 4170.766)" fill="#333"/>
      <path id="パス_766" data-name="パス 766" d="M-8.8.1a2.2,2.2,0,0,1-.906-.178,1.526,1.526,0,0,1-.631-.5,1.223,1.223,0,0,1-.232-.735,1.187,1.187,0,0,1,.128-.563A1.568,1.568,0,0,1-10.11-2.3a2.155,2.155,0,0,1,.446-.314v-.029a2.019,2.019,0,0,1-.5-.506,1.2,1.2,0,0,1-.2-.692,1.313,1.313,0,0,1,.207-.745,1.373,1.373,0,0,1,.567-.481,1.88,1.88,0,0,1,.817-.171,1.768,1.768,0,0,1,.813.175,1.289,1.289,0,0,1,.531.489,1.4,1.4,0,0,1,.189.735,1.166,1.166,0,0,1-.1.471,1.407,1.407,0,0,1-.253.392,2.07,2.07,0,0,1-.328.292v.036a2.588,2.588,0,0,1,.446.314,1.343,1.343,0,0,1,.325.428,1.36,1.36,0,0,1,.121.6,1.227,1.227,0,0,1-.225.72,1.525,1.525,0,0,1-.624.506A2.181,2.181,0,0,1-8.8.1Zm.328-3.038a1.588,1.588,0,0,0,.282-.407,1.019,1.019,0,0,0,.1-.435.84.84,0,0,0-.082-.374.582.582,0,0,0-.239-.257A.754.754,0,0,0-8.794-4.5a.656.656,0,0,0-.456.168.625.625,0,0,0-.185.489.6.6,0,0,0,.128.392,1.185,1.185,0,0,0,.346.278A4.956,4.956,0,0,0-8.473-2.938Zm-.307,2.3a.938.938,0,0,0,.4-.082A.633.633,0,0,0-8.1-.966.708.708,0,0,0-8-1.348a.6.6,0,0,0-.089-.335.886.886,0,0,0-.246-.242,2.428,2.428,0,0,0-.371-.2q-.214-.1-.471-.2a1.375,1.375,0,0,0-.349.392.973.973,0,0,0-.136.506.717.717,0,0,0,.118.41.812.812,0,0,0,.317.275A.991.991,0,0,0-8.779-.642ZM-6.39,0V-.606q.685-.656,1.2-1.187a6.7,6.7,0,0,0,.8-.97,1.521,1.521,0,0,0,.285-.817A1,1,0,0,0-4.2-4.03a.661.661,0,0,0-.267-.285.858.858,0,0,0-.431-.1.907.907,0,0,0-.524.164,2.651,2.651,0,0,0-.439.378l-.585-.571a2.928,2.928,0,0,1,.76-.6,1.968,1.968,0,0,1,.924-.2,1.83,1.83,0,0,1,.874.2,1.434,1.434,0,0,1,.581.56,1.668,1.668,0,0,1,.207.845,1.925,1.925,0,0,1-.246.906A5.3,5.3,0,0,1-4-1.794q-.4.474-.881.974.2-.029.442-.046t.428-.018h1.155V0Zm5.064.1A.614.614,0,0,1-1.8-.1a.687.687,0,0,1-.185-.485A.68.68,0,0,1-1.8-1.077a.625.625,0,0,1,.471-.193.617.617,0,0,1,.464.193.68.68,0,0,1,.185.492A.687.687,0,0,1-.863-.1.606.606,0,0,1-1.327.1ZM2.232,0V-3.1q0-.235.014-.556t.029-.556H2.239q-.093.207-.2.414t-.221.421L1-2.083H3.837v.806H-.021V-2L1.947-5.142H3.209V0ZM5.549-2.033a1.148,1.148,0,0,1-.663-.2,1.307,1.307,0,0,1-.456-.578,2.267,2.267,0,0,1-.164-.906,2.215,2.215,0,0,1,.164-.9,1.288,1.288,0,0,1,.456-.567,1.163,1.163,0,0,1,.663-.2,1.171,1.171,0,0,1,.674.2,1.3,1.3,0,0,1,.453.567,2.215,2.215,0,0,1,.164.9,2.267,2.267,0,0,1-.164.906,1.318,1.318,0,0,1-.453.578A1.156,1.156,0,0,1,5.549-2.033Zm0-.592a.46.46,0,0,0,.389-.253,1.634,1.634,0,0,0,.16-.838,1.574,1.574,0,0,0-.16-.824.461.461,0,0,0-.389-.246.461.461,0,0,0-.389.246A1.574,1.574,0,0,0,5-3.716a1.634,1.634,0,0,0,.16.838A.46.46,0,0,0,5.549-2.625ZM5.72.1,8.594-5.378h.62L6.347.1ZM9.393.1a1.144,1.144,0,0,1-.667-.2A1.341,1.341,0,0,1,8.27-.678,2.224,2.224,0,0,1,8.1-1.583a2.193,2.193,0,0,1,.168-.906,1.322,1.322,0,0,1,.456-.567,1.159,1.159,0,0,1,.667-.2,1.147,1.147,0,0,1,.66.2,1.322,1.322,0,0,1,.456.567,2.193,2.193,0,0,1,.168.906,2.224,2.224,0,0,1-.168.906,1.341,1.341,0,0,1-.456.578A1.132,1.132,0,0,1,9.393.1Zm0-.6a.452.452,0,0,0,.385-.253,1.647,1.647,0,0,0,.157-.831,1.6,1.6,0,0,0-.157-.831.455.455,0,0,0-.385-.239A.46.46,0,0,0,9-2.414a1.6,1.6,0,0,0-.157.831A1.647,1.647,0,0,0,9-.752.457.457,0,0,0,9.393-.5Z" transform="translate(2171.727 4184.473)" fill="#333"/>
      <path id="パス_765" data-name="パス 765" d="M-7.474,0A11.853,11.853,0,0,1-7.35-1.223,7.112,7.112,0,0,1-7.1-2.282a6.486,6.486,0,0,1,.41-.984,7.859,7.859,0,0,1,.62-1H-8.444v-.877h3.509V-4.5a7.484,7.484,0,0,0-.727,1.041,4.736,4.736,0,0,0-.428,1.006,6.883,6.883,0,0,0-.221,1.109q-.071.6-.107,1.344ZM-3.43.1A.614.614,0,0,1-3.9-.1a.687.687,0,0,1-.185-.485A.68.68,0,0,1-3.9-1.077a.625.625,0,0,1,.471-.193.617.617,0,0,1,.464.193.68.68,0,0,1,.185.492A.687.687,0,0,1-2.967-.1.606.606,0,0,1-3.43.1Zm3.1,0A2.634,2.634,0,0,1-1.07,0,2.135,2.135,0,0,1-1.651-.26,2.261,2.261,0,0,1-2.09-.635L-1.6-1.3a2.814,2.814,0,0,0,.531.382,1.306,1.306,0,0,0,.645.16A1.262,1.262,0,0,0,.053-.838a.686.686,0,0,0,.314-.239.639.639,0,0,0,.111-.378.744.744,0,0,0-.125-.431.79.79,0,0,0-.439-.278,3.159,3.159,0,0,0-.884-.1v-.756a2.333,2.333,0,0,0,.763-.1.782.782,0,0,0,.4-.271A.676.676,0,0,0,.307-3.78a.6.6,0,0,0-.185-.471A.76.76,0,0,0-.4-4.415a1.1,1.1,0,0,0-.517.125,2.162,2.162,0,0,0-.474.346l-.542-.642A3.185,3.185,0,0,1-1.2-5.064a2,2,0,0,1,.849-.178,2.33,2.33,0,0,1,.9.16,1.323,1.323,0,0,1,.6.471,1.293,1.293,0,0,1,.214.752,1.1,1.1,0,0,1-.228.7,1.547,1.547,0,0,1-.649.46v.036a1.629,1.629,0,0,1,.531.25,1.267,1.267,0,0,1,.378.424,1.218,1.218,0,0,1,.139.6,1.3,1.3,0,0,1-.253.806A1.584,1.584,0,0,1,.6-.075,2.421,2.421,0,0,1-.328.1ZM3.445-2.033a1.148,1.148,0,0,1-.663-.2,1.307,1.307,0,0,1-.456-.578,2.267,2.267,0,0,1-.164-.906,2.215,2.215,0,0,1,.164-.9,1.288,1.288,0,0,1,.456-.567,1.163,1.163,0,0,1,.663-.2,1.171,1.171,0,0,1,.674.2,1.3,1.3,0,0,1,.453.567,2.215,2.215,0,0,1,.164.9,2.267,2.267,0,0,1-.164.906,1.318,1.318,0,0,1-.453.578A1.156,1.156,0,0,1,3.445-2.033Zm0-.592a.46.46,0,0,0,.389-.253,1.634,1.634,0,0,0,.16-.838,1.574,1.574,0,0,0-.16-.824.461.461,0,0,0-.389-.246.461.461,0,0,0-.389.246,1.574,1.574,0,0,0-.16.824,1.634,1.634,0,0,0,.16.838A.46.46,0,0,0,3.445-2.625ZM3.616.1,6.49-5.378h.62L4.244.1ZM7.289.1a1.144,1.144,0,0,1-.667-.2,1.341,1.341,0,0,1-.456-.578A2.224,2.224,0,0,1,6-1.583a2.193,2.193,0,0,1,.168-.906,1.322,1.322,0,0,1,.456-.567,1.159,1.159,0,0,1,.667-.2,1.147,1.147,0,0,1,.66.2,1.322,1.322,0,0,1,.456.567,2.193,2.193,0,0,1,.168.906,2.224,2.224,0,0,1-.168.906A1.341,1.341,0,0,1,7.949-.1,1.132,1.132,0,0,1,7.289.1Zm0-.6a.452.452,0,0,0,.385-.253,1.647,1.647,0,0,0,.157-.831,1.6,1.6,0,0,0-.157-.831.455.455,0,0,0-.385-.239.46.46,0,0,0-.392.239,1.6,1.6,0,0,0-.157.831A1.647,1.647,0,0,0,6.9-.752.457.457,0,0,0,7.289-.5Z" transform="translate(2184.598 4291.013)" fill="#333"/>
      <path id="パス_764" data-name="パス 764" d="M-12.887-2.732h3.944v.613h-3.074V.635h-.87Zm-.806-3.081h2.931v.506h-2.161v2.047h-.77Zm4.315,3.081H-8.5V-.157A.918.918,0,0,1-8.59.3.585.585,0,0,1-8.9.535a1.886,1.886,0,0,1-.542.093q-.321.014-.756.014a2.515,2.515,0,0,0-.111-.349,2.823,2.823,0,0,0-.153-.335q.178.007.371.011t.346,0h.2a.244.244,0,0,0,.128-.036.121.121,0,0,0,.036-.1Zm-3.06.913h3.5v.549h-3.5Zm1.9-3.973H-8.18v.663h-2.361ZM-13.693-3.5h2.967v.514h-2.967Zm1.255,2.546h3.5v.571h-3.5Zm.043-4.607h.72V-4.8h-.72Zm0,1.448h.72v.785h-.72ZM-8.43-5.791h.143l.143-.021.5.185a4,4,0,0,1-.592,1.277,3.666,3.666,0,0,1-.913.9,4.925,4.925,0,0,1-1.163.581,2.761,2.761,0,0,0-.2-.31,2.259,2.259,0,0,0-.232-.282,3.847,3.847,0,0,0,1.016-.471,3.239,3.239,0,0,0,.8-.745,2.932,2.932,0,0,0,.492-.995Zm-1.341.67a2.709,2.709,0,0,0,.9,1.091,3.707,3.707,0,0,0,1.487.613,2.141,2.141,0,0,0-.267.317,3.621,3.621,0,0,0-.225.353,3.791,3.791,0,0,1-1.565-.809,3.847,3.847,0,0,1-.988-1.4Zm-3.48.114h2.475v1.17h-2.475v-.435h1.7v-.3h-1.7Zm6.939-.806h1.22v.777h-1.22Zm-.057,1.633H-5.1v.77H-6.369Zm-.007,1.662H-5.1v.792H-6.376Zm-.235-3.295h.692V-3.2q0,.421-.014.924t-.061,1.023q-.046.521-.128,1.009A5.711,5.711,0,0,1-6.34.642,1.641,1.641,0,0,0-6.522.524Q-6.64.456-6.761.4A1.433,1.433,0,0,0-6.975.307a5.284,5.284,0,0,0,.2-.824q.075-.446.107-.913t.043-.924q.011-.456.011-.842Zm1.084,0h.713V-.221A1.667,1.667,0,0,1-4.86.207a.471.471,0,0,1-.189.271.773.773,0,0,1-.335.128,3.282,3.282,0,0,1-.471.029A2.076,2.076,0,0,0-5.92.246a2.031,2.031,0,0,0-.128-.382q.143.007.264.007h.164q.093,0,.093-.107Zm.913.257h4.3v.706h-4.3ZM-3.43-.713h1.419v.5H-3.43Zm-.842-3.395H-.235V-3.4H-4.272Zm.549-1.94h.763v1.662h-.763Zm1.548,0H-1.4v1.662h-.777Zm-.685,3.2h.428v.827H-2.86Zm0,1.6h.428v.77H-2.86ZM-4.515-4.108h.692V-2.6q0,.357-.018.77T-3.9-.974q-.043.439-.125.852a4.565,4.565,0,0,1-.218.763A1.641,1.641,0,0,0-4.425.524Q-4.543.456-4.664.4A1.433,1.433,0,0,0-4.878.307a4.264,4.264,0,0,0,.246-.949,10,10,0,0,0,.1-1.027q.021-.514.021-.927Zm.87.977h1.576v.506H-3.159V.1h-.485Zm.193.785h1.384v1.319H-3.452v-.5h.87v-.321h-.87ZM-2-4.429h.692q.007.849.057,1.6t.128,1.341A6.063,6.063,0,0,0-.945-.56q.1.339.225.339.057,0,.1-.185A3.383,3.383,0,0,0-.556-.92a1.2,1.2,0,0,0,.242.232,2.16,2.16,0,0,0,.25.168,3.045,3.045,0,0,1-.189.7A.914.914,0,0,1-.485.524a.4.4,0,0,1-.25.1A.673.673,0,0,1-1.305.232,3.526,3.526,0,0,1-1.687-.845,12.461,12.461,0,0,1-1.9-2.45Q-1.976-3.366-2-4.429Zm.735-.171.464-.285A2.513,2.513,0,0,1-.485-4.6a1.971,1.971,0,0,1,.242.3l-.492.314a1.592,1.592,0,0,0-.225-.307A3.416,3.416,0,0,0-1.269-4.6Zm.385,1.562.642.271A6.97,6.97,0,0,1-1-.767,4.822,4.822,0,0,1-2.154.62,2.97,2.97,0,0,0-2.371.4a1.838,1.838,0,0,0-.26-.21,4.128,4.128,0,0,0,1.073-1.3A6.545,6.545,0,0,0-.884-3.038ZM3.245-5.584q-.029.136-.064.3t-.064.3q-.029.157-.071.353t-.082.392q-.039.2-.082.382-.071.307-.178.713t-.25.874q-.143.467-.321.938t-.378.916a6.16,6.16,0,0,1-.428.8L.4.007A5.565,5.565,0,0,0,.867-.745q.218-.417.4-.856t.317-.87q.139-.431.242-.8t.16-.635q.1-.485.157-.934a5.258,5.258,0,0,0,.043-.849Zm2.453.72a5.022,5.022,0,0,1,.353.574q.182.339.36.717t.321.727q.143.349.221.606l-.906.414a5.828,5.828,0,0,0-.189-.663q-.125-.364-.289-.738t-.346-.71A3.355,3.355,0,0,0,4.85-4.5ZM.349-4.122q.193.014.382.011t.382-.011q.178-.007.428-.025l.531-.039q.282-.021.567-.046t.528-.039q.242-.014.4-.014a1.662,1.662,0,0,1,.67.125.951.951,0,0,1,.453.424,1.67,1.67,0,0,1,.168.813q0,.421-.036.913A7.693,7.693,0,0,1,4.7-1.07a3.03,3.03,0,0,1-.246.763,1.007,1.007,0,0,1-.467.514,1.6,1.6,0,0,1-.7.143A3.236,3.236,0,0,1,2.846.317Q2.61.285,2.425.25l-.15-.941q.136.036.3.071T2.9-.563a1.871,1.871,0,0,0,.246.021A.693.693,0,0,0,3.459-.61.507.507,0,0,0,3.68-.849a2.236,2.236,0,0,0,.164-.535,6.573,6.573,0,0,0,.1-.71q.032-.382.032-.731a.836.836,0,0,0-.082-.421.4.4,0,0,0-.235-.182,1.308,1.308,0,0,0-.374-.046q-.164,0-.442.025t-.6.057q-.317.032-.588.068t-.421.05q-.157.029-.4.061t-.4.061ZM5.57-5.855q.093.128.2.307t.2.357q.1.178.171.314l-.578.25q-.071-.15-.164-.328t-.193-.357a2.453,2.453,0,0,0-.2-.307Zm.849-.321q.093.136.2.314t.21.357q.1.178.16.3l-.563.242q-.114-.221-.271-.5a4.268,4.268,0,0,0-.307-.481Zm4.828.877-.111.16-.118.175q-.128.193-.282.446t-.317.535q-.164.282-.317.56t-.289.514a1.552,1.552,0,0,1,.407-.164,1.757,1.757,0,0,1,.414-.05.839.839,0,0,1,.631.239,1.023,1.023,0,0,1,.253.688q.007.157.007.378t0,.442q0,.221.018.371a.382.382,0,0,0,.153.3.541.541,0,0,0,.31.089.7.7,0,0,0,.417-.136,1.3,1.3,0,0,0,.339-.374,2.867,2.867,0,0,0,.26-.542,5.73,5.73,0,0,0,.189-.631l.77.628A4.528,4.528,0,0,1,13.515-.61a2.15,2.15,0,0,1-.7.713,1.789,1.789,0,0,1-.959.253A1.4,1.4,0,0,1,11.2.218a.942.942,0,0,1-.392-.364,1.09,1.09,0,0,1-.143-.489q-.014-.193-.018-.428t-.007-.46q0-.225-.018-.367a.446.446,0,0,0-.121-.292.4.4,0,0,0-.3-.107.772.772,0,0,0-.449.15,1.647,1.647,0,0,0-.389.392,2.917,2.917,0,0,0-.3.535q-.071.157-.15.371T8.765-.4L8.63.032q-.064.2-.107.346L7.517.036q.136-.357.332-.817t.431-.966q.235-.506.478-1.006T9.222-3.7q.221-.446.4-.777t.267-.5q.071-.143.164-.321t.185-.407Z" transform="translate(2178.196 4316.862)" fill="#333"/>
      <path id="パス_763" data-name="パス 763" d="M5.948-4.835q-.043.064-.125.2a1.523,1.523,0,0,0-.125.25q-.15.335-.367.749t-.492.831a8.221,8.221,0,0,1-.581.781,11.9,11.9,0,0,1-.881.888,9.65,9.65,0,0,1-1.013.806A7.765,7.765,0,0,1,1.277.3L.542-.471a6.635,6.635,0,0,0,1.12-.556,8.363,8.363,0,0,0,1.006-.727,8.324,8.324,0,0,0,.8-.763A6.412,6.412,0,0,0,3.912-3.1a6.8,6.8,0,0,0,.374-.61,3.092,3.092,0,0,0,.242-.56H2.111q-.15,0-.314.011l-.31.021-.225.018V-5.228q.107.007.264.021t.317.021q.16.007.267.007H4.629a3.009,3.009,0,0,0,.431-.029,1.853,1.853,0,0,0,.3-.064Zm-1.6,2.218q.278.221.592.514t.62.606q.307.314.567.6t.439.5L5.756.314q-.264-.364-.6-.756T4.44-1.223q-.374-.389-.76-.738ZM8.566-5.47a3.631,3.631,0,0,0,.385.039q.207.011.378.011H12.2q.185,0,.385-.011t.385-.039v.92q-.185-.014-.385-.021T12.2-4.579H9.336q-.185,0-.4.007t-.374.021ZM7.738-3.644l.339.029q.182.014.346.014h4.671q.114,0,.31-.011t.339-.032v.927q-.128-.014-.314-.018t-.335,0H8.423q-.157,0-.346.007t-.339.021Zm3.652.492A5.867,5.867,0,0,1,11.269-1.9a4.054,4.054,0,0,1-.349.995,2.931,2.931,0,0,1-.342.5,3.658,3.658,0,0,1-.492.485,3.061,3.061,0,0,1-.6.385L8.651-.143a2.861,2.861,0,0,0,.727-.428,2.731,2.731,0,0,0,.563-.592,2.472,2.472,0,0,0,.364-.913,5.859,5.859,0,0,0,.093-1.07Zm3.53-.15.328.018q.2.011.417.018t.4.007H19.9q.25,0,.471-.018t.364-.025v1.12L20.369-2.2q-.242-.014-.471-.014h-3.83q-.307,0-.628.011t-.521.025ZM26.46-5.477q.1.15.218.346t.232.392q.114.2.2.367l-.62.264q-.107-.228-.2-.41t-.2-.357q-.1-.175-.232-.353Zm.977-.342a2.96,2.96,0,0,1,.235.328q.121.193.235.385t.2.349l-.606.271q-.114-.221-.218-.4t-.21-.342q-.107-.164-.242-.342Zm-4.079.207q.178.093.4.228t.449.282l.435.278q.207.132.342.232l-.528.785L24.1-4.044q-.2-.136-.428-.278T23.232-4.6q-.218-.132-.389-.232ZM22.038-.549q.4-.071.813-.178a7.994,7.994,0,0,0,.82-.26,5.958,5.958,0,0,0,.792-.367,8.017,8.017,0,0,0,1.13-.77,7.812,7.812,0,0,0,.945-.909,5.483,5.483,0,0,0,.7-.995l.549.97a7.42,7.42,0,0,1-1.223,1.4A9.423,9.423,0,0,1,24.955-.492a8.364,8.364,0,0,1-.8.382Q23.721.071,23.3.2a6.473,6.473,0,0,1-.731.185Zm.221-3.438q.178.093.407.228t.456.275q.228.139.431.271t.339.232l-.521.8-.36-.242q-.2-.136-.428-.278t-.442-.275q-.218-.132-.4-.225ZM29.969,0V-.849h1.569V-4.2H30.3v-.656q.5-.093.863-.168a1.791,1.791,0,0,0,.656-.275h.77v4.45h1.426V0Z" transform="translate(2316.344 4159.978)" fill="#333"/>
      <path id="パス_762" data-name="パス 762" d="M-13.865-4.137h6.347v.884h-6.347Zm3.666.357a6.957,6.957,0,0,0,.592,1.519,4.784,4.784,0,0,0,.938,1.234A4.217,4.217,0,0,0-7.36-.193a1.975,1.975,0,0,0-.225.235q-.118.143-.228.3t-.182.275A4.759,4.759,0,0,1-9.4-.378a5.524,5.524,0,0,1-.988-1.416,10.18,10.18,0,0,1-.67-1.787Zm-.984-2.275h.934q-.007.542-.032,1.145t-.111,1.223a7.707,7.707,0,0,1-.275,1.23,5.262,5.262,0,0,1-.528,1.17,4.741,4.741,0,0,1-.87,1.045,5.417,5.417,0,0,1-1.294.856,2.607,2.607,0,0,0-.278-.378A2.2,2.2,0,0,0-14-.107a4.878,4.878,0,0,0,1.22-.76,4.132,4.132,0,0,0,.8-.934A4.407,4.407,0,0,0-11.5-2.849a6.124,6.124,0,0,0,.225-1.1q.061-.556.075-1.091T-11.183-6.055Zm6.918,2.9H-.2v.742H-4.265ZM-3.6-2.1H-.856v.685H-3.6Zm.15-.628.706.193A5.093,5.093,0,0,1-3.32-1.523a4.974,4.974,0,0,1-.724.817q-.071-.064-.178-.153t-.218-.171q-.111-.082-.2-.139a3.644,3.644,0,0,0,.681-.7A3.868,3.868,0,0,0-3.452-2.732Zm2.339.628h.77l0,.111q0,.111-.011.175-.029.692-.068,1.13a4.69,4.69,0,0,1-.1.681A.94.94,0,0,1-.67.342a.541.541,0,0,1-.2.171A.8.8,0,0,1-1.12.578a1.386,1.386,0,0,1-.3.032q-.185,0-.392,0a1.785,1.785,0,0,0-.057-.36A1.05,1.05,0,0,0-2-.078l.285.014q.121.007.193.007a.308.308,0,0,0,.111-.018.2.2,0,0,0,.082-.061.681.681,0,0,0,.089-.257A5.844,5.844,0,0,0-1.17-.974q.036-.389.057-1.009ZM-3.067-4.358v.328h1.612v-.328Zm0-.877v.321h1.612v-.321Zm-.77-.592H-.649v2.389H-3.837Zm-2.346.014h1.448v.777H-6.183Zm.036,1.633h1.334v.77H-6.148Zm0,1.662h1.334v.792H-6.148Zm-.371-3.295h.749V-3.2q0,.428-.018.931t-.071,1.027A9.754,9.754,0,0,1-6.016-.228,4.732,4.732,0,0,1-6.29.663a1.29,1.29,0,0,0-.2-.139Q-6.611.449-6.74.382a1.789,1.789,0,0,0-.228-.1,3.766,3.766,0,0,0,.253-.806,8.54,8.54,0,0,0,.132-.909q.043-.467.053-.92t.011-.845Zm1.341,0h.77V-.285a1.7,1.7,0,0,1-.053.464.478.478,0,0,1-.218.285.971.971,0,0,1-.385.128A4.405,4.405,0,0,1-5.613.62,1.84,1.84,0,0,0-5.652.364q-.032-.15-.075-.3a1.338,1.338,0,0,0-.1-.253q.171.007.328.007h.214A.1.1,0,0,0-5.2-.207a.142.142,0,0,0,.021-.086Zm2.325,3.9L-2.3-1.6a5.39,5.39,0,0,1-.371.742,6.289,6.289,0,0,1-.5.724,4.12,4.12,0,0,1-.549.574A2,2,0,0,0-3.98.189a2.1,2.1,0,0,0-.307-.218,2.94,2.94,0,0,0,.56-.506,5.457,5.457,0,0,0,.5-.674A4.687,4.687,0,0,0-2.853-1.911Zm.934.107.571.3a6.491,6.491,0,0,1-.282.752,7.834,7.834,0,0,1-.385.76A3.776,3.776,0,0,1-2.446.62,2.127,2.127,0,0,0-2.728.389a2.564,2.564,0,0,0-.325-.2A3,3,0,0,0-2.6-.364a6.272,6.272,0,0,0,.4-.717A4.849,4.849,0,0,0-1.919-1.8Zm5.164-3.78q-.029.136-.064.3t-.064.3q-.029.157-.071.353t-.082.392q-.039.2-.082.382-.071.307-.178.713t-.25.874q-.143.467-.321.938t-.378.916a6.16,6.16,0,0,1-.428.8L.4.007A5.565,5.565,0,0,0,.867-.745q.218-.417.4-.856t.317-.87q.139-.431.242-.8t.16-.635q.1-.485.157-.934a5.258,5.258,0,0,0,.043-.849Zm2.453.72a5.022,5.022,0,0,1,.353.574q.182.339.36.717t.321.727q.143.349.221.606l-.906.414a5.828,5.828,0,0,0-.189-.663q-.125-.364-.289-.738t-.346-.71A3.355,3.355,0,0,0,4.85-4.5ZM.349-4.122q.193.014.382.011t.382-.011q.178-.007.428-.025l.531-.039q.282-.021.567-.046t.528-.039q.242-.014.4-.014a1.662,1.662,0,0,1,.67.125.951.951,0,0,1,.453.424,1.67,1.67,0,0,1,.168.813q0,.421-.036.913A7.693,7.693,0,0,1,4.7-1.07a3.03,3.03,0,0,1-.246.763,1.007,1.007,0,0,1-.467.514,1.6,1.6,0,0,1-.7.143A3.236,3.236,0,0,1,2.846.317Q2.61.285,2.425.25l-.15-.941q.136.036.3.071T2.9-.563a1.871,1.871,0,0,0,.246.021A.693.693,0,0,0,3.459-.61.507.507,0,0,0,3.68-.849a2.236,2.236,0,0,0,.164-.535,6.573,6.573,0,0,0,.1-.71q.032-.382.032-.731a.836.836,0,0,0-.082-.421.4.4,0,0,0-.235-.182,1.308,1.308,0,0,0-.374-.046q-.164,0-.442.025t-.6.057q-.317.032-.588.068t-.421.05q-.157.029-.4.061t-.4.061ZM5.57-5.855q.093.128.2.307t.2.357q.1.178.171.314l-.578.25q-.071-.15-.164-.328t-.193-.357a2.453,2.453,0,0,0-.2-.307Zm.849-.321q.093.136.2.314t.21.357q.1.178.16.3l-.563.242q-.114-.221-.271-.5a4.268,4.268,0,0,0-.307-.481Zm4.828.877-.111.16-.118.175q-.128.193-.282.446t-.317.535q-.164.282-.317.56t-.289.514a1.552,1.552,0,0,1,.407-.164,1.757,1.757,0,0,1,.414-.05.839.839,0,0,1,.631.239,1.023,1.023,0,0,1,.253.688q.007.157.007.378t0,.442q0,.221.018.371a.382.382,0,0,0,.153.3.541.541,0,0,0,.31.089.7.7,0,0,0,.417-.136,1.3,1.3,0,0,0,.339-.374,2.867,2.867,0,0,0,.26-.542,5.73,5.73,0,0,0,.189-.631l.77.628A4.528,4.528,0,0,1,13.515-.61a2.15,2.15,0,0,1-.7.713,1.789,1.789,0,0,1-.959.253A1.4,1.4,0,0,1,11.2.218a.942.942,0,0,1-.392-.364,1.09,1.09,0,0,1-.143-.489q-.014-.193-.018-.428t-.007-.46q0-.225-.018-.367a.446.446,0,0,0-.121-.292.4.4,0,0,0-.3-.107.772.772,0,0,0-.449.15,1.647,1.647,0,0,0-.389.392,2.917,2.917,0,0,0-.3.535q-.071.157-.15.371T8.765-.4L8.63.032q-.064.2-.107.346L7.517.036q.136-.357.332-.817t.431-.966q.235-.506.478-1.006T9.222-3.7q.221-.446.4-.777t.267-.5q.071-.143.164-.321t.185-.407Z" transform="translate(2231.246 4316.862)" fill="#333"/>
      <path id="パス_761" data-name="パス 761" d="M-9.407-2.924h4.015v.642H-8.537V.635h-.87Zm3.666,0h.877v2.71A1.026,1.026,0,0,1-4.953.26a.563.563,0,0,1-.317.253,1.983,1.983,0,0,1-.549.1q-.328.018-.77.018A2.65,2.65,0,0,0-6.7.257,3.291,3.291,0,0,0-6.861-.1l.374.014q.2.007.357,0l.218,0A.211.211,0,0,0-5.78-.118a.126.126,0,0,0,.039-.1ZM-8.9-1.968h3.559v.592H-8.9Zm0,.906h3.559v.613H-8.9Zm-.121-3.131v.364h3.759v-.364Zm0-.913v.357h3.759v-.357Zm-.834-.606h5.47v2.489h-5.47Zm2.282.193h.82v2.033h-.82Zm7.253-.064q-.029.136-.064.3t-.064.3q-.029.157-.071.353T-.6-4.247q-.039.2-.082.382-.071.307-.178.713t-.25.874q-.143.467-.321.938t-.378.916a6.16,6.16,0,0,1-.428.8L-3.167.007A5.565,5.565,0,0,0-2.7-.745q.218-.417.4-.856t.317-.87q.139-.431.242-.8t.16-.635q.1-.485.157-.934a5.258,5.258,0,0,0,.043-.849Zm2.453.72a5.022,5.022,0,0,1,.353.574q.182.339.36.717t.321.727q.143.349.221.606l-.906.414a5.828,5.828,0,0,0-.189-.663Q2.168-2.853,2-3.227t-.346-.71A3.355,3.355,0,0,0,1.284-4.5Zm-5.349.742q.193.014.382.011t.382-.011q.178-.007.428-.025l.531-.039q.282-.021.567-.046T-.4-4.272q.242-.014.4-.014a1.662,1.662,0,0,1,.67.125.951.951,0,0,1,.453.424,1.67,1.67,0,0,1,.168.813q0,.421-.036.913a7.693,7.693,0,0,1-.125.941,3.03,3.03,0,0,1-.246.763A1.007,1.007,0,0,1,.417.207a1.6,1.6,0,0,1-.7.143A3.236,3.236,0,0,1-.72.317Q-.956.285-1.141.25l-.15-.941q.136.036.3.071t.321.057a1.871,1.871,0,0,0,.246.021A.693.693,0,0,0-.107-.61.507.507,0,0,0,.114-.849a2.236,2.236,0,0,0,.164-.535,6.573,6.573,0,0,0,.1-.71q.032-.382.032-.731a.836.836,0,0,0-.082-.421.4.4,0,0,0-.235-.182,1.308,1.308,0,0,0-.374-.046q-.164,0-.442.025t-.6.057q-.317.032-.588.068t-.421.05q-.157.029-.4.061t-.4.061ZM2-5.855q.093.128.2.307t.2.357q.1.178.171.314L2-4.629q-.071-.15-.164-.328T1.64-5.313a2.453,2.453,0,0,0-.2-.307Zm.849-.321q.093.136.2.314t.21.357q.1.178.16.3l-.563.242q-.114-.221-.271-.5a4.268,4.268,0,0,0-.307-.481ZM7.681-5.3l-.111.16-.118.175q-.128.193-.282.446t-.317.535q-.164.282-.317.56t-.289.514a1.552,1.552,0,0,1,.407-.164,1.757,1.757,0,0,1,.414-.05.839.839,0,0,1,.631.239,1.023,1.023,0,0,1,.253.688q.007.157.007.378t0,.442q0,.221.018.371a.382.382,0,0,0,.153.3.541.541,0,0,0,.31.089.7.7,0,0,0,.417-.136A1.3,1.3,0,0,0,9.2-1.13a2.867,2.867,0,0,0,.26-.542A5.73,5.73,0,0,0,9.65-2.3l.77.628A4.528,4.528,0,0,1,9.949-.61a2.15,2.15,0,0,1-.7.713,1.789,1.789,0,0,1-.959.253A1.4,1.4,0,0,1,7.638.218a.942.942,0,0,1-.392-.364A1.09,1.09,0,0,1,7.1-.635q-.014-.193-.018-.428t-.007-.46q0-.225-.018-.367a.446.446,0,0,0-.121-.292.4.4,0,0,0-.3-.107.772.772,0,0,0-.449.15,1.647,1.647,0,0,0-.389.392,2.917,2.917,0,0,0-.3.535q-.071.157-.15.371T5.2-.4L5.064.032Q5,.235,4.957.378L3.951.036q.136-.357.332-.817t.431-.966q.235-.506.478-1.006T5.656-3.7q.221-.446.4-.777t.267-.5q.071-.143.164-.321t.185-.407Z" transform="translate(2284.296 4316.862)" fill="#333"/>
      <path id="パス_760" data-name="パス 760" d="M-16.846-5.813h1.733V-5h-1.733Zm0,1.619h1.733v.813h-1.733Zm2.182,3.78h3.751v.82h-3.751Zm-2.19-2.125h1.74v.813h-1.74Zm-.328-3.274h.792v2.6q0,.428-.018.934t-.075,1.031a8.629,8.629,0,0,1-.171,1.016,4.9,4.9,0,0,1-.292.891,2.229,2.229,0,0,0-.207-.146q-.128-.082-.267-.153a2.058,2.058,0,0,0-.239-.107,3.652,3.652,0,0,0,.264-.8,9.079,9.079,0,0,0,.143-.9q.05-.46.061-.913t.011-.845Zm1.533,0h.806V-.378A1.738,1.738,0,0,1-14.9.107a.508.508,0,0,1-.235.3.949.949,0,0,1-.421.139q-.242.025-.606.025A1.584,1.584,0,0,0-16.2.3q-.036-.15-.082-.307a1.421,1.421,0,0,0-.1-.264q.193.007.371.007h.25q.121,0,.121-.128Zm2.168,2.753v1.077h1.419V-3.06Zm0-1.833v1.048h1.419V-4.893Zm-.8-.792h3.052V-1.2h-3.052Zm7.8.8q-.071.542-.185,1.155a11.24,11.24,0,0,1-.307,1.241A6.375,6.375,0,0,1-7.46-1.248a2.72,2.72,0,0,1-.61.8,1.1,1.1,0,0,1-.724.282,1.129,1.129,0,0,1-.724-.267,1.827,1.827,0,0,1-.528-.738,2.76,2.76,0,0,1-.2-1.07,2.793,2.793,0,0,1,.25-1.17,3.112,3.112,0,0,1,.7-.974,3.3,3.3,0,0,1,1.041-.667,3.381,3.381,0,0,1,1.287-.242,3.174,3.174,0,0,1,1.195.214,2.689,2.689,0,0,1,.909.592,2.569,2.569,0,0,1,.578.884,2.948,2.948,0,0,1,.2,1.091A2.872,2.872,0,0,1-4.393-1.17,2.535,2.535,0,0,1-5.3-.193,3.9,3.9,0,0,1-6.8.335l-.535-.849q.207-.021.364-.05t.3-.064a2.714,2.714,0,0,0,.638-.246,1.992,1.992,0,0,0,.517-.4,1.747,1.747,0,0,0,.346-.56,1.932,1.932,0,0,0,.125-.706,2.219,2.219,0,0,0-.128-.77,1.734,1.734,0,0,0-.378-.61,1.665,1.665,0,0,0-.606-.4,2.246,2.246,0,0,0-.82-.139,2.351,2.351,0,0,0-1.006.2,2.354,2.354,0,0,0-.735.524,2.3,2.3,0,0,0-.453.692,1.848,1.848,0,0,0-.153.706,1.783,1.783,0,0,0,.086.6.9.9,0,0,0,.21.357.385.385,0,0,0,.267.118.417.417,0,0,0,.3-.153,1.711,1.711,0,0,0,.289-.467A6.32,6.32,0,0,0-7.9-2.674a9.741,9.741,0,0,0,.278-1.1,11.178,11.178,0,0,0,.164-1.141Zm7.8,2.553A.8.8,0,0,0,1.2-2.76a.844.844,0,0,0-.349-.31,1.26,1.26,0,0,0-.574-.118,4.241,4.241,0,0,0-.745.064,6.211,6.211,0,0,0-.642.146q-.282.082-.467.139a3.322,3.322,0,0,0-.346.118q-.189.075-.346.132l-.271-1.02q.185-.014.4-.05t.385-.071q.264-.064.6-.139T-.414-4A5.742,5.742,0,0,1,.4-4.058a2.26,2.26,0,0,1,1,.21,1.6,1.6,0,0,1,.674.6,1.769,1.769,0,0,1,.242.949,2.146,2.146,0,0,1-.25,1.034,2.5,2.5,0,0,1-.706.809A4.131,4.131,0,0,1,.285.121,6.421,6.421,0,0,1-1.077.449L-1.59-.435a8.01,8.01,0,0,0,1.2-.228,3.656,3.656,0,0,0,.92-.382,1.764,1.764,0,0,0,.585-.549A1.339,1.339,0,0,0,1.319-2.332Zm-2.8-3.423q.307.064.738.121t.891.1q.46.043.877.068t.7.032l-.143.877q-.314-.021-.735-.057T-.029-4.7Q-.478-4.743-.9-4.8t-.731-.1Zm8.294.171q-.029.136-.064.3t-.064.3q-.029.157-.071.353t-.082.392q-.039.2-.082.382-.071.307-.178.713t-.25.874q-.143.467-.321.938T5.32-.424a6.16,6.16,0,0,1-.428.8L3.965.007a5.565,5.565,0,0,0,.467-.752q.218-.417.4-.856t.317-.87q.139-.431.242-.8t.16-.635q.1-.485.157-.934a5.258,5.258,0,0,0,.043-.849Zm2.453.72a5.022,5.022,0,0,1,.353.574q.182.339.36.717t.321.727q.143.349.221.606l-.906.414a5.828,5.828,0,0,0-.189-.663q-.125-.364-.289-.738t-.346-.71A3.355,3.355,0,0,0,8.416-4.5Zm-5.349.742q.193.014.382.011t.382-.011q.178-.007.428-.025l.531-.039q.282-.021.567-.046t.528-.039q.242-.014.4-.014a1.662,1.662,0,0,1,.67.125.951.951,0,0,1,.453.424,1.67,1.67,0,0,1,.168.813q0,.421-.036.913a7.693,7.693,0,0,1-.125.941,3.03,3.03,0,0,1-.246.763,1.007,1.007,0,0,1-.467.514,1.6,1.6,0,0,1-.7.143A3.236,3.236,0,0,1,6.412.317Q6.176.285,5.991.25l-.15-.941q.136.036.3.071t.321.057a1.871,1.871,0,0,0,.246.021A.693.693,0,0,0,7.025-.61a.507.507,0,0,0,.221-.239,2.236,2.236,0,0,0,.164-.535,6.573,6.573,0,0,0,.1-.71q.032-.382.032-.731a.836.836,0,0,0-.082-.421.4.4,0,0,0-.235-.182,1.308,1.308,0,0,0-.374-.046q-.164,0-.442.025t-.6.057q-.317.032-.588.068t-.421.05q-.157.029-.4.061T4-3.152ZM9.136-5.855q.093.128.2.307t.2.357q.1.178.171.314l-.578.25q-.071-.15-.164-.328t-.193-.357a2.453,2.453,0,0,0-.2-.307Zm.849-.321q.093.136.2.314t.21.357q.1.178.16.3l-.563.242q-.114-.221-.271-.5a4.268,4.268,0,0,0-.307-.481Zm4.828.877-.111.16-.118.175q-.128.193-.282.446t-.317.535q-.164.282-.317.56t-.289.514a1.552,1.552,0,0,1,.407-.164,1.757,1.757,0,0,1,.414-.05.839.839,0,0,1,.631.239,1.023,1.023,0,0,1,.253.688q.007.157.007.378t0,.442q0,.221.018.371a.382.382,0,0,0,.153.3.541.541,0,0,0,.31.089.7.7,0,0,0,.417-.136,1.3,1.3,0,0,0,.339-.374,2.867,2.867,0,0,0,.26-.542,5.73,5.73,0,0,0,.189-.631l.77.628A4.528,4.528,0,0,1,17.081-.61a2.15,2.15,0,0,1-.7.713,1.789,1.789,0,0,1-.959.253A1.4,1.4,0,0,1,14.77.218a.942.942,0,0,1-.392-.364,1.09,1.09,0,0,1-.143-.489q-.014-.193-.018-.428t-.007-.46q0-.225-.018-.367a.446.446,0,0,0-.121-.292.4.4,0,0,0-.3-.107.772.772,0,0,0-.449.15,1.647,1.647,0,0,0-.389.392,2.917,2.917,0,0,0-.3.535q-.071.157-.15.371t-.15.442L12.2.032q-.064.2-.107.346L11.083.036q.136-.357.332-.817t.431-.966q.235-.506.478-1.006t.464-.945q.221-.446.4-.777t.267-.5q.071-.143.164-.321t.185-.407Z" transform="translate(2337.346 4316.862)" fill="#333"/>
      <path id="パス_759" data-name="パス 759" d="M-17.552-2.938h6.583v.863h-6.583Zm2.846-1.134h.9V-.357a1.327,1.327,0,0,1-.1.563.617.617,0,0,1-.36.3,2.211,2.211,0,0,1-.628.128q-.371.029-.863.021A1.419,1.419,0,0,0-15.84.367q-.064-.16-.136-.321a2.233,2.233,0,0,0-.143-.275l.5.014q.246.007.442.007h.275a.253.253,0,0,0,.157-.036.16.16,0,0,0,.043-.128ZM-16.8-5.62h4.493v.842H-16.8Zm4.208,0h.228l.2-.05.649.492a8.046,8.046,0,0,1-.752.7q-.424.349-.881.667a8.42,8.42,0,0,1-.891.546,2.368,2.368,0,0,0-.164-.207q-.1-.114-.207-.225t-.193-.189a6.654,6.654,0,0,0,.781-.464,7.925,7.925,0,0,0,.724-.556,3.61,3.61,0,0,0,.506-.521Zm4.386,2.025v.628h2.083v-.628Zm-.806-.685h3.737v2H-9.015ZM-7.6-2.667-6.6-2.5q-.1.321-.185.635t-.157.542L-7.7-1.5q.036-.257.064-.585T-7.6-2.667Zm-1.933.827h4.893V.613h-.891V-1.105H-8.672V.62h-.856Zm.385,1.462h4.065V.357H-9.143Zm1.519-5.684h.9v1.027h-.9Zm-2.575.6h6.148v1.79h-.877v-1.02H-9.357v1.02H-10.2Zm6.954-.228H-.756v.735H-3.245Zm.064,3.409H-.435v.749H-3.181Zm.977-.635H-1.4V-.285H-2.2Zm-.064-2.09a2.845,2.845,0,0,0,.546.645,3.8,3.8,0,0,0,.774.531,4.394,4.394,0,0,0,.92.357,2.069,2.069,0,0,0-.189.2q-.1.125-.193.253t-.153.235a4.467,4.467,0,0,1-.984-.471,4.254,4.254,0,0,1-.817-.678,4.453,4.453,0,0,1-.617-.834ZM-3.416-.456q.392-.064.9-.157t1.077-.2l1.13-.214.071.735q-.521.121-1.056.235L-2.321.164l-.916.2Zm2.368-5.235h.164l.143-.029.485.235A4.032,4.032,0,0,1-.9-4.208a4.071,4.071,0,0,1-.966.909,4.753,4.753,0,0,1-1.191.574,1.369,1.369,0,0,0-.114-.232q-.078-.132-.164-.26a1.082,1.082,0,0,0-.164-.2,4.509,4.509,0,0,0,1.084-.453,3.276,3.276,0,0,0,.849-.71,2.645,2.645,0,0,0,.521-.984Zm.863-.078H3.281v.713H-.185ZM.77-2.881v.456H2.3v-.456Zm0,1.041v.456H2.3V-1.84Zm0-2.083v.456H2.3v-.456Zm-.777-.62H3.124V-.756H-.007Zm1.034-.834L2-5.263q-.1.335-.207.656T1.6-4.058L.849-4.2q.043-.171.075-.378t.061-.414Q1.013-5.2,1.027-5.378ZM.663-.756l.692.449A3.3,3.3,0,0,1,.9.057a6.2,6.2,0,0,1-.56.332,5.816,5.816,0,0,1-.563.26A3.151,3.151,0,0,0-.489.374Q-.656.214-.792.1A4.064,4.064,0,0,0-.25-.139,6.009,6.009,0,0,0,.271-.446,2.536,2.536,0,0,0,.663-.756Zm.984.464L2.289-.7q.193.128.421.285T3.149-.1a4.316,4.316,0,0,1,.346.289L2.81.649A3.053,3.053,0,0,0,2.5.353Q2.3.185,2.072.014T1.647-.292ZM6.811-5.584q-.029.136-.064.3t-.064.3q-.029.157-.071.353t-.082.392q-.039.2-.082.382-.071.307-.178.713t-.25.874q-.143.467-.321.938T5.32-.424a6.16,6.16,0,0,1-.428.8L3.965.007a5.565,5.565,0,0,0,.467-.752q.218-.417.4-.856t.317-.87q.139-.431.242-.8t.16-.635q.1-.485.157-.934a5.258,5.258,0,0,0,.043-.849Zm2.453.72a5.022,5.022,0,0,1,.353.574q.182.339.36.717t.321.727q.143.349.221.606l-.906.414a5.828,5.828,0,0,0-.189-.663q-.125-.364-.289-.738t-.346-.71A3.355,3.355,0,0,0,8.416-4.5Zm-5.349.742q.193.014.382.011t.382-.011q.178-.007.428-.025l.531-.039q.282-.021.567-.046t.528-.039q.242-.014.4-.014a1.662,1.662,0,0,1,.67.125.951.951,0,0,1,.453.424,1.67,1.67,0,0,1,.168.813q0,.421-.036.913a7.693,7.693,0,0,1-.125.941,3.03,3.03,0,0,1-.246.763,1.007,1.007,0,0,1-.467.514,1.6,1.6,0,0,1-.7.143A3.236,3.236,0,0,1,6.412.317Q6.176.285,5.991.25l-.15-.941q.136.036.3.071t.321.057a1.871,1.871,0,0,0,.246.021A.693.693,0,0,0,7.025-.61a.507.507,0,0,0,.221-.239,2.236,2.236,0,0,0,.164-.535,6.573,6.573,0,0,0,.1-.71q.032-.382.032-.731a.836.836,0,0,0-.082-.421.4.4,0,0,0-.235-.182,1.308,1.308,0,0,0-.374-.046q-.164,0-.442.025t-.6.057q-.317.032-.588.068t-.421.05q-.157.029-.4.061T4-3.152ZM9.136-5.855q.093.128.2.307t.2.357q.1.178.171.314l-.578.25q-.071-.15-.164-.328t-.193-.357a2.453,2.453,0,0,0-.2-.307Zm.849-.321q.093.136.2.314t.21.357q.1.178.16.3l-.563.242q-.114-.221-.271-.5a4.268,4.268,0,0,0-.307-.481Zm4.828.877-.111.16-.118.175q-.128.193-.282.446t-.317.535q-.164.282-.317.56t-.289.514a1.552,1.552,0,0,1,.407-.164,1.757,1.757,0,0,1,.414-.05.839.839,0,0,1,.631.239,1.023,1.023,0,0,1,.253.688q.007.157.007.378t0,.442q0,.221.018.371a.382.382,0,0,0,.153.3.541.541,0,0,0,.31.089.7.7,0,0,0,.417-.136,1.3,1.3,0,0,0,.339-.374,2.867,2.867,0,0,0,.26-.542,5.73,5.73,0,0,0,.189-.631l.77.628A4.528,4.528,0,0,1,17.081-.61a2.15,2.15,0,0,1-.7.713,1.789,1.789,0,0,1-.959.253A1.4,1.4,0,0,1,14.77.218a.942.942,0,0,1-.392-.364,1.09,1.09,0,0,1-.143-.489q-.014-.193-.018-.428t-.007-.46q0-.225-.018-.367a.446.446,0,0,0-.121-.292.4.4,0,0,0-.3-.107.772.772,0,0,0-.449.15,1.647,1.647,0,0,0-.389.392,2.917,2.917,0,0,0-.3.535q-.071.157-.15.371t-.15.442L12.2.032q-.064.2-.107.346L11.083.036q.136-.357.332-.817t.431-.966q.235-.506.478-1.006t.464-.945q.221-.446.4-.777t.267-.5q.071-.143.164-.321t.185-.407Z" transform="translate(2390.396 4316.862)" fill="#333"/>
      <path id="パス_758" data-name="パス 758" d="M-10.32,0V-.856h1.141V-4.044h-.963V-4.7a4.5,4.5,0,0,0,.688-.185,3.212,3.212,0,0,0,.538-.257h.777V-.856h.991V0Zm4.208,0V-.856h1.141V-4.044h-.963V-4.7a4.5,4.5,0,0,0,.688-.185,3.212,3.212,0,0,0,.538-.257h.777V-.856h.991V0Zm4.786.1A.614.614,0,0,1-1.8-.1a.687.687,0,0,1-.185-.485A.68.68,0,0,1-1.8-1.077a.625.625,0,0,1,.471-.193.617.617,0,0,1,.464.193.68.68,0,0,1,.185.492A.687.687,0,0,1-.863-.1.606.606,0,0,1-1.327.1ZM.136,0V-.606q.685-.656,1.2-1.187a6.7,6.7,0,0,0,.8-.97,1.521,1.521,0,0,0,.285-.817,1,1,0,0,0-.093-.449.661.661,0,0,0-.267-.285.858.858,0,0,0-.431-.1.907.907,0,0,0-.524.164,2.651,2.651,0,0,0-.439.378L.078-4.443a2.928,2.928,0,0,1,.76-.6,1.968,1.968,0,0,1,.924-.2,1.83,1.83,0,0,1,.874.2,1.434,1.434,0,0,1,.581.56,1.668,1.668,0,0,1,.207.845,1.925,1.925,0,0,1-.246.906,5.3,5.3,0,0,1-.649.938q-.4.474-.881.974.2-.029.442-.046t.428-.018H3.673V0ZM5.549-2.033a1.148,1.148,0,0,1-.663-.2,1.307,1.307,0,0,1-.456-.578,2.267,2.267,0,0,1-.164-.906,2.215,2.215,0,0,1,.164-.9,1.288,1.288,0,0,1,.456-.567,1.163,1.163,0,0,1,.663-.2,1.171,1.171,0,0,1,.674.2,1.3,1.3,0,0,1,.453.567,2.215,2.215,0,0,1,.164.9,2.267,2.267,0,0,1-.164.906,1.318,1.318,0,0,1-.453.578A1.156,1.156,0,0,1,5.549-2.033Zm0-.592a.46.46,0,0,0,.389-.253,1.634,1.634,0,0,0,.16-.838,1.574,1.574,0,0,0-.16-.824.461.461,0,0,0-.389-.246.461.461,0,0,0-.389.246A1.574,1.574,0,0,0,5-3.716a1.634,1.634,0,0,0,.16.838A.46.46,0,0,0,5.549-2.625ZM5.72.1,8.594-5.378h.62L6.347.1ZM9.393.1a1.144,1.144,0,0,1-.667-.2A1.341,1.341,0,0,1,8.27-.678,2.224,2.224,0,0,1,8.1-1.583a2.193,2.193,0,0,1,.168-.906,1.322,1.322,0,0,1,.456-.567,1.159,1.159,0,0,1,.667-.2,1.147,1.147,0,0,1,.66.2,1.322,1.322,0,0,1,.456.567,2.193,2.193,0,0,1,.168.906,2.224,2.224,0,0,1-.168.906,1.341,1.341,0,0,1-.456.578A1.132,1.132,0,0,1,9.393.1Zm0-.6a.452.452,0,0,0,.385-.253,1.647,1.647,0,0,0,.157-.831,1.6,1.6,0,0,0-.157-.831.455.455,0,0,0-.385-.239A.46.46,0,0,0,9-2.414a1.6,1.6,0,0,0-.157.831A1.647,1.647,0,0,0,9-.752.457.457,0,0,0,9.393-.5Z" transform="translate(2237.258 4286.633)" fill="#333"/>
      <path id="パス_757" data-name="パス 757" d="M-3.291.1a1.753,1.753,0,0,1-.717-.15,1.731,1.731,0,0,1-.606-.456,2.2,2.2,0,0,1-.421-.785,3.755,3.755,0,0,1-.153-1.141A4.31,4.31,0,0,1-5.024-3.7a2.434,2.434,0,0,1,.456-.87,1.871,1.871,0,0,1,.66-.506,1.844,1.844,0,0,1,.76-.164,1.884,1.884,0,0,1,.845.178,2.148,2.148,0,0,1,.6.421l-.563.628a1.09,1.09,0,0,0-.357-.264,1.036,1.036,0,0,0-.456-.107.981.981,0,0,0-.574.182,1.214,1.214,0,0,0-.414.606,3.545,3.545,0,0,0-.153,1.166A3.456,3.456,0,0,0-4.1-1.416a1.151,1.151,0,0,0,.328.553.709.709,0,0,0,.464.171.668.668,0,0,0,.364-.1.709.709,0,0,0,.26-.307,1.171,1.171,0,0,0,.1-.5,1.088,1.088,0,0,0-.093-.485.584.584,0,0,0-.264-.271.882.882,0,0,0-.4-.086.9.9,0,0,0-.446.132,1.311,1.311,0,0,0-.439.467l-.043-.713A1.669,1.669,0,0,1-3.933-2.9a1.567,1.567,0,0,1,.4-.218A1.136,1.136,0,0,1-3.149-3.2a1.731,1.731,0,0,1,.785.171,1.244,1.244,0,0,1,.538.524,1.828,1.828,0,0,1,.2.9,1.725,1.725,0,0,1-.228.9,1.617,1.617,0,0,1-.6.592A1.667,1.667,0,0,1-3.291.1ZM.182-2.033a1.148,1.148,0,0,1-.663-.2A1.307,1.307,0,0,1-.938-2.81,2.267,2.267,0,0,1-1.1-3.716a2.215,2.215,0,0,1,.164-.9,1.288,1.288,0,0,1,.456-.567,1.163,1.163,0,0,1,.663-.2,1.171,1.171,0,0,1,.674.2,1.3,1.3,0,0,1,.453.567,2.215,2.215,0,0,1,.164.9,2.267,2.267,0,0,1-.164.906,1.318,1.318,0,0,1-.453.578A1.156,1.156,0,0,1,.182-2.033Zm0-.592a.46.46,0,0,0,.389-.253,1.634,1.634,0,0,0,.16-.838,1.574,1.574,0,0,0-.16-.824.461.461,0,0,0-.389-.246.461.461,0,0,0-.389.246,1.574,1.574,0,0,0-.16.824,1.634,1.634,0,0,0,.16.838A.46.46,0,0,0,.182-2.625ZM.353.1,3.227-5.378h.62L.981.1ZM4.026.1a1.144,1.144,0,0,1-.667-.2A1.341,1.341,0,0,1,2.9-.678a2.224,2.224,0,0,1-.168-.906A2.193,2.193,0,0,1,2.9-2.489a1.322,1.322,0,0,1,.456-.567,1.159,1.159,0,0,1,.667-.2,1.147,1.147,0,0,1,.66.2,1.322,1.322,0,0,1,.456.567,2.193,2.193,0,0,1,.168.906,2.224,2.224,0,0,1-.168.906A1.341,1.341,0,0,1,4.686-.1,1.132,1.132,0,0,1,4.026.1Zm0-.6a.452.452,0,0,0,.385-.253,1.647,1.647,0,0,0,.157-.831,1.6,1.6,0,0,0-.157-.831.455.455,0,0,0-.385-.239.46.46,0,0,0-.392.239,1.6,1.6,0,0,0-.157.831,1.647,1.647,0,0,0,.157.831A.457.457,0,0,0,4.026-.5Z" transform="translate(2290.503 4294.256)" fill="#333"/>
      <path id="パス_756" data-name="パス 756" d="M-6.7.1a1.5,1.5,0,0,1-.945-.31,1.973,1.973,0,0,1-.624-.909,4.268,4.268,0,0,1-.221-1.469,4.2,4.2,0,0,1,.221-1.466,1.9,1.9,0,0,1,.624-.888,1.54,1.54,0,0,1,.945-.3,1.54,1.54,0,0,1,.945.3,1.9,1.9,0,0,1,.624.888,4.2,4.2,0,0,1,.221,1.466A4.268,4.268,0,0,1-5.128-1.12a1.973,1.973,0,0,1-.624.909A1.5,1.5,0,0,1-6.7.1Zm0-.82a.586.586,0,0,0,.414-.168,1.167,1.167,0,0,0,.278-.578,4.966,4.966,0,0,0,.1-1.123,4.86,4.86,0,0,0-.1-1.12,1.083,1.083,0,0,0-.278-.556A.607.607,0,0,0-6.7-4.422a.6.6,0,0,0-.4.157,1.1,1.1,0,0,0-.289.556A4.547,4.547,0,0,0-7.5-2.589a4.646,4.646,0,0,0,.107,1.123A1.188,1.188,0,0,0-7.1-.888.581.581,0,0,0-6.7-.72ZM-3.43.1A.614.614,0,0,1-3.9-.1a.687.687,0,0,1-.185-.485A.68.68,0,0,1-3.9-1.077a.625.625,0,0,1,.471-.193.617.617,0,0,1,.464.193.68.68,0,0,1,.185.492A.687.687,0,0,1-2.967-.1.606.606,0,0,1-3.43.1Zm3.4,0A1.753,1.753,0,0,1-.745-.05a1.731,1.731,0,0,1-.606-.456,2.2,2.2,0,0,1-.421-.785,3.755,3.755,0,0,1-.153-1.141A4.31,4.31,0,0,1-1.762-3.7a2.434,2.434,0,0,1,.456-.87,1.871,1.871,0,0,1,.66-.506,1.844,1.844,0,0,1,.76-.164,1.884,1.884,0,0,1,.845.178,2.148,2.148,0,0,1,.6.421l-.563.628a1.09,1.09,0,0,0-.357-.264,1.036,1.036,0,0,0-.456-.107A.981.981,0,0,0-.4-4.2,1.214,1.214,0,0,0-.809-3.6,3.545,3.545,0,0,0-.963-2.432,3.456,3.456,0,0,0-.842-1.416a1.151,1.151,0,0,0,.328.553A.709.709,0,0,0-.05-.692.668.668,0,0,0,.314-.8.709.709,0,0,0,.574-1.1a1.171,1.171,0,0,0,.1-.5A1.088,1.088,0,0,0,.578-2.09a.584.584,0,0,0-.264-.271.882.882,0,0,0-.4-.086.9.9,0,0,0-.446.132,1.311,1.311,0,0,0-.439.467l-.043-.713A1.669,1.669,0,0,1-.67-2.9a1.567,1.567,0,0,1,.4-.218A1.136,1.136,0,0,1,.114-3.2,1.731,1.731,0,0,1,.9-3.024a1.244,1.244,0,0,1,.538.524,1.828,1.828,0,0,1,.2.9A1.725,1.725,0,0,1,1.4-.7a1.617,1.617,0,0,1-.6.592A1.667,1.667,0,0,1-.029.1ZM3.445-2.033a1.148,1.148,0,0,1-.663-.2,1.307,1.307,0,0,1-.456-.578,2.267,2.267,0,0,1-.164-.906,2.215,2.215,0,0,1,.164-.9,1.288,1.288,0,0,1,.456-.567,1.163,1.163,0,0,1,.663-.2,1.171,1.171,0,0,1,.674.2,1.3,1.3,0,0,1,.453.567,2.215,2.215,0,0,1,.164.9,2.267,2.267,0,0,1-.164.906,1.318,1.318,0,0,1-.453.578A1.156,1.156,0,0,1,3.445-2.033Zm0-.592a.46.46,0,0,0,.389-.253,1.634,1.634,0,0,0,.16-.838,1.574,1.574,0,0,0-.16-.824.461.461,0,0,0-.389-.246.461.461,0,0,0-.389.246,1.574,1.574,0,0,0-.16.824,1.634,1.634,0,0,0,.16.838A.46.46,0,0,0,3.445-2.625ZM3.616.1,6.49-5.378h.62L4.244.1ZM7.289.1a1.144,1.144,0,0,1-.667-.2,1.341,1.341,0,0,1-.456-.578A2.224,2.224,0,0,1,6-1.583a2.193,2.193,0,0,1,.168-.906,1.322,1.322,0,0,1,.456-.567,1.159,1.159,0,0,1,.667-.2,1.147,1.147,0,0,1,.66.2,1.322,1.322,0,0,1,.456.567,2.193,2.193,0,0,1,.168.906,2.224,2.224,0,0,1-.168.906A1.341,1.341,0,0,1,7.949-.1,1.132,1.132,0,0,1,7.289.1Zm0-.6a.452.452,0,0,0,.385-.253,1.647,1.647,0,0,0,.157-.831,1.6,1.6,0,0,0-.157-.831.455.455,0,0,0-.385-.239.46.46,0,0,0-.392.239,1.6,1.6,0,0,0-.157.831A1.647,1.647,0,0,0,6.9-.752.457.457,0,0,0,7.289-.5Z" transform="translate(2343.357 4301.959)" fill="#333"/>
      <path id="パス_755" data-name="パス 755" d="M-10.32,0V-.856h1.141V-4.044h-.963V-4.7a4.5,4.5,0,0,0,.688-.185,3.212,3.212,0,0,0,.538-.257h.777V-.856h.991V0Zm5.727.1A2.2,2.2,0,0,1-5.5-.078a1.526,1.526,0,0,1-.631-.5,1.223,1.223,0,0,1-.232-.735,1.187,1.187,0,0,1,.128-.563A1.568,1.568,0,0,1-5.9-2.3a2.155,2.155,0,0,1,.446-.314v-.029a2.019,2.019,0,0,1-.5-.506,1.2,1.2,0,0,1-.2-.692,1.313,1.313,0,0,1,.207-.745,1.373,1.373,0,0,1,.567-.481,1.88,1.88,0,0,1,.817-.171,1.768,1.768,0,0,1,.813.175,1.289,1.289,0,0,1,.531.489,1.4,1.4,0,0,1,.189.735,1.166,1.166,0,0,1-.1.471,1.407,1.407,0,0,1-.253.392,2.07,2.07,0,0,1-.328.292v.036a2.588,2.588,0,0,1,.446.314,1.343,1.343,0,0,1,.325.428,1.36,1.36,0,0,1,.121.6,1.227,1.227,0,0,1-.225.72,1.525,1.525,0,0,1-.624.506A2.181,2.181,0,0,1-4.593.1Zm.328-3.038a1.588,1.588,0,0,0,.282-.407,1.019,1.019,0,0,0,.1-.435.84.84,0,0,0-.082-.374.582.582,0,0,0-.239-.257A.754.754,0,0,0-4.586-4.5a.656.656,0,0,0-.456.168.625.625,0,0,0-.185.489.6.6,0,0,0,.128.392,1.185,1.185,0,0,0,.346.278A4.956,4.956,0,0,0-4.265-2.938Zm-.307,2.3a.938.938,0,0,0,.4-.082.633.633,0,0,0,.275-.242.708.708,0,0,0,.1-.382.6.6,0,0,0-.089-.335.886.886,0,0,0-.246-.242,2.428,2.428,0,0,0-.371-.2q-.214-.1-.471-.2a1.375,1.375,0,0,0-.349.392.973.973,0,0,0-.136.506.717.717,0,0,0,.118.41.812.812,0,0,0,.317.275A.991.991,0,0,0-4.572-.642ZM-1.327.1A.614.614,0,0,1-1.8-.1a.687.687,0,0,1-.185-.485A.68.68,0,0,1-1.8-1.077a.625.625,0,0,1,.471-.193.617.617,0,0,1,.464.193.68.68,0,0,1,.185.492A.687.687,0,0,1-.863-.1.606.606,0,0,1-1.327.1Zm3.4,0a1.753,1.753,0,0,1-.717-.15A1.731,1.731,0,0,1,.752-.506a2.2,2.2,0,0,1-.421-.785A3.755,3.755,0,0,1,.178-2.432,4.31,4.31,0,0,1,.342-3.7,2.434,2.434,0,0,1,.8-4.572a1.871,1.871,0,0,1,.66-.506,1.844,1.844,0,0,1,.76-.164,1.884,1.884,0,0,1,.845.178,2.148,2.148,0,0,1,.6.421L3.1-4.015a1.09,1.09,0,0,0-.357-.264,1.036,1.036,0,0,0-.456-.107.981.981,0,0,0-.574.182,1.214,1.214,0,0,0-.414.606,3.545,3.545,0,0,0-.153,1.166,3.456,3.456,0,0,0,.121,1.016,1.151,1.151,0,0,0,.328.553.709.709,0,0,0,.464.171.668.668,0,0,0,.364-.1.709.709,0,0,0,.26-.307,1.171,1.171,0,0,0,.1-.5,1.088,1.088,0,0,0-.093-.485.584.584,0,0,0-.264-.271.882.882,0,0,0-.4-.086.9.9,0,0,0-.446.132,1.311,1.311,0,0,0-.439.467L1.091-2.56A1.669,1.669,0,0,1,1.434-2.9a1.567,1.567,0,0,1,.4-.218A1.136,1.136,0,0,1,2.218-3.2,1.731,1.731,0,0,1,3-3.024a1.244,1.244,0,0,1,.538.524,1.828,1.828,0,0,1,.2.9,1.725,1.725,0,0,1-.228.9,1.617,1.617,0,0,1-.6.592A1.667,1.667,0,0,1,2.075.1ZM5.549-2.033a1.148,1.148,0,0,1-.663-.2,1.307,1.307,0,0,1-.456-.578,2.267,2.267,0,0,1-.164-.906,2.215,2.215,0,0,1,.164-.9,1.288,1.288,0,0,1,.456-.567,1.163,1.163,0,0,1,.663-.2,1.171,1.171,0,0,1,.674.2,1.3,1.3,0,0,1,.453.567,2.215,2.215,0,0,1,.164.9,2.267,2.267,0,0,1-.164.906,1.318,1.318,0,0,1-.453.578A1.156,1.156,0,0,1,5.549-2.033Zm0-.592a.46.46,0,0,0,.389-.253,1.634,1.634,0,0,0,.16-.838,1.574,1.574,0,0,0-.16-.824.461.461,0,0,0-.389-.246.461.461,0,0,0-.389.246A1.574,1.574,0,0,0,5-3.716a1.634,1.634,0,0,0,.16.838A.46.46,0,0,0,5.549-2.625ZM5.72.1,8.594-5.378h.62L6.347.1ZM9.393.1a1.144,1.144,0,0,1-.667-.2A1.341,1.341,0,0,1,8.27-.678,2.224,2.224,0,0,1,8.1-1.583a2.193,2.193,0,0,1,.168-.906,1.322,1.322,0,0,1,.456-.567,1.159,1.159,0,0,1,.667-.2,1.147,1.147,0,0,1,.66.2,1.322,1.322,0,0,1,.456.567,2.193,2.193,0,0,1,.168.906,2.224,2.224,0,0,1-.168.906,1.341,1.341,0,0,1-.456.578A1.132,1.132,0,0,1,9.393.1Zm0-.6a.452.452,0,0,0,.385-.253,1.647,1.647,0,0,0,.157-.831,1.6,1.6,0,0,0-.157-.831.455.455,0,0,0-.385-.239A.46.46,0,0,0,9-2.414a1.6,1.6,0,0,0-.157.831A1.647,1.647,0,0,0,9-.752.457.457,0,0,0,9.393-.5Z" transform="translate(2396.407 4280.352)" fill="#333"/>
      <path id="パス_754" data-name="パス 754" d="M-8.8.1a2.2,2.2,0,0,1-.906-.178,1.526,1.526,0,0,1-.631-.5,1.223,1.223,0,0,1-.232-.735,1.187,1.187,0,0,1,.128-.563A1.568,1.568,0,0,1-10.11-2.3a2.155,2.155,0,0,1,.446-.314v-.029a2.019,2.019,0,0,1-.5-.506,1.2,1.2,0,0,1-.2-.692,1.313,1.313,0,0,1,.207-.745,1.373,1.373,0,0,1,.567-.481,1.88,1.88,0,0,1,.817-.171,1.768,1.768,0,0,1,.813.175,1.289,1.289,0,0,1,.531.489,1.4,1.4,0,0,1,.189.735,1.166,1.166,0,0,1-.1.471,1.407,1.407,0,0,1-.253.392,2.07,2.07,0,0,1-.328.292v.036a2.588,2.588,0,0,1,.446.314,1.343,1.343,0,0,1,.325.428,1.36,1.36,0,0,1,.121.6,1.227,1.227,0,0,1-.225.72,1.525,1.525,0,0,1-.624.506A2.181,2.181,0,0,1-8.8.1Zm.328-3.038a1.588,1.588,0,0,0,.282-.407,1.019,1.019,0,0,0,.1-.435.84.84,0,0,0-.082-.374.582.582,0,0,0-.239-.257A.754.754,0,0,0-8.794-4.5a.656.656,0,0,0-.456.168.625.625,0,0,0-.185.489.6.6,0,0,0,.128.392,1.185,1.185,0,0,0,.346.278A4.956,4.956,0,0,0-8.473-2.938Zm-.307,2.3a.938.938,0,0,0,.4-.082A.633.633,0,0,0-8.1-.966.708.708,0,0,0-8-1.348a.6.6,0,0,0-.089-.335.886.886,0,0,0-.246-.242,2.428,2.428,0,0,0-.371-.2q-.214-.1-.471-.2a1.375,1.375,0,0,0-.349.392.973.973,0,0,0-.136.506.717.717,0,0,0,.118.41.812.812,0,0,0,.317.275A.991.991,0,0,0-8.779-.642ZM-4.593.1a1.5,1.5,0,0,1-.945-.31,1.973,1.973,0,0,1-.624-.909,4.268,4.268,0,0,1-.221-1.469,4.2,4.2,0,0,1,.221-1.466,1.9,1.9,0,0,1,.624-.888,1.54,1.54,0,0,1,.945-.3,1.54,1.54,0,0,1,.945.3,1.9,1.9,0,0,1,.624.888A4.2,4.2,0,0,1-2.8-2.589,4.268,4.268,0,0,1-3.024-1.12a1.973,1.973,0,0,1-.624.909A1.5,1.5,0,0,1-4.593.1Zm0-.82a.586.586,0,0,0,.414-.168A1.167,1.167,0,0,0-3.9-1.466a4.966,4.966,0,0,0,.1-1.123,4.86,4.86,0,0,0-.1-1.12,1.083,1.083,0,0,0-.278-.556.607.607,0,0,0-.414-.157.6.6,0,0,0-.4.157,1.1,1.1,0,0,0-.289.556,4.547,4.547,0,0,0-.107,1.12,4.646,4.646,0,0,0,.107,1.123A1.188,1.188,0,0,0-5-.888.581.581,0,0,0-4.593-.72ZM-1.327.1A.614.614,0,0,1-1.8-.1a.687.687,0,0,1-.185-.485A.68.68,0,0,1-1.8-1.077a.625.625,0,0,1,.471-.193.617.617,0,0,1,.464.193.68.68,0,0,1,.185.492A.687.687,0,0,1-.863-.1.606.606,0,0,1-1.327.1ZM2.232,0V-3.1q0-.235.014-.556t.029-.556H2.239q-.093.207-.2.414t-.221.421L1-2.083H3.837v.806H-.021V-2L1.947-5.142H3.209V0ZM5.549-2.033a1.148,1.148,0,0,1-.663-.2,1.307,1.307,0,0,1-.456-.578,2.267,2.267,0,0,1-.164-.906,2.215,2.215,0,0,1,.164-.9,1.288,1.288,0,0,1,.456-.567,1.163,1.163,0,0,1,.663-.2,1.171,1.171,0,0,1,.674.2,1.3,1.3,0,0,1,.453.567,2.215,2.215,0,0,1,.164.9,2.267,2.267,0,0,1-.164.906,1.318,1.318,0,0,1-.453.578A1.156,1.156,0,0,1,5.549-2.033Zm0-.592a.46.46,0,0,0,.389-.253,1.634,1.634,0,0,0,.16-.838,1.574,1.574,0,0,0-.16-.824.461.461,0,0,0-.389-.246.461.461,0,0,0-.389.246A1.574,1.574,0,0,0,5-3.716a1.634,1.634,0,0,0,.16.838A.46.46,0,0,0,5.549-2.625ZM5.72.1,8.594-5.378h.62L6.347.1ZM9.393.1a1.144,1.144,0,0,1-.667-.2A1.341,1.341,0,0,1,8.27-.678,2.224,2.224,0,0,1,8.1-1.583a2.193,2.193,0,0,1,.168-.906,1.322,1.322,0,0,1,.456-.567,1.159,1.159,0,0,1,.667-.2,1.147,1.147,0,0,1,.66.2,1.322,1.322,0,0,1,.456.567,2.193,2.193,0,0,1,.168.906,2.224,2.224,0,0,1-.168.906,1.341,1.341,0,0,1-.456.578A1.132,1.132,0,0,1,9.393.1Zm0-.6a.452.452,0,0,0,.385-.253,1.647,1.647,0,0,0,.157-.831,1.6,1.6,0,0,0-.157-.831.455.455,0,0,0-.385-.239A.46.46,0,0,0,9-2.414a1.6,1.6,0,0,0-.157.831A1.647,1.647,0,0,0,9-.752.457.457,0,0,0,9.393-.5Z" transform="translate(2224.777 4187.464)" fill="#333"/>
      <path id="パス_753" data-name="パス 753" d="M-9.578,0a11.853,11.853,0,0,1,.125-1.223A7.112,7.112,0,0,1-9.2-2.282a6.486,6.486,0,0,1,.41-.984,7.859,7.859,0,0,1,.62-1h-2.375v-.877h3.509V-4.5a7.484,7.484,0,0,0-.727,1.041,4.736,4.736,0,0,0-.428,1.006,6.883,6.883,0,0,0-.221,1.109q-.071.6-.107,1.344ZM-5.37,0a11.852,11.852,0,0,1,.125-1.223A7.112,7.112,0,0,1-5-2.282a6.486,6.486,0,0,1,.41-.984,7.859,7.859,0,0,1,.62-1H-6.34v-.877h3.509V-4.5a7.484,7.484,0,0,0-.727,1.041,4.736,4.736,0,0,0-.428,1.006,6.883,6.883,0,0,0-.221,1.109q-.071.6-.107,1.344Zm4.044.1A.614.614,0,0,1-1.8-.1a.687.687,0,0,1-.185-.485A.68.68,0,0,1-1.8-1.077a.625.625,0,0,1,.471-.193.617.617,0,0,1,.464.193.68.68,0,0,1,.185.492A.687.687,0,0,1-.863-.1.606.606,0,0,1-1.327.1ZM1.155,0A11.852,11.852,0,0,1,1.28-1.223a7.112,7.112,0,0,1,.25-1.059,6.486,6.486,0,0,1,.41-.984,7.859,7.859,0,0,1,.62-1H.185v-.877H3.694V-4.5a7.484,7.484,0,0,0-.727,1.041,4.736,4.736,0,0,0-.428,1.006,6.883,6.883,0,0,0-.221,1.109Q2.247-.749,2.211,0ZM5.549-2.033a1.148,1.148,0,0,1-.663-.2,1.307,1.307,0,0,1-.456-.578,2.267,2.267,0,0,1-.164-.906,2.215,2.215,0,0,1,.164-.9,1.288,1.288,0,0,1,.456-.567,1.163,1.163,0,0,1,.663-.2,1.171,1.171,0,0,1,.674.2,1.3,1.3,0,0,1,.453.567,2.215,2.215,0,0,1,.164.9,2.267,2.267,0,0,1-.164.906,1.318,1.318,0,0,1-.453.578A1.156,1.156,0,0,1,5.549-2.033Zm0-.592a.46.46,0,0,0,.389-.253,1.634,1.634,0,0,0,.16-.838,1.574,1.574,0,0,0-.16-.824.461.461,0,0,0-.389-.246.461.461,0,0,0-.389.246A1.574,1.574,0,0,0,5-3.716a1.634,1.634,0,0,0,.16.838A.46.46,0,0,0,5.549-2.625ZM5.72.1,8.594-5.378h.62L6.347.1ZM9.393.1a1.144,1.144,0,0,1-.667-.2A1.341,1.341,0,0,1,8.27-.678,2.224,2.224,0,0,1,8.1-1.583a2.193,2.193,0,0,1,.168-.906,1.322,1.322,0,0,1,.456-.567,1.159,1.159,0,0,1,.667-.2,1.147,1.147,0,0,1,.66.2,1.322,1.322,0,0,1,.456.567,2.193,2.193,0,0,1,.168.906,2.224,2.224,0,0,1-.168.906,1.341,1.341,0,0,1-.456.578A1.132,1.132,0,0,1,9.393.1Zm0-.6a.452.452,0,0,0,.385-.253,1.647,1.647,0,0,0,.157-.831,1.6,1.6,0,0,0-.157-.831.455.455,0,0,0-.385-.239A.46.46,0,0,0,9-2.414a1.6,1.6,0,0,0-.157.831A1.647,1.647,0,0,0,9-.752.457.457,0,0,0,9.393-.5Z" transform="translate(2278.021 4199.568)" fill="#333"/>
      <path id="パス_752" data-name="パス 752" d="M-8.658.1a1.753,1.753,0,0,1-.717-.15,1.731,1.731,0,0,1-.606-.456,2.2,2.2,0,0,1-.421-.785,3.755,3.755,0,0,1-.153-1.141A4.31,4.31,0,0,1-10.391-3.7a2.434,2.434,0,0,1,.456-.87,1.871,1.871,0,0,1,.66-.506,1.844,1.844,0,0,1,.76-.164,1.884,1.884,0,0,1,.845.178,2.148,2.148,0,0,1,.6.421l-.563.628a1.09,1.09,0,0,0-.357-.264,1.036,1.036,0,0,0-.456-.107.981.981,0,0,0-.574.182,1.214,1.214,0,0,0-.414.606,3.545,3.545,0,0,0-.153,1.166,3.456,3.456,0,0,0,.121,1.016,1.151,1.151,0,0,0,.328.553.709.709,0,0,0,.464.171.668.668,0,0,0,.364-.1.709.709,0,0,0,.26-.307,1.171,1.171,0,0,0,.1-.5,1.088,1.088,0,0,0-.093-.485.584.584,0,0,0-.264-.271.882.882,0,0,0-.4-.086.9.9,0,0,0-.446.132,1.311,1.311,0,0,0-.439.467l-.043-.713A1.669,1.669,0,0,1-9.3-2.9a1.567,1.567,0,0,1,.4-.218A1.136,1.136,0,0,1-8.516-3.2a1.731,1.731,0,0,1,.785.171,1.244,1.244,0,0,1,.538.524,1.828,1.828,0,0,1,.2.9,1.725,1.725,0,0,1-.228.9,1.617,1.617,0,0,1-.6.592A1.667,1.667,0,0,1-8.658.1ZM-4.45.1a1.753,1.753,0,0,1-.717-.15,1.731,1.731,0,0,1-.606-.456,2.2,2.2,0,0,1-.421-.785,3.755,3.755,0,0,1-.153-1.141A4.31,4.31,0,0,1-6.183-3.7a2.434,2.434,0,0,1,.456-.87,1.871,1.871,0,0,1,.66-.506,1.844,1.844,0,0,1,.76-.164,1.884,1.884,0,0,1,.845.178,2.148,2.148,0,0,1,.6.421l-.563.628a1.09,1.09,0,0,0-.357-.264,1.036,1.036,0,0,0-.456-.107.981.981,0,0,0-.574.182,1.214,1.214,0,0,0-.414.606,3.545,3.545,0,0,0-.153,1.166,3.456,3.456,0,0,0,.121,1.016,1.151,1.151,0,0,0,.328.553.709.709,0,0,0,.464.171.668.668,0,0,0,.364-.1.709.709,0,0,0,.26-.307,1.171,1.171,0,0,0,.1-.5,1.088,1.088,0,0,0-.093-.485.584.584,0,0,0-.264-.271.882.882,0,0,0-.4-.086.9.9,0,0,0-.446.132,1.311,1.311,0,0,0-.439.467l-.043-.713A1.669,1.669,0,0,1-5.092-2.9a1.567,1.567,0,0,1,.4-.218A1.136,1.136,0,0,1-4.308-3.2a1.731,1.731,0,0,1,.785.171,1.244,1.244,0,0,1,.538.524,1.828,1.828,0,0,1,.2.9,1.725,1.725,0,0,1-.228.9,1.617,1.617,0,0,1-.6.592A1.667,1.667,0,0,1-4.45.1Zm3.124,0A.614.614,0,0,1-1.8-.1a.687.687,0,0,1-.185-.485A.68.68,0,0,1-1.8-1.077a.625.625,0,0,1,.471-.193.617.617,0,0,1,.464.193.68.68,0,0,1,.185.492A.687.687,0,0,1-.863-.1.606.606,0,0,1-1.327.1ZM2.232,0V-3.1q0-.235.014-.556t.029-.556H2.239q-.093.207-.2.414t-.221.421L1-2.083H3.837v.806H-.021V-2L1.947-5.142H3.209V0ZM5.549-2.033a1.148,1.148,0,0,1-.663-.2,1.307,1.307,0,0,1-.456-.578,2.267,2.267,0,0,1-.164-.906,2.215,2.215,0,0,1,.164-.9,1.288,1.288,0,0,1,.456-.567,1.163,1.163,0,0,1,.663-.2,1.171,1.171,0,0,1,.674.2,1.3,1.3,0,0,1,.453.567,2.215,2.215,0,0,1,.164.9,2.267,2.267,0,0,1-.164.906,1.318,1.318,0,0,1-.453.578A1.156,1.156,0,0,1,5.549-2.033Zm0-.592a.46.46,0,0,0,.389-.253,1.634,1.634,0,0,0,.16-.838,1.574,1.574,0,0,0-.16-.824.461.461,0,0,0-.389-.246.461.461,0,0,0-.389.246A1.574,1.574,0,0,0,5-3.716a1.634,1.634,0,0,0,.16.838A.46.46,0,0,0,5.549-2.625ZM5.72.1,8.594-5.378h.62L6.347.1ZM9.393.1a1.144,1.144,0,0,1-.667-.2A1.341,1.341,0,0,1,8.27-.678,2.224,2.224,0,0,1,8.1-1.583a2.193,2.193,0,0,1,.168-.906,1.322,1.322,0,0,1,.456-.567,1.159,1.159,0,0,1,.667-.2,1.147,1.147,0,0,1,.66.2,1.322,1.322,0,0,1,.456.567,2.193,2.193,0,0,1,.168.906,2.224,2.224,0,0,1-.168.906,1.341,1.341,0,0,1-.456.578A1.132,1.132,0,0,1,9.393.1Zm0-.6a.452.452,0,0,0,.385-.253,1.647,1.647,0,0,0,.157-.831,1.6,1.6,0,0,0-.157-.831.455.455,0,0,0-.385-.239A.46.46,0,0,0,9-2.414a1.6,1.6,0,0,0-.157.831A1.647,1.647,0,0,0,9-.752.457.457,0,0,0,9.393-.5Z" transform="translate(2330.877 4207.982)" fill="#333"/>
      <path id="パス_751" data-name="パス 751" d="M-9.1.1a1.861,1.861,0,0,1-.842-.178A2.163,2.163,0,0,1-10.534-.5l.556-.635a1.035,1.035,0,0,0,.36.271,1.044,1.044,0,0,0,.453.107.992.992,0,0,0,.581-.182,1.215,1.215,0,0,0,.414-.61A3.551,3.551,0,0,0-8.016-2.71a3.393,3.393,0,0,0-.125-1.023,1.148,1.148,0,0,0-.332-.549.727.727,0,0,0-.471-.168.673.673,0,0,0-.357.1.686.686,0,0,0-.26.3,1.19,1.19,0,0,0-.1.51,1.074,1.074,0,0,0,.093.474.6.6,0,0,0,.264.278.853.853,0,0,0,.4.089.9.9,0,0,0,.449-.136,1.239,1.239,0,0,0,.428-.464l.05.706a1.349,1.349,0,0,1-.335.342,1.827,1.827,0,0,1-.4.221,1.079,1.079,0,0,1-.389.078,1.7,1.7,0,0,1-.785-.175,1.271,1.271,0,0,1-.538-.524,1.807,1.807,0,0,1-.2-.891,1.739,1.739,0,0,1,.228-.909,1.582,1.582,0,0,1,.606-.588,1.7,1.7,0,0,1,.827-.207,1.753,1.753,0,0,1,.717.15,1.731,1.731,0,0,1,.606.456,2.2,2.2,0,0,1,.421.785A3.755,3.755,0,0,1-7.061-2.71a4.318,4.318,0,0,1-.164,1.266,2.431,2.431,0,0,1-.456.874,1.871,1.871,0,0,1-.66.506A1.844,1.844,0,0,1-9.1.1ZM-6.112,0V-.856h1.141V-4.044h-.963V-4.7a4.5,4.5,0,0,0,.688-.185,3.212,3.212,0,0,0,.538-.257h.777V-.856h.991V0Zm4.786.1A.614.614,0,0,1-1.8-.1a.687.687,0,0,1-.185-.485A.68.68,0,0,1-1.8-1.077a.625.625,0,0,1,.471-.193.617.617,0,0,1,.464.193.68.68,0,0,1,.185.492A.687.687,0,0,1-.863-.1.606.606,0,0,1-1.327.1Zm2.96,0A1.861,1.861,0,0,1,.792-.078,2.163,2.163,0,0,1,.2-.5l.556-.635a1.035,1.035,0,0,0,.36.271,1.044,1.044,0,0,0,.453.107A.992.992,0,0,0,2.15-.938a1.215,1.215,0,0,0,.414-.61A3.551,3.551,0,0,0,2.717-2.71a3.392,3.392,0,0,0-.125-1.023,1.148,1.148,0,0,0-.332-.549A.727.727,0,0,0,1.79-4.45a.673.673,0,0,0-.357.1.686.686,0,0,0-.26.3,1.19,1.19,0,0,0-.1.51,1.074,1.074,0,0,0,.093.474.6.6,0,0,0,.264.278.853.853,0,0,0,.4.089.9.9,0,0,0,.449-.136,1.239,1.239,0,0,0,.428-.464l.05.706a1.349,1.349,0,0,1-.335.342,1.827,1.827,0,0,1-.4.221,1.079,1.079,0,0,1-.389.078,1.7,1.7,0,0,1-.785-.175A1.271,1.271,0,0,1,.31-2.646a1.807,1.807,0,0,1-.2-.891,1.739,1.739,0,0,1,.228-.909,1.582,1.582,0,0,1,.606-.588,1.7,1.7,0,0,1,.827-.207,1.753,1.753,0,0,1,.717.15,1.731,1.731,0,0,1,.606.456,2.2,2.2,0,0,1,.421.785A3.755,3.755,0,0,1,3.673-2.71a4.318,4.318,0,0,1-.164,1.266,2.431,2.431,0,0,1-.456.874,1.871,1.871,0,0,1-.66.506A1.844,1.844,0,0,1,1.633.1ZM5.549-2.033a1.148,1.148,0,0,1-.663-.2,1.307,1.307,0,0,1-.456-.578,2.267,2.267,0,0,1-.164-.906,2.215,2.215,0,0,1,.164-.9,1.288,1.288,0,0,1,.456-.567,1.163,1.163,0,0,1,.663-.2,1.171,1.171,0,0,1,.674.2,1.3,1.3,0,0,1,.453.567,2.215,2.215,0,0,1,.164.9,2.267,2.267,0,0,1-.164.906,1.318,1.318,0,0,1-.453.578A1.156,1.156,0,0,1,5.549-2.033Zm0-.592a.46.46,0,0,0,.389-.253,1.634,1.634,0,0,0,.16-.838,1.574,1.574,0,0,0-.16-.824.461.461,0,0,0-.389-.246.461.461,0,0,0-.389.246A1.574,1.574,0,0,0,5-3.716a1.634,1.634,0,0,0,.16.838A.46.46,0,0,0,5.549-2.625ZM5.72.1,8.594-5.378h.62L6.347.1ZM9.393.1a1.144,1.144,0,0,1-.667-.2A1.341,1.341,0,0,1,8.27-.678,2.224,2.224,0,0,1,8.1-1.583a2.193,2.193,0,0,1,.168-.906,1.322,1.322,0,0,1,.456-.567,1.159,1.159,0,0,1,.667-.2,1.147,1.147,0,0,1,.66.2,1.322,1.322,0,0,1,.456.567,2.193,2.193,0,0,1,.168.906,2.224,2.224,0,0,1-.168.906,1.341,1.341,0,0,1-.456.578A1.132,1.132,0,0,1,9.393.1Zm0-.6a.452.452,0,0,0,.385-.253,1.647,1.647,0,0,0,.157-.831,1.6,1.6,0,0,0-.157-.831.455.455,0,0,0-.385-.239A.46.46,0,0,0,9-2.414a1.6,1.6,0,0,0-.157.831A1.647,1.647,0,0,0,9-.752.457.457,0,0,0,9.393-.5Z" transform="translate(2383.926 4176.555)" fill="#333"/>
      <path id="パス_750" data-name="パス 750" d="M0,.1A1.5,1.5,0,0,1-.945-.21a1.973,1.973,0,0,1-.624-.909A4.268,4.268,0,0,1-1.79-2.589a4.2,4.2,0,0,1,.221-1.466,1.9,1.9,0,0,1,.624-.888A1.54,1.54,0,0,1,0-5.242a1.54,1.54,0,0,1,.945.3,1.9,1.9,0,0,1,.624.888A4.2,4.2,0,0,1,1.79-2.589,4.268,4.268,0,0,1,1.569-1.12,1.973,1.973,0,0,1,.945-.21,1.5,1.5,0,0,1,0,.1ZM0-.72A.586.586,0,0,0,.414-.888a1.167,1.167,0,0,0,.278-.578,4.966,4.966,0,0,0,.1-1.123,4.86,4.86,0,0,0-.1-1.12,1.083,1.083,0,0,0-.278-.556A.607.607,0,0,0,0-4.422a.6.6,0,0,0-.4.157,1.1,1.1,0,0,0-.289.556A4.547,4.547,0,0,0-.8-2.589,4.646,4.646,0,0,0-.692-1.466,1.188,1.188,0,0,0-.4-.888.581.581,0,0,0,0-.72Z" transform="translate(2135.009 4306.737)" fill="#333"/>
      <path id="パス_749" data-name="パス 749" d="M-3.9,0V-.606q.685-.656,1.2-1.187a6.7,6.7,0,0,0,.8-.97,1.521,1.521,0,0,0,.285-.817,1,1,0,0,0-.093-.449.661.661,0,0,0-.267-.285.858.858,0,0,0-.431-.1.907.907,0,0,0-.524.164,2.651,2.651,0,0,0-.439.378l-.585-.571a2.928,2.928,0,0,1,.76-.6,1.968,1.968,0,0,1,.924-.2,1.83,1.83,0,0,1,.874.2,1.434,1.434,0,0,1,.581.56,1.668,1.668,0,0,1,.207.845,1.925,1.925,0,0,1-.246.906,5.3,5.3,0,0,1-.649.938q-.4.474-.881.974.2-.029.442-.046t.428-.018H-.364V0ZM2.1.1a1.5,1.5,0,0,1-.945-.31A1.973,1.973,0,0,1,.535-1.12,4.268,4.268,0,0,1,.314-2.589,4.2,4.2,0,0,1,.535-4.055a1.9,1.9,0,0,1,.624-.888,1.54,1.54,0,0,1,.945-.3,1.54,1.54,0,0,1,.945.3,1.9,1.9,0,0,1,.624.888,4.2,4.2,0,0,1,.221,1.466A4.268,4.268,0,0,1,3.673-1.12a1.973,1.973,0,0,1-.624.909A1.5,1.5,0,0,1,2.1.1Zm0-.82a.586.586,0,0,0,.414-.168A1.167,1.167,0,0,0,2.8-1.466a4.966,4.966,0,0,0,.1-1.123,4.86,4.86,0,0,0-.1-1.12,1.083,1.083,0,0,0-.278-.556A.607.607,0,0,0,2.1-4.422a.6.6,0,0,0-.4.157,1.1,1.1,0,0,0-.289.556,4.547,4.547,0,0,0-.107,1.12,4.646,4.646,0,0,0,.107,1.123A1.188,1.188,0,0,0,1.7-.888.581.581,0,0,0,2.1-.72Z" transform="translate(2135.354 4279.542)" fill="#333"/>
      <path id="パス_748" data-name="パス 748" d="M-1.8,0V-3.1q0-.235.014-.556t.029-.556H-1.8q-.093.207-.2.414t-.221.421l-.82,1.3H-.2v.806H-4.058V-2L-2.09-5.142H-.827V0ZM2.1.1a1.5,1.5,0,0,1-.945-.31A1.973,1.973,0,0,1,.535-1.12,4.268,4.268,0,0,1,.314-2.589,4.2,4.2,0,0,1,.535-4.055a1.9,1.9,0,0,1,.624-.888,1.54,1.54,0,0,1,.945-.3,1.54,1.54,0,0,1,.945.3,1.9,1.9,0,0,1,.624.888,4.2,4.2,0,0,1,.221,1.466A4.268,4.268,0,0,1,3.673-1.12a1.973,1.973,0,0,1-.624.909A1.5,1.5,0,0,1,2.1.1Zm0-.82a.586.586,0,0,0,.414-.168A1.167,1.167,0,0,0,2.8-1.466a4.966,4.966,0,0,0,.1-1.123,4.86,4.86,0,0,0-.1-1.12,1.083,1.083,0,0,0-.278-.556A.607.607,0,0,0,2.1-4.422a.6.6,0,0,0-.4.157,1.1,1.1,0,0,0-.289.556,4.547,4.547,0,0,0-.107,1.12,4.646,4.646,0,0,0,.107,1.123A1.188,1.188,0,0,0,1.7-.888.581.581,0,0,0,2.1-.72Z" transform="translate(2135.354 4252.349)" fill="#333"/>
      <path id="パス_747" data-name="パス 747" d="M-1.961.1a1.753,1.753,0,0,1-.717-.15,1.731,1.731,0,0,1-.606-.456,2.2,2.2,0,0,1-.421-.785,3.755,3.755,0,0,1-.153-1.141A4.31,4.31,0,0,1-3.694-3.7a2.434,2.434,0,0,1,.456-.87,1.871,1.871,0,0,1,.66-.506,1.844,1.844,0,0,1,.76-.164,1.884,1.884,0,0,1,.845.178,2.148,2.148,0,0,1,.6.421l-.563.628A1.09,1.09,0,0,0-1.3-4.279a1.036,1.036,0,0,0-.456-.107.981.981,0,0,0-.574.182,1.214,1.214,0,0,0-.414.606A3.545,3.545,0,0,0-2.9-2.432a3.456,3.456,0,0,0,.121,1.016,1.151,1.151,0,0,0,.328.553.709.709,0,0,0,.464.171.668.668,0,0,0,.364-.1.709.709,0,0,0,.26-.307,1.171,1.171,0,0,0,.1-.5,1.088,1.088,0,0,0-.093-.485.584.584,0,0,0-.264-.271.882.882,0,0,0-.4-.086.9.9,0,0,0-.446.132,1.311,1.311,0,0,0-.439.467l-.043-.713A1.669,1.669,0,0,1-2.6-2.9a1.567,1.567,0,0,1,.4-.218A1.136,1.136,0,0,1-1.819-3.2a1.731,1.731,0,0,1,.785.171A1.244,1.244,0,0,1-.5-2.5a1.828,1.828,0,0,1,.2.9,1.725,1.725,0,0,1-.228.9,1.617,1.617,0,0,1-.6.592A1.667,1.667,0,0,1-1.961.1ZM2.1.1a1.5,1.5,0,0,1-.945-.31A1.973,1.973,0,0,1,.535-1.12,4.268,4.268,0,0,1,.314-2.589,4.2,4.2,0,0,1,.535-4.055a1.9,1.9,0,0,1,.624-.888,1.54,1.54,0,0,1,.945-.3,1.54,1.54,0,0,1,.945.3,1.9,1.9,0,0,1,.624.888,4.2,4.2,0,0,1,.221,1.466A4.268,4.268,0,0,1,3.673-1.12a1.973,1.973,0,0,1-.624.909A1.5,1.5,0,0,1,2.1.1Zm0-.82a.586.586,0,0,0,.414-.168A1.167,1.167,0,0,0,2.8-1.466a4.966,4.966,0,0,0,.1-1.123,4.86,4.86,0,0,0-.1-1.12,1.083,1.083,0,0,0-.278-.556A.607.607,0,0,0,2.1-4.422a.6.6,0,0,0-.4.157,1.1,1.1,0,0,0-.289.556,4.547,4.547,0,0,0-.107,1.12,4.646,4.646,0,0,0,.107,1.123A1.188,1.188,0,0,0,1.7-.888.581.581,0,0,0,2.1-.72Z" transform="translate(2135.354 4225.155)" fill="#333"/>
      <path id="パス_746" data-name="パス 746" d="M-2.1.1A2.2,2.2,0,0,1-3.01-.078a1.526,1.526,0,0,1-.631-.5,1.223,1.223,0,0,1-.232-.735,1.187,1.187,0,0,1,.128-.563A1.568,1.568,0,0,1-3.413-2.3a2.155,2.155,0,0,1,.446-.314v-.029a2.019,2.019,0,0,1-.5-.506,1.2,1.2,0,0,1-.2-.692,1.313,1.313,0,0,1,.207-.745,1.373,1.373,0,0,1,.567-.481,1.88,1.88,0,0,1,.817-.171,1.768,1.768,0,0,1,.813.175,1.289,1.289,0,0,1,.531.489,1.4,1.4,0,0,1,.189.735,1.166,1.166,0,0,1-.1.471,1.407,1.407,0,0,1-.253.392,2.07,2.07,0,0,1-.328.292v.036a2.588,2.588,0,0,1,.446.314,1.343,1.343,0,0,1,.325.428,1.36,1.36,0,0,1,.121.6,1.227,1.227,0,0,1-.225.72,1.525,1.525,0,0,1-.624.506A2.181,2.181,0,0,1-2.1.1Zm.328-3.038a1.588,1.588,0,0,0,.282-.407,1.019,1.019,0,0,0,.1-.435.84.84,0,0,0-.082-.374.582.582,0,0,0-.239-.257A.754.754,0,0,0-2.1-4.5a.656.656,0,0,0-.456.168.625.625,0,0,0-.185.489.6.6,0,0,0,.128.392,1.185,1.185,0,0,0,.346.278A4.956,4.956,0,0,0-1.776-2.938Zm-.307,2.3a.938.938,0,0,0,.4-.082A.633.633,0,0,0-1.4-.966a.708.708,0,0,0,.1-.382.6.6,0,0,0-.089-.335.886.886,0,0,0-.246-.242,2.428,2.428,0,0,0-.371-.2q-.214-.1-.471-.2a1.375,1.375,0,0,0-.349.392.973.973,0,0,0-.136.506.717.717,0,0,0,.118.41.812.812,0,0,0,.317.275A.991.991,0,0,0-2.083-.642ZM2.1.1a1.5,1.5,0,0,1-.945-.31A1.973,1.973,0,0,1,.535-1.12,4.268,4.268,0,0,1,.314-2.589,4.2,4.2,0,0,1,.535-4.055a1.9,1.9,0,0,1,.624-.888,1.54,1.54,0,0,1,.945-.3,1.54,1.54,0,0,1,.945.3,1.9,1.9,0,0,1,.624.888,4.2,4.2,0,0,1,.221,1.466A4.268,4.268,0,0,1,3.673-1.12a1.973,1.973,0,0,1-.624.909A1.5,1.5,0,0,1,2.1.1Zm0-.82a.586.586,0,0,0,.414-.168A1.167,1.167,0,0,0,2.8-1.466a4.966,4.966,0,0,0,.1-1.123,4.86,4.86,0,0,0-.1-1.12,1.083,1.083,0,0,0-.278-.556A.607.607,0,0,0,2.1-4.422a.6.6,0,0,0-.4.157,1.1,1.1,0,0,0-.289.556,4.547,4.547,0,0,0-.107,1.12,4.646,4.646,0,0,0,.107,1.123A1.188,1.188,0,0,0,1.7-.888.581.581,0,0,0,2.1-.72Z" transform="translate(2135.354 4197.96)" fill="#333"/>
      <path id="パス_745" data-name="パス 745" d="M-3.563,1.153a6.177,6.177,0,0,1-.63-1.381A5.222,5.222,0,0,1-4.419-1.8a5.243,5.243,0,0,1,.225-1.575,6.177,6.177,0,0,1,.63-1.381l.519.223A5.015,5.015,0,0,0-3.572-3.2,6,6,0,0,0-3.74-1.8a6,6,0,0,0,.168,1.4A4.928,4.928,0,0,0-3.044.93Zm2.025-2.779a.919.919,0,0,1-.531-.16,1.046,1.046,0,0,1-.365-.462,1.813,1.813,0,0,1-.131-.725,1.772,1.772,0,0,1,.131-.719,1.031,1.031,0,0,1,.365-.454A.931.931,0,0,1-1.538-4.3.937.937,0,0,1-1-4.145a1.039,1.039,0,0,1,.362.454A1.772,1.772,0,0,1-.5-2.973a1.813,1.813,0,0,1-.131.725A1.054,1.054,0,0,1-1-1.786.925.925,0,0,1-1.538-1.626Zm0-.474a.368.368,0,0,0,.311-.2,1.307,1.307,0,0,0,.128-.67,1.259,1.259,0,0,0-.128-.659.369.369,0,0,0-.311-.2.369.369,0,0,0-.311.2,1.259,1.259,0,0,0-.128.659,1.307,1.307,0,0,0,.128.67A.368.368,0,0,0-1.538-2.1ZM-1.4.08.9-4.3h.5L-.9.08Zm2.938,0A.915.915,0,0,1,1-.08,1.073,1.073,0,0,1,.639-.542,1.779,1.779,0,0,1,.5-1.267a1.754,1.754,0,0,1,.134-.725A1.057,1.057,0,0,1,1-2.445.927.927,0,0,1,1.538-2.6a.917.917,0,0,1,.528.157,1.057,1.057,0,0,1,.365.454,1.755,1.755,0,0,1,.134.725,1.779,1.779,0,0,1-.134.725,1.073,1.073,0,0,1-.365.462A.906.906,0,0,1,1.538.08Zm0-.479a.362.362,0,0,0,.308-.2,1.317,1.317,0,0,0,.126-.665,1.279,1.279,0,0,0-.126-.665.364.364,0,0,0-.308-.191.368.368,0,0,0-.314.191,1.279,1.279,0,0,0-.126.665A1.317,1.317,0,0,0,1.224-.6.365.365,0,0,0,1.538-.4ZM3.563,1.153,3.044.93A4.928,4.928,0,0,0,3.572-.394,6,6,0,0,0,3.74-1.8a6,6,0,0,0-.168-1.4A5.015,5.015,0,0,0,3.044-4.53l.519-.223a6.177,6.177,0,0,1,.63,1.381A5.243,5.243,0,0,1,4.419-1.8,5.222,5.222,0,0,1,4.194-.228,6.177,6.177,0,0,1,3.563,1.153Z" transform="translate(2135.961 4161.469)" fill="#333"/>
      <path id="パス_239" data-name="パス 239" d="M2419.064,4307.094H2146.759a.357.357,0,0,1-.357-.356v-141.81a.357.357,0,0,1,.713,0v141.454h271.948a.356.356,0,1,1,0,.713Z" fill="#333"/>
      <rect id="長方形_141" data-name="長方形 141" width="8.634" height="8.634" transform="translate(2304.533 4152.834)" fill="#fff766"/>
      <path id="パス_744" data-name="パス 744" d="M5.948-4.835q-.043.064-.125.2a1.523,1.523,0,0,0-.125.25q-.15.335-.367.749t-.492.831a8.221,8.221,0,0,1-.581.781,11.9,11.9,0,0,1-.881.888,9.65,9.65,0,0,1-1.013.806A7.765,7.765,0,0,1,1.277.3L.542-.471a6.635,6.635,0,0,0,1.12-.556,8.363,8.363,0,0,0,1.006-.727,8.324,8.324,0,0,0,.8-.763A6.412,6.412,0,0,0,3.912-3.1a6.8,6.8,0,0,0,.374-.61,3.092,3.092,0,0,0,.242-.56H2.111q-.15,0-.314.011l-.31.021-.225.018V-5.228q.107.007.264.021t.317.021q.16.007.267.007H4.629a3.009,3.009,0,0,0,.431-.029,1.853,1.853,0,0,0,.3-.064Zm-1.6,2.218q.278.221.592.514t.62.606q.307.314.567.6t.439.5L5.756.314q-.264-.364-.6-.756T4.44-1.223q-.374-.389-.76-.738ZM8.566-5.47a3.631,3.631,0,0,0,.385.039q.207.011.378.011H12.2q.185,0,.385-.011t.385-.039v.92q-.185-.014-.385-.021T12.2-4.579H9.336q-.185,0-.4.007t-.374.021ZM7.738-3.644l.339.029q.182.014.346.014h4.671q.114,0,.31-.011t.339-.032v.927q-.128-.014-.314-.018t-.335,0H8.423q-.157,0-.346.007t-.339.021Zm3.652.492A5.867,5.867,0,0,1,11.269-1.9a4.054,4.054,0,0,1-.349.995,2.931,2.931,0,0,1-.342.5,3.658,3.658,0,0,1-.492.485,3.061,3.061,0,0,1-.6.385L8.651-.143a2.861,2.861,0,0,0,.727-.428,2.731,2.731,0,0,0,.563-.592,2.472,2.472,0,0,0,.364-.913,5.859,5.859,0,0,0,.093-1.07Zm3.53-.15.328.018q.2.011.417.018t.4.007H19.9q.25,0,.471-.018t.364-.025v1.12L20.369-2.2q-.242-.014-.471-.014h-3.83q-.307,0-.628.011t-.521.025ZM26.46-5.477q.1.15.218.346t.232.392q.114.2.2.367l-.62.264q-.107-.228-.2-.41t-.2-.357q-.1-.175-.232-.353Zm.977-.342a2.96,2.96,0,0,1,.235.328q.121.193.235.385t.2.349l-.606.271q-.114-.221-.218-.4t-.21-.342q-.107-.164-.242-.342Zm-4.079.207q.178.093.4.228t.449.282l.435.278q.207.132.342.232l-.528.785L24.1-4.044q-.2-.136-.428-.278T23.232-4.6q-.218-.132-.389-.232ZM22.038-.549q.4-.071.813-.178a7.994,7.994,0,0,0,.82-.26,5.958,5.958,0,0,0,.792-.367,8.017,8.017,0,0,0,1.13-.77,7.812,7.812,0,0,0,.945-.909,5.483,5.483,0,0,0,.7-.995l.549.97a7.42,7.42,0,0,1-1.223,1.4A9.423,9.423,0,0,1,24.955-.492a8.364,8.364,0,0,1-.8.382Q23.721.071,23.3.2a6.473,6.473,0,0,1-.731.185Zm.221-3.438q.178.093.407.228t.456.275q.228.139.431.271t.339.232l-.521.8-.36-.242q-.2-.136-.428-.278t-.442-.275q-.218-.132-.4-.225ZM32.472,0V-3.409q0-.235.014-.535t.029-.578h-.029q-.164.285-.31.549t-.289.485L31-2.175h3.174v.806H29.883v-.72l2.2-3.209h1.355V0Z" transform="translate(2373.785 4159.978)" fill="#333"/>
      <rect id="長方形_142" data-name="長方形 142" width="8.634" height="8.634" transform="translate(2361.974 4152.834)" fill="#ff8e66"/>
      <path id="パス_240" data-name="パス 240" d="M2165.68,4209.224h2.839l3.208,74.854,3.208-74.854h2.839c.348,0,.47-.235.27-.521l-5.954-8.516a.415.415,0,0,0-.727,0l-5.954,8.516C2165.209,4208.989,2165.331,4209.224,2165.68,4209.224Z" fill="#e61400"/>
      <g id="グループ_250" data-name="グループ 250">
        <rect id="長方形_143" data-name="長方形 143" width="35.068" height="12.284" rx="6.142" transform="translate(2154.193 4235.883)" fill="#e61400"/>
        <path id="パス_743" data-name="パス 743" d="M-12.647,0V-1.036h1.381v-4.03h-1.165V-5.86a5.215,5.215,0,0,0,.833-.211,3.059,3.059,0,0,0,.652-.324h.941v5.359h1.2V0Zm5.092,0V-1.036h1.381v-4.03H-7.34V-5.86a5.215,5.215,0,0,0,.833-.211,3.059,3.059,0,0,0,.652-.324h.941v5.359h1.2V0Zm5.791.121a.743.743,0,0,1-.57-.242.831.831,0,0,1-.224-.587.823.823,0,0,1,.224-.6.757.757,0,0,1,.57-.233A.747.747,0,0,1-1.2-1.3a.823.823,0,0,1,.224.6A.831.831,0,0,1-1.2-.121.734.734,0,0,1-1.765.121ZM0,0V-.734Q.876-1.51,1.493-2.175a6.917,6.917,0,0,0,.945-1.238,2.172,2.172,0,0,0,.328-1.066,1.24,1.24,0,0,0-.112-.544.816.816,0,0,0-.324-.358,1.01,1.01,0,0,0-.522-.125,1.114,1.114,0,0,0-.634.194,2.871,2.871,0,0,0-.531.462l-.708-.682a3.467,3.467,0,0,1,.919-.729,2.382,2.382,0,0,1,1.118-.246,2.182,2.182,0,0,1,1.057.246,1.755,1.755,0,0,1,.7.686,2.06,2.06,0,0,1,.25,1.036,2.7,2.7,0,0,1-.289,1.178,6.134,6.134,0,0,1-.772,1.2A14.314,14.314,0,0,1,1.851-.992q.25-.035.539-.056T2.9-1.07H4.285V0ZM9.73-7.327h1.053v1.338H9.73Zm-2.08.863h5.307v.932H7.65ZM8.565-.552H12V.406H8.565ZM7.34-4.229H13.13v.949H7.34Zm.984-1.182.9-.207a4.726,4.726,0,0,1,.263.652,4.371,4.371,0,0,1,.16.617l-.958.25a3.836,3.836,0,0,0-.129-.63A5.893,5.893,0,0,0,8.323-5.411ZM11.2-5.6l1.036.181q-.138.371-.276.7t-.259.583l-.906-.181q.078-.181.155-.406t.147-.453A3.652,3.652,0,0,0,11.2-5.6ZM8.047-2.649H12.6V.734H11.542V-1.709H9.057V.768H8.047ZM6.77-7.3l.975.311a14.412,14.412,0,0,1-.656,1.463,14.378,14.378,0,0,1-.82,1.4,8.222,8.222,0,0,1-.915,1.152,2.841,2.841,0,0,0-.142-.332q-.1-.2-.211-.41t-.2-.337a7.523,7.523,0,0,0,.755-.915,10.066,10.066,0,0,0,.682-1.113A8.709,8.709,0,0,0,6.77-7.3ZM5.942-4.91l.984-.984V.759H5.942Z" transform="translate(2171.727 4245.304)" fill="#fff"/>
      </g>
      <path id="パス_241" data-name="パス 241" d="M2218.73,4211.933h2.838l3.209,67.61,3.208-67.61h2.838c.349,0,.471-.235.271-.521l-5.954-8.516a.415.415,0,0,0-.727,0l-5.954,8.516C2218.259,4211.7,2218.381,4211.933,2218.73,4211.933Z" fill="#e61400"/>
      <g id="グループ_251" data-name="グループ 251">
        <rect id="長方形_144" data-name="長方形 144" width="35.068" height="12.284" rx="6.142" transform="translate(2207.243 4238.593)" fill="#e61400"/>
        <path id="パス_742" data-name="パス 742" d="M-5.255,0q.043-.828.147-1.532a9.177,9.177,0,0,1,.293-1.329,7.586,7.586,0,0,1,.5-1.23,9.177,9.177,0,0,1,.764-1.234H-6.429v-1.07h4.246v.777a8.547,8.547,0,0,0-.893,1.294,5.882,5.882,0,0,0-.518,1.26,8.786,8.786,0,0,0-.259,1.381Q-3.935-.941-3.978,0ZM3.236-7.327H4.289v1.338H3.236Zm-2.08.863H6.464v.932H1.156ZM2.071-.552H5.506V.406H2.071ZM.846-4.229H6.636v.949H.846Zm.984-1.182.9-.207a4.726,4.726,0,0,1,.263.652,4.371,4.371,0,0,1,.16.617l-.958.25a3.836,3.836,0,0,0-.129-.63A5.893,5.893,0,0,0,1.829-5.411ZM4.7-5.6l1.036.181q-.138.371-.276.7T5.2-4.134L4.3-4.315q.078-.181.155-.406T4.6-5.173A3.651,3.651,0,0,0,4.7-5.6ZM1.553-2.649H6.11V.734H5.048V-1.709H2.563V.768H1.553ZM.276-7.3l.975.311A14.412,14.412,0,0,1,.6-5.527a14.378,14.378,0,0,1-.82,1.4,8.222,8.222,0,0,1-.915,1.152,2.841,2.841,0,0,0-.142-.332q-.1-.2-.211-.41t-.2-.337a7.523,7.523,0,0,0,.755-.915A10.066,10.066,0,0,0-.255-6.084,8.709,8.709,0,0,0,.276-7.3ZM-.552-4.91l.984-.984V.759H-.552Z" transform="translate(2224.777 4248.014)" fill="#fff"/>
      </g>
      <g id="グループ_252" data-name="グループ 252">
        <rect id="長方形_145" data-name="長方形 145" width="35.068" height="12.284" rx="6.142" transform="translate(2260.292 4249.121)" fill="#e61400"/>
        <path id="パス_741" data-name="パス 741" d="M-12.647,0V-1.036h1.381v-4.03h-1.165V-5.86a5.215,5.215,0,0,0,.833-.211,3.059,3.059,0,0,0,.652-.324h.941v5.359h1.2V0Zm4.755,0V-.734Q-7.02-1.51-6.4-2.175a6.917,6.917,0,0,0,.945-1.238A2.172,2.172,0,0,0-5.13-4.479a1.24,1.24,0,0,0-.112-.544.816.816,0,0,0-.324-.358,1.01,1.01,0,0,0-.522-.125,1.114,1.114,0,0,0-.634.194,2.871,2.871,0,0,0-.531.462l-.708-.682a3.467,3.467,0,0,1,.919-.729,2.382,2.382,0,0,1,1.118-.246,2.182,2.182,0,0,1,1.057.246,1.755,1.755,0,0,1,.7.686,2.06,2.06,0,0,1,.25,1.036A2.7,2.7,0,0,1-4.2-3.361a6.134,6.134,0,0,1-.772,1.2A14.314,14.314,0,0,1-6.045-.992q.25-.035.539-.056t.513-.022h1.381V0Zm6.127.121a.743.743,0,0,1-.57-.242.831.831,0,0,1-.224-.587.823.823,0,0,1,.224-.6.757.757,0,0,1,.57-.233A.747.747,0,0,1-1.2-1.3a.823.823,0,0,1,.224.6A.831.831,0,0,1-1.2-.121.734.734,0,0,1-1.765.121Zm3.6,0A2.3,2.3,0,0,1,.8-.095,2.6,2.6,0,0,1,.082-.6l.673-.768a1.335,1.335,0,0,0,.449.328,1.309,1.309,0,0,0,.561.129,1.162,1.162,0,0,0,.526-.125,1.14,1.14,0,0,0,.436-.406,2.294,2.294,0,0,0,.293-.746A5.183,5.183,0,0,0,3.128-3.34a4.516,4.516,0,0,0-.151-1.3,1.459,1.459,0,0,0-.4-.695.858.858,0,0,0-.57-.211.774.774,0,0,0-.431.129.877.877,0,0,0-.315.388,1.6,1.6,0,0,0-.117.656,1.488,1.488,0,0,0,.112.617.8.8,0,0,0,.315.367.918.918,0,0,0,.479.121A1.106,1.106,0,0,0,2.6-3.435a1.512,1.512,0,0,0,.518-.552l.06.854a1.732,1.732,0,0,1-.4.406,2.089,2.089,0,0,1-.488.268,1.36,1.36,0,0,1-.483.095,1.974,1.974,0,0,1-.941-.22,1.563,1.563,0,0,1-.652-.664A2.376,2.376,0,0,1-.022-4.375,2.233,2.233,0,0,1,.255-5.51a1.943,1.943,0,0,1,.734-.738,2,2,0,0,1,1-.259,2.079,2.079,0,0,1,.867.186,2.081,2.081,0,0,1,.734.57,2.785,2.785,0,0,1,.509.984A4.862,4.862,0,0,1,4.285-3.34a5.383,5.383,0,0,1-.2,1.558A3.071,3.071,0,0,1,3.538-.708a2.245,2.245,0,0,1-.79.626A2.162,2.162,0,0,1,1.834.121Zm7.9-7.447h1.053v1.338H9.73Zm-2.08.863h5.307v.932H7.65ZM8.565-.552H12V.406H8.565ZM7.34-4.229H13.13v.949H7.34Zm.984-1.182.9-.207a4.726,4.726,0,0,1,.263.652,4.371,4.371,0,0,1,.16.617l-.958.25a3.836,3.836,0,0,0-.129-.63A5.893,5.893,0,0,0,8.323-5.411ZM11.2-5.6l1.036.181q-.138.371-.276.7t-.259.583l-.906-.181q.078-.181.155-.406t.147-.453A3.652,3.652,0,0,0,11.2-5.6ZM8.047-2.649H12.6V.734H11.542V-1.709H9.057V.768H8.047ZM6.77-7.3l.975.311a14.412,14.412,0,0,1-.656,1.463,14.378,14.378,0,0,1-.82,1.4,8.222,8.222,0,0,1-.915,1.152,2.841,2.841,0,0,0-.142-.332q-.1-.2-.211-.41t-.2-.337a7.523,7.523,0,0,0,.755-.915,10.066,10.066,0,0,0,.682-1.113A8.709,8.709,0,0,0,6.77-7.3ZM5.942-4.91l.984-.984V.759H5.942Z" transform="translate(2277.827 4258.542)" fill="#fff"/>
      </g>
      <path id="パス_242" data-name="パス 242" d="M2324.83,4231.883h2.838l3.208,63.681,3.209-63.681h2.838c.349,0,.471-.235.271-.521l-5.954-8.516a.415.415,0,0,0-.727,0l-5.954,8.516C2324.358,4231.648,2324.481,4231.883,2324.83,4231.883Z" fill="#e61400"/>
      <path id="パス_243" data-name="パス 243" d="M2377.88,4200.36h2.838l3.208,74.855,3.208-74.855h2.839c.349,0,.471-.234.271-.52l-5.954-8.516a.415.415,0,0,0-.727,0l-5.954,8.516C2377.408,4200.126,2377.531,4200.36,2377.88,4200.36Z" fill="#e61400"/>
      <g id="グループ_253" data-name="グループ 253">
        <rect id="長方形_146" data-name="長方形 146" width="35.068" height="12.284" rx="6.142" transform="translate(2313.343 4258.542)" fill="#e61400"/>
        <path id="パス_740" data-name="パス 740" d="M-6.679.121a2.077,2.077,0,0,1-.867-.19,2.029,2.029,0,0,1-.738-.583,2.919,2.919,0,0,1-.5-1,5.02,5.02,0,0,1-.186-1.454,5.164,5.164,0,0,1,.2-1.536A3.027,3.027,0,0,1-8.224-5.7a2.206,2.206,0,0,1,.79-.608,2.271,2.271,0,0,1,.936-.2A2.263,2.263,0,0,1-5.484-6.3a2.474,2.474,0,0,1,.712.513l-.673.759a1.424,1.424,0,0,0-.431-.328,1.174,1.174,0,0,0-.544-.138,1.184,1.184,0,0,0-.7.224,1.521,1.521,0,0,0-.5.742,4.238,4.238,0,0,0-.19,1.415,4.694,4.694,0,0,0,.151,1.325,1.561,1.561,0,0,0,.4.721.819.819,0,0,0,.561.224.75.75,0,0,0,.436-.134.945.945,0,0,0,.315-.4,1.559,1.559,0,0,0,.121-.652,1.434,1.434,0,0,0-.117-.621A.824.824,0,0,0-6.269-3a.918.918,0,0,0-.479-.121,1.115,1.115,0,0,0-.544.16,1.521,1.521,0,0,0-.526.557l-.06-.854a1.807,1.807,0,0,1,.41-.414,1.84,1.84,0,0,1,.492-.259,1.452,1.452,0,0,1,.462-.086,2.051,2.051,0,0,1,.954.216,1.511,1.511,0,0,1,.652.656,2.408,2.408,0,0,1,.233,1.13A2.262,2.262,0,0,1-4.949-.885a1.944,1.944,0,0,1-.729.742A1.972,1.972,0,0,1-6.679.121ZM-2.71,0q.043-.828.147-1.532A9.177,9.177,0,0,1-2.27-2.861a7.586,7.586,0,0,1,.5-1.23A9.177,9.177,0,0,1-1.01-5.325H-3.883v-1.07H.362v.777A8.547,8.547,0,0,0-.531-4.323a5.882,5.882,0,0,0-.518,1.26,8.786,8.786,0,0,0-.259,1.381Q-1.389-.941-1.433,0ZM5.782-7.327H6.835v1.338H5.782ZM3.7-6.464H9.009v.932H3.7ZM4.617-.552H8.052V.406H4.617ZM3.391-4.229H9.182v.949H3.391Zm.984-1.182.9-.207a4.726,4.726,0,0,1,.263.652,4.371,4.371,0,0,1,.16.617l-.958.25a3.836,3.836,0,0,0-.129-.63A5.893,5.893,0,0,0,4.375-5.411ZM7.249-5.6l1.036.181q-.138.371-.276.7t-.259.583l-.906-.181Q6.921-4.5,7-4.72t.147-.453A3.651,3.651,0,0,0,7.249-5.6ZM4.1-2.649H8.656V.734H7.594V-1.709H5.109V.768H4.1ZM2.822-7.3,3.8-6.99a14.412,14.412,0,0,1-.656,1.463,14.378,14.378,0,0,1-.82,1.4,8.222,8.222,0,0,1-.915,1.152,2.841,2.841,0,0,0-.142-.332q-.1-.2-.211-.41t-.2-.337a7.523,7.523,0,0,0,.755-.915,10.066,10.066,0,0,0,.682-1.113A8.709,8.709,0,0,0,2.822-7.3ZM1.993-4.91l.984-.984V.759H1.993Z" transform="translate(2330.877 4267.962)" fill="#fff"/>
      </g>
      <g id="グループ_254" data-name="グループ 254">
        <rect id="長方形_147" data-name="長方形 147" width="35.068" height="12.284" rx="6.142" transform="translate(2366.392 4227.019)" fill="#e61400"/>
        <path id="パス_739" data-name="パス 739" d="M-7.9,0V-3.927q0-.276.017-.66t.035-.669h-.043Q-8-5-8.133-4.738t-.268.526l-.992,1.588h3.435v.967h-4.669V-2.52l2.382-3.875h1.527V0Zm3.59.121a.743.743,0,0,1-.57-.242A.831.831,0,0,1-5.1-.708a.823.823,0,0,1,.224-.6.757.757,0,0,1,.57-.233A.747.747,0,0,1-3.75-1.3a.823.823,0,0,1,.224.6.831.831,0,0,1-.224.587A.734.734,0,0,1-4.311.121Zm3.6,0A2.3,2.3,0,0,1-1.743-.095,2.6,2.6,0,0,1-2.464-.6l.673-.768a1.335,1.335,0,0,0,.449.328,1.309,1.309,0,0,0,.561.129A1.162,1.162,0,0,0-.255-1.04a1.14,1.14,0,0,0,.436-.406,2.294,2.294,0,0,0,.293-.746A5.183,5.183,0,0,0,.583-3.34a4.516,4.516,0,0,0-.151-1.3,1.459,1.459,0,0,0-.4-.695.858.858,0,0,0-.57-.211.774.774,0,0,0-.431.129.877.877,0,0,0-.315.388,1.6,1.6,0,0,0-.117.656,1.488,1.488,0,0,0,.112.617.8.8,0,0,0,.315.367A.918.918,0,0,0-.5-3.271a1.106,1.106,0,0,0,.552-.164,1.512,1.512,0,0,0,.518-.552l.06.854a1.732,1.732,0,0,1-.4.406,2.089,2.089,0,0,1-.488.268,1.36,1.36,0,0,1-.483.095,1.974,1.974,0,0,1-.941-.22,1.563,1.563,0,0,1-.652-.664,2.376,2.376,0,0,1-.237-1.126A2.233,2.233,0,0,1-2.291-5.51a1.943,1.943,0,0,1,.734-.738,2,2,0,0,1,1-.259,2.079,2.079,0,0,1,.867.186,2.081,2.081,0,0,1,.734.57,2.785,2.785,0,0,1,.509.984A4.862,4.862,0,0,1,1.739-3.34a5.383,5.383,0,0,1-.2,1.558A3.071,3.071,0,0,1,.992-.708,2.245,2.245,0,0,1,.2-.082,2.162,2.162,0,0,1-.712.121Zm7.9-7.447H8.237v1.338H7.184ZM5.1-6.464h5.307v.932H5.1ZM6.019-.552H9.454V.406H6.019ZM4.794-4.229h5.791v.949H4.794Zm.984-1.182.9-.207a4.726,4.726,0,0,1,.263.652,4.371,4.371,0,0,1,.16.617L6.14-4.1a3.836,3.836,0,0,0-.129-.63A5.893,5.893,0,0,0,5.778-5.411ZM8.651-5.6l1.036.181q-.138.371-.276.7t-.259.583l-.906-.181Q8.323-4.5,8.4-4.72t.147-.453A3.652,3.652,0,0,0,8.651-5.6ZM5.5-2.649h4.556V.734H9V-1.709H6.511V.768H5.5ZM4.224-7.3,5.2-6.99a14.412,14.412,0,0,1-.656,1.463,14.378,14.378,0,0,1-.82,1.4,8.222,8.222,0,0,1-.915,1.152,2.841,2.841,0,0,0-.142-.332q-.1-.2-.211-.41t-.2-.337a7.523,7.523,0,0,0,.755-.915,10.066,10.066,0,0,0,.682-1.113A8.709,8.709,0,0,0,4.224-7.3ZM3.4-4.91l.984-.984V.759H3.4Z" transform="translate(2383.927 4236.44)" fill="#fff"/>
      </g>
    </g>
  </g>
</svg>
