<svg xmlns="http://www.w3.org/2000/svg" width="130" height="60" viewBox="0 0 130 60">
  <g id="グループ_869" data-name="グループ 869" transform="translate(-1878 3)">
    <path id="長方形_457" data-name="長方形 457" d="M0,0H100a30,30,0,0,1,30,30v0a30,30,0,0,1-30,30H0a0,0,0,0,1,0,0V0A0,0,0,0,1,0,0Z" transform="translate(1878 -3)" fill="#fbcd00"/>
    <g id="グループ_868" data-name="グループ 868" transform="translate(1878.064 -2.676)">
      <path id="パス_822" data-name="パス 822" d="M1.13-8.13H2.34v2.94q0,.65-.035,1.425T2.16-2.18A11.9,11.9,0,0,1,1.84-.61,6.41,6.41,0,0,1,1.29.77,1.816,1.816,0,0,0,.97.545Q.77.43.565.325A2.369,2.369,0,0,0,.2.17,5.4,5.4,0,0,0,.715-1.09,10.1,10.1,0,0,0,.99-2.49q.09-.72.115-1.415T1.13-5.19Zm.91,0H8.92v2.99H2.04V-6.22H7.71v-.83H2.04ZM2.6-3.94H4.29v1.05H2.6ZM5.27-4.98h1.2V-.37a1.894,1.894,0,0,1-.09.655A.71.71,0,0,1,6.01.66a1.886,1.886,0,0,1-.645.165Q4.99.86,4.49.86A3.728,3.728,0,0,0,4.345.305,3.746,3.746,0,0,0,4.12-.24q.3.01.585.015t.385,0a.28.28,0,0,0,.145-.04A.156.156,0,0,0,5.27-.39Zm3.07.51,1.03.73q-.35.31-.735.63t-.75.605q-.365.285-.7.5l-.78-.63q.31-.23.665-.545t.7-.655A6.6,6.6,0,0,0,8.34-4.47Zm-1.9.23a6.754,6.754,0,0,0,.74,1.47A5.657,5.657,0,0,0,8.27-1.555,4.977,4.977,0,0,0,9.68-.73a3.673,3.673,0,0,0-.285.3q-.155.18-.29.37A3.266,3.266,0,0,0,8.88.3,5.373,5.373,0,0,1,7.435-.74,6.649,6.649,0,0,1,6.34-2.21a10.354,10.354,0,0,1-.78-1.81Zm-2.49.3h.23l.19-.02.68.18A7.128,7.128,0,0,1,4.265-1.2,3.933,3.933,0,0,1,2.84.28,1.827,1.827,0,0,0,2.615.01Q2.46-.15,2.3-.3a2.266,2.266,0,0,0-.28-.23A3.24,3.24,0,0,0,3.3-1.735,5.1,5.1,0,0,0,3.95-3.77ZM16.33-6.85q-.1.76-.26,1.62a15.76,15.76,0,0,1-.43,1.74,8.938,8.938,0,0,1-.68,1.74A3.814,3.814,0,0,1,14.1-.625,1.535,1.535,0,0,1,13.09-.23a1.583,1.583,0,0,1-1.015-.375,2.561,2.561,0,0,1-.74-1.035,3.87,3.87,0,0,1-.275-1.5,3.917,3.917,0,0,1,.35-1.64,4.363,4.363,0,0,1,.975-1.365,4.623,4.623,0,0,1,1.46-.935,4.74,4.74,0,0,1,1.8-.34,4.45,4.45,0,0,1,1.675.3,3.77,3.77,0,0,1,1.275.83,3.6,3.6,0,0,1,.81,1.24,4.133,4.133,0,0,1,.28,1.53,4.027,4.027,0,0,1-.43,1.88A3.554,3.554,0,0,1,17.985-.27,5.467,5.467,0,0,1,15.88.47L15.13-.72q.29-.03.51-.07t.42-.09a3.805,3.805,0,0,0,.895-.345,2.793,2.793,0,0,0,.725-.56,2.45,2.45,0,0,0,.485-.785,2.709,2.709,0,0,0,.175-.99,3.111,3.111,0,0,0-.18-1.08,2.432,2.432,0,0,0-.53-.855,2.335,2.335,0,0,0-.85-.56,3.15,3.15,0,0,0-1.15-.2,3.3,3.3,0,0,0-1.41.285,3.3,3.3,0,0,0-1.03.735,3.227,3.227,0,0,0-.635.97,2.592,2.592,0,0,0-.215.99,2.5,2.5,0,0,0,.12.835,1.264,1.264,0,0,0,.3.5.54.54,0,0,0,.375.165.584.584,0,0,0,.415-.215,2.4,2.4,0,0,0,.4-.655,8.862,8.862,0,0,0,.4-1.11,13.658,13.658,0,0,0,.39-1.54,15.673,15.673,0,0,0,.23-1.6Zm5.377-3.928h8.857v1.666H21.707ZM21.639-4.4h8.772v1.666H21.639ZM21.333-7.65h9.333v1.717H21.333ZM21.35-.833q1.19-.085,2.712-.221t3.188-.306q1.666-.17,3.3-.323L30.564.085q-1.581.187-3.2.365t-3.1.332q-1.479.153-2.7.289Zm8.177-13.481,1.173,1.6q-.918.221-2,.391t-2.219.3q-1.139.128-2.286.213t-2.219.136a4.038,4.038,0,0,0-.178-.816,5.285,5.285,0,0,0-.3-.765q1.054-.068,2.15-.17t2.159-.229q1.063-.128,2.006-.289T29.527-14.314Zm1.564.782h4.675v1.853H32.978V1.53H31.091Zm-5.984.391H26.96V-.272l-1.853.187Zm-2.533,2.975h1.547v6.545H22.574Zm5.406,0h1.547v6.528H27.98Zm7.31-3.366h.391l.306-.068,1.479.9q-.408,1.224-.892,2.592T35.613-7.6a5.954,5.954,0,0,1,1.233,2.142,7.432,7.432,0,0,1,.3,1.836,4.923,4.923,0,0,1-.221,1.581,1.939,1.939,0,0,1-.7.986,1.8,1.8,0,0,1-.518.272,3.617,3.617,0,0,1-.638.153q-.289.034-.654.043T33.658-.6a5.4,5.4,0,0,0-.153-.986,3.58,3.58,0,0,0-.374-.986q.306.017.561.026t.459.008a1.178,1.178,0,0,0,.34-.051A1.914,1.914,0,0,0,34.8-2.7a.775.775,0,0,0,.3-.425,2.414,2.414,0,0,0,.093-.731,5.05,5.05,0,0,0-.306-1.6,5.584,5.584,0,0,0-1.224-1.9q.221-.629.459-1.385t.459-1.521q.221-.765.417-1.437t.3-1.113Zm8.653,5.525H54.806v1.836H43.943Zm.6-3.434h9.69v1.8h-9.69Zm3.587.884h2.04v2.72a7.87,7.87,0,0,1-.2,1.7,5.992,5.992,0,0,1-.714,1.76,6.688,6.688,0,0,1-1.479,1.683A10.186,10.186,0,0,1,45.3-1.224a3.777,3.777,0,0,0-.374-.493q-.238-.272-.493-.544a3.389,3.389,0,0,0-.493-.442,8.631,8.631,0,0,0,2.286-1.173,4.675,4.675,0,0,0,1.241-1.343A4.418,4.418,0,0,0,48-6.587a6.8,6.8,0,0,0,.127-1.267Zm2.346,3.842a6,6,0,0,0,1.606,2.389,6.353,6.353,0,0,0,2.78,1.4,4.759,4.759,0,0,0-.467.51q-.247.306-.459.621t-.365.586a6.729,6.729,0,0,1-3.026-1.921,9.093,9.093,0,0,1-1.785-3.213ZM43.263-7.82v6.273H41.274V-5.933H39.3V-7.82Zm0,5.389a3.09,3.09,0,0,0,1.479,1.224,6.67,6.67,0,0,0,2.278.442q.748.034,1.777.043t2.167-.008Q52.1-.748,53.2-.8t1.947-.119q-.1.238-.238.612t-.247.765a6.576,6.576,0,0,0-.161.7q-.765.051-1.751.076t-2.023.034q-1.037.009-2.006-.008t-1.734-.051A8.668,8.668,0,0,1,44.317.723a4.808,4.808,0,0,1-1.955-1.4Q41.8-.2,41.215.306T39.931,1.36l-1-2.125q.6-.357,1.241-.782t1.241-.884ZM39.319-12.818l1.513-1.224a11.242,11.242,0,0,1,1.071.79q.544.45,1.02.918a7.417,7.417,0,0,1,.765.858l-1.615,1.36A5.773,5.773,0,0,0,41.368-11q-.451-.476-.994-.96T39.319-12.818ZM51.644-14.45l2.074.646q-.459.731-.944,1.436t-.893,1.2l-1.666-.578q.255-.391.527-.859t.51-.952Q51.491-14.042,51.644-14.45ZM44.98-13.7l1.717-.714a9.813,9.813,0,0,1,.9,1.309,6.27,6.27,0,0,1,.6,1.292l-1.836.782a6.031,6.031,0,0,0-.535-1.3A11.536,11.536,0,0,0,44.98-13.7Zm12.393.391H72.2v2.091H57.373ZM65.584-7.6l1.581-1.326q.68.493,1.47,1.079T70.216-6.63Q71.007-6,71.687-5.4t1.156,1.1L71.109-2.72A13.556,13.556,0,0,0,70.03-3.851q-.654-.621-1.411-1.283T67.072-6.426Q66.281-7.055,65.584-7.6Zm-.68-4.93,2.261.8a24.843,24.843,0,0,1-2.3,3.485,22.392,22.392,0,0,1-3,3.136A18.948,18.948,0,0,1,58.24-2.652a5.709,5.709,0,0,0-.408-.612q-.255-.34-.518-.671T56.829-4.5a14.339,14.339,0,0,0,2.6-1.539,19.007,19.007,0,0,0,2.27-1.98,18.054,18.054,0,0,0,1.853-2.219A15.869,15.869,0,0,0,64.9-12.529ZM63.663-8.415l2.227-2.227V1.5H63.663Zm11.016,3.2H90.3V-3.57H74.679ZM75-13.838H89.877v1.768H75Zm5.355,6.97,2.006.527q-.544.884-1.181,1.853t-1.258,1.87q-.62.9-1.147,1.581l-1.955-.612q.527-.68,1.156-1.581t1.258-1.853Q79.864-6.035,80.357-6.868Zm4.93,2.261,1.972.493A8.048,8.048,0,0,1,85.627-1.6,7.759,7.759,0,0,1,83.239.034a14.519,14.519,0,0,1-3.256.977,40.127,40.127,0,0,1-4.216.535,5.5,5.5,0,0,0-.315-.935A4.148,4.148,0,0,0,75-.2a32.411,32.411,0,0,0,4.9-.527,8.949,8.949,0,0,0,3.375-1.326A5.66,5.66,0,0,0,85.287-4.607ZM77.994-1.513l1.02-1.445q1.972.391,3.952.892T86.7-1.046q1.751.519,3.026.978L88.5,1.6q-1.241-.51-2.915-1.062T81.964-.544Q80.017-1.071,77.994-1.513Zm1.5-11.645h1.921v5.814H79.49Zm3.842,0H85.27v5.814H83.332ZM77.705-9.5v1.581H87.31V-9.5Zm-1.921-1.615H89.333v4.794H75.784ZM97.606-6.85q-.1.76-.26,1.62a15.759,15.759,0,0,1-.43,1.74,8.938,8.938,0,0,1-.68,1.74,3.814,3.814,0,0,1-.855,1.125,1.535,1.535,0,0,1-1.015.395,1.583,1.583,0,0,1-1.015-.375,2.561,2.561,0,0,1-.74-1.035,3.87,3.87,0,0,1-.275-1.5,3.917,3.917,0,0,1,.35-1.64,4.363,4.363,0,0,1,.975-1.365,4.623,4.623,0,0,1,1.46-.935,4.74,4.74,0,0,1,1.805-.34,4.45,4.45,0,0,1,1.675.3,3.77,3.77,0,0,1,1.275.83,3.6,3.6,0,0,1,.81,1.24,4.133,4.133,0,0,1,.28,1.53,4.027,4.027,0,0,1-.43,1.88A3.554,3.554,0,0,1,99.261-.27a5.467,5.467,0,0,1-2.105.74l-.75-1.19q.29-.03.51-.07t.42-.09a3.805,3.805,0,0,0,.9-.345,2.793,2.793,0,0,0,.725-.56,2.45,2.45,0,0,0,.485-.785,2.71,2.71,0,0,0,.175-.99,3.111,3.111,0,0,0-.18-1.08,2.432,2.432,0,0,0-.53-.855,2.335,2.335,0,0,0-.85-.56,3.15,3.15,0,0,0-1.15-.2,3.3,3.3,0,0,0-1.41.285,3.3,3.3,0,0,0-1.03.735,3.227,3.227,0,0,0-.635.97,2.592,2.592,0,0,0-.215.99,2.5,2.5,0,0,0,.12.835,1.264,1.264,0,0,0,.295.5.54.54,0,0,0,.375.165.584.584,0,0,0,.415-.215,2.4,2.4,0,0,0,.4-.655,8.86,8.86,0,0,0,.4-1.11,13.658,13.658,0,0,0,.39-1.54,15.673,15.673,0,0,0,.23-1.6ZM4.55,9.17q-.04.19-.09.415T4.37,10q-.04.22-.1.495t-.115.55q-.055.275-.115.535-.1.43-.25,1t-.35,1.225q-.2.655-.45,1.315t-.53,1.285a8.637,8.637,0,0,1-.6,1.125l-1.3-.52a7.8,7.8,0,0,0,.655-1.055q.3-.585.555-1.2t.445-1.22q.195-.6.34-1.125t.225-.89q.14-.68.22-1.31a7.372,7.372,0,0,0,.06-1.19Zm3.44,1.01a7.042,7.042,0,0,1,.5.805q.255.475.5,1t.45,1.02q.2.49.31.85l-1.27.58a8.172,8.172,0,0,0-.265-.93q-.175-.51-.4-1.035t-.485-1a4.7,4.7,0,0,0-.525-.79ZM.49,11.22q.27.02.535.015t.535-.015q.25-.01.6-.035L2.9,11.13q.4-.03.8-.065t.74-.055q.34-.02.56-.02a2.33,2.33,0,0,1,.94.175,1.334,1.334,0,0,1,.635.6A2.341,2.341,0,0,1,6.81,12.9q0,.59-.05,1.28a10.787,10.787,0,0,1-.175,1.32,4.249,4.249,0,0,1-.345,1.07,1.412,1.412,0,0,1-.655.72,2.248,2.248,0,0,1-.985.2,4.537,4.537,0,0,1-.61-.045q-.33-.045-.59-.095l-.21-1.32q.19.05.425.1t.45.08a2.623,2.623,0,0,0,.345.03.972.972,0,0,0,.44-.095.711.711,0,0,0,.31-.335,3.136,3.136,0,0,0,.23-.75,9.217,9.217,0,0,0,.135-.995q.045-.535.045-1.025a1.173,1.173,0,0,0-.115-.59.563.563,0,0,0-.33-.255A1.834,1.834,0,0,0,4.6,12.13q-.23,0-.62.035t-.835.08q-.445.045-.825.1t-.59.07q-.22.04-.555.085T.61,12.58ZM7.81,8.79q.13.18.275.43t.285.5q.14.25.24.44l-.81.35q-.1-.21-.23-.46t-.27-.5a3.44,3.44,0,0,0-.28-.43ZM9,8.34q.13.19.28.44t.3.5q.145.25.225.42l-.79.34q-.16-.31-.38-.7A5.985,5.985,0,0,0,8.2,8.66Zm7.17,1.23q-.07.1-.155.225l-.165.245q-.18.27-.4.625t-.445.75q-.23.395-.445.785t-.4.72a2.176,2.176,0,0,1,.57-.23,2.464,2.464,0,0,1,.58-.07,1.176,1.176,0,0,1,.885.335,1.434,1.434,0,0,1,.355.965q.01.22.01.53t0,.62q.005.31.025.52a.535.535,0,0,0,.215.415.758.758,0,0,0,.435.125.982.982,0,0,0,.585-.19,1.828,1.828,0,0,0,.475-.525,4.021,4.021,0,0,0,.365-.76,8.035,8.035,0,0,0,.265-.885l1.08.88a6.349,6.349,0,0,1-.66,1.5,3.014,3.014,0,0,1-.975,1,2.508,2.508,0,0,1-1.345.355,1.958,1.958,0,0,1-.92-.195,1.321,1.321,0,0,1-.55-.51,1.528,1.528,0,0,1-.2-.685q-.02-.27-.025-.6t-.01-.645q0-.315-.025-.515a.626.626,0,0,0-.17-.41.568.568,0,0,0-.42-.15,1.082,1.082,0,0,0-.63.21,2.309,2.309,0,0,0-.545.55,4.091,4.091,0,0,0-.425.75q-.1.22-.21.52t-.21.62q-.1.32-.19.6t-.15.485l-1.41-.48q.19-.5.465-1.145t.6-1.355q.33-.71.67-1.41t.65-1.325q.31-.625.555-1.09t.375-.7q.1-.2.23-.45T14.75,9Zm12.66-.33q-.01.21-.025.455t-.015.545v1.98a11.438,11.438,0,0,1-.075,1.4,5.5,5.5,0,0,1-.225,1.05,3.726,3.726,0,0,1-.365.8,4.628,4.628,0,0,1-.5.655,4.09,4.09,0,0,1-.76.645,6.04,6.04,0,0,1-.865.48,8.079,8.079,0,0,1-.805.315l-1.05-1.1a5.894,5.894,0,0,0,1.355-.475A3.741,3.741,0,0,0,26.56,15.2a3.17,3.17,0,0,0,.42-.58,2.564,2.564,0,0,0,.245-.645,5.212,5.212,0,0,0,.12-.805q.035-.45.035-1.03v-1.9q0-.3-.015-.545T27.32,9.24Zm-4.64.08q-.01.18-.02.355t-.01.415v3.38q0,.19.01.44t.02.43H22.74q.01-.14.03-.4t.02-.48V10.09q0-.14-.01-.365t-.03-.405Zm15.35.9q-.06.09-.175.28a2.135,2.135,0,0,0-.175.35q-.21.47-.515,1.05t-.69,1.165a11.528,11.528,0,0,1-.815,1.095A16.68,16.68,0,0,1,35.935,15.4a13.53,13.53,0,0,1-1.42,1.13,10.888,10.888,0,0,1-1.525.885l-1.03-1.08a9.3,9.3,0,0,0,1.57-.78,12.075,12.075,0,0,0,2.53-2.09,8.991,8.991,0,0,0,.625-.81,9.54,9.54,0,0,0,.525-.855,4.335,4.335,0,0,0,.34-.785H34.16q-.21,0-.44.015l-.435.03-.315.025V9.67q.15.01.37.03t.445.03q.225.01.375.01h3.53a4.219,4.219,0,0,0,.6-.04,2.6,2.6,0,0,0,.425-.09ZM37.3,13.33q.39.31.83.72t.87.85q.43.44.8.845t.615.705l-1.14.99q-.37-.51-.845-1.06t-1-1.095Q36.9,14.74,36.36,14.25Zm13.29-2.55q-.08.14-.17.335t-.16.385a10.158,10.158,0,0,1-.365,1.005,10.553,10.553,0,0,1-.58,1.17,8.887,8.887,0,0,1-.8,1.165,9.481,9.481,0,0,1-1.675,1.56,10.639,10.639,0,0,1-2.365,1.26L43.3,16.6a9.6,9.6,0,0,0,1.76-.69,7.906,7.906,0,0,0,1.29-.835,7.554,7.554,0,0,0,.98-.945,5.426,5.426,0,0,0,.64-.885,8.839,8.839,0,0,0,.5-.985,4.241,4.241,0,0,0,.28-.86H45.38l.46-1.13H48.7a3.669,3.669,0,0,0,.465-.03,1.98,1.98,0,0,0,.405-.09ZM47.33,9.2q-.18.26-.35.56l-.26.46a10.834,10.834,0,0,1-.835,1.245,11.137,11.137,0,0,1-1.125,1.25,11.452,11.452,0,0,1-1.34,1.1l-1.13-.83a9.649,9.649,0,0,0,1.165-.84,8.2,8.2,0,0,0,1.51-1.675q.265-.395.455-.7a3.555,3.555,0,0,0,.25-.5,4.591,4.591,0,0,0,.2-.555Zm9.05,3.02h1.31v4.27a1.894,1.894,0,0,1-.13.78.842.842,0,0,1-.48.42,2.831,2.831,0,0,1-.85.175q-.5.035-1.15.035a3.6,3.6,0,0,0-.165-.645,4.683,4.683,0,0,0-.265-.635l.595.02q.305.01.55.01h.335a.316.316,0,0,0,.195-.045.177.177,0,0,0,.055-.145Zm-2.41,1.26,1.27.33a8.867,8.867,0,0,1-.535,1.18,12.294,12.294,0,0,1-.665,1.09,7.29,7.29,0,0,1-.71.89q-.12-.1-.325-.24t-.415-.27q-.21-.13-.37-.21a5.867,5.867,0,0,0,1.01-1.24A7.5,7.5,0,0,0,53.97,13.48Zm4.74.43,1.13-.46q.33.46.66.995t.6,1.06a6.569,6.569,0,0,1,.41.955L60.26,17a6.152,6.152,0,0,0-.355-.945q-.245-.535-.56-1.1T58.71,13.91ZM53.45,9.15h7.09v1.19H53.45Zm-.91,2.41h8.94v1.19H52.54ZM66,10.3q.68-.03,1.55-.06t1.845-.075q.975-.045,1.935-.1l-.02,1-1.885.12q-.945.06-1.81.1t-1.565.085Zm2,2.56,1.07.26a5.159,5.159,0,0,1-1.14,1.625,6.8,6.8,0,0,1-1.57,1.145,3.37,3.37,0,0,0-.22-.265q-.14-.155-.29-.305t-.27-.25a5.438,5.438,0,0,0,1.45-.9A3.625,3.625,0,0,0,68,12.86Zm2.22.98h.23l.21-.04.77.36a5.192,5.192,0,0,1-.9,1.465A5.724,5.724,0,0,1,69.24,16.7a7.951,7.951,0,0,1-1.585.745,13.739,13.739,0,0,1-1.815.485,3.826,3.826,0,0,0-.24-.53,2.49,2.49,0,0,0-.32-.48,10.745,10.745,0,0,0,1.635-.355,7.652,7.652,0,0,0,1.43-.59,4.659,4.659,0,0,0,1.135-.85,3.579,3.579,0,0,0,.74-1.115ZM67.39,11.2h1.08a3.687,3.687,0,0,1-.285,1.02,2.154,2.154,0,0,1-.64.8,3.59,3.59,0,0,1-1.215.575,1.734,1.734,0,0,0-.15-.29q-.1-.16-.22-.32a1.861,1.861,0,0,0-.23-.26,2.958,2.958,0,0,0,.965-.36,1.391,1.391,0,0,0,.485-.505A2.13,2.13,0,0,0,67.39,11.2Zm1.87-.14h1.07v1.03a.435.435,0,0,0,.03.21q.03.04.15.04h.46a.167.167,0,0,0,.115-.04.322.322,0,0,0,.07-.175,2.957,2.957,0,0,0,.035-.4,1.846,1.846,0,0,0,.425.215q.275.105.485.165a1.652,1.652,0,0,1-.31.935.925.925,0,0,1-.69.235h-.76a1.635,1.635,0,0,1-.68-.11.594.594,0,0,1-.315-.365,2.315,2.315,0,0,1-.085-.7ZM67.84,8.49l1.25.35q-.23.39-.48.8t-.495.77q-.245.365-.455.645l-.92-.33q.2-.31.405-.7t.39-.8Q67.72,8.82,67.84,8.49ZM69.51,9.5l.87-.52q.33.29.68.65t.65.72a4.6,4.6,0,0,1,.47.66l-.94.59a4.227,4.227,0,0,0-.43-.665q-.28-.365-.62-.745A9.552,9.552,0,0,0,69.51,9.5Zm-1.82,4.34h2.88v.89H67.16Zm-.01.58a4.019,4.019,0,0,0,.965,1.055,6.248,6.248,0,0,0,1.545.875,8.62,8.62,0,0,0,2.08.53,3.981,3.981,0,0,0-.255.31q-.135.18-.25.37a3.034,3.034,0,0,0-.185.35,8.554,8.554,0,0,1-2.125-.7,6.975,6.975,0,0,1-1.6-1.07A5.218,5.218,0,0,1,66.81,14.86ZM63.72,9.48h2.15v5.61H63.72V14h1.13V10.57H63.72Zm-.68,0h1.01v6.47H63.04Zm13.4.38a3.541,3.541,0,0,0-.1-.4q-.055-.18-.1-.36l1.41-.23q.02.15.045.375a3.828,3.828,0,0,0,.065.4q.02.14.09.52l.17.92q.1.54.225,1.165t.245,1.26q.12.635.235,1.205t.2,1.01q.085.44.125.65t.12.48q.07.26.14.5l-1.45.26q-.04-.28-.06-.535a3.314,3.314,0,0,0-.07-.475q-.04-.2-.115-.615t-.18-.975q-.1-.56-.225-1.19l-.24-1.26-.225-1.18q-.1-.55-.185-.955T76.44,9.86Zm-2.73,1.27q.24-.01.47-.025t.46-.045l.62-.085q.4-.055.92-.13t1.075-.165l1.075-.175q.52-.085.925-.155l.635-.11.5-.1q.26-.055.44-.105l.24,1.31q-.16.01-.43.05l-.49.07q-.27.04-.705.11l-.965.155q-.53.085-1.08.17t-1.05.17q-.5.085-.88.145l-.57.09-.45.1q-.21.045-.47.115Zm.01,2.94q.2-.01.505-.045t.535-.065l.72-.11,1.015-.16,1.165-.185q.6-.1,1.17-.195l1.04-.18.76-.13q.29-.06.555-.12t.465-.12l.27,1.32a4.692,4.692,0,0,0-.485.055q-.285.045-.575.095-.32.05-.8.13l-1.055.175q-.575.1-1.175.19t-1.15.19q-.55.1-.99.165T75,15.2l-.575.11q-.255.05-.425.1Zm14.53-3.01q.07.16.185.455l.245.63q.13.335.23.635t.16.47l-1.2.42a4.173,4.173,0,0,0-.14-.48q-.1-.29-.22-.615t-.24-.625q-.12-.3-.21-.5Zm3.69.73q-.08.24-.135.41t-.1.32a9.586,9.586,0,0,1-.52,1.515,6.685,6.685,0,0,1-.84,1.415,7.45,7.45,0,0,1-1.585,1.525,7.855,7.855,0,0,1-1.765.955l-1.05-1.07a6.779,6.779,0,0,0,1.16-.445,7.472,7.472,0,0,0,1.18-.715,4.821,4.821,0,0,0,1.585-1.915,7.188,7.188,0,0,0,.44-1.19,7.4,7.4,0,0,0,.235-1.255Zm-6.01-.2q.1.19.225.49t.255.63q.13.33.255.64t.2.52l-1.22.46q-.06-.2-.175-.52t-.255-.675q-.14-.355-.265-.655a4.587,4.587,0,0,0-.215-.46Zm10.81,4.45V10.29q0-.26-.025-.6a5.248,5.248,0,0,0-.075-.6H98.2q-.03.26-.06.575t-.03.625v5.75q0,.14.01.395t.04.525q.03.27.04.48H96.64q.04-.3.07-.7T96.74,16.04Zm1.07-4.36q.5.13,1.12.335t1.25.435q.63.23,1.185.455t.925.415l-.57,1.38q-.42-.22-.93-.445t-1.035-.435q-.525-.21-1.03-.39t-.915-.32Z" transform="translate(12.936 28.092)" fill="#333"/>
      <path id="パス_822_-_アウトライン" data-name="パス 822 - アウトライン" d="M50.435-16.921l5.17,1.61H67.338l.552-.808v.808H73v-.527H91.877v5.768h-.544v2.851h.586q.173-.194.363-.375a6.635,6.635,0,0,1,2.085-1.339,6.751,6.751,0,0,1,2.559-.488,6.456,6.456,0,0,1,2.422.445q.216.087.421.188l.108,0-.006.048A5.677,5.677,0,0,1,101.29-7.7a5.608,5.608,0,0,1,1.256,1.92,6.142,6.142,0,0,1,.419,2.264,6.022,6.022,0,0,1-.654,2.8,5.545,5.545,0,0,1-1.974,2.135,7.464,7.464,0,0,1-2.868,1.03l-1.3.207-.675-1.07a3.442,3.442,0,0,1-1.126.188A3.589,3.589,0,0,1,92.1.952,4.146,4.146,0,0,1,91.713.6l-2.527,3.44L87.74,3.448c-.78-.32-1.716-.661-2.782-1.013-.414-.137-.846-.274-1.29-.409a17.123,17.123,0,0,1-3.315.951,42.309,42.309,0,0,1-4.428.564l-1.719.136L73.818,2a3.54,3.54,0,0,0-.2-.593,2.187,2.187,0,0,0-.224-.421L72.036-.858,70.911.167,69.573-1.44a11.658,11.658,0,0,0-.919-.959c-.242-.229-.5-.465-.764-.706V3.5H61.663V-2.412a21.058,21.058,0,0,1-2.5,1.534l-1.718.9-.3-.531-.164.383c-.053.124-.119.294-.2.508s-.141.413-.2.625a4.638,4.638,0,0,0-.113.482l-.26,1.561-1.58.105c-.535.036-1.151.063-1.832.08-.666.017-1.358.029-2.058.035l-.7,0c-.46,0-.917,0-1.357-.012-.661-.012-1.262-.029-1.788-.053a10.676,10.676,0,0,1-3.286-.611,6.478,6.478,0,0,1-1.252-.635c-.371.317-.773.645-1.2.977L39.19,4.475,37.358.6a3.831,3.831,0,0,1-1,.515,5.637,5.637,0,0,1-.989.239l-.063.008q-.155.018-.325.031V3.53H29.091V2.269l-1.513.169c-1.081.119-2.13.231-3.115.333s-1.881.2-2.688.287l-2,.222-.236-2.206q-.229.18-.481.341a7.464,7.464,0,0,1-2.868,1.03l-1.3.207-.675-1.07a3.442,3.442,0,0,1-1.126.188,3.587,3.587,0,0,1-2.254-.8c-.035.044-.069.089-.1.133a1.3,1.3,0,0,0-.088.137l-.91,1.718L7.994,2.093q-.173-.085-.34-.179a2.875,2.875,0,0,1-.75.535l-.027.013a3.877,3.877,0,0,1-1.327.354c-.315.029-.662.044-1.061.044H2.8l-.037-.22-.314.183L1.818,3.967-.018,2.284l-.009-.005c-.1-.06-.212-.119-.32-.174-.034-.017-.055-.027-.064-.031l-2.355-.736,1.1-1.925-.237-.158.456-.236a3.532,3.532,0,0,0,.238-.634,8.138,8.138,0,0,0,.22-1.123c.052-.419.086-.836.1-1.239.016-.437.024-.845.024-1.213v-4.94H10.92v2.62l.086-.083a6.635,6.635,0,0,1,2.085-1.339A6.751,6.751,0,0,1,15.65-9.42a6.456,6.456,0,0,1,2.422.445q.216.087.421.188l.108,0-.006.048a5.812,5.812,0,0,1,.738.452V-9.65h.374v-2.73l-1.341-2.682,3.008-.194c.68-.044,1.385-.1,2.094-.166s1.419-.141,2.106-.224c.672-.081,1.314-.173,1.907-.275.566-.1,1.081-.207,1.531-.327l1.32-.352.783,1.066h4.348l.878-.2.32.2h1.106v.674l.51.311,2.423-1.96,1.217.785c.328.212.662.451,1,.715L47.3-16.832l.943,1.145a11.828,11.828,0,0,1,1.067,1.543q.077-.147.15-.3c.129-.263.235-.5.313-.713ZM39.725-9.82c-.21-.213-.439-.429-.683-.646l-.172-.151q-.136.393-.278.8Zm20.343.6H56.806v2.49a12.454,12.454,0,0,0,1.431-.919A17.154,17.154,0,0,0,60.069-9.22Zm13.715,0H70.137c.441.332.885.676,1.324,1.025s.834.677,1.217,1.008v-.032h1.1ZM9.745,5.888l.905,1.323c.109.159.225.341.344.54.1.174.209.351.31.526.127.218.226.405.3.572l.473,1.006.033-.062c.159-.3.28-.53.37-.7.068-.135.145-.286.23-.449.058-.111.119-.245.182-.4l.75-1.845,5.607,2.251L18,10.436l2.785,2.269V10.09c0-.044,0-.127-.008-.276,0-.105-.011-.2-.02-.273L20.516,7.32h4.51l-.011-.08h5.914l-.1,2.1q-.011.222-.026.482c-.007.122-.011.264-.011.423v1.98a13.285,13.285,0,0,1-.09,1.648,8.381,8.381,0,0,1-.154.872l.7-.268a7.342,7.342,0,0,0,1.233-.613,9.808,9.808,0,0,0,1.13-.812l-.177.013-.28.022-2.181.2V7.532l2.133.142c.117.008.254.019.418.034.115.01.234.018.353.024.149.007.238.008.286.008h3.53a2.236,2.236,0,0,0,.317-.019c.06-.009.1-.015.113-.019l.957-.319,3.181,2.366L41.226,11.3l.009-.005a7.7,7.7,0,0,0,.924-.664,6.288,6.288,0,0,0,.663-.646,6.355,6.355,0,0,0,.483-.621c.161-.239.3-.453.411-.636l.014-.023a1.783,1.783,0,0,0,.1-.211,2.608,2.608,0,0,0,.114-.31l.564-2.014L50.5,8.136l-.115.166,1.066.658V7.15H62.54v.33h3.539l.515-1.416,3.246.909.766-.458,1.1.962.027.024.407.114-.1.168q.121.114.243.235l1.095-.057-.024,1.182.278-.012c.144-.006.286-.014.423-.023l.115-.009-.449-1.615,5.645-.921.226,1.7.39-.082c.164-.035.264-.06.319-.075L82.4,7.517l.509,2.776.259-.078.045.222,3.674-1.316.126.238,1.762-.577.01-.106.158.051.407-.134.135.308,4.988,1.6-.639,1.918q-.077.23-.13.394-.045.139-.087.266a11.668,11.668,0,0,1-.608,1.754,8.719,8.719,0,0,1-1.09,1.837l0,0a9.483,9.483,0,0,1-2.01,1.931A9.887,9.887,0,0,1,87.692,19.8l-1.218.457-4.12-4.2-.334.017c-.028,0-.111.007-.273.033-.179.028-.364.059-.547.09l-.031.005-.1.016.031.119c.043.159.086.314.129.46l.623,2.136-5.68,1.018L75.88,17.9c-.033-.228-.057-.45-.074-.661a1.491,1.491,0,0,0-.019-.151c-.163.027-.3.051-.4.071l-.024,0-.559.107c-.122.024-.193.042-.228.051l-.843.913c-.019.021-.06.068-.125.153-.05.067-.1.136-.139.206a1.11,1.11,0,0,0-.064.116l-.647,1.478-1.581-.319a10.826,10.826,0,0,1-2.335-.739q-.267.109-.543.2a15.812,15.812,0,0,1-2.079.556l-1.706.338-.571-1.643a1.918,1.918,0,0,0-.116-.246,1.168,1.168,0,0,0-.063-.107l-.253-.285H63.1l-4.176,1.8-.2-.761a3.007,3.007,0,0,1-.9.554,4.756,4.756,0,0,1-1.453.313c-.378.026-.812.04-1.29.04H53.345l-.051-.356L52.05,18.506s-.048-.04-.172-.125-.226-.151-.34-.221-.182-.107-.212-.122L49.239,17a11.863,11.863,0,0,1-1.212,1.017,12.669,12.669,0,0,1-2.809,1.506l-1.152.458-2.294-2.06-2.839,2.465-1.282-1.767c-.213-.293-.461-.6-.74-.927q-.118-.137-.241-.275c-.33.271-.67.527-1.018.768a12.946,12.946,0,0,1-1.805,1.047l-1.306.62-2.9-3.044a6.709,6.709,0,0,1-.523.658l-.01.011a6.111,6.111,0,0,1-1.129.961,8.071,8.071,0,0,1-1.152.638,10.114,10.114,0,0,1-1.006.392l-1.2.388-3.192-3.344a7.47,7.47,0,0,1-.379.693,5.008,5.008,0,0,1-1.624,1.648,4.487,4.487,0,0,1-2.4.653,3.932,3.932,0,0,1-1.852-.426,3.406,3.406,0,0,1-.976-.758l-.533,1.775L8.335,18.276l.722-1.9-.719.328a5.459,5.459,0,0,1-.3.734,3.4,3.4,0,0,1-1.589,1.654,4.233,4.233,0,0,1-1.853.4,6.558,6.558,0,0,1-.88-.063c-.229-.031-.443-.065-.635-.1L2.653,20-2.6,17.9l1.553-2.086a5.841,5.841,0,0,0,.486-.785q.062-.118.121-.238l-.753.131-.518-5.872,2.347.174c.118.009.235.012.35.01l.077,0q0-.072,0-.142L.979,6.8l5.161.52L8.5,6.333l.029.04ZM11.1,11.809q.157-.321.307-.625l-.491.212Q11.015,11.6,11.1,11.809ZM94.219,7.09h6.225l-.257,2.229c-.018.159-.037.339-.056.535-.014.146-.021.293-.021.435V10.3c.251.087.5.177.756.268.44.161.861.322,1.251.48.429.174.785.334,1.087.489l1.638.841-2.109,5.106-1.94-1.016c-.2-.107-.433-.218-.68-.329,0,.051,0,.121.007.214,0,.122.015.25.029.383.025.224.041.422.05.606l.1,2.095H94.356l.3-2.264c.022-.161.041-.358.058-.585s.024-.4.024-.55V10.29c0-.124-.007-.276-.02-.453a3.268,3.268,0,0,0-.044-.369Z" transform="translate(12.936 28.092)" fill="#fff"/>
      <text id="尿の郵送不要の_がんリスク示唆キット" data-name="尿の郵送不要の
がんリスク示唆キット" transform="translate(12.936 28.092)" fill="#333" font-size="10" font-family="NotoSansJP-Bold, Noto Sans JP" font-weight="700" letter-spacing="0.042em"><tspan x="0" y="0">尿</tspan><tspan y="0">の</tspan><tspan y="0" fill="#e61400" font-size="17">郵送不要</tspan><tspan y="0">の</tspan><tspan letter-spacing="0.04em"><tspan x="0" y="17">がんリスク</tspan><tspan y="17">示唆</tspan><tspan y="17">キット</tspan></tspan></text>
    </g>
  </g>
</svg>
