<svg xmlns="http://www.w3.org/2000/svg" width="52.274" height="51.178" viewBox="0 0 52.274 51.178">
  <g id="グループ_579" data-name="グループ 579" transform="translate(-555.141 -7563.479)">
    <path id="パス_354" data-name="パス 354" d="M555.141,7580.621h0a17.143,17.143,0,0,0,17.142-17.142h0a17.143,17.143,0,0,0,17.142,17.142h0a17.142,17.142,0,0,0-17.142,17.142h0A17.142,17.142,0,0,0,555.141,7580.621Z" fill="#ff8e66"/>
    <path id="パス_355" data-name="パス 355" d="M581.837,7601.868h0a12.789,12.789,0,0,0,12.789-12.789h0a12.789,12.789,0,0,0,12.789,12.789h0a12.789,12.789,0,0,0-12.789,12.789h0A12.789,12.789,0,0,0,581.837,7601.868Z" fill="#ff8e66"/>
  </g>
</svg>
