<svg xmlns="http://www.w3.org/2000/svg" width="321.298" height="169.418" viewBox="0 0 321.298 169.418">
  <g id="グループ_430" data-name="グループ 430" transform="translate(155.118 -99.352)" opacity="0.5">
    <circle id="楕円形_114" data-name="楕円形 114" cx="9.218" cy="9.218" r="9.218" transform="translate(-127.297 205.223)" fill="#82c195"/>
    <circle id="楕円形_115" data-name="楕円形 115" cx="9.218" cy="9.218" r="9.218" transform="translate(-89.019 121.231)" fill="#82c195"/>
    <circle id="楕円形_116" data-name="楕円形 116" cx="9.218" cy="9.218" r="9.218" transform="translate(-94.184 184.489)" fill="#82c195"/>
    <circle id="楕円形_117" data-name="楕円形 117" cx="9.218" cy="9.218" r="9.218" transform="translate(-71.836 202.925)" fill="#82c195"/>
    <circle id="楕円形_118" data-name="楕円形 118" cx="9.218" cy="9.218" r="9.218" transform="translate(-152.122 169.173)" fill="#82c195"/>
    <circle id="楕円形_119" data-name="楕円形 119" cx="9.218" cy="9.218" r="9.218" transform="translate(-155.118 121.231)" fill="#82c195"/>
    <circle id="楕円形_120" data-name="楕円形 120" cx="9.218" cy="9.218" r="9.218" transform="translate(-33.153 112.014)" fill="#82c195"/>
    <circle id="楕円形_121" data-name="楕円形 121" cx="9.218" cy="9.218" r="9.218" transform="translate(-96.406 222.68)" fill="#82c195"/>
    <circle id="楕円形_122" data-name="楕円形 122" cx="9.218" cy="9.218" r="9.218" transform="translate(-33.153 186.787)" fill="#82c195"/>
    <circle id="楕円形_123" data-name="楕円形 123" cx="9.218" cy="9.218" r="9.218" transform="translate(-5.631 231.898)" fill="#82c195"/>
    <circle id="楕円形_124" data-name="楕円形 124" cx="9.218" cy="9.218" r="9.218" transform="translate(-60.105 250.333)" fill="#82c195"/>
    <circle id="楕円形_125" data-name="楕円形 125" cx="9.218" cy="9.218" r="9.218" transform="translate(29.413 200.8)" fill="#82c195"/>
    <circle id="楕円形_126" data-name="楕円形 126" cx="9.218" cy="9.218" r="9.218" transform="translate(78.825 200.8)" fill="#82c195"/>
    <circle id="楕円形_127" data-name="楕円形 127" cx="9.218" cy="9.218" r="9.218" transform="translate(50.963 156.573)" fill="#82c195"/>
    <circle id="楕円形_128" data-name="楕円形 128" cx="9.218" cy="9.218" r="9.218" transform="translate(60.181 250.333)" fill="#82c195"/>
    <circle id="楕円形_129" data-name="楕円形 129" cx="9.218" cy="9.218" r="9.218" transform="translate(106.478 172.043)" fill="#82c195"/>
    <circle id="楕円形_130" data-name="楕円形 130" cx="9.218" cy="9.218" r="9.218" transform="translate(72.112 99.352)" fill="#82c195"/>
    <circle id="楕円形_131" data-name="楕円形 131" cx="9.218" cy="9.218" r="9.218" transform="translate(147.745 112.014)" fill="#82c195"/>
    <circle id="楕円形_132" data-name="楕円形 132" cx="9.218" cy="9.218" r="9.218" transform="translate(88.043 128.463)" fill="#82c195"/>
    <circle id="楕円形_133" data-name="楕円形 133" cx="9.218" cy="9.218" r="9.218" transform="translate(29.413 121.523)" fill="#82c195"/>
    <circle id="楕円形_134" data-name="楕円形 134" cx="9.218" cy="9.218" r="9.218" transform="translate(3.587 156.573)" fill="#82c195"/>
    <circle id="楕円形_135" data-name="楕円形 135" cx="9.218" cy="9.218" r="9.218" transform="translate(-65.16 148.253)" fill="#82c195"/>
    <circle id="楕円形_136" data-name="楕円形 136" cx="9.218" cy="9.218" r="9.218" transform="translate(-126.373 141.511)" fill="#82c195"/>
  </g>
</svg>
