<svg xmlns="http://www.w3.org/2000/svg" width="450.682" height="574.123" viewBox="0 0 450.682 574.123">
  <g id="グループ_557" data-name="グループ 557" transform="translate(154.3 -9492.529)" opacity="0.3">
    <circle id="楕円形_233" data-name="楕円形 233" cx="15.363" cy="15.363" r="15.363" transform="translate(-42.508 9944.04)" fill="#ff8e66"/>
    <circle id="楕円形_234" data-name="楕円形 234" cx="15.363" cy="15.363" r="15.363" transform="translate(119.817 9985.829)" fill="#ff8e66"/>
    <circle id="楕円形_235" data-name="楕円形 235" cx="15.363" cy="15.363" r="15.363" transform="translate(155.929 9896.774)" fill="#ff8e66"/>
    <circle id="楕円形_236" data-name="楕円形 236" cx="15.363" cy="15.363" r="15.363" transform="translate(10.519 10035.926)" fill="#ff8e66"/>
    <circle id="楕円形_237" data-name="楕円形 237" cx="15.363" cy="15.363" r="15.363" transform="translate(-154.3 9861.525)" fill="#ff8e66"/>
    <circle id="楕円形_238" data-name="楕円形 238" cx="15.363" cy="15.363" r="15.363" transform="translate(-49.67 9830.895)" fill="#ff8e66"/>
    <circle id="楕円形_239" data-name="楕円形 239" cx="15.363" cy="15.363" r="15.363" transform="translate(224.631 9944.04)" fill="#ff8e66"/>
    <circle id="楕円形_240" data-name="楕円形 240" cx="15.363" cy="15.363" r="15.363" transform="translate(-0.494 9492.529)" fill="#ff8e66"/>
    <circle id="楕円形_241" data-name="楕円形 241" cx="15.363" cy="15.363" r="15.363" transform="translate(93.907 9838.847)" fill="#ff8e66"/>
    <circle id="楕円形_242" data-name="楕円形 242" cx="15.363" cy="15.363" r="15.363" transform="translate(119.817 9749.021)" fill="#ff8e66"/>
    <circle id="楕円形_243" data-name="楕円形 243" cx="15.363" cy="15.363" r="15.363" transform="translate(265.655 9815.528)" fill="#ff8e66"/>
    <circle id="楕円形_244" data-name="楕円形 244" cx="15.363" cy="15.363" r="15.363" transform="translate(175.356 9804.37)" fill="#ff8e66"/>
    <circle id="楕円形_245" data-name="楕円形 245" cx="15.363" cy="15.363" r="15.363" transform="translate(74.643 9699.3)" fill="#ff8e66"/>
    <circle id="楕円形_246" data-name="楕円形 246" cx="15.363" cy="15.363" r="15.363" transform="translate(86.282 9547.028)" fill="#ff8e66"/>
    <circle id="楕円形_247" data-name="楕円形 247" cx="15.363" cy="15.363" r="15.363" transform="translate(58.284 9618.589)" fill="#ff8e66"/>
    <circle id="楕円形_248" data-name="楕円形 248" cx="15.363" cy="15.363" r="15.363" transform="translate(-10.005 9676.65)" fill="#ff8e66"/>
    <circle id="楕円形_249" data-name="楕円形 249" cx="15.363" cy="15.363" r="15.363" transform="translate(145.367 9632.643)" fill="#ff8e66"/>
    <circle id="楕円形_250" data-name="楕円形 250" cx="15.363" cy="15.363" r="15.363" transform="translate(169.688 9702.726)" fill="#ff8e66"/>
    <circle id="楕円形_251" data-name="楕円形 251" cx="15.363" cy="15.363" r="15.363" transform="translate(25.886 9779.533)" fill="#ff8e66"/>
    <circle id="楕円形_252" data-name="楕円形 252" cx="15.363" cy="15.363" r="15.363" transform="translate(2.155 9582.938)" fill="#ff8e66"/>
    <circle id="楕円形_253" data-name="楕円形 253" cx="15.363" cy="15.363" r="15.363" transform="translate(-145.593 9705.335)" fill="#ff8e66"/>
    <circle id="楕円形_254" data-name="楕円形 254" cx="15.363" cy="15.363" r="15.363" transform="translate(-109.562 9535.407)" fill="#ff8e66"/>
    <circle id="楕円形_255" data-name="楕円形 255" cx="15.363" cy="15.363" r="15.363" transform="translate(-84.873 9627.965)" fill="#ff8e66"/>
    <circle id="楕円形_256" data-name="楕円形 256" cx="15.363" cy="15.363" r="15.363" transform="translate(-67.769 9748.719)" fill="#ff8e66"/>
    <circle id="楕円形_257" data-name="楕円形 257" cx="15.363" cy="15.363" r="15.363" transform="translate(25.802 9862.639)" fill="#ff8e66"/>
    <circle id="楕円形_258" data-name="楕円形 258" cx="15.363" cy="15.363" r="15.363" transform="translate(42.918 9944.04)" fill="#ff8e66"/>
  </g>
</svg>
