<svg xmlns="http://www.w3.org/2000/svg" width="350" height="77.413" viewBox="0 0 350 77.413">
  <g id="グループ_767" data-name="グループ 767" transform="translate(-4973.356 -2002.587)">
    <g id="グループ_8" data-name="グループ 8">
      <path id="パス_1" data-name="パス 1" d="M5286.972,2026.659v-15.271a8.8,8.8,0,0,0-8.8-8.8H5026.4a8.8,8.8,0,0,0-8.8,8.8v15.271a8.8,8.8,0,0,1-8.8,8.8H4986a8.8,8.8,0,0,0-8.8,8.8v26.94a8.8,8.8,0,0,0,8.8,8.8h328.557a8.8,8.8,0,0,0,8.8-8.8v-26.94a8.8,8.8,0,0,0-8.8-8.8h-18.783A8.8,8.8,0,0,1,5286.972,2026.659Z" fill="#699c78"/>
      <path id="パス_2" data-name="パス 2" d="M5283.13,2026.659v-15.271a8.8,8.8,0,0,0-8.8-8.8h-251.77a8.8,8.8,0,0,0-8.8,8.8v15.271a8.8,8.8,0,0,1-8.8,8.8h-22.8a8.8,8.8,0,0,0-8.8,8.8v26.94a8.8,8.8,0,0,0,8.8,8.8h328.557a8.8,8.8,0,0,0,8.8-8.8v-26.94a8.8,8.8,0,0,0-8.8-8.8H5291.93A8.8,8.8,0,0,1,5283.13,2026.659Z" fill="#82c195"/>
      <path id="パス_781" data-name="パス 781" d="M-120-6.452h13.132v1.858H-120Zm21.811-5.077h3.063v1.461h-3.063Zm-1.205,5.5h4.878v1.489H-99.4Zm3.517-5.5h1.532v3.148q0,.17.007.277a.45.45,0,0,0,.021.135.167.167,0,0,0,.156.071h.227a.417.417,0,0,0,.1-.014.174.174,0,0,0,.071-.028.555.555,0,0,0,.113-.312,3.251,3.251,0,0,0,.035-.468q.007-.312.021-.723a2.093,2.093,0,0,0,.56.376,5.4,5.4,0,0,0,.659.277q-.028.425-.078.851a2.766,2.766,0,0,1-.121.61,1.02,1.02,0,0,1-.5.581,1.008,1.008,0,0,1-.355.121,2.424,2.424,0,0,1-.4.035h-.766a1.765,1.765,0,0,1-.5-.078,1.039,1.039,0,0,1-.447-.262,1.173,1.173,0,0,1-.255-.475,3.866,3.866,0,0,1-.085-.971Zm1.078,5.5h.312l.284-.057,1.049.355a10.345,10.345,0,0,1-1.262,3.262A8.108,8.108,0,0,1-96.5-.184,10.8,10.8,0,0,1-99.24,1.276a6.289,6.289,0,0,0-.411-.737,4.531,4.531,0,0,0-.511-.681A8.175,8.175,0,0,0-97.716-1.3,7.146,7.146,0,0,0-95.879-3.2,7.61,7.61,0,0,0-94.8-5.772Zm-2.808,1.475A7.318,7.318,0,0,0-96.5-2.574a6.344,6.344,0,0,0,1.73,1.5,8.168,8.168,0,0,0,2.375.929,3.783,3.783,0,0,0-.56.659,7.063,7.063,0,0,0-.461.745,8.094,8.094,0,0,1-2.51-1.17,7.374,7.374,0,0,1-1.815-1.858,10.849,10.849,0,0,1-1.248-2.489Zm-1.262-6.977h1.5v1.886a8.1,8.1,0,0,1-.106,1.276,4.472,4.472,0,0,1-.411,1.283A3.156,3.156,0,0,1-98.787-6a2.551,2.551,0,0,0-.34-.333q-.227-.191-.461-.369a4.2,4.2,0,0,0-.4-.277,2.625,2.625,0,0,0,.745-.851,2.977,2.977,0,0,0,.3-.929,6.2,6.2,0,0,0,.071-.915Zm-4.354,7.176h.979v3.248h-.979Zm-1.12-5.758h3.021v1.319h-3.021Zm2.68,0h1.376v9.87a2.38,2.38,0,0,1-.106.773.925.925,0,0,1-.4.489,1.807,1.807,0,0,1-.723.213q-.425.043-1.021.043A3.529,3.529,0,0,0-102.693.6a3.9,3.9,0,0,0-.262-.659q.355.014.667.014h.411q.213,0,.213-.227Zm-3.347,0h1.333v5.176q0,.723-.043,1.546t-.163,1.666a9.913,9.913,0,0,1-.362,1.6,6.25,6.25,0,0,1-.624,1.383A1.7,1.7,0,0,0-105.2.993q-.213-.142-.433-.277a2.9,2.9,0,0,0-.39-.206,5.446,5.446,0,0,0,.681-1.695,11.817,11.817,0,0,0,.269-1.914q.057-.971.057-1.836Zm-1.007,4.467,1.844-.163q1.035-.092,2.191-.213t2.3-.248l.028,1.29-2.212.255q-1.106.128-2.127.234t-1.858.206Zm2.468-2.439.993-.4a4.412,4.412,0,0,1,.461.893,5.188,5.188,0,0,1,.262.865l-1.078.454a4.2,4.2,0,0,0-.22-.893A5.176,5.176,0,0,0-103.551-8.083Zm.213-3.985,1.815.3q-.227.624-.461,1.22T-102.4-9.53l-1.39-.312q.128-.482.262-1.106T-103.339-12.068ZM-90.15-9.743H-85.8V-.2H-90.15V-1.688h2.822v-6.58H-90.15Zm-.993,0H-89.6V.851h-1.546Zm.936,3.786h3.616v1.475h-3.616Zm1.092-6.1,1.844.269q-.227.723-.489,1.432t-.475,1.205L-89.6-9.459q.1-.369.191-.823t.177-.922A8.174,8.174,0,0,0-89.115-12.054Zm5.19,2.2h4.155V-8.3h-4.155Zm3.559,0h1.574v.482a2.144,2.144,0,0,1-.014.284q-.057,2.4-.135,4.063t-.184,2.751a13.868,13.868,0,0,1-.248,1.695,2.282,2.282,0,0,1-.369.893,1.622,1.622,0,0,1-.61.567,2.806,2.806,0,0,1-.752.227,7,7,0,0,1-1.014.05q-.6-.007-1.227-.021a3.118,3.118,0,0,0-.17-.83,3.641,3.641,0,0,0-.383-.83q.681.057,1.269.071t.858.014a1.021,1.021,0,0,0,.347-.05.677.677,0,0,0,.262-.191,1.592,1.592,0,0,0,.3-.759,13.845,13.845,0,0,0,.206-1.624q.085-1.049.156-2.652t.128-3.815Zm-3.517-2.184,1.645.383a20.568,20.568,0,0,1-.659,2.07,20,20,0,0,1-.851,1.95,12.484,12.484,0,0,1-.943,1.6,3.528,3.528,0,0,0-.4-.333q-.262-.191-.525-.376a3.726,3.726,0,0,0-.461-.284,9.652,9.652,0,0,0,.886-1.411,13.811,13.811,0,0,0,.752-1.73A18.257,18.257,0,0,0-83.882-12.04Zm-.695,6.282,1.333-.752q.355.482.752,1.064t.752,1.134q.355.553.581.979l-1.446.879a10.833,10.833,0,0,0-.532-1.007q-.333-.567-.709-1.17T-84.577-5.758Zm7.757-3.531q.454.057.971.078t.915.021a16.234,16.234,0,0,0,1.78-.1q.9-.1,1.737-.262A14.244,14.244,0,0,0-69.9-9.927l.057,1.645q-.61.156-1.454.319t-1.78.269a16.32,16.32,0,0,1-1.844.106q-.425,0-.865-.014t-.908-.043Zm5.517-2.127q-.085.355-.227.922T-71.849-9.3q-.177.624-.376,1.234a19.159,19.159,0,0,1-.823,2.17q-.511,1.149-1.106,2.241a18.765,18.765,0,0,1-1.205,1.943L-77.075-2.6a15.339,15.339,0,0,0,.95-1.319q.468-.723.879-1.489t.745-1.482a13.322,13.322,0,0,0,.532-1.3,13.9,13.9,0,0,0,.475-1.68,9.667,9.667,0,0,0,.234-1.751Zm3.318,4.41q-.028.454-.021.9t.021.915q.014.326.035.83T-67.9-3.3q.028.56.05,1.064t.021.8A2.582,2.582,0,0,1-68.1-.248,1.949,1.949,0,0,1-68.956.6a3.466,3.466,0,0,1-1.61.312A4.551,4.551,0,0,1-72.154.645a2.6,2.6,0,0,1-1.135-.78,1.976,1.976,0,0,1-.425-1.3,2.233,2.233,0,0,1,.369-1.255,2.459,2.459,0,0,1,1.071-.879,4.076,4.076,0,0,1,1.695-.319,7.272,7.272,0,0,1,2.3.347,8.261,8.261,0,0,1,1.886.886,11.069,11.069,0,0,1,1.432,1.078l-.95,1.517q-.383-.34-.872-.766a8.1,8.1,0,0,0-1.092-.794,6.6,6.6,0,0,0-1.3-.61,4.619,4.619,0,0,0-1.51-.241,1.764,1.764,0,0,0-.979.241.722.722,0,0,0-.369.624.761.761,0,0,0,.319.638,1.468,1.468,0,0,0,.9.241,1.536,1.536,0,0,0,.766-.163.878.878,0,0,0,.4-.468,1.962,1.962,0,0,0,.113-.688q0-.326-.028-.922t-.064-1.319q-.035-.723-.064-1.446t-.057-1.276Zm2.439.752a9.735,9.735,0,0,0-1.021-.723q-.61-.383-1.255-.73t-1.127-.56l.908-1.4q.383.17.872.418t.993.518q.5.269.936.532t.7.461Zm8.764-4.183a12.566,12.566,0,0,1-1.049,1.283,17.771,17.771,0,0,1-1.347,1.3,18.506,18.506,0,0,1-1.567,1.227,18.345,18.345,0,0,1-1.709,1.064,4.718,4.718,0,0,0-.475-.7,5.351,5.351,0,0,0-.6-.659,15.18,15.18,0,0,0,2.354-1.51,16.826,16.826,0,0,0,2.014-1.836A11.6,11.6,0,0,0-57.746-12.1h1.773a13.96,13.96,0,0,0,1.276,1.56,16.01,16.01,0,0,0,1.5,1.4A14.675,14.675,0,0,0-51.57-7.977a13.536,13.536,0,0,0,1.695.886,5.728,5.728,0,0,0-.61.723q-.284.4-.525.794-.808-.454-1.645-1.028t-1.6-1.22q-.766-.645-1.418-1.312A10.987,10.987,0,0,1-56.782-10.437Zm-4.807,6.665h9.7V-2.3h-9.7Zm.723-3.148h8.324v1.5h-8.324ZM-62.738-.581h12.125V.936H-62.738Zm5.077-5.672h1.787V.255h-1.787Zm11.926-2.156h6.311v1.22h-6.311Zm0,2.07h6.311v1.234h-6.311Zm5.545-4.354h1.773V-.808a3.038,3.038,0,0,1-.17,1.142,1.236,1.236,0,0,1-.652.631,3.543,3.543,0,0,1-1.177.269q-.709.057-1.73.043a5.485,5.485,0,0,0-.135-.581q-.092-.326-.213-.645a4.919,4.919,0,0,0-.248-.56q.44.028.886.035t.794,0q.347-.007.5-.007a.445.445,0,0,0,.284-.071.34.34,0,0,0,.085-.269Zm-8.736,6.708q1.163-.057,2.73-.128t3.333-.17l3.5-.2-.014,1.446q-1.645.142-3.318.277t-3.212.248q-1.539.113-2.772.2Zm11.217-3.8,1.659.794a16.267,16.267,0,0,1-3.17,3.609A20.876,20.876,0,0,1-43.3-.688a27.627,27.627,0,0,1-4.68,1.851,4.361,4.361,0,0,0-.326-.5q-.213-.291-.433-.574t-.4-.482a25.842,25.842,0,0,0,4.651-1.638,17.932,17.932,0,0,0,3.9-2.453A13.521,13.521,0,0,0-37.708-7.786ZM-43.423-12.1l2.1.227q-.326.652-.7,1.276t-.688,1.049l-1.517-.312q.241-.5.468-1.113A8.886,8.886,0,0,0-43.423-12.1Zm-3.4,1.4h7.2v1.461h-5.488v6.013h-1.716Zm19.868,1.149,1.7.4q-.255.624-.539,1.269t-.546,1.227q-.262.581-.518,1.035l-1.262-.4q.213-.468.433-1.092t.418-1.262Q-27.072-9.005-26.959-9.544Zm1.659,1.9,1.29-.638q.383.482.766,1.042t.7,1.1a6.717,6.717,0,0,1,.489.979l-1.39.737a6.071,6.071,0,0,0-.44-.993q-.3-.553-.674-1.134T-25.3-7.644Zm.808,5.077L-23.2-3.2a11,11,0,0,1,.73,1.078,10.264,10.264,0,0,1,.6,1.149A5.432,5.432,0,0,1-21.527.057l-1.418.709a4.65,4.65,0,0,0-.3-1.042,11.379,11.379,0,0,0-.56-1.17Q-24.136-2.042-24.491-2.567ZM-29.384-6.58q.752-.014,1.737-.05t2.085-.092q1.1-.057,2.219-.1l-.028,1.333q-1.5.128-3.021.241t-2.709.2Zm1.432-5.247,1.617.4A10.187,10.187,0,0,1-27.37-9.4a8.63,8.63,0,0,1-1.347,1.624q-.142-.142-.383-.34t-.5-.383a5.2,5.2,0,0,0-.454-.3A5.9,5.9,0,0,0-28.8-10.14,6.9,6.9,0,0,0-27.951-11.827Zm3.971-.014a8.586,8.586,0,0,0,.688.964,9.6,9.6,0,0,0,.872.936q.468.44.893.766a3.354,3.354,0,0,0-.411.347q-.227.22-.433.454a4.727,4.727,0,0,0-.333.418,10.559,10.559,0,0,1-.943-.95q-.489-.553-.936-1.17t-.787-1.2Zm-3.63,7.516,1.049-.908a7.258,7.258,0,0,1,.943.5,7.86,7.86,0,0,1,.851.617,4.859,4.859,0,0,1,.645.638l-1.12,1.021a3.934,3.934,0,0,0-.617-.674,8.536,8.536,0,0,0-.844-.659A7.62,7.62,0,0,0-27.611-4.325ZM-27.7-3.233h1.56V-.6a.76.76,0,0,0,.05.355q.05.071.22.071h.652a.217.217,0,0,0,.191-.092.968.968,0,0,0,.1-.383q.035-.291.05-.9a1.542,1.542,0,0,0,.39.241q.248.113.511.213a5,5,0,0,0,.475.156A5.37,5.37,0,0,1-23.746.425a1.2,1.2,0,0,1-.482.659,1.585,1.585,0,0,1-.8.177h-1.092a2.236,2.236,0,0,1-.986-.17.921.921,0,0,1-.461-.574,3.78,3.78,0,0,1-.128-1.1Zm-1.475.312,1.361.227A11.382,11.382,0,0,1-28.171-.9,6.366,6.366,0,0,1-28.83.681L-30.178.1a5.169,5.169,0,0,0,.631-1.383A10.546,10.546,0,0,0-29.171-2.921Zm-3.715-9.147,1.461.553q-.284.553-.6,1.127t-.61,1.1q-.3.525-.567.936l-1.12-.5q.255-.425.525-.986t.511-1.142Q-33.042-11.558-32.886-12.068Zm1.588,1.716,1.376.638q-.525.794-1.134,1.673t-1.22,1.688q-.61.808-1.163,1.418l-.964-.553q.4-.468.83-1.071t.844-1.262q.411-.659.78-1.312T-31.3-10.352Zm-3.786,1.6.837-1.135q.369.326.752.73t.7.794a4.013,4.013,0,0,1,.489.73l-.922,1.3a4.441,4.441,0,0,0-.461-.78q-.3-.425-.674-.858T-35.084-8.75Zm3.3,1.787,1.191-.5q.284.468.553,1.014t.482,1.064a5.325,5.325,0,0,1,.3.929l-1.276.581a5.52,5.52,0,0,0-.269-.95q-.2-.539-.447-1.1A10.217,10.217,0,0,0-31.78-6.963ZM-35.113-5.8q.936-.057,2.241-.149t2.652-.191l.014,1.3q-1.22.142-2.446.269t-2.234.241Zm3.673,2.439,1.205-.4a14.5,14.5,0,0,1,.5,1.361A11.133,11.133,0,0,1-29.4-1.134l-1.276.454a12.821,12.821,0,0,0-.319-1.3Q-31.213-2.737-31.44-3.361Zm-3.092-.369,1.376.227Q-33.283-2.482-33.5-1.5A9.2,9.2,0,0,1-34.021.17q-.142-.085-.369-.2t-.461-.227a3.468,3.468,0,0,0-.4-.17,5.849,5.849,0,0,0,.482-1.517A16.533,16.533,0,0,0-34.531-3.73Zm1.588-1.347h1.461V1.262h-1.461Zm15.231-2.4h7.1v1.5h-7.1ZM-17.9-.737h7.332v1.5H-17.9Zm-.752-3.815H-9.6V1.29h-1.758V-3.063h-5.616V1.29h-1.673Zm4.425-5.814a11.889,11.889,0,0,1-1.468,1.7,18.243,18.243,0,0,1-1.971,1.659A20.5,20.5,0,0,1-19.91-5.573q-.113-.2-.291-.454t-.383-.5a3.443,3.443,0,0,0-.4-.418,14.8,14.8,0,0,0,2.361-1.461,15.966,15.966,0,0,0,2.021-1.8,11.124,11.124,0,0,0,1.418-1.815h1.773a13.023,13.023,0,0,0,1.276,1.546,16.424,16.424,0,0,0,1.5,1.376A13,13,0,0,0-9.005-7.97a13.3,13.3,0,0,0,1.688.837,6.236,6.236,0,0,0-.6.73q-.284.4-.511.8a17.155,17.155,0,0,1-1.659-.986q-.837-.56-1.61-1.191a18.14,18.14,0,0,1-1.425-1.29A10.586,10.586,0,0,1-14.224-10.366ZM-.638-11.1q-.057.269-.128.589t-.128.589q-.057.312-.142.7t-.163.78q-.078.39-.163.759-.142.61-.355,1.418t-.5,1.737Q-2.5-3.6-2.85-2.666T-3.6-.844a12.248,12.248,0,0,1-.851,1.6L-6.3.014a11.065,11.065,0,0,0,.929-1.5q.433-.83.787-1.7t.631-1.73q.277-.858.482-1.6t.319-1.262q.2-.964.312-1.858a10.455,10.455,0,0,0,.085-1.688ZM4.24-9.672a9.986,9.986,0,0,1,.7,1.142q.362.674.716,1.425T6.3-5.658q.284.695.44,1.205l-1.8.823a11.589,11.589,0,0,0-.376-1.319q-.248-.723-.574-1.468T3.3-7.828a6.671,6.671,0,0,0-.745-1.12ZM-6.4-8.2q.383.028.759.021t.759-.021q.355-.014.851-.05l1.057-.078q.56-.043,1.127-.092t1.049-.078q.482-.028.794-.028a3.3,3.3,0,0,1,1.333.248,1.892,1.892,0,0,1,.9.844,3.32,3.32,0,0,1,.333,1.617Q2.567-4.978,2.5-4a15.3,15.3,0,0,1-.248,1.872A6.025,6.025,0,0,1,1.758-.61,2,2,0,0,1,.83.411a3.188,3.188,0,0,1-1.4.284A6.434,6.434,0,0,1-1.432.631Q-1.9.567-2.269.5l-.3-1.872q.269.071.6.142t.638.113a3.719,3.719,0,0,0,.489.043,1.378,1.378,0,0,0,.624-.135,1.008,1.008,0,0,0,.44-.475A4.447,4.447,0,0,0,.553-2.751,13.07,13.07,0,0,0,.745-4.162q.064-.759.064-1.454a1.663,1.663,0,0,0-.163-.837.8.8,0,0,0-.468-.362,2.6,2.6,0,0,0-.745-.092q-.326,0-.879.05t-1.184.113q-.631.064-1.17.135t-.837.1q-.312.057-.787.121t-.8.121ZM3.985-11.643q.184.255.39.61t.4.709q.2.355.34.624l-1.149.5q-.142-.3-.326-.652t-.383-.709a4.878,4.878,0,0,0-.4-.61Zm1.688-.638q.184.269.4.624t.418.709q.206.355.319.6l-1.12.482q-.227-.44-.539-1a8.487,8.487,0,0,0-.61-.957Zm9.6,1.744q-.1.142-.22.319t-.234.347q-.255.383-.56.886T13.628-7.92Q13.3-7.36,13-6.807t-.574,1.021a3.086,3.086,0,0,1,.808-.326,3.494,3.494,0,0,1,.823-.1,1.667,1.667,0,0,1,1.255.475,2.033,2.033,0,0,1,.5,1.368q.014.312.014.752t.007.879q.007.44.035.737a.759.759,0,0,0,.3.589,1.075,1.075,0,0,0,.617.177,1.392,1.392,0,0,0,.83-.269,2.592,2.592,0,0,0,.674-.745,5.7,5.7,0,0,0,.518-1.078,11.394,11.394,0,0,0,.376-1.255l1.532,1.248a9,9,0,0,1-.936,2.12A4.274,4.274,0,0,1,18.4.206a3.557,3.557,0,0,1-1.907.5,2.776,2.776,0,0,1-1.3-.277,1.873,1.873,0,0,1-.78-.723,2.166,2.166,0,0,1-.284-.971q-.028-.383-.035-.851t-.014-.915q-.007-.447-.035-.73a.887.887,0,0,0-.241-.581.805.805,0,0,0-.6-.213,1.534,1.534,0,0,0-.893.3,3.275,3.275,0,0,0-.773.78,5.8,5.8,0,0,0-.6,1.064q-.142.312-.3.737t-.3.879q-.142.454-.269.858T9.856.752l-2-.681q.269-.709.659-1.624t.858-1.922q.468-1.007.95-2t.922-1.879q.44-.886.787-1.546t.532-1q.142-.284.326-.638t.369-.808ZM21.91-9.119h4.623v1.574H21.91Zm1.744-2.936h1.574V1.262H23.654Zm0,4.027.964.312q-.156.851-.383,1.758t-.518,1.78a16.872,16.872,0,0,1-.631,1.624,8.331,8.331,0,0,1-.723,1.3,5.2,5.2,0,0,0-.347-.78q-.234-.44-.433-.737a6.961,6.961,0,0,0,.667-1.092q.312-.624.589-1.333t.482-1.439Q23.527-7.36,23.654-8.027Zm1.5,1.064q.113.142.355.489t.511.745q.269.4.5.745t.312.489l-.879,1.319q-.113-.312-.3-.73t-.4-.865q-.22-.447-.425-.837l-.333-.631Zm2.95-1.815h5.176v1.39H28.107Zm2.538-1.787a7.929,7.929,0,0,1-.971,1.156A11.328,11.328,0,0,1,28.384-8.3a9.844,9.844,0,0,1-1.439.886,5.335,5.335,0,0,0-.369-.737,7.913,7.913,0,0,0-.44-.681A7.824,7.824,0,0,0,27.6-9.693,9.459,9.459,0,0,0,28.88-10.82a7.648,7.648,0,0,0,.943-1.205h1.546A9.574,9.574,0,0,0,32.5-10.742a9.758,9.758,0,0,0,1.347,1.078,7.505,7.505,0,0,0,1.454.759,6.748,6.748,0,0,0-.468.716q-.241.418-.411.773a10.144,10.144,0,0,1-1.4-.858,12.227,12.227,0,0,1-1.333-1.113A9.228,9.228,0,0,1,30.646-10.565Zm-2.17,5.389v1.333h4.439V-5.176ZM27-6.481h7.445v3.942H27ZM29.88-7.9h1.532v3.63a7.913,7.913,0,0,1-.163,1.581,4.7,4.7,0,0,1-.631,1.553A5.038,5.038,0,0,1,29.27.255a8.156,8.156,0,0,1-2.283,1.092,2.192,2.192,0,0,0-.234-.425Q26.59.681,26.405.447a2.96,2.96,0,0,0-.326-.362,8.67,8.67,0,0,0,2.056-.908A3.716,3.716,0,0,0,29.27-1.893a3.407,3.407,0,0,0,.489-1.184,6.42,6.42,0,0,0,.121-1.248Zm1.645,4.51a6.733,6.733,0,0,0,.993,1.7,4.164,4.164,0,0,0,1.212,1,7.9,7.9,0,0,0,1.482.6,3.542,3.542,0,0,0-.574.645,3.364,3.364,0,0,0-.418.773A8.535,8.535,0,0,1,32.553.468,5.462,5.462,0,0,1,31.185-.886a8.83,8.83,0,0,1-1.092-2.191Zm13.458-6.991a9.83,9.83,0,0,1-.908,1.333,12.391,12.391,0,0,1-1.227,1.326,9.547,9.547,0,0,1-1.411,1.1,7.56,7.56,0,0,0-.383-.745,5.635,5.635,0,0,0-.468-.7,7.234,7.234,0,0,0,1.439-1.085,10.914,10.914,0,0,0,1.241-1.411,9.393,9.393,0,0,0,.879-1.418H45.72a11.976,11.976,0,0,0,1.056,1.475,10.416,10.416,0,0,0,1.283,1.3,7.262,7.262,0,0,0,1.376.929,5.577,5.577,0,0,0-.489.73q-.248.433-.418.8a8.578,8.578,0,0,1-1.347-1.021,13.213,13.213,0,0,1-1.234-1.29A11.883,11.883,0,0,1,44.983-10.381Zm-.028,2.127,1.475.581a8.818,8.818,0,0,1-1.007,1.113,11.275,11.275,0,0,1-1.2.979,11.856,11.856,0,0,1-1.269.787,6.414,6.414,0,0,0-.489-.525,4.762,4.762,0,0,0-.589-.5,11.936,11.936,0,0,0,1.142-.674,9.317,9.317,0,0,0,1.1-.851A5.855,5.855,0,0,0,44.955-8.253Zm1.29,2.028,1.489.638A9.8,9.8,0,0,1,46.387-4.2a13.6,13.6,0,0,1-1.631,1.191A15.9,15.9,0,0,1,43-2.056a6.675,6.675,0,0,0-.482-.61,4.622,4.622,0,0,0-.581-.567,11.808,11.808,0,0,0,1.624-.78,12.456,12.456,0,0,0,1.524-1.028A6.09,6.09,0,0,0,46.245-6.226Zm1.106,2.255,1.532.667A9.728,9.728,0,0,1,46.068-.511,15.95,15.95,0,0,1,42.288,1.3,5.511,5.511,0,0,0,41.82.553a5.872,5.872,0,0,0-.6-.709,14.133,14.133,0,0,0,2.453-.872A11.019,11.019,0,0,0,45.8-2.3,6.8,6.8,0,0,0,47.351-3.971ZM36.545-7.7h4.283v1.29H36.545Zm.057-3.9h4.2v1.276H36.6Zm-.057,5.843h4.283v1.276H36.545ZM35.879-9.7h5.361v1.347H35.879Zm1.4,5.9h3.574V.525H37.282V-.823H39.4V-2.453H37.282Zm-.766,0h1.432V1.078H36.517Zm21.5-5.914q-.142,1.078-.369,2.3a22.35,22.35,0,0,1-.61,2.468,12.676,12.676,0,0,1-.964,2.468,5.409,5.409,0,0,1-1.212,1.6,2.177,2.177,0,0,1-1.439.56,2.244,2.244,0,0,1-1.439-.532,3.632,3.632,0,0,1-1.049-1.468,5.488,5.488,0,0,1-.39-2.127,5.555,5.555,0,0,1,.5-2.326,6.187,6.187,0,0,1,1.383-1.936,6.555,6.555,0,0,1,2.07-1.326,6.722,6.722,0,0,1,2.56-.482,6.311,6.311,0,0,1,2.375.425A5.346,5.346,0,0,1,61.235-8.92a5.109,5.109,0,0,1,1.149,1.758,5.861,5.861,0,0,1,.4,2.17,5.71,5.71,0,0,1-.61,2.666A5.041,5.041,0,0,1,60.362-.383,7.753,7.753,0,0,1,57.377.667L56.314-1.021q.411-.043.723-.1t.6-.128A5.4,5.4,0,0,0,58.9-1.737a3.961,3.961,0,0,0,1.028-.794,3.474,3.474,0,0,0,.688-1.113,3.842,3.842,0,0,0,.248-1.4,4.412,4.412,0,0,0-.255-1.532,3.448,3.448,0,0,0-.752-1.212,3.312,3.312,0,0,0-1.205-.794,4.467,4.467,0,0,0-1.631-.277,4.676,4.676,0,0,0-2,.4,4.681,4.681,0,0,0-1.461,1.042,4.576,4.576,0,0,0-.9,1.376,3.675,3.675,0,0,0-.3,1.4,3.546,3.546,0,0,0,.17,1.184,1.792,1.792,0,0,0,.418.709.765.765,0,0,0,.532.234.828.828,0,0,0,.589-.3,3.4,3.4,0,0,0,.574-.929,12.567,12.567,0,0,0,.567-1.574A19.369,19.369,0,0,0,55.761-7.5a22.227,22.227,0,0,0,.326-2.269Zm7.2-1.461H76.565v1.688H65.22Zm-.752,6.013H77.387v1.716H64.468Zm1.6-3.4,1.56-.468q.241.468.475.986t.411,1.021a7.459,7.459,0,0,1,.262.9L67.12-5.6a7.6,7.6,0,0,0-.227-.9q-.156-.5-.369-1.049A10.685,10.685,0,0,0,66.07-8.565Zm8.083-.511,1.829.468q-.255.553-.532,1.092t-.539,1.028q-.262.489-.5.858L72.92-6.07q.227-.411.461-.936t.44-1.064Q74.026-8.608,74.154-9.076Zm-4.141-1.39h1.773V1.262H70.013Zm14.21,3.588h4.169v1.517H84.222ZM83.485-2.51q.638-.184,1.461-.461t1.751-.61q.929-.333,1.851-.659l.3,1.446Q87.64-2.3,86.4-1.8t-2.262.908Zm1.4-7.261h5.417v1.6H84.889Zm4.907,0h1.716v.5a2.579,2.579,0,0,1-.014.3q-.071,2.368-.156,4.035t-.184,2.744A11.588,11.588,0,0,1,90.9-.489a2.614,2.614,0,0,1-.369.9,1.737,1.737,0,0,1-.6.574,2.215,2.215,0,0,1-.737.22,6.115,6.115,0,0,1-.979.078q-.581.007-1.191-.021A3.319,3.319,0,0,0,86.86.39a3.883,3.883,0,0,0-.383-.858q.624.057,1.149.064t.78.007a.959.959,0,0,0,.34-.05A.652.652,0,0,0,89-.652a1.584,1.584,0,0,0,.291-.737,14.284,14.284,0,0,0,.213-1.6q.092-1.035.163-2.616T89.8-9.4Zm-4.878-2.312,1.744.4a16.988,16.988,0,0,1-.737,2.134,16.656,16.656,0,0,1-.971,1.95,9.758,9.758,0,0,1-1.127,1.574q-.156-.142-.425-.355T82.854-6.8a3.449,3.449,0,0,0-.5-.319A8.1,8.1,0,0,0,83.889-9.31,13.94,13.94,0,0,0,84.917-12.082Zm-6.3,3.219h4.524v1.6H78.621Zm1.532-3.006H81.8v9.431H80.152ZM78.309-2.694q.624-.2,1.432-.5T81.45-3.85q.9-.347,1.78-.7L83.6-2.978q-1.177.525-2.418,1.049t-2.262.95Zm18.351-7.97h9.062v1.532H96.659Zm.142,3.3h8.849V.879h-1.645v-6.75H98.361V.964H96.8Zm2.3-3.106h1.6v4.212H99.1Zm2.538-.014h1.6v4.212h-1.6ZM97.51-1.3h7.7V.156h-7.7Zm1.744-4.963h1.432v6.1H99.254Zm2.382-.014h1.432v6.1h-1.432Zm-6.2-5.729,1.532.482a21.7,21.7,0,0,1-1.021,2.34A21.48,21.48,0,0,1,94.66-6.97a14.572,14.572,0,0,1-1.432,1.836q-.085-.2-.234-.525t-.326-.659a4.888,4.888,0,0,0-.319-.532,10.5,10.5,0,0,0,1.2-1.454,15.227,15.227,0,0,0,1.057-1.78A17.232,17.232,0,0,0,95.44-12.012ZM94.078-8.055l1.588-1.6.014.028V1.262h-1.6Zm20.237-2.5h3.744V-9.09h-3.744Zm-1.461,6.5h6.183v5.29h-1.645V-2.624h-2.964v3.9h-1.574Zm.624,3.375H118.3V.78h-4.822Zm.993-11.388,1.631.454a15.206,15.206,0,0,1-.936,1.886A14.583,14.583,0,0,1,114-8.012a11.208,11.208,0,0,1-1.3,1.39A3.77,3.77,0,0,0,112.33-7q-.241-.22-.489-.433a4.17,4.17,0,0,0-.447-.34,8.836,8.836,0,0,0,1.794-1.893A10.264,10.264,0,0,0,114.471-12.068Zm3.148,1.517h.3l.284-.057,1.078.5a11.194,11.194,0,0,1-1.17,2.468,10.454,10.454,0,0,1-1.652,2A12.216,12.216,0,0,1,114.421-4.1a13.069,13.069,0,0,1-2.3,1.106,7.8,7.8,0,0,0-.433-.709,4.489,4.489,0,0,0-.532-.667,10.064,10.064,0,0,0,2.12-.9A11,11,0,0,0,115.145-6.6a9.2,9.2,0,0,0,1.5-1.688,7.642,7.642,0,0,0,.979-1.978Zm-3.233.993a8.455,8.455,0,0,0,1.262,1.893,9.539,9.539,0,0,0,2.007,1.737,9.637,9.637,0,0,0,2.673,1.205,5.256,5.256,0,0,0-.362.411q-.206.255-.383.525t-.291.468a10.3,10.3,0,0,1-2.744-1.439,10.8,10.8,0,0,1-2.07-1.992,11.735,11.735,0,0,1-1.368-2.156ZM107-9.119h5.063v1.574H107Zm1.872-2.936h1.6V1.262h-1.6Zm-.028,4.027.979.326q-.17.851-.4,1.766t-.546,1.787q-.312.872-.667,1.624a7.749,7.749,0,0,1-.752,1.29,4.861,4.861,0,0,0-.355-.78q-.241-.44-.44-.752a7,7,0,0,0,.695-1.092q.326-.624.617-1.326a15.158,15.158,0,0,0,.511-1.432Q108.7-7.346,108.841-8.027Zm1.574.766a4.9,4.9,0,0,1,.376.4q.248.284.532.624t.518.624q.234.284.333.4l-.922,1.29q-.128-.269-.333-.624t-.44-.737q-.234-.383-.454-.723t-.376-.553Z" transform="translate(5148.444 2025.246)" fill="#fff"/>
      <g id="グループ_6" data-name="グループ 6">
        <path id="パス_783" data-name="パス 783" d="M-13.153-9.59v1.259H-4.68V-9.59Zm0-2.836v1.205H-4.68v-1.205Zm-2.127-1.755H-2.464v7.6H-15.28Zm5.265.833h2.145v5.885h-2.145Zm-6.452,8.012h13.4v1.9h-13.4Zm12.444,0h2.163l-.009.151q-.009.151-.018.346t-.027.337q-.142,1.631-.319,2.694a10.466,10.466,0,0,1-.4,1.693A2.292,2.292,0,0,1-3.155.8a2.1,2.1,0,0,1-.771.505,3.553,3.553,0,0,1-.984.186q-.479.035-1.241.035t-1.6-.018A4.172,4.172,0,0,0-7.968.514a3.8,3.8,0,0,0-.47-.957q.815.071,1.578.089t1.117.018a3.262,3.262,0,0,0,.452-.027.621.621,0,0,0,.328-.151,1.535,1.535,0,0,0,.381-.7,9.23,9.23,0,0,0,.3-1.462q.133-.94.239-2.375Zm-6.311-1.6H-8.1a21.841,21.841,0,0,1-.39,2.3,8.238,8.238,0,0,1-.745,2.03A6.412,6.412,0,0,1-10.592-.877,8.5,8.5,0,0,1-12.8.532a16.164,16.164,0,0,1-3.315,1.046,3.4,3.4,0,0,0-.275-.62q-.186-.337-.4-.674a3.263,3.263,0,0,0-.443-.567A16.02,16.02,0,0,0-14.252-1.1,7.383,7.383,0,0,0-12.329-2.18,4.406,4.406,0,0,0-11.2-3.519a6.421,6.421,0,0,0,.585-1.6A14.085,14.085,0,0,0-10.335-6.931ZM2.641-15.068H4.768V1.578H2.641ZM1.152-11.646l1.507.213q-.035.762-.142,1.666T2.242-7.995a15.119,15.119,0,0,1-.381,1.56L.284-7A10.157,10.157,0,0,0,.665-8.4q.168-.815.3-1.666T1.152-11.646Zm3.209.124,1.436-.6a14.621,14.621,0,0,1,.709,1.489,10.289,10.289,0,0,1,.479,1.383l-1.542.709a5.992,5.992,0,0,0-.248-.9q-.177-.505-.39-1.055T4.361-11.522Zm3.35-2.73,2.074.319q-.177,1.312-.47,2.6a23.171,23.171,0,0,1-.674,2.393A12.253,12.253,0,0,1,7.8-7a5.379,5.379,0,0,0-.55-.337Q6.9-7.534,6.532-7.7T5.9-7.977a8.354,8.354,0,0,0,.833-1.755A16.8,16.8,0,0,0,7.33-11.9Q7.569-13.064,7.711-14.252Zm.638,2.783h8.19v2H7.729Zm2.429-3.492H12.9V.16H10.778ZM7.321-6.541h8.828v1.985H7.321ZM5.992-1.01h11.1V1.028H5.992Z" transform="translate(5013.666 2062.206)" fill="#fff"/>
        <path id="パス_782" data-name="パス 782" d="M-43.244-7.037l1.719-.851q.461.6.922,1.321t.833,1.418a7.548,7.548,0,0,1,.55,1.267l-1.844.957a8.377,8.377,0,0,0-.505-1.267q-.346-.718-.78-1.462T-43.244-7.037Zm.6-5.017h6.364v2.021h-6.364Zm5.442,0h2.056v.62a3.127,3.127,0,0,1-.018.372q-.089,2.925-.186,4.972t-.239,3.377A16.754,16.754,0,0,1-35.914-.62,2.935,2.935,0,0,1-36.384.5a2.183,2.183,0,0,1-.771.709,3.4,3.4,0,0,1-.966.284,8.7,8.7,0,0,1-1.232.071q-.753,0-1.551-.018A4.124,4.124,0,0,0-41.117.47a4.383,4.383,0,0,0-.5-1.072q.851.071,1.56.089t1.046.018a1.187,1.187,0,0,0,.452-.071,1.042,1.042,0,0,0,.328-.23,2.193,2.193,0,0,0,.372-.94,16.227,16.227,0,0,0,.275-1.994q.115-1.285.213-3.235t.168-4.662Zm-5.336-3.031,2.2.5a23.777,23.777,0,0,1-.9,2.579,21.457,21.457,0,0,1-1.143,2.366,13.159,13.159,0,0,1-1.294,1.914,6.773,6.773,0,0,0-.55-.443q-.337-.248-.709-.479t-.638-.372A8.679,8.679,0,0,0-44.308-10.7a15.621,15.621,0,0,0,1.019-2.092A18.612,18.612,0,0,0-42.535-15.085Zm-6.257.035,1.879.656q-.355.691-.745,1.409T-48.42-11.6a12.593,12.593,0,0,1-.727,1.161l-1.436-.585q.319-.55.656-1.25t.638-1.427Q-48.987-14.429-48.792-15.05Zm2.127,2.109,1.808.745q-.656,1.01-1.418,2.118t-1.542,2.118q-.78,1.01-1.454,1.773l-1.294-.656q.514-.6,1.046-1.365t1.055-1.578q.523-.815.993-1.64T-46.665-12.94Zm-4.857,2.092,1.01-1.454q.461.39.957.877t.913.966a4.7,4.7,0,0,1,.629.886l-1.081,1.649a6.678,6.678,0,0,0-.612-.931q-.4-.523-.877-1.046T-51.522-10.849Zm4.432,2.18,1.507-.656q.355.585.691,1.259t.585,1.321a9.549,9.549,0,0,1,.372,1.161l-1.631.745A10.056,10.056,0,0,0-45.9-6q-.23-.665-.541-1.365T-47.091-8.668ZM-51.522-7.25q1.223-.035,2.951-.106t3.519-.16l-.018,1.684q-1.666.124-3.315.239t-2.96.186Zm4.733,3.014,1.56-.514a17.159,17.159,0,0,1,.691,1.737,13.842,13.842,0,0,1,.461,1.631l-1.649.6a13.676,13.676,0,0,0-.425-1.675Q-46.452-3.421-46.789-4.237Zm-3.971-.408,1.755.319a22.378,22.378,0,0,1-.425,2.517A11.89,11.89,0,0,1-50.086.284a3.891,3.891,0,0,0-.479-.275q-.3-.151-.612-.292A4.56,4.56,0,0,0-51.717-.5,8.106,8.106,0,0,0-51.1-2.4,20.314,20.314,0,0,0-50.76-4.644ZM-48.7-6.311h1.879V1.6H-48.7ZM-33.494,0V-1.507q1.79-1.6,3.058-2.96A14.208,14.208,0,0,0-28.5-7.011,4.462,4.462,0,0,0-27.822-9.2a2.547,2.547,0,0,0-.23-1.117,1.677,1.677,0,0,0-.665-.736,2.074,2.074,0,0,0-1.072-.257,2.288,2.288,0,0,0-1.3.4,5.9,5.9,0,0,0-1.09.948l-1.454-1.4a7.122,7.122,0,0,1,1.888-1.5,4.892,4.892,0,0,1,2.3-.505,4.482,4.482,0,0,1,2.172.505,3.605,3.605,0,0,1,1.445,1.409,4.231,4.231,0,0,1,.514,2.127,5.545,5.545,0,0,1-.594,2.42A12.6,12.6,0,0,1-27.5-4.449a29.4,29.4,0,0,1-2.2,2.411q.514-.071,1.108-.115t1.055-.044H-24.7V0Zm10.459,0V-1.507q1.79-1.6,3.058-2.96a14.208,14.208,0,0,0,1.941-2.544A4.462,4.462,0,0,0-17.363-9.2a2.547,2.547,0,0,0-.23-1.117,1.677,1.677,0,0,0-.665-.736,2.074,2.074,0,0,0-1.072-.257,2.288,2.288,0,0,0-1.3.4,5.9,5.9,0,0,0-1.09.948l-1.454-1.4a7.122,7.122,0,0,1,1.888-1.5,4.892,4.892,0,0,1,2.3-.505,4.482,4.482,0,0,1,2.172.505,3.605,3.605,0,0,1,1.445,1.409,4.231,4.231,0,0,1,.514,2.127,5.545,5.545,0,0,1-.594,2.42,12.6,12.6,0,0,1-1.587,2.455,29.4,29.4,0,0,1-2.2,2.411q.514-.071,1.108-.115T-17.08-2.2h2.836V0ZM-8.429.248A6.4,6.4,0,0,1-10.29,0a5.846,5.846,0,0,1-1.454-.656,7.252,7.252,0,0,1-1.134-.886l1.205-1.666a5.874,5.874,0,0,0,.807.674,3.82,3.82,0,0,0,.957.479,3.484,3.484,0,0,0,1.126.177,2.469,2.469,0,0,0,1.2-.284,2.05,2.05,0,0,0,.824-.824,2.638,2.638,0,0,0,.3-1.3,2.394,2.394,0,0,0-.612-1.755,2.152,2.152,0,0,0-1.6-.62,2.817,2.817,0,0,0-.975.151,5.489,5.489,0,0,0-.993.523l-1.188-.762.355-6.382h7.02v2.2H-9.227l-.248,2.783a4.192,4.192,0,0,1,.762-.266A3.519,3.519,0,0,1-7.9-8.509a4.681,4.681,0,0,1,2.021.434A3.353,3.353,0,0,1-4.405-6.718a4.55,4.55,0,0,1,.55,2.358A4.611,4.611,0,0,1-4.5-1.87,4.312,4.312,0,0,1-6.187-.292,4.778,4.778,0,0,1-8.429.248Zm7.037,3.545-.55-1.418A3.942,3.942,0,0,0-.355,1.312,2.168,2.168,0,0,0,.2-.124L.115-1.985,1.037-.443a1.335,1.335,0,0,1-.47.284,1.647,1.647,0,0,1-.541.089,1.761,1.761,0,0,1-1.134-.4,1.382,1.382,0,0,1-.5-1.143,1.4,1.4,0,0,1,.5-1.117A1.789,1.789,0,0,1,.1-3.155a1.59,1.59,0,0,1,1.374.682A3.2,3.2,0,0,1,1.959-.585,4.3,4.3,0,0,1,1.09,2.109,5.087,5.087,0,0,1-1.392,3.793ZM8.11.248A3.713,3.713,0,0,1,5.779-.523a4.952,4.952,0,0,1-1.56-2.3,11.2,11.2,0,0,1-.558-3.8,10.832,10.832,0,0,1,.558-3.749,4.778,4.778,0,0,1,1.56-2.242,3.8,3.8,0,0,1,2.331-.745,3.76,3.76,0,0,1,2.34.753A4.869,4.869,0,0,1,12-10.37a10.756,10.756,0,0,1,.558,3.74A11.2,11.2,0,0,1,12-2.827a4.984,4.984,0,0,1-1.551,2.3A3.7,3.7,0,0,1,8.11.248Zm0-2.039a1.411,1.411,0,0,0,1.028-.443,3.132,3.132,0,0,0,.691-1.5,13.258,13.258,0,0,0,.248-2.9,12.9,12.9,0,0,0-.248-2.863,2.921,2.921,0,0,0-.691-1.454,1.455,1.455,0,0,0-1.028-.417,1.445,1.445,0,0,0-1,.417A2.97,2.97,0,0,0,6.39-9.493,12.069,12.069,0,0,0,6.125-6.63a12.4,12.4,0,0,0,.266,2.9,3.184,3.184,0,0,0,.718,1.5A1.4,1.4,0,0,0,8.11-1.79ZM18.569.248a3.713,3.713,0,0,1-2.331-.771,4.952,4.952,0,0,1-1.56-2.3,11.2,11.2,0,0,1-.558-3.8,10.832,10.832,0,0,1,.558-3.749,4.778,4.778,0,0,1,1.56-2.242,3.8,3.8,0,0,1,2.331-.745,3.76,3.76,0,0,1,2.34.753A4.869,4.869,0,0,1,22.46-10.37a10.756,10.756,0,0,1,.558,3.74,11.2,11.2,0,0,1-.558,3.8,4.984,4.984,0,0,1-1.551,2.3A3.7,3.7,0,0,1,18.569.248Zm0-2.039A1.411,1.411,0,0,0,19.6-2.234a3.132,3.132,0,0,0,.691-1.5,13.258,13.258,0,0,0,.248-2.9,12.9,12.9,0,0,0-.248-2.863,2.921,2.921,0,0,0-.691-1.454,1.455,1.455,0,0,0-1.028-.417,1.445,1.445,0,0,0-1,.417,2.97,2.97,0,0,0-.718,1.454,12.068,12.068,0,0,0-.266,2.863,12.4,12.4,0,0,0,.266,2.9,3.184,3.184,0,0,0,.718,1.5A1.4,1.4,0,0,0,18.569-1.79ZM29.027.248A3.713,3.713,0,0,1,26.7-.523a4.952,4.952,0,0,1-1.56-2.3,11.2,11.2,0,0,1-.558-3.8,10.832,10.832,0,0,1,.558-3.749,4.778,4.778,0,0,1,1.56-2.242,3.8,3.8,0,0,1,2.331-.745,3.76,3.76,0,0,1,2.34.753,4.869,4.869,0,0,1,1.551,2.242,10.756,10.756,0,0,1,.558,3.74,11.2,11.2,0,0,1-.558,3.8,4.984,4.984,0,0,1-1.551,2.3A3.7,3.7,0,0,1,29.027.248Zm0-2.039a1.411,1.411,0,0,0,1.028-.443,3.132,3.132,0,0,0,.691-1.5,13.258,13.258,0,0,0,.248-2.9,12.9,12.9,0,0,0-.248-2.863,2.921,2.921,0,0,0-.691-1.454,1.455,1.455,0,0,0-1.028-.417,1.445,1.445,0,0,0-1,.417,2.97,2.97,0,0,0-.718,1.454,12.068,12.068,0,0,0-.266,2.863,12.4,12.4,0,0,0,.266,2.9,3.184,3.184,0,0,0,.718,1.5A1.4,1.4,0,0,0,29.027-1.79Zm6.647-12.143h13.9v2.109H37.8v13.4H35.675Zm12.887,0h2.145V-.9A3.422,3.422,0,0,1,50.494.434a1.5,1.5,0,0,1-.762.753,3.816,3.816,0,0,1-1.374.328q-.824.062-2.012.062a5.434,5.434,0,0,0-.177-.691Q46.045.5,45.885.115a6.426,6.426,0,0,0-.319-.665q.514.035,1.037.044t.931.009H48.1a.583.583,0,0,0,.355-.115.429.429,0,0,0,.106-.328ZM36.827-7.339H49.608v2.092H36.827ZM42-12.781H44.13v6.488H42Z" transform="translate(5086.608 2062.206)" fill="#fff"/>
      </g>
      <g id="グループ_7" data-name="グループ 7">
        <path id="パス_785" data-name="パス 785" d="M-16.929-11.044H-.745v2.163H-16.929Zm6.346-4.024,2.34.425q-.532,1.436-1.143,3t-1.25,3.1q-.638,1.542-1.25,2.96t-1.143,2.57l-2.163-.762q.514-1.1,1.126-2.473t1.232-2.889q.62-1.516,1.205-3.031T-10.583-15.068ZM-5.619-9.98l2.34.514A19.359,19.359,0,0,1-4.733-4.777,9.765,9.765,0,0,1-7.108-1.587,10.982,10.982,0,0,1-10.663.434a27.05,27.05,0,0,1-4.99,1.2A5.607,5.607,0,0,0-16.113.514,5.985,5.985,0,0,0-16.769-.5a24.117,24.117,0,0,0,4.591-.913A9.5,9.5,0,0,0-8.961-3.1,8.068,8.068,0,0,0-6.851-5.859,15.778,15.778,0,0,0-5.619-9.98Zm-8.4,5.832L-12.6-5.8q1.436.461,3.031,1.108t3.191,1.383q1.6.736,2.978,1.5A20.644,20.644,0,0,1-1.046-.319l-1.613,2A18.681,18.681,0,0,0-4.875.16Q-6.2-.638-7.755-1.418T-10.928-2.9Q-12.55-3.6-14.022-4.148ZM2.641-15.068H4.768V1.578H2.641ZM1.152-11.646l1.507.213q-.035.762-.142,1.666T2.242-7.995a15.119,15.119,0,0,1-.381,1.56L.284-7A10.157,10.157,0,0,0,.665-8.4q.168-.815.3-1.666T1.152-11.646Zm3.209.124,1.436-.6a14.621,14.621,0,0,1,.709,1.489,10.289,10.289,0,0,1,.479,1.383l-1.542.709a5.992,5.992,0,0,0-.248-.9q-.177-.505-.39-1.055T4.361-11.522Zm3.35-2.73,2.074.319q-.177,1.312-.47,2.6a23.171,23.171,0,0,1-.674,2.393A12.253,12.253,0,0,1,7.8-7a5.379,5.379,0,0,0-.55-.337Q6.9-7.534,6.532-7.7T5.9-7.977a8.354,8.354,0,0,0,.833-1.755A16.8,16.8,0,0,0,7.33-11.9Q7.569-13.064,7.711-14.252Zm.638,2.783h8.19v2H7.729Zm2.429-3.492H12.9V.16H10.778ZM7.321-6.541h8.828v1.985H7.321ZM5.992-1.01h11.1V1.028H5.992Z" transform="translate(5175.329 2062.206)" fill="#fff"/>
        <path id="パス_784" data-name="パス 784" d="M-43.244-7.037l1.719-.851q.461.6.922,1.321t.833,1.418a7.548,7.548,0,0,1,.55,1.267l-1.844.957a8.377,8.377,0,0,0-.505-1.267q-.346-.718-.78-1.462T-43.244-7.037Zm.6-5.017h6.364v2.021h-6.364Zm5.442,0h2.056v.62a3.127,3.127,0,0,1-.018.372q-.089,2.925-.186,4.972t-.239,3.377A16.754,16.754,0,0,1-35.914-.62,2.935,2.935,0,0,1-36.384.5a2.183,2.183,0,0,1-.771.709,3.4,3.4,0,0,1-.966.284,8.7,8.7,0,0,1-1.232.071q-.753,0-1.551-.018A4.124,4.124,0,0,0-41.117.47a4.383,4.383,0,0,0-.5-1.072q.851.071,1.56.089t1.046.018a1.187,1.187,0,0,0,.452-.071,1.042,1.042,0,0,0,.328-.23,2.193,2.193,0,0,0,.372-.94,16.227,16.227,0,0,0,.275-1.994q.115-1.285.213-3.235t.168-4.662Zm-5.336-3.031,2.2.5a23.777,23.777,0,0,1-.9,2.579,21.457,21.457,0,0,1-1.143,2.366,13.159,13.159,0,0,1-1.294,1.914,6.773,6.773,0,0,0-.55-.443q-.337-.248-.709-.479t-.638-.372A8.679,8.679,0,0,0-44.308-10.7a15.621,15.621,0,0,0,1.019-2.092A18.612,18.612,0,0,0-42.535-15.085Zm-6.257.035,1.879.656q-.355.691-.745,1.409T-48.42-11.6a12.593,12.593,0,0,1-.727,1.161l-1.436-.585q.319-.55.656-1.25t.638-1.427Q-48.987-14.429-48.792-15.05Zm2.127,2.109,1.808.745q-.656,1.01-1.418,2.118t-1.542,2.118q-.78,1.01-1.454,1.773l-1.294-.656q.514-.6,1.046-1.365t1.055-1.578q.523-.815.993-1.64T-46.665-12.94Zm-4.857,2.092,1.01-1.454q.461.39.957.877t.913.966a4.7,4.7,0,0,1,.629.886l-1.081,1.649a6.678,6.678,0,0,0-.612-.931q-.4-.523-.877-1.046T-51.522-10.849Zm4.432,2.18,1.507-.656q.355.585.691,1.259t.585,1.321a9.549,9.549,0,0,1,.372,1.161l-1.631.745A10.056,10.056,0,0,0-45.9-6q-.23-.665-.541-1.365T-47.091-8.668ZM-51.522-7.25q1.223-.035,2.951-.106t3.519-.16l-.018,1.684q-1.666.124-3.315.239t-2.96.186Zm4.733,3.014,1.56-.514a17.159,17.159,0,0,1,.691,1.737,13.842,13.842,0,0,1,.461,1.631l-1.649.6a13.676,13.676,0,0,0-.425-1.675Q-46.452-3.421-46.789-4.237Zm-3.971-.408,1.755.319a22.378,22.378,0,0,1-.425,2.517A11.89,11.89,0,0,1-50.086.284a3.891,3.891,0,0,0-.479-.275q-.3-.151-.612-.292A4.56,4.56,0,0,0-51.717-.5,8.106,8.106,0,0,0-51.1-2.4,20.314,20.314,0,0,0-50.76-4.644ZM-48.7-6.311h1.879V1.6H-48.7ZM-33.494,0V-1.507q1.79-1.6,3.058-2.96A14.208,14.208,0,0,0-28.5-7.011,4.462,4.462,0,0,0-27.822-9.2a2.547,2.547,0,0,0-.23-1.117,1.677,1.677,0,0,0-.665-.736,2.074,2.074,0,0,0-1.072-.257,2.288,2.288,0,0,0-1.3.4,5.9,5.9,0,0,0-1.09.948l-1.454-1.4a7.122,7.122,0,0,1,1.888-1.5,4.892,4.892,0,0,1,2.3-.505,4.482,4.482,0,0,1,2.172.505,3.605,3.605,0,0,1,1.445,1.409,4.231,4.231,0,0,1,.514,2.127,5.545,5.545,0,0,1-.594,2.42A12.6,12.6,0,0,1-27.5-4.449a29.4,29.4,0,0,1-2.2,2.411q.514-.071,1.108-.115t1.055-.044H-24.7V0Zm15.67,0V-8.066q0-.567.035-1.356t.071-1.374h-.089q-.23.532-.5,1.064t-.55,1.081l-2.039,3.262h7.055V-3.4h-9.59V-5.176l4.893-7.959H-15.4V0Zm5.938,0V-2.127h2.836v-8.278h-2.393v-1.631a10.712,10.712,0,0,0,1.711-.434,6.284,6.284,0,0,0,1.338-.665h1.932V-2.127H-4V0ZM-1.392,3.793l-.55-1.418A3.942,3.942,0,0,0-.355,1.312,2.168,2.168,0,0,0,.2-.124L.115-1.985,1.037-.443a1.335,1.335,0,0,1-.47.284,1.647,1.647,0,0,1-.541.089,1.761,1.761,0,0,1-1.134-.4,1.382,1.382,0,0,1-.5-1.143,1.4,1.4,0,0,1,.5-1.117A1.789,1.789,0,0,1,.1-3.155a1.59,1.59,0,0,1,1.374.682A3.2,3.2,0,0,1,1.959-.585,4.3,4.3,0,0,1,1.09,2.109,5.087,5.087,0,0,1-1.392,3.793ZM8.11.248A3.713,3.713,0,0,1,5.779-.523a4.952,4.952,0,0,1-1.56-2.3,11.2,11.2,0,0,1-.558-3.8,10.832,10.832,0,0,1,.558-3.749,4.778,4.778,0,0,1,1.56-2.242,3.8,3.8,0,0,1,2.331-.745,3.76,3.76,0,0,1,2.34.753A4.869,4.869,0,0,1,12-10.37a10.756,10.756,0,0,1,.558,3.74A11.2,11.2,0,0,1,12-2.827a4.984,4.984,0,0,1-1.551,2.3A3.7,3.7,0,0,1,8.11.248Zm0-2.039a1.411,1.411,0,0,0,1.028-.443,3.132,3.132,0,0,0,.691-1.5,13.258,13.258,0,0,0,.248-2.9,12.9,12.9,0,0,0-.248-2.863,2.921,2.921,0,0,0-.691-1.454,1.455,1.455,0,0,0-1.028-.417,1.445,1.445,0,0,0-1,.417A2.97,2.97,0,0,0,6.39-9.493,12.069,12.069,0,0,0,6.125-6.63a12.4,12.4,0,0,0,.266,2.9,3.184,3.184,0,0,0,.718,1.5A1.4,1.4,0,0,0,8.11-1.79ZM18.569.248a3.713,3.713,0,0,1-2.331-.771,4.952,4.952,0,0,1-1.56-2.3,11.2,11.2,0,0,1-.558-3.8,10.832,10.832,0,0,1,.558-3.749,4.778,4.778,0,0,1,1.56-2.242,3.8,3.8,0,0,1,2.331-.745,3.76,3.76,0,0,1,2.34.753A4.869,4.869,0,0,1,22.46-10.37a10.756,10.756,0,0,1,.558,3.74,11.2,11.2,0,0,1-.558,3.8,4.984,4.984,0,0,1-1.551,2.3A3.7,3.7,0,0,1,18.569.248Zm0-2.039A1.411,1.411,0,0,0,19.6-2.234a3.132,3.132,0,0,0,.691-1.5,13.258,13.258,0,0,0,.248-2.9,12.9,12.9,0,0,0-.248-2.863,2.921,2.921,0,0,0-.691-1.454,1.455,1.455,0,0,0-1.028-.417,1.445,1.445,0,0,0-1,.417,2.97,2.97,0,0,0-.718,1.454,12.068,12.068,0,0,0-.266,2.863,12.4,12.4,0,0,0,.266,2.9,3.184,3.184,0,0,0,.718,1.5A1.4,1.4,0,0,0,18.569-1.79ZM29.027.248A3.713,3.713,0,0,1,26.7-.523a4.952,4.952,0,0,1-1.56-2.3,11.2,11.2,0,0,1-.558-3.8,10.832,10.832,0,0,1,.558-3.749,4.778,4.778,0,0,1,1.56-2.242,3.8,3.8,0,0,1,2.331-.745,3.76,3.76,0,0,1,2.34.753,4.869,4.869,0,0,1,1.551,2.242,10.756,10.756,0,0,1,.558,3.74,11.2,11.2,0,0,1-.558,3.8,4.984,4.984,0,0,1-1.551,2.3A3.7,3.7,0,0,1,29.027.248Zm0-2.039a1.411,1.411,0,0,0,1.028-.443,3.132,3.132,0,0,0,.691-1.5,13.258,13.258,0,0,0,.248-2.9,12.9,12.9,0,0,0-.248-2.863,2.921,2.921,0,0,0-.691-1.454,1.455,1.455,0,0,0-1.028-.417,1.445,1.445,0,0,0-1,.417,2.97,2.97,0,0,0-.718,1.454,12.068,12.068,0,0,0-.266,2.863,12.4,12.4,0,0,0,.266,2.9,3.184,3.184,0,0,0,.718,1.5A1.4,1.4,0,0,0,29.027-1.79Zm6.647-12.143h13.9v2.109H37.8v13.4H35.675Zm12.887,0h2.145V-.9A3.422,3.422,0,0,1,50.494.434a1.5,1.5,0,0,1-.762.753,3.816,3.816,0,0,1-1.374.328q-.824.062-2.012.062a5.434,5.434,0,0,0-.177-.691Q46.045.5,45.885.115a6.426,6.426,0,0,0-.319-.665q.514.035,1.037.044t.931.009H48.1a.583.583,0,0,0,.355-.115.429.429,0,0,0,.106-.328ZM36.827-7.339H49.608v2.092H36.827ZM42-12.781H44.13v6.488H42Z" transform="translate(5248.271 2062.206)" fill="#fff"/>
      </g>
      <path id="線_5" data-name="線 5" d="M252.062.5H0A.5.5,0,0,1-.5,0,.5.5,0,0,1,0-.5H252.062a.5.5,0,0,1,.5.5A.5.5,0,0,1,252.062.5Z" transform="translate(5022.413 2036.064)" fill="#fff"/>
    </g>
    <path id="線_6" data-name="線 6" d="M104,1.76H0A1.76,1.76,0,0,1-1.76,0,1.76,1.76,0,0,1,0-1.76H104A1.76,1.76,0,0,1,105.76,0,1.76,1.76,0,0,1,104,1.76Z" transform="translate(5034.872 2068.113)" fill="#fbd83b"/>
    <path id="線_7" data-name="線 7" d="M104,1.76H0A1.76,1.76,0,0,1-1.76,0,1.76,1.76,0,0,1,0-1.76H104A1.76,1.76,0,0,1,105.76,0,1.76,1.76,0,0,1,104,1.76Z" transform="translate(5195.872 2068.113)" fill="#fbd83b"/>
  </g>
</svg>
