<svg xmlns="http://www.w3.org/2000/svg" width="574.781" height="457.913" viewBox="0 0 574.781 457.913">
  <g id="グループ_556" data-name="グループ 556" transform="translate(-967.958 -9175.814)" opacity="0.3">
    <circle id="楕円形_206" data-name="楕円形 206" cx="15.363" cy="15.363" r="15.363" transform="translate(1406.67 9246.027)" fill="#ff8e66"/>
    <circle id="楕円形_207" data-name="楕円形 207" cx="15.363" cy="15.363" r="15.363" transform="translate(1417.29 9445.374)" fill="#ff8e66"/>
    <circle id="楕円形_208" data-name="楕円形 208" cx="15.363" cy="15.363" r="15.363" transform="translate(1383.747 9321.638)" fill="#ff8e66"/>
    <circle id="楕円形_209" data-name="楕円形 209" cx="15.363" cy="15.363" r="15.363" transform="translate(1326.421 9262.742)" fill="#ff8e66"/>
    <circle id="楕円形_210" data-name="楕円形 210" cx="15.363" cy="15.363" r="15.363" transform="translate(1471.55 9300.803)" fill="#ff8e66"/>
    <circle id="楕円形_211" data-name="楕円形 211" cx="15.363" cy="15.363" r="15.363" transform="translate(1512.012 9402.598)" fill="#ff8e66"/>
    <circle id="楕円形_212" data-name="楕円形 212" cx="15.363" cy="15.363" r="15.363" transform="translate(1308.686 9477.909)" fill="#ff8e66"/>
    <circle id="楕円形_213" data-name="楕円形 213" cx="15.363" cy="15.363" r="15.363" transform="translate(1350.285 9191.26)" fill="#ff8e66"/>
    <circle id="楕円形_214" data-name="楕円形 214" cx="15.363" cy="15.363" r="15.363" transform="translate(967.958 9506.438)" fill="#ff8e66"/>
    <circle id="楕円形_215" data-name="楕円形 215" cx="15.363" cy="15.363" r="15.363" transform="translate(1284.001 9336.247)" fill="#ff8e66"/>
    <circle id="楕円形_216" data-name="楕円形 216" cx="15.363" cy="15.363" r="15.363" transform="translate(1190.644 9331.297)" fill="#ff8e66"/>
    <circle id="楕円形_217" data-name="楕円形 217" cx="15.363" cy="15.363" r="15.363" transform="translate(1265.409 9175.814)" fill="#ff8e66"/>
    <circle id="楕円形_218" data-name="楕円形 218" cx="15.363" cy="15.363" r="15.363" transform="translate(1232.017 9264.69)" fill="#ff8e66"/>
    <circle id="楕円形_219" data-name="楕円形 219" cx="15.363" cy="15.363" r="15.363" transform="translate(1152.412 9386.534)" fill="#ff8e66"/>
    <circle id="楕円形_220" data-name="楕円形 220" cx="15.363" cy="15.363" r="15.363" transform="translate(1001.447 9409.594)" fill="#ff8e66"/>
    <circle id="楕円形_221" data-name="楕円形 221" cx="15.363" cy="15.363" r="15.363" transform="translate(1077.482 9420.702)" fill="#ff8e66"/>
    <circle id="楕円形_222" data-name="楕円形 222" cx="15.363" cy="15.363" r="15.363" transform="translate(1149.469 9474.11)" fill="#ff8e66"/>
    <circle id="楕円形_223" data-name="楕円形 223" cx="15.363" cy="15.363" r="15.363" transform="translate(1071.502 9332.695)" fill="#ff8e66"/>
    <circle id="楕円形_224" data-name="楕円形 224" cx="15.363" cy="15.363" r="15.363" transform="translate(1141.603 9249.858)" fill="#ff8e66"/>
    <circle id="楕円形_225" data-name="楕円形 225" cx="15.363" cy="15.363" r="15.363" transform="translate(1055.432 9483.434)" fill="#ff8e66"/>
    <circle id="楕円形_226" data-name="楕円形 226" cx="15.363" cy="15.363" r="15.363" transform="translate(1208.04 9599.715)" fill="#ff8e66"/>
    <circle id="楕円形_227" data-name="楕円形 227" cx="15.363" cy="15.363" r="15.363" transform="translate(1034.365 9603.001)" fill="#ff8e66"/>
    <circle id="楕円形_228" data-name="楕円形 228" cx="15.363" cy="15.363" r="15.363" transform="translate(1118.954 9558.041)" fill="#ff8e66"/>
    <circle id="楕円形_229" data-name="楕円形 229" cx="15.363" cy="15.363" r="15.363" transform="translate(1232.723 9514.104)" fill="#ff8e66"/>
    <circle id="楕円形_230" data-name="楕円形 230" cx="15.363" cy="15.363" r="15.363" transform="translate(1222.159 9435.743)" fill="#ff8e66"/>
    <circle id="楕円形_231" data-name="楕円形 231" cx="15.363" cy="15.363" r="15.363" transform="translate(1322.562 9397.218)" fill="#ff8e66"/>
    <circle id="楕円形_232" data-name="楕円形 232" cx="15.363" cy="15.363" r="15.363" transform="translate(1427.789 9373.68)" fill="#ff8e66"/>
  </g>
</svg>
