<svg xmlns="http://www.w3.org/2000/svg" xmlns:xlink="http://www.w3.org/1999/xlink" width="101.453" height="125.299" viewBox="0 0 101.453 125.299">
  <defs>
    <clipPath id="clip-path">
      <rect id="長方形_357" data-name="長方形 357" width="91.716" height="67.024" transform="translate(448.644 755.63)" fill="none"/>
    </clipPath>
    <clipPath id="clip-path-2">
      <rect id="長方形_358" data-name="長方形 358" width="96.655" height="71.962" transform="translate(443.705 750.692)" fill="none"/>
    </clipPath>
    <clipPath id="clip-path-3">
      <rect id="長方形_360" data-name="長方形 360" width="101.453" height="125.299" transform="translate(438.908 697.355)" fill="none"/>
    </clipPath>
    <clipPath id="clip-path-4">
      <rect id="長方形_362" data-name="長方形 362" width="61.803" height="105.403" transform="translate(450.619 697.355)" fill="none"/>
    </clipPath>
  </defs>
  <g id="グループ_649" data-name="グループ 649" transform="translate(-438.908 -697.355)">
    <g id="グループ_634" data-name="グループ 634">
      <g id="グループ_633" data-name="グループ 633" clip-path="url(#clip-path)">
        <path id="パス_388" data-name="パス 388" d="M540.219,828.016,529.637,815.6a17.837,17.837,0,0,1-3.669-7.056c-1.975-7.9-6.35-25.539-8.748-30.478L500.711,761.98l-45.294-5.221c-5.926-1.129-6.632,5.08,1.129,7.9l.705,1.552c-8.325-3.387-8.607,5.5.141,6.914h0c-8.466-1.976-7.2,6.773.988,8.607l6.773,11.006-5.926,3.245a2.753,2.753,0,0,0-1.27,3.528c1.834,4.8,11.006-3.1,26.809-1.27,0,0,6.914,16.791,20.178,23.705l4.8,8.043Z" fill="#f6e8da"/>
      </g>
    </g>
    <g id="グループ_636" data-name="グループ 636">
      <g id="グループ_635" data-name="グループ 635" clip-path="url(#clip-path-2)">
        <path id="パス_389" data-name="パス 389" d="M509.438,830.172l-4.746-7.957a35.9,35.9,0,0,1-8.748-6.639,53.815,53.815,0,0,1-6.357-7.876,61.369,61.369,0,0,1-5.066-9.129c-7.953-.884-14.144.7-18.674,1.853a25.029,25.029,0,0,1-5.257,1.012,2.754,2.754,0,0,1-2.962-1.793,3.124,3.124,0,0,1-.055-2.28,3.243,3.243,0,0,1,1.482-1.685l5.6-3.068-6.5-10.564c-4.035-.951-6.133-3.428-6.705-5.277a3.163,3.163,0,0,1,.553-3.176,3.656,3.656,0,0,1,2.252-1.047,8.467,8.467,0,0,1-1.442-.861,5.635,5.635,0,0,1-2.1-2.8,2.781,2.781,0,0,1,.7-2.967c1.067-.967,2.923-1.079,5.168-.332l-.294-.647a10.919,10.919,0,0,1-4.675-3.064,3.972,3.972,0,0,1-1.018-3.479c.463-1.681,2.376-2.461,4.876-1.988l45.4,5.233,16.639,16.212.027.056c2.35,4.84,6.577,21.759,8.609,29.891l.163.651a17.415,17.415,0,0,0,3.594,6.915l10.584,12.419-.537.458-10.582-12.417a18.1,18.1,0,0,1-3.74-7.19l0-.009-.164-.656c-2.018-8.077-6.209-24.851-8.533-29.7l-16.378-15.958-45.2-5.211c-2.118-.4-3.719.177-4.077,1.48a3.294,3.294,0,0,0,.883,2.845,10.11,10.11,0,0,0,4.509,2.9l.139.051,1.133,2.493-.82-.334c-3.326-1.353-4.767-.518-5.232-.1a2.1,2.1,0,0,0-.493,2.244c.412,1.39,2.018,3.177,5.2,3.923q.423.067.871.171l1.31.249-.132.693-1.312-.25q-.445-.072-.872-.172c-1.819-.287-3.2-.022-3.937.77a2.45,2.45,0,0,0-.4,2.487,6.181,6.181,0,0,0,2.036,2.815,10.322,10.322,0,0,0,4.3,2.016l.145.033,7.046,11.449-6.251,3.423a2.4,2.4,0,0,0-1.112,3.088l0,.005a2.077,2.077,0,0,0,2.3,1.343,24.73,24.73,0,0,0,5.09-.99c4.622-1.18,10.952-2.8,19.133-1.847l.206.024.079.192a59.239,59.239,0,0,0,5.091,9.211,53.08,53.08,0,0,0,6.27,7.766,35.113,35.113,0,0,0,8.654,6.549l.089.046,4.848,8.129Z" fill="#3e3a39"/>
      </g>
    </g>
    <g id="グループ_638" data-name="グループ 638">
      <g id="グループ_637" data-name="グループ 637" clip-path="url(#clip-path-3)">
        <rect id="長方形_359" data-name="長方形 359" width="51.785" height="97.219" rx="4.656" transform="translate(455.558 700.459)" fill="#b7b8b8"/>
      </g>
    </g>
    <g id="グループ_640" data-name="グループ 640">
      <g id="グループ_639" data-name="グループ 639" clip-path="url(#clip-path-4)">
        <path id="長方形_361" data-name="長方形 361" d="M4.656-.353H47.128a5.015,5.015,0,0,1,5.009,5.009V92.563a5.015,5.015,0,0,1-5.009,5.009H4.656A5.015,5.015,0,0,1-.353,92.563V4.656A5.015,5.015,0,0,1,4.656-.353ZM47.128,96.867a4.309,4.309,0,0,0,4.3-4.3V4.656a4.308,4.308,0,0,0-4.3-4.3H4.656a4.308,4.308,0,0,0-4.3,4.3V92.563a4.309,4.309,0,0,0,4.3,4.3Z" transform="translate(455.558 700.459)" fill="#3e3a39"/>
      </g>
    </g>
    <g id="グループ_642" data-name="グループ 642">
      <g id="グループ_641" data-name="グループ 641" clip-path="url(#clip-path-3)">
        <rect id="長方形_363" data-name="長方形 363" width="46.14" height="91.575" rx="3.104" transform="translate(458.38 703.281)" fill="#e6e6e6"/>
        <path id="長方形_364" data-name="長方形 364" d="M3.1-.353H43.036A3.461,3.461,0,0,1,46.493,3.1V88.471a3.461,3.461,0,0,1-3.457,3.457H3.1A3.461,3.461,0,0,1-.353,88.471V3.1A3.461,3.461,0,0,1,3.1-.353ZM43.036,91.223a2.755,2.755,0,0,0,2.751-2.751V3.1A2.755,2.755,0,0,0,43.036.353H3.1A2.755,2.755,0,0,0,.353,3.1V88.471A2.755,2.755,0,0,0,3.1,91.223Z" transform="translate(458.38 703.281)" fill="#3e3a39"/>
        <path id="パス_390" data-name="パス 390" d="M504.521,711.747H458.38v-5.362a3.132,3.132,0,0,1,3.1-3.1h39.932a3.132,3.132,0,0,1,3.105,3.1Z" fill="#3e3a39"/>
        <path id="パス_391" data-name="パス 391" d="M458.38,779.194h46.141v12.558a3.132,3.132,0,0,1-3.105,3.1H461.484a3.132,3.132,0,0,1-3.1-3.1Z" fill="#3e3a39"/>
        <path id="パス_392" data-name="パス 392" d="M504.1,812.494c-4.938-5.079-6.49-12.7-6.914-17.355a8.276,8.276,0,0,0-3.527-6.068L490.41,787.1a7.506,7.506,0,0,0-5.5-1.27,11.861,11.861,0,0,1-9.454-1.693,3.215,3.215,0,0,1,.565-5.644,89.832,89.832,0,0,1,11.852-3.528,9.418,9.418,0,0,1,6.773.706c3.387,1.552,13.264,6.208,16.933,8.748Z" fill="#f6e8da"/>
        <path id="パス_393" data-name="パス 393" d="M503.844,812.74a23.529,23.529,0,0,1-5.231-8.969,38.132,38.132,0,0,1-1.781-8.6v-.011a7.249,7.249,0,0,0-1.027-3.245,8.5,8.5,0,0,0-2.342-2.549l-3.259-1.984a7.131,7.131,0,0,0-5.235-1.208,12.879,12.879,0,0,1-5.988-.059,13.443,13.443,0,0,1-3.711-1.681l-.011-.007a3.56,3.56,0,0,1-1.565-3.322,3.51,3.51,0,0,1,2.191-2.942l0,0a90.747,90.747,0,0,1,11.891-3.541,9.83,9.83,0,0,1,7.013.728c1.3.6,12.853,5.918,16.985,8.778l-.4.58c-3.315-2.295-12.17-6.559-16.879-8.717a9.135,9.135,0,0,0-6.521-.69l-.03.008a90.169,90.169,0,0,0-11.795,3.51,2.862,2.862,0,0,0-.507,5.02,11.5,11.5,0,0,0,9.192,1.645l.021,0a7.836,7.836,0,0,1,5.748,1.325l3.255,1.982a8.582,8.582,0,0,1,3.674,6.329,37.416,37.416,0,0,0,1.747,8.432,22.833,22.833,0,0,0,5.069,8.7Z" fill="#3e3a39"/>
        <path id="パス_394" data-name="パス 394" d="M491.821,768.188H482.65a1.038,1.038,0,0,1-1.129-1.129V727.127a2.83,2.83,0,0,1,2.822-2.822h5.785a2.83,2.83,0,0,1,2.822,2.822v39.932A1.113,1.113,0,0,1,491.821,768.188Z" fill="#fff"/>
        <path id="パス_395" data-name="パス 395" d="M491.821,768.541H482.65a1.389,1.389,0,0,1-1.482-1.482V727.127a3.178,3.178,0,0,1,3.175-3.175h5.785a3.178,3.178,0,0,1,3.175,3.175v39.932A1.467,1.467,0,0,1,491.821,768.541Zm-7.478-43.883a2.472,2.472,0,0,0-2.469,2.469v39.932a.694.694,0,0,0,.776.776h9.171a.76.76,0,0,0,.776-.776V727.127a2.472,2.472,0,0,0-2.469-2.469Z" fill="#3e3a39"/>
      </g>
    </g>
    <rect id="長方形_366" data-name="長方形 366" width="2.54" height="2.681" transform="translate(485.895 740.25)" fill="#3e3a39"/>
    <rect id="長方形_367" data-name="長方形 367" width="2.54" height="2.681" transform="translate(485.895 742.79)" fill="#898989"/>
    <rect id="長方形_368" data-name="長方形 368" width="2.54" height="2.54" transform="translate(485.895 746.176)" fill="#ebd784"/>
    <path id="長方形_369" data-name="長方形 369" d="M-.353-.353H5.432V10.512H-.353Zm5.08.706H.353V9.807H4.727Z" transform="translate(484.625 739.403)" fill="#3e3a39"/>
    <path id="長方形_370" data-name="長方形 370" d="M-.353-.353H2.61V8.537H-.353ZM1.9.353H.353V7.831H1.9Z" transform="translate(486.036 740.391)" fill="#3e3a39"/>
    <g id="グループ_644" data-name="グループ 644">
      <g id="グループ_643" data-name="グループ 643" clip-path="url(#clip-path-3)">
        <path id="線_212" data-name="線 212" d="M1.209,1.277-.2.289.2-.289,1.613.7Z" transform="translate(484.625 739.403)" fill="#3e3a39"/>
        <path id="線_213" data-name="線 213" d="M.2,1.277-.2.7,1.209-.289l.4.578Z" transform="translate(484.625 748.575)" fill="#3e3a39"/>
        <path id="線_214" data-name="線 214" d="M1.209,1.277-.2.289.2-.289,1.613.7Z" transform="translate(488.294 748.575)" fill="#3e3a39"/>
        <path id="線_215" data-name="線 215" d="M.2,1.277-.2.7,1.209-.289l.4.578Z" transform="translate(488.294 739.403)" fill="#3e3a39"/>
        <path id="パス_396" data-name="パス 396" d="M487.165,760.639a1.34,1.34,0,1,1,0-2.681,1.347,1.347,0,1,1,0,2.681Zm0-1.975a.635.635,0,1,0,0,1.269.648.648,0,1,0,0-1.269Z" fill="#3e3a39"/>
        <path id="パス_397" data-name="パス 397" d="M487.165,763.744a4.447,4.447,0,1,1,4.586-4.445,4.362,4.362,0,0,1-1.323,3.145A4.631,4.631,0,0,1,487.165,763.744Zm0-8.184a3.742,3.742,0,1,0,3.88,3.739A3.743,3.743,0,0,0,487.165,755.56Z" fill="#3e3a39"/>
        <path id="パス_398" data-name="パス 398" d="M480.251,768.188H471.22a1.153,1.153,0,0,1-1.27-1.129V727.127a2.831,2.831,0,0,1,2.823-2.822h5.785a2.864,2.864,0,0,1,2.963,2.822v39.932A1.153,1.153,0,0,1,480.251,768.188Z" fill="#fff"/>
        <path id="パス_399" data-name="パス 399" d="M480.251,768.541H471.22a1.506,1.506,0,0,1-1.623-1.482V727.127a3.179,3.179,0,0,1,3.176-3.175h5.785a3.213,3.213,0,0,1,3.316,3.175v39.932A1.506,1.506,0,0,1,480.251,768.541Zm-7.478-43.883a2.473,2.473,0,0,0-2.47,2.469v39.932c0,.573.494.776.917.776h9.031c.423,0,.917-.2.917-.776V727.127a2.516,2.516,0,0,0-2.61-2.469Z" fill="#3e3a39"/>
      </g>
    </g>
    <path id="長方形_372" data-name="長方形 372" d="M-.353-.353H5.574V10.512H-.353ZM4.868.353H.353V9.807H4.868Z" transform="translate(473.055 739.403)" fill="#3e3a39"/>
    <g id="グループ_646" data-name="グループ 646">
      <g id="グループ_645" data-name="グループ 645" clip-path="url(#clip-path-3)">
        <path id="線_216" data-name="線 216" d="M1.209,1.277-.2.289.2-.289,1.613.7Z" transform="translate(473.055 739.403)" fill="#3e3a39"/>
        <path id="線_217" data-name="線 217" d="M.2,1.277-.2.7,1.209-.289l.4.578Z" transform="translate(473.055 748.575)" fill="#3e3a39"/>
        <path id="線_218" data-name="線 218" d="M1.209,1.277-.2.289.2-.289,1.613.7Z" transform="translate(476.864 748.575)" fill="#3e3a39"/>
        <path id="線_219" data-name="線 219" d="M.2,1.277-.2.7,1.209-.289l.4.578Z" transform="translate(476.864 739.403)" fill="#3e3a39"/>
        <path id="パス_400" data-name="パス 400" d="M475.736,760.639a1.34,1.34,0,1,1,1.34-1.34A1.311,1.311,0,0,1,475.736,760.639Zm0-1.975a.635.635,0,1,0,.634.635A.614.614,0,0,0,475.736,758.664Z" fill="#3e3a39"/>
        <path id="パス_401" data-name="パス 401" d="M475.736,763.744a4.445,4.445,0,1,1,4.445-4.445A4.45,4.45,0,0,1,475.736,763.744Zm0-8.184a3.739,3.739,0,1,0,3.739,3.739A3.743,3.743,0,0,0,475.736,755.56Z" fill="#3e3a39"/>
      </g>
    </g>
    <rect id="長方形_374" data-name="長方形 374" width="2.399" height="0.564" transform="translate(474.466 748.152)" fill="#a7436a"/>
    <g id="グループ_648" data-name="グループ 648">
      <g id="グループ_647" data-name="グループ 647" clip-path="url(#clip-path-3)">
        <path id="線_220" data-name="線 220" d="M2.4.353H0V-.353H2.4Z" transform="translate(474.466 746.176)" fill="#a7436a"/>
        <path id="線_221" data-name="線 221" d="M2.4.353H0V-.353H2.4Z" transform="translate(474.466 743.354)" fill="#a7436a"/>
      </g>
    </g>
    <path id="長方形_376" data-name="長方形 376" d="M-.353-.353h3.1V8.537h-3.1Zm2.4.706H.353V7.831H2.046Z" transform="translate(474.466 740.391)" fill="#3e3a39"/>
  </g>
</svg>
