<svg xmlns="http://www.w3.org/2000/svg" width="350" height="160" viewBox="0 0 350 160">
  <g id="グループ_830" data-name="グループ 830" transform="translate(-19.936 -7721.676)">
    <g id="グループ_793" data-name="グループ 793" transform="translate(-4860.92 5744.151)">
      <path id="パス_14" data-name="パス 14" d="M5171.715,2113.215l-22.013,23.518a1.54,1.54,0,0,1-2.692,0L5125,2113.215c-.741-1.059-.288-1.924,1-1.924h10.365v-15.255h23.983v15.255h10.365C5172,2111.291,5172.454,2112.156,5171.715,2113.215Z" fill="#e61400"/>
      <rect id="長方形_19" data-name="長方形 19" width="23.982" height="5.997" transform="translate(5136.364 2086.334)" fill="#e61400"/>
      <rect id="長方形_20" data-name="長方形 20" width="23.982" height="3.656" transform="translate(5136.364 2078.978)" fill="#e61400"/>
    </g>
    <rect id="長方形_436" data-name="長方形 436" width="175" height="101" rx="5" transform="translate(194.936 7721.676)" fill="#fff"/>
    <path id="パス_803" data-name="パス 803" d="M6-7.08a.867.867,0,0,1-.636-.264A.867.867,0,0,1,5.1-7.98a.867.867,0,0,1,.264-.636A.867.867,0,0,1,6-8.88a.867.867,0,0,1,.636.264A.867.867,0,0,1,6.9-7.98a.867.867,0,0,1-.264.636A.867.867,0,0,1,6-7.08ZM6-4.908l3.96-3.96.348.348L6.348-4.56,10.308-.6,9.96-.252,6-4.212,2.028-.24,1.68-.588,5.652-4.56,1.692-8.52l.348-.348ZM3.48-4.56a.867.867,0,0,1-.264.636.867.867,0,0,1-.636.264.867.867,0,0,1-.636-.264A.867.867,0,0,1,1.68-4.56.867.867,0,0,1,1.944-5.2.867.867,0,0,1,2.58-5.46a.867.867,0,0,1,.636.264A.867.867,0,0,1,3.48-4.56Zm5.04,0A.867.867,0,0,1,8.784-5.2.867.867,0,0,1,9.42-5.46a.867.867,0,0,1,.636.264.867.867,0,0,1,.264.636.867.867,0,0,1-.264.636.867.867,0,0,1-.636.264.867.867,0,0,1-.636-.264A.867.867,0,0,1,8.52-4.56ZM6-2.04a.867.867,0,0,1,.636.264A.867.867,0,0,1,6.9-1.14.867.867,0,0,1,6.636-.5.867.867,0,0,1,6-.24.867.867,0,0,1,5.364-.5.867.867,0,0,1,5.1-1.14a.867.867,0,0,1,.264-.636A.867.867,0,0,1,6-2.04ZM17.172-3.192h6.984v1.284H17.172ZM20.82-8.676v1.32h1.452v-1.32ZM19.584-9.852h4.008v3.684H19.584Zm1.524,8.58L22.3-1.92q.36.336.732.738t.7.8a5.2,5.2,0,0,1,.522.732l-1.272.72a5.389,5.389,0,0,0-.474-.732Q22.2-.072,21.834-.5T21.108-1.272ZM17.6-8.9h1.308v5.136H17.6ZM19.08-1.98l1.26.708a7.415,7.415,0,0,1-.684.852A10.369,10.369,0,0,1,18.8.408a7.611,7.611,0,0,1-.876.66q-.192-.2-.492-.468a7.07,7.07,0,0,0-.552-.444,5.927,5.927,0,0,0,.84-.618,8.851,8.851,0,0,0,.78-.768A5.483,5.483,0,0,0,19.08-1.98Zm-.792-3.528h4.98v2.94H21.852V-4.26H18.288ZM13.38-6.516h3.348v1.092H13.38Zm.072-3.3H16.68v1.08H13.452ZM13.38-4.872h3.348v1.08H13.38Zm-.54-3.336h4.284v1.14H12.84Zm1.2,4.992h2.712V.42H14.04V-.708h1.524v-1.38H14.04Zm-.7,0h1.164V.912H13.344Zm14.208-6.36h8.4v1.428h-8.4Zm.168,3.12h6.492v1.392H27.72Zm-.9-3.12h1.44v3.36q0,.792-.054,1.74a16.874,16.874,0,0,1-.228,1.944,11.667,11.667,0,0,1-.5,1.92,6.838,6.838,0,0,1-.858,1.668,3.474,3.474,0,0,0-.354-.3Q26.04.588,25.8.438T25.392.2a5.938,5.938,0,0,0,.78-1.5A9.987,9.987,0,0,0,26.6-2.97a13.818,13.818,0,0,0,.18-1.692q.036-.834.036-1.554Zm7.008,3.12h.288l.264-.06,1.02.408a10.663,10.663,0,0,1-1.02,2.67A8.9,8.9,0,0,1,32.844-1.41,9.122,9.122,0,0,1,30.858.066,13.167,13.167,0,0,1,28.476,1.08q-.1-.2-.234-.45t-.3-.486a3.358,3.358,0,0,0-.306-.4,9.774,9.774,0,0,0,2.154-.81A8.4,8.4,0,0,0,31.6-2.328a7.442,7.442,0,0,0,1.38-1.71,7.588,7.588,0,0,0,.846-2.154Zm-3.84.78a7.929,7.929,0,0,0,2.3,3.48A9.109,9.109,0,0,0,36.444-.264a3.3,3.3,0,0,0-.354.4q-.186.24-.348.492t-.27.456A10.563,10.563,0,0,1,32.346-.24a8.172,8.172,0,0,1-2.22-2.118,12.28,12.28,0,0,1-1.518-2.934Zm12.588.564H44V-.936a.706.706,0,0,0,.078.42.439.439,0,0,0,.318.084h.972a.316.316,0,0,0,.276-.138,1.321,1.321,0,0,0,.138-.558q.042-.42.066-1.248a2.827,2.827,0,0,0,.378.24,3.177,3.177,0,0,0,.462.2q.24.084.42.144a7.886,7.886,0,0,1-.222,1.6,1.44,1.44,0,0,1-.486.81,1.514,1.514,0,0,1-.9.234H44.172A2.349,2.349,0,0,1,43.194.69a.919.919,0,0,1-.48-.558,3.294,3.294,0,0,1-.138-1.056Zm-1.7.924,1.3.276Q42.108-3.228,42-2.5a12.472,12.472,0,0,1-.282,1.386,4.925,4.925,0,0,1-.45,1.146L40-.54A5.538,5.538,0,0,0,40.422-1.6a10.076,10.076,0,0,0,.282-1.26Q40.812-3.528,40.872-4.188ZM42.66-6.456l.972-.948q.48.228,1.032.528t1.056.624a7.783,7.783,0,0,1,.828.6l-1.032,1.08a5.949,5.949,0,0,0-.774-.63q-.486-.342-1.032-.672T42.66-6.456ZM46.332-4.02l1.284-.492q.36.612.7,1.326t.582,1.392a6.538,6.538,0,0,1,.33,1.23L47.808.024a6.619,6.619,0,0,0-.282-1.242q-.222-.7-.534-1.428T46.332-4.02ZM43.068-10.2h1.5V-8h-1.5ZM39.444-8.784h9.48v1.368h-9.48Zm-.672,0h1.44V-5.76q0,.732-.054,1.614t-.186,1.812a13.894,13.894,0,0,1-.378,1.806,6.888,6.888,0,0,1-.654,1.584,3.637,3.637,0,0,0-.366-.282Q38.34.612,38.1.462A3.131,3.131,0,0,0,37.692.24a6.205,6.205,0,0,0,.588-1.416A10.834,10.834,0,0,0,38.6-2.748q.1-.8.138-1.578t.036-1.434Zm18.24.564q-.12.912-.312,1.944a18.911,18.911,0,0,1-.516,2.088A10.726,10.726,0,0,1,55.368-2.1,4.577,4.577,0,0,1,54.342-.75a1.843,1.843,0,0,1-1.218.474,1.9,1.9,0,0,1-1.218-.45,3.074,3.074,0,0,1-.888-1.242,4.644,4.644,0,0,1-.33-1.8,4.7,4.7,0,0,1,.42-1.968,5.236,5.236,0,0,1,1.17-1.638A5.547,5.547,0,0,1,54.03-8.5,5.688,5.688,0,0,1,56.2-8.9a5.34,5.34,0,0,1,2.01.36,4.524,4.524,0,0,1,1.53,1,4.323,4.323,0,0,1,.972,1.488,4.959,4.959,0,0,1,.336,1.836,4.832,4.832,0,0,1-.516,2.256A4.265,4.265,0,0,1,59-.324a6.561,6.561,0,0,1-2.526.888l-.9-1.428q.348-.036.612-.084t.5-.108a4.567,4.567,0,0,0,1.074-.414,3.352,3.352,0,0,0,.87-.672,2.94,2.94,0,0,0,.582-.942,3.251,3.251,0,0,0,.21-1.188,3.733,3.733,0,0,0-.216-1.3,2.918,2.918,0,0,0-.636-1.026,2.8,2.8,0,0,0-1.02-.672,3.78,3.78,0,0,0-1.38-.234,3.957,3.957,0,0,0-1.692.342,3.961,3.961,0,0,0-1.236.882,3.872,3.872,0,0,0-.762,1.164,3.11,3.11,0,0,0-.258,1.188,3,3,0,0,0,.144,1,1.517,1.517,0,0,0,.354.6.648.648,0,0,0,.45.2.7.7,0,0,0,.5-.258,2.878,2.878,0,0,0,.486-.786,10.634,10.634,0,0,0,.48-1.332A16.389,16.389,0,0,0,55.1-6.348a18.806,18.806,0,0,0,.276-1.92ZM8.544,6.952h1.512V15.2a2.4,2.4,0,0,1-.168,1,1.091,1.091,0,0,1-.612.534,3.466,3.466,0,0,1-1.1.222Q7.5,17,6.576,17a4.814,4.814,0,0,0-.144-.5,6,6,0,0,0-.222-.558,4.121,4.121,0,0,0-.246-.468l.894.024q.45.012.81.012h.5a.446.446,0,0,0,.288-.072.336.336,0,0,0,.084-.264Zm-6.852,2.4H3.084v5.592H1.692Zm.588,0H6.8V14.02H2.28V12.64H5.388V10.72H2.28ZM.576,6.544H11.448V8.008H.576Zm14.088-.852,1.5.312q-.216.552-.462,1.11T15.21,8.17q-.246.5-.474.882l-1.26-.324a9.378,9.378,0,0,0,.45-.936q.222-.528.42-1.08T14.664,5.692ZM12.84,8.152,14.328,8.1q.84-.03,1.764-.078t1.86-.084L17.94,9.2l-1.776.12q-.888.06-1.7.108t-1.5.1Zm.72,1.932h3.8V11.26H14.892v5.748H13.56Zm3.12,0h1.428v5.472a2.142,2.142,0,0,1-.108.75.813.813,0,0,1-.42.438,1.768,1.768,0,0,1-.72.2q-.42.036-.96.036a3.533,3.533,0,0,0-.186-.654,4.354,4.354,0,0,0-.282-.618q.324.012.636.012t.42-.012a.232.232,0,0,0,.156-.036.208.208,0,0,0,.036-.144ZM14.16,11.9H17.5v1.068H14.16Zm0,1.764H17.5v1.068H14.16Zm4.9-7.872h1.428V9.4a.552.552,0,0,0,.1.4.726.726,0,0,0,.432.084h1.32a.427.427,0,0,0,.3-.09.665.665,0,0,0,.144-.36,6.651,6.651,0,0,0,.072-.8,1.6,1.6,0,0,0,.372.222q.228.1.468.186t.432.132a4.466,4.466,0,0,1-.246,1.212,1.114,1.114,0,0,1-.51.606,1.968,1.968,0,0,1-.9.174H20.82A2.906,2.906,0,0,1,19.728,11a.924.924,0,0,1-.528-.54,3.049,3.049,0,0,1-.144-1.05Zm3.6.708.912,1.056q-.54.252-1.158.486t-1.254.438q-.636.2-1.236.36a2.966,2.966,0,0,0-.174-.492q-.126-.288-.234-.492.552-.18,1.128-.4t1.1-.474Q22.26,6.724,22.656,6.5Zm-3.6,4.908h1.428v3.78q0,.324.1.408a.788.788,0,0,0,.45.084h1.356a.44.44,0,0,0,.324-.108.806.806,0,0,0,.162-.42,7.607,7.607,0,0,0,.078-.924,2.756,2.756,0,0,0,.6.318,5.119,5.119,0,0,0,.66.222,5.266,5.266,0,0,1-.246,1.314,1.194,1.194,0,0,1-.516.666,1.876,1.876,0,0,1-.918.192H20.82a2.866,2.866,0,0,1-1.08-.162.946.946,0,0,1-.534-.54,2.893,2.893,0,0,1-.15-1.038Zm3.684.492.948,1.056a10.264,10.264,0,0,1-1.188.558q-.648.258-1.308.486t-1.3.408a3.318,3.318,0,0,0-.174-.5,4.261,4.261,0,0,0-.246-.5q.588-.192,1.188-.444t1.14-.522A8.755,8.755,0,0,0,22.74,11.9ZM16.3,7l1.212-.456q.3.432.582.936t.516.99a6.23,6.23,0,0,1,.354.882l-1.32.516a5.954,5.954,0,0,0-.306-.876q-.21-.492-.48-1.014T16.3,7ZM26.748,5.74h1.44V17.008h-1.44ZM25.74,8.056l1.02.144q-.024.516-.1,1.128t-.186,1.2a10.235,10.235,0,0,1-.258,1.056L25.152,11.2a6.876,6.876,0,0,0,.258-.948q.114-.552.2-1.128T25.74,8.056Zm2.172.084.972-.408a9.9,9.9,0,0,1,.48,1.008,6.965,6.965,0,0,1,.324.936l-1.044.48a4.056,4.056,0,0,0-.168-.606q-.12-.342-.264-.714T27.912,8.14ZM30.18,6.292l1.4.216q-.12.888-.318,1.758a15.686,15.686,0,0,1-.456,1.62,8.3,8.3,0,0,1-.57,1.314,3.641,3.641,0,0,0-.372-.228q-.24-.132-.486-.246t-.426-.186a5.655,5.655,0,0,0,.564-1.188,11.374,11.374,0,0,0,.4-1.47Q30.084,7.1,30.18,6.292Zm.432,1.884h5.544V9.532H30.192Zm1.644-2.364H33.7V16.048h-1.44Zm-2.34,5.7h5.976v1.344H29.916Zm-.9,3.744h7.512v1.38H29.016ZM42.9,6.544q-.048.228-.108.5t-.108.5q-.048.264-.12.594t-.138.66q-.066.33-.138.642-.12.516-.3,1.2t-.42,1.47q-.24.786-.54,1.578t-.636,1.542a10.364,10.364,0,0,1-.72,1.35l-1.56-.624a9.363,9.363,0,0,0,.786-1.266q.366-.7.666-1.44t.534-1.464q.234-.726.408-1.35t.27-1.068q.168-.816.264-1.572a8.847,8.847,0,0,0,.072-1.428Zm4.128,1.212a8.451,8.451,0,0,1,.594.966q.306.57.606,1.206t.54,1.224q.24.588.372,1.02l-1.524.7a9.805,9.805,0,0,0-.318-1.116q-.21-.612-.486-1.242T46.23,9.316a5.645,5.645,0,0,0-.63-.948ZM38.028,9q.324.024.642.018T39.312,9q.3-.012.72-.042l.894-.066q.474-.036.954-.078t.888-.066q.408-.024.672-.024a2.8,2.8,0,0,1,1.128.21,1.6,1.6,0,0,1,.762.714,2.809,2.809,0,0,1,.282,1.368q0,.708-.06,1.536a12.945,12.945,0,0,1-.21,1.584,5.1,5.1,0,0,1-.414,1.284,1.7,1.7,0,0,1-.786.864,2.7,2.7,0,0,1-1.182.24,5.444,5.444,0,0,1-.732-.054q-.4-.054-.708-.114l-.252-1.584q.228.06.51.12t.54.1a3.147,3.147,0,0,0,.414.036,1.166,1.166,0,0,0,.528-.114.853.853,0,0,0,.372-.4,3.763,3.763,0,0,0,.276-.9,11.059,11.059,0,0,0,.162-1.194q.054-.642.054-1.23a1.407,1.407,0,0,0-.138-.708.676.676,0,0,0-.4-.306,2.2,2.2,0,0,0-.63-.078q-.276,0-.744.042t-1,.1q-.534.054-.99.114t-.708.084q-.264.048-.666.1t-.678.1Zm8.784-2.916q.156.216.33.516t.342.6q.168.3.288.528l-.972.42q-.12-.252-.276-.552T46.2,7a4.128,4.128,0,0,0-.336-.516Zm1.428-.54q.156.228.336.528t.354.6q.174.3.27.5l-.948.408q-.192-.372-.456-.846a7.182,7.182,0,0,0-.516-.81Zm7.632.732q-.048.168-.09.33t-.078.306q-.108.564-.2,1.29t-.156,1.512q-.06.786-.06,1.542a14.261,14.261,0,0,0,.1,1.722,11.057,11.057,0,0,0,.27,1.452q.174.666.378,1.266l-1.38.42a12.572,12.572,0,0,1-.342-1.284q-.162-.744-.27-1.6a13.87,13.87,0,0,1-.108-1.734q0-.6.042-1.206t.09-1.2q.048-.594.114-1.14t.114-.99q.012-.168.024-.366a2.6,2.6,0,0,0,0-.354ZM53.736,7.612q1.14,0,2.142-.048T57.81,7.4a16.6,16.6,0,0,0,1.854-.348l.012,1.392q-.624.108-1.374.2t-1.56.15q-.81.06-1.59.09t-1.464.03q-.312,0-.7-.012t-.768-.03l-.654-.03-.036-1.392.588.066q.384.042.822.072T53.736,7.612Zm5.172,1.752q-.036.108-.108.3t-.138.4q-.066.2-.1.324a10.941,10.941,0,0,1-.846,1.974,9.278,9.278,0,0,1-1.074,1.56A7.3,7.3,0,0,1,55.5,15a6.6,6.6,0,0,1-1.344.774,3.779,3.779,0,0,1-1.524.33,1.821,1.821,0,0,1-.8-.18,1.358,1.358,0,0,1-.594-.57,1.982,1.982,0,0,1-.222-.99,3.237,3.237,0,0,1,.264-1.272,4.769,4.769,0,0,1,.732-1.188,5.562,5.562,0,0,1,1.092-1,5.478,5.478,0,0,1,1.344-.69,8.062,8.062,0,0,1,1.29-.348,7.488,7.488,0,0,1,1.386-.132,4.706,4.706,0,0,1,2,.408A3.419,3.419,0,0,1,60.5,11.26a2.781,2.781,0,0,1,.5,1.656,3.868,3.868,0,0,1-.2,1.242,3.211,3.211,0,0,1-.666,1.122,3.95,3.95,0,0,1-1.218.888,6.407,6.407,0,0,1-1.86.54l-.792-1.26a5.185,5.185,0,0,0,1.872-.522,2.648,2.648,0,0,0,1.05-.942,2.193,2.193,0,0,0,.33-1.14,1.662,1.662,0,0,0-.282-.948,1.978,1.978,0,0,0-.84-.678,3.265,3.265,0,0,0-1.374-.258,5.407,5.407,0,0,0-1.458.18,6.935,6.935,0,0,0-1.074.384,4.23,4.23,0,0,0-1.068.726,3.729,3.729,0,0,0-.732.918,1.864,1.864,0,0,0-.264.888.644.644,0,0,0,.132.438.532.532,0,0,0,.42.15,2.284,2.284,0,0,0,1-.282,4.784,4.784,0,0,0,1.116-.8,8.508,8.508,0,0,0,1.224-1.44,7.434,7.434,0,0,0,.948-2.088,3.13,3.13,0,0,0,.072-.312q.036-.192.066-.39t.042-.318ZM65.04,6.8q.252.036.54.048t.552.012q.192,0,.576-.006t.87-.018l.966-.024q.48-.012.87-.03l.606-.03q.372-.036.588-.066a1.946,1.946,0,0,0,.324-.066l.78,1.068q-.2.132-.42.264a4.883,4.883,0,0,0-.42.288q-.24.168-.576.438t-.714.57q-.378.3-.732.588t-.642.516a4.6,4.6,0,0,1,.576-.1,5.217,5.217,0,0,1,.564-.03,4.112,4.112,0,0,1,1.83.4,3.3,3.3,0,0,1,1.284,1.074,2.645,2.645,0,0,1,.474,1.554,3.172,3.172,0,0,1-.48,1.716A3.313,3.313,0,0,1,71.01,16.18a5.658,5.658,0,0,1-2.418.456A4.384,4.384,0,0,1,67.1,16.4a2.452,2.452,0,0,1-1.05-.684,1.545,1.545,0,0,1-.384-1.044,1.683,1.683,0,0,1,.27-.918,2.007,2.007,0,0,1,.756-.69,2.314,2.314,0,0,1,1.122-.264,2.749,2.749,0,0,1,1.4.33,2.29,2.29,0,0,1,.876.882A2.557,2.557,0,0,1,70.4,15.22l-1.4.192a1.715,1.715,0,0,0-.33-1.062,1.024,1.024,0,0,0-.846-.4.8.8,0,0,0-.54.174.517.517,0,0,0-.2.4.613.613,0,0,0,.336.54,1.671,1.671,0,0,0,.876.2,5.084,5.084,0,0,0,1.7-.246,2.127,2.127,0,0,0,1.026-.708,1.794,1.794,0,0,0,.342-1.1,1.463,1.463,0,0,0-.33-.948,2.164,2.164,0,0,0-.894-.636,3.368,3.368,0,0,0-1.272-.228,4.386,4.386,0,0,0-1.272.174,4.507,4.507,0,0,0-1.086.492,6.647,6.647,0,0,0-1,.768,12.9,12.9,0,0,0-.966,1l-1.092-1.128.732-.594q.408-.33.834-.69l.8-.678q.378-.318.642-.534t.588-.48l.7-.57q.36-.294.684-.564t.54-.462q-.18,0-.468.012l-.63.024-.684.024q-.342.012-.636.03l-.486.03q-.24.012-.5.036t-.48.06Zm15.528-.432q-.072.24-.144.588t-.108.54q-.084.408-.21,1T79.83,9.736q-.15.66-.306,1.26-.156.636-.384,1.374t-.486,1.5q-.258.762-.522,1.452t-.516,1.23l-1.668-.564q.264-.456.564-1.11t.582-1.41q.282-.756.522-1.5t.408-1.38q.12-.42.228-.864t.192-.864q.084-.42.15-.786t.1-.642q.036-.336.048-.672a3.7,3.7,0,0,0-.012-.54Zm-3.06,1.788q.732,0,1.524-.072t1.6-.2q.8-.132,1.6-.312v1.5q-.744.168-1.584.288t-1.656.186q-.816.066-1.5.066-.432,0-.78-.018t-.672-.03L76,8.056q.468.048.8.072T77.508,8.152Zm3.768,1.836q.5-.048,1.116-.084t1.188-.036q.516,0,1.05.024t1.062.084l-.036,1.44q-.444-.06-.978-.1t-1.086-.042q-.612,0-1.182.03t-1.134.1Zm.648,3.024a5.234,5.234,0,0,0-.12.522,2.75,2.75,0,0,0-.048.474.769.769,0,0,0,.348.654,1.418,1.418,0,0,0,.5.2,3.7,3.7,0,0,0,.8.072,11.576,11.576,0,0,0,1.23-.066q.618-.066,1.266-.186l-.06,1.536q-.5.06-1.116.114t-1.332.054a4.394,4.394,0,0,1-2.31-.5,1.573,1.573,0,0,1-.8-1.41,4.895,4.895,0,0,1,.072-.828q.072-.42.144-.78Zm13.824-6.48q-.036.156-.09.384t-.1.456q-.048.228-.084.372-.192.8-.432,1.638t-.54,1.65a13.342,13.342,0,0,1-.666,1.524,7.493,7.493,0,0,1-.81,1.26,9.808,9.808,0,0,1-1.014,1.14,3.494,3.494,0,0,1-.942.654,2.463,2.463,0,0,1-1.02.21,1.743,1.743,0,0,1-.93-.27,1.944,1.944,0,0,1-.708-.8,2.891,2.891,0,0,1-.27-1.314,4.605,4.605,0,0,1,.294-1.6,5.65,5.65,0,0,1,.816-1.482,4.825,4.825,0,0,1,1.23-1.14,6.727,6.727,0,0,1,1.884-.876,7.129,7.129,0,0,1,1.884-.252,4.548,4.548,0,0,1,2.208.522,3.784,3.784,0,0,1,1.5,1.458,4.318,4.318,0,0,1,.54,2.2A3.973,3.973,0,0,1,96.408,15.9a6.516,6.516,0,0,1-2.22.738l-.924-1.392a6.055,6.055,0,0,0,1.7-.36,3.447,3.447,0,0,0,1.14-.7,2.634,2.634,0,0,0,.642-.936,2.911,2.911,0,0,0,.2-1.08,2.834,2.834,0,0,0-.354-1.434,2.542,2.542,0,0,0-.99-.972,3.036,3.036,0,0,0-1.5-.354,4.415,4.415,0,0,0-1.692.306,6.5,6.5,0,0,0-1.368.762,3.436,3.436,0,0,0-.8.81,3.907,3.907,0,0,0-.516,1,3.155,3.155,0,0,0-.18,1.02,1.184,1.184,0,0,0,.186.7.58.58,0,0,0,.5.264.937.937,0,0,0,.468-.138,2.434,2.434,0,0,0,.48-.372,5.129,5.129,0,0,0,.48-.546q.24-.312.48-.66a9.673,9.673,0,0,0,.636-1.152,14.257,14.257,0,0,0,.546-1.332q.246-.7.414-1.35T94,7.516a3.59,3.59,0,0,0,.078-.6q.018-.336.018-.54Zm-5.064.4q.06.3.126.588t.138.564q.132.492.312,1.062t.39,1.134q.21.564.426,1.038a6.467,6.467,0,0,0,.432.81q.312.48.708,1a8.215,8.215,0,0,0,.816.93l-1.212.96q-.36-.4-.642-.762t-.582-.822a9.917,9.917,0,0,1-.534-.948q-.27-.54-.528-1.176T90.042,10q-.234-.672-.45-1.332-.1-.324-.21-.624t-.27-.624Z" transform="translate(236.936 7793.676)" fill="#333"/>
    <path id="パス_802" data-name="パス 802" d="M3.76-13.6l1.888.56a13.119,13.119,0,0,1-1.024,1.728A13.7,13.7,0,0,1,3.352-9.744,13.913,13.913,0,0,1,2-8.48a3.537,3.537,0,0,0-.448-.432q-.288-.24-.592-.464T.432-9.744a9.451,9.451,0,0,0,1.92-1.7A8.726,8.726,0,0,0,3.76-13.6Zm-.128,1.7H14.656v1.68H3.168ZM.784-8.176H15.248v1.712H.784ZM1.04-4.432H15.008V-2.72H1.04Zm4.752-6.88h1.6v7.776h-1.6Zm-2.848,0H4.656V-3.52H2.944Zm5.632,0h1.6V-3.52h-1.6Zm2.816,0h1.76V-3.52h-1.76ZM5.312-1.824l1.776-.192q.16.72.28,1.568A13.063,13.063,0,0,1,7.5.992l-1.888.272q0-.384-.04-.912t-.1-1.1Q5.408-1.328,5.312-1.824ZM8.5-1.776l1.792-.3q.208.464.4,1.008t.336,1.056a7.9,7.9,0,0,1,.208.928l-1.92.368A11.989,11.989,0,0,0,9-.176Q8.768-1.04,8.5-1.776Zm3.168-.1,1.84-.576q.384.5.768,1.072t.736,1.144A7.83,7.83,0,0,1,15.552.784l-1.968.656A10.444,10.444,0,0,0,13.1.432q-.312-.576-.688-1.176T11.664-1.872ZM2.432-2.384l1.856.464A10.141,10.141,0,0,1,3.536-.1,7.228,7.228,0,0,1,2.464,1.456L.624.7a6.052,6.052,0,0,0,1.04-1.36A8.238,8.238,0,0,0,2.432-2.384ZM19.2-13.52h1.76V1.392H19.2ZM16.768-8.256h6.56v1.792h-6.56Zm2.08.944,1.072.528q-.208.8-.48,1.688t-.608,1.768q-.336.88-.7,1.656A8.608,8.608,0,0,1,17.344-.32a4.989,4.989,0,0,0-.232-.664q-.152-.36-.32-.712T16.48-2.3a8.812,8.812,0,0,0,.936-1.464q.456-.872.84-1.808A13.691,13.691,0,0,0,18.848-7.312Zm2.1.928q.128.128.376.4t.552.616q.3.344.584.688t.512.616a4.943,4.943,0,0,1,.328.416l-1.168,1.5q-.16-.352-.416-.824t-.56-.976q-.3-.5-.592-.952t-.5-.736Zm-4.192-5.9L18.1-12.64a12.868,12.868,0,0,1,.376,1.248q.168.672.28,1.312t.16,1.152l-1.44.384a9.221,9.221,0,0,0-.12-1.16q-.1-.648-.256-1.328A12.83,12.83,0,0,0,16.752-12.288Zm5.264-.432,1.616.352q-.192.656-.416,1.344T22.768-9.7q-.224.632-.416,1.112l-1.216-.352q.176-.512.344-1.176t.312-1.352Q21.936-12.16,22.016-12.72Zm6.064-.88h1.792V1.424H28.08ZM23.3-3.584,31.52-5.056l.288,1.776L23.584-1.792Zm.9-7.84.944-1.3q.448.256.936.592T27-11.44a4.985,4.985,0,0,1,.7.656L26.7-9.344a4.594,4.594,0,0,0-.664-.688q-.424-.368-.9-.736T24.192-11.424Zm-.72,4.032.9-1.376a10.8,10.8,0,0,1,.992.568q.512.328.976.656a5.068,5.068,0,0,1,.752.632l-.976,1.536a5.114,5.114,0,0,0-.7-.664q-.448-.36-.952-.72A11.2,11.2,0,0,0,23.472-7.392Zm9.952-3.584q.48-.016.912-.04t.656-.04q.5-.032,1.224-.1t1.632-.152q.9-.08,1.928-.16t2.128-.176q.832-.08,1.656-.136t1.568-.1q.744-.04,1.3-.056l.016,2.048q-.432,0-.992.016t-1.112.056a5.535,5.535,0,0,0-.984.152,4.017,4.017,0,0,0-1.344.648,5.021,5.021,0,0,0-1.08,1.072,5.15,5.15,0,0,0-.712,1.328,4.206,4.206,0,0,0-.256,1.432,3.239,3.239,0,0,0,.28,1.384,3.046,3.046,0,0,0,.768,1.024,4.306,4.306,0,0,0,1.144.7,6.84,6.84,0,0,0,1.416.424,12.358,12.358,0,0,0,1.576.192L44.4.736a9.958,9.958,0,0,1-1.96-.32,8.287,8.287,0,0,1-1.784-.7,5.725,5.725,0,0,1-1.448-1.1,5,5,0,0,1-.976-1.488,4.727,4.727,0,0,1-.36-1.88,5.92,5.92,0,0,1,.368-2.12,6.768,6.768,0,0,1,.92-1.7,5.546,5.546,0,0,1,1.1-1.128q-.448.064-1.08.128t-1.36.152q-.728.088-1.48.184t-1.448.216q-.7.12-1.256.232ZM44.16-8.32q.208.288.44.68t.456.784q.224.392.384.712L44.224-5.6q-.3-.672-.584-1.184a9.632,9.632,0,0,0-.664-1.04Zm1.792-.736q.208.288.456.664t.488.768q.24.392.4.7l-1.2.576q-.32-.64-.616-1.136a11.263,11.263,0,0,0-.7-1.024ZM54.3-11.424a5.667,5.667,0,0,0-.152-.64q-.088-.288-.168-.576l2.256-.368q.032.24.072.6a6.123,6.123,0,0,0,.1.648q.032.224.144.832t.272,1.472q.16.864.36,1.864t.392,2.016q.192,1.016.376,1.928t.32,1.616q.136.7.2,1.04.08.352.192.768t.224.8l-2.32.416q-.064-.448-.1-.856a5.3,5.3,0,0,0-.112-.76q-.064-.32-.184-.984T55.9-3.168q-.168-.9-.36-1.9l-.384-2.016-.36-1.888q-.168-.88-.3-1.528T54.3-11.424ZM49.936-9.392q.384-.016.752-.04t.736-.072l.992-.136q.64-.088,1.472-.208t1.72-.264l1.72-.28q.832-.136,1.48-.248l1.016-.176.8-.168q.416-.088.7-.168l.384,2.1q-.256.016-.688.08t-.784.112q-.432.064-1.128.176l-1.544.248q-.848.136-1.728.272T54.16-7.9q-.8.136-1.408.232l-.912.144-.72.152q-.336.072-.752.184Zm.016,4.7q.32-.016.808-.072t.856-.1q.432-.064,1.152-.176L54.392-5.3l1.864-.3q.96-.152,1.872-.312t1.664-.288L61.008-6.4q.464-.1.888-.192t.744-.192l.432,2.112a7.507,7.507,0,0,0-.776.088q-.456.072-.92.152-.512.08-1.28.208l-1.688.28q-.92.152-1.88.3t-1.84.3q-.88.152-1.584.264T52-2.88q-.512.1-.92.176t-.68.16ZM72.72-9.5q.112.256.3.728l.392,1.008q.208.536.368,1.016T74.032-6l-1.92.672a6.678,6.678,0,0,0-.224-.768q-.16-.464-.352-.984t-.384-1q-.192-.48-.336-.8Zm5.9,1.168q-.128.384-.216.656t-.168.512a15.337,15.337,0,0,1-.832,2.424A10.7,10.7,0,0,1,76.064-2.48,11.919,11.919,0,0,1,73.528-.04,12.568,12.568,0,0,1,70.7,1.488L69.024-.224A10.845,10.845,0,0,0,70.88-.936,11.955,11.955,0,0,0,72.768-2.08a8.356,8.356,0,0,0,1.568-1.488A8.285,8.285,0,0,0,75.3-5.144a11.5,11.5,0,0,0,.7-1.9,11.847,11.847,0,0,0,.376-2.008Zm-9.616-.32q.16.3.36.784t.408,1.008q.208.528.408,1.024t.312.832l-1.952.736q-.1-.32-.28-.832t-.408-1.08q-.224-.568-.424-1.048a7.34,7.34,0,0,0-.344-.736Zm16.816,7.12v-9.2q0-.416-.04-.96a8.394,8.394,0,0,0-.12-.96h2.5q-.048.416-.1.92t-.048,1v9.2q0,.224.016.632t.064.84q.048.432.064.768h-2.5q.064-.48.112-1.12T85.824-1.536Zm1.712-6.976q.8.208,1.792.536t2,.7q1.008.368,1.9.728t1.48.664L93.792-3.68q-.672-.352-1.488-.712t-1.656-.7q-.84-.336-1.648-.624t-1.464-.512Zm17.2-4.32q-.08.432-.256,1.12a13.746,13.746,0,0,1-.512,1.552q-.256.592-.584,1.224a11.277,11.277,0,0,1-.664,1.128,2.687,2.687,0,0,1,.528-.168,6.381,6.381,0,0,1,.664-.112,5.39,5.39,0,0,1,.616-.04,2.46,2.46,0,0,1,1.672.576,2.144,2.144,0,0,1,.664,1.712q0,.32.008.784t.024.968q.016.5.032.984t.016.864h-1.92q.032-.272.04-.648t.016-.792q.008-.416.016-.808T105.1-5.2a1.232,1.232,0,0,0-.408-1.064,1.5,1.5,0,0,0-.9-.3,3.091,3.091,0,0,0-1.352.328,4.353,4.353,0,0,0-1.144.776q-.352.352-.712.784t-.776.976L98.1-4.976a21.337,21.337,0,0,0,1.8-1.856,13.5,13.5,0,0,0,1.288-1.776,11.168,11.168,0,0,0,.864-1.76,9.684,9.684,0,0,0,.392-1.336,8.142,8.142,0,0,0,.184-1.3ZM98.72-11.36q.608.1,1.408.144t1.408.048q1.056,0,2.312-.048t2.552-.168q1.3-.12,2.464-.312l-.016,1.856q-.848.112-1.832.2t-2,.144q-1.016.056-1.944.08t-1.648.024q-.32,0-.792-.008t-.968-.032q-.5-.024-.944-.056Zm12.672,4.544q-.256.08-.6.2l-.688.24q-.344.12-.616.232-.768.3-1.816.736T105.488-4.4a9.773,9.773,0,0,0-1.216.752,3.209,3.209,0,0,0-.752.744,1.434,1.434,0,0,0-.256.824.976.976,0,0,0,.144.552.979.979,0,0,0,.432.344,2.453,2.453,0,0,0,.72.176,9.429,9.429,0,0,0,1.024.048q1.024,0,2.256-.12t2.288-.328L110.064.656q-.512.064-1.3.136t-1.624.1q-.84.032-1.608.032a9.552,9.552,0,0,1-2.24-.24,3.151,3.151,0,0,1-1.56-.824,2.208,2.208,0,0,1-.568-1.608,3.027,3.027,0,0,1,.376-1.5,4.575,4.575,0,0,1,1-1.216,9.208,9.208,0,0,1,1.368-.984q.744-.44,1.464-.808.736-.384,1.328-.656t1.112-.488q.52-.216,1-.44.464-.208.9-.408t.88-.424ZM.48,17.984H15.52V19.76H.48Zm.656-8.72H14.88V11.04H1.136Zm2.512,5.792H12.48v1.632H3.648Zm8.128-2.96H13.7V21.36A2.759,2.759,0,0,1,13.5,22.5a1.311,1.311,0,0,1-.688.64,3.547,3.547,0,0,1-1.224.272q-.728.048-1.736.048a6.506,6.506,0,0,0-.28-.92,6.986,6.986,0,0,0-.392-.888q.448.016.9.024t.808.008h.488a.467.467,0,0,0,.312-.08.354.354,0,0,0,.088-.272Zm-9.456,0H12.544v1.728H4.208v9.632H2.32ZM6.976,9.808H8.9v8.8H6.976Zm14.256,4.656H31.456v1.728H21.232Zm.56-3.232h9.12v1.7h-9.12Zm3.376.832h1.92v2.56a7.407,7.407,0,0,1-.184,1.6,5.64,5.64,0,0,1-.672,1.656,6.294,6.294,0,0,1-1.392,1.584,9.587,9.587,0,0,1-2.328,1.384,3.554,3.554,0,0,0-.352-.464q-.224-.256-.464-.512a3.19,3.19,0,0,0-.464-.416,8.123,8.123,0,0,0,2.152-1.1,4.4,4.4,0,0,0,1.168-1.264,4.158,4.158,0,0,0,.5-1.288,6.4,6.4,0,0,0,.12-1.192Zm2.208,3.616a5.649,5.649,0,0,0,1.512,2.248,5.979,5.979,0,0,0,2.616,1.32,4.48,4.48,0,0,0-.44.48q-.232.288-.432.584t-.344.552a6.334,6.334,0,0,1-2.848-1.808,8.558,8.558,0,0,1-1.68-3.024Zm-6.784-1.04v5.9H18.72V16.416H16.864V14.64Zm0,5.072a2.908,2.908,0,0,0,1.392,1.152,6.278,6.278,0,0,0,2.144.416q.7.032,1.672.04t2.04-.008q1.072-.016,2.1-.064t1.832-.112q-.1.224-.224.576t-.232.72a6.188,6.188,0,0,0-.152.656q-.72.048-1.648.072t-1.9.032q-.976.008-1.888-.008T24.1,23.136a8.158,8.158,0,0,1-2.512-.456,4.525,4.525,0,0,1-1.84-1.32q-.528.448-1.08.928t-1.208.992l-.944-2q.56-.336,1.168-.736t1.168-.832ZM16.88,9.936,18.3,8.784a10.581,10.581,0,0,1,1.008.744q.512.424.96.864a6.98,6.98,0,0,1,.72.808l-1.52,1.28a5.434,5.434,0,0,0-.664-.832q-.424-.448-.936-.9T16.88,9.936ZM28.48,8.4l1.952.608Q30,9.7,29.544,10.36t-.84,1.128l-1.568-.544q.24-.368.5-.808t.48-.9Q28.336,8.784,28.48,8.4Zm-6.272.7,1.616-.672a9.236,9.236,0,0,1,.848,1.232,5.9,5.9,0,0,1,.56,1.216l-1.728.736a5.676,5.676,0,0,0-.5-1.224A10.857,10.857,0,0,0,22.208,9.1Z" transform="translate(236.936 7750.676)" fill="#333"/>
    <rect id="長方形_435" data-name="長方形 435" width="165" height="40" rx="5" transform="translate(19.936 7721.676)" fill="#fff"/>
    <path id="パス_801" data-name="パス 801" d="M-20.016-13.264h1.9V-.9a3.293,3.293,0,0,1-.2,1.3,1.388,1.388,0,0,1-.7.688,4.081,4.081,0,0,1-1.3.3q-.8.072-1.9.072a3.519,3.519,0,0,0-.144-.648q-.112-.36-.248-.72a4.535,4.535,0,0,0-.28-.616q.784.016,1.488.024t.944.008a.5.5,0,0,0,.328-.088.392.392,0,0,0,.1-.312Zm-12.1,4.64h7.6v1.776h-7.6ZM-32.5-5.152h8.24v1.808H-32.5Zm.272-7.1,1.584-.5a10.92,10.92,0,0,1,.472,1.1q.216.584.384,1.136t.264,1l-1.664.56a7.508,7.508,0,0,0-.232-1.024q-.168-.576-.376-1.168T-32.224-12.256Zm2.976-1.328h1.872V1.44h-1.872Zm5.456,1.936h1.856v9.056h-1.856Zm-2.192-1.216,1.872.448q-.352.912-.76,1.832t-.76,1.576l-1.52-.432q.224-.464.448-1.064t.416-1.216Q-26.1-12.336-25.984-12.864Zm13.232,4.1H-3.9v1.84h-8.848Zm4.432,3.84h5.392V-3.12H-8.32ZM-9.328-7.7h2V.032l-2-.24Zm-3.824,1.648,2,.208A17.283,17.283,0,0,1-12.24-1.52a7.909,7.909,0,0,1-2.144,3.056,6.112,6.112,0,0,0-.448-.432q-.288-.256-.6-.5t-.536-.384A5.868,5.868,0,0,0-14.016-2.36,13.413,13.413,0,0,0-13.152-6.048ZM-11.6-4.032a5.117,5.117,0,0,0,.968,1.768A3.931,3.931,0,0,0-9.24-1.24,6.544,6.544,0,0,0-7.5-.768a14.894,14.894,0,0,0,2,.128h1.672q.536,0,1.1-.008L-1.7-.664q.48-.008.8-.024a4.007,4.007,0,0,0-.28.584q-.136.344-.248.712a5.02,5.02,0,0,0-.16.672H-5.6a15.826,15.826,0,0,1-2.56-.192,6.7,6.7,0,0,1-2.1-.7,5.247,5.247,0,0,1-1.664-1.448,8.428,8.428,0,0,1-1.24-2.464Zm2.24-9.536h2.048v2.912H-9.36Zm-5.824,1.616H-1.44v4.016H-3.408v-2.208H-13.3v2.208h-1.888ZM9.264-3.84l1.088-1.2a12.249,12.249,0,0,1,1.2.512q.624.3,1.176.624t.952.608l-1.1,1.328a10.285,10.285,0,0,0-.936-.648q-.552-.344-1.176-.672A11.718,11.718,0,0,0,9.264-3.84ZM7.536-.976,8.64-2.32q.784.208,1.616.5t1.64.608q.808.32,1.528.656T14.7.08l-1.12,1.5a15.845,15.845,0,0,0-1.72-.928q-1.016-.48-2.152-.9T7.536-.976ZM9.5-13.6l1.872.32a19,19,0,0,1-1.624,2.9A12.462,12.462,0,0,1,7.328-7.744a3.2,3.2,0,0,0-.36-.432q-.232-.24-.48-.464a2.4,2.4,0,0,0-.456-.336,10.134,10.134,0,0,0,1.552-1.456,11.154,11.154,0,0,0,1.152-1.6A10.565,10.565,0,0,0,9.5-13.6Zm.3,1.536h3.968v1.632H8.992Zm3.456,0h.368l.3-.08,1.184.672a12.216,12.216,0,0,1-1.872,3.216A13.838,13.838,0,0,1,10.64-5.768,14.427,14.427,0,0,1,7.648-4.08a3.815,3.815,0,0,0-.32-.512q-.208-.288-.44-.568a3.4,3.4,0,0,0-.424-.44A13.634,13.634,0,0,0,9.32-7.032,11.326,11.326,0,0,0,11.7-9.12a8.575,8.575,0,0,0,1.56-2.624ZM9.616-10.816a10.227,10.227,0,0,0,1.608,2.184,11.7,11.7,0,0,0,2.24,1.824,12.729,12.729,0,0,0,2.648,1.272,4.642,4.642,0,0,0-.424.456q-.232.28-.448.568a4.163,4.163,0,0,0-.344.528A12.965,12.965,0,0,1,12.16-5.5a12.9,12.9,0,0,1-2.3-2.144A14.464,14.464,0,0,1,8.1-10.272ZM3.2-13.584l1.664.624q-.32.608-.672,1.264T3.5-10.448q-.336.592-.64,1.024l-1.28-.544q.288-.5.592-1.12t.576-1.28Q3.024-13.024,3.2-13.584Zm1.84,1.9,1.568.7q-.576.912-1.264,1.912T3.968-7.144q-.688.92-1.3,1.608L1.552-6.16Q2-6.7,2.48-7.384t.952-1.424Q3.9-9.552,4.32-10.3T5.04-11.68ZM.736-9.792,1.664-11.1q.416.368.856.808t.816.88a4.807,4.807,0,0,1,.568.792L2.928-7.136a5.249,5.249,0,0,0-.552-.848q-.36-.464-.792-.944T.736-9.792Zm3.84,1.92L5.84-8.4q.3.544.592,1.152t.5,1.192a6.017,6.017,0,0,1,.3,1.048L5.872-4.4A5.45,5.45,0,0,0,5.6-5.472Q5.392-6.064,5.128-6.7T4.576-7.872ZM.72-6.544q1.1-.032,2.64-.1l3.12-.128-.016,1.52q-1.488.112-2.952.208T.88-4.864ZM4.912-3.888,6.256-4.32q.3.688.584,1.5t.424,1.416L5.84-.9a11.708,11.708,0,0,0-.384-1.448Q5.184-3.184,4.912-3.888Zm-3.488-.3L3.008-3.9a20.2,20.2,0,0,1-.384,2.272A10.732,10.732,0,0,1,2.032.256,3.512,3.512,0,0,0,1.6.008q-.272-.136-.552-.264A4.116,4.116,0,0,0,.56-.448a7.317,7.317,0,0,0,.56-1.72A18.335,18.335,0,0,0,1.424-4.192ZM3.216-5.7H4.9V1.44H3.216ZM24.032-8.112H26.08V-.8A2.666,2.666,0,0,1,25.84.456a1.5,1.5,0,0,1-.832.664,5.515,5.515,0,0,1-1.456.264q-.864.056-2.016.056a6.346,6.346,0,0,0-.328-1,8.857,8.857,0,0,0-.456-.968q.56.032,1.144.048t1.04.008q.456-.008.632-.008a.657.657,0,0,0,.368-.072.357.357,0,0,0,.1-.3ZM18.576-12.48H29.744v1.9H18.576Zm10.448,0h.528L30-12.592l1.52,1.1q-.72.88-1.632,1.808T27.976-7.912A17.354,17.354,0,0,1,26-6.464a3.712,3.712,0,0,0-.384-.456q-.24-.248-.488-.5a4.791,4.791,0,0,0-.456-.408,13.886,13.886,0,0,0,1.272-.928q.648-.528,1.24-1.1t1.072-1.136A9.412,9.412,0,0,0,29.024-12Z" transform="translate(102.936 7748.676)" fill="#333"/>
    <rect id="長方形_442" data-name="長方形 442" width="101.464" height="2" transform="translate(234.471 7753.713)" fill="#e61400"/>
    <g id="グループ_803" data-name="グループ 803" transform="translate(-4801.905 6497.496)">
      <circle id="楕円形_3" data-name="楕円形 3" cx="11.938" cy="11.938" r="11.938" transform="translate(5002.841 1230.18)" fill="#82c195"/>
      <g id="グループ_30" data-name="グループ 30" transform="translate(5009.841 1234.18)">
        <path id="パス_805" data-name="パス 805" d="M-5.156,0l.948-2.964h.7L-2.56,0h-.624L-3.6-1.544q-.068-.232-.13-.482t-.13-.486H-3.88q-.056.24-.122.488t-.13.48L-4.556,0Zm.588-.76v-.46H-3.16v.46Zm2.5.76V-2.42a1.086,1.086,0,0,1,.078-.42.638.638,0,0,1,.248-.3.818.818,0,0,1,.45-.11,1.129,1.129,0,0,1,.244.024,1.449,1.449,0,0,1,.184.052l-.108.44a.563.563,0,0,0-.24-.052.249.249,0,0,0-.2.084.408.408,0,0,0-.072.268V0Zm-.3-1.776v-.436l.336-.028h.98v.464ZM.3.056A.777.777,0,0,1-.128-.05.593.593,0,0,1-.364-.344,1.215,1.215,0,0,1-.436-.78v-1H-.752v-.436L-.4-2.24l.068-.6H.148v.6H.7v.464H.148v.992A.425.425,0,0,0,.228-.5a.286.286,0,0,0,.228.092A.45.45,0,0,0,.572-.424q.06-.016.1-.032l.1.428Q.684,0,.566.028A1.155,1.155,0,0,1,.3.056Zm1.9,0a1.141,1.141,0,0,1-.564-.14,1.036,1.036,0,0,1-.4-.4,1.259,1.259,0,0,1-.15-.632,1.31,1.31,0,0,1,.086-.488,1.114,1.114,0,0,1,.236-.37,1.069,1.069,0,0,1,.336-.236A.947.947,0,0,1,2.128-2.3a.913.913,0,0,1,.516.138.857.857,0,0,1,.314.38,1.369,1.369,0,0,1,.106.554,1.433,1.433,0,0,1-.008.154.789.789,0,0,1-.02.118H1.656a.7.7,0,0,0,.108.3.529.529,0,0,0,.216.186.7.7,0,0,0,.3.062.843.843,0,0,0,.256-.038A1.11,1.11,0,0,0,2.78-.552l.2.36a1.476,1.476,0,0,1-.368.18A1.3,1.3,0,0,1,2.2.056Zm-.556-1.4H2.56a.576.576,0,0,0-.1-.358.379.379,0,0,0-.322-.134.471.471,0,0,0-.22.054.468.468,0,0,0-.176.164A.673.673,0,0,0,1.644-1.348ZM3.708,0V-2.24h.48l.044.4h.012a.987.987,0,0,1,.292-.336A.6.6,0,0,1,4.88-2.3a.68.68,0,0,1,.154.014.707.707,0,0,1,.106.034l-.1.508L4.93-1.766a.659.659,0,0,0-.126-.01.474.474,0,0,0-.27.1.737.737,0,0,0-.238.34V0Z" transform="translate(5 5)" fill="#fff"/>
        <path id="パス_804" data-name="パス 804" d="M-2.745.126A1.9,1.9,0,0,1-3.937-.266a2.489,2.489,0,0,1-.787-1.148A5.386,5.386,0,0,1-5-3.267a5.3,5.3,0,0,1,.279-1.849,2.4,2.4,0,0,1,.787-1.121,1.944,1.944,0,0,1,1.192-.378,1.944,1.944,0,0,1,1.193.378A2.4,2.4,0,0,1-.765-5.116,5.3,5.3,0,0,1-.486-3.267,5.386,5.386,0,0,1-.765-1.413,2.489,2.489,0,0,1-1.553-.266,1.9,1.9,0,0,1-2.745.126Zm0-1.035a.739.739,0,0,0,.522-.211,1.473,1.473,0,0,0,.351-.729,6.267,6.267,0,0,0,.126-1.417A6.133,6.133,0,0,0-1.872-4.68a1.367,1.367,0,0,0-.351-.7.766.766,0,0,0-.522-.2.76.76,0,0,0-.508.2,1.391,1.391,0,0,0-.365.7,5.739,5.739,0,0,0-.135,1.413A5.863,5.863,0,0,0-3.618-1.85a1.5,1.5,0,0,0,.365.729A.734.734,0,0,0-2.745-.909ZM.828,0V-1.08h1.44V-5.1H1.053v-.828a5.675,5.675,0,0,0,.868-.234,4.053,4.053,0,0,0,.68-.324h.981V-1.08H4.833V0Z" transform="translate(5.476 13.461)" fill="#fff"/>
      </g>
    </g>
  </g>
</svg>
