<svg xmlns="http://www.w3.org/2000/svg" xmlns:xlink="http://www.w3.org/1999/xlink" width="188" height="243.769" viewBox="0 0 188 243.769">
  <defs>
    <clipPath id="clip-path">
      <path id="パス_385" data-name="パス 385" d="M945.383,12583.011a90,90,0,0,1-180,0c0-49.706,40.294-149.769,90-149.769S945.383,12533.3,945.383,12583.011Z" fill="none"/>
    </clipPath>
  </defs>
  <g id="グループ_610" data-name="グループ 610" transform="translate(-761.383 -12433.242)">
    <g id="グループ_606" data-name="グループ 606">
      <circle id="楕円形_305" data-name="楕円形 305" cx="92" cy="92" r="92" transform="translate(763.383 12491.011)" fill="#fff"/>
      <path id="パス_375" data-name="パス 375" d="M855.383,12493.011a90,90,0,1,1-90,90,90,90,0,0,1,90-90m0-4a94,94,0,1,0,94,94,94.106,94.106,0,0,0-94-94Z" fill="#333"/>
    </g>
    <g id="グループ_609" data-name="グループ 609">
      <g id="グループ_608" data-name="グループ 608" clip-path="url(#clip-path)">
        <g id="グループ_607" data-name="グループ 607">
          <path id="パス_376" data-name="パス 376" d="M806,12600.721c12.746,16.994,60.8,18.985,80.721,10.2,30.351-13.388,22.736-50.4,13.6-81.571-10.628-36.231-73.464-39.029-91.768-5.1C799.109,12541.743,793.253,12583.727,806,12600.721Z" fill="#333"/>
          <path id="パス_376_-_アウトライン" data-name="パス 376 - アウトライン" d="M855.357,12618.925h0c-19.007,0-42.563-4.326-51.671-16.47-13.478-17.972-7.886-60.665,2.318-79.579,8.439-15.645,26.848-25.364,48.042-25.364,24.265,0,43.516,12.177,49.044,31.021,6.6,22.512,20.335,69.354-15.2,85.029C880.16,12616.97,868.3,12618.925,855.357,12618.925Zm-1.312-115.632c-19.066,0-35.525,8.556-42.954,22.327-9.329,17.293-14.388,57.889-2.781,73.366,6.451,8.6,24.917,14.158,47.046,14.158,12.172,0,23.178-1.775,30.2-4.872,27.154-11.978,21.81-44.621,11.989-78.113C891.725,12510.329,870.475,12503.293,854.045,12503.293Z" fill="#333"/>
          <path id="パス_377" data-name="パス 377" d="M821.7,12622.328c-4.76,15.014-6.638,36.68-6.638,36.68l84.561.659s-3.569-22.851-8.988-38.348-15.4-26.355-24.372-34.553c-7.407-6.759-19.542-3.382-23.482.948C837.014,12594.053,826.461,12607.317,821.7,12622.328Z" fill="#fff"/>
          <path id="パス_377_-_アウトライン" data-name="パス 377 - アウトライン" d="M899.624,12662.558H899.6l-84.561-.659a2.891,2.891,0,0,1-2.857-3.141c.078-.9,1.961-22.158,6.762-37.3,5.2-16.405,16.907-30.421,21.7-35.686,3.069-3.372,9.251-5.728,15.034-5.728a18.21,18.21,0,0,1,12.533,4.59c8.66,7.908,19.343,19.115,25.152,35.733,5.443,15.566,8.968,37.912,9.115,38.855a2.891,2.891,0,0,1-2.856,3.337Zm-81.366-6.415,77.944.607c-1.2-6.882-4.244-22.893-8.295-34.477-5.382-15.4-15.436-25.923-23.593-33.373a12.675,12.675,0,0,0-8.636-3.078c-4.72,0-9.066,1.978-10.759,3.838-4.535,4.983-15.607,18.227-20.464,33.542C820.9,12634.412,818.965,12649.663,818.258,12656.143Z" fill="#333"/>
          <path id="パス_378" data-name="パス 378" d="M852.909,12629.077q-.545,0-1.089-.017c-7.086-.222-13.627-2.664-17.5-6.533a2,2,0,0,1,2.829-2.828,17.111,17.111,0,0,0,6.085,3.71,27.541,27.541,0,0,0,8.707,1.653q.482.015.964.015a31.213,31.213,0,0,0,9.018-1.338,32.063,32.063,0,0,0,10-5.075,2,2,0,1,1,2.4,3.2,36.008,36.008,0,0,1-11.244,5.705A35.166,35.166,0,0,1,852.909,12629.077Z" fill="#333"/>
          <path id="パス_379" data-name="パス 379" d="M831.348,12600.181c-6.419,7.058-15.608,23.564-18.718,32.932-5.971,17.965-5.435,43.768-5.435,43.768H906.53s-.623-26.429-7.42-44.976c-3.5-9.554-14.231-25.775-21.878-33-4.957,12.958-17.859,55.262-22.8,60.442C848.271,12653.4,836.587,12611.015,831.348,12600.181Z" fill="#333"/>
          <path id="パス_379_-_アウトライン" data-name="パス 379 - アウトライン" d="M877.232,12596.017a2.892,2.892,0,0,1,1.985.789c7.945,7.5,18.932,24.077,22.607,34.1,6.882,18.78,7.57,44.8,7.6,45.9a2.891,2.891,0,0,1-2.89,2.959H807.2a2.891,2.891,0,0,1-2.89-2.831c-.022-1.073-.477-26.511,5.582-44.739,3.356-10.109,12.928-26.933,19.323-33.964a2.89,2.89,0,0,1,4.74.687c2.083,4.307,4.966,12.879,8.305,22.8,3.738,11.113,8.6,25.566,12.059,32.281,3.746-7.83,9.994-26.352,14.006-38.244,2.5-7.416,4.717-13.979,6.213-17.889a2.891,2.891,0,0,1,2.057-1.786A2.937,2.937,0,0,1,877.232,12596.017Zm26.282,77.973c-.388-7.335-1.877-26.789-7.118-41.091-2.916-7.954-11.144-20.843-18.038-28.643-1.293,3.665-2.859,8.311-4.561,13.355-7.83,23.212-13.652,39.936-17.275,43.733a2.89,2.89,0,0,1-2.032.895,2.979,2.979,0,0,1-2.067-.811c-4.012-3.873-8.8-17.5-15.647-37.858-2.273-6.757-4.454-13.241-6.216-17.817-5.628,7.646-12.565,20.369-15.188,28.271-4.606,13.856-5.229,32.86-5.292,39.966Z" fill="#333"/>
          <ellipse id="楕円形_306" data-name="楕円形 306" cx="50.982" cy="60.329" rx="50.982" ry="60.329" transform="translate(802.765 12482.363)" fill="#fff"/>
          <path id="楕円形_306_-_アウトライン" data-name="楕円形 306 - アウトライン" d="M50.982-2a45.963,45.963,0,0,1,20.74,4.952,51.128,51.128,0,0,1,9.014,5.789,56.368,56.368,0,0,1,7.824,7.638,61.775,61.775,0,0,1,6.435,9.228,66.52,66.52,0,0,1,4.847,10.566,72.821,72.821,0,0,1,0,48.311A66.52,66.52,0,0,1,94.994,95.05a61.775,61.775,0,0,1-6.435,9.228,56.368,56.368,0,0,1-7.824,7.638,51.128,51.128,0,0,1-9.014,5.789,45.9,45.9,0,0,1-41.479,0,51.128,51.128,0,0,1-9.014-5.789,56.367,56.367,0,0,1-7.824-7.638A61.774,61.774,0,0,1,6.97,95.05,66.52,66.52,0,0,1,2.123,84.484a72.821,72.821,0,0,1,0-48.311A66.52,66.52,0,0,1,6.97,25.607,61.774,61.774,0,0,1,13.4,16.379a56.367,56.367,0,0,1,7.824-7.638,51.128,51.128,0,0,1,9.014-5.789A45.963,45.963,0,0,1,50.982-2Zm0,120.657a42,42,0,0,0,18.949-4.529,47.12,47.12,0,0,0,8.306-5.336,52.357,52.357,0,0,0,7.266-7.1,59.75,59.75,0,0,0,10.57-18.558,68.823,68.823,0,0,0,0-45.619A59.75,59.75,0,0,0,85.5,18.961a52.358,52.358,0,0,0-7.266-7.1,47.121,47.121,0,0,0-8.306-5.336,41.9,41.9,0,0,0-37.9,0,47.121,47.121,0,0,0-8.306,5.336,52.358,52.358,0,0,0-7.266,7.1A59.75,59.75,0,0,0,5.89,37.519a68.823,68.823,0,0,0,0,45.619A59.75,59.75,0,0,0,16.46,101.7a52.357,52.357,0,0,0,7.266,7.1,47.121,47.121,0,0,0,8.306,5.336A42,42,0,0,0,50.982,118.657Z" transform="translate(802.765 12482.363)" fill="#333"/>
          <path id="パス_380" data-name="パス 380" d="M837.382,12545.13a4.325,4.325,0,1,1-4.325-4.325A4.328,4.328,0,0,1,837.382,12545.13Z" fill="#333"/>
          <path id="パス_381" data-name="パス 381" d="M877.106,12545.133a4.325,4.325,0,1,1-4.325-4.324A4.325,4.325,0,0,1,877.106,12545.133Z" fill="#333"/>
          <path id="パス_382" data-name="パス 382" d="M852.65,12569.8a1.991,1.991,0,0,1-1.166-.376,23,23,0,0,1-3.523-3.418c-2.4-2.825-2.575-4.185-2.631-4.632-.252-2.016,1.431-4.009,3.214-6.118a21.508,21.508,0,0,0,1.814-2.332,2,2,0,1,1,3.439,2.043,23.289,23.289,0,0,1-2.2,2.87c-.588.7-1.2,1.417-1.652,2.056a4.831,4.831,0,0,0-.623,1.06,10.043,10.043,0,0,0,1.762,2.554,19.392,19.392,0,0,0,2.733,2.67,2,2,0,0,1-1.169,3.624Z" fill="#333"/>
          <path id="パス_383" data-name="パス 383" d="M915.266,12527.116c-5.28-27.973-23.893-53.043-52.116-56.08-21.783-2.344-54.609,6.327-67.408,49.848-5.666,19.259-10.175,69.638.06,84.085,7.222,10.2,17.278,14.163,31.439,15.295.776.776-19.543-45.687-19.543-57.257s1.7-14.118,11.046-31.962c8.687-3.159,18.693-3.4,31.438-12.745s14.555-16.33,16.994-16.144c13.6-5.1,17.393,25.025,22.093,32.288,9.346,14.444,9.346,21.242,6.8,39.086-3.689,25.819-7.08,39.37-12.745,45.034-5.065,5.064,12.969,1.31,24.641-9.347C927.505,12591.374,920.931,12557.139,915.266,12527.116Z" fill="#333"/>
          <path id="パス_383_-_アウトライン" data-name="パス 383 - アウトライン" d="M856.572,12467.8h0a64.485,64.485,0,0,1,6.885.365c27.048,2.911,48.5,25.841,54.647,58.418,5.876,31.139,12.442,65.93-8.2,84.772-8.7,7.939-20.756,12.331-25.768,12.331-2.916,0-3.962-1.475-4.326-2.354-.448-1.081-.558-2.792,1.46-4.81,5.545-5.544,8.778-21.358,11.927-43.4,2.546-17.819,2.253-23.792-6.362-37.106-1.529-2.363-2.821-6.346-4.317-10.956-2.66-8.2-6.681-20.591-12.366-20.59a5.657,5.657,0,0,0-1.968.394,2.893,2.893,0,0,1-1.235.176c.528.046-.281,1.068-1,1.971a67.184,67.184,0,0,1-14.069,13.622c-9.628,7.062-17.685,9.146-24.794,10.983-2.2.568-4.3,1.108-6.324,1.784l-.969,1.848c-7.988,15.215-9.215,17.553-9.215,27.761,0,8.241,12.234,38.4,16.839,49.755,3.148,7.761,3.148,7.761,2.23,9.124a2.909,2.909,0,0,1-2.634,1.269c-16.266-1.31-26.309-6.249-33.581-16.515-11.406-16.1-5.929-68.032-.474-86.571C806.844,12472.891,842.068,12467.8,856.572,12467.8Zm31.544,149.326a48.067,48.067,0,0,0,17.9-10.04c18.257-16.669,12.009-49.776,6.5-78.987-4.386-23.236-19.954-50.988-49.669-54.186a58.505,58.505,0,0,0-6.267-.333c-13.2,0-45.285,4.688-58.059,48.122-5.767,19.6-9.5,68.689-.354,81.6,5.488,7.748,13.015,11.938,24.694,13.582l-.84-2.071c-8.509-21-17.207-43.57-17.207-51.8,0-11.633,1.7-14.874,9.878-30.447l1.5-2.855a2.888,2.888,0,0,1,1.572-1.375c2.514-.915,5.134-1.6,7.894-2.311,6.6-1.709,14.09-3.645,22.823-10.05a61.084,61.084,0,0,0,12.956-12.548c1.911-2.414,3.291-4.158,5.652-4.158a6.742,6.742,0,0,1,3.078-.574h0c9.887,0,14.31,13.632,17.864,24.586,1.314,4.049,2.554,7.872,3.672,9.6,9.85,15.224,9.823,22.929,7.232,41.065C895.523,12597.766,892.486,12610.21,888.115,12617.123Z" fill="#333"/>
          <path id="パス_384" data-name="パス 384" d="M851.795,12582.275c-4.368,0-9.04-3.253-11.4-6.466a2,2,0,0,1,3.225-2.365,13.513,13.513,0,0,0,3.755,3.357,8.955,8.955,0,0,0,4.417,1.474c3.7,0,6.885-1.538,10.03-4.839a2,2,0,1,1,2.9,2.758C860.824,12580.286,856.6,12582.275,851.795,12582.275Z" fill="#333"/>
        </g>
      </g>
    </g>
  </g>
</svg>
